<?xml version="1.0" encoding="UTF-8" standalone="no"?>
<!-- Generator: Fusion 360, Shaper Origin Export Add-In, Version 1.8.0  -->

<svg
   shaper:fusionaddin="version:1.8.0"
   width="128cm"
   height="36cm"
   version="1.1"
   x="0cm"
   y="0cm"
   viewBox="0 0 128 36"
   enable-background="new 0 0 128 36"
   xml:space="preserve"
   id="svg70"
   sodipodi:docname="corpus_7_Faces.svg"
   inkscape:version="1.2.2 (732a01da63, 2022-12-09)"
   xmlns:inkscape="http://www.inkscape.org/namespaces/inkscape"
   xmlns:sodipodi="http://sodipodi.sourceforge.net/DTD/sodipodi-0.dtd"
   xmlns="http://www.w3.org/2000/svg"
   xmlns:svg="http://www.w3.org/2000/svg"
   xmlns:shaper="http://www.shapertools.com/namespaces/shaper"><defs
     id="defs74" /><sodipodi:namedview
     id="namedview72"
     pagecolor="#505050"
     bordercolor="#eeeeee"
     borderopacity="1"
     inkscape:showpageshadow="0"
     inkscape:pageopacity="0"
     inkscape:pagecheckerboard="0"
     inkscape:deskcolor="#505050"
     inkscape:document-units="cm"
     showgrid="false"
     inkscape:zoom="0.27078451"
     inkscape:cx="2306.2619"
     inkscape:cy="681.35361"
     inkscape:window-width="1920"
     inkscape:window-height="991"
     inkscape:window-x="-9"
     inkscape:window-y="-9"
     inkscape:window-maximized="1"
     inkscape:current-layer="svg70" /><g
     id="g233"
     style="fill:none;stroke:#000000;stroke-opacity:1;stroke-width:0.1;stroke-dasharray:none"><path
       d="M60.6562575,33.1029873 A1.4,1.4 0 0,1 59.2562575,34.5029873 L-65.9437425,34.5029873 A1.4,1.4 90 0,1 -67.3437425,33.1029873 L-67.3437425,-0.0970127 A1.4,1.4 180 0,1 -65.9437425,-1.4970127 L59.2562575,-1.4970127 A1.4,1.4 270 0,1 60.6562575,-0.0970127 L60.6562575,33.1029873z"
       transform="matrix(1,0,0,-1,67.3437425,34.5029873)"
       fill="rgb(0,0,0)"
       stroke-linecap="round"
       stroke-linejoin="round"
       id="path2"
       style="fill:none;stroke:#000000;stroke-opacity:1;stroke-width:0.1;stroke-dasharray:none" /><path
       d="M34.3479241,0.1029873 a0.475,0.475 0 1,1 0.95,0 a0.475,0.475 0 1,1 -0.95,0z"
       transform="matrix(1,0,0,-1,67.3437425,34.5029873)"
       fill="rgb(255,255,255)"
       stroke="rgb(0,0,0)"
       stroke-width="0.0010cm"
       stroke-linecap="round"
       stroke-linejoin="round"
       id="path4"
       style="fill:none;stroke:#000000;stroke-opacity:1;stroke-width:0.1;stroke-dasharray:none" /><path
       d="M-8.3187425,0.1029873 a0.475,0.475 0 1,1 0.95,0 a0.475,0.475 0 1,1 -0.95,0z"
       transform="matrix(1,0,0,-1,67.3437425,34.5029873)"
       fill="rgb(255,255,255)"
       stroke="rgb(0,0,0)"
       stroke-width="0.0010cm"
       stroke-linecap="round"
       stroke-linejoin="round"
       id="path6"
       style="fill:none;stroke:#000000;stroke-opacity:1;stroke-width:0.1;stroke-dasharray:none" /><path
       d="M-50.9854092,0.1029873 a0.475,0.475 0 1,1 0.95,0 a0.475,0.475 0 1,1 -0.95,0z"
       transform="matrix(1,0,0,-1,67.3437425,34.5029873)"
       fill="rgb(255,255,255)"
       stroke="rgb(0,0,0)"
       stroke-width="0.0010cm"
       stroke-linecap="round"
       stroke-linejoin="round"
       id="path8"
       style="fill:none;stroke:#000000;stroke-opacity:1;stroke-width:0.1;stroke-dasharray:none" /><path
       d="M-42.4854092,32.9029873 a0.475,0.475 0 1,1 0.95,0 a0.475,0.475 0 1,1 -0.95,0z"
       transform="matrix(1,0,0,-1,67.3437425,34.5029873)"
       fill="rgb(255,255,255)"
       stroke="rgb(0,0,0)"
       stroke-width="0.0010cm"
       stroke-linecap="round"
       stroke-linejoin="round"
       id="path10"
       style="fill:none;stroke:#000000;stroke-opacity:1;stroke-width:0.1;stroke-dasharray:none" /><path
       d="M0.1812575,32.9029873 a0.475,0.475 0 1,1 0.95,0 a0.475,0.475 0 1,1 -0.95,0z"
       transform="matrix(1,0,0,-1,67.3437425,34.5029873)"
       fill="rgb(255,255,255)"
       stroke="rgb(0,0,0)"
       stroke-width="0.0010cm"
       stroke-linecap="round"
       stroke-linejoin="round"
       id="path12"
       style="fill:none;stroke:#000000;stroke-opacity:1;stroke-width:0.1;stroke-dasharray:none" /><path
       d="M42.8479241,32.9029873 a0.475,0.475 0 1,1 0.95,0 a0.475,0.475 0 1,1 -0.95,0z"
       transform="matrix(1,0,0,-1,67.3437425,34.5029873)"
       fill="rgb(255,255,255)"
       stroke="rgb(0,0,0)"
       stroke-width="0.0010cm"
       stroke-linecap="round"
       stroke-linejoin="round"
       id="path14"
       style="fill:none;stroke:#000000;stroke-opacity:1;stroke-width:0.1;stroke-dasharray:none" /><path
       d="M34.3479241,32.9029873 a0.475,0.475 0 1,1 0.95,0 a0.475,0.475 0 1,1 -0.95,0z"
       transform="matrix(1,0,0,-1,67.3437425,34.5029873)"
       fill="rgb(255,255,255)"
       stroke="rgb(0,0,0)"
       stroke-width="0.0010cm"
       stroke-linecap="round"
       stroke-linejoin="round"
       id="path16"
       style="fill:none;stroke:#000000;stroke-opacity:1;stroke-width:0.1;stroke-dasharray:none" /><path
       d="M-8.3187425,32.9029873 a0.475,0.475 0 1,1 0.95,0 a0.475,0.475 0 1,1 -0.95,0z"
       transform="matrix(1,0,0,-1,67.3437425,34.5029873)"
       fill="rgb(255,255,255)"
       stroke="rgb(0,0,0)"
       stroke-width="0.0010cm"
       stroke-linecap="round"
       stroke-linejoin="round"
       id="path18"
       style="fill:none;stroke:#000000;stroke-opacity:1;stroke-width:0.1;stroke-dasharray:none" /><path
       d="M-50.9854092,32.9029873 a0.475,0.475 0 1,1 0.95,0 a0.475,0.475 0 1,1 -0.95,0z"
       transform="matrix(1,0,0,-1,67.3437425,34.5029873)"
       fill="rgb(255,255,255)"
       stroke="rgb(0,0,0)"
       stroke-width="0.0010cm"
       stroke-linecap="round"
       stroke-linejoin="round"
       id="path20"
       style="fill:none;stroke:#000000;stroke-opacity:1;stroke-width:0.1;stroke-dasharray:none" /><path
       d="M-42.4854092,0.1029873 a0.475,0.475 0 1,1 0.95,0 a0.475,0.475 0 1,1 -0.95,0z"
       transform="matrix(1,0,0,-1,67.3437425,34.5029873)"
       fill="rgb(255,255,255)"
       stroke="rgb(0,0,0)"
       stroke-width="0.0010cm"
       stroke-linecap="round"
       stroke-linejoin="round"
       id="path22"
       style="fill:none;stroke:#000000;stroke-opacity:1;stroke-width:0.1;stroke-dasharray:none" /><path
       d="M0.1812575,0.1029873 a0.475,0.475 0 1,1 0.95,0 a0.475,0.475 0 1,1 -0.95,0z"
       transform="matrix(1,0,0,-1,67.3437425,34.5029873)"
       fill="rgb(255,255,255)"
       stroke="rgb(0,0,0)"
       stroke-width="0.0010cm"
       stroke-linecap="round"
       stroke-linejoin="round"
       id="path24"
       style="fill:none;stroke:#000000;stroke-opacity:1;stroke-width:0.1;stroke-dasharray:none" /><path
       d="M42.8479241,0.1029873 a0.475,0.475 0 1,1 0.95,0 a0.475,0.475 0 1,1 -0.95,0z"
       transform="matrix(1,0,0,-1,67.3437425,34.5029873)"
       fill="rgb(255,255,255)"
       stroke="rgb(0,0,0)"
       stroke-width="0.0010cm"
       stroke-linecap="round"
       stroke-linejoin="round"
       id="path26"
       style="fill:none;stroke:#000000;stroke-opacity:1;stroke-width:0.1;stroke-dasharray:none" /><path
       d="M21.5145908,0.1029873 a0.475,0.475 0 1,1 0.95,0 a0.475,0.475 0 1,1 -0.95,0z"
       transform="matrix(1,0,0,-1,67.3437425,34.5029873)"
       fill="rgb(255,255,255)"
       stroke="rgb(0,0,0)"
       stroke-width="0.0010cm"
       stroke-linecap="round"
       stroke-linejoin="round"
       id="path28"
       style="fill:none;stroke:#000000;stroke-opacity:1;stroke-width:0.1;stroke-dasharray:none" /><path
       d="M-21.1520759,0.1029873 a0.475,0.475 0 1,1 0.95,0 a0.475,0.475 0 1,1 -0.95,0z"
       transform="matrix(1,0,0,-1,67.3437425,34.5029873)"
       fill="rgb(255,255,255)"
       stroke="rgb(0,0,0)"
       stroke-width="0.0010cm"
       stroke-linecap="round"
       stroke-linejoin="round"
       id="path30"
       style="fill:none;stroke:#000000;stroke-opacity:1;stroke-width:0.1;stroke-dasharray:none" /><path
       d="M-63.8187425,0.1029873 a0.475,0.475 0 1,1 0.95,0 a0.475,0.475 0 1,1 -0.95,0z"
       transform="matrix(1,0,0,-1,67.3437425,34.5029873)"
       fill="rgb(255,255,255)"
       stroke="rgb(0,0,0)"
       stroke-width="0.0010cm"
       stroke-linecap="round"
       stroke-linejoin="round"
       id="path32"
       style="fill:none;stroke:#000000;stroke-opacity:1;stroke-width:0.1;stroke-dasharray:none" /><path
       d="M-29.6520759,32.9029873 a0.475,0.475 0 1,1 0.95,0 a0.475,0.475 0 1,1 -0.95,0z"
       transform="matrix(1,0,0,-1,67.3437425,34.5029873)"
       fill="rgb(255,255,255)"
       stroke="rgb(0,0,0)"
       stroke-width="0.0010cm"
       stroke-linecap="round"
       stroke-linejoin="round"
       id="path34"
       style="fill:none;stroke:#000000;stroke-opacity:1;stroke-width:0.1;stroke-dasharray:none" /><path
       d="M13.0145908,32.9029873 a0.475,0.475 0 1,1 0.95,0 a0.475,0.475 0 1,1 -0.95,0z"
       transform="matrix(1,0,0,-1,67.3437425,34.5029873)"
       fill="rgb(255,255,255)"
       stroke="rgb(0,0,0)"
       stroke-width="0.0010cm"
       stroke-linecap="round"
       stroke-linejoin="round"
       id="path36"
       style="fill:none;stroke:#000000;stroke-opacity:1;stroke-width:0.1;stroke-dasharray:none" /><path
       d="M55.6812575,32.9029873 a0.475,0.475 0 1,1 0.95,0 a0.475,0.475 0 1,1 -0.95,0z"
       transform="matrix(1,0,0,-1,67.3437425,34.5029873)"
       fill="rgb(255,255,255)"
       stroke="rgb(0,0,0)"
       stroke-width="0.0010cm"
       stroke-linecap="round"
       stroke-linejoin="round"
       id="path38"
       style="fill:none;stroke:#000000;stroke-opacity:1;stroke-width:0.1;stroke-dasharray:none" /><path
       d="M21.5145908,32.9029873 a0.475,0.475 0 1,1 0.95,0 a0.475,0.475 0 1,1 -0.95,0z"
       transform="matrix(1,0,0,-1,67.3437425,34.5029873)"
       fill="rgb(255,255,255)"
       stroke="rgb(0,0,0)"
       stroke-width="0.0010cm"
       stroke-linecap="round"
       stroke-linejoin="round"
       id="path40"
       style="fill:none;stroke:#000000;stroke-opacity:1;stroke-width:0.1;stroke-dasharray:none" /><path
       d="M-21.1520759,32.9029873 a0.475,0.475 0 1,1 0.95,0 a0.475,0.475 0 1,1 -0.95,0z"
       transform="matrix(1,0,0,-1,67.3437425,34.5029873)"
       fill="rgb(255,255,255)"
       stroke="rgb(0,0,0)"
       stroke-width="0.0010cm"
       stroke-linecap="round"
       stroke-linejoin="round"
       id="path42"
       style="fill:none;stroke:#000000;stroke-opacity:1;stroke-width:0.1;stroke-dasharray:none" /><path
       d="M-63.8187425,32.9029873 a0.475,0.475 0 1,1 0.95,0 a0.475,0.475 0 1,1 -0.95,0z"
       transform="matrix(1,0,0,-1,67.3437425,34.5029873)"
       fill="rgb(255,255,255)"
       stroke="rgb(0,0,0)"
       stroke-width="0.0010cm"
       stroke-linecap="round"
       stroke-linejoin="round"
       id="path44"
       style="fill:none;stroke:#000000;stroke-opacity:1;stroke-width:0.1;stroke-dasharray:none" /><path
       d="M-29.6520759,0.1029873 a0.475,0.475 0 1,1 0.95,0 a0.475,0.475 0 1,1 -0.95,0z"
       transform="matrix(1,0,0,-1,67.3437425,34.5029873)"
       fill="rgb(255,255,255)"
       stroke="rgb(0,0,0)"
       stroke-width="0.0010cm"
       stroke-linecap="round"
       stroke-linejoin="round"
       id="path46"
       style="fill:none;stroke:#000000;stroke-opacity:1;stroke-width:0.1;stroke-dasharray:none" /><path
       d="M13.0145908,0.1029873 a0.475,0.475 0 1,1 0.95,0 a0.475,0.475 0 1,1 -0.95,0z"
       transform="matrix(1,0,0,-1,67.3437425,34.5029873)"
       fill="rgb(255,255,255)"
       stroke="rgb(0,0,0)"
       stroke-width="0.0010cm"
       stroke-linecap="round"
       stroke-linejoin="round"
       id="path48"
       style="fill:none;stroke:#000000;stroke-opacity:1;stroke-width:0.1;stroke-dasharray:none" /><path
       d="M55.6812575,0.1029873 a0.475,0.475 0 1,1 0.95,0 a0.475,0.475 0 1,1 -0.95,0z"
       transform="matrix(1,0,0,-1,67.3437425,34.5029873)"
       fill="rgb(255,255,255)"
       stroke="rgb(0,0,0)"
       stroke-width="0.0010cm"
       stroke-linecap="round"
       stroke-linejoin="round"
       id="path50"
       style="fill:none;stroke:#000000;stroke-opacity:1;stroke-width:0.1;stroke-dasharray:none" /><path
       d="M-25.0720759,1.0029873 a0.395,0.395 0 1,1 0.79,0 a0.395,0.395 0 1,1 -0.79,0z"
       transform="matrix(1,0,0,-1,67.3437425,34.5029873)"
       fill="rgb(255,255,255)"
       stroke="rgb(0,0,0)"
       stroke-width="0.0010cm"
       stroke-linecap="round"
       stroke-linejoin="round"
       id="path52"
       style="fill:none;stroke:#000000;stroke-opacity:1;stroke-width:0.1;stroke-dasharray:none" /><path
       d="M17.5945908,1.0029873 a0.395,0.395 0 1,1 0.79,0 a0.395,0.395 0 1,1 -0.79,0z"
       transform="matrix(1,0,0,-1,67.3437425,34.5029873)"
       fill="rgb(255,255,255)"
       stroke="rgb(0,0,0)"
       stroke-width="0.0010cm"
       stroke-linecap="round"
       stroke-linejoin="round"
       id="path54"
       style="fill:none;stroke:#000000;stroke-opacity:1;stroke-width:0.1;stroke-dasharray:none" /><path
       d="M17.5945908,32.0029873 a0.395,0.395 0 1,1 0.79,0 a0.395,0.395 0 1,1 -0.79,0z"
       transform="matrix(1,0,0,-1,67.3437425,34.5029873)"
       fill="rgb(255,255,255)"
       stroke="rgb(0,0,0)"
       stroke-width="0.0010cm"
       stroke-linecap="round"
       stroke-linejoin="round"
       id="path56"
       style="fill:none;stroke:#000000;stroke-opacity:1;stroke-width:0.1;stroke-dasharray:none" /><path
       d="M-25.0720759,32.0029873 a0.395,0.395 0 1,1 0.79,0 a0.395,0.395 0 1,1 -0.79,0z"
       transform="matrix(1,0,0,-1,67.3437425,34.5029873)"
       fill="rgb(255,255,255)"
       stroke="rgb(0,0,0)"
       stroke-width="0.0010cm"
       stroke-linecap="round"
       stroke-linejoin="round"
       id="path58"
       style="fill:none;stroke:#000000;stroke-opacity:1;stroke-width:0.1;stroke-dasharray:none" /><path
       d="M-65.2387425,1.0029873 a0.395,0.395 0 1,1 0.79,0 a0.395,0.395 0 1,1 -0.79,0z"
       transform="matrix(1,0,0,-1,67.3437425,34.5029873)"
       fill="rgb(255,255,255)"
       stroke="rgb(0,0,0)"
       stroke-width="0.0010cm"
       stroke-linecap="round"
       stroke-linejoin="round"
       id="path60"
       style="fill:none;stroke:#000000;stroke-opacity:1;stroke-width:0.1;stroke-dasharray:none" /><path
       d="M57.7612575,1.0029873 a0.395,0.395 0 1,1 0.79,0 a0.395,0.395 0 1,1 -0.79,0z"
       transform="matrix(1,0,0,-1,67.3437425,34.5029873)"
       fill="rgb(255,255,255)"
       stroke="rgb(0,0,0)"
       stroke-width="0.0010cm"
       stroke-linecap="round"
       stroke-linejoin="round"
       id="path62"
       style="fill:none;stroke:#000000;stroke-opacity:1;stroke-width:0.1;stroke-dasharray:none" /><path
       d="M-65.2387425,32.0029873 a0.395,0.395 0 1,1 0.79,0 a0.395,0.395 0 1,1 -0.79,0z"
       transform="matrix(1,0,0,-1,67.3437425,34.5029873)"
       fill="rgb(255,255,255)"
       stroke="rgb(0,0,0)"
       stroke-width="0.0010cm"
       stroke-linecap="round"
       stroke-linejoin="round"
       id="path64"
       style="fill:none;stroke:#000000;stroke-opacity:1;stroke-width:0.1;stroke-dasharray:none" /><path
       d="M57.7612575,32.0029873 a0.395,0.395 0 1,1 0.79,0 a0.395,0.395 0 1,1 -0.79,0z"
       transform="matrix(1,0,0,-1,67.3437425,34.5029873)"
       fill="rgb(255,255,255)"
       stroke="rgb(0,0,0)"
       stroke-width="0.0010cm"
       stroke-linecap="round"
       stroke-linejoin="round"
       id="path66"
       style="fill:none;stroke:#000000;stroke-opacity:1;stroke-width:0.1;stroke-dasharray:none" /><path
       d="M-42.9104092,1.5029873 A0.3,0.3 90 0,1 -43.2104092,1.2029873 L-43.2104092,0.7568035 -43.2104092,0.7568035 -43.2107945,0.7413284 -43.2119485,0.7259034 -43.2138684,0.7105582 -43.2165516,0.6953224 -43.2199949,0.6802274 -43.2241865,0.6653311 -43.2291153,0.6506728 -43.2347724,0.6362809 -43.2411489,0.622184 -43.248231,0.6084192 -43.2559852,0.5950526 -43.2643923,0.5821136 -43.2734352,0.5696267 -43.283097,0.5576167 -43.2933607,0.5461083 -43.3042092,0.5351262 -43.3156256,0.5246949 -43.3275639,0.5148623 -43.3399674,0.5056746 -43.3528106,0.4971483 -43.3660677,0.4892996 -43.3797133,0.4821449 -43.3937218,0.4757007 -43.4080676,0.4699832 -43.4227166,0.4650116 -43.437581,0.460817 -43.4526185,0.4574083 -43.4677988,0.4547898 -43.4830916,0.4529661 -43.4984665,0.4519415 -43.5138932,0.4517204 -43.5293413,0.4523073 -43.5293413,0.4523073 -43.7266282,0.46509 -43.9220769,0.4779722 -44.1157115,0.4909541 -44.3075562,0.5040361 -44.4976352,0.5172185 -44.6859727,0.5305016 -44.8725928,0.5438856 -45.0575198,0.557371 -45.2407785,0.5709579 -45.4223921,0.5846464 -45.6023796,0.5984371 -45.7807599,0.6123302 -45.9575519,0.6263263 -46.1327746,0.6404256 -46.3064468,0.6546287 -46.4785875,0.6689359 -46.6492156,0.6833475 -46.81835,0.6978641 -46.9860096,0.7124861 -47.1522134,0.7272137 -47.3169802,0.7420475 -47.480329,0.7569879 -47.6422786,0.7720352 -47.8028481,0.7871898 -47.9620562,0.8024522 -48.1199185,0.8178228 -48.2764475,0.8333024 -48.4316589,0.8488915 -48.5855678,0.8645905 -48.7381897,0.8803999 -48.88954,0.8963205 -49.039634,0.9123525 -49.039634,0.9123525 -49.0534418,0.9141949 -49.067109,0.9167293 -49.0806154,0.9199455 -49.0939408,0.9238333 -49.1070647,0.9283825 -49.1199668,0.9335829 -49.1326263,0.939424 -49.1449816,0.9458724 -49.1569931,0.9528978 -49.1686479,0.9604819 -49.1799329,0.9686066 -49.1908351,0.9772534 -49.2013414,0.9864042 -49.2114386,0.9960404 -49.2210894,1.006116 -49.2302713,1.0165937 -49.24721,1.0386755 -49.2622177,1.0621259 -49.2752575,1.086785 -49.2862886,1.1124821 -49.2952488,1.1389536 -49.3021316,1.1660252 -49.3069438,1.1935517 -49.3096917,1.2213878 -49.3096917,1.2213878 -49.3108963,1.2355171 -49.3127641,1.2495512 -49.3152894,1.2634672 -49.3184662,1.2772421 -49.322289,1.2908529 -49.326752,1.3042767 -49.3318493,1.3174904 -49.3375744,1.3304693 -49.3439016,1.343153 -49.3508104,1.355506 -49.3582873,1.3675088 -49.3663187,1.379142 -49.374891,1.3903862 -49.3839905,1.4012222 -49.3936036,1.4116304 -49.403711,1.421586 -49.414262,1.4310394 -49.4252312,1.4399719 -49.4365989,1.4483704 -49.4483453,1.4562219 -49.4604507,1.4635134 -49.4728952,1.4702319 -49.4856592,1.4763645 -49.4987209,1.4818973 -49.5120178,1.486803 -49.52551,1.4910694 -49.5391741,1.494692 -49.5529871,1.4976661 -49.5669256,1.4999873 -49.5809664,1.5016509 -49.5950864,1.5026524 -49.6092624,1.5029873 -51.4123848,1.5029873 -51.4123848,1.5029873 -51.4258479,1.5026863 -51.4392665,1.5017856 -51.4658903,1.4981988 -51.4920968,1.4922536 -51.5049939,1.4884052 -51.5177181,1.4839805 -51.530217,1.4789983 -51.5424693,1.473469 -51.5661627,1.4608071 -51.577568,1.4536935 -51.5886551,1.4460708 -51.5994035,1.4379506 -51.609766,1.4293682 -51.629253,1.4108959 -51.6469984,1.3907806 -51.6551839,1.3801444 -51.6628933,1.3691425 -51.6701128,1.35779 -51.6768235,1.3461116 -51.6829938,1.3341625 -51.6886144,1.3219654 -51.6936785,1.3095395 -51.6981791,1.2969036 -51.7021094,1.2840769 -51.7054625,1.2710783 -51.7082313,1.2579268 -51.7104092,1.2446416 -51.7104092,1.2446416 -51.8318789,1.2622061 -51.9524502,1.2798847 -52.0721315,1.2976782 -52.1909313,1.3155874 -52.3088584,1.3336131 -52.4259211,1.3517561 -52.542128,1.3700173 -52.6574877,1.3883974 -52.7720087,1.4068973 -52.8856995,1.4255178 -52.9985688,1.4442596 -53.110625,1.4631238 -53.2218767,1.4821109 -53.3323324,1.5012219 -53.4420007,1.5204576 -53.5508902,1.5398187 -53.6590096,1.5593058 -53.7663661,1.5789195 -53.8729659,1.5986609 -53.9788151,1.618531 -54.08392,1.638531 -54.1882867,1.6586617 -54.2919215,1.6789244 -54.3948305,1.69932 -54.49702,1.7198495 -54.5984962,1.7405142 -54.6992652,1.7613149 -54.7993333,1.7822527 -54.8987066,1.8033288 -54.9973914,1.8245441 -55.0953938,1.8458996 -55.1927201,1.8673966 -55.2893764,1.8890359 -55.385369,1.9108186 -55.480704,1.9327459 -55.5753877,1.9548187 -55.6694262,1.9770381 -55.7628258,1.9994051 -55.8555926,2.0219209 -55.9477329,2.0445864 -56.0392528,2.0674026 -56.1301586,2.0903708 -56.2204562,2.1134916 -56.3101504,2.1367662 -56.3992455,2.1601959 -56.4877456,2.1837823 -56.5756551,2.207527 -56.662978,2.2314315 -56.7497188,2.2554973 -56.8358815,2.279726 -57.00649,2.3286782 -57.1748374,2.3783003 -57.3409575,2.4286047 -57.5048842,2.4796038 -57.6666514,2.5313097 -57.826293,2.5837349 -57.9838429,2.6368917 -58.1393349,2.6907923 -58.2928029,2.7454492 -58.4442808,2.8008745 -58.5938025,2.8570807 -58.741401,2.9140786 -58.8871015,2.971881 -59.0309257,3.0305069 -59.1728952,3.0899759 -59.3130315,3.1503073 -59.4513562,3.2115206 -59.5878908,3.2736352 -59.7226569,3.3366705 -59.8556762,3.4006459 -59.98697,3.4655808 -60.1165601,3.5314948 -60.2444679,3.5984071 -60.3707151,3.6663373 -60.4953231,3.7353047 -60.6183137,3.8053288 -60.7397082,3.8764289 -60.8595284,3.9486246 -60.9777958,4.0219337 -61.0945289,4.0963677 -61.2097393,4.1719576 -61.323438,4.2487378 -61.4356358,4.3267429 -61.5463437,4.4060074 -61.6555724,4.4865659 -61.763333,4.5684529 -61.8696362,4.651703 -61.9744931,4.7363506 -62.0779144,4.8224305 -62.1799111,4.909977 -62.2804941,4.9990249 -62.3796742,5.0896085 -62.4774624,5.1817624 -62.5738695,5.2755212 -62.6689064,5.3709195 -62.7625841,5.4679918 -62.8549133,5.5667726 -62.9459051,5.6672964 -63.0355684,5.7696015 -63.1239004,5.8737503 -63.2109025,5.979803 -63.2965767,6.0878179 -63.3389166,6.1425793 -63.3809255,6.1978532 -63.4226035,6.2536469 -63.463951,6.3099675 -63.5049682,6.3668224 -63.5456554,6.424219 -63.586013,6.4821644 -63.6260412,6.540666 -63.6657402,6.5997311 -63.7051104,6.6593669 -63.744152,6.7195808 -63.7828654,6.7803801 -63.8212507,6.841772 -63.8593084,6.9037638 -63.8970387,6.9663623 -63.9344419,7.0295738 -63.9715174,7.0934092 -64.0082645,7.1578798 -64.0446824,7.2229967 -64.0807704,7.2887713 -64.1165278,7.3552149 -64.1519538,7.4223388 -64.1870478,7.4901542 -64.221809,7.5586725 -64.2562367,7.6279049 -64.2903301,7.6978626 -64.3240886,7.7685571 -64.3575114,7.8399995 -64.3905978,7.9122012 -64.423347,7.9851734 -64.4557584,8.0589275 -64.4878312,8.1334746 -64.5195646,8.2088261 -64.5509581,8.2849933 -64.5820107,8.3619875 -64.6127219,8.4398199 -64.6430909,8.5185018 -64.6731171,8.5980432 -64.7028004,8.6784519 -64.7321386,8.759746 -64.7611292,8.8419446 -64.7897699,8.9250666 -64.8180584,9.0091313 -64.8459922,9.0941576 -64.8735691,9.1801647 -64.9007865,9.2671718 -64.9276422,9.3551978 -64.9541338,9.4442618 -64.9802589,9.534383 -65.0060151,9.6255805 -65.0314,9.7178733 -65.0564114,9.8112805 -65.0810467,9.9058213 -65.1053037,10.0015147 -65.1291799,10.0983797 -65.1526731,10.1964356 -65.1757807,10.2957014 -65.1985005,10.3961961 -65.2208301,10.497939 -65.2427671,10.600949 -65.2643091,10.7052452 -65.2854537,10.8108468 -65.3061971,10.9177806 -65.3265335,11.0260823 -65.3464584,11.1357819 -65.3659673,11.2469098 -65.3850557,11.3594961 -65.403719,11.473571 -65.4219527,11.5891646 -65.4397523,11.7063073 -65.4571132,11.825029 -65.474031,11.9453601 -65.4905011,12.0673307 -65.5065189,12.1909711 -65.52208,12.3163113 -65.5371799,12.4433808 -65.5518125,12.5722185 -65.5659708,12.7028678 -65.5796477,12.835372 -65.5928363,12.9697744 -65.6055296,13.1061183 -65.6177207,13.244447 -65.6294024,13.3848038 -65.640568,13.5272321 -65.6512102,13.6717751 -65.6613223,13.8184763 -65.6708971,13.9673788 -65.6799278,14.118526 -65.6884075,14.2719594 -65.6924384,14.3495483 -65.6963281,14.4277295 -65.7000753,14.5065111 -65.7036785,14.5859012 -65.7071365,14.6659081 -65.7104477,14.7465399 -65.7136109,14.8278048 -65.7166246,14.909711 -65.7194875,14.9922665 -65.7221982,15.0754797 -65.7247553,15.1593586 -65.7271575,15.2439114 -65.7294033,15.3291463 -65.7314913,15.4150715 -65.7334203,15.5016951 -65.7351887,15.5890254 -65.7367953,15.6770703 -65.7382386,15.7658382 -65.7395173,15.8553372 -65.74063,15.9455755 -65.7415753,16.0365612 -65.7423518,16.1283026 -65.7429582,16.2208077 -65.743393,16.3140847 -65.7436549,16.4081418 -65.7437425,16.5029873 -65.7437425,16.5029873 -65.7436546,16.5978308 -65.7433917,16.6918827 -65.7429554,16.7851516 -65.7423471,16.8776462 -65.7415683,16.969375 -65.7406205,17.0603469 -65.7395051,17.1505703 -65.7382236,17.2400541 -65.7367775,17.3288068 -65.7351682,17.4168371 -65.7333972,17.5041538 -65.7314661,17.5907653 -65.7293762,17.6766805 -65.727129,17.7619079 -65.7247261,17.8464562 -65.7221688,17.9303341 -65.7194586,18.0135503 -65.7165971,18.0961133 -65.7135856,18.1780319 -65.7104257,18.2593148 -65.7071187,18.3399693 -65.7036654,18.4200018 -65.7000671,18.4994185 -65.6963246,18.5782258 -65.6924391,18.6564301 -65.6884117,18.7340375 -65.6842433,18.8110545 -65.6799349,18.8874874 -65.6709027,19.0386263 -65.6613234,19.1875047 -65.6512053,19.3341732 -65.6405568,19.4786826 -65.6293862,19.6210834 -65.6177019,19.7614263 -65.6055132,19.8997679 -65.5928286,20.0361584 -65.5796532,20.170631 -65.5659919,20.3032185 -65.5518498,20.4339539 -65.537232,20.5628701 -65.5221434,20.6900002 -65.5065892,20.815377 -65.4905745,20.9390335 -65.4741041,21.0610026 -65.4571833,21.1813173 -65.4398169,21.3000105 -65.4220102,21.4171151 -65.4037681,21.5326642 -65.3850957,21.6466905 -65.3659979,21.7592272 -65.34648,21.8703071 -65.3265469,21.9799632 -65.3062036,22.0882284 -65.2854552,22.1951357 -65.2643067,22.3007173 -65.2427597,22.4049886 -65.2208161,22.5079655 -65.1984787,22.609669 -65.1757502,22.7101203 -65.1526334,22.8093404 -65.1291311,22.9073505 -65.105246,23.0041715 -65.0809809,23.0998246 -65.0563387,23.1943309 -65.031322,23.2877114 -65.0059336,23.3799873 -64.9801763,23.4711796 -64.9540529,23.5613094 -64.9275662,23.6503978 -64.9007188,23.7384653 -64.8735125,23.8255276 -64.8459487,23.9115991 -64.8180289,23.9966943 -64.7897544,24.0808278 -64.7611267,24.1640139 -64.7321473,24.2462671 -64.7028175,24.327602 -64.6731387,24.408033 -64.6431125,24.4875746 -64.6127402,24.5662413 -64.5820233,24.6440476 -64.5509631,24.7210078 -64.5195612,24.7971366 -64.4878189,24.8724484 -64.4557377,24.9469576 -64.423319,25.0206788 -64.3905642,25.0936264 -64.3574748,25.1658149 -64.3240522,25.2372579 -64.2902968,25.307965 -64.2562089,25.3779454 -64.2217885,25.4472084 -64.1870361,25.515763 -64.1519518,25.5836185 -64.1165358,25.6507841 -64.0807883,25.7172689 -64.0447096,25.7830821 -64.0082998,25.848233 -63.9715593,25.9127306 -63.9344882,25.9765842 -63.8970867,26.039803 -63.8593551,26.1023961 -63.8212936,26.1643728 -63.7829024,26.2257421 -63.7441817,26.2865133 -63.7051318,26.3466956 -63.6657528,26.4062982 -63.6260451,26.4653302 -63.5860087,26.5238008 -63.545644,26.5817192 -63.5049512,26.6390946 -63.4639304,26.6959362 -63.422582,26.7522532 -63.3809063,26.8080543 -63.3389034,26.8633459 -63.2965723,26.9181335 -63.2109216,27.0262176 -63.123947,27.1323492 -63.035641,27.2365713 -62.9459962,27.3389265 -62.8550052,27.4394575 -62.7626607,27.5382071 -62.6689552,27.6352181 -62.5738814,27.7305332 -62.4774318,27.8241952 -62.379599,27.9162467 -62.2803758,28.0067306 -62.1797545,28.0956895 -62.077728,28.1831663 -61.9742887,28.2692037 -61.8694294,28.3538444 -61.7631434,28.4371308 -61.6554277,28.519096 -61.5462659,28.5997632 -61.4356396,28.679155 -61.3235302,28.7572941 -61.2099194,28.8342031 -61.0947885,28.9099048 -60.9781192,28.9844219 -60.8598929,29.0577769 -60.7400911,29.1299926 -60.6186953,29.2010916 -60.4956871,29.2710966 -60.3710479,29.3400304 -60.2447593,29.4079155 -60.1168027,29.4747747 -59.9871597,29.5406305 -59.8558118,29.6055058 -59.7227404,29.6694232 -59.5879271,29.7324053 -59.4513534,29.7944748 -59.3130008,29.8556544 -59.1728508,29.9159668 -59.030885,29.9754346 -58.8870825,30.0340776 -58.7414075,30.0918975 -58.5938273,30.1489052 -58.4443108,30.2051142 -58.2928268,30.2605378 -58.1393444,30.3151896 -57.9838324,30.3690828 -57.8262597,30.4222309 -57.6665953,30.4746473 -57.504808,30.5263453 -57.3408668,30.5773385 -57.1747405,30.6276403 -57.0063982,30.6772639 -56.8358087,30.7262229 -56.6629439,30.7745293 -56.5756457,30.7984408 -56.4877626,30.8221926 -56.3992891,30.8457859 -56.3102193,30.8692219 -56.2205475,30.8925016 -56.130268,30.9156263 -56.0393751,30.938597 -55.947863,30.9614149 -55.8557261,30.9840811 -55.7629586,31.0065968 -55.6695547,31.0289632 -55.5755088,31.0511812 -55.4808151,31.0732522 -55.3854679,31.0951772 -55.2894615,31.1169574 -55.1927902,31.1385939 -55.0954482,31.1600878 -54.9974298,31.1814403 -54.8987293,31.2026526 -54.799341,31.2237257 -54.6992591,31.2446609 -54.5984779,31.2654592 -54.4969917,31.2861217 -54.3947947,31.3066497 -54.2918814,31.3270443 -54.1882458,31.3473066 -54.0838823,31.3674377 -53.9787852,31.3874388 -53.8729482,31.4073107 -53.7663629,31.4270538 -53.6590208,31.4466688 -53.5509137,31.4661566 -53.4420334,31.4855179 -53.3323715,31.5047537 -53.2219198,31.5238647 -53.11067,31.5428517 -52.9986139,31.5617157 -52.8857431,31.5804574 -52.7720494,31.5990777 -52.6575245,31.6175774 -52.5421601,31.6359573 -52.425948,31.6542183 -52.3088799,31.6723612 -52.1909475,31.6903868 -52.0721424,31.7082959 -51.9524566,31.7260895 -51.8318816,31.7437682 -51.7104092,31.761333 -51.7104092,31.761333 -51.708231,31.7480457 -51.7054606,31.7348881 -51.7021043,31.7218795 -51.6981686,31.7090389 -51.6936597,31.6963858 -51.6885841,31.6839392 -51.6829481,31.6717185 -51.6767633,31.6597525 -51.6700562,31.6480911 -51.6628405,31.6367531 -51.6551285,31.6257547 -51.6469325,31.6151121 -51.6382647,31.6048414 -51.6291375,31.5949589 -51.619565,31.5854823 -51.6095883,31.5764525 -51.5885175,31.5598047 -51.56607,31.5451126 -51.5423819,31.5324637 -51.5301151,31.526933 -51.5176007,31.5219502 -51.4920239,31.513701 -51.4658569,31.5077699 -51.4392578,31.5041882 -51.4258456,31.5032881 -51.4123848,31.5029873 -49.6092624,31.5029873 -49.6092624,31.5029873 -49.5950855,31.5033222 -49.5809626,31.504324 -49.5669171,31.5059885 -49.5529722,31.5083113 -49.5391512,31.5112881 -49.5254773,31.5149146 -49.511974,31.5191865 -49.498666,31.524099 -49.4856149,31.5296301 -49.4728578,31.5357617 -49.4604148,31.5424816 -49.4483062,31.5497775 -49.4365522,31.5576369 -49.4251731,31.5660477 -49.414189,31.5749975 -49.403626,31.5844684 -49.3935369,31.5944132 -49.3839419,31.6048076 -49.3748554,31.6156329 -49.3662915,31.6268701 -49.3582646,31.6385004 -49.3507889,31.6505049 -49.3438787,31.6628647 -49.3375491,31.6755591 -49.3318314,31.6885275 -49.3267404,31.7017302 -49.3222821,31.7151444 -49.3184625,31.7287472 -49.3152876,31.7425158 -49.3127635,31.7564271 -49.3108962,31.7704584 -49.3096917,31.7845867 -49.3096917,31.7845867 -49.3069421,31.8124336 -49.3021237,31.8399829 -49.2952272,31.8670903 -49.2862488,31.8935959 -49.2752254,31.9192582 -49.2621861,31.943904 -49.247156,31.9673746 -49.2389021,31.9786196 -49.23016,31.9895113 -49.22095,32.0000098 -49.2113031,32.0100697 -49.2012307,32.0196721 -49.1907442,32.0287978 -49.1798548,32.0374281 -49.168574,32.0455439 -49.1569131,32.0531262 -49.1448834,32.0601562 -49.1325169,32.0666043 -49.1198831,32.0724279 -49.1070043,32.0776149 -49.0939007,32.0821543 -49.0805919,32.0860356 -49.067098,32.0892478 -49.0534387,32.0917802 -49.039634,32.093622 -49.039634,32.093622 -48.8895518,32.109653 -48.7382125,32.1255729 -48.5856001,32.1413821 -48.4316987,32.157081 -48.2764924,32.1726702 -48.1199653,32.1881501 -47.9621013,32.2035211 -47.8028847,32.2187837 -47.6422995,32.2339384 -47.4803298,32.2489855 -47.3169596,32.2639256 -47.152173,32.2787592 -46.9859541,32.2934866 -46.8182874,32.3081083 -46.6491581,32.322625 -46.4785458,32.337037 -46.3064287,32.3513447 -46.1327852,32.3655484 -45.9575935,32.3796484 -45.7808319,32.3936452 -45.6024786,32.4075389 -45.4225122,32.4213299 -45.2409107,32.4350187 -45.0576525,32.4486054 -44.8727159,32.4620904 -44.6860792,32.4754742 -44.4977207,32.4887569 -44.3076186,32.501939 -44.1157514,32.5150207 -43.9220972,32.5280024 -43.7266344,32.5408845 -43.5293413,32.5536672 -43.5293413,32.5536672 -43.5138844,32.5542542 -43.4984318,32.5540317 -43.4830143,32.5530013 -43.4676627,32.5511649 -43.4524165,32.548526 -43.4373427,32.5450969 -43.422475,32.5408878 -43.4078426,32.5359082 -43.3934756,32.530168 -43.3794417,32.5236958 -43.3657867,32.5165181 -43.3525349,32.5086533 -43.3397103,32.5001194 -43.3273372,32.4909349 -43.3154397,32.4811181 -43.3040418,32.4706871 -43.2931766,32.4596697 -43.2829048,32.4481307 -43.2732469,32.436101 -43.2642178,32.4236066 -43.2558326,32.4106733 -43.2481062,32.3973269 -43.2410537,32.3835933 -43.23469,32.3694983 -43.2290386,32.3550911 -43.2241249,32.3404437 -43.2199539,32.3255861 -43.2165306,32.3105477 -43.2138597,32.2953577 -43.2119459,32.2800455 -43.2107942,32.2646402 -43.2104092,32.249171 -43.2104092,31.8029873 A0.3,0.3 180 0,1 -42.9104092,31.5029873 L-41.1104092,31.5029873 A0.3,0.3 270 0,1 -40.8104092,31.8029873 L-40.8104092,32.423104 -40.8104092,32.423104 -40.8100703,32.4374211 -40.8090564,32.4516849 -40.8073714,32.4658714 -40.8050197,32.4799569 -40.8020051,32.4939175 -40.7983319,32.5077294 -40.7940041,32.5213686 -40.7890288,32.5348037 -40.7834307,32.5479684 -40.7772244,32.5608346 -40.7704222,32.5733817 -40.7630366,32.5855889 -40.7550797,32.5974352 -40.7465639,32.6088999 -40.7375016,32.6199621 -40.7279072,32.6305986 -40.7178281,32.6407556 -40.7072939,32.6504063 -40.696324,32.6595362 -40.6849377,32.6681306 -40.6731544,32.6761749 -40.6609933,32.6836543 -40.648474,32.6905544 -40.6356163,32.6968601 -40.6224795,32.7025407 -40.6091089,32.7075787 -40.5955283,32.7119682 -40.5817612,32.715703 -40.5678312,32.7187771 -40.5537618,32.7211844 -40.5395767,32.7229189 -40.5252993,32.7239746 -40.5252993,32.7239746 -40.3984459,32.7302708 -40.2708841,32.7365368 -40.1426077,32.7427725 -40.0136105,32.7489781 -39.8838861,32.7551534 -39.7534283,32.7612986 -39.6222309,32.7674135 -39.4902876,32.7734983 -39.3575921,32.7795529 -39.2241381,32.7855773 -39.0899194,32.7915715 -38.9549297,32.7975355 -38.8191629,32.8034694 -38.6826197,32.8093732 -38.5452962,32.815247 -38.4071838,32.8210907 -38.2682742,32.8269042 -38.1285591,32.8326877 -37.98803,32.8384409 -37.8466786,32.8441639 -37.7044963,32.8498566 -37.561475,32.8555189 -37.4176061,32.861151 -37.2728813,32.8667526 -37.1272922,32.8723238 -36.9808303,32.8778645 -36.8334874,32.8833747 -36.6852549,32.8888543 -36.5361246,32.8943034 -36.386088,32.8997218 -36.2351367,32.9051096 -36.0832624,32.9104666 -35.9304566,32.9157929 -35.776711,32.9210883 -35.6220171,32.926353 -35.4663666,32.9315868 -35.309751,32.9367896 -35.1521621,32.9419616 -34.9935913,32.9471025 -34.8340304,32.9522124 -34.6734708,32.9572912 -34.5119043,32.9623389 -34.3493224,32.9673555 -34.1857167,32.9723409 -34.0210789,32.977295 -33.8554005,32.9822179 -33.6886732,32.9871095 -33.5208885,32.9919697 -33.3520381,32.9967986 -33.1821136,33.001596 -33.0111066,33.006362 -32.8390087,33.0110964 -32.6658082,33.0157993 -32.4914869,33.0204703 -32.3160325,33.0251093 -32.1394334,33.0297164 -31.9616776,33.0342914 -31.7827534,33.0388342 -31.6026491,33.0433448 -31.4213528,33.047823 -31.2388528,33.0522688 -31.0551372,33.0566822 -30.8701943,33.0610629 -30.6840123,33.065411 -30.6840123,33.065411 -30.669022,33.065383 -30.6540626,33.0646051 -30.639162,33.0630796 -30.6243481,33.0608091 -30.6096604,33.0577984 -30.5951531,33.0540592 -30.5808543,33.0496 -30.5667907,33.0444293 -30.552996,33.0385584 -30.5395347,33.0320163 -30.5264358,33.0248215 -30.5137224,33.0169899 -30.5014174,33.0085371 -30.4895436,32.9994792 -30.4781239,32.989832 -30.4671813,32.9796114 -30.4567507,32.9688462 -30.4468868,32.9575944 -30.4376071,32.9458819 -30.4289269,32.9337318 -30.4208611,32.9211676 -30.413425,32.9082126 -30.4066337,32.8948901 -30.4005024,32.8812234 -30.395055,32.8672608 -30.3903166,32.8530705 -30.3862928,32.8386805 -30.3829887,32.824118 -30.3804097,32.8094104 -30.3785611,32.7945849 -30.377448,32.7796688 -30.3770759,32.7646894 -30.3770759,31.8029873 A0.3,0.3 180 0,1 -30.0770759,31.5029873 L-28.2770759,31.5029873 A0.3,0.3 270 0,1 -27.9770759,31.8029873 L-27.9770759,32.8261218 -27.9770759,32.8261218 -27.9767231,32.8407398 -27.975668,32.8552992 -27.9739152,32.8697747 -27.9714695,32.8841411 -27.9683357,32.898373 -27.9645184,32.9124453 -27.9600224,32.9263327 -27.9548525,32.9400099 -27.9490275,32.9534209 -27.9425725,32.9665119 -27.9355012,32.9792611 -27.9278273,32.9916466 -27.9195645,33.0036468 -27.9107267,33.0152398 -27.9013275,33.0264039 -27.8913806,33.0371172 -27.8809236,33.047336 -27.8700022,33.057017 -27.8586375,33.0661453 -27.8468505,33.074706 -27.8346622,33.0826839 -27.8220938,33.0900641 -27.8091662,33.0968316 -27.7959005,33.1029715 -27.7823492,33.1084567 -27.7685716,33.1132649 -27.754593,33.1173903 -27.7404387,33.1208274 -27.7261339,33.1235703 -27.7117039,33.1256136 -27.6971741,33.1269514 -27.6825696,33.1275782 -27.6825696,33.1275782 -27.5445747,33.1301046 -27.4059318,33.1326157 -27.2666361,33.1351115 -27.1266829,33.1375918 -26.9860674,33.1400567 -26.844785,33.142506 -26.7028309,33.1449399 -26.5602003,33.1473582 -26.5602003,33.1473582 -26.54286,33.1116331 -26.5258855,33.0754149 -26.4929453,33.0016062 -26.4612016,32.9261463 -26.4304755,32.84925 -26.4005878,32.7711324 -26.371359,32.6920081 -26.34261,32.6120913 -26.314162,32.5315949 -26.2574587,32.369709 -26.1998419,32.2080208 -26.1702585,32.1277622 -26.1399325,32.0481604 -26.1086977,31.9694108 -26.0763917,31.8917043 -26.0428558,31.8152268 -26.0079354,31.740159 -25.9714812,31.6666754 -25.9526335,31.6305806 -25.9333488,31.5949443 -25.9136097,31.5597866 -25.8933996,31.5251268 -25.8727022,31.490984 -25.8515015,31.4573767 -25.8297821,31.4243226 -25.8075288,31.3918394 -25.7847273,31.3599438 -25.7613633,31.328652 -25.7374236,31.2979795 -25.7128951,31.2679414 -25.6877655,31.2385518 -25.6620231,31.2098241 -25.6356571,31.1817709 -25.608657,31.1544043 -25.5810133,31.1277352 -25.5527171,31.1017736 -25.5237605,31.0765289 -25.4941362,31.0520093 -25.4638379,31.0282222 -25.43286,31.0051737 -25.401198,30.9828692 -25.3688482,30.9613129 -25.3358081,30.9405077 -25.3020759,30.9204555 A1.25,1.25 240 0,1 -24.0520759,30.9204555 L-24.0520759,30.9204555 -24.0148871,30.9425408 -23.9785785,30.9653455 -23.9431479,30.9888676 -23.9085918,31.0131041 -23.8749055,31.0380508 -23.842083,31.0637023 -23.8101171,31.0900523 -23.7789996,31.1170934 -23.7487211,31.1448172 -23.719271,31.1732143 -23.690638,31.2022745 -23.6628094,31.2319867 -23.635772,31.2623388 -23.6095115,31.2933179 -23.5840125,31.3249106 -23.5592593,31.3571024 -23.535235,31.3898781 -23.5119221,31.4232222 -23.4893024,31.4571181 -23.4673572,31.4915488 -23.4460669,31.5264966 -23.4254114,31.5619435 -23.4053703,31.5978708 -23.3859224,31.6342592 -23.367046,31.671089 -23.348719,31.70834 -23.3309188,31.7459916 -23.3136223,31.7840228 -23.2804462,31.861137 -23.2489978,31.9395058 -23.2190781,32.0189461 -23.1904829,32.0992691 -23.1630031,32.1802813 -23.1364255,32.2617848 -23.0851073,32.4254538 -23.0347623,32.5886219 -23.0093935,32.6694895 -22.9835917,32.7495934 -22.9571291,32.8287174 -22.9297776,32.9066439 -22.901309,32.983155 -22.8714958,33.0580325 -22.856014,33.0947905 -22.8401112,33.1310584 -22.8237591,33.166809 -22.8069298,33.2020154 -22.8069298,33.2020154 -22.6514958,33.2039367 -22.4952944,33.2058425 -22.3383243,33.2077325 -22.180584,33.2096066 -22.180584,33.2096066 -22.1656559,33.2094078 -22.1507668,33.2084609 -22.1359445,33.2067684 -22.1212164,33.204333 -22.1066261,33.2011615 -22.0922238,33.1972655 -22.0780358,33.192654 -22.0640886,33.1873354 -22.0504249,33.1813262 -22.0371034,33.1746553 -22.0241476,33.1673394 -22.0115796,33.1593943 -21.9994215,33.1508363 -21.9876956,33.1416813 -21.976424,33.1319455 -21.965629,33.1216448 -21.9553536,33.1108188 -21.9456431,33.0995186 -21.9365119,33.0877676 -21.9279744,33.0755889 -21.9200447,33.0630057 -21.9127372,33.0500412 -21.9060663,33.0367184 -21.9000462,33.0230606 -21.8947025,33.0091226 -21.8900554,32.9949638 -21.8861098,32.9806109 -21.8828706,32.9660906 -21.8803428,32.9514294 -21.8785311,32.9366543 -21.8774405,32.9217917 -21.8770759,32.9068684 -21.8770759,31.8029873 A0.3,0.3 180 0,1 -21.5770759,31.5029873 L-19.7770759,31.5029873 A0.3,0.3 270 0,1 -19.4770759,31.8029873 L-19.4770759,32.9374252 -19.4770759,32.9374252 -19.4767208,32.9521792 -19.475659,32.9668742 -19.4738949,32.9814844 -19.4714335,32.9959843 -19.4682794,33.010348 -19.4644373,33.02455 -19.4599119,33.0385645 -19.4547081,33.0523659 -19.4488384,33.0659113 -19.4423318,33.0791342 -19.4352028,33.0920102 -19.4274652,33.104517 -19.4191327,33.1166322 -19.4102191,33.1283336 -19.4007381,33.1395988 -19.3907037,33.1504054 -19.3801442,33.1607173 -19.369113,33.1704822 -19.3576331,33.1796831 -19.3457255,33.1883042 -19.3334119,33.1963301 -19.3207134,33.2037451 -19.3076514,33.2105338 -19.2942473,33.2166804 -19.2805481,33.2221598 -19.2666216,33.2269455 -19.2524946,33.2310314 -19.238193,33.2344117 -19.2237427,33.2370807 -19.2091696,33.2390324 -19.1944998,33.2402611 -19.1797591,33.240761 -19.1797591,33.240761 -18.9103343,33.2431672 -18.6387606,33.2455319 -18.3650233,33.247855 -18.0890918,33.2501361 -17.8109349,33.2523749 -17.5305215,33.2545709 -17.2478205,33.2567238 -16.9628008,33.2588333 -16.6754313,33.260899 -16.385681,33.2629204 -16.2399032,33.2639145 -16.0935186,33.2648974 -15.9465231,33.265869 -15.7989131,33.2668294 -15.6506844,33.2677785 -15.5018333,33.2687162 -15.3523559,33.2696424 -15.2022483,33.2705573 -15.0515065,33.2714606 -14.9001268,33.2723524 -14.7481051,33.2732326 -14.5954377,33.2741011 -14.4421206,33.274958 -14.28815,33.2758032 -14.133522,33.2766365 -13.9782326,33.2774581 -13.822278,33.2782678 -13.6656543,33.2790656 -13.5083576,33.2798514 -13.350384,33.2806252 -13.1917296,33.281387 -13.0323906,33.2821367 -12.8723631,33.2828742 -12.7116431,33.2835996 -12.5502268,33.2843128 -12.3881103,33.2850136 -12.2252897,33.2857022 -12.0617611,33.2863784 -11.8975201,33.2870421 -11.7325584,33.2876934 -11.5668703,33.288332 -11.4004508,33.288958 -11.2332946,33.2895713 -11.0653969,33.2901718 -10.8967525,33.2907595 -10.7273563,33.2913343 -10.5572034,33.2918961 -10.3862887,33.2924449 -10.2146071,33.2929806 -10.0421536,33.2935032 -9.8689231,33.2940126 -9.6949105,33.2945087 -9.5201108,33.2949915 -9.344519,33.2954609 -9.344519,33.2954609 -9.3296319,33.2951246 -9.3147908,33.2940395 -9.3000229,33.2922087 -9.2853557,33.289635 -9.270837,33.2863267 -9.2565123,33.2822958 -9.2424073,33.2775512 -9.2285481,33.2721019 -9.2149891,33.2659705 -9.2017773,33.259183 -9.1889343,33.2517557 -9.1764817,33.2437049 -9.164441,33.235047 -9.1528338,33.2257983 -9.1416818,33.2159751 -9.1310069,33.2055942 -9.1208605,33.194706 -9.1112761,33.1833519 -9.1022672,33.1715551 -9.0938474,33.1593386 -9.0860304,33.1467256 -9.0788297,33.1337392 -9.0722589,33.1204024 -9.0663317,33.1067387 -9.0610747,33.0928085 -9.0565038,33.0786626 -9.0526236,33.0643273 -9.0494386,33.0498288 -9.0469534,33.0351932 -9.0451726,33.0204469 -9.0441008,33.0056159 -9.0437425,32.9907265 -9.0437425,31.8029873 A0.3,0.3 180 0,1 -8.7437425,31.5029873 L-6.9437425,31.5029873 A0.3,0.3 270 0,1 -6.6437425,31.8029873 L-6.6437425,32.9961799 -6.6437425,32.9961799 -6.6433859,33.011048 -6.6423176,33.0258734 -6.6405399,33.0406296 -6.6380553,33.0552902 -6.6348683,33.0698192 -6.6309891,33.0841686 -6.6264249,33.0983122 -6.6211828,33.1122241 -6.6152729,33.1258718 -6.6087208,33.1391965 -6.6015422,33.1521706 -6.5937509,33.1647711 -6.5853605,33.1769752 -6.5763849,33.1887603 -6.5668377,33.2001034 -6.5567327,33.2109818 -6.5460927,33.2213642 -6.5349738,33.2311939 -6.5234018,33.2404504 -6.5113985,33.2491176 -6.4989853,33.2571794 -6.4861838,33.2646196 -6.4730155,33.2714223 -6.459502,33.2775712 -6.445686,33.2830424 -6.4316416,33.2878066 -6.4173973,33.2918568 -6.4029796,33.2951871 -6.3884149,33.2977917 -6.3737297,33.2996647 -6.3589505,33.3008001 -6.3441037,33.301192 -6.3441037,33.301192 -6.162885,33.3014067 -5.9808549,33.3016081 -5.7980071,33.301796 -5.6143354,33.3019705 -5.4298336,33.3021315 -5.2444954,33.3022788 -5.0583147,33.3024124 -4.8712851,33.3025323 -4.6834004,33.3026384 -4.4946545,33.3027305 -4.305041,33.3028087 -4.1145538,33.3028728 -3.9231865,33.3029228 -3.7309331,33.3029586 -3.5377871,33.3029801 -3.3437425,33.3029873 -3.3437425,33.3029873 -3.0247676,33.3029804 -2.7076601,33.3029597 -2.3924094,33.3029253 -2.0790049,33.3028773 -1.767436,33.3028156 -1.4576921,33.3027402 -1.1497626,33.3026513 -0.843637,33.3025489 -0.843637,33.3025489 -0.8287669,33.3021683 -0.813965,33.3010413 -0.7992578,33.299174 -0.7846719,33.2965723 -0.7702337,33.2932424 -0.75597,33.2891903 -0.7419071,33.284422 -0.728072,33.2789438 -0.7145338,33.2727826 -0.7013439,33.2659659 -0.6885238,33.2585102 -0.6760948,33.2504318 -0.6640784,33.2417474 -0.6524961,33.2324732 -0.6413693,33.2226257 -0.6307203,33.2122224 -0.620602,33.2013156 -0.6110451,33.1899446 -0.6020631,33.1781327 -0.5936694,33.165903 -0.5858774,33.1532784 -0.5787004,33.1402822 -0.572152,33.1269374 -0.5662457,33.1132677 -0.5610082,33.0993347 -0.5564545,33.0851871 -0.552589,33.0708511 -0.5494163,33.0563529 -0.5469407,33.0417185 -0.545167,33.026974 -0.5440994,33.0121457 -0.5437425,32.9972595 -0.5437425,31.8029873 A0.3,0.3 180 0,1 -0.2437425,31.5029873 L1.5562575,31.5029873 A0.3,0.3 270 0,1 1.8562575,31.8029873 L1.8562575,32.9953929 1.8562575,32.9953929 1.8566146,33.0102892 1.8576846,33.0251426 1.8594649,33.0399267 1.8619533,33.0546148 1.8651453,33.0691717 1.8690306,33.0835488 1.8736021,33.0977193 1.8788527,33.1116575 1.8847727,33.125332 1.8913368,33.1386836 1.8985287,33.1516834 1.9063346,33.1643084 1.9147409,33.1765357 1.9237336,33.1883424 1.9332992,33.1997055 1.9434238,33.2106021 1.9540859,33.221002 1.965229,33.2308479 1.9768262,33.240118 1.9888559,33.2487962 2.0012963,33.2568662 2.014126,33.2643119 2.0273232,33.271117 2.0408663,33.2772652 2.0547137,33.2827331 2.0687898,33.2874903 2.0830655,33.29153 2.0975143,33.2948461 2.1121095,33.2974329 2.1268245,33.2992843 2.1416328,33.3003944 2.1565076,33.3007574 2.1565076,33.3007574 2.4980756,33.3004571 2.8372665,33.3001383 3.174097,33.299801 3.5085841,33.2994451 3.8407446,33.2990708 4.1705953,33.2986781 4.498153,33.2982671 4.8234346,33.2978378 5.146457,33.2973903 5.4672368,33.2969245 5.7857911,33.2964407 6.1021366,33.2959388 6.4162901,33.2954188 6.7282686,33.2948809 7.0380888,33.2943251 7.3457675,33.2937514 7.6513217,33.2931598 7.954768,33.2925506 8.2561235,33.2919236 8.5554049,33.2912789 8.852629,33.2906166 9.1478108,33.2899368 9.4409635,33.2892394 9.732102,33.2885246 10.0212415,33.2877923 10.3083972,33.2870427 10.593584,33.2862757 10.8768171,33.2854913 11.1581117,33.2846897 11.4374827,33.2838709 11.7149454,33.283035 11.9905147,33.2821818 11.9905147,33.2821818 12.0053664,33.2817604 12.0201481,33.2805936 12.0348334,33.2786876 12.0493957,33.2760484 12.0638088,33.2726823 12.078046,33.2685952 12.0920811,33.2637934 12.1058866,33.2582834 12.1193908,33.2520937 12.1325461,33.2452506 12.1453313,33.2377706 12.1577251,33.2296702 12.1697062,33.2209657 12.1812533,33.2116737 12.1923452,33.2018106 12.202959,33.1913944 12.2130412,33.180479 12.2225631,33.1691018 12.2315115,33.157286 12.2398732,33.1450545 12.2476347,33.1324305 12.2547831,33.1194368 12.2613049,33.1060967 12.2671865,33.0924339 12.2724014,33.0785107 12.2769353,33.0643744 12.2807838,33.0500509 12.2839425,33.0355662 12.286407,33.0209463 12.2881728,33.0062171 12.2892356,32.9914046 12.2895908,32.9765348 12.2895908,31.8029873 A0.3,0.3 180 0,1 12.5895908,31.5029873 L14.3895908,31.5029873 A0.3,0.3 270 0,1 14.6895908,31.8029873 L14.6895908,32.9655587 14.6895908,32.9655587 14.689949,32.9804952 14.691022,32.9953887 14.6928075,33.0102124 14.695303,33.0249397 14.6985043,33.0395359 14.7024012,33.0539517 14.7069863,33.0681598 14.7122524,33.0821343 14.7181907,33.0958452 14.724776,33.1092333 14.7319912,33.1222674 14.7398225,33.1349247 14.7482562,33.1471818 14.7572783,33.1590158 14.766875,33.1704036 14.7770326,33.181322 14.7877308,33.1917421 14.798913,33.2016058 14.8105508,33.2108901 14.8226223,33.2195784 14.8351057,33.2276545 14.8479794,33.2351019 14.8612214,33.2419044 14.87481,33.2480456 14.8887047,33.2535022 14.9028284,33.2582433 14.9171511,33.2622618 14.931646,33.2655516 14.9462862,33.268107 14.9610449,33.2699219 14.9758953,33.2709904 14.9908105,33.2713066 14.9908105,33.2713066 15.2567656,33.2701915 15.520842,33.269058 15.7830419,33.2679063 16.0433677,33.2667364 16.0433677,33.2667364 16.0631443,33.2310769 16.0824315,33.1947695 16.1012549,33.157845 16.1196402,33.1203343 16.137613,33.0822686 16.1551995,33.0436792 16.1893172,32.9650545 16.2222022,32.8847115 16.2540644,32.802902 16.2851138,32.7198775 16.3155604,32.6358891 16.3754822,32.4660189 16.4354924,32.2952693 16.4660431,32.2101722 16.4972261,32.1255778 16.5292393,32.041719 16.5622768,31.9588244 16.5965286,31.8771169 16.6321797,31.7968133 16.6694098,31.7181236 16.6886714,31.6794476 16.7083923,31.6412504 16.7285931,31.603556 16.7492941,31.5663879 16.7705148,31.529769 16.7922746,31.4937216 16.8145921,31.4582674 16.8374854,31.4234275 16.8609723,31.3892223 16.8850696,31.3556713 16.9097937,31.3227935 16.9351604,31.2906071 16.9611846,31.2591293 16.9878804,31.2283765 17.0152614,31.1983641 17.0433401,31.1691067 17.0721282,31.1406176 17.1016365,31.1129094 17.1318748,31.0859932 17.1628519,31.0598793 17.1945758,31.0345766 17.227053,31.0100928 17.2602892,30.9864344 17.294289,30.9636064 17.3290555,30.9416127 17.3645908,30.9204555 A1.25,1.25 240 0,1 18.6145908,30.9204555 L18.6145908,30.9204555 18.6525121,30.9429885 18.6895179,30.9662698 18.7256104,30.9902974 18.7607934,31.0150678 18.7950721,31.0405766 18.8284529,31.0668181 18.8609435,31.0937853 18.8925529,31.1214702 18.9232912,31.1498638 18.9531697,31.1789561 18.9822008,31.2087359 19.010398,31.2391913 19.0377756,31.2703092 19.0643492,31.3020759 19.0901349,31.3344767 19.1151501,31.367496 19.1394128,31.4011178 19.1629417,31.435325 19.1857564,31.4701 19.2078771,31.5054244 19.2293248,31.5412794 19.2501209,31.5776455 19.2702876,31.6145025 19.2898474,31.6518299 19.3088236,31.6896065 19.32724,31.7278107 19.3451207,31.7664203 19.3624905,31.8054126 19.3957985,31.884453 19.4273705,31.964742 19.4574194,32.0460836 19.4861638,32.1282759 19.5138269,32.2111116 19.5406365,32.2943792 19.5926228,32.4613431 19.6440047,32.6274021 19.6700665,32.7095288 19.6966968,32.790749 19.7241375,32.8708325 19.7526307,32.9495484 19.7824183,33.0266652 19.7978728,33.0645516 19.8137411,33.1019514 19.8300533,33.1388358 19.8468391,33.1751761 19.8641282,33.2109434 19.8819501,33.2461093 19.8819501,33.2461093 20.0354006,33.2451396 20.1881439,33.2441622 20.340186,33.2431771 20.4915325,33.2421842 20.4915325,33.2421842 20.5063582,33.2417124 20.5211118,33.2404971 20.5357669,33.2385445 20.5502972,33.2358609 20.5646765,33.2324524 20.5788785,33.2283251 20.592877,33.2234853 20.6066436,33.21794 20.6201041,33.2117195 20.6332155,33.2048486 20.6459566,33.1973436 20.6583063,33.189221 20.6702436,33.1804972 20.6817473,33.1711888 20.6927963,33.161312 20.7033673,33.1508857 20.7134059,33.1399651 20.7228859,33.1285857 20.7317942,33.1167704 20.7401177,33.104542 20.7478432,33.0919237 20.7549578,33.0789383 20.7614483,33.0656087 20.7673012,33.051959 20.7724897,33.0380524 20.7770006,33.0239341 20.7808294,33.0096301 20.7839719,32.995166 20.7864236,32.9805677 20.7881803,32.9658611 20.7892374,32.9510719 20.7895908,32.936226 20.7895908,31.8029873 A0.3,0.3 180 0,1 21.0895908,31.5029873 L22.8895908,31.5029873 A0.3,0.3 270 0,1 23.1895908,31.8029873 L23.1895908,32.9136632 23.1895908,32.9136632 23.1899505,32.928648 23.191028,32.9435894 23.1928208,32.9584605 23.1953268,32.9732346 23.1985416,32.9878775 23.202455,33.002339 23.2070594,33.0165912 23.2123477,33.0306081 23.2183116,33.0443607 23.2249264,33.0577905 23.2321739,33.0708636 23.2400401,33.0835567 23.2485112,33.0958466 23.2575731,33.10771 23.267212,33.1191235 23.2774138,33.130064 23.2881599,33.1405035 23.2993934,33.1503839 23.3110841,33.1596799 23.3232099,33.168375 23.3357487,33.1764527 23.3486787,33.1838966 23.3619777,33.1906901 23.3756238,33.1968167 23.3895779,33.2022536 23.4037609,33.2069694 23.4181418,33.2109564 23.4326935,33.2142088 23.4473889,33.2167206 23.4622009,33.218486 23.4771024,33.2194991 23.4920663,33.219754 23.4920663,33.219754 23.6759061,33.2181946 23.8586415,33.2166215 24.0402816,33.2150347 24.2208384,33.2134341 24.4003198,33.2118199 24.5787326,33.210192 24.7560837,33.2085505 24.9323799,33.2068952 25.1076282,33.2052263 25.2818354,33.2035437 25.4550083,33.2018475 25.6271539,33.2001375 25.798279,33.1984139 25.9683905,33.1966767 26.1374953,33.1949257 26.3056002,33.1931611 26.4727121,33.1913829 26.6388379,33.189591 26.8039844,33.1877854 26.9681585,33.1859661 27.1313672,33.1841332 27.2936171,33.1822866 27.4549154,33.1804264 27.6152687,33.1785525 27.774684,33.176665 27.9331681,33.1747638 28.0907279,33.1728489 28.2473704,33.1709204 28.4031022,33.1689783 28.5579305,33.1670225 28.7118619,33.165053 28.8649034,33.1630699 29.0170618,33.1610732 29.168344,33.1590628 29.3187569,33.1570387 29.4683074,33.155001 29.6170023,33.1529497 29.7648485,33.1508847 29.9118529,33.1488061 30.058021,33.1467138 30.203357,33.1446079 30.3478661,33.1424882 30.4915536,33.1403548 30.6344247,33.1382077 30.7764848,33.1360469 30.9177391,33.1338724 31.0581928,33.1316841 31.1978512,33.129482 31.3367196,33.1272662 31.4748033,33.1250367 31.6121075,33.1227933 31.7486374,33.1205362 31.8843985,33.1182652 32.0193958,33.1159805 32.1536347,33.113682 32.2871205,33.1113696 32.4198583,33.1090434 32.5518536,33.1067034 32.6831115,33.1043495 32.8136373,33.1019817 32.9434363,33.0996001 33.0725137,33.0972047 33.2008748,33.0947953 33.328525,33.0923721 33.328525,33.0923721 33.343247,33.091721 33.3578895,33.0903352 33.3724269,33.0882211 33.3868335,33.0853849 33.4010835,33.0818331 33.4151512,33.077572 33.429011,33.0726079 33.4426295,33.0669505 33.4559297,33.0606336 33.4688808,33.0536775 33.481462,33.0460985 33.4936531,33.0379129 33.5054332,33.0291368 33.516782,33.0197866 33.5276789,33.0098786 33.5380979,32.9994347 33.5479846,32.9885123 33.5573191,32.9771411 33.5660886,32.9653437 33.5742807,32.9531425 33.5818827,32.9405601 33.5888819,32.927619 33.5952658,32.9143418 33.6010208,32.9007533 33.6061203,32.8869183 33.6105534,32.8728769 33.614316,32.8586543 33.6174038,32.8442757 33.6198127,32.8297664 33.6215385,32.8151515 33.622577,32.8004563 33.6229241,32.7857059 33.6229241,31.8029873 A0.3,0.3 180 0,1 33.9229241,31.5029873 L35.7229241,31.5029873 A0.3,0.3 270 0,1 36.0229241,31.8029873 L36.0229241,32.719605 36.0229241,32.719605 36.0232902,32.7347658 36.0243866,32.7498818 36.026211,32.7649252 36.0287609,32.7798686 36.0320326,32.7946797 36.0360155,32.8093057 36.0407014,32.8237154 36.0460826,32.8378822 36.0521519,32.851779 36.0588884,32.8653543 36.0662686,32.8785612 36.0742779,32.8913759 36.0829016,32.9037745 36.0921252,32.9157328 36.1019342,32.927227 36.112314,32.938233 36.1232489,32.9487259 36.1346854,32.9586493 36.146584,32.9679695 36.1589219,32.9766698 36.1716761,32.9847331 36.1848239,32.9921427 36.1983422,32.9988815 36.2122081,33.0049328 36.2263863,33.0102751 36.2407927,33.0148754 36.2553917,33.0187248 36.2701552,33.0218178 36.285055,33.0241486 36.3000631,33.0257117 36.3151512,33.0265013 36.3302913,33.0265117 36.3302913,33.0265117 36.528497,33.0214821 36.7248133,33.0164058 36.919261,33.0112826 37.111861,33.0061123 37.3026343,33.0008948 37.4916016,32.9956299 37.6787839,32.9903174 37.8642021,32.9849571 38.0478769,32.9795488 38.2298294,32.9740924 38.4100804,32.9685877 38.5886507,32.9630344 38.7655612,32.9574326 38.9408329,32.9517818 39.1144866,32.946082 39.286543,32.9403331 39.4570204,32.9345347 39.6259353,32.9286866 39.7933042,32.9227886 39.9591437,32.9168405 40.1234703,32.910842 40.2863005,32.9047928 40.4476508,32.8986929 40.6075377,32.8925418 40.7659777,32.8863394 40.9229874,32.8800855 41.0785832,32.8737798 41.2327818,32.867422 41.3855995,32.861012 41.5370529,32.8545494 41.6871586,32.8480342 41.835933,32.8414659 41.835933,32.8414659 41.8504259,32.8404595 41.8648233,32.8387392 41.8791008,32.8363117 41.893234,32.833184 41.9071987,32.8293631 41.9209704,32.8248557 41.9345247,32.8196687 41.9478313,32.813812 41.9608181,32.8073188 41.9734542,32.8002101 41.9857205,32.7925019 41.9975976,32.7842103 42.0090662,32.7753512 42.0201071,32.7659408 42.0307009,32.7559951 42.0408139,32.7455459 42.050401,32.734645 42.0594493,32.7233149 42.0679471,32.7115775 42.0758824,32.6994542 42.0832436,32.6869668 42.0900188,32.6741368 42.0961961,32.660986 42.1017616,32.6475418 42.10669,32.6338689 42.1109738,32.6199995 42.1146092,32.6059577 42.1175922,32.5917675 42.1199192,32.5774529 42.121586,32.563038 42.122589,32.5485467 42.1229241,32.5340031 42.1229241,31.8029873 A0.3,0.3 180 0,1 42.4229241,31.5029873 L44.2229241,31.5029873 A0.3,0.3 270 0,1 44.5229241,31.8029873 L44.5229241,32.372428 44.5229241,32.372428 44.5233059,32.3879823 44.5244493,32.403488 44.5263517,32.4189156 44.5290101,32.4342356 44.5324217,32.4494177 44.5365763,32.4644078 44.5414627,32.4791646 44.5470727,32.4936594 44.5533976,32.5078634 44.5604272,32.5217443 44.5681307,32.5352377 44.5764873,32.5483084 44.5854809,32.5609308 44.5950951,32.5730796 44.6053138,32.5847291 44.6161207,32.595854 44.6274997,32.6064287 44.6394163,32.6164131 44.6518066,32.6257511 44.6646437,32.6344235 44.6779025,32.6424129 44.6915576,32.6497016 44.7055839,32.656272 44.7199562,32.6621067 44.7346443,32.6671865 44.7495588,32.6714774 44.7646506,32.6749675 44.7798891,32.6776521 44.7952437,32.6795263 44.8106839,32.6805851 44.8261789,32.6808238 44.8416982,32.6802374 44.8416982,32.6802374 44.9857488,32.6708625 45.1283728,32.6614016 45.2695862,32.651854 45.4094047,32.6422188 45.5478442,32.6324953 45.6849204,32.6226827 45.820649,32.6127802 45.955046,32.6027871 46.0881269,32.5927025 46.2199077,32.5825257 46.3504041,32.572256 46.4796318,32.5618924 46.6076067,32.5514344 46.7343445,32.540881 46.859861,32.5302315 46.984172,32.5194851 47.1072933,32.5086411 47.2292406,32.4976987 47.3500297,32.486657 47.4696764,32.4755153 47.5881964,32.4642729 47.7056031,32.4529291 47.8219081,32.4414828 47.9371227,32.4299328 48.0512584,32.4182782 48.1643265,32.4065178 48.2763386,32.3946505 48.3873059,32.3826751 48.49724,32.3705907 48.6061522,32.358396 48.7140539,32.3460901 48.8209566,32.3336717 48.9268716,32.3211398 49.0318104,32.3084933 49.1357845,32.2957311 49.2388051,32.282852 49.3408837,32.269855 49.4420317,32.256739 49.5422606,32.2435029 49.6415817,32.2301455 49.7400065,32.2166658 49.8375463,32.2030626 49.9342126,32.189335 50.0300169,32.1754817 50.1249692,32.1615019 50.2190779,32.1473943 50.312351,32.1331573 50.4047964,32.1187892 50.4964221,32.1042884 50.5872362,32.0896532 50.6772467,32.074882 50.7664615,32.0599731 50.8548887,32.0449249 50.9425363,32.0297358 51.0294124,32.014404 51.1155248,31.998928 51.2008816,31.9833061 51.2854908,31.9675367 51.3693605,31.9516181 51.4524986,31.9355486 51.5349131,31.9193267 51.6166121,31.9029507 51.6976036,31.8864189 51.7778955,31.8697297 51.8574958,31.8528814 51.9364127,31.8358724 52.014654,31.8187011 52.0922278,31.8013658 52.1691421,31.7838649 52.2454049,31.7661967 52.321024,31.74836 52.3960055,31.7303536 52.4703548,31.7121751 52.5440773,31.6938217 52.6171784,31.6752908 52.6896636,31.6565797 52.7615383,31.6376857 52.8328078,31.6186062 52.9034777,31.5993384 52.9735532,31.5798797 53.0430399,31.5602274 53.1119432,31.5403789 53.1802684,31.5203314 53.248021,31.5000823 53.3818299,31.4589686 53.5134134,31.4170164 53.6428148,31.3742042 53.7700773,31.3305106 53.8952443,31.2859143 54.0183592,31.2403937 54.1394652,31.1939277 54.2586058,31.1464946 54.3758232,31.0980772 54.4911503,31.0486584 54.6046146,30.9981994 54.7162436,30.9466603 54.8260648,30.8940011 54.9341055,30.8401817 55.0403933,30.7851622 55.1449555,30.7289026 55.2478197,30.6713628 55.3490133,30.6125029 55.4485637,30.5522828 55.5464984,30.4906626 55.6428448,30.4276023 55.7376305,30.3630619 55.8308827,30.2970013 55.9226291,30.2293806 56.0128971,30.1601597 56.1017134,30.0892978 56.189092,30.0167294 56.2750472,29.9423796 56.3595965,29.8661773 56.4427573,29.7880515 56.4838224,29.7482451 56.5245471,29.7079312 56.5649334,29.6671009 56.6049835,29.6257453 56.6446997,29.5838555 56.684084,29.5414227 56.7231388,29.4984379 56.7618661,29.4548923 56.8002682,29.410777 56.8383472,29.3660832 56.8761055,29.3208029 56.9135447,29.2749276 56.9506662,29.2284431 56.9874714,29.181335 57.0239616,29.1335889 57.060138,29.0851904 57.0960021,29.0361249 57.1315551,28.9863781 57.1667984,28.9359356 57.2017333,28.8847829 57.2363612,28.8329057 57.2706833,28.7802893 57.3047009,28.7269196 57.3384155,28.672782 57.3718283,28.617862 57.4049406,28.5621454 57.4377538,28.5056175 57.4702692,28.4482641 57.5024882,28.3900707 57.5344119,28.3310228 57.566042,28.2711081 57.5973797,28.2103165 57.6284252,28.1486234 57.6591787,28.0860028 57.6896405,28.0224287 57.7198107,27.9578749 57.7496895,27.8923153 57.7792772,27.8257239 57.8085738,27.7580746 57.8375795,27.6893413 57.8662947,27.6194979 57.8947193,27.5485184 57.9228537,27.4763767 57.950698,27.4030467 57.9782525,27.3285023 58.0055172,27.2527175 58.0324924,27.1756661 58.0591782,27.0973221 58.0855749,27.0176594 58.1116827,26.936652 58.1375017,26.8542737 58.1630321,26.7704984 58.188273,26.6852874 58.2132227,26.5985909 58.23788,26.5103651 58.2622438,26.4205658 58.2863129,26.3291492 58.3100861,26.2360714 58.3335623,26.1412883 58.3567403,26.0447561 58.379619,25.9464308 58.4021972,25.8462683 58.4244737,25.7442249 58.4464475,25.6402578 58.4681167,25.5343146 58.4894786,25.4263287 58.5105307,25.3162335 58.5312702,25.2039621 58.5516943,25.0894477 58.5718005,24.9726236 58.5817334,24.9133245 58.5915859,24.8534229 58.6013575,24.7929104 58.611048,24.7317788 58.6206569,24.6700197 58.630184,24.6076247 58.6396289,24.5445854 58.6489912,24.4808936 58.6582707,24.4165408 58.667467,24.3515189 58.6765798,24.2858217 58.6856088,24.2194379 58.6945531,24.1523537 58.7034122,24.0845558 58.7121853,24.0160306 58.7208718,23.9467645 58.729471,23.8767439 58.7379823,23.8059553 58.7464049,23.7343853 58.7547383,23.6620201 58.7629817,23.5888463 58.7711346,23.5148503 58.7791961,23.4400187 58.7871657,23.3643377 58.7950427,23.2877939 58.8028265,23.2103738 58.8105162,23.1320638 58.8181114,23.0528503 58.8256113,22.9727197 58.8330152,22.8916587 58.8403226,22.8096535 58.8475326,22.7266907 58.8546447,22.6427567 58.8616582,22.557838 58.8685728,22.4719264 58.8753874,22.385004 58.8821008,22.2970469 58.8887118,22.2080312 58.8952189,22.1179331 58.9016209,22.0267286 58.9079165,21.9343938 58.9141043,21.840905 58.9201831,21.7462381 58.9261517,21.6503694 58.9320085,21.5532749 58.9377525,21.4549308 58.9433822,21.3553132 58.9488964,21.2543981 58.9542937,21.1521618 58.9595729,21.0485803 58.9647327,20.9436297 58.9697717,20.8372862 58.9746887,20.7295259 58.9794823,20.6203249 58.9841512,20.5096594 58.9886942,20.3975053 58.99311,20.2838389 58.9973971,20.1686363 59.0015543,20.0518707 59.0055787,19.9334965 59.0094682,19.8134733 59.0132205,19.6917622 59.0168334,19.5683246 59.0203048,19.4431216 59.0236323,19.3161144 59.0268138,19.1872644 59.0298471,19.0565328 59.0327299,18.9238808 59.0354602,18.7892696 59.0380356,18.6526605 59.040454,18.5140148 59.0427132,18.3732945 59.0448105,18.2304524 59.0467425,18.0854318 59.0485062,17.9381763 59.050098,17.7886295 59.0515149,17.6367349 59.0521567,17.5598895 59.0527535,17.4824359 59.0533049,17.4043671 59.0538105,17.3256761 59.0542699,17.2463557 59.0546827,17.1663989 59.0550484,17.0857987 59.0553667,17.0045479 59.0556372,16.9226396 59.0558594,16.8400667 59.056033,16.756822 59.0561574,16.6728986 59.0562324,16.5882894 59.0562575,16.5029873 59.0562575,16.5029873 59.0562324,16.4176856 59.0561573,16.3330776 59.0560327,16.2491561 59.0558591,16.1659139 59.0556367,16.0833439 59.055366,16.0014388 59.0550475,15.9201916 59.0546815,15.839595 59.0542685,15.7596419 59.0538089,15.6803252 59.0533031,15.6016375 59.0527515,15.5235718 59.0521545,15.446121 59.0515126,15.3692777 59.0500956,15.2173854 59.0485038,15.0678376 59.0467405,14.9205769 59.044809,14.7755459 59.0427127,14.6326874 59.0404545,14.4919519 59.0380365,14.3532993 59.0354611,14.2166894 59.0327306,14.0820821 59.0298473,13.9494371 59.0268135,13.8187143 59.0236315,13.6898734 59.0203035,13.5628742 59.0168318,13.4376765 59.0132188,13.3142402 59.0094668,13.192525 59.005578,13.0724907 59.0015552,12.9540888 58.9974005,12.837283 58.9931153,12.7220482 58.9887009,12.6083597 58.9841587,12.4961925 58.97949,12.3855219 58.9746963,12.276323 58.9697788,12.1685709 58.964739,12.0622407 58.9595782,11.9573076 58.9542977,11.8537468 58.948899,11.7515334 58.9433833,11.6506425 58.9377521,11.5510492 58.9320067,11.4527288 58.9261485,11.3556563 58.9201788,11.2598069 58.914099,11.1651558 58.9079105,11.0716781 58.9016146,10.9793489 58.8952127,10.8881433 58.8887061,10.7980366 58.8820962,10.7090038 58.8753844,10.6210201 58.8685718,10.5340634 58.8616587,10.4481293 58.8546455,10.363205 58.8475331,10.2792755 58.8403223,10.1963255 58.8330137,10.11434 58.8256082,10.0333037 58.8181066,9.9532015 58.8105095,9.8740183 58.8028178,9.7957388 58.7950323,9.7183479 58.7871536,9.6418306 58.7791827,9.5661715 58.7711201,9.4913555 58.7629668,9.4173676 58.7547234,9.3441925 58.7463908,9.271815 58.7379697,9.20022 58.7294607,9.129395 58.7208643,9.0593298 58.7121809,8.9900145 58.703411,8.9214389 58.6945549,8.853593 58.6856133,8.7864668 58.6765864,8.7200503 58.6674748,8.6543333 58.6582788,8.5893058 58.6489991,8.5249579 58.6396358,8.4612794 58.6301897,8.3982603 58.620661,8.3358905 58.6110502,8.27416 58.6013578,8.2130588 58.5915842,8.1525768 58.5817299,8.092704 58.5717953,8.0334303 58.5516869,7.91664 58.5312628,7.8021256 58.5105261,7.6898129 58.4894786,7.5796485 58.4681219,7.4715835 58.4464575,7.3655688 58.4244869,7.2615552 58.4022117,7.1594938 58.3796332,7.0593356 58.3567531,6.9610313 58.3335728,6.8645321 58.3100939,6.7697887 58.2863178,6.6767522 58.2622461,6.5853736 58.2378803,6.4956037 58.213222,6.4073934 58.1882725,6.3206938 58.1630334,6.23546 58.1375048,6.1516616 58.1116868,6.0692709 58.0855792,5.9882607 58.0591819,5.9086033 58.032495,5.8302715 58.0055183,5.7532377 57.9782518,5.6774744 57.9506953,5.6029542 57.9228489,5.5296497 57.8947123,5.4575333 57.8662857,5.3865777 57.8375688,5.3167554 57.8085617,5.2480389 57.7792642,5.1804007 57.7496763,5.1138134 57.7197979,5.0482496 57.6896289,4.9836817 57.6591693,4.9200824 57.6284189,4.8574241 57.5973779,4.7956813 57.5660456,4.7348376 57.5344207,4.674879 57.5025017,4.6157911 57.4702874,4.55756 57.4377764,4.5001714 57.4049673,4.4436113 57.3718587,4.3878654 57.3384493,4.3329196 57.3047377,4.2787598 57.2707225,4.2253718 57.2364024,4.1727415 57.2017759,4.1208547 57.1668418,4.0696973 57.1315986,4.0192551 57.0960451,3.9695139 57.0601797,3.9204598 57.0240012,3.8720784 56.9875082,3.8243556 56.9506992,3.7772773 56.9135731,3.7308294 56.8761283,3.6849976 56.8383635,3.6397679 56.8002773,3.5951261 56.7618684,3.551058 56.7231354,3.5075496 56.684077,3.4645866 56.6446924,3.4221572 56.6049805,3.3802549 56.5649383,3.3388729 56.5245631,3.2980046 56.4838523,3.2576432 56.4428029,3.2177819 56.3596777,3.139533 56.2751653,3.063204 56.1892438,2.9887412 56.1018909,2.9160906 56.0130846,2.8451985 55.9228027,2.7760111 55.8310232,2.7084745 55.737724,2.6425349 55.6428828,2.5781385 55.5464777,2.5152314 55.4484865,2.45376 55.3488872,2.3936702 55.2476575,2.3349084 55.1447755,2.2774206 55.0402189,2.2211532 54.9339578,2.1660799 54.8259545,2.1121903 54.7161754,2.0594544 54.6045868,2.0078426 54.4911551,1.9573251 54.3758465,1.9078722 54.2586273,1.859454 54.139464,1.8120409 54.0183228,1.765603 53.89517,1.7201106 53.7699726,1.6755345 53.6426942,1.6318513 53.5132898,1.5890412 53.3817133,1.5470845 53.247919,1.5059613 53.1801758,1.4857061 53.111861,1.4656519 53.0429688,1.4457962 52.9734934,1.4261365 52.9034291,1.4066704 52.8327703,1.3873953 52.7615111,1.3683089 52.6896458,1.3494086 52.6171688,1.330692 52.5440742,1.3121566 52.4703563,1.2937999 52.3960094,1.2756194 52.3210278,1.2576127 52.2454057,1.2397774 52.1691375,1.2221108 52.0922187,1.2046111 52.0146422,1.1872766 51.9363998,1.1701057 51.8574834,1.1530968 51.7778847,1.1362483 51.6975955,1.1195585 51.6166078,1.103026 51.5349132,1.086649 51.4525037,1.070426 51.3693709,1.0543554 51.2855068,1.0384356 51.2009031,1.0226649 51.1155517,1.0070418 51.0294444,0.9915646 50.942573,0.9762318 50.8549293,0.9610417 50.7665051,0.9459927 50.6772922,0.9310833 50.5872825,0.9163119 50.4964677,0.9016767 50.4048398,0.8871763 50.3123904,0.872809 50.2191114,0.8585732 50.1249946,0.8444673 50.0300319,0.8304897 49.9342151,0.8166388 49.8375359,0.8029131 49.739988,0.7893109 49.6415648,0.7758313 49.5422537,0.7624732 49.4420424,0.7492357 49.3409182,0.7361177 49.2388687,0.7231183 49.1358814,0.7102364 49.0319437,0.6974711 48.9270431,0.6848213 48.8211671,0.672286 48.7143033,0.6598642 48.6064391,0.647555 48.4975619,0.6353573 48.3876594,0.6232701 48.2767189,0.6112924 48.1647279,0.5994232 48.051674,0.5876615 47.9375446,0.5760063 47.8223273,0.5644567 47.7060094,0.5530115 47.5885786,0.5416698 47.4700222,0.5304306 47.3503278,0.5192928 47.2294828,0.5082556 47.1074748,0.4973178 46.9842913,0.4864785 46.8599196,0.4757366 46.7343474,0.4650913 46.6075621,0.4545413 46.4795512,0.4440859 46.3503021,0.4337239 46.2198017,0.4234544 46.0880265,0.4132774 45.9549569,0.4031925 45.8205753,0.3931989 45.6848642,0.3832958 45.547806,0.3734825 45.4093834,0.3637583 45.2695788,0.3541224 45.1283748,0.3445741 44.9857537,0.3351126 44.8416982,0.3257372 44.8416982,0.3257372 44.8261696,0.3251507 44.8106465,0.3253911 44.7951601,0.3264563 44.7797415,0.3283444 44.7644344,0.3310511 44.7493077,0.3345624 44.7343932,0.3388677 44.7197204,0.3439566 44.7053229,0.3498169 44.6912755,0.3564145 44.6776155,0.3637247 44.6643664,0.3717281 44.651552,0.3804053 44.6391958,0.3897367 44.6273217,0.3997031 44.6159531,0.410285 44.6051294,0.4214457 44.5949058,0.4331224 44.5852982,0.445287 44.5763206,0.457913 44.5679873,0.470974 44.5603125,0.4844434 44.5533104,0.4982947 44.5469953,0.5125015 44.5413914,0.5270088 44.5365197,0.5417528 44.5323848,0.5567042 44.5289913,0.5718336 44.5263438,0.5871118 44.5244471,0.6025096 44.5233057,0.6179975 44.5229241,0.6335465 44.5229241,1.2029873 A0.3,0.3 0 0,1 44.2229241,1.5029873 L42.4229241,1.5029873 A0.3,0.3 90 0,1 42.1229241,1.2029873 L42.1229241,0.4719714 42.1229241,0.4719714 42.1225889,0.4574269 42.1215857,0.4429328 42.119918,0.4285134 42.1175896,0.4141927 42.114604,0.3999948 42.1109649,0.3859437 42.1066759,0.3720635 42.1017406,0.3583785 42.0961758,0.3449426 42.0900007,0.3318014 42.0832265,0.318977 42.0758643,0.3064912 42.0679256,0.2943659 42.0594215,0.2826231 42.0503632,0.2712846 42.040762,0.2603725 42.030647,0.2499264 42.0200637,0.2399949 42.0090313,0.230595 41.9975689,0.2217431 41.9856952,0.2134558 41.9734292,0.2057495 41.9607897,0.1986407 41.9477955,0.1921458 41.9344925,0.1862926 41.9209462,0.1811103 41.9071816,0.1766063 41.8932228,0.1727877 41.8790943,0.1696615 41.8648203,0.1672349 41.8504251,0.1655149 41.835933,0.1645086 41.835933,0.1645086 41.68715,0.1579401 41.5370342,0.1514247 41.3855701,0.1449622 41.232742,0.1385522 41.0785341,0.1321946 40.922931,0.125889 40.7659169,0.1196352 40.6074795,0.1134329 40.4476073,0.1072817 40.2862813,0.1011814 40.1234821,0.095132 39.9591907,0.089133 39.7933877,0.0831844 39.6260538,0.077286 39.4571697,0.0714375 39.2867163,0.0656388 39.1146743,0.0598896 38.9410244,0.0541897 38.7657473,0.0485391 38.5888239,0.0429373 38.4102347,0.0373844 38.2299606,0.03188 38.0479824,0.0264239 37.8642807,0.021016 37.6788363,0.0156561 37.49163,0.0103439 37.3026424,0.0050792 37.1118544,-0.000138 36.9192467,-0.0053081 36.7247999,-0.0104313 36.528493,-0.0155076 36.3302913,-0.0205372 36.3302913,-0.0205372 36.3151413,-0.0205264 36.3000239,-0.019734 36.2849679,-0.0181627 36.2700021,-0.0158152 36.2551745,-0.0126988 36.2405387,-0.0088267 36.226122,-0.0042085 36.2119518,0.0011461 36.1980752,0.0072179 36.1845535,0.0139755 36.1714095,0.0214009 36.1586654,0.0294762 36.1463436,0.0381839 36.1344662,0.0475061 36.1230555,0.0574254 36.1121337,0.0679237 36.1017505,0.0789526 36.0919448,0.0904644 36.0827299,0.1024345 36.0741197,0.1148385 36.0661276,0.1276519 36.0587672,0.1408504 36.0520522,0.1544094 36.0459963,0.1683043 36.0406254,0.182475 36.0359561,0.1968681 36.0319928,0.2114564 36.02874,0.2262125 36.0262023,0.2411092 36.0243841,0.2561191 36.0232899,0.271215 36.0229241,0.2863695 36.0229241,1.2029873 A0.3,0.3 0 0,1 35.7229241,1.5029873 L33.9229241,1.5029873 A0.3,0.3 90 0,1 33.6229241,1.2029873 L33.6229241,0.2202687 33.6229241,0.2202687 33.622577,0.2055184 33.6215385,0.1908233 33.6198127,0.1762086 33.6174039,0.1616994 33.6143161,0.147321 33.6105537,0.1330985 33.6061207,0.1190573 33.6010213,0.1052225 33.5952663,0.0916339 33.5888822,0.0783561 33.5818824,0.0654141 33.5742796,0.0528303 33.5660862,0.0406275 33.5573148,0.028828 33.547978,0.0174546 33.5380883,0.0065298 33.5276693,-0.0039132 33.5167739,-0.0138191 33.5054254,-0.0231684 33.4936442,-0.0319446 33.4814507,-0.0401312 33.4688653,-0.0477118 33.4559083,-0.0546698 33.4426002,-0.060989 33.4289836,-0.0666439 33.4151308,-0.0716042 33.4010691,-0.0758626 33.3868242,-0.0794125 33.3724217,-0.0822474 33.3578872,-0.0843609 33.3432464,-0.0857465 33.328525,-0.0863975 33.328525,-0.0863975 33.2008606,-0.088821 33.0724866,-0.0912306 32.9433976,-0.0936262 32.8135884,-0.0960079 32.6830537,-0.0983757 32.5517883,-0.1007296 32.419787,-0.1030696 32.2870444,-0.1053958 32.1535554,-0.1077081 32.0193146,-0.1100066 31.8843169,-0.1122912 31.7485569,-0.1145621 31.6120294,-0.1168191 31.4747291,-0.1190624 31.3366509,-0.1212919 31.1977894,-0.1235077 31.0581437,-0.1257097 30.9177117,-0.127898 30.7764868,-0.1300727 30.6344621,-0.1322337 30.4916311,-0.134381 30.347987,-0.1365147 30.2035232,-0.1386346 30.0582329,-0.1407409 29.9121094,-0.1428335 29.7651461,-0.1449125 29.6173362,-0.1469777 29.4686731,-0.1490293 29.3191501,-0.1510672 29.1687605,-0.1530914 29.0174975,-0.1551019 28.8653545,-0.1570988 28.7123248,-0.159082 28.5584017,-0.1610515 28.4035785,-0.1630074 28.2478485,-0.1649495 28.091205,-0.166878 27.9336413,-0.1687928 27.7751507,-0.170694 27.6157266,-0.1725815 27.4553622,-0.1744553 27.2940508,-0.1763154 27.1317858,-0.1781618 26.9685604,-0.1799946 26.804368,-0.1818137 26.6392018,-0.1836192 26.4730552,-0.1854109 26.3059214,-0.187189 26.1377938,-0.1889534 25.9686657,-0.1907042 25.7985304,-0.1924413 25.6273812,-0.1941647 25.4552113,-0.1958744 25.2820142,-0.1975705 25.107783,-0.1992529 24.9325112,-0.2009216 24.756192,-0.2025767 24.5788187,-0.2042181 24.4003846,-0.2058458 24.220883,-0.2074599 24.0403073,-0.2090603 23.8586507,-0.210647 23.6759066,-0.2122201 23.4920663,-0.2137795 23.4920663,-0.2137795 23.4770923,-0.2135241 23.4621614,-0.2125078 23.4473013,-0.2107334 23.4325399,-0.208204 23.4179265,-0.204928 23.4035078,-0.2009177 23.3893102,-0.1961824 23.3753601,-0.1907314 23.3617125,-0.1845881 23.3484162,-0.1777794 23.3354928,-0.170322 23.322964,-0.1622331 23.3108514,-0.1535294 23.2991767,-0.1442279 23.2879616,-0.1343455 23.2772283,-0.1238998 23.2670293,-0.1129428 23.2573971,-0.1015161 23.2483451,-0.0896431 23.2398867,-0.0773474 23.2320352,-0.0646525 23.2248042,-0.0515821 23.2182069,-0.0381598 23.212257,-0.0244094 23.2069811,-0.0103927 23.2023941,0.0038408 23.1985006,0.0182646 23.195305,0.0328523 23.1928117,0.0475773 23.1910253,0.0624131 23.1899502,0.0773333 23.1895908,0.0923113 23.1895908,1.2029873 A0.3,0.3 0 0,1 22.8895908,1.5029873 L21.0895908,1.5029873 A0.3,0.3 90 0,1 20.7895908,1.2029873 L20.7895908,0.0697486 20.7895908,0.0697486 20.7892376,0.0549053 20.7881794,0.0401038 20.7864184,0.0253703 20.7839569,0.0107308 20.7807995,-0.0037789 20.7769557,-0.0181123 20.7724324,-0.0322431 20.7672364,-0.0461461 20.7613778,-0.0597883 20.7548812,-0.0731118 20.7477617,-0.0860897 20.7400325,-0.0986992 20.7317069,-0.1109175 20.7227981,-0.1227218 20.7133195,-0.1340893 20.7032842,-0.1449972 20.6927144,-0.1554143 20.6816655,-0.1652838 20.6701628,-0.1745848 20.6582276,-0.183301 20.6458809,-0.1914161 20.6331439,-0.1989138 20.6200378,-0.2057776 20.6065837,-0.2119914 20.5928235,-0.2175308 20.5788317,-0.2223655 20.5646367,-0.2264883 20.5502648,-0.2298932 20.5357422,-0.2325739 20.5210951,-0.2345243 20.5063498,-0.2357383 20.4915325,-0.2362096 20.4915325,-0.2362096 20.350589,-0.2371347 20.2090423,-0.238053 20.0668881,-0.2389646 19.924122,-0.2398695 19.924122,-0.2398695 19.9048131,-0.2041594 19.8859702,-0.1678307 19.8675682,-0.1309134 19.8495823,-0.0934379 19.8319872,-0.0554344 19.8147576,-0.0169334 19.7812935,0.0614389 19.7489865,0.1414345 19.7176326,0.2228086 19.6870273,0.3053163 19.6569665,0.3887139 19.5976648,0.5572087 19.5381126,0.7263724 19.5077451,0.8106156 19.4767227,0.8943251 19.4448535,0.9772748 19.4119493,1.0592436 19.377826,1.1400152 19.3423043,1.2193798 19.3052103,1.297134 19.2860209,1.3353456 19.266376,1.3730817 19.2462555,1.4103191 19.2256399,1.447035 19.2045101,1.4832072 19.1828477,1.5188143 19.1606343,1.5538351 19.1378526,1.5882494 19.1144855,1.6220374 19.0905165,1.6551801 19.0659298,1.6876592 19.0407103,1.7194573 19.0148435,1.7505576 18.9883156,1.7809443 18.9611138,1.8106025 18.9332258,1.8395181 18.9046404,1.8676783 18.8753471,1.8950711 18.8453365,1.9216854 18.8146,1.9475116 18.7831302,1.9725409 18.7509204,1.996766 18.7179653,2.0201807 18.6842606,2.0427799 18.6498031,2.0645601 18.6145908,2.085519 A1.25,1.25 60 0,1 17.3645908,2.085519 L17.3645908,2.085519 17.3263246,2.0627751 17.2889908,2.039269 17.2525871,2.0150029 17.2171096,1.9899803 17.182553,1.9642058 17.1489105,1.9376855 17.1161742,1.9104264 17.0843349,1.8824368 17.0533818,1.8537262 17.0233035,1.8243048 16.994087,1.7941844 16.9657185,1.7633771 16.938183,1.7318966 16.9114644,1.6997571 16.8855461,1.6669737 16.86041,1.6335625 16.8360377,1.5995402 16.8124097,1.5649245 16.7895056,1.5297335 16.7673047,1.4939863 16.7457853,1.4577022 16.7249252,1.4209016 16.7047017,1.3836051 16.6850912,1.3458341 16.6660698,1.3076104 16.647613,1.2689564 16.6296957,1.2298949 16.6122925,1.1904494 16.5789238,1.1105019 16.5472935,1.0293098 16.5171821,0.9470757 16.4883641,0.8640079 16.4606092,0.7803201 16.4336826,0.6962307 16.3813587,0.5277404 16.329454,0.3603566 16.3030439,0.27766 16.2759981,0.1959406 16.2480679,0.115435 16.2190044,0.0363811 16.1885593,-0.0409834 16.1727412,-0.0789577 16.156485,-0.1164205 16.13976,-0.1533422 16.1225356,-0.1896932 16.1047815,-0.2254441 16.0864674,-0.2605656 16.0864674,-0.2605656 15.8155801,-0.2617869 15.542686,-0.2629885 15.2677683,-0.2641702 14.9908105,-0.265332 14.9908105,-0.265332 14.9758852,-0.2650153 14.9610055,-0.2639434 14.9461988,-0.2621194 14.9314928,-0.2595463 14.9169369,-0.2562328 14.9025762,-0.252191 14.8884368,-0.2474299 14.8745449,-0.241959 14.8609571,-0.2358022 14.8477193,-0.2289853 14.8348528,-0.2215249 14.8223793,-0.2134378 14.8103202,-0.2047406 14.7986971,-0.19545 14.7875315,-0.1855826 14.7768457,-0.175156 14.7666925,-0.1642227 14.7571033,-0.1528229 14.7480915,-0.1409798 14.7396703,-0.1287167 14.7318532,-0.1160571 14.7246536,-0.1030241 14.7180848,-0.0896412 14.7121604,-0.0759322 14.7069072,-0.0619588 14.7023398,-0.0477699 14.6984629,-0.0333919 14.6952809,-0.018851 14.6927982,-0.0041735 14.6910193,0.0106143 14.6899487,0.0254862 14.6895908,0.0404159 14.6895908,1.2029873 A0.3,0.3 0 0,1 14.3895908,1.5029873 L12.5895908,1.5029873 A0.3,0.3 90 0,1 12.2895908,1.2029873 L12.2895908,0.0294397 12.2895908,0.0294397 12.2892357,0.0145728 12.288172,-0.0002518 12.2864018,-0.0150078 12.2839276,-0.0296689 12.2807538,-0.0441995 12.2768904,-0.058552 12.2723443,-0.0727002 12.2671225,-0.0866183 12.2612349,-0.1002743 12.2547066,-0.1136096 12.247553,-0.1265963 12.2397877,-0.1392116 12.2314242,-0.1514326 12.222476,-0.1632366 12.2129566,-0.1746006 12.2028795,-0.1855018 12.1922667,-0.1959094 12.1811739,-0.2057664 12.1696272,-0.2150515 12.1576481,-0.2237486 12.145258,-0.2318414 12.1324781,-0.2393136 12.1193299,-0.2461489 12.1058348,-0.252331 12.0920346,-0.2578361 12.0780042,-0.2626338 12.0637723,-0.2667172 12.0493653,-0.2700802 12.0348096,-0.2727167 12.0201317,-0.2746208 12.0053579,-0.2757863 11.9905147,-0.2762073 11.9905147,-0.2762073 11.7149555,-0.2770604 11.4375038,-0.2778964 11.158144,-0.2787152 10.8768607,-0.2795168 10.5936382,-0.2803012 10.3084612,-0.2810682 10.021314,-0.2818179 9.7321812,-0.2825502 9.4410472,-0.2832651 9.1478966,-0.2839625 8.8527138,-0.2846423 8.5554834,-0.2853046 8.2561898,-0.2859492 7.9548174,-0.2865762 7.6513509,-0.2871854 7.3457746,-0.2877769 7.0380731,-0.2883505 6.7282309,-0.2889063 6.4162324,-0.2894441 6.1020621,-0.289964 5.7857046,-0.2904659 5.4671442,-0.2909498 5.1463633,-0.2914155 4.8233432,-0.2918631 4.4980666,-0.2922924 4.1705164,-0.2927035 3.8406755,-0.2930962 3.5085266,-0.2934705 3.1740525,-0.2938264 2.8372361,-0.2941638 2.4980602,-0.2944826 2.1565076,-0.2947828 2.1565076,-0.2947828 2.1416242,-0.2944194 2.1268084,-0.2933081 2.1120868,-0.2914549 2.0974861,-0.2888658 2.0830328,-0.285547 2.0687536,-0.2815045 2.054675,-0.2767443 2.040824,-0.2712727 2.0272688,-0.265116 2.0140623,-0.2583024 2.0012259,-0.2508484 1.9887812,-0.2427705 1.9767495,-0.2340852 1.9651525,-0.224809 1.9540114,-0.2149583 1.9433487,-0.2045506 1.933217,-0.193638 1.9236476,-0.1822603 1.9146538,-0.1704409 1.9062491,-0.1582027 1.8984469,-0.1455691 1.8912606,-0.1325631 1.8847037,-0.1192079 1.8787898,-0.1055273 1.8735455,-0.0915826 1.8689859,-0.0774231 1.8651154,-0.0630748 1.8619385,-0.0485639 1.8594598,-0.0339166 1.8576837,-0.0191592 1.8566148,-0.0043177 1.8562575,0.0105817 1.8562575,1.2029873 A0.3,0.3 0 0,1 1.5562575,1.5029873 L-0.2437425,1.5029873 A0.3,0.3 90 0,1 -0.5437425,1.2029873 L-0.5437425,0.008715 -0.5437425,0.008715 -0.5440992,-0.0061682 -0.5451678,-0.0210087 -0.5469459,-0.0357799 -0.5494312,-0.0504555 -0.5526191,-0.0649998 -0.5564995,-0.0793647 -0.5610652,-0.0935234 -0.5663092,-0.1074504 -0.5722216,-0.1211138 -0.578777,-0.1344546 -0.5859595,-0.1474443 -0.5937552,-0.1600601 -0.6021506,-0.1722792 -0.6111318,-0.1840785 -0.6206852,-0.1954353 -0.6307971,-0.2063266 -0.6414454,-0.2167219 -0.6525739,-0.2265641 -0.6641561,-0.2358319 -0.6761705,-0.2445091 -0.6885954,-0.2525796 -0.7014092,-0.2600272 -0.7145905,-0.2668356 -0.7281175,-0.2729886 -0.7419484,-0.2784626 -0.7560081,-0.2832276 -0.7702678,-0.2872766 -0.7847009,-0.2906037 -0.7992809,-0.2932029 -0.8139813,-0.2950684 -0.8287755,-0.2961942 -0.843637,-0.2965743 -0.843637,-0.2965743 -1.1497672,-0.2966768 -1.4576988,-0.2967657 -1.7674429,-0.296841 -2.0790108,-0.2969027 -2.3924136,-0.2969508 -2.7076623,-0.2969852 -3.0247683,-0.2970058 -3.3437425,-0.2970127 -3.3437425,-0.2970127 -3.5377872,-0.2970055 -3.7309331,-0.296984 -3.9231867,-0.2969482 -4.114554,-0.2968982 -4.3050413,-0.2968341 -4.4946549,-0.2967559 -4.683401,-0.2966638 -4.8712857,-0.2965578 -5.0583153,-0.2964379 -5.2444961,-0.2963043 -5.4298343,-0.2961569 -5.6143361,-0.295996 -5.7980077,-0.2958215 -5.9808554,-0.2956335 -6.1628853,-0.2954321 -6.3441037,-0.2952174 -6.3441037,-0.2952174 -6.3589591,-0.2948251 -6.373746,-0.2936885 -6.3884381,-0.2918136 -6.4030088,-0.2892066 -6.4174318,-0.2858733 -6.4316804,-0.2818199 -6.4457282,-0.2770524 -6.4595485,-0.2715769 -6.4730728,-0.2654199 -6.4862496,-0.258609 -6.4990574,-0.2511605 -6.5114748,-0.2430908 -6.5234803,-0.2344162 -6.5350525,-0.2251531 -6.5461701,-0.2153177 -6.5568106,-0.2049273 -6.5669218,-0.1940337 -6.5764722,-0.1826766 -6.5854485,-0.170879 -6.5938373,-0.158664 -6.601625,-0.1460545 -6.6087982,-0.1330736 -6.6153435,-0.1197443 -6.6212472,-0.1060901 -6.6264827,-0.0921724 -6.6310347,-0.0780402 -6.6348988,-0.0637197 -6.6380705,-0.049237 -6.6405452,-0.0346181 -6.6423185,-0.0198892 -6.6433858,-0.0050762 -6.6437425,0.0097947 -6.6437425,1.2029873 A0.3,0.3 0 0,1 -6.9437425,1.5029873 L-8.7437425,1.5029873 A0.3,0.3 90 0,1 -9.0437425,1.2029873 L-9.0437425,0.015248 -9.0437425,0.015248 -9.0441012,0.0003515 -9.0451755,-0.0145018 -9.046963,-0.0292851 -9.0494615,-0.0439719 -9.0526661,-0.0585263 -9.0565666,-0.0728995 -9.0611555,-0.0870646 -9.0664257,-0.1009957 -9.0723671,-0.1146614 -9.0789539,-0.1280018 -9.0861698,-0.1409883 -9.0940006,-0.153598 -9.1024325,-0.1658081 -9.1114515,-0.1775955 -9.1210435,-0.1889376 -9.1311946,-0.1998113 -9.1418824,-0.210186 -9.15305,-0.2200047 -9.1646709,-0.2292464 -9.1767233,-0.237895 -9.1891852,-0.2459346 -9.202035,-0.2533489 -9.2152507,-0.2601221 -9.2288106,-0.266238 -9.2426722,-0.2716731 -9.2567607,-0.2763978 -9.2710474,-0.2804056 -9.2855055,-0.2836905 -9.3001083,-0.2862469 -9.3148293,-0.2880688 -9.3296418,-0.2891505 -9.344519,-0.2894863 -9.344519,-0.2894863 -9.5201107,-0.2890169 -9.6949103,-0.2885341 -9.8689227,-0.288038 -10.0421532,-0.2875286 -10.2146067,-0.2870061 -10.3862882,-0.2864703 -10.5572029,-0.2859215 -10.7273558,-0.2853597 -10.8967519,-0.2847849 -11.0653964,-0.2841973 -11.2332942,-0.2835968 -11.4004504,-0.2829835 -11.5668701,-0.2823575 -11.7325583,-0.2817188 -11.89752,-0.2810676 -12.0617618,-0.2804038 -12.2252917,-0.2797277 -12.388114,-0.2790391 -12.5502325,-0.2783383 -12.711651,-0.2776252 -12.8723734,-0.2768998 -13.0324037,-0.2761623 -13.1917455,-0.2754127 -13.3504029,-0.2746509 -13.5083797,-0.2738771 -13.6656796,-0.2730914 -13.8223067,-0.2722936 -13.9782648,-0.271484 -14.1335576,-0.2706625 -14.2881892,-0.2698291 -14.4421632,-0.268984 -14.5954837,-0.2681272 -14.7481545,-0.2672587 -14.9001794,-0.2663785 -15.0515623,-0.2654868 -15.2023071,-0.2645835 -15.3524176,-0.2636687 -15.5018977,-0.2627425 -15.6507512,-0.2618048 -15.7989821,-0.2608558 -15.9465941,-0.2598954 -16.0935912,-0.2589238 -16.2399771,-0.2579409 -16.3857559,-0.2569469 -16.6755071,-0.2549254 -16.9628757,-0.2528598 -17.2478927,-0.2507502 -17.5305888,-0.2485973 -17.8109951,-0.2464011 -18.0891425,-0.2441623 -18.3650617,-0.241881 -18.6387838,-0.2395577 -18.9103397,-0.2371927 -19.1797591,-0.2347864 -19.1797591,-0.2347864 -19.1944997,-0.2342865 -19.2091694,-0.2330578 -19.2237421,-0.2311062 -19.2381921,-0.2284374 -19.2524933,-0.2250572 -19.2666198,-0.2209715 -19.2805456,-0.2161861 -19.2942444,-0.2107071 -19.307649,-0.2045604 -19.320711,-0.1977719 -19.3334091,-0.1903572 -19.3457221,-0.182332 -19.3576286,-0.1737119 -19.3691073,-0.1645125 -19.380137,-0.1547495 -19.3906956,-0.1444391 -19.400732,-0.1336312 -19.4102141,-0.1223653 -19.4191281,-0.110664 -19.4274605,-0.0985495 -19.4351977,-0.0860444 -19.4423259,-0.073171 -19.4488315,-0.0599517 -19.4547009,-0.0464092 -19.4599071,-0.0326038 -19.4644342,-0.0185857 -19.4682776,-0.0043807 -19.4714326,0.0099856 -19.4738945,0.0244874 -19.4756588,0.0390991 -19.4767208,0.053795 -19.4770759,0.0685493 -19.4770759,1.2029873 A0.3,0.3 0 0,1 -19.7770759,1.5029873 L-21.5770759,1.5029873 A0.3,0.3 90 0,1 -21.8770759,1.2029873 L-21.8770759,0.0991061 -21.8770759,0.0991061 -21.8774408,0.0841752 -21.8785341,0.0692894 -21.8803529,0.054476 -21.8828947,0.0397619 -21.8861545,0.025184 -21.890121,0.0107934 -21.8947859,-0.0033825 -21.9001416,-0.0173176 -21.9061776,-0.0309802 -21.9128663,-0.0443091 -21.9201901,-0.0572747 -21.928134,-0.0698542 -21.9366832,-0.0820248 -21.9458228,-0.0937637 -21.9555379,-0.1050481 -21.9658135,-0.1158552 -21.9766253,-0.1261535 -21.9879152,-0.135887 -21.9996562,-0.1450356 -22.0118258,-0.1535839 -22.0244013,-0.1615163 -22.0373603,-0.1688174 -22.0506802,-0.1754715 -22.0643383,-0.1814632 -22.0782904,-0.1867691 -22.0924631,-0.1913621 -22.1068277,-0.1952359 -22.1213572,-0.1983853 -22.1360246,-0.200805 -22.1508029,-0.2024895 -22.1656651,-0.2034336 -22.180584,-0.203632 -22.180584,-0.203632 -22.327908,-0.2018824 -22.4745606,-0.200119 -22.6205449,-0.1983418 -22.765864,-0.1965509 -22.765864,-0.1965509 -22.7842613,-0.1607908 -22.8022388,-0.1244698 -22.81982,-0.0876165 -22.8370288,-0.0502595 -22.8704248,0.0258503 -22.9026185,0.1036288 -22.9338025,0.1828449 -22.9641696,0.2632674 -22.9939129,0.3446656 -23.0232248,0.4268094 -23.0813215,0.5924214 -23.1399799,0.7582967 -23.1699875,0.8407794 -23.2006922,0.9226697 -23.2322741,1.0037556 -23.2649097,1.0838297 -23.2987715,1.1626898 -23.3340273,1.2401393 -23.3708399,1.3159881 -23.3898794,1.3532547 -23.4093665,1.3900529 -23.4293199,1.4263611 -23.4497579,1.4621579 -23.4706983,1.4974228 -23.4921584,1.5321356 -23.5141552,1.5662766 -23.536705,1.599827 -23.5598238,1.6327682 -23.5835268,1.6650825 -23.6078289,1.696753 -23.6327441,1.7277633 -23.6582859,1.7580979 -23.6844671,1.787742 -23.7112997,1.8166817 -23.7387952,1.8449041 -23.7669638,1.8723971 -23.7958154,1.8991495 -23.8253588,1.9251511 -23.8556019,1.950393 -23.8865516,1.9748671 -23.9182141,1.9985664 -23.9505942,2.0214852 -23.9836962,2.0436189 -24.0175228,2.0649642 -24.0520759,2.085519 A1.25,1.25 60 0,1 -25.3020759,2.085519 L-25.3020759,2.085519 -25.3383871,2.0639693 -25.3738597,2.0417342 -25.4084956,2.0188153 -25.4422979,1.9952154 -25.475271,1.9709385 -25.5074203,1.9459893 -25.5387523,1.9203737 -25.5692745,1.8940983 -25.5989956,1.8671708 -25.6279251,1.8395998 -25.6560734,1.8113945 -25.6834519,1.7825652 -25.7100729,1.7531228 -25.7359493,1.7230789 -25.7610951,1.6924462 -25.7855249,1.6612376 -25.8092539,1.6294669 -25.8322983,1.5971486 -25.8546745,1.5642977 -25.8764,1.5309298 -25.8974925,1.4970611 -25.9179704,1.4627081 -25.9378526,1.427888 -25.9571585,1.3926184 -25.9759079,1.3569174 -25.9941212,1.3208035 -26.0118192,1.2842956 -26.0290229,1.2474132 -26.0620346,1.1726038 -26.0933336,1.0965381 -26.1231029,1.0193841 -26.1515307,0.9413155 -26.1788095,0.8625103 -26.205136,0.783151 -26.2557356,0.6235183 -26.3049625,0.4639444 -26.3295807,0.3846683 -26.3544824,0.3059973 -26.3798789,0.228132 -26.4059824,0.1512741 -26.4330049,0.0756259 -26.4611585,0.0013903 -26.4906549,-0.0712298 -26.5059724,-0.1068706 -26.5217044,-0.1420317 -26.5217044,-0.1420317 -26.6692986,-0.1395363 -26.8161737,-0.1370242 -26.9623342,-0.1344955 -27.1077844,-0.1319501 -27.2525286,-0.1293881 -27.3965713,-0.1268097 -27.5399169,-0.1242149 -27.6825696,-0.1216037 -27.6825696,-0.1216037 -27.6971744,-0.1209769 -27.7117051,-0.1196389 -27.7261365,-0.1175953 -27.7404433,-0.1148518 -27.7546002,-0.1114138 -27.7685818,-0.107287 -27.7823629,-0.102477 -27.7959172,-0.0969897 -27.8091788,-0.0908509 -27.8221034,-0.0840842 -27.8346699,-0.0767046 -27.8468571,-0.0687268 -27.858644,-0.0601658 -27.8700093,-0.0510364 -27.8809321,-0.0413535 -27.8913906,-0.0311325 -27.9013348,-0.0204211 -27.910732,-0.0092585 -27.9195686,0.0023334 -27.9278306,0.0143331 -27.9355043,0.0267188 -27.9425757,0.0394688 -27.9490311,0.0525613 -27.9548565,0.0659745 -27.9600251,0.0796495 -27.9645201,0.0935349 -27.9683366,0.1076055 -27.97147,0.1218361 -27.9739154,0.1362013 -27.975668,0.150676 -27.9767231,0.1652349 -27.9770759,0.1798528 -27.9770759,1.2029873 A0.3,0.3 0 0,1 -28.2770759,1.5029873 L-30.0770759,1.5029873 A0.3,0.3 90 0,1 -30.3770759,1.2029873 L-30.3770759,0.2412851 -30.3770759,0.2412851 -30.3774484,0.2262977 -30.3785642,0.2113577 -30.3804204,0.1964928 -30.3830139,0.1817308 -30.3863395,0.1671092 -30.3903847,0.152682 -30.3951406,0.1384774 -30.4005985,0.124522 -30.4067477,0.1108468 -30.413559,0.0975148 -30.4210129,0.0845573 -30.4290934,0.0719973 -30.4377844,0.0598573 -30.4470701,0.0481604 -30.4569345,0.0369291 -30.4673616,0.0261863 -30.4783256,0.0159635 -30.4897666,0.0063164 -30.5016569,-0.0027359 -30.5139731,-0.0111783 -30.5266916,-0.0189957 -30.5397891,-0.0261732 -30.5532419,-0.0326957 -30.5670267,-0.0385482 -30.5810978,-0.043708 -30.5953827,-0.0481498 -30.6098525,-0.0518681 -30.6244797,-0.0548579 -30.6392367,-0.0571145 -30.6540962,-0.0586331 -30.6690305,-0.0594086 -30.6840123,-0.0594364 -30.6840123,-0.0594364 -30.8702016,-0.0550882 -31.0551517,-0.0507073 -31.2388741,-0.046294 -31.4213802,-0.0418481 -31.6026816,-0.0373699 -31.78279,-0.0328593 -31.9617167,-0.0283166 -32.1394734,-0.0237416 -32.3160716,-0.0191346 -32.4915227,-0.0144956 -32.6658385,-0.0098246 -32.8390303,-0.0051218 -33.0111098,-0.0003872 -33.1820884,0.0043791 -33.3519778,0.009177 -33.5207896,0.0140064 -33.6885398,0.0188672 -33.8552393,0.0237593 -34.0208962,0.0286825 -34.1855184,0.0336369 -34.3491138,0.0386224 -34.5116906,0.0436391 -34.6732567,0.0486868 -34.8338201,0.0537656 -34.9933889,0.0588753 -35.1519709,0.0640161 -35.3095742,0.0691877 -35.4662068,0.0743903 -35.6218768,0.0796238 -35.776592,0.0848881 -35.9303605,0.0901832 -36.0831904,0.095509 -36.2350895,0.1008656 -36.3860659,0.106253 -36.5361276,0.111671 -36.6852826,0.1171196 -36.8335389,0.1225988 -36.9809045,0.1281087 -37.1273874,0.133649 -37.2729955,0.1392199 -37.4177369,0.1448213 -37.5616197,0.1504531 -37.7046517,0.1561153 -37.8468409,0.1618079 -37.9881955,0.1675308 -38.1287233,0.1732841 -38.2684324,0.1790676 -38.4073308,0.1848814 -38.5454265,0.1907253 -38.6827274,0.1965995 -38.8192416,0.2025038 -38.9549771,0.2084382 -39.0899418,0.2144027 -39.2241438,0.2203973 -39.3575911,0.2264219 -39.4902869,0.2324765 -39.6222311,0.2385613 -39.7534298,0.2446763 -39.8838889,0.2508215 -40.0136144,0.2569968 -40.1426122,0.2632023 -40.2708883,0.269438 -40.3984487,0.2757039 -40.5252993,0.282 -40.5252993,0.282 -40.5395774,0.2830557 -40.5537648,0.2847906 -40.5678379,0.2871988 -40.5817731,0.2902745 -40.5955467,0.2940118 -40.6091351,0.2984049 -40.6225146,0.3034481 -40.6356599,0.3091346 -40.6485081,0.3154379 -40.661022,0.3223369 -40.6731817,0.3298174 -40.6849675,0.3378653 -40.6963596,0.3464665 -40.7073383,0.3556069 -40.7178837,0.3652724 -40.7279712,0.3754436 -40.7375497,0.3860685 -40.7465994,0.3971203 -40.7551073,0.4085785 -40.7630603,0.4204229 -40.7704453,0.432633 -40.7772493,0.4451885 -40.7834592,0.4580689 -40.7890612,0.4712522 -40.7940279,0.4846751 -40.7983469,0.4982968 -40.8020138,0.5120934 -40.8050242,0.5260413 -40.8073734,0.5401167 -40.8090569,0.5542959 -40.8100704,0.5685551 -40.8104092,0.5828706 -40.8104092,1.2029873 A0.3,0.3 0 0,1 -41.1104092,1.5029873 L-42.9104092,1.5029873z"
       transform="matrix(1,0,0,-1,67.3437425,34.5029873)"
       fill="rgb(255,255,255)"
       stroke="rgb(0,0,0)"
       stroke-width="0.0010cm"
       stroke-linecap="round"
       stroke-linejoin="round"
       id="path68"
       style="fill:none;stroke:#000000;stroke-opacity:1;stroke-width:0.1;stroke-dasharray:none" /></g></svg>
