<?xml version="1.0" encoding="UTF-8" standalone="no"?>
<!-- Generator: Fusion 360, Shaper Origin Export Add-In, Version 1.8.0  -->

<svg
   shaper:fusionaddin="version:1.8.0"
   width="128cm"
   height="36cm"
   version="1.1"
   x="0cm"
   y="0cm"
   viewBox="0 0 128 36"
   enable-background="new 0 0 128 36"
   xml:space="preserve"
   id="svg38"
   sodipodi:docname="corpus_1_Faces.svg"
   inkscape:version="1.2.2 (732a01da63, 2022-12-09)"
   xmlns:inkscape="http://www.inkscape.org/namespaces/inkscape"
   xmlns:sodipodi="http://sodipodi.sourceforge.net/DTD/sodipodi-0.dtd"
   xmlns="http://www.w3.org/2000/svg"
   xmlns:svg="http://www.w3.org/2000/svg"
   xmlns:shaper="http://www.shapertools.com/namespaces/shaper"><defs
     id="defs42" /><sodipodi:namedview
     id="namedview40"
     pagecolor="#505050"
     bordercolor="#eeeeee"
     borderopacity="1"
     inkscape:showpageshadow="0"
     inkscape:pageopacity="0"
     inkscape:pagecheckerboard="0"
     inkscape:deskcolor="#505050"
     inkscape:document-units="cm"
     showgrid="false"
     inkscape:zoom="0.13539225"
     inkscape:cx="1458.7245"
     inkscape:cy="771.83146"
     inkscape:window-width="1920"
     inkscape:window-height="991"
     inkscape:window-x="-9"
     inkscape:window-y="-9"
     inkscape:window-maximized="1"
     inkscape:current-layer="svg38" /><g
     id="g289"
     style="fill:none;stroke:#000000;stroke-opacity:1;stroke-width:0.1;stroke-dasharray:none"><path
       d="M63.2883602,-8.5945951 L63.2883602,-6.5945951 63.5883602,-6.5945951 63.5883602,-0.7945951 A1.4,1.4 0 0,1 62.1883602,0.6054049 L-63.0116398,0.6054049 A1.4,1.4 90 0,1 -64.4116398,-0.7945951 L-64.4116398,-33.9945951 A1.4,1.4 180 0,1 -63.0116398,-35.3945951 L62.1883602,-35.3945951 A1.4,1.4 270 0,1 63.5883602,-33.9945951 L63.5883602,-28.1945951 63.2883602,-28.1945951 63.2883602,-26.1945951 46.5883602,-26.1945951 A1,1 270 0,0 45.5883602,-25.1945951 L45.5883602,-9.5945951 A1,1 180 0,0 46.5883602,-8.5945951 L63.2883602,-8.5945951z"
       transform="matrix(1,0,0,-1,64.4116398,0.6054049)"
       fill="rgb(0,0,0)"
       stroke-linecap="round"
       stroke-linejoin="round"
       id="path2"
       style="fill:none;stroke:#000000;stroke-opacity:1;stroke-width:0.1;stroke-dasharray:none" /><path
       d="M22.0012232,-32.214054 L22.0012232,-32.214054 21.9771979,-32.183547 21.9526445,-32.1537484 21.9275636,-32.1246769 21.9019404,-32.0963306 21.8757597,-32.0687078 21.8490067,-32.0418064 21.8216662,-32.0156246 21.7937234,-31.9901606 21.7651631,-31.9654124 21.7359704,-31.9413783 21.7061303,-31.9180564 21.6756278,-31.8954447 21.6444479,-31.8735414 21.6125755,-31.8523446 21.5799957,-31.8318526 21.5466935,-31.8120633 A1.25,1.25 60 0,1 20.2966935,-31.8120633 L20.2966935,-31.8120633 20.2662743,-31.8300351 20.2363742,-31.8485291 20.2069882,-31.8675531 20.1781112,-31.8871149 20.1497382,-31.9072224 20.1218642,-31.9278834 20.0944841,-31.9491056 20.0675929,-31.970897 20.0411855,-31.9932654 20.015257,-32.0162186 19.9898022,-32.0397644 19.9648161,-32.0639107 19.9402937,-32.0886653 19.9162299,-32.114036 19.8926197,-32.1400307 19.8694581,-32.1666572 19.846776,-32.1938789 19.8247097,-32.2215153 19.8032581,-32.249537 19.7824042,-32.2779331 19.762131,-32.3066929 19.7424214,-32.3358057 19.7232585,-32.3652608 19.7046252,-32.3950475 19.6688795,-32.4555724 19.6350483,-32.5172947 19.6029953,-32.5801284 19.5725846,-32.6439876 19.5725846,-32.6439876 19.3977979,-32.6720611 19.2218863,-32.6999469 19.0448467,-32.7276424 18.8666762,-32.7551451 18.6873718,-32.7824523 18.5069305,-32.8095615 18.3253494,-32.83647 18.1426254,-32.8631753 17.9587557,-32.8896747 17.7737372,-32.9159658 17.587567,-32.9420458 17.4002421,-32.9679123 17.2117595,-32.9935625 17.0221163,-33.0189939 16.8313095,-33.044204 16.639336,-33.0691901 16.446193,-33.0939497 16.2518775,-33.11848 16.0563865,-33.1427787 15.859895,-33.166822 15.6628162,-33.1905604 15.4651596,-33.2139933 15.2669172,-33.2371222 15.0680809,-33.2599489 14.8686425,-33.2824748 14.6685942,-33.3047016 14.4679276,-33.3266309 14.2666349,-33.3482642 14.0647079,-33.3696031 13.8621385,-33.3906493 13.6589186,-33.4114043 13.4550402,-33.4318697 13.2504952,-33.452047 13.0452756,-33.471938 12.8393732,-33.4915442 12.63278,-33.5108671 12.4254879,-33.5299083 12.2174888,-33.5486696 12.0087746,-33.5671523 11.7993374,-33.5853582 11.5891689,-33.6032888 11.3782611,-33.6209457 11.166606,-33.6383305 10.9541955,-33.6554448 10.7410214,-33.6722902 10.5270758,-33.6888682 10.3123505,-33.7051805 10.0968375,-33.7212287 9.8805287,-33.7370143 9.663416,-33.7525389 9.4454913,-33.7678041 9.2267466,-33.7828116 9.0071738,-33.7975628 8.7867648,-33.8120595 8.5655115,-33.8263031 8.3434059,-33.8402952 8.1204399,-33.8540376 7.8966054,-33.8675317 7.6718943,-33.8807791 7.4462986,-33.8937815 7.2198102,-33.9065403 6.992421,-33.9190573 6.7641229,-33.931334 6.5349079,-33.943372 6.3047678,-33.9551728 6.0736947,-33.9667382 5.8416803,-33.9780696 5.6087168,-33.9891686 5.3747959,-34.0000369 5.1399096,-34.010676 4.9040499,-34.0210875 4.6672086,-34.031273 4.4293776,-34.0412342 4.190549,-34.0509725 3.9507146,-34.0604896 3.7098663,-34.0697871 3.4679962,-34.0788666 3.225096,-34.0877296 2.9811577,-34.0963777 2.7361733,-34.1048126 2.4901346,-34.1130358 2.2430337,-34.1210489 1.9948624,-34.1288535 1.7456126,-34.1364512 1.4952762,-34.1438435 1.2438453,-34.1510322 0.9913117,-34.1580187 0.7376673,-34.1648047 0.4829041,-34.1713917 0.227014,-34.1777813 -0.0300112,-34.1839752 -0.2881793,-34.1899749 -0.5474987,-34.1957819 -0.8079772,-34.201398 -1.069623,-34.2068247 -1.3324442,-34.2120635 -1.5964488,-34.2171161 -1.8616449,-34.221984 -2.1280407,-34.2266689 -2.3956441,-34.2311723 -2.6644632,-34.2354959 -2.9345062,-34.2396411 -3.2057811,-34.2436097 -3.4782959,-34.2474032 -3.7520588,-34.2510231 -4.0270778,-34.2544711 -4.303361,-34.2577488 -4.5809164,-34.2608577 -4.8597522,-34.2637995 -5.1398765,-34.2665757 -5.4212972,-34.269188 -5.7040226,-34.2716378 -5.9880605,-34.2739269 -6.2734192,-34.2760567 -6.5601067,-34.2780289 -6.8481311,-34.2798452 -7.1375005,-34.2815069 -7.4282228,-34.2830159 -7.7203063,-34.2843735 -8.013759,-34.2855816 -8.3085889,-34.2866415 -8.6048041,-34.287555 -8.9024128,-34.2883235 -9.2014229,-34.2889488 -9.5018426,-34.2894323 -9.80368,-34.2897757 -10.106943,-34.2899806 -10.4116398,-34.2900486 -10.4116398,-34.2900486 -10.7240106,-34.2899971 -11.0350156,-34.2898421 -11.3446598,-34.2895828 -11.652948,-34.2892184 -11.9598851,-34.2887479 -12.265476,-34.2881705 -12.5697256,-34.2874855 -12.8726387,-34.2866919 -13.1742203,-34.285789 -13.4744752,-34.2847758 -13.7734083,-34.2836516 -14.0710245,-34.2824154 -14.3673287,-34.2810666 -14.6623257,-34.2796041 -14.9560205,-34.2780272 -15.2484178,-34.2763351 -15.5395227,-34.2745269 -15.8293399,-34.2726017 -16.1178744,-34.2705587 -16.405131,-34.2683971 -16.6911147,-34.266116 -16.9758302,-34.2637147 -17.2592826,-34.2611921 -17.5414766,-34.2585476 -17.8224171,-34.2557803 -18.1021091,-34.2528893 -18.3805574,-34.2498738 -18.657767,-34.2467329 -18.9337425,-34.2434658 -19.2084891,-34.2400717 -19.4820115,-34.2365498 -19.7543146,-34.2328991 -19.7543146,-34.2328991 -19.7755619,-34.1981894 -19.7962332,-34.1627705 -19.8163576,-34.1266726 -19.8359642,-34.0899257 -19.8550854,-34.0525534 -19.8737513,-34.0145822 -19.89199,-33.9760422 -19.9098298,-33.9369634 -19.9444254,-33.8573093 -19.9777636,-33.7758599 -20.0100701,-33.6928552 -20.0415705,-33.6085351 -20.0724904,-33.5231398 -20.1030555,-33.4369091 -20.1640235,-33.2629016 -20.2262796,-33.0884326 -20.2584547,-33.0016251 -20.2916287,-32.9154221 -20.3260272,-32.8300638 -20.3618477,-32.7458508 -20.3992931,-32.6630527 -20.4186988,-32.6222429 -20.4385992,-32.5818573 -20.4590237,-32.5419194 -20.4800018,-32.5024526 -20.501563,-32.4634805 -20.5237368,-32.4250265 -20.5465526,-32.3871141 -20.5700399,-32.3497668 -20.5942283,-32.3130081 -20.6191471,-32.2768615 -20.6448258,-32.2413504 -20.671294,-32.2064984 -20.6985202,-32.1724035 -20.7264057,-32.1392263 -20.7549685,-32.1069687 -20.7842299,-32.0756279 -20.8142114,-32.0452014 -20.8449342,-32.0156864 -20.8764199,-31.9870804 -20.9086897,-31.9593805 -20.941765,-31.9325843 -20.9756673,-31.9066889 -21.0104179,-31.8816918 -21.0460381,-31.8575903 -21.0825494,-31.8343817 -21.1199732,-31.8120633 A1.25,1.25 60 0,1 -22.3699732,-31.8120633 L-22.3699732,-31.8120633 -22.4073236,-31.8342474 -22.4438742,-31.8572142 -22.4796353,-31.8809775 -22.5146175,-31.9055506 -22.5488312,-31.9309473 -22.5822869,-31.957181 -22.614995,-31.9842653 -22.646966,-32.0122138 -22.6782104,-32.0410401 -22.7087387,-32.0707578 -22.7385613,-32.1013803 -22.7676886,-32.1329213 -22.7961312,-32.1653943 -22.8238995,-32.198813 -22.8508964,-32.2330498 -22.8769651,-32.2678628 -22.9021348,-32.3032263 -22.9264372,-32.3391183 -22.9499043,-32.3755169 -22.9725678,-32.4123999 -22.9944597,-32.4497454 -23.0156119,-32.4875312 -23.0360561,-32.5257354 -23.0558242,-32.5643358 -23.0749481,-32.6033106 -23.0934597,-32.6426376 -23.1113908,-32.6822948 -23.1287733,-32.7222601 -23.1620302,-32.8030666 -23.1934873,-32.8848955 -23.2233876,-32.9675373 -23.2519742,-33.0507829 -23.2794901,-33.1344227 -23.3061784,-33.2182476 -23.3580445,-33.3856147 -23.3837084,-33.4687383 -23.4095171,-33.5512094 -23.4357135,-33.6328188 -23.4625407,-33.713357 -23.4902419,-33.7926147 -23.51906,-33.8703825 -23.5492482,-33.9464767 -23.5649415,-33.9838514 -23.5810764,-34.0207423 -23.5976841,-34.0571218 -23.6147958,-34.0929628 -23.6324428,-34.1282377 -23.6506565,-34.1629192 -23.6506565,-34.1629192 -23.8733615,-34.1578001 -24.0951899,-34.1525655 -24.316145,-34.1472146 -24.5362301,-34.1417468 -24.7554485,-34.1361615 -24.9738035,-34.130458 -25.1912983,-34.1246357 -25.4079364,-34.118694 -25.623721,-34.1126322 -25.8386554,-34.1064497 -26.0527428,-34.1001458 -26.2659867,-34.0937199 -26.4783902,-34.0871713 -26.6899568,-34.0804995 -26.9006896,-34.0737037 -27.1105921,-34.0667834 -27.3196674,-34.0597378 -27.527919,-34.0525663 -27.73535,-34.0452684 -27.9419638,-34.0378433 -28.1477638,-34.0302905 -28.3527531,-34.0226092 -28.5569352,-34.0147989 -28.7603132,-34.0068588 -28.9628906,-33.9987885 -29.1646705,-33.9905871 -29.3656564,-33.9822541 -29.5658514,-33.9737888 -29.7652589,-33.9651906 -29.9638823,-33.9564589 -30.1617248,-33.947593 -30.3587896,-33.9385922 -30.5550802,-33.929456 -30.7505997,-33.9201836 -30.9453516,-33.9107745 -31.1393391,-33.901228 -31.3325655,-33.8915434 -31.5250341,-33.8817202 -31.7167482,-33.8717577 -31.9077111,-33.8616551 -32.0979261,-33.851412 -32.2873965,-33.8410276 -32.4761256,-33.8305014 -32.6641167,-33.8198326 -32.8513732,-33.8090206 -33.0378982,-33.7980649 -33.2236951,-33.7869646 -33.4087673,-33.7757193 -33.593118,-33.7643283 -33.7767505,-33.7527909 -33.959668,-33.7411064 -34.141874,-33.7292743 -34.3233717,-33.7172939 -34.5041645,-33.7051646 -34.6842555,-33.6928857 -34.8636481,-33.6804565 -35.0423457,-33.6678765 -35.2203515,-33.655145 -35.3976687,-33.6422613 -35.5743008,-33.6292249 -35.750251,-33.616035 -35.9255227,-33.602691 -36.100119,-33.5891924 -36.2740433,-33.5755384 -36.447299,-33.5617283 -36.6198893,-33.5477617 -36.7918175,-33.5336378 -36.9630869,-33.5193559 -37.1337008,-33.5049155 -37.3036625,-33.4903159 -37.4729754,-33.4755565 -37.6416427,-33.4606366 -37.8096677,-33.4455555 -37.9770537,-33.4303127 -38.1438791,-33.4149008 -38.2278855,-33.4070595 -38.3127,-33.399089 -38.3983145,-33.3909879 -38.4847212,-33.3827545 -38.5719121,-33.3743873 -38.6598792,-33.3658849 -38.7486145,-33.3572456 -38.8381099,-33.348468 -38.9283577,-33.3395504 -39.0193497,-33.3304915 -39.111078,-33.3212895 -39.2035346,-33.311943 -39.2967115,-33.3024504 -39.3906007,-33.2928103 -39.4851944,-33.283021 -39.5804844,-33.2730811 -39.6764628,-33.2629889 -39.7731217,-33.252743 -39.870453,-33.2423419 -39.9684487,-33.2317839 -40.067101,-33.2210675 -40.1664018,-33.2101913 -40.2663431,-33.1991536 -40.3669169,-33.187953 -40.4681154,-33.1765878 -40.5699304,-33.1650566 -40.672354,-33.1533578 -40.7753783,-33.14149 -40.8789952,-33.1294514 -40.9831968,-33.1172407 -41.1933221,-33.0922965 -41.4056903,-33.066645 -41.6202377,-33.0402741 -41.8369003,-33.0131713 -42.0556143,-32.9853244 -42.276316,-32.9567211 -42.4989414,-32.9273491 -42.7234267,-32.897196 -42.9497081,-32.8662496 -43.1777218,-32.8344976 -43.4074039,-32.8019277 -43.6386905,-32.7685276 -43.8715179,-32.734285 -44.1058222,-32.6991875 -44.3415396,-32.6632229 -44.5786063,-32.626379 -44.8169583,-32.5886433 -45.0565319,-32.5500035 -45.2972632,-32.5104475 -45.5390884,-32.4699629 -45.7819436,-32.4285373 -46.0257651,-32.3861586 -46.270489,-32.3428143 -46.5160514,-32.2984922 -46.7623885,-32.25318 -47.0094364,-32.2068654 -47.2571315,-32.1595361 -47.5054097,-32.1111798 -47.7542073,-32.0617841 -48.0034604,-32.0113369 -48.2531052,-31.9598258 -48.5030778,-31.9072384 -48.7533145,-31.8535625 -49.0037514,-31.7987859 -49.2543246,-31.7428961 -49.5049703,-31.6858809 -49.7556247,-31.627728 -50.0062239,-31.5684252 -50.2567041,-31.50796 -50.5070015,-31.4463202 -50.7570523,-31.3834935 -51.0067925,-31.3194676 -51.2561583,-31.2542302 -51.505086,-31.187769 -51.7535117,-31.1200717 -52.001202,-31.0511731 -52.1242404,-31.0164134 -52.2466215,-30.9814793 -52.368343,-30.9463713 -52.4894028,-30.9110899 -52.6097985,-30.8756356 -52.729528,-30.8400089 -52.848589,-30.8042104 -52.9669793,-30.7682406 -53.0846967,-30.7321 -53.2017389,-30.6957891 -53.3181037,-30.6593084 -53.4337889,-30.6226585 -53.5487922,-30.5858399 -53.6631114,-30.548853 -53.7767443,-30.5116984 -53.8896886,-30.4743767 -54.0019422,-30.4368883 -54.1135028,-30.3992338 -54.2243681,-30.3614137 -54.3345359,-30.3234284 -54.4440041,-30.2852786 -54.5527703,-30.2469647 -54.6608323,-30.2084872 -54.768188,-30.1698467 -54.874835,-30.1310437 -54.9807712,-30.0920787 -55.0859942,-30.0529523 -55.190502,-30.0136648 -55.2942922,-29.974217 -55.3973626,-29.9346092 -55.4997111,-29.894842 -55.6013352,-29.8549159 -55.702233,-29.8148314 -55.802402,-29.7745891 -55.9018401,-29.7341895 -56.000545,-29.693633 -56.0985145,-29.6529203 -56.1957464,-29.6120518 -56.2922385,-29.571028 -56.3879884,-29.5298495 -56.4829941,-29.4885167 -56.5772532,-29.4470303 -56.6707636,-29.4053906 -56.7635229,-29.3635983 -56.855529,-29.3216539 -56.9467796,-29.2795578 -57.0372725,-29.2373106 -57.1270055,-29.1949128 -57.2159764,-29.1523649 -57.3041828,-29.1096675 -57.3916227,-29.066821 -57.4782937,-29.023826 -57.5641936,-28.980683 -57.6493202,-28.9373925 -57.7336712,-28.893955 -57.8172445,-28.8503711 -57.9000378,-28.8066412 -57.9820488,-28.762766 -58.0632754,-28.7187458 -58.1437153,-28.6745812 -58.2233663,-28.6302728 -58.3022261,-28.5858211 -58.3802925,-28.5412265 -58.4575463,-28.4965 -58.533803,-28.4517558 -58.6090203,-28.4070253 -58.6832076,-28.3623088 -58.7563742,-28.3176066 -58.8285294,-28.272919 -58.8996825,-28.2282463 -58.969843,-28.1835888 -59.0390201,-28.1389468 -59.1072231,-28.0943206 -59.1744615,-28.0497105 -59.2407446,-28.0051168 -59.3060816,-27.9605399 -59.370482,-27.9159799 -59.4339551,-27.8714373 -59.4965101,-27.8269123 -59.5581566,-27.7824051 -59.6189037,-27.7379162 -59.6787609,-27.6934458 -59.7377374,-27.6489942 -59.7958426,-27.6045617 -59.8530859,-27.5601487 -59.9094766,-27.5157553 -59.9650241,-27.471382 -60.0197375,-27.4270289 -60.0736264,-27.3826965 -60.1267001,-27.338385 -60.1789678,-27.2940947 -60.230439,-27.2498259 -60.2811229,-27.205579 -60.331029,-27.1613541 -60.3801664,-27.1171517 -60.4285447,-27.072972 -60.4761731,-27.0288153 -60.5230609,-26.9846819 -60.5692176,-26.9405721 -60.6146524,-26.8964863 -60.6593747,-26.8524246 -60.7033938,-26.8083875 -60.746719,-26.7643752 -60.7893598,-26.7203881 -60.8313254,-26.6764263 -60.8726252,-26.6324903 -60.9534368,-26.5445031 -61.0323657,-26.4558295 -61.1094684,-26.3664044 -61.1847645,-26.2762028 -61.258274,-26.1851995 -61.3300165,-26.0933694 -61.4000119,-26.0006874 -61.4682798,-25.9071284 -61.5348401,-25.8126672 -61.5997125,-25.7172788 -61.6629168,-25.620938 -61.7244728,-25.5236197 -61.7844002,-25.4252987 -61.8427188,-25.3259501 -61.8994484,-25.2255486 -61.9546087,-25.1240691 -62.0082195,-25.0214866 -62.0603005,-24.9177759 -62.1108717,-24.8129118 -62.1599526,-24.7068693 -62.2075631,-24.5996232 -62.2537229,-24.4911485 -62.2984519,-24.38142 -62.3417697,-24.2704125 -62.3837071,-24.1580713 -62.4243553,-24.0441612 -62.4637423,-23.9285971 -62.501882,-23.8113307 -62.5387884,-23.6923136 -62.5744753,-23.5714975 -62.6089567,-23.448834 -62.6422465,-23.3242748 -62.6743585,-23.1977714 -62.7053068,-23.0692756 -62.7351051,-22.9387389 -62.7637675,-22.806113 -62.7776771,-22.7390015 -62.7913078,-22.6713495 -62.8046616,-22.6031511 -62.81774,-22.5344001 -62.8305449,-22.4650905 -62.843078,-22.3952164 -62.855341,-22.3247716 -62.8673356,-22.25375 -62.8790636,-22.1821457 -62.8905268,-22.1099526 -62.9017268,-22.0371647 -62.9126655,-21.9637759 -62.9233445,-21.8897801 -62.9337656,-21.8151713 -62.9439306,-21.7399436 -62.9538411,-21.6640907 -62.9634989,-21.5876067 -62.9729057,-21.5104856 -62.9820634,-21.4327213 -62.9909736,-21.3543077 -62.999638,-21.2752388 -63.0080585,-21.1955085 -63.0162366,-21.1151109 -63.0241743,-21.0340398 -63.0318732,-20.9522893 -63.0393351,-20.8698532 -63.0465616,-20.7867255 -63.0535546,-20.7029003 -63.0603158,-20.6183713 -63.0668469,-20.5331327 -63.0731496,-20.4471783 -63.0792258,-20.3605021 -63.085077,-20.2730981 -63.0907052,-20.1849602 -63.0961119,-20.0960823 -63.101299,-20.0064585 -63.1062682,-19.9160826 -63.1110213,-19.8249487 -63.1155598,-19.7330506 -63.1198858,-19.6403824 -63.1240007,-19.546938 -63.1279064,-19.4527113 -63.1316047,-19.3576963 -63.1350972,-19.261887 -63.1383857,-19.1652773 -63.141472,-19.0678612 -63.1443577,-18.9696326 -63.1470447,-18.8705854 -63.1495346,-18.7707137 -63.1518293,-18.6700114 -63.1539303,-18.5684724 -63.1558395,-18.4660907 -63.1575587,-18.3628603 -63.1590895,-18.2587751 -63.1604337,-18.153829 -63.161593,-18.048016 -63.1625692,-17.9413301 -63.163364,-17.8337653 -63.1639792,-17.7253154 -63.1644164,-17.6159744 -63.1646775,-17.5057363 -63.1647641,-17.3945951 -63.1647641,-17.3945951 -63.1646329,-17.2576392 -63.1642372,-17.1221263 -63.1635742,-16.9880433 -63.1626412,-16.855377 -63.1614353,-16.724114 -63.1599537,-16.5942413 -63.1581936,-16.4657456 -63.1561521,-16.3386137 -63.1538265,-16.2128324 -63.1512138,-16.0883885 -63.1483113,-15.9652688 -63.1451162,-15.8434601 -63.1416256,-15.7229491 -63.1378367,-15.6037227 -63.1337468,-15.4857676 -63.1293528,-15.3690708 -63.1246522,-15.2536188 -63.1196419,-15.1393986 -63.1143193,-15.0263969 -63.1086814,-14.9146006 -63.1027255,-14.8039964 -63.0964487,-14.694571 -63.0898482,-14.5863114 -63.0829213,-14.4792043 -63.0756649,-14.3732365 -63.0680765,-14.2683947 -63.060153,-14.1646659 -63.0518918,-14.0620367 -63.0432899,-13.960494 -63.0343446,-13.8600245 -63.0250531,-13.760615 -63.0154124,-13.6622525 -63.0054199,-13.5649235 -62.9950726,-13.468615 -62.9843677,-13.3733137 -62.9733025,-13.2790064 -62.9618741,-13.1856799 -62.9500796,-13.0933211 -62.9379163,-13.0019166 -62.9253814,-12.9114533 -62.9124719,-12.821918 -62.8991852,-12.7332974 -62.8855183,-12.6455785 -62.8714684,-12.5587479 -62.8570328,-12.4727924 -62.8422086,-12.3876989 -62.826993,-12.3034541 -62.8113831,-12.2200449 -62.7953762,-12.137458 -62.7789693,-12.0556802 -62.7621569,-11.9746844 -62.7449057,-11.8943195 -62.727202,-11.8145425 -62.7090395,-11.7353472 -62.6904119,-11.6567278 -62.6713128,-11.5786779 -62.6517359,-11.5011917 -62.6316748,-11.4242629 -62.6111233,-11.3478856 -62.590075,-11.2720536 -62.5685236,-11.1967609 -62.5464626,-11.1220014 -62.5238859,-11.047769 -62.500787,-10.9740577 -62.4771597,-10.9008613 -62.4529975,-10.8281739 -62.4282943,-10.7559892 -62.4030435,-10.6843014 -62.377239,-10.6131041 -62.3508743,-10.5423915 -62.3239431,-10.4721574 -62.2964392,-10.4023957 -62.2683561,-10.3331004 -62.2396875,-10.2642654 -62.2104272,-10.1958846 -62.1805687,-10.127952 -62.1501057,-10.0604614 -62.119032,-9.9934068 -62.0873411,-9.9267821 -62.0550267,-9.8605813 -62.0220826,-9.7947982 -61.9885023,-9.7294268 -61.9542796,-9.664461 -61.919408,-9.5998947 -61.8838813,-9.5357219 -61.8476932,-9.4719365 -61.8108373,-9.4085324 -61.7733072,-9.3455035 -61.7350967,-9.2828437 -61.6961994,-9.2205471 -61.656609,-9.1586074 -61.6163172,-9.097016 -61.5752315,-9.0356411 -61.5332929,-8.9744114 -61.490488,-8.9133254 -61.4468037,-8.8523817 -61.4022265,-8.7915788 -61.3567433,-8.7309153 -61.3103407,-8.6703896 -61.2630054,-8.6100004 -61.2147242,-8.549746 -61.1654837,-8.4896252 -61.1152706,-8.4296364 -61.0640717,-8.3697781 -61.0118737,-8.3100489 -60.9586632,-8.2504473 -60.904427,-8.1909719 -60.8491518,-8.1316211 -60.7928243,-8.0723935 -60.7354311,-8.0132877 -60.6769591,-7.9543022 -60.6173949,-7.8954355 -60.5567252,-7.8366862 -60.4949368,-7.7780527 -60.4320162,-7.7195336 -60.3679503,-7.6611275 -60.3027258,-7.6028329 -60.2363293,-7.5446483 -60.1687475,-7.4865722 -60.0999672,-7.4286032 -60.0299751,-7.3707399 -59.9587579,-7.3129807 -59.8863023,-7.2553242 -59.8125949,-7.1977689 -59.7376226,-7.1403133 -59.6613719,-7.0829561 -59.5838297,-7.0256957 -59.5049826,-6.9685306 -59.4248364,-6.9114738 -59.3436942,-6.8547549 -59.2616772,-6.7984536 -59.1788022,-6.7425688 -59.0950859,-6.6870994 -59.0105448,-6.6320445 -58.9251955,-6.5774031 -58.8390548,-6.523174 -58.7521392,-6.4693564 -58.6644654,-6.4159491 -58.57605,-6.3629512 -58.4869097,-6.3103617 -58.397061,-6.2581795 -58.3065207,-6.2064036 -58.2153053,-6.155033 -58.1234316,-6.1040667 -58.030916,-6.0535037 -57.9377753,-6.0033429 -57.8440261,-5.9535834 -57.749685,-5.9042241 -57.6547687,-5.855264 -57.5592938,-5.8067021 -57.4632769,-5.7585373 -57.3667347,-5.7107687 -57.2696838,-5.6633952 -57.1721409,-5.6164159 -57.0741225,-5.5698297 -56.9756453,-5.5236355 -56.7773811,-5.4324194 -56.5774813,-5.3427594 -56.3760791,-5.2546474 -56.1733075,-5.1680753 -55.9692996,-5.083035 -55.7641884,-4.9995182 -55.5581071,-4.9175169 -55.3511887,-4.837023 -55.1435664,-4.7580283 -54.9353731,-4.6805246 -54.7267419,-4.6045039 -54.517806,-4.529958 -54.3086984,-4.4568788 -54.0995522,-4.3852581 -53.8905005,-4.3150878 -53.6816763,-4.2463597 -53.4732128,-4.1790659 -53.265243,-4.113198 -53.0579,-4.048748 -52.8513168,-3.9857077 -52.6456266,-3.924069 -52.4409624,-3.8638238 -52.2374573,-3.804964 -52.0352444,-3.7474813 -51.8344567,-3.6913677 -51.6352274,-3.6366151 -51.4376895,-3.5832152 -51.2419761,-3.53116 -51.1448452,-3.5056341 -51.0482203,-3.4804414 -50.9521181,-3.4555807 -50.8565552,-3.4310511 -50.7615482,-3.4068516 -50.6671137,-3.3829811 -50.5732685,-3.3594387 -50.4800291,-3.3362233 -50.3874122,-3.3133338 -50.2954344,-3.2907694 -50.2041123,-3.2685289 -50.1134626,-3.2466114 -50.023502,-3.2250158 -49.9342469,-3.2037411 -49.8457142,-3.1827864 -49.7579203,-3.1621505 -49.6708821,-3.1418325 -49.584616,-3.1218313 -49.4991387,-3.1021459 -49.4144669,-3.0827754 -49.3306171,-3.0637187 -49.2476046,-3.0449744 -49.0821853,-3.0079809 -48.7505326,-2.9352262 -48.4178381,-2.8640965 -48.084154,-2.7945708 -47.7495322,-2.7266278 -47.4140251,-2.6602462 -47.0776848,-2.5954049 -46.7405635,-2.5320825 -46.4027134,-2.4702578 -46.0641865,-2.4099097 -45.7250351,-2.3510168 -45.3853114,-2.293558 -45.0450675,-2.237512 -44.7043556,-2.1828576 -44.3632279,-2.1295735 -44.0217365,-2.0776385 -43.6799336,-2.0270313 -43.3378713,-1.9777308 -42.9956019,-1.9297157 -42.6531775,-1.8829648 -42.3106503,-1.8374568 -41.9680725,-1.7931705 -41.6254961,-1.7500847 -41.2829735,-1.7081781 -40.9405567,-1.6674295 -40.5982979,-1.6278176 -40.2562494,-1.5893213 -39.9144632,-1.5519192 -39.5729915,-1.5155903 -39.2318865,-1.4803131 -38.8912004,-1.4460665 -38.5509854,-1.4128293 -38.2112556,-1.3805768 -38.0409978,-1.3647605 -37.8701161,-1.3491167 -37.698607,-1.3336447 -37.5264667,-1.3183437 -37.3536918,-1.3032129 -37.1802785,-1.2882517 -37.0062233,-1.2734591 -36.8315227,-1.2588345 -36.6561729,-1.2443772 -36.4801703,-1.2300863 -36.3035115,-1.2159612 -36.1261927,-1.202001 -35.9482103,-1.188205 -35.7695608,-1.1745725 -35.5902404,-1.1611026 -35.4102458,-1.1477948 -35.2295731,-1.1346481 -35.0482188,-1.1216619 -34.8661794,-1.1088353 -34.6834511,-1.0961677 -34.5000305,-1.0836583 -34.3159138,-1.0713063 -34.1310974,-1.059111 -33.9455779,-1.0470715 -33.7593514,-1.0351873 -33.5724146,-1.0234575 -33.3847637,-1.0118813 -33.1963951,-1.000458 -33.0073052,-0.9891869 -32.8174905,-0.9780672 -32.6269472,-0.9670981 -32.4356719,-0.9562789 -32.2436608,-0.9456089 -32.0509105,-0.9350872 -31.8574172,-0.9247131 -31.6631774,-0.914486 -31.4681875,-0.9044049 -31.2724438,-0.8944692 -31.0759428,-0.8846781 -30.8786808,-0.8750309 -30.6806543,-0.8655268 -30.4818595,-0.8561651 -30.282293,-0.8469449 -30.0819511,-0.8378656 -29.8808303,-0.8289264 -29.6789268,-0.8201265 -29.4762371,-0.8114651 -29.2727576,-0.8029417 -29.0684846,-0.7945553 -28.8634146,-0.7863052 -28.657544,-0.7781906 -28.4508692,-0.7702109 -28.2433865,-0.7623653 -28.0350923,-0.7546529 -27.825983,-0.7470732 -27.6160551,-0.7396252 -27.4053049,-0.7323082 -27.1937288,-0.7251216 -26.9813232,-0.7180644 -26.7680845,-0.7111361 -26.554009,-0.7043358 -26.3390933,-0.6976627 -26.1233336,-0.6911162 -25.9067264,-0.6846955 -25.689268,-0.6783998 -25.4709549,-0.6722283 -25.2517834,-0.6661803 -25.03175,-0.6602551 -24.810851,-0.6544519 -24.5890828,-0.6487699 -24.3664418,-0.6432084 -24.1429244,-0.6377667 -23.918527,-0.6324439 -23.693246,-0.6272394 -23.693246,-0.6272394 -23.6737448,-0.6622314 -23.6547335,-0.6978269 -23.6361856,-0.7339982 -23.6180723,-0.770722 -23.6003627,-0.8079813 -23.5830308,-0.8457493 -23.5493978,-0.9227026 -23.5169685,-1.0013639 -23.4855379,-1.0815157 -23.4549011,-1.1629401 -23.4248531,-1.2454192 -23.395189,-1.3287355 -23.3657038,-1.412671 -23.3064505,-1.5815287 -23.2762725,-1.6660154 -23.2454537,-1.7502502 -23.2137891,-1.8340154 -23.1810738,-1.9170933 -23.1471092,-1.9992516 -23.1117291,-2.0801951 -23.0747273,-2.1597339 -23.0555513,-2.1989231 -23.0358897,-2.2376972 -23.0157156,-2.2760347 -22.9950022,-2.3139144 -22.9737228,-2.3513149 -22.9518506,-2.388215 -22.9293589,-2.4245932 -22.9062208,-2.4604283 -22.8824097,-2.4956989 -22.8578987,-2.5303837 -22.832661,-2.5644613 -22.8066758,-2.5979033 -22.7800389,-2.6305423 -22.7527787,-2.6623175 -22.7248758,-2.6932314 -22.6963108,-2.7232863 -22.6670642,-2.7524847 -22.6371167,-2.7808291 -22.6064489,-2.8083217 -22.5750413,-2.8349651 -22.5428745,-2.8607617 -22.5099291,-2.8857139 -22.4761856,-2.9098241 -22.4416248,-2.9330947 -22.4062271,-2.9555281 -22.3699732,-2.9771268 A1.25,1.25 240 0,1 -21.1199732,-2.9771268 L-21.1199732,-2.9771268 -21.0818046,-2.9544426 -21.0443647,-2.9308711 -21.0076502,-2.9063912 -20.971658,-2.8809819 -20.9363848,-2.8546219 -20.9018273,-2.8272903 -20.8679823,-2.7989658 -20.8348467,-2.7696275 -20.8024188,-2.7392556 -20.7708712,-2.7080096 -20.7403008,-2.676009 -20.7106789,-2.6432589 -20.6819768,-2.6097641 -20.6541657,-2.5755295 -20.6272168,-2.5405602 -20.6011014,-2.5048611 -20.5757907,-2.468437 -20.5512699,-2.4313147 -20.5275947,-2.3936403 -20.5047459,-2.3554597 -20.482689,-2.3167962 -20.4613896,-2.2776733 -20.4408134,-2.2381145 -20.420926,-2.198143 -20.4016929,-2.1577825 -20.3830798,-2.1170562 -20.3650522,-2.0759876 -20.3475758,-2.0346001 -20.3141389,-1.9509623 -20.282494,-1.8663301 -20.2523658,-1.7808909 -20.223484,-1.6948468 -20.1956037,-1.6084841 -20.1684615,-1.5220433 -20.1153215,-1.349844 -20.0887891,-1.2645437 -20.0619251,-1.1800818 -20.0344623,-1.0966874 -20.0061331,-1.0145897 -19.9766704,-0.9340177 -19.9614303,-0.8943755 -19.9458065,-0.8552006 -19.9297656,-0.8165217 -19.9132742,-0.7783674 -19.8962637,-0.7406897 -19.8785635,-0.7032442 -19.8601194,-0.666073 -19.8408901,-0.6292472 -19.8208341,-0.592838 -19.79991,-0.5569166 -19.79991,-0.5569166 -19.5262645,-0.5532236 -19.251398,-0.549661 -18.9753053,-0.546228 -18.6979812,-0.5429236 -18.4194204,-0.5397471 -18.1396176,-0.5366976 -17.8585676,-0.5337741 -17.5762653,-0.5309759 -17.2927052,-0.5283021 -17.0078822,-0.5257517 -16.7217911,-0.5233241 -16.4344265,-0.5210181 -16.1457833,-0.5188331 -15.8558562,-0.5167682 -15.5646399,-0.5148224 -15.2721293,-0.512995 -14.978319,-0.511285 -14.6832038,-0.5096916 -14.3867784,-0.5082139 -14.0890377,-0.5068511 -13.7899764,-0.5056023 -13.4895891,-0.5044666 -13.1878708,-0.5034432 -12.8848161,-0.5025311 -12.5804198,-0.5017296 -12.2746766,-0.5010378 -11.9675814,-0.5004548 -11.6591287,-0.4999797 -11.3493135,-0.4996117 -11.0381305,-0.49935 -10.7255743,-0.4991935 -10.4116398,-0.4991416 -10.4116398,-0.4991416 -10.1198298,-0.4992026 -9.829213,-0.499387 -9.5397835,-0.4996965 -9.2515353,-0.5001327 -8.9644623,-0.5006975 -8.6785586,-0.5013924 -8.3938181,-0.5022194 -8.1102348,-0.5031801 -7.8278027,-0.5042762 -7.5465158,-0.5055095 -7.2663682,-0.5068817 -6.9873537,-0.5083945 -6.7094664,-0.5100497 -6.4327002,-0.5118489 -6.1570493,-0.5137941 -5.8825075,-0.5158867 -5.6090688,-0.5181287 -5.3367272,-0.5205217 -5.0654768,-0.5230674 -4.7953115,-0.5257677 -4.5262254,-0.5286241 -4.2582123,-0.5316385 -3.9912663,-0.5348126 -3.7253814,-0.5381481 -3.4605515,-0.5416468 -3.1967707,-0.5453103 -2.934033,-0.5491405 -2.6723323,-0.553139 -2.4116627,-0.5573075 -2.1520181,-0.5616479 -1.8933925,-0.5661618 -1.6357799,-0.570851 -1.3791743,-0.5757171 -1.1235697,-0.5807621 -0.8689601,-0.5859874 -0.6153394,-0.591395 -0.3627018,-0.5969865 -0.111041,-0.6027636 0.1396487,-0.6087282 0.3893736,-0.6148819 0.6381395,-0.6212264 0.8859524,-0.6277635 1.1328185,-0.6344949 1.3787437,-0.6414224 1.623734,-0.6485476 1.8677953,-0.6558724 2.1109339,-0.6633984 2.3531555,-0.6711274 2.5944663,-0.6790611 2.8348722,-0.6872013 3.0743793,-0.6955496 3.3129936,-0.7041078 3.5507211,-0.7128776 3.7875677,-0.7218608 4.0235395,-0.7310592 4.2586426,-0.7404743 4.4928828,-0.750108 4.7262663,-0.759962 4.958799,-0.770038 5.1904869,-0.7803378 5.4213361,-0.7908631 5.6513526,-0.8016156 5.8805423,-0.812597 6.1089113,-0.8238092 6.3364656,-0.8352537 6.5632111,-0.8469324 6.789154,-0.858847 7.0143002,-0.8709992 7.2386557,-0.8833907 7.4622265,-0.8960233 7.6850187,-0.9088987 7.9070382,-0.9220186 8.1282911,-0.9353848 8.3487834,-0.948999 8.568521,-0.962863 8.78751,-0.9769784 9.0057564,-0.991347 9.2232662,-1.0059705 9.4400454,-1.0208507 9.6561,-1.0359893 9.8714361,-1.051388 10.0860596,-1.0670486 10.2999765,-1.0829728 10.5131929,-1.0991622 10.7257148,-1.1156187 10.9375481,-1.132344 11.1486989,-1.1493399 11.3591732,-1.1666079 11.568977,-1.18415 11.7781163,-1.2019677 11.9865972,-1.2200629 12.1944255,-1.2384372 12.4016074,-1.2570925 12.6081488,-1.2760304 12.8140558,-1.2952527 13.0193344,-1.314761 13.4282467,-1.3546646 13.8371639,-1.3959872 14.2466256,-1.4388197 14.656559,-1.4831934 15.0668912,-1.5291401 15.4775494,-1.5766911 15.8884607,-1.6258781 16.2995523,-1.6767324 16.7107514,-1.7292858 17.121985,-1.7835696 17.5331803,-1.8396154 17.9442646,-1.8974547 18.3551648,-1.9571191 18.7658083,-2.0186401 19.176122,-2.0820491 19.5860333,-2.1473778 19.5860333,-2.1473778 19.6175808,-2.2118183 19.650465,-2.2751172 19.6848052,-2.3371795 19.7207207,-2.3979103 19.758331,-2.4572146 19.7778089,-2.486302 19.7977553,-2.5149973 19.8181851,-2.5432883 19.8391131,-2.5711634 19.8605475,-2.5986021 19.8824164,-2.6254888 19.9047046,-2.6517912 19.9274229,-2.6775107 19.9505823,-2.7026486 19.9741934,-2.7272062 19.9982671,-2.7511849 20.0228141,-2.774586 20.0478453,-2.7974109 20.0733714,-2.8196609 20.0994032,-2.8413374 20.1259516,-2.8624417 20.1530273,-2.8829752 20.1806411,-2.9029391 20.2088039,-2.9223349 20.2375263,-2.9411639 20.2668193,-2.9594274 20.2966935,-2.9771268 A1.25,1.25 240 0,1 21.5466935,-2.9771268 L21.5466935,-2.9771268 21.5801025,-2.9573435 21.6129173,-2.9369076 21.6451425,-2.915807 21.6767828,-2.8940294 21.7078428,-2.8715628 21.7383272,-2.848395 21.7682407,-2.8245136 21.7975878,-2.7999067 21.8263732,-2.7745619 21.8546016,-2.7484672 21.8822777,-2.7216103 21.909406,-2.6939791 21.9359787,-2.6655751 21.9618292,-2.6365865 21.9869204,-2.6070844 22.0112741,-2.5770784 22.0112741,-2.5770784 22.2533871,-2.6242909 22.4951621,-2.6722656 22.7365832,-2.7210103 22.9776347,-2.7705327 23.2183009,-2.8208408 23.4585659,-2.8719424 23.6984141,-2.9238454 23.9378296,-2.9765575 24.1767968,-3.0300866 24.4152998,-3.0844407 24.6533229,-3.1396275 24.8908503,-3.1956548 25.1278663,-3.2525306 25.3643551,-3.3102626 25.6003009,-3.3688587 25.8356881,-3.4283268 26.0705008,-3.4886748 26.3047361,-3.5499137 26.5395399,-3.6123676 26.7755844,-3.6762531 27.0127581,-3.7415814 27.2509496,-3.8083639 27.4900474,-3.8766118 27.7299402,-3.9463365 27.9705164,-4.0175492 28.2116647,-4.0902613 28.4532735,-4.164484 28.6952316,-4.2402287 28.9374274,-4.3175067 29.1797494,-4.3963292 29.4220864,-4.4767077 29.6643268,-4.5586532 29.9063592,-4.6421773 30.1480721,-4.7272912 30.3893542,-4.8140061 30.630094,-4.9023334 30.8701801,-4.9922844 31.109501,-5.0838704 31.3479452,-5.1771026 31.5854015,-5.2719925 31.8217582,-5.3685513 32.0569041,-5.4667902 32.2907276,-5.5667207 32.5231173,-5.6683539 32.7539619,-5.7717013 32.8687698,-5.8240213 32.9831497,-5.8767741 33.0970876,-5.929961 33.2105695,-5.9835835 33.3235816,-6.0376431 33.4361098,-6.092141 33.5481403,-6.1470788 33.6596591,-6.2024578 33.7706524,-6.2582795 33.8811061,-6.3145452 33.9910063,-6.3712565 34.1003392,-6.4284146 34.2090908,-6.486021 34.3172471,-6.5440771 34.4247942,-6.6025844 34.5317183,-6.6615442 34.6380053,-6.720958 34.7436413,-6.7808271 34.8485237,-6.8411006 34.952029,-6.901413 35.0540507,-6.9616922 35.1546026,-7.0219363 35.2536987,-7.0821434 35.351353,-7.1423117 35.4475795,-7.2024394 35.5423919,-7.2625244 35.6358044,-7.3225651 35.7278309,-7.3825594 35.8184853,-7.4425056 35.9077816,-7.5024018 35.9957336,-7.562246 36.0823555,-7.6220365 36.167661,-7.6817714 36.2516642,-7.7414488 36.334379,-7.8010668 36.4158194,-7.8606235 36.4959993,-7.9201171 36.5749327,-7.9795458 36.6526334,-8.0389076 36.7291156,-8.0982007 36.804393,-8.1574233 36.8784797,-8.2165733 36.9513896,-8.2756491 37.0231366,-8.3346487 37.0937348,-8.3935702 37.163198,-8.4524118 37.2315402,-8.5111716 37.2987754,-8.5698478 37.3649175,-8.6284384 37.4299804,-8.6869417 37.4939781,-8.7453556 37.5569246,-8.8036785 37.6188338,-8.8619083 37.6797196,-8.9200433 37.739596,-8.9780816 37.798477,-9.0360212 37.8563765,-9.0938604 37.9133084,-9.1515972 37.9692867,-9.2092298 38.0243254,-9.2667564 38.0784384,-9.324175 38.1316401,-9.3814843 38.1841306,-9.4388962 38.2360659,-9.4965865 38.2874463,-9.5545585 38.3382722,-9.6128157 38.3885439,-9.6713614 38.4382616,-9.730199 38.4874258,-9.7893317 38.5360368,-9.848763 38.5840948,-9.9084963 38.6316002,-9.9685348 38.6785533,-10.0288821 38.7249544,-10.0895413 38.7708039,-10.1505159 38.816102,-10.2118093 38.8608492,-10.2734247 38.9050456,-10.3353657 38.9486918,-10.3976354 38.9917878,-10.4602373 39.0343342,-10.5231748 39.0763311,-10.5864512 39.117779,-10.6500699 39.1586781,-10.7140342 39.1990288,-10.7783475 39.2388314,-10.8430131 39.2780862,-10.9080344 39.3167935,-10.9734149 39.3549537,-11.0391577 39.392567,-11.1052664 39.4296339,-11.1717442 39.4661546,-11.2385946 39.5021294,-11.3058208 39.5375587,-11.3734263 39.5724427,-11.4414144 39.6067819,-11.5097884 39.6405765,-11.5785518 39.6738269,-11.6477079 39.7065333,-11.71726 39.7386961,-11.7872115 39.7703157,-11.8575658 39.8013922,-11.9283262 39.8319262,-11.9994961 39.8619178,-12.0710789 39.8913674,-12.1430779 39.9202753,-12.2154965 39.9486402,-12.2883322 39.9764511,-12.3615492 40.0037084,-12.435144 40.0304148,-12.509121 40.056573,-12.5834844 40.0821857,-12.6582386 40.1072558,-12.733388 40.1317858,-12.8089367 40.1557785,-12.8848891 40.1792366,-12.9612495 40.2021629,-13.0380222 40.22456,-13.1152115 40.2464308,-13.1928217 40.2677778,-13.2708572 40.2886039,-13.3493221 40.3089117,-13.4282209 40.328704,-13.5075579 40.3479835,-13.5873372 40.3667529,-13.6675633 40.3850149,-13.7482404 40.4027723,-13.8293729 40.4200278,-13.910965 40.436784,-13.9930211 40.4530438,-14.0755455 40.4688098,-14.1585424 40.4840848,-14.2420162 40.4988714,-14.3259711 40.5131724,-14.4104116 40.5269906,-14.4953418 40.5403286,-14.5807661 40.5531892,-14.6666888 40.565575,-14.7531142 40.5774889,-14.8400466 40.5889334,-14.9274902 40.5999114,-15.0154495 40.6104256,-15.1039288 40.6204787,-15.1929322 40.6300734,-15.2824641 40.6392124,-15.3725289 40.6478984,-15.4631308 40.6561342,-15.5542742 40.6639225,-15.6459632 40.6712661,-15.7382024 40.6781675,-15.8309958 40.6846296,-15.924348 40.6906551,-16.018263 40.6962466,-16.1127454 40.701407,-16.2077993 40.7061389,-16.3034291 40.7104451,-16.399639 40.7143282,-16.4964335 40.7177911,-16.5938167 40.7208363,-16.691793 40.7234667,-16.7903667 40.725685,-16.889542 40.7274938,-16.9893234 40.728896,-17.0897151 40.7298941,-17.1907214 40.730491,-17.2923466 40.7306894,-17.3945951 40.7306894,-17.3945951 40.7299779,-17.5883077 40.7278233,-17.7801254 40.7241955,-17.9700715 40.7190644,-18.1581696 40.7123999,-18.3444431 40.7041719,-18.5289154 40.6943503,-18.71161 40.6829049,-18.8925503 40.6698056,-19.0717597 40.6626264,-19.1607227 40.6550224,-19.2492617 40.6469898,-19.3373798 40.638525,-19.4250798 40.6296242,-19.5123646 40.6202835,-19.5992373 40.6104993,-19.6857006 40.6002677,-19.7717577 40.5895851,-19.8574113 40.5784475,-19.9426645 40.5668513,-20.0275201 40.5547928,-20.111981 40.542268,-20.1960503 40.5292734,-20.2797309 40.515805,-20.3630256 40.5018592,-20.4459374 40.4874322,-20.5284692 40.4725203,-20.610624 40.4571195,-20.6924047 40.4412263,-20.7738142 40.4248368,-20.8548554 40.4079434,-20.9355475 40.3725454,-21.0962204 40.3540229,-21.1762198 40.3349424,-21.2559946 40.3152972,-21.3355447 40.2950804,-21.4148702 40.2742852,-21.4939709 40.2529049,-21.5728469 40.2309328,-21.6514982 40.208362,-21.7299247 40.1851858,-21.8081265 40.1613973,-21.8861035 40.1369899,-21.9638558 40.1119568,-22.0413833 40.0862911,-22.1186859 40.0599861,-22.1957638 40.033035,-22.2726168 40.0054311,-22.349245 39.9771676,-22.4256484 39.9482376,-22.5018269 39.9186345,-22.5777805 39.8883514,-22.6535092 39.8573817,-22.7290131 39.8257184,-22.804292 39.7933548,-22.879346 39.7602842,-22.9541751 39.7264998,-23.0287792 39.6919948,-23.1031584 39.6567624,-23.1773126 39.6207958,-23.2512418 39.5840884,-23.324946 39.5466332,-23.3984252 39.5084154,-23.4717008 39.4694191,-23.5447928 39.4296355,-23.6177026 39.3890557,-23.6904312 39.3476706,-23.7629798 39.3054716,-23.8353496 39.2624495,-23.9075416 39.2185955,-23.9795572 39.1739008,-24.0513973 39.1283563,-24.1230632 39.0819532,-24.194556 39.0346826,-24.2658769 38.9865355,-24.3370269 38.9375031,-24.4080074 38.8875764,-24.4788193 38.8367465,-24.5494639 38.7850046,-24.6199423 38.7323416,-24.6902557 38.6787488,-24.7604052 38.6242171,-24.8303919 38.5687377,-24.9002171 38.5123017,-24.9698818 38.4549001,-25.0393873 38.396524,-25.1087346 38.3371646,-25.1779249 38.2768129,-25.2469594 38.21546,-25.3158392 38.153097,-25.3845655 38.089715,-25.4531394 38.0253051,-25.521562 37.9598583,-25.5898346 37.8933658,-25.6579583 37.8258187,-25.7259342 37.757208,-25.7937634 37.6875248,-25.8614472 37.6167602,-25.9289866 37.5449053,-25.9963829 37.4719513,-26.0636372 37.3978891,-26.1307505 37.3227099,-26.1977242 37.2464047,-26.2645593 37.1689647,-26.3312569 37.090501,-26.3977122 37.0112934,-26.4636818 36.9313664,-26.5291575 36.8507338,-26.594141 36.7694093,-26.658634 36.6874064,-26.7226382 36.604739,-26.786155 36.5214207,-26.8491863 36.4374653,-26.9117337 36.3528863,-26.9737987 36.2676975,-27.0353832 36.1819125,-27.0964886 36.0955452,-27.1571168 36.0086091,-27.2172693 35.9211179,-27.2769477 35.8330854,-27.3361538 35.7445252,-27.3948892 35.655451,-27.4531555 35.5658766,-27.5109544 35.4758155,-27.5682876 35.3852816,-27.6251566 35.2942884,-27.6815632 35.2028497,-27.737509 35.1109792,-27.7929957 35.0186905,-27.8480248 34.9259974,-27.9025981 34.7394525,-28.0103838 34.5514541,-28.116366 34.3621118,-28.2205578 34.1715349,-28.3229726 33.9798332,-28.4236234 33.787116,-28.5225236 33.5934929,-28.6196863 33.3990735,-28.7151248 33.2039672,-28.8088523 33.0082836,-28.900882 32.8121322,-28.9912272 32.6156226,-29.079901 32.4188642,-29.1669166 32.2219667,-29.2522873 32.0250394,-29.3360264 31.828192,-29.4181469 31.631534,-29.4986622 31.4351749,-29.5775855 31.2392242,-29.6549299 31.0437914,-29.7307087 30.8489862,-29.8049352 30.6549179,-29.8776225 30.4616962,-29.9487838 30.2694305,-30.0184324 30.0782304,-30.0865815 29.8882054,-30.1532443 29.7934052,-30.1861126 29.6978219,-30.2189931 29.6013888,-30.2519053 29.5041029,-30.2848465 29.4059616,-30.3178142 29.306962,-30.3508056 29.2071013,-30.3838182 29.1063768,-30.4168492 29.0047857,-30.449896 28.9023252,-30.4829559 28.7989925,-30.5160263 28.6947848,-30.5491045 28.5896994,-30.5821878 28.4837334,-30.6152737 28.3768841,-30.6483594 28.2691487,-30.6814423 28.1605244,-30.7145198 28.0510084,-30.7475891 27.9405979,-30.7806477 27.8292903,-30.8136928 27.7170825,-30.8467219 27.603972,-30.8797321 27.4899559,-30.912721 27.3750314,-30.9456859 27.2591958,-30.978624 27.1424462,-31.0115327 27.0247798,-31.0444094 26.906194,-31.0772515 26.7866858,-31.1100561 26.6662526,-31.1428208 26.5448915,-31.1755429 26.4225998,-31.2082196 26.2993746,-31.2408484 26.1752132,-31.2734265 26.0501129,-31.3059513 25.9240707,-31.3384203 25.7970839,-31.3708306 25.6691499,-31.4031797 25.5402656,-31.4354648 25.4104285,-31.4676834 25.2796356,-31.4998328 25.1478843,-31.5319103 25.0151717,-31.5639133 24.881495,-31.5958391 24.7468515,-31.627685 24.6112384,-31.6594484 24.4746529,-31.6911267 24.3370921,-31.7227172 24.1985535,-31.7542172 24.059034,-31.785624 23.918531,-31.8169351 23.7770417,-31.8481477 23.6345633,-31.8792593 23.4910929,-31.9102671 23.3466279,-31.9411684 23.2011655,-31.9719607 23.0547028,-32.0026413 22.907237,-32.0332075 22.7587655,-32.0636567 22.6092854,-32.0939862 22.4587938,-32.1241933 22.3072882,-32.1542754 22.1547655,-32.1842299 22.0012232,-32.214054z"
       transform="matrix(1,0,0,-1,64.4116398,0.6054049)"
       fill="rgb(255,255,255)"
       stroke="rgb(0,0,0)"
       stroke-width="0.0010cm"
       stroke-linecap="round"
       stroke-linejoin="round"
       id="path4"
       style="fill:none;stroke:#000000;stroke-opacity:1;stroke-width:0.1;stroke-dasharray:none" /><path
       d="M44.6133602,-26.6945951 a0.475,0.475 0 1,1 0.95,0 a0.475,0.475 0 1,1 -0.95,0z"
       transform="matrix(1,0,0,-1,64.4116398,0.6054049)"
       fill="rgb(255,255,255)"
       stroke="rgb(0,0,0)"
       stroke-width="0.0010cm"
       stroke-linecap="round"
       stroke-linejoin="round"
       id="path6"
       style="fill:none;stroke:#000000;stroke-opacity:1;stroke-width:0.1;stroke-dasharray:none" /><path
       d="M60.6133602,-7.4732747 a0.475,0.475 0 1,1 0.95,0 a0.475,0.475 0 1,1 -0.95,0z"
       transform="matrix(1,0,0,-1,64.4116398,0.6054049)"
       fill="rgb(255,255,255)"
       stroke="rgb(0,0,0)"
       stroke-width="0.0010cm"
       stroke-linecap="round"
       stroke-linejoin="round"
       id="path8"
       style="fill:none;stroke:#000000;stroke-opacity:1;stroke-width:0.1;stroke-dasharray:none" /><path
       d="M44.6133602,-8.0945951 a0.475,0.475 0 1,1 0.95,0 a0.475,0.475 0 1,1 -0.95,0z"
       transform="matrix(1,0,0,-1,64.4116398,0.6054049)"
       fill="rgb(255,255,255)"
       stroke="rgb(0,0,0)"
       stroke-width="0.0010cm"
       stroke-linecap="round"
       stroke-linejoin="round"
       id="path10"
       style="fill:none;stroke:#000000;stroke-opacity:1;stroke-width:0.1;stroke-dasharray:none" /><path
       d="M52.6133602,-27.3159154 a0.475,0.475 0 1,1 0.95,0 a0.475,0.475 0 1,1 -0.95,0z"
       transform="matrix(1,0,0,-1,64.4116398,0.6054049)"
       fill="rgb(255,255,255)"
       stroke="rgb(0,0,0)"
       stroke-width="0.0010cm"
       stroke-linecap="round"
       stroke-linejoin="round"
       id="path12"
       style="fill:none;stroke:#000000;stroke-opacity:1;stroke-width:0.1;stroke-dasharray:none" /><path
       d="M52.6133602,-7.4732747 a0.475,0.475 0 1,1 0.95,0 a0.475,0.475 0 1,1 -0.95,0z"
       transform="matrix(1,0,0,-1,64.4116398,0.6054049)"
       fill="rgb(255,255,255)"
       stroke="rgb(0,0,0)"
       stroke-width="0.0010cm"
       stroke-linecap="round"
       stroke-linejoin="round"
       id="path14"
       style="fill:none;stroke:#000000;stroke-opacity:1;stroke-width:0.1;stroke-dasharray:none" /><path
       d="M60.6133602,-27.3159154 a0.475,0.475 0 1,1 0.95,0 a0.475,0.475 0 1,1 -0.95,0z"
       transform="matrix(1,0,0,-1,64.4116398,0.6054049)"
       fill="rgb(255,255,255)"
       stroke="rgb(0,0,0)"
       stroke-width="0.0010cm"
       stroke-linecap="round"
       stroke-linejoin="round"
       id="path16"
       style="fill:none;stroke:#000000;stroke-opacity:1;stroke-width:0.1;stroke-dasharray:none" /><path
       d="M43.9920398,-21.3945951 a0.475,0.475 0 1,1 0.95,0 a0.475,0.475 0 1,1 -0.95,0z"
       transform="matrix(1,0,0,-1,64.4116398,0.6054049)"
       fill="rgb(255,255,255)"
       stroke="rgb(0,0,0)"
       stroke-width="0.0010cm"
       stroke-linecap="round"
       stroke-linejoin="round"
       id="path18"
       style="fill:none;stroke:#000000;stroke-opacity:1;stroke-width:0.1;stroke-dasharray:none" /><path
       d="M43.9920398,-13.3945951 a0.475,0.475 0 1,1 0.95,0 a0.475,0.475 0 1,1 -0.95,0z"
       transform="matrix(1,0,0,-1,64.4116398,0.6054049)"
       fill="rgb(255,255,255)"
       stroke="rgb(0,0,0)"
       stroke-width="0.0010cm"
       stroke-linecap="round"
       stroke-linejoin="round"
       id="path20"
       style="fill:none;stroke:#000000;stroke-opacity:1;stroke-width:0.1;stroke-dasharray:none" /><path
       d="M60.6933602,-1.8945951 a0.395,0.395 0 1,1 0.79,0 a0.395,0.395 0 1,1 -0.79,0z"
       transform="matrix(1,0,0,-1,64.4116398,0.6054049)"
       fill="rgb(255,255,255)"
       stroke="rgb(0,0,0)"
       stroke-width="0.0010cm"
       stroke-linecap="round"
       stroke-linejoin="round"
       id="path22"
       style="fill:none;stroke:#000000;stroke-opacity:1;stroke-width:0.1;stroke-dasharray:none" /><path
       d="M-22.1399732,-1.8945951 a0.395,0.395 0 1,1 0.79,0 a0.395,0.395 0 1,1 -0.79,0z"
       transform="matrix(1,0,0,-1,64.4116398,0.6054049)"
       fill="rgb(255,255,255)"
       stroke="rgb(0,0,0)"
       stroke-width="0.0010cm"
       stroke-linecap="round"
       stroke-linejoin="round"
       id="path24"
       style="fill:none;stroke:#000000;stroke-opacity:1;stroke-width:0.1;stroke-dasharray:none" /><path
       d="M-62.3066398,-1.8945951 a0.395,0.395 0 1,1 0.79,0 a0.395,0.395 0 1,1 -0.79,0z"
       transform="matrix(1,0,0,-1,64.4116398,0.6054049)"
       fill="rgb(255,255,255)"
       stroke="rgb(0,0,0)"
       stroke-width="0.0010cm"
       stroke-linecap="round"
       stroke-linejoin="round"
       id="path26"
       style="fill:none;stroke:#000000;stroke-opacity:1;stroke-width:0.1;stroke-dasharray:none" /><path
       d="M60.6933602,-32.8945951 a0.395,0.395 0 1,1 0.79,0 a0.395,0.395 0 1,1 -0.79,0z"
       transform="matrix(1,0,0,-1,64.4116398,0.6054049)"
       fill="rgb(255,255,255)"
       stroke="rgb(0,0,0)"
       stroke-width="0.0010cm"
       stroke-linecap="round"
       stroke-linejoin="round"
       id="path28"
       style="fill:none;stroke:#000000;stroke-opacity:1;stroke-width:0.1;stroke-dasharray:none" /><path
       d="M20.5266935,-1.8945951 a0.395,0.395 0 1,1 0.79,0 a0.395,0.395 0 1,1 -0.79,0z"
       transform="matrix(1,0,0,-1,64.4116398,0.6054049)"
       fill="rgb(255,255,255)"
       stroke="rgb(0,0,0)"
       stroke-width="0.0010cm"
       stroke-linecap="round"
       stroke-linejoin="round"
       id="path30"
       style="fill:none;stroke:#000000;stroke-opacity:1;stroke-width:0.1;stroke-dasharray:none" /><path
       d="M20.5266935,-32.8945951 a0.395,0.395 0 1,1 0.79,0 a0.395,0.395 0 1,1 -0.79,0z"
       transform="matrix(1,0,0,-1,64.4116398,0.6054049)"
       fill="rgb(255,255,255)"
       stroke="rgb(0,0,0)"
       stroke-width="0.0010cm"
       stroke-linecap="round"
       stroke-linejoin="round"
       id="path32"
       style="fill:none;stroke:#000000;stroke-opacity:1;stroke-width:0.1;stroke-dasharray:none" /><path
       d="M-22.1399732,-32.8945951 a0.395,0.395 0 1,1 0.79,0 a0.395,0.395 0 1,1 -0.79,0z"
       transform="matrix(1,0,0,-1,64.4116398,0.6054049)"
       fill="rgb(255,255,255)"
       stroke="rgb(0,0,0)"
       stroke-width="0.0010cm"
       stroke-linecap="round"
       stroke-linejoin="round"
       id="path34"
       style="fill:none;stroke:#000000;stroke-opacity:1;stroke-width:0.1;stroke-dasharray:none" /><path
       d="M-62.3066398,-32.8945951 a0.395,0.395 0 1,1 0.79,0 a0.395,0.395 0 1,1 -0.79,0z"
       transform="matrix(1,0,0,-1,64.4116398,0.6054049)"
       fill="rgb(255,255,255)"
       stroke="rgb(0,0,0)"
       stroke-width="0.0010cm"
       stroke-linecap="round"
       stroke-linejoin="round"
       id="path36"
       style="fill:none;stroke:#000000;stroke-opacity:1;stroke-width:0.1;stroke-dasharray:none" /></g></svg>
