<?xml version="1.0" encoding="UTF-8" standalone="no"?>
<!-- Generator: Fusion 360, Shaper Origin Export Add-In, Version 1.8.0  -->

<svg
   shaper:fusionaddin="version:1.8.0"
   width="128cm"
   height="36cm"
   version="1.1"
   x="0cm"
   y="0cm"
   viewBox="0 0 128 36"
   enable-background="new 0 0 128 36"
   xml:space="preserve"
   id="svg22"
   sodipodi:docname="corpus_5_Faces.svg"
   inkscape:version="1.2.2 (732a01da63, 2022-12-09)"
   xmlns:inkscape="http://www.inkscape.org/namespaces/inkscape"
   xmlns:sodipodi="http://sodipodi.sourceforge.net/DTD/sodipodi-0.dtd"
   xmlns="http://www.w3.org/2000/svg"
   xmlns:svg="http://www.w3.org/2000/svg"
   xmlns:shaper="http://www.shapertools.com/namespaces/shaper"><defs
     id="defs26" /><sodipodi:namedview
     id="namedview24"
     pagecolor="#505050"
     bordercolor="#eeeeee"
     borderopacity="1"
     inkscape:showpageshadow="0"
     inkscape:pageopacity="0"
     inkscape:pagecheckerboard="0"
     inkscape:deskcolor="#505050"
     inkscape:document-units="cm"
     showgrid="false"
     inkscape:zoom="0.27078451"
     inkscape:cx="2306.2619"
     inkscape:cy="681.35361"
     inkscape:window-width="1920"
     inkscape:window-height="991"
     inkscape:window-x="-9"
     inkscape:window-y="-9"
     inkscape:window-maximized="1"
     inkscape:current-layer="svg22" /><g
     id="g161"
     style="fill:none;fill-opacity:1;stroke:#000000;stroke-opacity:1;stroke-width:0.1;stroke-dasharray:none"><path
       d="M-62.6486784,0.4533531 A1.4,1.4 90 0,1 -64.0486784,-0.9466469 L-64.0486784,-34.1466469 A1.4,1.4 180 0,1 -62.6486784,-35.5466469 L62.5513216,-35.5466469 A1.4,1.4 270 0,1 63.9513216,-34.1466469 L63.9513216,-0.9466469 A1.4,1.4 0 0,1 62.5513216,0.4533531 L-62.6486784,0.4533531z"
       transform="matrix(1,0,0,-1,64.0486784,0.4533531)"
       fill="rgb(0,0,0)"
       stroke-linecap="round"
       stroke-linejoin="round"
       id="path2"
       style="fill:none;fill-opacity:1;stroke:#000000;stroke-opacity:1;stroke-width:0.1;stroke-dasharray:none" /><path
       d="M61.0563216,-2.0466469 a0.395,0.395 0 1,1 0.79,0 a0.395,0.395 0 1,1 -0.79,0z"
       transform="matrix(1,0,0,-1,64.0486784,0.4533531)"
       fill="rgb(255,255,255)"
       stroke="rgb(0,0,0)"
       stroke-width="0.0010cm"
       stroke-linecap="round"
       stroke-linejoin="round"
       id="path4"
       style="fill:none;fill-opacity:1;stroke:#000000;stroke-opacity:1;stroke-width:0.1;stroke-dasharray:none" /><path
       d="M-21.7770117,-2.0466469 a0.395,0.395 0 1,1 0.79,0 a0.395,0.395 0 1,1 -0.79,0z"
       transform="matrix(1,0,0,-1,64.0486784,0.4533531)"
       fill="rgb(255,255,255)"
       stroke="rgb(0,0,0)"
       stroke-width="0.0010cm"
       stroke-linecap="round"
       stroke-linejoin="round"
       id="path6"
       style="fill:none;fill-opacity:1;stroke:#000000;stroke-opacity:1;stroke-width:0.1;stroke-dasharray:none" /><path
       d="M-61.9436784,-2.0466469 a0.395,0.395 0 1,1 0.79,0 a0.395,0.395 0 1,1 -0.79,0z"
       transform="matrix(1,0,0,-1,64.0486784,0.4533531)"
       fill="rgb(255,255,255)"
       stroke="rgb(0,0,0)"
       stroke-width="0.0010cm"
       stroke-linecap="round"
       stroke-linejoin="round"
       id="path8"
       style="fill:none;fill-opacity:1;stroke:#000000;stroke-opacity:1;stroke-width:0.1;stroke-dasharray:none" /><path
       d="M61.0563216,-33.0466469 a0.395,0.395 0 1,1 0.79,0 a0.395,0.395 0 1,1 -0.79,0z"
       transform="matrix(1,0,0,-1,64.0486784,0.4533531)"
       fill="rgb(255,255,255)"
       stroke="rgb(0,0,0)"
       stroke-width="0.0010cm"
       stroke-linecap="round"
       stroke-linejoin="round"
       id="path10"
       style="fill:none;fill-opacity:1;stroke:#000000;stroke-opacity:1;stroke-width:0.1;stroke-dasharray:none" /><path
       d="M20.8896549,-2.0466469 a0.395,0.395 0 1,1 0.79,0 a0.395,0.395 0 1,1 -0.79,0z"
       transform="matrix(1,0,0,-1,64.0486784,0.4533531)"
       fill="rgb(255,255,255)"
       stroke="rgb(0,0,0)"
       stroke-width="0.0010cm"
       stroke-linecap="round"
       stroke-linejoin="round"
       id="path12"
       style="fill:none;fill-opacity:1;stroke:#000000;stroke-opacity:1;stroke-width:0.1;stroke-dasharray:none" /><path
       d="M20.8896549,-33.0466469 a0.395,0.395 0 1,1 0.79,0 a0.395,0.395 0 1,1 -0.79,0z"
       transform="matrix(1,0,0,-1,64.0486784,0.4533531)"
       fill="rgb(255,255,255)"
       stroke="rgb(0,0,0)"
       stroke-width="0.0010cm"
       stroke-linecap="round"
       stroke-linejoin="round"
       id="path14"
       style="fill:none;fill-opacity:1;stroke:#000000;stroke-opacity:1;stroke-width:0.1;stroke-dasharray:none" /><path
       d="M-21.7770117,-33.0466469 a0.395,0.395 0 1,1 0.79,0 a0.395,0.395 0 1,1 -0.79,0z"
       transform="matrix(1,0,0,-1,64.0486784,0.4533531)"
       fill="rgb(255,255,255)"
       stroke="rgb(0,0,0)"
       stroke-width="0.0010cm"
       stroke-linecap="round"
       stroke-linejoin="round"
       id="path16"
       style="fill:none;fill-opacity:1;stroke:#000000;stroke-opacity:1;stroke-width:0.1;stroke-dasharray:none" /><path
       d="M-61.9436784,-33.0466469 a0.395,0.395 0 1,1 0.79,0 a0.395,0.395 0 1,1 -0.79,0z"
       transform="matrix(1,0,0,-1,64.0486784,0.4533531)"
       fill="rgb(255,255,255)"
       stroke="rgb(0,0,0)"
       stroke-width="0.0010cm"
       stroke-linecap="round"
       stroke-linejoin="round"
       id="path18"
       style="fill:none;fill-opacity:1;stroke:#000000;stroke-opacity:1;stroke-width:0.1;stroke-dasharray:none" /><path
       d="M-46.3158144,-34.203552 L-46.3158144,-34.203552 -46.7267615,-34.1842694 -47.1377067,-34.1639846 -47.1377067,-34.1639846 -47.5271229,-34.1437716 -47.9153451,-34.1225922 -47.9153451,-34.1225922 -48.2323423,-34.1044855 -48.2323423,-34.1044855 -48.4057409,-34.0942557 -48.5774272,-34.0838916 -48.7474125,-34.0733919 -48.9157078,-34.0627552 -49.0823243,-34.0519802 -49.2472733,-34.0410653 -49.4105657,-34.0300094 -49.5722128,-34.0188111 -49.7322257,-34.0074689 -49.8906157,-33.9959816 -50.0473937,-33.9843477 -50.2025711,-33.9725659 -50.3561589,-33.9606348 -50.5081683,-33.9485531 -50.6586104,-33.9363195 -50.8074965,-33.9239324 -50.9548376,-33.9113907 -51.1006449,-33.8986929 -51.2449296,-33.8858376 -51.3877028,-33.8728236 -51.5289757,-33.8596493 -51.6687594,-33.8463136 -51.807065,-33.832815 -51.9439038,-33.8191521 -52.0792869,-33.8053236 -52.2132255,-33.7913281 -52.3457306,-33.7771643 -52.4768135,-33.7628308 -52.6064853,-33.7483263 -52.7347571,-33.7336493 -52.8616401,-33.7187985 -52.9871455,-33.7037726 -53.1112844,-33.6885702 -53.234068,-33.6731899 -53.3555074,-33.6576303 -53.4756137,-33.6418902 -53.5943982,-33.6259681 -53.711872,-33.6098627 -53.8280462,-33.5935726 -53.942932,-33.5770965 -54.0565405,-33.560433 -54.1688829,-33.5435807 -54.2799704,-33.5265382 -54.3898141,-33.5093043 -54.4984251,-33.4918775 -54.6058146,-33.4742565 -54.7119938,-33.4564399 -54.8169738,-33.4384264 -54.9207658,-33.4202146 -55.0233809,-33.4018031 -55.1248303,-33.3831905 -55.225125,-33.3643756 -55.3242764,-33.345357 -55.4222955,-33.3261332 -55.5191935,-33.3067029 -55.6149816,-33.2870648 -55.7096708,-33.2672175 -55.8032724,-33.2471597 -55.8957975,-33.2268899 -55.9872572,-33.2064068 -56.0776627,-33.1857091 -56.1670253,-33.1647953 -56.2553559,-33.1436642 -56.3426658,-33.1223144 -56.4289661,-33.1007444 -56.5142748,-33.0789511 -56.5986657,-33.0569146 -56.6821612,-33.0346284 -56.764768,-33.0120901 -56.8464925,-32.9892976 -56.9273414,-32.9662485 -57.007321,-32.9429405 -57.0864381,-32.9193715 -57.164699,-32.8955391 -57.2421104,-32.871441 -57.3186788,-32.8470751 -57.3944107,-32.822439 -57.4693126,-32.7975304 -57.5433911,-32.7723472 -57.6166528,-32.746887 -57.6891042,-32.7211475 -57.7607517,-32.6951266 -57.831602,-32.6688219 -57.9016616,-32.6422311 -57.970937,-32.6153521 -58.0394348,-32.5881825 -58.1071615,-32.56072 -58.1741235,-32.5329624 -58.2403276,-32.5049075 -58.3057802,-32.4765529 -58.3704878,-32.4478965 -58.434457,-32.4189358 -58.4976943,-32.3896688 -58.5602063,-32.360093 -58.6219995,-32.3302062 -58.6830804,-32.3000062 -58.7434556,-32.2694907 -58.8031316,-32.2386575 -58.8621149,-32.2075041 -58.9204122,-32.1760285 -58.9780298,-32.1442283 -59.0349744,-32.1121013 -59.0912525,-32.0796452 -59.1468707,-32.0468576 -59.2018737,-32.0137127 -59.2563894,-31.9801291 -59.3104278,-31.9460949 -59.3639893,-31.911604 -59.4170744,-31.8766502 -59.4696836,-31.8412275 -59.5218172,-31.8053296 -59.5734758,-31.7689505 -59.6246598,-31.732084 -59.6753697,-31.694724 -59.7256058,-31.6568643 -59.7753687,-31.6184988 -59.8246589,-31.5796214 -59.8734767,-31.5402259 -59.9218226,-31.5003062 -59.969697,-31.4598561 -60.0171005,-31.4188696 -60.0640335,-31.3773404 -60.1104964,-31.3352625 -60.1564897,-31.2926297 -60.2020138,-31.2494359 -60.2470692,-31.205675 -60.2916563,-31.1613407 -60.3357756,-31.116427 -60.3794276,-31.0709277 -60.4226126,-31.0248368 -60.4653312,-30.978148 -60.5075838,-30.9308552 -60.5493708,-30.8829523 -60.5906928,-30.8344331 -60.6315501,-30.7852916 -60.6719432,-30.7355216 -60.7118723,-30.6851172 -60.7513263,-30.6340909 -60.7903001,-30.5824479 -60.8287967,-30.5301817 -60.8668189,-30.4772859 -60.9043697,-30.423754 -60.9414519,-30.3695795 -60.9780683,-30.3147561 -61.014222,-30.2592772 -61.0499158,-30.2031365 -61.0851525,-30.1463275 -61.1199351,-30.0888437 -61.1542664,-30.0306787 -61.1881494,-29.9718261 -61.2215869,-29.9122794 -61.2545818,-29.8520321 -61.287137,-29.7910779 -61.3192555,-29.7294102 -61.35094,-29.6670227 -61.3821934,-29.6039089 -61.4130188,-29.5400623 -61.4434188,-29.4754765 -61.4733966,-29.4101451 -61.5029548,-29.3440616 -61.5320965,-29.2772195 -61.5608244,-29.2096125 -61.5891416,-29.141234 -61.6170508,-29.0720777 -61.644555,-29.002137 -61.6716571,-28.9314056 -61.6983599,-28.859877 -61.7246663,-28.7875448 -61.7505793,-28.7144024 -61.7761017,-28.6404436 -61.8012364,-28.5656617 -61.8259863,-28.4900504 -61.8503542,-28.4136033 -61.8743431,-28.3363138 -61.8979559,-28.2581756 -61.9211954,-28.1791821 -61.9440705,-28.0993061 -61.9666131,-28.0184312 -61.9888286,-27.9365298 -62.0107182,-27.8535892 -62.0322827,-27.7695967 -62.0535232,-27.6845398 -62.0744408,-27.5984058 -62.0950366,-27.511182 -62.1153114,-27.4228557 -62.1352663,-27.3334143 -62.1549025,-27.2428452 -62.1742208,-27.1511356 -62.1932224,-27.058273 -62.2119083,-26.9642446 -62.2302794,-26.8690379 -62.2483369,-26.7726401 -62.2660817,-26.6750386 -62.2835149,-26.5762207 -62.3006375,-26.4761738 -62.3174506,-26.3748853 -62.3339551,-26.2723424 -62.3501521,-26.1685326 -62.3660427,-26.0634431 -62.3816278,-25.9570613 -62.3969085,-25.8493746 -62.4118859,-25.7403702 -62.4265608,-25.6300356 -62.4409345,-25.5183581 -62.4550079,-25.4053249 -62.468782,-25.2909236 -62.4822578,-25.1751413 -62.4954365,-25.0579655 -62.508319,-24.9393835 -62.5209063,-24.8193827 -62.5331996,-24.6979503 -62.5451997,-24.5750738 -62.5569078,-24.4507404 -62.5683248,-24.3249375 -62.5794519,-24.1976525 -62.59029,-24.0688727 -62.6008402,-23.9385854 -62.6111034,-23.806778 -62.6210808,-23.6734379 -62.6307733,-23.5385523 -62.640182,-23.4021086 -62.6493079,-23.2640942 -62.658152,-23.1244964 -62.6667154,-22.9833025 -62.6749991,-22.8405 -62.6830042,-22.6960761 -62.6907316,-22.5500181 -62.6981823,-22.4023135 -62.7053575,-22.2529495 -62.7122582,-22.1019136 -62.7188853,-21.9491929 -62.7252399,-21.794775 -62.731323,-21.6386472 -62.7371357,-21.4807967 -62.742679,-21.3212109 -62.747954,-21.1598772 -62.7529615,-20.9967829 -62.7577028,-20.8319154 -62.7621787,-20.665262 -62.7663905,-20.49681 -62.7703389,-20.3265468 -62.7740252,-20.1544598 -62.7774503,-19.9805362 -62.7806153,-19.8047634 -62.7835211,-19.6271288 -62.7861689,-19.4476197 -62.7885596,-19.2662234 -62.7906943,-19.0829274 -62.7925739,-18.8977188 -62.7941997,-18.7105852 -62.7955725,-18.5215137 -62.7966933,-18.3304919 -62.7975633,-18.1375069 -62.7981835,-17.9425462 -62.7985548,-17.7455971 -62.7986784,-17.5466469 -62.7986784,-17.5466469 -62.7985593,-17.3513251 -62.7982015,-17.1579336 -62.797604,-16.9664603 -62.7967657,-16.7768931 -62.7956858,-16.5892202 -62.7943632,-16.4034295 -62.7927971,-16.2195089 -62.7909864,-16.0374466 -62.7889302,-15.8572304 -62.7866275,-15.6788485 -62.7840773,-15.5022886 -62.7812787,-15.327539 -62.7782307,-15.1545875 -62.7749324,-14.9834222 -62.7713827,-14.814031 -62.7675808,-14.6464019 -62.7635256,-14.480523 -62.7592162,-14.3163822 -62.7546516,-14.1539676 -62.7498308,-13.9932671 -62.7447529,-13.8342686 -62.739417,-13.6769603 -62.733822,-13.5213301 -62.727967,-13.367366 -62.721851,-13.215056 -62.7154731,-13.064388 -62.7088322,-12.9153501 -62.7019275,-12.7679304 -62.694758,-12.6221166 -62.6873226,-12.477897 -62.6796204,-12.3352594 -62.6716506,-12.1941918 -62.663412,-12.0546823 -62.6549037,-11.9167188 -62.6461248,-11.7802894 -62.6370743,-11.6453819 -62.6277512,-11.5119845 -62.6181546,-11.3800851 -62.6082835,-11.2496718 -62.5981369,-11.1207324 -62.5877139,-10.993255 -62.5770135,-10.8672276 -62.5660348,-10.7426382 -62.5547767,-10.6194748 -62.5432383,-10.4977254 -62.5314186,-10.3773779 -62.5193167,-10.2584204 -62.5069317,-10.1408409 -62.4942624,-10.0246273 -62.4813081,-9.9097676 -62.4680676,-9.7962499 -62.4545401,-9.6840621 -62.4407246,-9.5731922 -62.4266201,-9.4636283 -62.4122256,-9.3553583 -62.3975402,-9.2483702 -62.3825629,-9.142652 -62.3672928,-9.0381917 -62.3517289,-8.9349773 -62.3358701,-8.8329968 -62.3197156,-8.7322382 -62.3032645,-8.6326894 -62.2865156,-8.5343385 -62.2694681,-8.4371735 -62.2521209,-8.3411823 -62.2344732,-8.246353 -62.216524,-8.1526735 -62.1982722,-8.0601319 -62.179717,-7.9687161 -62.1608573,-7.8784142 -62.1416922,-7.7892141 -62.1222207,-7.7011037 -62.1024419,-7.6140713 -62.0823548,-7.5281046 -62.0619584,-7.4431917 -62.0412518,-7.3593206 -62.020234,-7.2764793 -61.998904,-7.1946558 -61.9772609,-7.113838 -61.9553037,-7.034014 -61.9330249,-6.9551488 -61.9103955,-6.8771362 -61.8874099,-6.7999589 -61.8640655,-6.7236107 -61.8403595,-6.6480852 -61.8162895,-6.5733761 -61.7918528,-6.499477 -61.7670467,-6.4263818 -61.7418687,-6.3540839 -61.716316,-6.2825771 -61.6903861,-6.2118552 -61.6640763,-6.1419117 -61.637384,-6.0727403 -61.6103066,-6.0043348 -61.5828415,-5.9366887 -61.5549859,-5.8697958 -61.5267374,-5.8036498 -61.4980932,-5.7382443 -61.4690507,-5.673573 -61.4396074,-5.6096296 -61.4097605,-5.5464078 -61.3795074,-5.4839012 -61.3488456,-5.4221035 -61.3177724,-5.3610084 -61.2862851,-5.3006096 -61.2543812,-5.2409007 -61.2220579,-5.1818755 -61.1893127,-5.1235275 -61.156143,-5.0658506 -61.1225461,-5.0088383 -61.0885194,-4.9524843 -61.0540602,-4.8967824 -61.019166,-4.8417261 -60.983834,-4.7873093 -60.9480618,-4.7335254 -60.9118466,-4.6803683 -60.8751858,-4.6278316 -60.8380756,-4.5759087 -60.8005112,-4.5245928 -60.7624908,-4.4738787 -60.7240125,-4.423761 -60.6850747,-4.3742345 -60.6456755,-4.325294 -60.6058132,-4.276934 -60.565486,-4.2291493 -60.5246922,-4.1819346 -60.48343,-4.1352847 -60.4416977,-4.0891941 -60.3994934,-4.0436577 -60.3568155,-3.9986702 -60.3136622,-3.9542262 -60.2700317,-3.9103204 -60.2259222,-3.8669477 -60.1813321,-3.8241025 -60.1362595,-3.7817798 -60.0907026,-3.7399742 -60.0446598,-3.6986804 -59.9981292,-3.657893 -59.9511091,-3.6176069 -59.9035978,-3.5778168 -59.8555935,-3.5385172 -59.8070943,-3.499703 -59.7580987,-3.4613688 -59.7086047,-3.4235094 -59.6586107,-3.3861195 -59.6081148,-3.3491937 -59.5571154,-3.3127268 -59.5056106,-3.2767135 -59.4535987,-3.2411485 -59.401078,-3.2060265 -59.3480467,-3.1713422 -59.294503,-3.1370903 -59.2404299,-3.1032559 -59.185727,-3.069773 -59.1303706,-3.0366282 -59.0743541,-3.0038193 -59.0176711,-2.9713439 -58.9603148,-2.9391997 -58.9022788,-2.9073844 -58.8435565,-2.8758958 -58.7841414,-2.8447315 -58.7240268,-2.8138892 -58.6632062,-2.7833666 -58.6016731,-2.7531615 -58.5394208,-2.7232714 -58.4764429,-2.6936942 -58.4127327,-2.6644275 -58.3482836,-2.6354691 -58.2830892,-2.6068165 -58.2171429,-2.5784676 -58.150438,-2.55042 -58.0829681,-2.5226714 -58.0147265,-2.4952196 -57.9457067,-2.4680621 -57.8759022,-2.4411968 -57.8053063,-2.4146213 -57.7339125,-2.3883333 -57.6617142,-2.3623305 -57.588705,-2.3366107 -57.5148781,-2.3111714 -57.4402271,-2.2860105 -57.3647454,-2.2611256 -57.2884263,-2.2365144 -57.2112635,-2.2121746 -57.1332502,-2.1881039 -57.0543799,-2.1643001 -56.9746461,-2.1407608 -56.8940422,-2.1174836 -56.8125616,-2.0944664 -56.7301978,-2.0717068 -56.6469442,-2.0492025 -56.5627943,-2.0269513 -56.4777414,-2.0049507 -56.391779,-1.9831986 -56.3048384,-1.9616729 -56.2168201,-1.9403455 -56.1277042,-1.9192151 -56.0374714,-1.898281 -55.9461024,-1.8775422 -55.8535779,-1.8569977 -55.7598786,-1.8366468 -55.6649852,-1.8164884 -55.5688784,-1.7965217 -55.4715389,-1.7767458 -55.3729474,-1.7571597 -55.2730845,-1.7377626 -55.171931,-1.7185535 -55.0694675,-1.6995316 -54.9656749,-1.6806959 -54.8605336,-1.6620456 -54.7540245,-1.6435797 -54.6461283,-1.6252973 -54.5368255,-1.6071975 -54.426097,-1.5892795 -54.3139234,-1.5715422 -54.2002855,-1.5539849 -54.0851638,-1.5366065 -53.9685391,-1.5194062 -53.8503922,-1.5023832 -53.7307036,-1.4855363 -53.6094541,-1.4688649 -53.4866244,-1.4523679 -53.3621952,-1.4360445 -53.2361472,-1.4198937 -53.108461,-1.4039147 -52.9791174,-1.3881065 -52.848097,-1.3724682 -52.7153805,-1.356999 -52.5809488,-1.3416979 -52.4447823,-1.326564 -52.3068619,-1.3115965 -52.1671682,-1.2967943 -52.0256819,-1.2821566 -51.8823838,-1.2676825 -51.7372544,-1.2533712 -51.5902745,-1.2392215 -51.4414249,-1.2252328 -51.2906861,-1.211404 -51.1380389,-1.1977343 -50.983464,-1.1842228 -50.8269421,-1.1708685 -50.6684539,-1.1576706 -50.50798,-1.1446281 -50.3455011,-1.1317401 -50.180998,-1.1190058 -50.0144514,-1.1064241 -49.8458419,-1.0939943 -49.6751502,-1.0817154 -49.5023571,-1.0695866 -49.3274432,-1.0576068 -49.1503892,-1.0457752 -48.9711758,-1.0340909 -48.7897837,-1.0225529 -48.6061937,-1.0111605 -48.4203863,-0.9999126 -48.2323423,-0.9888084 -48.2323423,-0.9888084 -47.9153451,-0.9707017 -47.9153451,-0.9707017 -47.5271229,-0.9495222 -47.1377067,-0.9293092 -47.1377067,-0.9293092 -46.7267615,-0.9090244 -46.3158144,-0.8897418 -46.3158144,-0.8897418 -45.9149399,-0.8718341 -45.5153451,-0.8548138 -45.5153451,-0.8548138 -45.2271037,-0.8430221 -45.2271037,-0.8430221 -45.0742568,-0.8369272 -44.9202324,-0.8308928 -44.7650245,-0.8249185 -44.6086271,-0.8190041 -44.451034,-0.8131492 -44.2922392,-0.8073535 -44.1322368,-0.8016167 -43.9710205,-0.7959384 -43.8085843,-0.7903185 -43.6449223,-0.7847565 -43.4800282,-0.7792522 -43.3138962,-0.7738052 -43.1465201,-0.7684153 -42.9778938,-0.763082 -42.8080114,-0.7578052 -42.6368667,-0.7525845 -42.4644536,-0.7474196 -42.2907663,-0.7423102 -42.1157984,-0.737256 -41.9395442,-0.7322566 -41.7619973,-0.7273118 -41.5831519,-0.7224212 -41.4030018,-0.7175845 -41.221541,-0.7128014 -41.0387635,-0.7080717 -40.8546631,-0.703395 -40.6692339,-0.6987709 -40.4824697,-0.6941993 -40.2943645,-0.6896797 -40.1049122,-0.6852118 -39.9141069,-0.6807954 -39.7219424,-0.6764302 -39.7219424,-0.6764302 -39.4153451,-0.6696324 -39.4153451,-0.6696324 -38.8157777,-0.6569068 -38.2152827,-0.6448717 -37.614819,-0.6335004 -37.0153451,-0.6227661 -37.0153451,-0.6227661 -36.7203181,-0.617698 -36.7203181,-0.617698 -36.4506048,-0.6131833 -36.1785815,-0.6087412 -35.9042362,-0.6043712 -35.6275569,-0.6000727 -35.3485316,-0.5958453 -35.0671482,-0.5916884 -34.7833947,-0.5876016 -34.4972591,-0.5835843 -34.3532942,-0.5816015 -34.2087293,-0.579636 -34.0635629,-0.5776876 -33.9177934,-0.5757562 -33.7714193,-0.5738419 -33.6244393,-0.5719445 -33.4768516,-0.570064 -33.3286549,-0.5682003 -33.1798476,-0.5663533 -33.0304283,-0.564523 -32.8803954,-0.5627094 -32.7297474,-0.5609123 -32.5784828,-0.5591317 -32.4266002,-0.5573675 -32.2740979,-0.5556198 -32.1209746,-0.5538883 -31.9672287,-0.552173 -31.8128587,-0.550474 -31.6578631,-0.548791 -31.5022404,-0.5471242 -31.3459892,-0.5454733 -31.1891078,-0.5438383 -31.0315947,-0.5422192 -30.8734486,-0.5406159 -30.7146679,-0.5390283 -30.555251,-0.5374564 -30.3951965,-0.5359002 -30.2345029,-0.5343594 -30.0731687,-0.5328342 -29.9111923,-0.5313244 -29.7485723,-0.5298299 -29.5853072,-0.5283507 -29.4213954,-0.5268868 -29.2568355,-0.525438 -29.0916259,-0.5240043 -28.9257651,-0.5225857 -28.7592518,-0.521182 -28.5920842,-0.5197933 -28.424261,-0.5184194 -28.2557806,-0.5170603 -28.0866416,-0.515716 -27.9168423,-0.5143862 -27.7463815,-0.5130711 -27.5752574,-0.5117705 -27.4034686,-0.5104844 -27.2310137,-0.5092127 -27.0578911,-0.5079554 -26.8840992,-0.5067123 -26.8840992,-0.5067123 -26.5820117,-0.5045966 -26.5820117,-0.5045966 -25.381987,-0.4967327 -24.1820117,-0.4896754 -24.1820117,-0.4896754 -23.8836048,-0.4880373 -23.8836048,-0.4880373 -23.5414632,-0.4862138 -23.5414632,-0.4862138 -23.5095868,-0.5216228 -23.4789818,-0.5582696 -23.4495899,-0.596075 -23.4213528,-0.6349594 -23.3942087,-0.6748518 -23.3680821,-0.715715 -23.3429324,-0.7574396 -23.3187247,-0.7999027 -23.2954241,-0.8429813 -23.2729959,-0.8865524 -23.2514052,-0.9304933 -23.2306172,-0.9746809 -23.2105972,-1.0189923 -23.1913102,-1.0633047 -23.1545767,-1.1519899 -23.1192219,-1.2423174 -23.084853,-1.3342105 -23.0511761,-1.4273618 -23.0178973,-1.5214641 -22.9513586,-1.7112928 -22.9175109,-1.8064047 -22.8828858,-1.9012387 -22.8471893,-1.9954876 -22.8101278,-2.088844 -22.7714284,-2.1809539 -22.7513904,-2.2264108 -22.7308436,-2.2714266 -22.7097496,-2.3159708 -22.6880704,-2.3600128 -22.6657676,-2.4035224 -22.6428032,-2.4464691 -22.6191388,-2.4888223 -22.5947364,-2.5305518 -22.5695577,-2.5716271 -22.5435646,-2.6120177 -22.5167187,-2.6516931 -22.488982,-2.6906231 -22.4603163,-2.7287771 -22.4307324,-2.7660644 -22.4003585,-2.8022715 -22.3691795,-2.8373858 -22.3371676,-2.8714106 -22.3042952,-2.9043495 -22.2705345,-2.9362058 -22.2358579,-2.966983 -22.2002376,-2.9966845 -22.163646,-3.0253139 -22.1260553,-3.0528746 -22.0874378,-3.07937 -22.0477658,-3.1048035 -22.0070117,-3.1291787 A1.25,1.25 240 0,1 -20.7570117,-3.1291787 L-20.7570117,-3.1291787 -20.7137187,-3.1033476 -20.6715146,-3.0764666 -20.630382,-3.0485154 -20.5903036,-3.0194739 -20.5512619,-2.9893217 -20.5132397,-2.9580385 -20.4762194,-2.9256041 -20.4401839,-2.8919982 -20.4051155,-2.8572005 -20.370997,-2.8211908 -20.337811,-2.7839488 -20.3055402,-2.7454542 -20.2741973,-2.7057266 -20.244041,-2.6651396 -20.2150938,-2.6238189 -20.1873059,-2.5818008 -20.1606273,-2.5391216 -20.1350082,-2.4958174 -20.1103986,-2.4519248 -20.0867485,-2.4074798 -20.0640081,-2.3625188 -20.0421274,-2.3170781 -20.0210565,-2.271194 -20.0007455,-2.2249027 -19.9811444,-2.1782405 -19.9621975,-2.131229 -19.9438519,-2.083895 -19.9260602,-2.0362782 -19.8919489,-1.9403546 -19.8594842,-1.8437755 -19.8282868,-1.7468579 -19.7979776,-1.6499192 -19.7681772,-1.5532764 -19.7385063,-1.4572469 -19.7085856,-1.3621479 -19.6780359,-1.2682964 -19.6464778,-1.1760098 -19.6302021,-1.1305525 -19.6135321,-1.0856053 -19.5964204,-1.0412079 -19.5788195,-0.9973998 -19.560678,-0.9542085 -19.5419446,-0.911667 -19.5225704,-0.8698177 -19.5025066,-0.8287032 -19.4817043,-0.7883658 -19.4601146,-0.7488479 -19.4376885,-0.7101919 -19.4143773,-0.6724403 -19.390132,-0.6356354 -19.3649038,-0.5998197 -19.3386437,-0.5650356 -19.3113451,-0.5313768 -19.2830245,-0.4989494 -19.2536412,-0.4677788 -19.2536412,-0.4677788 -18.3829354,-0.4649156 -18.3829354,-0.4649156 -18.0820117,-0.463987 -18.0820117,-0.463987 -15.6820117,-0.4576206 -15.6820117,-0.4576206 -15.3826609,-0.4569482 -15.3826609,-0.4569482 -14.7715174,-0.4556535 -14.1605779,-0.4544611 -13.5480049,-0.4533641 -12.9340463,-0.45236 -12.31895,-0.4514464 -11.7029638,-0.4506208 -10.4693137,-0.4492239 -9.2350792,-0.4481497 -8.6183626,-0.4477275 -8.0022436,-0.4473786 -7.3869702,-0.4471005 -6.7727902,-0.4468909 -6.1599515,-0.4467472 -5.5487022,-0.446667 -5.5487022,-0.446667 -5.2486784,-0.4466501 -5.0486784,-0.4466469 -5.0486784,-0.4466469 -3.9486953,-0.4469449 -2.8486784,-0.4478607 -2.8486784,-0.4478607 -2.5482987,-0.4482226 -2.5482987,-0.4482226 -2.2094846,-0.4486901 -1.8697812,-0.4492228 -1.5292362,-0.4498224 -1.1878973,-0.4504905 -0.8458123,-0.4512285 -0.5030288,-0.4520381 -0.1595944,-0.4529208 0.184443,-0.4538782 0.8741365,-0.4560234 1.5656702,-0.4584863 2.2586625,-0.4612793 2.9527318,-0.464415 2.9527318,-0.464415 3.2513216,-0.4658715 3.2513216,-0.4658715 4.4513139,-0.4724037 5.6513216,-0.4800805 5.6513216,-0.4800805 5.9534416,-0.482203 5.9534416,-0.482203 6.577926,-0.4868434 7.2013596,-0.4918265 7.8234636,-0.4971606 8.4439595,-0.5028538 9.0625686,-0.5089142 9.6790123,-0.51535 9.986335,-0.5187113 10.2930118,-0.5221694 10.599008,-0.5257255 10.9042886,-0.5293806 11.208819,-0.5331356 11.5125641,-0.5369916 11.8154893,-0.5409496 12.1175596,-0.5450106 12.4188329,-0.549177 12.7207546,-0.5534704 13.0237823,-0.5579009 13.3278523,-0.5624713 13.6329011,-0.5671846 13.9388651,-0.5720439 14.2456809,-0.577052 14.5532847,-0.582212 14.8616131,-0.5875269 15.1706025,-0.5929995 15.79031,-0.6044301 15.79031,-0.6044301 16.0846549,-0.6100782 16.0846549,-0.6100782 16.6844493,-0.6220403 17.2846581,-0.6346416 17.8848653,-0.6479029 18.4846549,-0.6618451 18.4846549,-0.6618451 18.7919746,-0.6692666 18.7919746,-0.6692666 19.2767362,-0.6813698 19.2767362,-0.6813698 19.2986994,-0.7158803 19.3200572,-0.7511508 19.3408388,-0.7871501 19.3610736,-0.8238473 19.3807908,-0.8612112 19.4000198,-0.8992108 19.4187898,-0.937815 19.4371301,-0.9769929 19.45507,-1.0167132 19.4726388,-1.0569449 19.5067804,-1.1388186 19.5397892,-1.2223653 19.5718995,-1.3073367 19.6033458,-1.3934841 19.6343622,-1.4805592 19.6960432,-1.6564983 19.7588175,-1.8331662 19.7912005,-1.9211522 19.8245598,-2.0085749 19.8591298,-2.0951859 19.8951251,-2.1806928 19.9327452,-2.2647858 19.9522405,-2.3062401 19.9722334,-2.3472671 19.9927547,-2.3878424 20.0138348,-2.4279415 20.0355043,-2.4675402 20.057794,-2.506614 20.0807343,-2.5451385 20.1043559,-2.5830894 20.1286894,-2.6204423 20.1537653,-2.6571728 20.1796144,-2.6932566 20.2062671,-2.7286692 20.2337154,-2.7633385 20.2618453,-2.7970783 20.2906662,-2.829875 20.3202005,-2.8617312 20.3504702,-2.8926498 20.3814975,-2.9226335 20.4133047,-2.951685 20.4459139,-2.9798072 20.4793473,-3.0070029 20.5136272,-3.0332746 20.5487757,-3.0586253 20.5848151,-3.0830577 20.6217674,-3.1065746 20.6596549,-3.1291787 A1.25,1.25 240 0,1 21.9096549,-3.1291787 L21.9096549,-3.1291787 21.9464519,-3.1073326 21.9825273,-3.0846919 22.0178873,-3.0612404 22.0525382,-3.0369617 22.0864862,-3.0118394 22.1197375,-2.9858573 22.1522984,-2.958999 22.1841751,-2.9312483 22.2153737,-2.9025887 22.2459007,-2.8730041 22.2757621,-2.842478 22.3049275,-2.811035 22.3331885,-2.7789178 22.3605356,-2.7461804 22.3869978,-2.7128358 22.412604,-2.6788971 22.4373834,-2.6443776 22.461365,-2.6092903 22.4845778,-2.5736483 22.5070508,-2.5374649 22.5288133,-2.5007531 22.549894,-2.463526 22.57032,-2.425801 22.5900873,-2.3876567 22.6092152,-2.349136 22.627734,-2.3102615 22.645674,-2.2710559 22.6630656,-2.2315421 22.6963248,-2.1516804 22.7277542,-2.0708581 22.7575964,-1.989257 22.7860941,-1.9070589 22.8134899,-1.8244455 22.8400264,-1.7415987 22.8914923,-1.5759315 22.9424349,-1.4114971 22.968316,-1.3302072 22.9947888,-1.2498248 23.0220916,-1.1705707 23.0504628,-1.0926655 23.0801408,-1.01633 23.0955442,-0.9788198 23.1113638,-0.9417847 23.1276292,-0.9052524 23.1443703,-0.8692504 23.1616168,-0.8338063 23.1793985,-0.7989477 23.1793985,-0.7989477 23.4617335,-0.8090367 23.7419864,-0.8192909 24.0201665,-0.8297112 24.2962827,-0.8402988 24.2962827,-0.8402988 24.5846549,-0.8516232 24.5846549,-0.8516232 24.9863402,-0.8678657 25.388419,-0.8846888 25.388419,-0.8846888 25.7954212,-0.9023157 26.2024023,-0.9205669 26.2024023,-0.9205669 26.5937321,-0.9387293 26.9846549,-0.9574968 26.9846549,-0.9574968 27.299637,-0.973089 27.299637,-0.973089 27.4843771,-0.9824353 27.6680668,-0.9918795 27.8507094,-1.001422 28.0323085,-1.0110634 28.2128677,-1.020804 28.3923904,-1.0306443 28.5708801,-1.0405847 28.7483405,-1.0506257 28.9247749,-1.0607677 29.1001869,-1.0710112 29.27458,-1.0813566 29.4479577,-1.0918043 29.6203236,-1.1023549 29.7916811,-1.1130087 29.9620338,-1.1237662 30.1313852,-1.1346278 30.2997388,-1.145594 30.467098,-1.1566651 30.6334665,-1.1678418 30.7988478,-1.1791244 30.9632453,-1.1905133 31.1266625,-1.202009 31.2891031,-1.2136119 31.4505704,-1.2253226 31.611068,-1.2371413 31.7705995,-1.2490686 31.9291683,-1.261105 32.0867779,-1.2732507 32.243432,-1.2855064 32.3991338,-1.2978725 32.5538871,-1.3103493 32.7076953,-1.3229373 32.8605619,-1.3356371 33.0124905,-1.3484489 33.1634845,-1.3613734 33.3135474,-1.3744108 33.4626829,-1.3875617 33.6108943,-1.4008264 33.7581852,-1.4142056 33.9045592,-1.4276995 34.0500197,-1.4413086 34.1945702,-1.4550334 34.3382143,-1.4688743 34.4809555,-1.4828318 34.6227973,-1.4969063 34.7637431,-1.5110982 34.9037966,-1.525408 35.0429612,-1.5398362 35.1812405,-1.5543832 35.3186379,-1.5690493 35.455157,-1.5838352 35.5908013,-1.5987411 35.7255743,-1.6137676 35.8594796,-1.6289151 35.9925205,-1.6441841 36.1247007,-1.6595749 36.2560237,-1.6750881 36.3864929,-1.690724 36.5161119,-1.7064832 36.6448842,-1.722366 36.7728133,-1.738373 36.8999028,-1.7545045 37.0261561,-1.770761 37.1515768,-1.7871429 37.1515768,-1.7871429 37.4179883,-1.8227304 37.4179883,-1.8227304 37.7178954,-1.8641253 38.0183534,-1.9070795 38.3191001,-1.9516368 38.6198734,-1.9978408 38.920411,-2.0457353 39.2204508,-2.0953639 39.5197306,-2.1467703 39.8179883,-2.1999982 39.8179883,-2.1999982 39.988199,-2.2313111 40.1582888,-2.2633089 40.1582888,-2.2633089 40.2652107,-2.2837955 40.371359,-2.304425 40.4767391,-2.3251981 40.5813982,-2.3461229 40.6853607,-2.367204 40.7886297,-2.3884422 40.891208,-2.4098384 40.9930987,-2.4313932 41.0943048,-2.4531077 41.1948292,-2.4749826 41.294675,-2.4970188 41.3938452,-2.5192171 41.4923426,-2.5415783 41.5901704,-2.5641032 41.6873315,-2.5867928 41.7838289,-2.6096478 41.8796656,-2.632669 41.9748445,-2.6558574 42.0693687,-2.6792137 42.1632411,-2.7027387 42.2564648,-2.7264333 42.3490427,-2.7502984 42.4409778,-2.7743347 42.5322731,-2.7985431 42.6229316,-2.8229245 42.7129563,-2.8474796 42.8023502,-2.8722093 42.8911162,-2.8971145 42.9792574,-2.9221959 43.0667767,-2.9474544 43.1536771,-2.9728908 43.2399616,-2.998506 43.3256332,-3.0243008 43.4106949,-3.050276 43.4951497,-3.0764325 43.5790006,-3.1027711 43.6622505,-3.1292926 43.7449025,-3.1559978 43.8269595,-3.1828877 43.9084245,-3.209963 43.9893005,-3.2372246 44.0695905,-3.2646732 44.1492975,-3.2923098 44.2284245,-3.3201351 44.3069744,-3.3481501 44.3849503,-3.3763555 44.5391919,-3.4333408 44.6911732,-3.4910979 44.8409181,-3.5496334 44.9884504,-3.6089539 45.1337942,-3.6690661 45.2769732,-3.7299767 45.4180115,-3.7916924 45.5569329,-3.8542198 45.6937614,-3.9175656 45.8285208,-3.9817364 45.961235,-4.0467389 46.0919353,-4.1125836 46.22126,-4.1796077 46.3495914,-4.2480475 46.4769039,-4.3179333 46.6031718,-4.3892954 46.7283696,-4.462164 46.8524716,-4.5365694 46.9754523,-4.612542 47.097286,-4.6901119 47.2179471,-4.7693094 47.33741,-4.8501649 47.4556492,-4.9327085 47.5726389,-5.0169705 47.6883537,-5.1029812 47.8027678,-5.1907709 47.9158557,-5.2803699 48.0275918,-5.3718084 48.1379505,-5.4651166 48.2469061,-5.5603249 48.3008498,-5.6086511 48.3544331,-5.6574636 48.4076529,-5.7067662 48.4605058,-5.7565628 48.5129889,-5.8068571 48.5650987,-5.8576529 48.6168322,-5.908954 48.6681861,-5.9607641 48.7191573,-6.0130871 48.7697412,-6.0659254 48.8198234,-6.1191628 48.869334,-6.1727224 48.9182769,-6.2266031 48.9666555,-6.2808039 49.0144738,-6.3353238 49.0617352,-6.3901618 49.1084435,-6.4453169 49.1546024,-6.5007881 49.2002155,-6.5565744 49.2452867,-6.6126747 49.2898194,-6.669088 49.3338174,-6.7258134 49.3772845,-6.7828499 49.4202242,-6.8401963 49.4626403,-6.8978517 49.5045364,-6.9558152 49.5867836,-7.072662 49.6669951,-7.1907287 49.7452004,-7.3100071 49.8214291,-7.4304893 49.8957106,-7.552167 49.9680743,-7.6750323 50.0385498,-7.799077 50.1071664,-7.9242931 50.1739537,-8.0506725 50.2389412,-8.1782071 50.3021582,-8.3068887 50.3636342,-8.4367094 50.4233988,-8.5676611 50.4814814,-8.6997356 50.5379114,-8.8329249 50.5927184,-8.967221 50.6459317,-9.1026156 50.6976583,-9.239308 50.7481444,-9.3779209 50.7974086,-9.5185194 50.8454537,-9.6611284 50.8922827,-9.8057728 50.915242,-9.8788661 50.9378983,-9.9524776 50.9602521,-10.0266104 50.9823036,-10.1012677 51.0040532,-10.1764525 51.0255013,-10.2521679 51.0466483,-10.3284171 51.0674944,-10.4052032 51.0880402,-10.4825293 51.1082858,-10.5603986 51.1282318,-10.638814 51.1478784,-10.7177788 51.167226,-10.7972961 51.1862749,-10.8773689 51.2050256,-10.9580005 51.2234784,-11.0391938 51.2416337,-11.1209521 51.2594917,-11.2032784 51.277053,-11.2861758 51.2943177,-11.3696475 51.3112864,-11.4536966 51.3279593,-11.5383262 51.3443368,-11.6235394 51.3604194,-11.7093393 51.3762072,-11.795729 51.3917008,-11.8827117 51.4069004,-11.9702905 51.4218064,-12.0584685 51.4364193,-12.1472487 51.4507392,-12.2366343 51.4647667,-12.3266285 51.478502,-12.4172343 51.4919456,-12.5084549 51.5050978,-12.6002933 51.5179589,-12.6927528 51.5305293,-12.7858363 51.5428093,-12.879547 51.5547995,-12.973888 51.5665,-13.0688625 51.5779112,-13.1644736 51.5890336,-13.2607243 51.5998674,-13.3576178 51.6104131,-13.4551572 51.620671,-13.5533456 51.6306414,-13.6521862 51.6403248,-13.751682 51.6497214,-13.8518361 51.6588317,-13.9526518 51.6676559,-14.054132 51.6761946,-14.1562799 51.6844479,-14.2590986 51.6924164,-14.3625913 51.7001003,-14.466761 51.7074999,-14.5716108 51.7146158,-14.677144 51.7214482,-14.7833635 51.7279974,-14.8902725 51.734264,-14.9978742 51.7402481,-15.1061716 51.7459502,-15.2151678 51.7513706,-15.324866 51.7565097,-15.4352693 51.7613679,-15.5463807 51.7659455,-15.6582035 51.7702428,-15.7707407 51.7742603,-15.8839954 51.7779983,-15.9979708 51.7814572,-16.1126699 51.7846372,-16.2280959 51.7875389,-16.344252 51.7901625,-16.4611411 51.7925084,-16.5787664 51.7945769,-16.6971311 51.7963685,-16.8162382 51.7978834,-16.9360909 51.7991221,-17.0566923 51.800085,-17.1780455 51.8007722,-17.3001536 51.8011843,-17.4230197 51.8013216,-17.5466469 51.8013216,-17.5466469 51.801022,-17.7303679 51.8001171,-17.9130254 51.7985977,-18.0946169 51.7964547,-18.2751396 51.7936791,-18.4545907 51.7902617,-18.6329676 51.7861933,-18.8102676 51.7814649,-18.9864878 51.7760673,-19.1616257 51.7699914,-19.3356784 51.7632281,-19.5086433 51.7557682,-19.6805176 51.7476026,-19.8512986 51.7387223,-20.0209836 51.729118,-20.1895699 51.7187806,-20.3570548 51.7077011,-20.5234354 51.6958704,-20.6887092 51.6832791,-20.8528734 51.6699184,-21.0159252 51.655779,-21.177862 51.6408518,-21.338681 51.6251277,-21.4983795 51.6085975,-21.6569548 51.5912522,-21.8144041 51.5730827,-21.9707248 51.5540797,-22.1259141 51.5342342,-22.2799694 51.513537,-22.4328878 51.4919791,-22.5846666 51.4695512,-22.7353033 51.4462443,-22.8847949 51.4220493,-23.0331388 51.3969216,-23.1805278 51.3706641,-23.3279199 51.3432195,-23.4754017 51.3145541,-23.6229231 51.2846341,-23.7704338 51.2534256,-23.9178839 51.220895,-24.0652231 51.1870085,-24.2124013 51.1517322,-24.3593685 51.1150326,-24.5060744 51.0768757,-24.652469 51.0372278,-24.7985022 50.9960552,-24.9441238 50.9533241,-25.0892836 50.9090007,-25.2339317 50.8630513,-25.3780178 50.8154421,-25.5214918 50.7661393,-25.6643037 50.7151092,-25.8064032 50.6623181,-25.9477403 50.607732,-26.0882648 50.5513174,-26.2279266 50.4930404,-26.3666756 50.4328678,-26.5044605 50.3708879,-26.6409932 50.3071631,-26.7760815 50.2416663,-26.9097269 50.1743702,-27.0419311 50.1052473,-27.1726955 50.0342705,-27.3020218 49.9614124,-27.4299115 49.8866458,-27.5563662 49.8485382,-27.6190559 49.8099433,-27.6813875 49.7708575,-27.7433611 49.7312776,-27.8049769 49.6912001,-27.8662351 49.6506215,-27.927136 49.6095385,-27.9876797 49.5679476,-28.0478663 49.5258455,-28.1076963 49.4832287,-28.1671696 49.4400939,-28.2262865 49.3964375,-28.2850472 49.3522562,-28.3434519 49.3075466,-28.4015008 49.2623052,-28.4591941 49.2165288,-28.5165319 49.1702137,-28.5735146 49.1233567,-28.6301422 49.0759543,-28.686415 49.0280031,-28.7423332 48.9794997,-28.7978969 48.9304407,-28.8531064 48.8808226,-28.9079618 48.8306421,-28.9624634 48.7798957,-29.0166114 48.7285801,-29.0704059 48.6766918,-29.1238471 48.6242274,-29.1769353 48.5711835,-29.2296706 48.5175567,-29.2820532 48.4633436,-29.3340834 48.4085459,-29.3857569 48.3531844,-29.4370548 48.2972588,-29.4879762 48.2407663,-29.538523 48.1837036,-29.5886969 48.1260678,-29.6384996 48.0678559,-29.6879329 48.0090647,-29.7369986 47.9496913,-29.7856984 47.8897325,-29.8340342 47.8291854,-29.8820075 47.7680468,-29.9296203 47.7063139,-29.9768742 47.6439834,-30.023771 47.5810523,-30.0703125 47.5175177,-30.1165004 47.4533764,-30.1623365 47.3886254,-30.2078226 47.3232617,-30.2529603 47.2572822,-30.2977516 47.1906839,-30.342198 47.1234637,-30.3863014 47.0556186,-30.4300636 46.9871455,-30.4734862 46.9180413,-30.5165711 46.8483031,-30.5593201 46.7779278,-30.6017348 46.7069124,-30.643817 46.6352537,-30.6855685 46.5629488,-30.726991 46.4899946,-30.7680863 46.416388,-30.8088562 46.342126,-30.8493024 46.2672056,-30.8894267 46.1916237,-30.9292308 46.1153773,-30.9687165 46.0384633,-31.0078856 45.9608787,-31.0467398 45.8826204,-31.0852808 45.8036853,-31.1235104 45.7240705,-31.1614304 45.6437729,-31.1990426 45.5627894,-31.2363486 45.4811171,-31.2733504 45.3987527,-31.3100495 45.3156934,-31.3464478 45.231936,-31.382547 45.1474775,-31.4183489 45.0623148,-31.4538552 44.9764419,-31.4890691 44.8897846,-31.5240226 44.8023072,-31.5587294 44.714002,-31.5931901 44.6248617,-31.6274058 44.5348786,-31.6613773 44.4440453,-31.6951055 44.3523543,-31.7285912 44.259798,-31.7618353 44.1663689,-31.7948387 44.0720596,-31.8276022 43.9768625,-31.8601267 43.88077,-31.8924132 43.7837748,-31.9244624 43.6858692,-31.9562752 43.5870458,-31.9878525 43.487297,-32.0191953 43.3866154,-32.0503042 43.2849934,-32.0811803 43.1824235,-32.1118243 43.0788982,-32.1422372 42.97441,-32.1724199 42.8689514,-32.2023731 42.7625149,-32.2320978 42.6550929,-32.2615948 42.5466779,-32.2908651 42.4372625,-32.3199094 42.3268391,-32.3487287 42.2154002,-32.3773238 42.1029382,-32.4056956 41.9894458,-32.4338449 41.8749153,-32.4617727 41.7593393,-32.4894798 41.6427103,-32.5169671 41.5250206,-32.5442354 41.4062629,-32.5712856 41.2864296,-32.5981187 41.1655132,-32.6247353 41.0435062,-32.6511365 40.9204011,-32.6773232 40.7961903,-32.703296 40.6708663,-32.7290561 40.5444217,-32.7546041 40.4168489,-32.779941 40.2881405,-32.8050677 40.1582888,-32.829985 40.1582888,-32.829985 39.988199,-32.8619827 39.8179883,-32.8932957 39.8179883,-32.8932957 39.5197306,-32.9465236 39.2204508,-32.99793 38.920411,-33.0475586 38.6198734,-33.0954531 38.3191001,-33.1416571 38.0183534,-33.1862144 37.7178954,-33.2291686 37.4179883,-33.2705634 37.4179883,-33.2705634 37.1515768,-33.306151 37.1515768,-33.306151 37.0264933,-33.3224892 36.9005727,-33.338704 36.7738113,-33.3547956 36.6462052,-33.3707645 36.5177507,-33.3866111 36.3884437,-33.4023359 36.2582807,-33.4179392 36.1272577,-33.4334215 35.9953709,-33.4487832 35.8626166,-33.4640248 35.7289908,-33.4791465 35.5944898,-33.4941489 35.4591097,-33.5090324 35.3228467,-33.5237974 35.1856971,-33.5384443 35.047657,-33.5529735 34.9087225,-33.5673855 34.7688899,-33.5816806 34.6281553,-33.5958594 34.4865149,-33.6099221 34.343965,-33.6238692 34.2005016,-33.6377012 34.0561209,-33.6514185 33.9108192,-33.6650214 33.7645926,-33.6785104 33.6174374,-33.691886 33.4693496,-33.7051485 33.3203254,-33.7182983 33.1703611,-33.7313359 33.0194528,-33.7442617 32.8675968,-33.7570762 32.7147891,-33.7697796 32.561026,-33.7823725 32.4063036,-33.7948553 32.2506181,-33.8072284 32.0939658,-33.8194921 31.9363428,-33.831647 31.7777452,-33.8436934 31.6181693,-33.8556318 31.4576112,-33.8674626 31.2960671,-33.8791862 31.1335332,-33.890803 30.9700057,-33.9023134 30.8054807,-33.9137179 30.6399545,-33.9250169 30.4734232,-33.9362108 30.305883,-33.9473 30.1373301,-33.9582849 29.9677606,-33.9691659 29.7971708,-33.9799436 29.6255568,-33.9906182 29.4529148,-34.0011902 29.279241,-34.0116601 29.1045316,-34.0220282 28.9287827,-34.0322949 28.7519905,-34.0424608 28.5741512,-34.0525262 28.3952611,-34.0624914 28.2153162,-34.072357 28.0343127,-34.0821234 27.8522469,-34.091791 27.6691149,-34.1013601 27.4849129,-34.1108313 27.299637,-34.1202049 27.299637,-34.1202049 26.9846549,-34.1357971 26.9846549,-34.1357971 26.5937321,-34.1545645 26.2024023,-34.1727269 26.2024023,-34.1727269 25.7954212,-34.1909782 25.388419,-34.2086051 25.388419,-34.2086051 24.9863402,-34.2254282 24.5846549,-34.2416706 24.5846549,-34.2416706 24.2962827,-34.2529951 24.2962827,-34.2529951 24.0304017,-34.2631946 23.7625752,-34.2732401 23.4927945,-34.2831325 23.221051,-34.2928727 23.221051,-34.2928727 23.2020481,-34.2578846 23.1835013,-34.222306 23.1653857,-34.1861632 23.1476763,-34.1494829 23.1303484,-34.1122914 23.1133769,-34.0746153 23.0804038,-33.9979151 23.0485581,-33.9195941 23.0176405,-33.839864 22.987452,-33.7589369 22.9577935,-33.6770244 22.8992698,-33.5110907 22.8404766,-33.3437579 22.8104811,-33.2600964 22.7798209,-33.1767205 22.7482969,-33.0938422 22.7157099,-33.0116733 22.6818714,-32.9304492 22.646618,-32.8504502 22.6097458,-32.7718517 22.5906375,-32.7331295 22.5710464,-32.6948196 22.5509465,-32.6569427 22.5303119,-32.6195197 22.5091163,-32.5825711 22.487334,-32.5461178 22.4649387,-32.5101804 22.4419046,-32.4747798 22.4182055,-32.4399366 22.3938156,-32.4056715 22.3687087,-32.3720053 22.342872,-32.3389753 22.316409,-32.3067536 22.2893321,-32.2753792 22.2616223,-32.2448496 22.2332609,-32.2151626 22.204229,-32.1863158 22.1745077,-32.1583069 22.1440782,-32.1311334 22.1129215,-32.104793 22.0810188,-32.0792835 22.0483512,-32.0546024 22.0148999,-32.0307473 21.980646,-32.007716 21.9455707,-31.9855061 21.9096549,-31.9641152 A1.25,1.25 60 0,1 20.6596549,-31.9641152 L20.6596549,-31.9641152 20.6206903,-31.9872867 20.5825762,-32.0113246 20.5453023,-32.0362459 20.5088581,-32.0620672 20.4732331,-32.0888052 20.4384169,-32.1164769 20.404399,-32.1450989 20.371169,-32.1746881 20.3387164,-32.2052611 20.3070307,-32.2368348 20.2761016,-32.2694259 20.2459184,-32.3030512 20.2164921,-32.3377016 20.1880444,-32.37309 20.1606083,-32.4091148 20.1341477,-32.4457539 20.1086269,-32.4829849 20.0840096,-32.5207854 20.0602602,-32.5591333 20.0373424,-32.5980061 20.0152205,-32.6373816 19.9938584,-32.6772375 19.9732201,-32.7175515 19.9532698,-32.7583012 19.9339713,-32.7994644 19.9152955,-32.8410036 19.8972128,-32.8828787 19.8796883,-32.9250614 19.8461728,-33.0102367 19.8144681,-33.0963041 19.7842927,-33.1830379 19.7553657,-33.2702127 19.7274057,-33.3576027 19.7001317,-33.4449825 19.646517,-33.6188089 19.6196138,-33.7048044 19.592272,-33.7898874 19.5642103,-33.8738321 19.535142,-33.9564335 19.5047718,-34.0374928 19.4890093,-34.0773648 19.4728144,-34.1167559 19.4561514,-34.1556339 19.4389847,-34.1939671 19.4212786,-34.2317234 19.4029976,-34.2688708 19.3841059,-34.3053773 19.364568,-34.3412112 19.3443482,-34.3763402 19.3234108,-34.4107326 19.3234108,-34.4107326 18.7919746,-34.4240273 18.7919746,-34.4240273 18.4846549,-34.4314488 18.4846549,-34.4314488 17.8848653,-34.4453909 17.2846581,-34.4586522 16.6844493,-34.4712535 16.0846549,-34.4832156 16.0846549,-34.4832156 15.79031,-34.4888637 15.79031,-34.4888637 15.1707242,-34.5002922 14.8618118,-34.5057635 14.5535712,-34.5110769 14.2460664,-34.5162354 13.9393609,-34.5212419 13.6335186,-34.5260995 13.3286031,-34.5308111 13.0246783,-34.5353796 12.7218078,-34.5398082 12.1187649,-34.5482667 11.8166188,-34.5523292 11.5136192,-34.5562885 11.209801,-34.5601458 10.9051992,-34.563902 10.5998485,-34.5675582 10.2937838,-34.5711153 9.9870401,-34.5745745 9.6796521,-34.5779367 9.0630831,-34.5843743 8.4443557,-34.5904362 7.8237488,-34.5961306 7.2015415,-34.6014658 6.5780128,-34.6064498 5.9534416,-34.6110908 5.9534416,-34.6110908 5.6513216,-34.6132134 5.6513216,-34.6132134 4.4513139,-34.6208901 3.2513216,-34.6274224 3.2513216,-34.6274224 2.9527318,-34.6288788 2.9527318,-34.6288788 2.2586132,-34.6320148 1.5655848,-34.6348079 0.8740286,-34.6372708 0.1843266,-34.639416 -0.1597097,-34.6403734 -0.5031391,-34.641256 -0.845914,-34.6420656 -1.1879866,-34.6428036 -1.5293091,-34.6434716 -1.8698338,-34.6440711 -2.2095129,-34.6446038 -2.5482987,-34.6450713 -2.5482987,-34.6450713 -2.8486784,-34.6454332 -2.8486784,-34.6454332 -3.9486953,-34.6463489 -5.0486784,-34.6466469 -5.2486784,-34.6466437 -5.2486784,-34.6466437 -5.5487022,-34.6466268 -5.5487022,-34.6466268 -6.1599832,-34.6465467 -6.7728473,-34.646403 -7.3870466,-34.6461933 -8.0023333,-34.6459152 -9.2351782,-34.6451441 -10.4693999,-34.6440698 -11.7030164,-34.642673 -12.3189783,-34.6418474 -12.9340456,-34.6409339 -13.5479706,-34.6399298 -14.1605055,-34.6388329 -14.7714053,-34.6376406 -15.3826609,-34.6363457 -15.3826609,-34.6363457 -15.6820117,-34.6356732 -15.6820117,-34.6356732 -18.0820117,-34.6293068 -18.0820117,-34.6293068 -18.3829354,-34.6283783 -18.3829354,-34.6283783 -19.2047736,-34.6256829 -19.2047736,-34.6256829 -19.2350829,-34.5934937 -19.2642894,-34.5601653 -19.2924395,-34.5257561 -19.3195792,-34.4903243 -19.3457552,-34.4539278 -19.371055,-34.4165626 -19.3955493,-34.3782341 -19.4192794,-34.3389866 -19.4422862,-34.2988647 -19.4646111,-34.2579126 -19.486295,-34.2161746 -19.5073793,-34.1736952 -19.527905,-34.1305187 -19.5479134,-34.0866895 -19.5674454,-34.0422519 -19.5865427,-33.9972493 -19.6052511,-33.9517107 -19.6236121,-33.9056727 -19.6594512,-33.812264 -19.6943787,-33.7173531 -19.728713,-33.6212701 -19.7968759,-33.4269078 -19.8313415,-33.3292885 -19.8664879,-33.2318172 -19.9026336,-33.1348239 -19.9400969,-33.0386386 -19.9791899,-32.9436065 -19.9994263,-32.8966705 -20.0201722,-32.8501781 -20.041469,-32.8041623 -20.063358,-32.7586559 -20.0858803,-32.7136918 -20.1090774,-32.6693029 -20.1329905,-32.6255221 -20.1576609,-32.5823823 -20.1831298,-32.5399164 -20.2094386,-32.4981573 -20.2366285,-32.4571378 -20.2647408,-32.4168909 -20.2938168,-32.3774495 -20.3238844,-32.3388633 -20.3548118,-32.3013662 -20.3865788,-32.2650212 -20.4192154,-32.2298246 -20.4527513,-32.1957726 -20.4872167,-32.1628615 -20.5226413,-32.1310875 -20.5590552,-32.100447 -20.5964884,-32.0709361 -20.6349706,-32.0425513 -20.674532,-32.0152886 -20.7152024,-31.9891445 -20.7570117,-31.9641152 A1.25,1.25 60 0,1 -22.0070117,-31.9641152 L-22.0070117,-31.9641152 -22.0497924,-31.9896305 -22.0915229,-32.0161791 -22.1322191,-32.0437814 -22.1718966,-32.0724579 -22.2105714,-32.1022292 -22.248259,-32.1331158 -22.2849754,-32.1651383 -22.3207361,-32.1983171 -22.3555571,-32.2326728 -22.389454,-32.2682259 -22.4224426,-32.3049969 -22.4545387,-32.3430064 -22.4856656,-32.3821545 -22.5155824,-32.422081 -22.5443189,-32.4627304 -22.5719231,-32.5040696 -22.5984432,-32.5460653 -22.6239273,-32.5886843 -22.6484235,-32.6318935 -22.6719798,-32.6756596 -22.6946443,-32.7199495 -22.7164652,-32.7647299 -22.7374906,-32.8099678 -22.7577685,-32.8556298 -22.7773487,-32.9016888 -22.7962836,-32.9481287 -22.8146195,-32.9949116 -22.8324023,-33.0419981 -22.8664922,-33.1369232 -22.8989202,-33.2325873 -22.9300534,-33.3286737 -22.9602587,-33.4248659 -23.0193538,-33.6163008 -23.0489774,-33.7109102 -23.0791412,-33.8043588 -23.1102121,-33.8963299 -23.1262023,-33.9416624 -23.142557,-33.9865068 -23.1593219,-34.0308235 -23.1765468,-34.0745841 -23.1942847,-34.1177667 -23.2125834,-34.1603301 -23.2314905,-34.2022326 -23.2510538,-34.2434328 -23.2713207,-34.2838889 -23.292339,-34.3235595 -23.3141563,-34.362403 -23.3368202,-34.4003778 -23.3603784,-34.4374422 -23.3848785,-34.4735548 -23.4103677,-34.5086735 -23.4368602,-34.542713 -23.4643788,-34.5756104 -23.4929677,-34.6073338 -23.4929677,-34.6073338 -23.8836048,-34.6052566 -23.8836048,-34.6052566 -24.1820117,-34.6036184 -24.1820117,-34.6036184 -25.381987,-34.5965612 -26.5820117,-34.5886973 -26.5820117,-34.5886973 -26.8840992,-34.5865815 -26.8840992,-34.5865815 -27.2130483,-34.584213 -27.5407314,-34.5817851 -27.8671359,-34.5792968 -28.1922493,-34.5767469 -28.5160592,-34.5741342 -28.8385528,-34.5714576 -29.1597177,-34.5687158 -29.4795414,-34.5659078 -29.7980113,-34.5630323 -30.1151148,-34.5600883 -30.4308394,-34.5570744 -30.7451726,-34.5539896 -31.0581018,-34.5508327 -31.3696145,-34.5476025 -31.6796982,-34.5442978 -31.9883402,-34.5409175 -32.2955281,-34.5374605 -32.6012492,-34.5339255 -32.9054912,-34.5303113 -33.2082413,-34.5266169 -33.5094871,-34.522841 -33.8092161,-34.5189825 -34.1074156,-34.5150401 -34.4040732,-34.5110129 -34.6991763,-34.5068995 -34.9927123,-34.5026988 -35.2846688,-34.4984096 -35.5750331,-34.4940308 -35.8637927,-34.4895612 -36.1509351,-34.4849996 -36.4364478,-34.4803449 -36.7203181,-34.4755959 -36.7203181,-34.4755959 -37.0153451,-34.4705278 -37.0153451,-34.4705278 -37.614819,-34.4597935 -38.2152827,-34.4484221 -38.8157777,-34.436387 -39.4153451,-34.4236615 -39.4153451,-34.4236615 -39.7219424,-34.4168637 -39.7219424,-34.4168637 -39.9086963,-34.4126222 -40.0945454,-34.4083233 -40.2794852,-34.4039664 -40.4635112,-34.399551 -40.646619,-34.3950768 -40.8288041,-34.3905431 -41.010062,-34.3859496 -41.1903883,-34.3812957 -41.3697785,-34.376581 -41.548228,-34.371805 -41.7257326,-34.3669673 -41.9022876,-34.3620673 -42.0778886,-34.3571047 -42.2525311,-34.3520788 -42.4262108,-34.3469894 -42.598923,-34.3418358 -42.7706633,-34.3366176 -42.9414273,-34.3313343 -43.1112105,-34.3259855 -43.2800084,-34.3205707 -43.4478165,-34.3150894 -43.6146304,-34.3095411 -43.7804456,-34.3039254 -43.9452577,-34.2982418 -44.1090621,-34.2924899 -44.2718544,-34.286669 -44.4336302,-34.2807789 -44.5943848,-34.274819 -44.754114,-34.2687888 -44.9128132,-34.2626878 -45.0704779,-34.2565157 -45.2271037,-34.2502718 -45.2271037,-34.2502718 -45.5153451,-34.2384801 -45.5153451,-34.2384801 -45.9149399,-34.2214598 -46.3158144,-34.203552z"
       transform="matrix(1,0,0,-1,64.0486784,0.4533531)"
       fill="rgb(255,255,255)"
       stroke="rgb(0,0,0)"
       stroke-width="0.0010cm"
       stroke-linecap="round"
       stroke-linejoin="round"
       id="path20"
       style="fill:none;fill-opacity:1;stroke:#000000;stroke-opacity:1;stroke-width:0.1;stroke-dasharray:none" /></g></svg>
