<?xml version="1.0" encoding="UTF-8" standalone="no"?>
<!-- Generator: Fusion 360, Shaper Origin Export Add-In, Version 1.8.0  -->

<svg
   shaper:fusionaddin="version:1.8.0"
   width="36cm"
   height="21.2633333cm"
   version="1.1"
   x="0cm"
   y="0cm"
   viewBox="0 0 36 21.2633333"
   enable-background="new 0 0 36 21.2633333"
   xml:space="preserve"
   id="svg6"
   sodipodi:docname="Topplate_1_Faces.svg"
   inkscape:version="1.2.2 (732a01da63, 2022-12-09)"
   xmlns:inkscape="http://www.inkscape.org/namespaces/inkscape"
   xmlns:sodipodi="http://sodipodi.sourceforge.net/DTD/sodipodi-0.dtd"
   xmlns="http://www.w3.org/2000/svg"
   xmlns:svg="http://www.w3.org/2000/svg"
   xmlns:shaper="http://www.shapertools.com/namespaces/shaper"><defs
     id="defs10" /><sodipodi:namedview
     id="namedview8"
     pagecolor="#505050"
     bordercolor="#eeeeee"
     borderopacity="1"
     inkscape:showpageshadow="0"
     inkscape:pageopacity="0"
     inkscape:pagecheckerboard="0"
     inkscape:deskcolor="#505050"
     inkscape:document-units="cm"
     showgrid="false"
     inkscape:zoom="0.68079488"
     inkscape:cx="547.15453"
     inkscape:cy="271.00674"
     inkscape:window-width="1920"
     inkscape:window-height="991"
     inkscape:window-x="-9"
     inkscape:window-y="-9"
     inkscape:window-maximized="1"
     inkscape:current-layer="svg6" /><g
     id="g9812"><path
       d="m 0,19.863333 a 1.4,1.4 0 0 0 1.4,1.4 H 5 v 0 l 0.03919,-3.58e-4 0.03874,-0.0011 0.03829,-0.0018 0.03784,-0.0025 0.0374,-0.0032 0.03695,-0.0039 0.03651,-0.0046 0.03607,-0.0053 0.03563,-0.006 0.03519,-0.0067 0.03476,-0.0074 0.03434,-0.0081 0.03391,-0.0088 0.03349,-0.0094 0.03308,-0.01009 0.03267,-0.01074 0.03226,-0.01138 0.03186,-0.01202 0.03147,-0.01265 0.03108,-0.01326 0.0307,-0.01387 0.03033,-0.01447 0.02996,-0.01506 0.02959,-0.01563 0.02924,-0.0162 0.02889,-0.01675 0.02855,-0.0173 0.02821,-0.01783 0.02789,-0.01835 0.02757,-0.01886 0.0542,-0.03919 0.05302,-0.04108 0.0519,-0.04285 0.05085,-0.04453 0.04987,-0.04609 0.04896,-0.04754 0.04812,-0.04888 0.04735,-0.0501 0.04666,-0.0512 0.04604,-0.05219 0.0455,-0.05305 0.04503,-0.0538 0.04464,-0.05441 0.08842,-0.110197 0.08779,-0.111193 0.08779,-0.111192 0.08842,-0.110198 0.04464,-0.05441 0.04503,-0.0538 0.04549,-0.05305 0.04604,-0.05219 0.04666,-0.0512 0.04735,-0.0501 0.04812,-0.04888 0.04896,-0.04754 0.04987,-0.04609 0.05085,-0.04453 0.0519,-0.04285 0.05302,-0.04108 0.0542,-0.03919 0.02757,-0.01886 0.02789,-0.01835 0.02821,-0.01783 0.02855,-0.0173 0.02889,-0.01675 0.02924,-0.0162 0.02959,-0.01563 0.02995,-0.01506 0.03033,-0.01447 0.0307,-0.01387 0.03108,-0.01326 0.03147,-0.01264 0.03186,-0.01202 0.03226,-0.01138 0.03267,-0.01074 0.03308,-0.01009 0.03349,-0.0094 0.03391,-0.0088 0.03434,-0.0081 0.03476,-0.0074 0.03519,-0.0067 0.03563,-0.006 0.03607,-0.0053 0.03651,-0.0046 0.03695,-0.0039 0.0374,-0.0032 0.03784,-0.0025 0.03829,-0.0018 0.03874,-0.0011 0.03919,-5.3e-4 h 22.1 v 0 l 0.03836,3.18e-4 0.03802,9.55e-4 0.03767,0.0016 0.03733,0.0022 0.037,0.0029 0.03666,0.0035 0.03632,0.0041 0.03599,0.0047 0.03565,0.0054 0.03532,0.006 0.035,0.0066 0.03467,0.0072 0.03435,0.0078 0.03403,0.0084 0.03371,0.009 0.0334,0.0096 0.03309,0.01015 0.03278,0.01072 0.03248,0.01129 0.03218,0.01185 0.03188,0.0124 0.03159,0.01294 0.06234,0.02747 0.06123,0.02953 0.06016,0.03152 0.05914,0.03344 0.05815,0.03527 0.05721,0.03703 0.05631,0.0387 0.05547,0.04028 0.05466,0.04178 0.05391,0.04318 0.05321,0.04449 0.05256,0.04571 0.05196,0.04683 0.05141,0.04785 0.05092,0.04877 0.05048,0.04959 0.05009,0.05031 0.09925,0.102362 0.09837,0.104007 0.195883,0.209622 0.0984,0.103949 0.09931,0.102267 0.05013,0.05025 0.05052,0.04952 0.05096,0.04869 0.05146,0.04776 0.05201,0.04673 0.05262,0.0456 0.05327,0.04438 0.05398,0.04306 0.05474,0.04164 0.05554,0.04014 0.0564,0.03855 0.0573,0.03687 0.05824,0.03511 0.05923,0.03326 0.06026,0.03134 0.06133,0.02934 0.06244,0.02727 0.03165,0.01284 0.03194,0.01229 0.03223,0.01174 0.03253,0.01118 0.03284,0.01062 0.03314,0.01004 0.03345,0.0095 0.03377,0.0089 0.03409,0.0083 0.03441,0.0077 0.03473,0.0071 0.03506,0.0065 0.03539,0.0059 0.03572,0.0052 v 0 l 0.03707,0.0046 0.03718,0.0036 0.03726,0.0026 0.03731,0.0016 0.03735,6.12e-4 0.03735,-3.81e-4 0.03732,-0.0014 0.03728,-0.0024 0.0372,-0.0033 0.03709,-0.0043 0.03697,-0.0053 0.03681,-0.0063 0.03663,-0.0073 0.03642,-0.0083 0.03618,-0.0093 0.03592,-0.01022 0.03564,-0.01117 0.03533,-0.01212 0.035,-0.01305 0.03464,-0.01398 0.03425,-0.01489 0.03384,-0.0158 0.03341,-0.01669 0.03295,-0.01758 0.03247,-0.01845 0.03196,-0.01932 0.03143,-0.02017 0.03088,-0.021 0.03031,-0.02182 0.02972,-0.02262 0.02911,-0.02341 0.02848,-0.02417 0.02782,-0.02492 0.02715,-0.02565 0.02646,-0.02636 0.02575,-0.02705 0.02502,-0.02773 0.02426,-0.02839 0.02349,-0.02903 0.0227,-0.02965 0.0219,-0.03025 0.02109,-0.03083 0.02026,-0.03138 0.01942,-0.0319 0.01857,-0.03241 0.0177,-0.03289 0.01682,-0.03335 0.01593,-0.03378 0.01502,-0.0342 0.0141,-0.03458 0.01317,-0.03495 0.01222,-0.03529 0.01127,-0.03561 0.01032,-0.03589 0.0093,-0.03616 0.0084,-0.03639 0.0074,-0.03661 0.0064,-0.03679 0.0055,-0.03695 0.0045,-0.03708 0.0035,-0.03719 0.0025,-0.03727 0.0015,-0.03732 5.02e-4,-0.03735 v -1.893693 0 l -5.44e-4,-0.03106 -0.0016,-0.03016 -0.0027,-0.02925 -0.0038,-0.02836 -0.0048,-0.02747 -0.0059,-0.02659 -0.0069,-0.02572 -0.008,-0.02485 -0.009,-0.024 -0.01,-0.02316 -0.01091,-0.02233 -0.01185,-0.02151 -0.01276,-0.02071 -0.01365,-0.01991 -0.01452,-0.01914 -0.01535,-0.01837 -0.01616,-0.01762 -0.01695,-0.01688 -0.0177,-0.01616 -0.01842,-0.01545 -0.01912,-0.01475 -0.01979,-0.01406 -0.02042,-0.01339 -0.02103,-0.01273 -0.02161,-0.01208 -0.02216,-0.01144 -0.02268,-0.01082 -0.02317,-0.0102 -0.02363,-0.0096 -0.02406,-0.009 -0.02446,-0.0084 -0.02484,-0.0078 -0.02519,-0.0072 -0.02551,-0.0067 -0.0258,-0.0061 -0.02607,-0.0055 -0.05284,-0.0094 -0.0536,-0.0072 -0.05418,-0.005 -0.05457,-0.0028 -0.05479,-5.79e-4 -0.05485,0.0016 -0.05477,0.0039 -0.05455,0.0061 -0.05421,0.0084 -0.05376,0.01076 -0.02668,0.0063 -0.02654,0.0069 -0.02639,0.0075 -0.02623,0.0081 -0.02606,0.0087 -0.02589,0.0093 -0.02572,0.0099 -0.02554,0.0105 a 0.711,0.711 0 1 1 0,-1.30898 v 0 l 0.02797,0.01156 0.028,0.01096 0.02803,0.01035 0.02806,0.0098 0.05619,0.0177 0.05625,0.01532 0.05625,0.01297 0.05619,0.01064 0.05606,0.0083 0.05583,0.006 0.0555,0.0038 0.05505,0.0015 0.05448,-8.09e-4 0.02699,-0.0013 0.02679,-0.0018 0.02658,-0.0024 0.02635,-0.003 0.0261,-0.0036 0.02582,-0.0042 0.02553,-0.0048 0.02521,-0.0054 0.02488,-0.006 0.02452,-0.0066 0.02414,-0.0073 0.02373,-0.0079 0.0233,-0.0086 0.02285,-0.0093 0.02237,-0.0099 0.02187,-0.01062 0.02134,-0.01133 0.02079,-0.01205 0.02021,-0.01279 0.0196,-0.01354 0.01897,-0.01431 0.01831,-0.01509 0.01763,-0.01589 0.01692,-0.01671 0.01619,-0.01754 0.01543,-0.01839 0.01465,-0.01926 0.01384,-0.02015 0.01301,-0.02105 0.01216,-0.02197 0.01128,-0.02291 0.01038,-0.02386 0.0095,-0.02483 0.0085,-0.02581 0.0076,-0.02681 0.0066,-0.02782 0.0056,-0.02884 0.0046,-0.02987 0.0036,-0.03091 0.0026,-0.03196 0.0016,-0.03301 5.17e-4,-0.03407 v -10.433333 0 l -5.45e-4,-0.03106 -0.0016,-0.03015 -0.0027,-0.02926 -0.0038,-0.02836 -0.0048,-0.02747 -0.0059,-0.02659 -0.0069,-0.02572 -0.008,-0.02485 -0.009,-0.024 -0.0099,-0.02316 -0.01091,-0.02233 -0.01185,-0.02151 -0.01276,-0.0207 -0.01365,-0.01991 -0.01452,-0.01914 -0.01535,-0.01837 -0.01616,-0.01762 -0.01695,-0.01688 -0.0177,-0.01616 -0.01842,-0.01545 -0.01912,-0.01475 -0.01979,-0.01406 -0.02042,-0.01339 -0.02103,-0.01273 -0.02161,-0.01208 -0.02216,-0.01144 -0.02268,-0.01082 -0.02317,-0.0102 -0.02363,-0.0096 -0.02406,-0.009 -0.02446,-0.0084 -0.02484,-0.0078 -0.02519,-0.0072 -0.02551,-0.0067 -0.0258,-0.0061 -0.02607,-0.0055 -0.05284,-0.0094 -0.0536,-0.0072 -0.05418,-0.005 -0.05457,-0.0028 -0.05479,-5.79e-4 -0.05485,0.0016 -0.05477,0.0039 -0.05455,0.0061 -0.05421,0.0084 -0.05376,0.01076 -0.02668,0.0063 -0.02654,0.0069 -0.02639,0.0075 -0.02623,0.0081 -0.02606,0.0087 -0.02589,0.0093 -0.02572,0.0099 -0.02554,0.0105 a 0.711,0.711 0 1 1 0,-1.30898 v 0 l 0.02554,0.0105 0.02572,0.0099 0.02589,0.0093 0.02606,0.0087 0.02623,0.0081 0.02639,0.0075 0.02654,0.0069 0.02668,0.0063 0.05376,0.01077 0.05421,0.0084 0.05455,0.0061 0.05477,0.0039 0.05485,0.0016 0.05479,-5.79e-4 0.05457,-0.0028 0.05418,-0.005 0.0536,-0.0072 0.05284,-0.0094 0.02607,-0.0055 0.0258,-0.0061 0.02551,-0.0067 0.02519,-0.0072 0.02484,-0.0078 0.02446,-0.0084 0.02406,-0.009 0.02363,-0.0096 0.02317,-0.0102 0.02268,-0.01082 0.02216,-0.01144 0.02161,-0.01208 0.02103,-0.01273 0.02042,-0.01339 0.01979,-0.01407 0.01912,-0.01475 0.01842,-0.01545 0.0177,-0.01616 0.01695,-0.01688 0.01616,-0.01762 0.01535,-0.01837 0.01452,-0.01914 0.01365,-0.01991 0.01276,-0.02071 0.01185,-0.02151 0.01091,-0.02233 0.0099,-0.02316 0.009,-0.024 0.008,-0.02485 0.0069,-0.02572 0.0059,-0.02659 0.0048,-0.02747 0.0038,-0.02836 0.0027,-0.02926 0.0016,-0.03015 5.45e-4,-0.03106 v -2.73 h -1.8 v 0 l -0.07653,9.46e-4 -0.07627,0.0028 -0.07601,0.0047 -0.07576,0.0064 -0.07552,0.0081 -0.0753,0.0098 -0.07509,0.01125 -0.07489,0.01262 -0.07472,0.01387 -0.07457,0.01497 -0.07443,0.01593 -0.07432,0.01674 -0.148388,0.03527 -0.148204,0.03658 -0.148205,0.03658 -0.148387,0.03527 -0.07432,0.01674 -0.07443,0.01593 -0.07457,0.01497 -0.07472,0.01387 -0.07489,0.01262 -0.07509,0.01125 -0.0753,0.0098 -0.07552,0.0081 -0.07576,0.0064 -0.07601,0.0047 -0.07627,0.0028 -0.07653,9.46e-4 H 7.2 v 0 L 7.09885,0.379089 6.997898,0.376289 6.89714,0.371589 6.796568,0.365189 6.696176,0.357089 6.595953,0.347289 6.495887,0.336039 6.395967,0.323419 6.296177,0.309549 6.196507,0.294579 6.096937,0.278649 5.997447,0.261909 5.798658,0.226639 5.600008,0.190059 5.401357,0.153479 5.202569,0.118209 5.103079,0.101469 5.003509,0.085539 4.903829,0.070569 4.804039,0.056699 4.704119,0.044079 4.604053,0.032829 4.503829,0.023029 4.403437,0.014929 4.302866,0.008529 4.202108,0.003829 4.101155,0.001029 4.000006,8.3e-5 h -4 v 2.73 0 l 5.17e-4,0.03407 0.0015,0.03301 0.0026,0.03196 0.0036,0.03091 0.0046,0.02987 0.0056,0.02884 0.0066,0.02782 0.0076,0.02681 0.0085,0.02581 0.0095,0.02483 0.01038,0.02386 0.01128,0.02291 0.01216,0.02197 0.01301,0.02105 0.01384,0.02015 0.01465,0.01926 0.01543,0.01839 0.01619,0.01754 0.01692,0.01671 0.01763,0.01589 0.01832,0.01509 0.01897,0.01431 0.0196,0.01354 0.02021,0.01279 0.02079,0.01205 0.02134,0.01133 0.02187,0.01062 0.02237,0.0099 0.02285,0.0093 0.0233,0.0086 0.02373,0.0079 0.02414,0.0073 0.02452,0.0066 0.02488,0.006 0.02521,0.0054 0.02553,0.0048 0.02582,0.0042 0.02609,0.0036 0.02635,0.003 0.02658,0.0024 0.02679,0.0018 0.02699,0.0013 0.05448,8.09e-4 0.05505,-0.0015 0.0555,-0.0038 0.05583,-0.006 0.05606,-0.0083 0.0562,-0.01064 0.05625,-0.01297 0.05625,-0.01532 0.05619,-0.0177 0.02806,-0.0098 0.02803,-0.01035 0.028,-0.01096 0.02797,-0.01156 a 0.711,0.711 0 1 1 0,1.30898 v 0 l -0.02554,-0.0105 -0.02572,-0.0099 -0.02589,-0.0093 -0.02606,-0.0087 -0.02623,-0.0081 -0.02639,-0.0075 -0.02654,-0.0069 -0.02668,-0.0063 -0.05376,-0.01076 -0.0542,-0.0084 -0.05455,-0.0061 -0.05477,-0.0039 -0.05485,-0.0016 -0.05479,5.79e-4 -0.05457,0.0028 -0.05418,0.005 -0.0536,0.0072 -0.05284,0.0094 -0.02607,0.0055 -0.0258,0.0061 -0.02551,0.0067 -0.02519,0.0072 -0.02484,0.0078 -0.02446,0.0084 -0.02406,0.009 -0.02363,0.0096 -0.02317,0.0102 -0.02268,0.01082 -0.02216,0.01144 -0.02161,0.01208 -0.02103,0.01273 -0.02042,0.01339 -0.01979,0.01406 -0.01912,0.01475 -0.01842,0.01545 -0.0177,0.01616 -0.01694,0.01688 -0.01616,0.01762 -0.01535,0.01837 -0.01452,0.01914 -0.01365,0.01991 -0.01276,0.0207 -0.01185,0.02151 -0.01091,0.02233 -0.0099,0.02316 -0.009,0.024 -0.008,0.02485 -0.0069,0.02572 -0.0059,0.02659 -0.0049,0.02747 -0.0038,0.02836 -0.0027,0.02926 -0.0016,0.03015 -5.44e-4,0.03106 v 10.433333 0 l 5.17e-4,0.03407 0.0015,0.03301 0.0026,0.03196 0.0036,0.03091 0.0046,0.02987 0.0056,0.02884 0.0066,0.02782 0.0076,0.02681 0.0085,0.02581 0.0095,0.02483 0.01038,0.02386 0.01128,0.02291 0.01216,0.02197 0.01301,0.02105 0.01384,0.02015 0.01465,0.01926 0.01543,0.01839 0.01619,0.01754 0.01692,0.01671 0.01763,0.01589 0.01832,0.01509 0.01897,0.01431 0.0196,0.01354 0.02021,0.01279 0.02079,0.01205 0.02134,0.01133 0.02187,0.01062 0.02237,0.0099 0.02285,0.0093 0.0233,0.0086 0.02373,0.0079 0.02414,0.0073 0.02452,0.0066 0.02488,0.006 0.02521,0.0054 0.02553,0.0048 0.02582,0.0042 0.02609,0.0036 0.02635,0.003 0.02658,0.0024 0.02679,0.0018 0.02699,0.0013 0.05448,8.09e-4 0.05505,-0.0015 0.0555,-0.0038 0.05583,-0.006 0.05606,-0.0083 0.0562,-0.01064 0.05625,-0.01297 0.05625,-0.01532 0.05619,-0.0177 0.02806,-0.0098 0.02803,-0.01035 0.028,-0.01096 0.02797,-0.01156 a 0.711,0.711 0 1 1 0,1.308981 v 0 l -0.02907,-0.01204 -0.02903,-0.01144 -0.029,-0.01084 -0.02896,-0.01024 -0.0578,-0.01869 -0.05761,-0.01632 -0.05738,-0.01397 -0.0571,-0.01163 -0.05674,-0.0093 -0.05631,-0.007 -0.05579,-0.0047 -0.02767,-0.0015 -0.0275,-9.13e-4 -0.02732,-3.33e-4 -0.02713,2.49e-4 -0.02691,8.35e-4 -0.02669,0.0014 -0.02644,0.002 -0.02618,0.0026 -0.0259,0.0032 -0.0256,0.0038 -0.02529,0.0045 -0.02495,0.0051 -0.02459,0.0057 -0.02422,0.0064 -0.02382,0.007 -0.0234,0.0077 -0.02296,0.0084 -0.02249,0.0091 -0.02201,0.0098 -0.0215,0.01054 -0.02097,0.01128 -0.02041,0.01204 -0.01983,0.01281 -0.01923,0.01361 -0.0186,0.01442 -0.01795,0.01525 -0.01727,0.01609 -0.01657,0.01696 -0.01585,0.01784 -0.0151,0.01874 -0.01433,0.01967 -0.01354,0.02061 -0.01272,0.02157 -0.01188,0.02254 -0.01102,0.02354 -0.01014,0.02455 -0.0092,0.02558 -0.0083,0.02663 -0.0074,0.02769 -0.0064,0.02877 -0.0055,0.02986 -0.0045,0.03096 -0.0035,0.03207 -0.0025,0.03318 -0.0015,0.03431 -5.04e-4,0.03544 z"
       fill="rgb(0,0,0)"
       stroke-linecap="round"
       stroke-linejoin="round"
       id="path2"
       style="fill:none;stroke:#000000;stroke-width:0.1;stroke-dasharray:none;stroke-opacity:1" /><path
       d="m 17.05,12.73 a 4.55,4.55 0 1 0 9.1,0 4.55,4.55 0 1 0 -9.1,0 z"
       fill="rgb(255,255,255)"
       stroke="rgb(0,0,0)"
       stroke-width="0.0010cm"
       stroke-linecap="round"
       stroke-linejoin="round"
       id="path4"
       style="fill:none;stroke:#0400ff;stroke-width:0.1;stroke-dasharray:none;stroke-opacity:1" /></g></svg>
