<?xml version="1.0" encoding="UTF-8" standalone="no"?>
<!-- Generator: Fusion 360, Shaper Origin Export Add-In, Version 1.8.0  -->

<svg
   shaper:fusionaddin="version:1.8.0"
   width="36cm"
   height="21.2633333cm"
   version="1.1"
   x="0cm"
   y="0cm"
   viewBox="0 0 36 21.2633333"
   enable-background="new 0 0 36 21.2633333"
   xml:space="preserve"
   id="svg7837"
   sodipodi:docname="Topplate_6_Faces.svg"
   inkscape:version="1.2.2 (732a01da63, 2022-12-09)"
   xmlns:inkscape="http://www.inkscape.org/namespaces/inkscape"
   xmlns:sodipodi="http://sodipodi.sourceforge.net/DTD/sodipodi-0.dtd"
   xmlns="http://www.w3.org/2000/svg"
   xmlns:svg="http://www.w3.org/2000/svg"
   xmlns:shaper="http://www.shapertools.com/namespaces/shaper"><defs
     id="defs7841" /><sodipodi:namedview
     id="namedview7839"
     pagecolor="#505050"
     bordercolor="#eeeeee"
     borderopacity="1"
     inkscape:showpageshadow="0"
     inkscape:pageopacity="0"
     inkscape:pagecheckerboard="0"
     inkscape:deskcolor="#505050"
     inkscape:document-units="cm"
     showgrid="false"
     inkscape:zoom="0.34039744"
     inkscape:cx="198.29761"
     inkscape:cy="568.45316"
     inkscape:window-width="1920"
     inkscape:window-height="991"
     inkscape:window-x="-9"
     inkscape:window-y="-9"
     inkscape:window-maximized="1"
     inkscape:current-layer="svg7837" /><g
     id="g8325"
     style="stroke-width:0.1;stroke-dasharray:none"><path
       d="M-26.9742726,-3.8186404 L-26.9742726,-3.8186404 -26.9737536,-3.8565923 -26.9722001,-3.8945158 -26.9696168,-3.9323834 -26.9660086,-3.9701675 -26.9613802,-4.0078406 -26.9557366,-4.0453753 -26.9490826,-4.0827438 -26.9414231,-4.1199188 -26.9327628,-4.1568726 -26.9231066,-4.1935778 -26.9124593,-4.2300068 -26.9008259,-4.266132 -26.8882111,-4.3019259 -26.8746223,-4.337362 -26.8600728,-4.3724155 -26.8445765,-4.4070622 -26.8281474,-4.4412776 -26.8107993,-4.4750375 -26.7925462,-4.5083174 -26.7734022,-4.5410931 -26.753381,-4.5733401 -26.7324968,-4.6050342 -26.7107633,-4.636151 -26.6881947,-4.6666661 -26.6648047,-4.6965553 -26.6406075,-4.7257941 -26.6156202,-4.7543609 -26.5898638,-4.7822374 -26.5633598,-4.8094054 -26.5361295,-4.8358468 -26.5081944,-4.8615435 -26.4795757,-4.8864773 -26.450295,-4.9106301 -26.4203735,-4.9339838 -26.3898326,-4.9565203 -26.3586938,-4.9782214 -26.3269784,-4.999069 -26.2947079,-5.0190449 -26.2619036,-5.0381315 -26.22859,-5.0563152 -26.1947931,-5.0735863 -26.1605394,-5.0899349 -26.1258551,-5.1053514 -26.0907665,-5.1198259 -26.0553,-5.1333486 -26.0194818,-5.1459099 -25.9833382,-5.1574998 -25.9468956,-5.1681086 -25.9101802,-5.1777266 -25.8732183,-5.186344 -25.8360363,-5.1939509 -25.7986606,-5.2005385 -25.7611186,-5.2061038 -25.7234384,-5.2106464 -25.6856479,-5.2141662 -25.6477751,-5.2166628 -25.6098478,-5.2181359 -25.5718941,-5.2185854 -25.5339419,-5.2180109 -25.4960192,-5.2164122 -25.458154,-5.213789 -25.4203741,-5.210141 -25.3827076,-5.2054679 -25.3451823,-5.1997696 -25.3451823,-5.1997696 -25.3110013,-5.1937754 -25.2771005,-5.1871819 -25.2434777,-5.1799936 -25.2101307,-5.1722155 -25.1770569,-5.1638531 -25.1442538,-5.1549119 -25.1117184,-5.1453979 -25.0794478,-5.1353175 -25.0474389,-5.1246774 -25.0156885,-5.1134843 -24.9529496,-5.0894688 -24.8912026,-5.0633318 -24.830417,-5.0351383 -24.7705609,-5.0049568 -24.7116006,-4.9728595 -24.6535009,-4.9389211 -24.5962257,-4.9032196 -24.5397371,-4.8658353 -24.4839966,-4.8268511 -24.4289643,-4.7863523 -24.3745992,-4.7444262 -24.3208597,-4.7011621 -24.2677032,-4.6566512 -24.2150862,-4.6109861 -24.1629647,-4.5642613 -24.1112941,-4.5165722 -24.0600291,-4.4680155 -24.009124,-4.418689 -23.9585328,-4.3686911 -23.8581064,-4.2670784 -23.758376,-4.163977 -23.5594961,-3.9565318 -23.4595913,-3.8538034 -23.358875,-3.7528108 -23.3080959,-3.7032149 -23.2569744,-3.6543511 -23.2054649,-3.6063175 -23.1535218,-3.5592112 -23.1011003,-3.5131281 -23.048156,-3.4681632 -22.9946453,-3.4244096 -22.9405254,-3.3819592 -22.8857541,-3.3409021 -22.8302901,-3.3013264 -22.7740934,-3.263318 -22.7171246,-3.2269609 -22.6593458,-3.1923364 -22.60072,-3.1595234 -22.5412118,-3.1285978 -22.4807869,-3.0996329 -22.4194126,-3.0726987 -22.3570579,-3.0478614 -22.3255037,-3.0362488 -22.2936936,-3.0251836 -22.2616242,-3.0146728 -22.2292923,-3.0047235 -22.196695,-2.995342 -22.1638292,-2.9865347 -22.1306922,-2.9783075 -22.0972813,-2.970666 -22.0635942,-2.9636155 -22.0296285,-2.9571608 -21.995382,-2.9513065 -21.9608529,-2.9460568 -21.9260394,-2.9414154 -21.8909399,-2.9373857 -21.855553,-2.9339708 -21.8198775,-2.9311731 -21.7839123,-2.9289948 -21.7476568,-2.9274377 -21.7111104,-2.9265028 -21.6742726,-2.9261911 0.4257274,-2.9261911 0.4257274,-2.9261911 0.4628958,-2.9265494 0.4996965,-2.9276239 0.5361298,-2.9294136 0.5721968,-2.9319168 0.6078984,-2.9351313 0.6432362,-2.9390543 0.6782119,-2.9436825 0.7128275,-2.9490119 0.7470853,-2.9550382 0.7809878,-2.9617563 0.8145378,-2.9691608 0.8477384,-2.9772458 0.8805928,-2.9860048 0.9131046,-2.995431 0.9452775,-3.0055172 0.9771155,-3.0162555 1.0086228,-3.0276379 1.0398036,-3.0396558 1.0706627,-3.0523004 1.1012048,-3.0655623 1.1314347,-3.0794321 1.1613577,-3.0938997 1.1909788,-3.1089549 1.2203037,-3.1245872 1.2493377,-3.1407857 1.2780867,-3.1575394 1.3347528,-3.1926665 1.3903502,-3.2298749 1.4449288,-3.2690673 1.4985402,-3.3101429 1.5512378,-3.3529981 1.6030764,-3.397526 1.6541122,-3.4436173 1.7044026,-3.4911601 1.7540062,-3.5400403 1.8029825,-3.5901419 1.8513922,-3.6413472 1.8992963,-3.6935368 1.9467569,-3.7465902 1.9938363,-3.8003859 2.0405974,-3.8548013 2.133418,-3.9649986 2.2257274,-4.0761911 2.3180369,-4.1873837 2.4108575,-4.2975809 2.4576186,-4.3519964 2.504698,-4.405792 2.5521586,-4.4588455 2.6000627,-4.5110351 2.6484723,-4.5622403 2.6974487,-4.612342 2.7470523,-4.6612222 2.7973427,-4.708765 2.8483785,-4.7548563 2.9002171,-4.7993842 2.9529147,-4.8422393 3.0065261,-4.883315 3.0611047,-4.9225074 3.116702,-4.9597157 3.1733682,-4.9948429 3.2021172,-5.0115965 3.2311512,-5.0277951 3.2604761,-5.0434273 3.2900972,-5.0584826 3.3200201,-5.0729502 3.3502501,-5.0868199 3.3807921,-5.1000819 3.4116512,-5.1127265 3.4428321,-5.1247444 3.4743394,-5.1361268 3.5061774,-5.1468651 3.5383503,-5.1569512 3.5708621,-5.1663775 3.6037165,-5.1751365 3.6369171,-5.1832215 3.6704671,-5.190626 3.7043696,-5.1973441 3.7386273,-5.2033703 3.7732429,-5.2086998 3.8082186,-5.2133279 3.8435564,-5.217251 3.8792581,-5.2204655 3.915325,-5.2229687 3.9517584,-5.2247584 3.988559,-5.2258328 4.0257274,-5.2261911 7.6257274,-5.2261911 A1.4,1.4 270 0,1 9.0257274,-3.8261911 L9.0257274,-2.4261911 9.0257274,-2.4261911 9.0251833,-2.395134 9.0235526,-2.3649792 9.02084,-2.3357239 9.0170528,-2.3073637 9.0122009,-2.2798926 9.0062967,-2.2533033 8.9993545,-2.2275872 8.9913911,-2.2027349 8.9824247,-2.1787358 8.9724753,-2.1555786 8.9615646,-2.1332513 8.9497154,-2.1117413 8.9369517,-2.0910357 8.9232986,-2.0711213 8.9087818,-2.0519848 8.893428,-2.0336127 8.8772644,-2.0159915 8.8603188,-1.9991079 8.8426195,-1.9829485 8.8241953,-1.9675001 8.8050752,-1.9527498 8.7852885,-1.9386848 8.7648648,-1.9252928 8.7438335,-1.9125619 8.7222244,-1.9004805 8.700067,-1.8890377 8.6773905,-1.8782229 8.6542243,-1.8680265 8.6305973,-1.8584391 8.6065381,-1.8494522 8.5820751,-1.8410578 8.5572364,-1.8332487 8.5320496,-1.8260181 8.5065421,-1.8193601 8.4807407,-1.8132694 8.4546718,-1.8077411 8.4018346,-1.7983568 8.3482318,-1.7911834 8.294055,-1.7862079 8.2394861,-1.7834277 8.1846961,-1.7828493 8.1298445,-1.7844869 8.0750785,-1.7883618 8.0205325,-1.7945011 7.9663268,-1.802936 7.9125671,-1.8137006 7.8858832,-1.8199673 7.8593431,-1.826829 7.8329552,-1.8342897 7.8067268,-1.8423527 7.7806641,-1.8510211 7.7547717,-1.8602975 7.7290532,-1.8701838 7.7035108,-1.8806813 A0.711,0.711 292.9976802 1,0 7.7035108,-0.5717009 L7.7035108,-0.5717009 7.7290532,-0.5821985 7.7547717,-0.5920848 7.7806641,-0.6013612 7.8067268,-0.6100296 7.8329552,-0.6180926 7.8593431,-0.6255532 7.8858832,-0.632415 7.9125671,-0.6386817 7.9663268,-0.6494463 8.0205325,-0.6578812 8.0750785,-0.6640204 8.1298445,-0.6678954 8.1846961,-0.669533 8.2394861,-0.6689545 8.294055,-0.6661743 8.3482318,-0.6611989 8.4018346,-0.6540255 8.4546718,-0.6446412 8.4807407,-0.6391129 8.5065421,-0.6330221 8.5320496,-0.6263641 8.5572364,-0.6191336 8.5820751,-0.6113244 8.6065381,-0.6029301 8.6305973,-0.5939432 8.6542243,-0.5843558 8.6773905,-0.5741593 8.700067,-0.5633446 8.7222244,-0.5519017 8.7438335,-0.5398203 8.7648648,-0.5270894 8.7852885,-0.5136975 8.8050752,-0.4996325 8.8241953,-0.4848822 8.8426195,-0.4694338 8.8603188,-0.4532743 8.8772644,-0.4363907 8.893428,-0.4187696 8.9087818,-0.4003975 8.9232986,-0.381261 8.9369517,-0.3613466 8.9497154,-0.340641 8.9615646,-0.319131 8.9724753,-0.2968036 8.9824247,-0.2736464 8.9913911,-0.2496473 8.9993545,-0.224795 9.0062967,-0.199079 9.0122009,-0.1724897 9.0170528,-0.1450185 9.02084,-0.1166583 9.0235526,-0.087403 9.0251833,-0.0572483 9.0257274,-0.0261911 9.0257274,10.4071422 9.0257274,10.4071422 9.0251833,10.4381993 9.0235526,10.4683541 9.02084,10.4976094 9.0170528,10.5259696 9.0122009,10.5534408 9.0062967,10.5800301 8.9993545,10.6057461 8.9913911,10.6305984 8.9824247,10.6545975 8.9724753,10.6777547 8.9615646,10.7000821 8.9497154,10.7215921 8.9369517,10.7422977 8.9232986,10.762212 8.9087818,10.7813486 8.893428,10.7997207 8.8772644,10.8173418 8.8603188,10.8342254 8.8426195,10.8503848 8.8241953,10.8658332 8.8050752,10.8805836 8.7852885,10.8946485 8.7648648,10.9080405 8.7438335,10.9207714 8.7222244,10.9328528 8.700067,10.9442957 8.6773905,10.9551104 8.6542243,10.9653069 8.6305973,10.9748943 8.6065381,10.9838812 8.5820751,10.9922755 8.5572364,11.0000846 8.5320496,11.0073152 8.5065421,11.0139732 8.4807407,11.020064 8.4546718,11.0255922 8.4018346,11.0349765 8.3482318,11.04215 8.294055,11.0471254 8.2394861,11.0499056 8.1846961,11.0504841 8.1298445,11.0488465 8.0750785,11.0449715 8.0205325,11.0388323 7.9663268,11.0303974 7.9125671,11.0196327 7.8858832,11.0133661 7.8593431,11.0065043 7.8329552,10.9990437 7.8067268,10.9909807 7.7806641,10.9823123 7.7547717,10.9730359 7.7290532,10.9631495 7.7035108,10.952652 A0.711,0.711 292.9976802 1,0 7.7035108,12.2616324 L7.7035108,12.2616324 7.7290532,12.2511349 7.7547717,12.2412485 7.7806641,12.2319721 7.8067268,12.2233037 7.8329552,12.2152407 7.8593431,12.2077801 7.8858832,12.2009184 7.9125671,12.1946517 7.9663268,12.183887 8.0205325,12.1754521 8.0750785,12.1693129 8.1298445,12.1654379 8.1846961,12.1638003 8.2394861,12.1643788 8.294055,12.167159 8.3482318,12.1721345 8.4018346,12.1793079 8.4546718,12.1886922 8.4807407,12.1942204 8.5065421,12.2003112 8.5320496,12.2069692 8.5572364,12.2141998 8.5820751,12.2220089 8.6065381,12.2304032 8.6305973,12.2393901 8.6542243,12.2489775 8.6773905,12.259174 8.700067,12.2699888 8.7222244,12.2814316 8.7438335,12.293513 8.7648648,12.3062439 8.7852885,12.3196359 8.8050752,12.3337008 8.8241953,12.3484512 8.8426195,12.3638996 8.8603188,12.380059 8.8772644,12.3969426 8.893428,12.4145637 8.9087818,12.4329358 8.9232986,12.4520724 8.9369517,12.4719868 8.9497154,12.4926923 8.9615646,12.5142024 8.9724753,12.5365297 8.9824247,12.5596869 8.9913911,12.583686 8.9993545,12.6085383 9.0062967,12.6342543 9.0122009,12.6608437 9.0170528,12.6883148 9.02084,12.716675 9.0235526,12.7459303 9.0251833,12.7760851 9.0257274,12.8071422 9.0257274,16.0371422 5.0257274,16.0371422 5.0257274,16.0371422 4.9613949,16.0361962 4.8973773,16.0333718 4.8336683,16.0287071 4.7702578,16.022262 4.7071326,16.0141157 4.6442766,16.0043637 4.5816715,15.9931158 4.5192968,15.9804931 4.4571308,15.9666263 4.3951501,15.9516544 4.3333302,15.9357236 4.2716455,15.918986 4.1485766,15.8837196 4.0257274,15.8471422 3.9028783,15.8105648 3.7798094,15.7752984 3.7181247,15.7585608 3.6563048,15.74263 3.5943241,15.7276581 3.532158,15.7137913 3.4697834,15.7011686 3.4071783,15.6899207 3.3443223,15.6801687 3.2811971,15.6720224 3.2177866,15.6655773 3.1540776,15.6609126 3.09006,15.6580882 3.0257274,15.6571422 -22.0742726,15.6571422 -22.0742726,15.6571422 -22.1723341,15.6580882 -22.2701918,15.6609126 -22.3678496,15.6655773 -22.4653141,15.6720224 -22.5625939,15.6801687 -22.6596994,15.6899207 -22.7566425,15.7011686 -22.8534363,15.7137913 -22.9500951,15.7276581 -23.0466339,15.74263 -23.1430685,15.7585608 -23.2394156,15.7752984 -23.4319152,15.8105648 -23.6242726,15.8471422 -23.8166299,15.8837196 -24.0091295,15.918986 -24.1054766,15.9357236 -24.2019113,15.9516544 -24.29845,15.9666263 -24.3951088,15.9804931 -24.4919026,15.9931158 -24.5888457,16.0043637 -24.6859512,16.0141157 -24.783231,16.022262 -24.8806955,16.0287071 -24.9783534,16.0333718 -25.076211,16.0361962 -25.1742726,16.0371422 -26.9742726,16.0371422 -26.9742726,12.8071422 -26.9742726,12.8071422 -26.9737284,12.7760851 -26.9720977,12.7459303 -26.9693851,12.716675 -26.9655979,12.6883148 -26.960746,12.6608437 -26.9548418,12.6342543 -26.9478997,12.6085383 -26.9399362,12.583686 -26.9309698,12.5596869 -26.9210204,12.5365297 -26.9101097,12.5142024 -26.8982605,12.4926923 -26.8854968,12.4719868 -26.8718437,12.4520724 -26.8573269,12.4329358 -26.8419731,12.4145637 -26.8258095,12.3969426 -26.8088639,12.380059 -26.7911647,12.3638996 -26.7727404,12.3484512 -26.7536203,12.3337008 -26.7338337,12.3196359 -26.7134099,12.3062439 -26.6923787,12.293513 -26.6707696,12.2814316 -26.6486121,12.2699888 -26.6259356,12.259174 -26.6027694,12.2489775 -26.5791424,12.2393901 -26.5550832,12.2304032 -26.5306202,12.2220089 -26.5057815,12.2141998 -26.4805948,12.2069692 -26.4550872,12.2003112 -26.4292858,12.1942204 -26.4032169,12.1886922 -26.3503798,12.1793079 -26.2967769,12.1721345 -26.2426001,12.167159 -26.1880312,12.1643788 -26.1332412,12.1638003 -26.0783896,12.1654379 -26.0236237,12.1693129 -25.9690776,12.1754521 -25.9148719,12.183887 -25.8611123,12.1946517 -25.8344284,12.2009184 -25.8078882,12.2077801 -25.7815003,12.2152407 -25.755272,12.2233037 -25.7292092,12.2319721 -25.7033168,12.2412485 -25.6775983,12.2511349 -25.6520559,12.2616324 A0.711,0.711 112.9976802 1,0 -25.6520559,10.952652 L-25.6520559,10.952652 -25.6775983,10.9631495 -25.7033168,10.9730359 -25.7292092,10.9823123 -25.755272,10.9909807 -25.7815003,10.9990437 -25.8078882,11.0065043 -25.8344284,11.0133661 -25.8611123,11.0196327 -25.9148719,11.0303974 -25.9690776,11.0388323 -26.0236237,11.0449715 -26.0783896,11.0488465 -26.1332412,11.0504841 -26.1880312,11.0499056 -26.2426001,11.0471254 -26.2967769,11.04215 -26.3503798,11.0349765 -26.4032169,11.0255922 -26.4292858,11.020064 -26.4550872,11.0139732 -26.4805948,11.0073152 -26.5057815,11.0000846 -26.5306202,10.9922755 -26.5550832,10.9838812 -26.5791424,10.9748943 -26.6027694,10.9653069 -26.6259356,10.9551104 -26.6486121,10.9442957 -26.6707696,10.9328528 -26.6923787,10.9207714 -26.7134099,10.9080405 -26.7338337,10.8946485 -26.7536203,10.8805836 -26.7727404,10.8658332 -26.7911647,10.8503848 -26.8088639,10.8342254 -26.8258095,10.8173418 -26.8419731,10.7997207 -26.8573269,10.7813486 -26.8718437,10.762212 -26.8854968,10.7422977 -26.8982605,10.7215921 -26.9101097,10.7000821 -26.9210204,10.6777547 -26.9309698,10.6545975 -26.9399362,10.6305984 -26.9478997,10.6057461 -26.9548418,10.5800301 -26.960746,10.5534408 -26.9655979,10.5259696 -26.9693851,10.4976094 -26.9720977,10.4683541 -26.9737284,10.4381993 -26.9742726,10.4071422 -26.9742726,-0.0261911 -26.9742726,-0.0261911 -26.9737284,-0.0572483 -26.9720977,-0.087403 -26.9693851,-0.1166583 -26.9655979,-0.1450185 -26.960746,-0.1724897 -26.9548418,-0.199079 -26.9478997,-0.224795 -26.9399362,-0.2496473 -26.9309698,-0.2736464 -26.9210204,-0.2968036 -26.9101097,-0.319131 -26.8982605,-0.340641 -26.8854968,-0.3613466 -26.8718437,-0.381261 -26.8573269,-0.4003975 -26.8419731,-0.4187696 -26.8258095,-0.4363907 -26.8088639,-0.4532743 -26.7911647,-0.4694338 -26.7727404,-0.4848822 -26.7536203,-0.4996325 -26.7338337,-0.5136975 -26.7134099,-0.5270894 -26.6923787,-0.5398203 -26.6707696,-0.5519017 -26.6486121,-0.5633446 -26.6259356,-0.5741593 -26.6027694,-0.5843558 -26.5791424,-0.5939432 -26.5550832,-0.6029301 -26.5306202,-0.6113244 -26.5057815,-0.6191336 -26.4805948,-0.6263641 -26.4550872,-0.6330221 -26.4292858,-0.6391129 -26.4032169,-0.6446412 -26.3503798,-0.6540255 -26.2967769,-0.6611989 -26.2426001,-0.6661743 -26.1880312,-0.6689545 -26.1332412,-0.669533 -26.0783896,-0.6678954 -26.0236237,-0.6640204 -25.9690776,-0.6578812 -25.9148719,-0.6494463 -25.8611123,-0.6386817 -25.8344284,-0.632415 -25.8078882,-0.6255532 -25.7815003,-0.6180926 -25.755272,-0.6100296 -25.7292092,-0.6013612 -25.7033168,-0.5920848 -25.6775983,-0.5821985 -25.6520559,-0.5717009 A0.711,0.711 112.9976802 1,0 -25.6520559,-1.8806813 L-25.6520559,-1.8806813 -25.6775983,-1.8701838 -25.7033168,-1.8602975 -25.7292092,-1.8510211 -25.755272,-1.8423527 -25.7815003,-1.8342897 -25.8078882,-1.826829 -25.8344284,-1.8199673 -25.8611123,-1.8137006 -25.9148719,-1.802936 -25.9690776,-1.7945011 -26.0236237,-1.7883618 -26.0783896,-1.7844869 -26.1332412,-1.7828493 -26.1880312,-1.7834277 -26.2426001,-1.7862079 -26.2967769,-1.7911834 -26.3503798,-1.7983568 -26.4032169,-1.8077411 -26.4292858,-1.8132694 -26.4550872,-1.8193601 -26.4805948,-1.8260181 -26.5057815,-1.8332487 -26.5306202,-1.8410578 -26.5550832,-1.8494522 -26.5791424,-1.8584391 -26.6027694,-1.8680265 -26.6259356,-1.8782229 -26.6486121,-1.8890377 -26.6707696,-1.9004805 -26.6923787,-1.9125619 -26.7134099,-1.9252928 -26.7338337,-1.9386848 -26.7536203,-1.9527498 -26.7727404,-1.9675001 -26.7911647,-1.9829485 -26.8088639,-1.9991079 -26.8258095,-2.0159915 -26.8419731,-2.0336127 -26.8573269,-2.0519848 -26.8718437,-2.0711213 -26.8854968,-2.0910357 -26.8982605,-2.1117413 -26.9101097,-2.1332513 -26.9210204,-2.1555786 -26.9309698,-2.1787358 -26.9399362,-2.2027349 -26.9478997,-2.2275872 -26.9548418,-2.2533033 -26.960746,-2.2798926 -26.9655979,-2.3073637 -26.9693851,-2.3357239 -26.9720977,-2.3649792 -26.9737284,-2.395134 -26.9742726,-2.4261911 -26.9742726,-3.8186404z"
       transform="matrix(1,0,0,-1,26.9742726,16.0371422)"
       fill="rgb(0,0,0)"
       stroke-linecap="round"
       stroke-linejoin="round"
       id="path7833"
       style="fill:none;stroke:#000000;stroke-opacity:1;stroke-width:0.1;stroke-dasharray:none" /><path
       d="M-17.1242726,7.5738089 a4.55,4.55 0 1,1 9.1,0 a4.55,4.55 0 1,1 -9.1,0z"
       transform="matrix(1,0,0,-1,26.9742726,16.0371422)"
       fill="rgb(255,255,255)"
       stroke="rgb(0,0,0)"
       stroke-width="0.0010cm"
       stroke-linecap="round"
       stroke-linejoin="round"
       id="path7835"
       style="fill:none;stroke:#0000fb;stroke-opacity:1;stroke-width:0.1;stroke-dasharray:none" /></g></svg>
