<?xml version="1.0" encoding="UTF-8" standalone="no"?>
<!-- Generator: Fusion 360, Shaper Origin Export Add-In, Version 1.8.0  -->

<svg
   shaper:fusionaddin="version:1.8.0"
   width="500mm"
   height="300mm"
   version="1.1"
   x="0cm"
   y="0cm"
   viewBox="0 0 50 30"
   enable-background="new 0 0 36 23"
   xml:space="preserve"
   id="svg12"
   sodipodi:docname="base.svg"
   inkscape:version="1.2.2 (732a01da63, 2022-12-09)"
   xmlns:inkscape="http://www.inkscape.org/namespaces/inkscape"
   xmlns:sodipodi="http://sodipodi.sourceforge.net/DTD/sodipodi-0.dtd"
   xmlns="http://www.w3.org/2000/svg"
   xmlns:svg="http://www.w3.org/2000/svg"
   xmlns:shaper="http://www.shapertools.com/namespaces/shaper"><defs
     id="defs16" /><sodipodi:namedview
     id="namedview14"
     pagecolor="#505050"
     bordercolor="#eeeeee"
     borderopacity="1"
     inkscape:showpageshadow="0"
     inkscape:pageopacity="0"
     inkscape:pagecheckerboard="0"
     inkscape:deskcolor="#505050"
     inkscape:document-units="cm"
     showgrid="false"
     inkscape:zoom="0.46244566"
     inkscape:cx="896.32153"
     inkscape:cy="656.29333"
     inkscape:window-width="1920"
     inkscape:window-height="991"
     inkscape:window-x="-9"
     inkscape:window-y="-9"
     inkscape:window-maximized="1"
     inkscape:current-layer="svg12" /><g
     id="g1592"
     transform="translate(0,0.34328358)"><path
       d="M 41,2.6890547 H 9 a 2,2 0 0 0 -2,2 V 23.689055 a 2,2 0 0 0 2,2 h 32 a 2,2 0 0 0 2,-2 V 4.6890547 a 2,2 0 0 0 -2,-2 z"
       fill="rgb(0,0,0)"
       stroke-linecap="round"
       stroke-linejoin="round"
       id="path2"
       style="fill:none;stroke:#ff0000;stroke-width:0.5;stroke-dasharray:none;stroke-opacity:1" /><path
       d="m 8.2,4.6890547 a 0.55,0.55 0 1 0 1.1,0 0.55,0.55 0 1 0 -1.1,0 z"
       fill="rgb(255,255,255)"
       stroke="rgb(0,0,0)"
       stroke-width="0.0010cm"
       stroke-linecap="round"
       stroke-linejoin="round"
       id="path4"
       style="fill:none;stroke:#ff6400;stroke-width:0.5;stroke-dasharray:none;stroke-opacity:1" /><path
       d="m 40.7,23.689055 a 0.55,0.55 0 1 0 1.1,0 0.55,0.55 0 1 0 -1.1,0 z"
       fill="rgb(255,255,255)"
       stroke="rgb(0,0,0)"
       stroke-width="0.0010cm"
       stroke-linecap="round"
       stroke-linejoin="round"
       id="path6"
       style="fill:none;stroke:#ff6400;stroke-width:0.5;stroke-dasharray:none;stroke-opacity:1" /><path
       d="m 8.2,23.689055 a 0.55,0.55 0 1 0 1.1,0 0.55,0.55 0 1 0 -1.1,0 z"
       fill="rgb(255,255,255)"
       stroke="rgb(0,0,0)"
       stroke-width="0.0010cm"
       stroke-linecap="round"
       stroke-linejoin="round"
       id="path8"
       style="fill:none;stroke:#ff6400;stroke-width:0.5;stroke-dasharray:none;stroke-opacity:1" /><path
       d="m 40.7,4.6890547 a 0.55,0.55 0 1 0 1.1,0 0.55,0.55 0 1 0 -1.1,0 z"
       fill="rgb(255,255,255)"
       stroke="rgb(0,0,0)"
       stroke-width="0.0010cm"
       stroke-linecap="round"
       stroke-linejoin="round"
       id="path10"
       style="fill:none;stroke:#ff6400;stroke-width:0.5;stroke-dasharray:none;stroke-opacity:1" /></g><ellipse
     style="fill:none;stroke:#0064da;stroke-width:0.2;stroke-opacity:1;stop-color:#000000"
     id="path290"
     cx="46.936451"
     cy="27.717398"
     rx="1.6991669"
     ry="1.3350596" /><ellipse
     style="fill:none;stroke:#0097da;stroke-width:0.2;stroke-opacity:1;stop-color:#000000"
     id="path290-2"
     cx="46.936451"
     cy="24.144278"
     rx="1.6991669"
     ry="1.3350596" /><ellipse
     style="fill:none;stroke:#00c8da;stroke-width:0.2;stroke-opacity:1;stop-color:#000000"
     id="path290-2-7"
     cx="46.936451"
     cy="20.571157"
     rx="1.6991669"
     ry="1.3350596" /></svg>
