<?xml version="1.0" encoding="UTF-8" standalone="no"?>
<!-- Generator: Fusion 360, Shaper Origin Export Add-In, Version 1.8.0  -->

<svg
   shaper:fusionaddin="version:1.8.0"
   width="4.4cm"
   height="2.86cm"
   version="1.1"
   x="0cm"
   y="0cm"
   viewBox="0 0 4.4 2.86"
   enable-background="new 0 0 4.4 2.86"
   xml:space="preserve"
   id="svg2696"
   sodipodi:docname="bridge.svg"
   inkscape:version="1.2.2 (732a01da63, 2022-12-09)"
   xmlns:inkscape="http://www.inkscape.org/namespaces/inkscape"
   xmlns:sodipodi="http://sodipodi.sourceforge.net/DTD/sodipodi-0.dtd"
   xmlns="http://www.w3.org/2000/svg"
   xmlns:svg="http://www.w3.org/2000/svg"
   xmlns:shaper="http://www.shapertools.com/namespaces/shaper"><defs
     id="defs2700" /><sodipodi:namedview
     id="namedview2698"
     pagecolor="#505050"
     bordercolor="#eeeeee"
     borderopacity="1"
     inkscape:showpageshadow="0"
     inkscape:pageopacity="0"
     inkscape:pagecheckerboard="0"
     inkscape:deskcolor="#505050"
     inkscape:document-units="cm"
     showgrid="false"
     inkscape:zoom="3.7189687"
     inkscape:cx="40.199317"
     inkscape:cy="59.559523"
     inkscape:window-width="1920"
     inkscape:window-height="991"
     inkscape:window-x="-9"
     inkscape:window-y="-9"
     inkscape:window-maximized="1"
     inkscape:current-layer="svg2696" /><g
     id="g561"><path
       d="M1,-1.36 L1,-1.43 2.2,-1.43 2.2,-1.36 2.19,-1.36 2.19,-1.36 2.1742447,-1.3595654 2.1588357,-1.358262 2.1437723,-1.3560911 2.1290534,-1.3530546 2.1146774,-1.3491552 2.1006425,-1.3443964 2.0869463,-1.3387822 2.0735862,-1.3323174 2.060559,-1.3250073 2.0478614,-1.3168579 2.0354896,-1.3078759 2.0234394,-1.2980685 2.0117063,-1.2874434 2.0002855,-1.276009 1.9891719,-1.2637741 1.9783601,-1.250748 1.9678442,-1.2369407 1.9576182,-1.2223624 1.9476758,-1.207024 1.9380102,-1.1909367 1.9286147,-1.1741121 1.9194819,-1.1565622 1.9106046,-1.1382996 1.901975,-1.1193369 1.8935851,-1.0996874 1.8854268,-1.0793645 1.8774918,-1.0583819 1.8697714,-1.0367538 1.8622568,-1.0144944 1.854939,-0.9916184 1.8478088,-0.9681407 1.8408567,-0.9440763 1.8274483,-0.8942498 1.8146345,-0.8422646 1.8023331,-0.7882503 1.7904592,-0.7323396 1.778925,-0.6746681 1.7676404,-0.6153743 1.7565128,-0.5545988 1.7454474,-0.4924846 1.7343471,-0.4291763 1.7231131,-0.3648202 1.7116445,-0.2995638 1.6998388,-0.2335555 1.687592,-0.1669447 1.6747983,-0.0998814 1.6613508,-0.0325162 1.6471414,0.035 1.6320608,0.1025162 1.6159988,0.1698814 1.5988441,0.2369447 1.5804849,0.3035555 1.5608088,0.3695638 1.5397027,0.4348202 1.5170534,0.4991763 1.4927472,0.5624846 1.4666706,0.6245988 1.4387102,0.6853743 1.4239883,0.7152153 1.4087531,0.7446681 1.3929909,0.7737154 1.3766875,0.8023396 1.3598292,0.8305236 1.3424023,0.8582503 1.324393,0.8855029 1.3057879,0.9122646 1.2865736,0.938519 1.2667366,0.9642498 1.2462638,0.9894408 1.2251422,1.0140763 1.2033589,1.0381407 1.180901,1.0616184 1.1577561,1.0844944 1.1339117,1.1067538 1.1093556,1.1283819 1.0840758,1.1493645 1.0580603,1.1696874 1.0312977,1.1893369 1.0037764,1.2082996 0.9754853,1.2265622 0.9464135,1.2441121 0.9165504,1.2609367 0.8858855,1.277024 0.854409,1.2923624 0.8221112,1.3069407 0.7889826,1.320748 0.7550144,1.3337741 0.7201979,1.346009 0.6845251,1.3574434 0.6479882,1.3680685 0.6105798,1.3778759 0.5722933,1.3868579 0.5331223,1.3950073 0.493061,1.4023174 0.452104,1.4087822 0.4102465,1.4143964 0.3674845,1.4191552 0.3238143,1.4230546 0.2792328,1.4260911 0.2337377,1.428262 0.1873271,1.4295654 0.14,1.43 0.14,1.43 0.1255714,1.42977 0.1126481,1.4290945 0.1010663,1.4279895 0.0906906,1.4264641 0.0814091,1.4245208 0.0731298,1.4221562 0.0657768,1.4193611 0.0592891,1.4161205 0.0536181,1.4124132 0.0487267,1.4082116 0.0445887,1.4034805 0.0411878,1.3981768 0.0385183,1.3922478 0.0365847,1.3856296 0.0354025,1.3782449 0.035,1.37 A0.035,0.035 0 0,0 -0.035,1.37 L-0.035,1.37 -0.0354025,1.3782449 -0.0365847,1.3856296 -0.0385183,1.3922478 -0.0411878,1.3981768 -0.0445887,1.4034805 -0.0487267,1.4082116 -0.0536181,1.4124132 -0.0592891,1.4161205 -0.0657768,1.4193611 -0.0731298,1.4221562 -0.0814091,1.4245208 -0.0906906,1.4264641 -0.1010663,1.4279895 -0.1126481,1.4290945 -0.1255714,1.42977 -0.14,1.43 -0.14,1.43 -0.1873271,1.4295654 -0.2337377,1.428262 -0.2792328,1.4260911 -0.3238143,1.4230546 -0.3674845,1.4191552 -0.4102465,1.4143964 -0.452104,1.4087822 -0.493061,1.4023174 -0.5331223,1.3950073 -0.5722933,1.3868579 -0.6105798,1.3778759 -0.6479882,1.3680685 -0.6845251,1.3574434 -0.7201979,1.346009 -0.7550144,1.3337741 -0.7889826,1.320748 -0.8221112,1.3069407 -0.854409,1.2923624 -0.8858855,1.277024 -0.9165504,1.2609367 -0.9464135,1.2441121 -0.9754853,1.2265622 -1.0037764,1.2082996 -1.0312977,1.1893369 -1.0580603,1.1696874 -1.0840758,1.1493645 -1.1093556,1.1283819 -1.1339117,1.1067538 -1.1577561,1.0844944 -1.180901,1.0616184 -1.2033589,1.0381407 -1.2251422,1.0140763 -1.2462638,0.9894408 -1.2667366,0.9642498 -1.2865736,0.938519 -1.3057879,0.9122646 -1.324393,0.8855029 -1.3424023,0.8582503 -1.3598292,0.8305236 -1.3766875,0.8023396 -1.3929909,0.7737154 -1.4087531,0.7446681 -1.4239883,0.7152153 -1.4387102,0.6853743 -1.4666706,0.6245988 -1.4927472,0.5624846 -1.5170534,0.4991763 -1.5397027,0.4348202 -1.5608088,0.3695638 -1.5804849,0.3035555 -1.5988441,0.2369447 -1.6159988,0.1698814 -1.6320608,0.1025162 -1.6471414,0.035 -1.6613508,-0.0325162 -1.6747983,-0.0998814 -1.687592,-0.1669447 -1.6998388,-0.2335555 -1.7116445,-0.2995638 -1.7231131,-0.3648202 -1.7343471,-0.4291763 -1.7454474,-0.4924846 -1.7565128,-0.5545988 -1.7676404,-0.6153743 -1.778925,-0.6746681 -1.7904592,-0.7323396 -1.8023331,-0.7882503 -1.8146345,-0.8422646 -1.8274483,-0.8942498 -1.8408567,-0.9440763 -1.8478088,-0.9681407 -1.854939,-0.9916184 -1.8622568,-1.0144944 -1.8697714,-1.0367538 -1.8774918,-1.0583819 -1.8854268,-1.0793645 -1.8935851,-1.0996874 -1.901975,-1.1193369 -1.9106046,-1.1382996 -1.9194819,-1.1565622 -1.9286147,-1.1741121 -1.9380102,-1.1909367 -1.9476758,-1.207024 -1.9576182,-1.2223624 -1.9678442,-1.2369407 -1.9783601,-1.250748 -1.9891719,-1.2637741 -2.0002855,-1.276009 -2.0117063,-1.2874434 -2.0234394,-1.2980685 -2.0354896,-1.3078759 -2.0478614,-1.3168579 -2.060559,-1.3250073 -2.0735862,-1.3323174 -2.0869463,-1.3387822 -2.1006425,-1.3443964 -2.1146774,-1.3491552 -2.1290534,-1.3530546 -2.1437723,-1.3560911 -2.1588357,-1.358262 -2.1742447,-1.3595654 -2.19,-1.36 -2.2,-1.36 -2.2,-1.43 -1,-1.43 -1,-1.36 -1.01,-1.36 -1.01,-1.36 -1.0405312,-1.3594207 -1.0692248,-1.3576849 -1.0960873,-1.3547988 -1.1211287,-1.3507725 -1.1443625,-1.3456193 -1.1658053,-1.3393562 -1.1854765,-1.332003 -1.2033981,-1.3235827 -1.2195943,-1.3141208 -1.2340915,-1.3036456 -1.2469175,-1.2921874 -1.2581017,-1.279779 -1.2676747,-1.2664548 -1.2756679,-1.2522513 -1.2821133,-1.2372061 -1.2870434,-1.2213588 -1.2904911,-1.2047499 -1.2924896,-1.1874215 -1.293072,-1.1694168 -1.2922715,-1.1507799 -1.2901213,-1.131556 -1.2866542,-1.1117914 -1.2819025,-1.0915329 -1.2758982,-1.0708282 -1.2686724,-1.0497254 -1.2602558,-1.0282734 -1.2506778,-1.0065213 -1.2399671,-0.9845185 -1.2281513,-0.9623149 -1.2152569,-0.9399605 -1.2013095,-0.9175054 -1.1863335,-0.895 -1.1703522,-0.8724946 -1.1533879,-0.8500395 -1.1354614,-0.8276851 -1.1165928,-0.8054815 -1.0968005,-0.7834787 -1.076102,-0.7617266 -1.0545135,-0.7402746 -1.0320497,-0.7191718 -1.0087243,-0.6984671 -0.9845495,-0.6782086 -0.9595366,-0.658444 -0.9336955,-0.6392201 -0.9070351,-0.6205832 -0.8795633,-0.6025785 -0.8512867,-0.5852501 -0.8222112,-0.5686412 -0.7923416,-0.5527939 -0.7616817,-0.5377487 -0.7302347,-0.5235452 -0.6980027,-0.510221 -0.6649871,-0.4978126 -0.6311886,-0.4863544 -0.5966074,-0.4758792 -0.561243,-0.4664173 -0.5250947,-0.457997 -0.4881612,-0.4506438 -0.4504414,-0.4443807 -0.4119338,-0.4392275 -0.372637,-0.4352012 -0.3325498,-0.4323151 -0.291671,-0.4305793 -0.25,-0.43 0.25,-0.43 0.25,-0.43 0.291671,-0.4305793 0.3325498,-0.4323151 0.372637,-0.4352012 0.4119338,-0.4392275 0.4504414,-0.4443807 0.4881612,-0.4506438 0.5250947,-0.457997 0.561243,-0.4664173 0.5966074,-0.4758792 0.6311886,-0.4863544 0.6649871,-0.4978126 0.6980027,-0.510221 0.7302347,-0.5235452 0.7616817,-0.5377487 0.7923416,-0.5527939 0.8222112,-0.5686412 0.8512867,-0.5852501 0.8795633,-0.6025785 0.9070351,-0.6205832 0.9336955,-0.6392201 0.9595366,-0.658444 0.9845495,-0.6782086 1.0087243,-0.6984671 1.0320497,-0.7191718 1.0545135,-0.7402746 1.076102,-0.7617266 1.0968005,-0.7834787 1.1165928,-0.8054815 1.1354614,-0.8276851 1.1533879,-0.8500395 1.1703522,-0.8724946 1.1863335,-0.895 1.2013095,-0.9175054 1.2152569,-0.9399605 1.2281513,-0.9623149 1.2399671,-0.9845185 1.2506778,-1.0065213 1.2602558,-1.0282734 1.2686724,-1.0497254 1.2758982,-1.0708282 1.2819025,-1.0915329 1.2866542,-1.1117914 1.2901213,-1.131556 1.2922715,-1.1507799 1.293072,-1.1694168 1.2924896,-1.1874215 1.2904911,-1.2047499 1.2870434,-1.2213588 1.2821133,-1.2372061 1.2756679,-1.2522513 1.2676747,-1.2664548 1.2581017,-1.279779 1.2469175,-1.2921874 1.2340915,-1.3036456 1.2195943,-1.3141208 1.2033981,-1.3235827 1.1854765,-1.332003 1.1658053,-1.3393562 1.1443625,-1.3456193 1.1211287,-1.3507725 1.0960873,-1.3547988 1.0692248,-1.3576849 1.0405312,-1.3594207 1.01,-1.36 1,-1.36z"
       transform="matrix(1,0,0,-1,2.2,1.43)"
       fill="rgb(0,0,0)"
       stroke-linecap="round"
       stroke-linejoin="round"
       id="path2692"
       style="fill:none;stroke:#ff0000;stroke-opacity:1;stroke-width:0.02;stroke-dasharray:none" /><path
       d="M0.23,0.6200001 L0.23,0.45 0.23,0.45 0.2297672,0.4417668 0.2290362,0.4328555 0.227758,0.4232593 0.2258853,0.4129808 0.2233736,0.4020341 0.220183,0.390446 0.2162802,0.3782576 0.2116405,0.365525 0.2062494,0.35232 0.2001048,0.3387299 0.1932181,0.3248563 0.1856153,0.310814 0.1773379,0.2967278 0.1684417,0.2827299 0.1490858,0.2555403 0.1388005,0.2426127 0.1282404,0.2302934 0.1175087,0.2186897 0.1067093,0.207893 0.0959435,0.1979765 0.0853071,0.1889938 0.074888,0.1809791 0.0647642,0.1739472 0.0550025,0.1678954 0.045658,0.1628048 0.0367738,0.1586431 0.0283814,0.155367 0.0205012,0.1529243 0.0131441,0.1512571 0.0063121,0.1503036 0,0.15 0,0.15 -0.0063121,0.1503036 -0.0131441,0.1512571 -0.0205012,0.1529243 -0.0283814,0.155367 -0.0367738,0.1586431 -0.045658,0.1628048 -0.0550025,0.1678954 -0.0647642,0.1739472 -0.074888,0.1809791 -0.0853071,0.1889938 -0.0959435,0.1979765 -0.1067093,0.207893 -0.1175087,0.2186897 -0.1282404,0.2302934 -0.1388005,0.2426127 -0.1490858,0.2555403 -0.1684417,0.2827299 -0.1773379,0.2967278 -0.1856153,0.310814 -0.1932181,0.3248563 -0.2001048,0.3387299 -0.2062494,0.35232 -0.2116405,0.365525 -0.2162802,0.3782576 -0.220183,0.390446 -0.2233736,0.4020341 -0.2258853,0.4129808 -0.227758,0.4232593 -0.2290362,0.4328555 -0.2297672,0.4417668 -0.23,0.45 -0.23,0.6200001 -0.23,0.6200001 -0.2299454,0.6287861 -0.2297876,0.6369 -0.2291917,0.651395 -0.22826,0.6639592 -0.2270256,0.6749492 -0.2255114,0.6846384 -0.223732,0.6932401 -0.221696,0.7009227 -0.2194066,0.7078212 -0.2168627,0.7140448 -0.2140593,0.7196829 -0.2076356,0.7294849 -0.200022,0.7376813 -0.1910424,0.744593 -0.1804446,0.7504492 -0.1678766,0.7554146 -0.1607072,0.7576008 -0.152847,0.759604 -0.1442019,0.7614323 -0.134659,0.7630913 -0.1240814,0.7645844 -0.1123013,0.7659123 -0.0991121,0.7670728 -0.0842552,0.7680603 -0.0674039,0.7688653 -0.0581038,0.769195 -0.0481388,0.769473 -0.0374365,0.7696964 -0.0259132,0.7698616 -0.0134719,0.7699645 -0,0.7700001 0,0.7700001 0.0134719,0.7699645 0.0259132,0.7698616 0.0374365,0.7696964 0.0481388,0.769473 0.0581038,0.769195 0.0674039,0.7688653 0.0842552,0.7680603 0.0991121,0.7670728 0.1123013,0.7659123 0.1240814,0.7645844 0.134659,0.7630913 0.1442019,0.7614323 0.152847,0.759604 0.1607072,0.7576008 0.1678766,0.7554146 0.1804446,0.7504492 0.1910424,0.744593 0.200022,0.7376813 0.2076356,0.7294849 0.2140593,0.7196829 0.2168627,0.7140448 0.2194066,0.7078212 0.221696,0.7009227 0.223732,0.6932401 0.2255114,0.6846384 0.2270256,0.6749492 0.22826,0.6639592 0.2291917,0.651395 0.2297876,0.6369 0.2299454,0.6287861 0.23,0.6200001z"
       transform="matrix(1,0,0,-1,2.2,1.43)"
       fill="rgb(255,255,255)"
       stroke="rgb(0,0,0)"
       stroke-width="0.0010cm"
       stroke-linecap="round"
       stroke-linejoin="round"
       id="path2694"
       style="fill:none;stroke:#ff6400;stroke-opacity:1;stroke-width:0.02;stroke-dasharray:none" /></g></svg>
