<?xml version="1.0" encoding="UTF-8" standalone="no"?>
<!-- Generator: Fusion 360, Shaper Origin Export Add-In, Version 1.8.0  -->

<svg
   shaper:fusionaddin="version:1.8.0"
   width="9.321cm"
   height="11.041cm"
   version="1.1"
   x="0cm"
   y="0cm"
   viewBox="0 0 9.321 11.041"
   enable-background="new 0 0 9.321 11.041"
   xml:space="preserve"
   id="svg3554"
   sodipodi:docname="magnet_pole.svg"
   inkscape:version="1.2.2 (732a01da63, 2022-12-09)"
   xmlns:inkscape="http://www.inkscape.org/namespaces/inkscape"
   xmlns:sodipodi="http://sodipodi.sourceforge.net/DTD/sodipodi-0.dtd"
   xmlns="http://www.w3.org/2000/svg"
   xmlns:svg="http://www.w3.org/2000/svg"
   xmlns:shaper="http://www.shapertools.com/namespaces/shaper"><defs
     id="defs3558" /><sodipodi:namedview
     id="namedview3556"
     pagecolor="#505050"
     bordercolor="#eeeeee"
     borderopacity="1"
     inkscape:showpageshadow="0"
     inkscape:pageopacity="0"
     inkscape:pagecheckerboard="0"
     inkscape:deskcolor="#505050"
     inkscape:document-units="cm"
     showgrid="false"
     inkscape:zoom="1.9266823"
     inkscape:cx="210.98445"
     inkscape:cy="201.12294"
     inkscape:window-width="1920"
     inkscape:window-height="991"
     inkscape:window-x="-9"
     inkscape:window-y="-9"
     inkscape:window-maximized="1"
     inkscape:current-layer="svg3554" /><g
     id="g719"><path
       d="M-1.8883613,1.2035582 L-1.8883613,1.2035582 -1.8608588,1.0738686 -1.8345966,0.9427898 -1.8095611,0.8103353 -1.7857309,0.6765272 -1.7630762,0.5413956 -1.7415597,0.4049785 -1.7211367,0.2673213 -1.7017551,0.1284769 -1.683356,-0.0114952 -1.665874,-0.1525287 -1.6492374,-0.2945511 -1.6333683,-0.4374838 -1.6181831,-0.5812424 -1.6035928,-0.7257374 -1.5895031,-0.8708737 -1.5758145,-1.0165516 -1.5492187,-1.3091086 -1.5229146,-1.6025159 -1.4959396,-1.8958115 -1.4818813,-2.0420989 -1.4672643,-2.1879687 -1.4519503,-2.3332833 -1.4357973,-2.4779016 -1.4186602,-2.6216796 -1.4003902,-2.7644699 -1.3808357,-2.9061223 -1.3598422,-3.0464841 -1.3372524,-3.1853997 -1.3253091,-3.2542659 -1.3129065,-3.3227114 -1.3000244,-3.3907159 -1.2866424,-3.4582592 -1.2727397,-3.5253212 -1.2582957,-3.5918814 -1.2432895,-3.6579192 -1.2277001,-3.7234141 -1.2115065,-3.7883452 -1.1946876,-3.8526919 -1.177222,-3.9164331 -1.1590884,-3.979548 -1.1402654,-4.0420155 -1.1207314,-4.1038144 -1.1004649,-4.1649237 -1.0794443,-4.2253219 -1.0576477,-4.284988 -1.0350534,-4.3439004 -1.0116397,-4.402038 -0.9873847,-4.4593793 -0.9622667,-4.5159031 -0.9362639,-4.5715879 -0.9093544,-4.6264125 -0.8815166,-4.6803557 -0.8527289,-4.7333962 -0.8229695,-4.7855131 -0.7922171,-4.8366852 -0.7604501,-4.8868917 -0.7276474,-4.9361117 -0.6937878,-4.9843247 -0.6588502,-5.0315102 -0.6228138,-5.0776477 -0.5856579,-5.1227171 -0.5473621,-5.1666985 -0.507906,-5.209572 -0.4672695,-5.2513182 -0.4254329,-5.2919176 -0.3823766,-5.3313512 -0.3380811,-5.3696001 -0.2925275,-5.4066459 -0.245697,-5.4424702 -0.1975711,-5.4770551 -0.1481317,-5.510383 -0.097361,-5.5424366 -0.0452417,-5.5731989 0.0082431,-5.6026535 0.0631101,-5.6307845 0.1193751,-5.6575761 0.1770537,-5.6830135 0.2361608,-5.707082 0.2967108,-5.7297678 0.3587173,-5.7510575 0.4221936,-5.7709384 0.4871519,-5.7893984 0.553604,-5.8064263 0.6215608,-5.8220113 0.6910327,-5.8361435 0.7620288,-5.8488139 0.8345578,-5.8600142 0.9086274,-5.8697369 0.9842443,-5.8779755 1.0614145,-5.8847242 1.1401427,-5.8899784 1.2204329,-5.8937341 1.302288,-5.8959888 1.3857098,-5.8967406 7.0857098,-5.8967406 7.0857098,-5.3967406 2.3857098,-5.3967406 2.3857098,-5.3967406 2.3548711,-5.3958616 2.324725,-5.3932257 2.2952706,-5.3888351 2.2665067,-5.3826936 2.2384317,-5.3748065 2.2110432,-5.3651802 2.184339,-5.3538225 2.1583159,-5.3407424 2.1329707,-5.3259502 2.1082998,-5.3094574 2.0842989,-5.2912765 2.0609638,-5.2714213 2.0382897,-5.2499065 2.0162715,-5.2267479 1.9949039,-5.2019625 1.9741813,-5.1755678 1.9540976,-5.1475827 1.9346467,-5.1180267 1.9158223,-5.0869203 1.8976175,-5.0542846 1.8800255,-5.0201418 1.8630393,-4.9845145 1.8466514,-4.9474263 1.8308545,-4.9089012 1.8156409,-4.868964 1.8010027,-4.82764 1.7869322,-4.7849552 1.7734211,-4.7409359 1.7604614,-4.6956091 1.7480448,-4.6490021 1.7361627,-4.6011429 1.7248069,-4.5520598 1.7139685,-4.5017816 1.7036391,-4.4503373 1.6938097,-4.3977567 1.6844715,-4.3440697 1.6756158,-4.2893067 1.6672333,-4.2334982 1.6593152,-4.1766753 1.6518524,-4.1188694 1.6448357,-4.060112 1.6382559,-4.000435 1.6321039,-3.9398706 1.6263705,-3.8784513 1.6210464,-3.8162095 1.6161223,-3.7531781 1.6115891,-3.6893902 1.6074374,-3.6248789 1.603658,-3.5596776 1.6002418,-3.4938197 1.5971793,-3.4273389 1.5944616,-3.3602688 1.5920794,-3.2926432 1.5900236,-3.224496 1.5868549,-3.0867723 1.5848835,-2.9473698 1.584038,-2.8065609 1.5842477,-2.6646182 1.585443,-2.5218146 1.587555,-2.3784222 1.5905161,-2.2347128 1.5942597,-2.0909569 1.5987204,-1.947424 1.6038339,-1.804382 1.6095375,-1.6620967 1.6157699,-1.5208319 1.622471,-1.3808489 1.6295825,-1.2424059 1.6370478,-1.1057581 1.6448117,-0.9711565 1.6487888,-0.9047004 1.6528208,-0.8388481 1.6569011,-0.7736297 1.6610236,-0.709075 1.665182,-0.6452134 1.6693703,-0.5820741 1.6735825,-0.5196857 1.6778129,-0.4580765 1.6820558,-0.3972747 1.6863056,-0.3373075 1.6905569,-0.2782023 1.6948044,-0.2199855 1.6990428,-0.1626834 1.7032672,-0.1063218 1.7074726,-0.0509259 1.7116542,0.0034796 1.7158075,0.0568705 1.7199278,0.109223 1.7240108,0.160514 1.7280523,0.210721 1.7320483,0.259822 1.7359946,0.3077958 1.7398877,0.3546216 1.7437238,0.4002796 1.7474996,0.4447505 1.7512116,0.4880161 1.7548567,0.5300585 1.758432,0.5708611 1.7619346,0.6104078 1.7653619,0.6486837 1.7687115,0.6856745 1.771981,0.7213671 1.7751684,0.7557492 1.7782718,0.7888096 1.7812893,0.8205382 1.7842195,0.8509257 1.787061,0.8799642 1.7898127,0.9076468 1.7924736,0.9339678 1.795043,0.9589225 1.7975203,0.9825076 1.7999051,1.0047211 1.994304,2.7941928 A2.121,2.121 353.8 1,1 -2.1866039,2.571422 L-1.8883613,1.2035582z"
       fill="rgb(0,0,0)"
       stroke-linecap="round"
       stroke-linejoin="round"
       id="path3550"
       style="fill:none;stroke:#ff0000;stroke-opacity:1;stroke-width:0.3;stroke-dasharray:none"
       transform="matrix(1,0,0,-1,2.2352902,5.1442594)" /><path
       d="M-0.3142902,3.0232594 a0.2,0.2 0 1,1 0.4,0 a0.2,0.2 0 1,1 -0.4,0z"
       transform="matrix(1,0,0,-1,2.2352902,5.1442594)"
       fill="rgb(255,255,255)"
       stroke="rgb(0,0,0)"
       stroke-width="0.0010cm"
       stroke-linecap="round"
       stroke-linejoin="round"
       id="path3552"
       style="fill:none;stroke:#ff6400;stroke-opacity:1;stroke-width:0.3;stroke-dasharray:none" /></g></svg>
