<?xml version="1.0" encoding="UTF-8" standalone="no"?>
<!-- Generator: Fusion 360, Shaper Origin Export Add-In, Version 1.8.0  -->

<svg
   shaper:fusionaddin="version:1.8.0"
   width="50cm"
   height="30cm"
   version="1.1"
   x="0cm"
   y="0cm"
   viewBox="0 0 50 30"
   enable-background="new 0 0 42.3335 23"
   xml:space="preserve"
   id="svg8997"
   sodipodi:docname="mid_008.svg"
   inkscape:version="1.2.2 (732a01da63, 2022-12-09)"
   xmlns:inkscape="http://www.inkscape.org/namespaces/inkscape"
   xmlns:sodipodi="http://sodipodi.sourceforge.net/DTD/sodipodi-0.dtd"
   xmlns="http://www.w3.org/2000/svg"
   xmlns:svg="http://www.w3.org/2000/svg"
   xmlns:shaper="http://www.shapertools.com/namespaces/shaper"><defs
     id="defs9001" /><sodipodi:namedview
     id="namedview8999"
     pagecolor="#505050"
     bordercolor="#eeeeee"
     borderopacity="1"
     inkscape:showpageshadow="0"
     inkscape:pageopacity="0"
     inkscape:pagecheckerboard="0"
     inkscape:deskcolor="#505050"
     inkscape:document-units="cm"
     showgrid="false"
     inkscape:zoom="0.5789414"
     inkscape:cx="631.32469"
     inkscape:cy="430.95899"
     inkscape:window-width="1920"
     inkscape:window-height="991"
     inkscape:window-x="-9"
     inkscape:window-y="-9"
     inkscape:window-maximized="1"
     inkscape:current-layer="svg8997" /><g
     id="g9489"
     transform="translate(3.833109,3.5646958)"><path
       d="M 22.383112,1.2222985 V 20.222298 a 2,2 0 0 1 -2,2 H 9.1331121 v -0.38 h -0.5 v 0.38 H -11.616888 a 2,2 90 0 1 -2,-2 v -4 0 l -2.3e-5,-0.07553 -6.8e-5,-0.07484 -1.13e-4,-0.07416 -1.6e-4,-0.07348 -2.06e-4,-0.07281 -2.52e-4,-0.07214 -2.98e-4,-0.07147 -3.45e-4,-0.07081 -3.92e-4,-0.07015 -4.39e-4,-0.0695 -4.87e-4,-0.06885 -5.34e-4,-0.0682 -5.81e-4,-0.06756 -6.3e-4,-0.06692 -6.78e-4,-0.06628 -7.25e-4,-0.06565 -7.75e-4,-0.06502 -8.23e-4,-0.0644 -8.72e-4,-0.06377 -9.21e-4,-0.06316 -9.71e-4,-0.06254 -10e-4,-0.06193 -0.0011,-0.06133 -0.0011,-0.06072 -0.0024,-0.119653 -0.0026,-0.117287 -0.0028,-0.114952 -0.003,-0.112646 -0.0032,-0.110369 -0.0034,-0.108123 -0.0036,-0.105907 -0.0038,-0.10372 -0.0041,-0.101563 -0.0043,-0.09944 -0.0045,-0.09734 -0.0047,-0.09527 -0.0049,-0.09323 -0.0051,-0.09123 -0.0054,-0.08925 -0.0056,-0.0873 -0.0058,-0.08538 -0.0061,-0.08349 -0.0063,-0.08163 -0.0065,-0.07981 -0.0067,-0.07801 -0.007,-0.07624 -0.0072,-0.0745 -0.0075,-0.07279 -0.0077,-0.07111 -0.0079,-0.06946 -0.0082,-0.06784 -0.0084,-0.06625 -0.0087,-0.06469 -0.0089,-0.06316 -0.0092,-0.06166 -0.0094,-0.06018 -0.0097,-0.05874 -0.0099,-0.05733 -0.01018,-0.05595 -0.01044,-0.0546 -0.0107,-0.05328 -0.01096,-0.05199 -0.01124,-0.05076 -0.01153,-0.04967 -0.01184,-0.0486 -0.01215,-0.04755 -0.01246,-0.04651 -0.01278,-0.04549 -0.0131,-0.04448 -0.01343,-0.04348 -0.01376,-0.0425 -0.01409,-0.04154 -0.01444,-0.04059 -0.01478,-0.03966 -0.01513,-0.03874 -0.01548,-0.03784 -0.01585,-0.03695 -0.01621,-0.03607 -0.01658,-0.03522 -0.01695,-0.03437 -0.01733,-0.03355 -0.01771,-0.03273 -0.01817,-0.03207 -0.01875,-0.03157 -0.01934,-0.03106 -0.01995,-0.03054 -0.02057,-0.03001 -0.02121,-0.02948 -0.02188,-0.02894 -0.02256,-0.02839 -0.02325,-0.02784 -0.02396,-0.02727 -0.02469,-0.0267 -0.02544,-0.02612 -0.0262,-0.02554 -0.02699,-0.02495 -0.02779,-0.02435 -0.02855,-0.02369 -0.02927,-0.023 -0.03,-0.02232 -0.03075,-0.02165 -0.03151,-0.02098 -0.03228,-0.02032 -0.03307,-0.01966 -0.03387,-0.01902 -0.03469,-0.01838 -0.03552,-0.017745 -0.03636,-0.01712 -0.03722,-0.016501 -0.03809,-0.01589 -0.03897,-0.015285 -0.03987,-0.014688 -0.04078,-0.014098 -0.04172,-0.01352 -0.04276,-0.012974 -0.04384,-0.012434 -0.04494,-0.011896 -0.04606,-0.011362 -0.0472,-0.010829 -0.04837,-0.010299 -0.04955,-0.00977 -0.05076,-0.00925 -0.052,-0.00873 -0.05325,-0.00821 -0.05453,-0.00769 -0.05583,-0.00717 -0.05715,-0.00666 -0.05849,-0.00615 -0.05986,-0.00565 -0.06125,-0.00514 -0.06266,-0.00464 -0.06409,-0.00414 -0.06555,-0.00364 -0.06703,-0.00315 -0.06853,-0.00266 -0.07005,-0.00217 -0.07159,-0.00168 -0.07316,-0.0012 -0.07475,-7.175e-4 -0.07636,-2.385e-4 h -3.3335 v -0.7 h 4.9335 v -0.5 0 l 0.02518,-3.279e-4 0.0251,-9.944e-4 0.02503,-0.00168 0.02494,-0.00238 0.02485,-0.00309 0.02475,-0.00382 0.02464,-0.00457 0.02453,-0.00533 0.02441,-0.00611 0.02421,-0.00689 0.02389,-0.00763 0.02357,-0.00837 0.02325,-0.00911 0.02294,-0.00985 0.02263,-0.010581 0.02232,-0.011313 0.02201,-0.012044 0.0217,-0.012771 0.02128,-0.013426 0.02082,-0.014028 0.02036,-0.014609 0.01991,-0.01517 0.01947,-0.015708 0.01903,-0.016226 0.0186,-0.016722 0.01817,-0.017196 0.0351,-0.035732 0.03348,-0.037376 0.03191,-0.038849 0.03041,-0.040191 0.0295,-0.042153 0.02881,-0.044397 0.02811,-0.046657 0.02742,-0.048931 0.02673,-0.051221 0.01311,-0.026474 0.01294,-0.027053 0.01277,-0.027633 0.0126,-0.028215 0.01243,-0.028799 0.01226,-0.029385 0.01209,-0.029973 0.01192,-0.030563 0.01176,-0.031154 0.01159,-0.031748 0.01142,-0.032343 0.01125,-0.032941 0.01109,-0.03354 0.01092,-0.034142 0.01076,-0.034745 0.01059,-0.03535 0.01043,-0.035957 0.01026,-0.036566 0.0101,-0.03718 0.0099,-0.037804 0.0098,-0.038431 0.0096,-0.03906 0.0095,-0.039691 0.0093,-0.040326 0.0091,-0.040962 0.009,-0.041601 0.0088,-0.042243 0.0087,-0.042887 0.0085,-0.043534 0.0083,-0.044183 0.0082,-0.044835 0.008,-0.045489 0.0079,-0.046146 0.0077,-0.046806 0.0075,-0.047467 0.0074,-0.048132 0.0072,-0.048799 0.0071,-0.049468 0.0069,-0.05014 0.0068,-0.050815 0.0066,-0.051492 0.0064,-0.052172 0.0063,-0.052854 0.0061,-0.053538 0.006,-0.054225 0.0058,-0.054915 0.0057,-0.055607 0.0055,-0.056302 0.0054,-0.056999 0.0052,-0.057699 0.0051,-0.058401 0.0049,-0.059106 0.0047,-0.059813 0.0046,-0.060523 0.0044,-0.061236 0.0043,-0.061951 0.0041,-0.062668 0.004,-0.063388 0.0038,-0.06411 0.0037,-0.064836 0.0035,-0.065563 0.0034,-0.066293 0.0032,-0.067026 0.0031,-0.067761 0.0029,-0.068499 0.0028,-0.069239 0.0026,-0.069981 0.0025,-0.070727 0.0023,-0.071474 0.0022,-0.072225 0.002,-0.072978 0.0019,-0.073733 0.0017,-0.074491 0.0016,-0.075251 0.0014,-0.076014 0.0013,-0.076779 0.0011,-0.077547 9.61e-4,-0.078318 8.13e-4,-0.079091 6.64e-4,-0.079866 5.17e-4,-0.080645 3.68e-4,-0.081425 2.21e-4,-0.082208 7.4e-5,-0.082994 v -2.2 a 2,2 -180 0 1 2,-2 h 32 a 2,2 -90 0 1 2,2 z"
       transform="matrix(1,0,0,-1,19.950388,22.222298)"
       fill="rgb(0,0,0)"
       stroke-linecap="round"
       stroke-linejoin="round"
       id="path8985"
       style="fill:none;stroke:#ff0000;stroke-width:0.2;stroke-dasharray:none;stroke-opacity:1" /><path
       d="m -11.414315,10.722299 v 0 l 1.22e-4,0.104375 6.54e-4,0.105846 0.0012,0.107215 0.0018,0.108477 0.0024,0.109637 0.003,0.110692 0.0037,0.111643 0.0044,0.11249 0.0051,0.113232 0.0058,0.113871 0.0066,0.114406 0.0073,0.114835 0.0081,0.115162 0.009,0.115383 0.0098,0.115501 0.0107,0.115515 0.0116,0.115424 0.01253,0.11523 0.01349,0.115066 0.0145,0.115124 0.01555,0.115156 0.01662,0.11515 0.01773,0.115108 0.01886,0.115027 0.02003,0.114912 0.02123,0.114758 0.02247,0.114567 0.02373,0.11434 0.02503,0.114076 0.02636,0.113774 0.02772,0.113437 0.02911,0.113061 0.03054,0.11265 0.032,0.1122 0.03349,0.111715 0.03501,0.111192 0.03656,0.110632 0.03814,0.110035 0.03976,0.109402 0.04141,0.108731 0.043,0.107816 0.04451,0.106634 0.04603,0.105455 0.04756,0.104278 0.04911,0.103102 0.05068,0.101929 0.05226,0.100758 0.05385,0.09959 0.05547,0.09842 0.05709,0.09726 0.05873,0.0961 0.06039,0.09493 0.06206,0.09378 0.06375,0.09262 0.065452,0.09146 0.067169,0.09031 0.068901,0.08916 0.070649,0.08801 0.07239,0.08684 0.073974,0.0855 0.075526,0.08414 0.077082,0.08279 0.078641,0.08146 0.080204,0.08015 0.08177,0.07885 0.08334,0.07758 0.084912,0.07631 0.086489,0.07507 0.088068,0.07384 0.089651,0.07263 0.091237,0.07143 0.092827,0.07026 0.09442,0.06909 0.096017,0.06795 0.097617,0.06682 0.09922,0.06571 0.1008264,0.06462 0.1024363,0.06354 0.1040497,0.06248 0.1056664,0.06144 0.1072865,0.06042 0.10891,0.05941 0.1106383,0.05846 0.1125809,0.05763 0.1145449,0.0568 0.1165246,0.05597 0.1185204,0.05515 0.1205319,0.05434 0.1225593,0.05353 0.1246026,0.05273 0.1266617,0.05193 0.1287366,0.05113 0.1308275,0.05035 0.1329341,0.04956 0.1350567,0.04878 0.137195,0.04801 0.1393493,0.04724 0.1415194,0.04648 0.1437054,0.04572 0.1459071,0.04497 0.1481248,0.04422 0.1503584,0.04348 0.1526077,0.04274 0.1548729,0.042 0.078291,0.02073 0.078863,0.02055 0.079437,0.02037 0.080013,0.02019 0.080592,0.02001 0.081172,0.01983 0.081754,0.01965 0.082338,0.01947 0.082924,0.0193 0.083512,0.01912 0.084103,0.01894 0.084695,0.01877 0.085289,0.01859 0.085885,0.01842 0.086483,0.01825 0.087083,0.01808 0.087685,0.0179 0.088289,0.01773 0.088895,0.01756 0.089503,0.01739 0.090113,0.01722 0.090724,0.01705 0.091338,0.01689 0.091954,0.01672 0.092572,0.01655 0.093192,0.01638 0.093813,0.01622 0.094437,0.01605 0.095063,0.01589 0.095691,0.01573 0.096321,0.01556 0.096952,0.0154 0.097586,0.01524 0.098222,0.01508 0.098859,0.01492 0.099499,0.01476 0.1001406,0.0146 0.1007842,0.01444 0.1014298,0.01428 0.1020774,0.01412 0.1027269,0.01397 0.1033784,0.01381 0.2085842,0.02714 0.2106312,0.02645 0.2126142,0.02577 0.2145634,0.02509 0.2164788,0.02442 0.2183601,0.02376 0.2202077,0.0231 0.2220214,0.02246 0.2238012,0.02182 0.2255472,0.02119 0.2272591,0.02056 0.2289374,0.01994 0.2305816,0.01933 0.2321921,0.01873 0.2337686,0.01814 0.2353112,0.01755 0.2368201,0.01697 0.2382949,0.0164 0.239736,0.01584 0.2411432,0.01529 0.2425164,0.01474 0.2438558,0.0142 0.2451613,0.01366 0.246433,0.01314 0.2476708,0.01262 0.2488747,0.01211 0.2500446,0.01161 0.2511808,0.01111 0.2522831,0.01063 0.2533515,0.01015 0.254386,0.0097 0.2553866,0.0092 0.2563533,0.0088 0.2572863,0.0083 0.2581852,0.0079 0.2590504,0.0074 0.2598816,0.007 0.2609422,0.0066 0.1324855,0.0031 0.1342447,0.003 0.1357551,0.0029 0.1370164,0.0028 0.138029,0.0027 0.1387925,0.0026 0.5578273,0.0096 0.1388765,0.0021 0.1381466,0.002 0.1371681,0.0019 0.13594,0.0018 0.134463,0.0017 0.132737,0.0016 0.130763,0.0015 0.128539,0.0014 0.06336,6.4e-4 0.06271,6.11e-4 0.06203,5.83e-4 0.06132,5.55e-4 0.06057,5.26e-4 0.0598,4.97e-4 0.059,4.68e-4 0.05816,4.39e-4 0.05729,4.11e-4 0.0564,3.81e-4 0.05546,3.51e-4 0.05451,3.23e-4 0.05351,2.93e-4 0.05249,2.63e-4 0.05144,2.33e-4 0.05035,2.04e-4 0.04924,1.73e-4 0.04809,1.44e-4 0.04691,1.13e-4 0.0457,8.3e-5 0.04446,5.3e-5 0.04319,2.2e-5 0.04189,-8e-6 0.04055,-4e-5 0.03919,-7e-5 0.03779,-1.01e-4 0.03636,-1.32e-4 0.03491,-1.64e-4 0.03342,-1.95e-4 0.0319,-2.26e-4 0.03035,-2.57e-4 0.02876,-2.9e-4 0.02715,-3.21e-4 0.0255,-3.53e-4 0.02383,-3.85e-4 0.02216,-4.17e-4 0.08638,-0.0021 0.08628,-0.0027 0.08618,-0.0034 0.08606,-0.0041 0.08595,-0.0048 0.08582,-0.0055 0.08568,-0.0062 0.08554,-0.0069 0.08539,-0.0076 0.08524,-0.0083 0.08507,-0.009 0.0849,-0.0097 0.08472,-0.01048 0.08453,-0.01122 0.08434,-0.01197 0.08413,-0.01272 0.08392,-0.01348 0.08371,-0.01425 0.08348,-0.01503 0.08325,-0.01581 0.08301,-0.01659 0.08276,-0.01739 0.08251,-0.01818 0.08224,-0.01899 0.08197,-0.0198 0.08169,-0.02062 0.08141,-0.02145 0.08112,-0.02228 0.08082,-0.02312 0.08051,-0.02396 0.08014,-0.02479 0.07966,-0.02559 0.07918,-0.02639 0.07869,-0.0272 0.07821,-0.028 0.07772,-0.02881 0.07722,-0.02961 0.07673,-0.03042 0.07623,-0.03123 0.07573,-0.03204 0.07523,-0.03285 0.07472,-0.03366 0.07422,-0.03447 0.07371,-0.03529 0.07319,-0.0361 0.07268,-0.03692 0.07216,-0.03773 0.07164,-0.03855 0.07112,-0.03937 0.07059,-0.04019 0.07007,-0.04101 0.06954,-0.04183 0.069,-0.04266 0.06847,-0.04348 0.06793,-0.04431 0.06739,-0.04514 0.06685,-0.04596 0.0663,-0.04679 0.06576,-0.04762 0.06521,-0.04846 0.06465,-0.04929 0.0641,-0.05012 0.06354,-0.05096 0.06296,-0.05177 0.0622,-0.05243 0.0614,-0.05305 0.06061,-0.05366 0.05983,-0.05427 0.05905,-0.05487 0.05827,-0.05546 0.05751,-0.05604 0.05674,-0.05662 0.05598,-0.05719 0.05523,-0.05775 0.05448,-0.05831 0.05373,-0.05886 0.05299,-0.0594 0.05226,-0.05994 0.05153,-0.06046 0.05081,-0.06098 0.05008,-0.0615 0.04937,-0.062 0.04866,-0.0625 0.04795,-0.06299 0.04725,-0.06348 0.04656,-0.06396 0.04587,-0.06443 0.04518,-0.06489 0.0445,-0.06535 0.04382,-0.0658 0.04315,-0.06624 0.04249,-0.06667 0.04183,-0.0671 0.04117,-0.06752 0.04052,-0.06793 0.03987,-0.06834 0.03923,-0.06874 0.03859,-0.06913 0.03796,-0.06952 0.03734,-0.06989 0.03669,-0.07022 0.03605,-0.07053 0.03542,-0.07083 0.03478,-0.07112 0.03416,-0.0714 0.03353,-0.07168 0.03292,-0.07195 0.03231,-0.07221 0.0317,-0.07247 0.0311,-0.07272 0.0305,-0.07296 0.02991,-0.0732 0.02933,-0.07343 0.02875,-0.07365 0.02818,-0.07386 0.05465,-0.148328 0.05242,-0.149097 0.05023,-0.149807 0.04808,-0.150462 0.04597,-0.151059 0.04391,-0.151598 0.04188,-0.152082 0.0399,-0.152507 0.03797,-0.152876 0.03607,-0.153188 0.03422,-0.153443 0.03241,-0.15364 0.03064,-0.153781 0.02891,-0.153865 0.02723,-0.153892 0.02559,-0.153861 0.02399,-0.153774 0.02243,-0.153629 0.02092,-0.153428 0.01944,-0.15317 0.01801,-0.152823 0.0166,-0.152354 0.01523,-0.151783 0.0139,-0.151112 0.01262,-0.150342 0.01137,-0.14947 0.01016,-0.148499 0.009,-0.147427 0.0079,-0.146255 0.0068,-0.144984 0.0057,-0.143611 0.0047,-0.142138 0.0037,-0.140566 0.0028,-0.138892 0.0019,-0.13712 0.0011,-0.135246 2.55e-4,-0.133272 -5.16e-4,-0.131198 -0.0012,-0.129025 -8.87e-4,-0.06366 -0.0011,-0.06308 -0.0012,-0.06249 -0.0014,-0.06188 -0.0015,-0.06127 -0.0017,-0.06063 -0.0018,-0.05999 -0.002,-0.059334 -0.0021,-0.058666 -0.0022,-0.057984 -0.0023,-0.05729 -0.0025,-0.056584 -0.0026,-0.055865 -0.0027,-0.055134 -0.0028,-0.05439 -0.0029,-0.053633 -0.003,-0.052864 -0.0031,-0.052082 -0.0064,-0.1022293 -0.0069,-0.1019128 -0.0155,-0.2039134 -0.01773,-0.2039454 -0.02003,-0.2038749 -0.02238,-0.203702 -0.01209,-0.1017543 -0.01271,-0.1016726 -0.01332,-0.1015783 -0.01395,-0.101471 -0.01458,-0.1013511 -0.01523,-0.1012184 -0.01587,-0.1010727 -0.01653,-0.1009144 -0.01719,-0.1007433 -0.01786,-0.1005593 -0.01854,-0.1003625 -0.01923,-0.100153 -0.01992,-0.099931 -0.02062,-0.099696 -0.02133,-0.099448 -0.02205,-0.099187 -0.02277,-0.098913 -0.0235,-0.098627 -0.02424,-0.098328 -0.02499,-0.098016 -0.02574,-0.097691 -0.0265,-0.097354 -0.02727,-0.097004 -0.02805,-0.096641 -0.02883,-0.096265 -0.02962,-0.095876 -0.03042,-0.095474 -0.03123,-0.09506 -0.03204,-0.094633 -0.03286,-0.094193 -0.03369,-0.093741 -0.03453,-0.093275 -0.03537,-0.092797 -0.03622,-0.092308 -0.03708,-0.091807 -0.03794,-0.091294 -0.03881,-0.090769 -0.03968,-0.090231 -0.04056,-0.089681 -0.04144,-0.089119 -0.04234,-0.088544 -0.04323,-0.087957 -0.04414,-0.087358 -0.04504,-0.086747 -0.04596,-0.086123 -0.04688,-0.085487 -0.0478,-0.084839 -0.04874,-0.084178 -0.04967,-0.083505 -0.05061,-0.08282 -0.05156,-0.082123 -0.05252,-0.081413 -0.05348,-0.080691 -0.05445,-0.079956 -0.05542,-0.07921 -0.0564,-0.078451 -0.05738,-0.077679 -0.05837,-0.076896 -0.05936,-0.0761 -0.06037,-0.075292 -0.06137,-0.074472 -0.06238,-0.073639 -0.0634,-0.072794 -0.06431,-0.071811 -0.06508,-0.070682 -0.06585,-0.069555 -0.06662,-0.06843 -0.06738,-0.067306 -0.06814,-0.066184 -0.0689,-0.065065 -0.06965,-0.063947 -0.0704,-0.06283 -0.07115,-0.061716 -0.0719,-0.060604 -0.07264,-0.059493 -0.07338,-0.058384 -0.07411,-0.057278 -0.07484,-0.056172 -0.07557,-0.055069 -0.0763,-0.053968 -0.07702,-0.052868 -0.07774,-0.051771 -0.07845,-0.050675 -0.07917,-0.049581 -0.07988,-0.048489 -0.08058,-0.047398 -0.08129,-0.04631 -0.08199,-0.045223 -0.08268,-0.044138 -0.08338,-0.043056 -0.08402,-0.041953 -0.08443,-0.040749 L 15.782034,0.965962 15.69688,0.9276154 15.61138,0.890452 15.525543,0.8544593 15.439382,0.8196254 15.352904,0.7859379 15.266121,0.7533846 15.179042,0.7219534 15.091677,0.691632 15.004036,0.6624082 14.91613,0.6342697 14.827968,0.6072045 14.73956,0.5812002 14.650916,0.5562447 14.562047,0.5323257 14.472963,0.5094311 14.383672,0.4875486 14.294186,0.466666 14.204514,0.4467711 14.114666,0.4278517 14.024653,0.4098955 13.934484,0.3928904 13.84417,0.3768242 13.75372,0.3616846 13.66314,0.3474595 13.57245,0.3341365 13.48165,0.3217036 13.39076,0.3101484 13.29978,0.2994589 13.20873,0.2896229 13.11761,0.2806279 13.02644,0.2724619 12.93522,0.2651129 12.84398,0.2585679 12.79934,0.2556129 12.756,0.2528819 12.71363,0.2503669 12.6719,0.2480619 12.58904,0.2440529 12.54725,0.2423349 12.50477,0.2407989 12.46128,0.2394379 12.41645,0.2382459 12.36995,0.2372149 12.32144,0.2363378 12.29633,0.2359549 12.2706,0.235608 l -0.0264,-3.118e-4 -0.0271,-2.775e-4 -0.02785,-2.442e-4 -0.02864,-2.116e-4 -0.02947,-1.8e-4 -0.03035,-1.492e-4 -0.03126,-1.194e-4 -0.03221,-9.02e-5 -0.03321,-6.21e-5 -0.03425,-3.47e-5 -0.03532,-8.3e-6 -0.03645,1.73e-5 -0.03761,4.2e-5 -0.03881,6.59e-5 -0.04005,8.89e-5 -0.04134,1.111e-4 -0.04266,1.323e-4 -0.04403,1.527e-4 -0.04544,1.722e-4 -0.04689,1.909e-4 -0.04838,2.088e-4 -0.04992,2.256e-4 -0.05149,2.418e-4 -0.05298,2.572e-4 -0.106626,5.676e-4 -0.213508,0.001351 -0.42762,0.003557 -0.427612,0.004676 L 9.7564809,0.2517513 9.543838,0.255042 9.3318054,0.2585982 9.1205051,0.2624171 8.9100586,0.2664958 8.4914007,0.2754403 8.0720676,0.2855357 7.6518706,0.2968255 7.2313104,0.3093386 6.8108875,0.3231042 6.3911028,0.3381512 5.9724566,0.3545085 5.5554498,0.3722051 5.3477175,0.3815648 5.1405828,0.3912701 4.9341083,0.4013248 4.7283564,0.4117325 4.5233899,0.4224967 4.3191612,0.4336274 4.1139988,0.4452317 3.907401,0.4573577 3.6994745,0.4700196 3.4903259,0.4832316 3.2800618,0.497008 3.068789,0.511363 2.856614,0.5263108 2.6436435,0.5418657 2.4299842,0.5580418 2.2157427,0.5748535 2.0010257,0.5923149 1.7859399,0.6104403 1.5705918,0.6292439 1.3550881,0.6487399 1.1395356,0.6689425 0.9240408,0.6898661 0.7087104,0.7115247 0.493651,0.7339327 0.2789694,0.7571043 0.0647721,0.7810537 -0.1488342,0.8057951 -0.3617428,0.8313427 -0.5738471,0.8577108 -0.7850405,0.8849137 -0.9952162,0.9129655 -1.2042676,0.9418804 -1.4120881,0.9716728 -1.618571,1.0023567 l -0.2050387,0.03159 -0.2034878,0.03251 -0.2018302,0.033444 -0.2000425,0.034388 -0.099057,0.017495 -0.098272,0.017667 -0.09749,0.017839 -0.096713,0.018011 -0.09594,0.018184 -0.095172,0.018357 -0.094407,0.018531 -0.093646,0.018705 -0.09289,0.018879 -0.092138,0.019054 -0.09139,0.019229 -0.090645,0.019404 -0.089906,0.01958 -0.08917,0.019757 -0.088438,0.019934 -0.087711,0.020111 -0.086987,0.020288 -0.086268,0.020466 -0.085552,0.020645 -0.084841,0.020823 -0.084134,0.021003 -0.083431,0.021182 -0.082733,0.021362 -0.082038,0.021543 -0.081348,0.021724 -0.080661,0.021905 -0.079979,0.022086 -0.079301,0.022268 -0.078627,0.022451 -0.077957,0.022634 -0.077291,0.022817 -0.076629,0.023 -0.075972,0.023184 -0.075318,0.023369 -0.074669,0.023554 -0.074024,0.023739 -0.073383,0.023925 -0.072746,0.024111 -0.072113,0.024297 -0.071484,0.024484 -0.07086,0.024671 -0.070239,0.024859 -0.069623,0.025047 -0.069011,0.025235 -0.068402,0.025424 -0.067798,0.025613 -0.067199,0.025803 -0.066603,0.025993 -0.066011,0.026184 -0.065424,0.026375 -0.06484,0.026566 -0.064261,0.026758 -0.063686,0.02695 -0.063115,0.027142 -0.1245328,0.054863 -0.122298,0.055638 -0.1202154,0.056476 -0.1190807,0.057798 -0.1181084,0.059248 -0.117092,0.060725 -0.1160319,0.062231 -0.1149279,0.063763 -0.1137801,0.065324 -0.1125884,0.066912 -0.1113528,0.068527 -0.1100734,0.07017 -0.1087502,0.071841 -0.1073831,0.073539 -0.105972,0.075265 -0.1045173,0.077019 -0.1030186,0.0788 -0.050934,0.040077 -0.050542,0.040532 -0.050146,0.040991 -0.049744,0.041454 -0.049336,0.04192 -0.048923,0.042389 -0.048505,0.042862 -0.048081,0.043339 -0.047651,0.043819 -0.047216,0.044302 -0.046776,0.044789 -0.046271,0.045217 -0.04566,0.045534 -0.045049,0.04585 -0.044443,0.046165 -0.04384,0.046481 -0.043241,0.046796 -0.042647,0.047113 -0.042056,0.047429 -0.041468,0.047745 -0.040885,0.048062 -0.040305,0.048379 -0.039729,0.048696 -0.039157,0.049013 -0.038588,0.049331 -0.038024,0.049648 -0.037463,0.049966 -0.036906,0.050285 -0.036353,0.050603 -0.035804,0.050921 -0.03526,0.05124 -0.03472,0.051559 -0.03418,0.051878 -0.03364,0.052198 -0.03312,0.052517 -0.03259,0.052837 -0.03207,0.053157 -0.03155,0.053477 -0.03103,0.053798 -0.03052,0.054118 -0.05952,0.1091995 -0.05753,0.1104845 -0.05556,0.1117713 -0.05362,0.1130596 -0.05171,0.1143497 -0.04984,0.1156555 -0.04807,0.1171537 -0.04635,0.1187219 -0.04464,0.1203018 -0.04294,0.1218937 -0.04126,0.1234976 -0.03959,0.1251133 -0.03794,0.1267408 -0.0363,0.1283805 -0.03468,0.1300318 -0.03308,0.1316952 -0.03148,0.1333704 -0.02991,0.1350576 -0.02834,0.1367567 -0.02679,0.1384675 -0.02526,0.1401905 -0.02374,0.1419252 -0.02224,0.143672 -0.02075,0.1454304 -0.01927,0.147201 -0.01781,0.1489834 -0.01637,0.1507776 -0.01494,0.1525839 -0.01353,0.154402 -0.01213,0.156232 -0.01074,0.1580739 -0.0094,0.1599277 -0.0042,0.080663 -0.0039,0.081505 -0.0018,0.041644 -0.0018,0.042286 -0.0017,0.042914 -0.0016,0.043529 -0.003,0.088852 -0.0027,0.09116 -0.0023,0.09336 -0.002,0.09545 -0.0015,0.09745 -0.0011,0.09933 -6.22e-4,0.101119 z"
       transform="matrix(1,0,0,-1,19.950388,22.222298)"
       fill="rgb(255,255,255)"
       stroke="rgb(0,0,0)"
       stroke-width="0.0010cm"
       stroke-linecap="round"
       stroke-linejoin="round"
       id="path8987"
       style="fill:none;stroke:#ff6400;stroke-width:0.2;stroke-dasharray:none;stroke-opacity:1" /><path
       d="m 20.083112,20.222298 a 0.55,0.55 0 1 1 1.1,0 0.55,0.55 0 1 1 -1.1,0 z"
       transform="matrix(1,0,0,-1,19.950388,22.222298)"
       fill="rgb(255,255,255)"
       stroke="rgb(0,0,0)"
       stroke-width="0.0010cm"
       stroke-linecap="round"
       stroke-linejoin="round"
       id="path8989"
       style="fill:none;stroke:#ff6400;stroke-width:0.2;stroke-dasharray:none;stroke-opacity:1" /><path
       d="m -12.416888,1.2222985 a 0.55,0.55 0 1 1 1.1,0 0.55,0.55 0 1 1 -1.1,0 z"
       transform="matrix(1,0,0,-1,19.950388,22.222298)"
       fill="rgb(255,255,255)"
       stroke="rgb(0,0,0)"
       stroke-width="0.0010cm"
       stroke-linecap="round"
       stroke-linejoin="round"
       id="path8991"
       style="fill:none;stroke:#ff6400;stroke-width:0.2;stroke-dasharray:none;stroke-opacity:1" /><path
       d="m 20.083112,1.2222985 a 0.55,0.55 0 1 1 1.1,0 0.55,0.55 0 1 1 -1.1,0 z"
       transform="matrix(1,0,0,-1,19.950388,22.222298)"
       fill="rgb(255,255,255)"
       stroke="rgb(0,0,0)"
       stroke-width="0.0010cm"
       stroke-linecap="round"
       stroke-linejoin="round"
       id="path8993"
       style="fill:none;stroke:#ff6400;stroke-width:0.2;stroke-dasharray:none;stroke-opacity:1" /><path
       d="m -12.416888,20.222298 a 0.55,0.55 0 1 1 1.1,0 0.55,0.55 0 1 1 -1.1,0 z"
       transform="matrix(1,0,0,-1,19.950388,22.222298)"
       fill="rgb(255,255,255)"
       stroke="rgb(0,0,0)"
       stroke-width="0.0010cm"
       stroke-linecap="round"
       stroke-linejoin="round"
       id="path8995"
       style="fill:none;stroke:#ff6400;stroke-width:0.2;stroke-dasharray:none;stroke-opacity:1" /></g></svg>
