<?xml version="1.0" encoding="UTF-8" standalone="no"?>
<!-- Generator: Fusion 360, Shaper Origin Export Add-In, Version 1.8.0  -->

<svg
   shaper:fusionaddin="version:1.8.0"
   width="50cm"
   height="30cm"
   version="1.1"
   x="0cm"
   y="0cm"
   viewBox="0 0 50 30"
   enable-background="new 0 0 42.3335 23"
   xml:space="preserve"
   id="svg7392"
   sodipodi:docname="mid_007.svg"
   inkscape:version="1.2.2 (732a01da63, 2022-12-09)"
   xmlns:inkscape="http://www.inkscape.org/namespaces/inkscape"
   xmlns:sodipodi="http://sodipodi.sourceforge.net/DTD/sodipodi-0.dtd"
   xmlns="http://www.w3.org/2000/svg"
   xmlns:svg="http://www.w3.org/2000/svg"
   xmlns:shaper="http://www.shapertools.com/namespaces/shaper"><defs
     id="defs7396" /><sodipodi:namedview
     id="namedview7394"
     pagecolor="#505050"
     bordercolor="#eeeeee"
     borderopacity="1"
     inkscape:showpageshadow="0"
     inkscape:pageopacity="0"
     inkscape:pagecheckerboard="0"
     inkscape:deskcolor="#505050"
     inkscape:document-units="cm"
     showgrid="false"
     inkscape:zoom="0.40937339"
     inkscape:cx="809.77418"
     inkscape:cy="274.81024"
     inkscape:window-width="1920"
     inkscape:window-height="991"
     inkscape:window-x="-9"
     inkscape:window-y="-9"
     inkscape:window-maximized="1"
     inkscape:current-layer="svg7392" /><g
     id="g7884"
     transform="translate(3.4900901,3.5000681)"><path
       d="m 22.260624,-11.867613 h -0.5 v 1.9760005 h 0.5 v 8.512 a 2,2 0 0 1 -2,2 H 9.0106242 v -0.38 h -0.5 v 0.38 H -11.739376 a 2,2 90 0 1 -2,-2 v -4 0 l -2.2e-5,-0.075526 -6.9e-5,-0.074841 -1.13e-4,-0.07416 -1.6e-4,-0.073483 -2.06e-4,-0.07281 -2.52e-4,-0.07214 -2.98e-4,-0.071474 -3.45e-4,-0.070812 -3.92e-4,-0.070153 -4.39e-4,-0.069499 -4.87e-4,-0.068848 -5.34e-4,-0.0682 -5.81e-4,-0.067557 -6.3e-4,-0.066917 -6.77e-4,-0.066281 -7.26e-4,-0.065648 -7.75e-4,-0.06502 -8.23e-4,-0.064395 -8.72e-4,-0.063773 -9.21e-4,-0.063156 -9.71e-4,-0.062542 -10e-4,-0.061932 -0.0011,-0.061326 -0.0011,-0.060723 -0.0024,-0.1196532 -0.0026,-0.1172876 -0.0028,-0.1149516 -0.003,-0.1126457 -0.0032,-0.1103695 -0.0034,-0.1081231 -0.0036,-0.1059065 -0.0038,-0.1037198 -0.0041,-0.1015628 -0.0043,-0.099436 -0.0045,-0.097338 -0.0047,-0.095271 -0.0049,-0.093233 -0.0051,-0.091226 -0.0054,-0.089248 -0.0056,-0.0873 -0.0058,-0.085381 -0.0061,-0.083493 -0.0063,-0.081634 -0.0065,-0.079805 -0.0067,-0.078006 -0.007,-0.076237 -0.0072,-0.074497 -0.0075,-0.072788 -0.0077,-0.071108 -0.0079,-0.069458 -0.0082,-0.067838 -0.0084,-0.066247 -0.0087,-0.064687 -0.0089,-0.063156 -0.0092,-0.061656 -0.0094,-0.060184 -0.0097,-0.058743 -0.0099,-0.057332 -0.01019,-0.05595 -0.01044,-0.054598 -0.0107,-0.05328 -0.01096,-0.05199 -0.01124,-0.05076 -0.01153,-0.04967 -0.01184,-0.0486 -0.01215,-0.04755 -0.01246,-0.04651 -0.01278,-0.04549 -0.0131,-0.04448 -0.01343,-0.04348 -0.01376,-0.0425 -0.01409,-0.04154 -0.01444,-0.04059 -0.01478,-0.03966 -0.01513,-0.03874 -0.01548,-0.03784 -0.01584,-0.03695 -0.01621,-0.03608 -0.01658,-0.03522 -0.01695,-0.03437 -0.01733,-0.03355 -0.01771,-0.03273 -0.01817,-0.03207 -0.01875,-0.03157 -0.01934,-0.03106 -0.01995,-0.03054 -0.02057,-0.03001 -0.02121,-0.02948 -0.02188,-0.02894 -0.02255,-0.02839 -0.02325,-0.02784 -0.02396,-0.02727 -0.02469,-0.0267 -0.02544,-0.02612 -0.02621,-0.02554 -0.02699,-0.02495 -0.02779,-0.02435 -0.02855,-0.02369 -0.02927,-0.023 -0.03,-0.02232 -0.03075,-0.02165 -0.03151,-0.02098 -0.03228,-0.02032 -0.03307,-0.01966 -0.03387,-0.01902 -0.03469,-0.01838 -0.03552,-0.01774 -0.03636,-0.01712 -0.03722,-0.0165 -0.03809,-0.01589 -0.03897,-0.01529 -0.03987,-0.01469 -0.04078,-0.0141 -0.04172,-0.01352 -0.04276,-0.01297 -0.04384,-0.01243 -0.04494,-0.0119 -0.04606,-0.01136 -0.0472,-0.01083 -0.04837,-0.0103 -0.04955,-0.0098 -0.05076,-0.0092 -0.052,-0.0087 -0.05325,-0.0082 -0.05453,-0.0077 -0.05583,-0.0072 -0.05715,-0.0067 -0.05849,-0.0062 -0.05986,-0.0056 -0.06125,-0.0051 -0.06266,-0.0046 -0.06409,-0.0041 -0.06555,-0.0036 -0.06703,-0.0031 -0.06853,-0.0027 -0.07005,-0.0022 -0.07159,-0.0017 -0.07316,-0.0012 -0.07475,-7.17e-4 -0.07636,-2.39e-4 h -3.3335 v -0.7 h 4.9335 v -0.5 0 l 0.02518,-3.27e-4 0.0251,-9.95e-4 0.02502,-0.0017 0.02494,-0.0024 0.02485,-0.0031 0.02475,-0.0038 0.02464,-0.0046 0.02453,-0.0053 0.02441,-0.0061 0.02421,-0.0069 0.02389,-0.0076 0.02357,-0.0084 0.02325,-0.0091 0.02294,-0.0098 0.02263,-0.01058 0.02231,-0.01131 0.02201,-0.01204 0.0217,-0.01277 0.02128,-0.01342 0.02082,-0.01403 0.02036,-0.01461 0.01991,-0.01517 0.01947,-0.01571 0.01903,-0.01623 0.0186,-0.01672 0.01817,-0.0172 0.0351,-0.03573 0.03348,-0.03738 0.03191,-0.03885 0.03041,-0.04019 0.0295,-0.04215 0.02881,-0.0444 0.02811,-0.04666 0.02742,-0.04893 0.02673,-0.05122 0.01311,-0.02647 0.01294,-0.02705 0.01277,-0.02763 0.0126,-0.02822 0.01243,-0.0288 0.01226,-0.02938 0.01209,-0.02997 0.01192,-0.03056 0.01175,-0.03115 0.01159,-0.03175 0.01142,-0.03234 0.01125,-0.03294 0.01109,-0.03354 0.01092,-0.03414 0.01076,-0.03475 0.01059,-0.03535 0.01043,-0.03596 0.01026,-0.03657 0.0101,-0.03718 0.0099,-0.0378 0.0098,-0.03843 0.0096,-0.03906 0.0095,-0.03969 0.0093,-0.04033 0.0091,-0.04096 0.009,-0.0416 0.0088,-0.04224 0.0087,-0.04289 0.0085,-0.04353 0.0083,-0.04418 0.0082,-0.04484 0.008,-0.04549 0.0079,-0.04615 0.0077,-0.04681 0.0075,-0.04747 0.0074,-0.04813 0.0072,-0.0488 0.0071,-0.04947 0.0069,-0.05014 0.0068,-0.05082 0.0066,-0.05149 0.0064,-0.05217 0.0063,-0.05285 0.0061,-0.05354 0.006,-0.05423 0.0058,-0.05491 0.0057,-0.05561 0.0055,-0.0563 0.0054,-0.057 0.0052,-0.0577 0.005,-0.0584 0.0049,-0.05911 0.0047,-0.05981 0.0046,-0.06052 0.0044,-0.06123 0.0043,-0.06195 0.0041,-0.06267 0.004,-0.06339 0.0038,-0.06411 0.0037,-0.06483 0.0035,-0.06556 0.0034,-0.06629 0.0032,-0.06703 0.0031,-0.06776 0.0029,-0.0685 0.0028,-0.06924 0.0026,-0.06998 0.0025,-0.07073 0.0023,-0.07148 0.0022,-0.07222 0.002,-0.07298 0.0019,-0.07373 0.0017,-0.07449 0.0016,-0.07525 0.0014,-0.07601 0.0013,-0.07678 0.0011,-0.07755 9.62e-4,-0.07832 8.12e-4,-0.07909 6.65e-4,-0.07987 5.16e-4,-0.08064 3.69e-4,-0.08143 2.21e-4,-0.08221 7.3e-5,-0.08299 v -2.2 a 2,2 -180 0 1 2,-2 h 32 a 2,2 -90 0 1 2,2 z"
       transform="matrix(1,0,0,-1,20.072876,0.6203875)"
       fill="rgb(0,0,0)"
       stroke-linecap="round"
       stroke-linejoin="round"
       id="path7380"
       style="fill:none;stroke:#ff0000;stroke-width:0.2;stroke-dasharray:none;stroke-opacity:1" /><path
       d="m -12.539376,-1.3796125 a 0.55,0.55 0 1 1 1.1,0 0.55,0.55 0 1 1 -1.1,0 z"
       transform="matrix(1,0,0,-1,20.072876,0.6203875)"
       fill="rgb(255,255,255)"
       stroke="rgb(0,0,0)"
       stroke-width="0.0010cm"
       stroke-linecap="round"
       stroke-linejoin="round"
       id="path7382"
       style="fill:none;stroke:#ff6400;stroke-width:0.2;stroke-dasharray:none;stroke-opacity:1" /><path
       d="m 19.960624,-20.379612 a 0.55,0.55 0 1 1 1.1,0 0.55,0.55 0 1 1 -1.1,0 z"
       transform="matrix(1,0,0,-1,20.072876,0.6203875)"
       fill="rgb(255,255,255)"
       stroke="rgb(0,0,0)"
       stroke-width="0.0010cm"
       stroke-linecap="round"
       stroke-linejoin="round"
       id="path7384"
       style="fill:none;stroke:#ff6400;stroke-width:0.2;stroke-dasharray:none;stroke-opacity:1" /><path
       d="m -12.539376,-20.379612 a 0.55,0.55 0 1 1 1.1,0 0.55,0.55 0 1 1 -1.1,0 z"
       transform="matrix(1,0,0,-1,20.072876,0.6203875)"
       fill="rgb(255,255,255)"
       stroke="rgb(0,0,0)"
       stroke-width="0.0010cm"
       stroke-linecap="round"
       stroke-linejoin="round"
       id="path7386"
       style="fill:none;stroke:#ff6400;stroke-width:0.2;stroke-dasharray:none;stroke-opacity:1" /><path
       d="m 19.960624,-1.3796125 a 0.55,0.55 0 1 1 1.1,0 0.55,0.55 0 1 1 -1.1,0 z"
       transform="matrix(1,0,0,-1,20.072876,0.6203875)"
       fill="rgb(255,255,255)"
       stroke="rgb(0,0,0)"
       stroke-width="0.0010cm"
       stroke-linecap="round"
       stroke-linejoin="round"
       id="path7388"
       style="fill:none;stroke:#ff6400;stroke-width:0.2;stroke-dasharray:none;stroke-opacity:1" /><path
       d="m -11.92298,-10.879613 v 0 l 6.79e-4,0.190723 0.0021,0.191541 0.0036,0.192184 0.0052,0.192656 0.0069,0.1929562 0.0086,0.1930823 0.01045,0.1930365 0.01238,0.1928179 0.01439,0.1924268 0.01649,0.1918631 0.01867,0.1911268 0.01018,0.095233 0.01076,0.094985 0.01132,0.094473 0.01181,0.093393 0.01229,0.0923 0.01276,0.091219 0.01324,0.090149 0.01371,0.08909 0.01418,0.088043 0.01465,0.087007 0.01512,0.085983 0.01558,0.08497 0.01604,0.083967 0.01649,0.082977 0.01695,0.081998 0.0174,0.08103 0.01785,0.080073 0.01829,0.079128 0.01874,0.078194 0.01918,0.077272 0.01962,0.076361 0.02005,0.075461 0.02048,0.074572 0.02091,0.073695 0.02134,0.07283 0.02177,0.071975 0.02219,0.071132 0.02261,0.0703 0.02302,0.06948 0.02344,0.06867 0.02385,0.067873 0.02426,0.067086 0.02466,0.066311 0.02506,0.065548 0.02546,0.064795 0.02586,0.064054 0.02626,0.063324 0.02665,0.062606 0.02704,0.061899 0.02743,0.061203 0.02781,0.060519 0.02819,0.059846 0.02857,0.059185 0.02896,0.05855 0.02935,0.057925 0.02974,0.057306 0.03013,0.056692 0.03051,0.056085 0.0309,0.055483 0.03128,0.054887 0.03166,0.054297 0.03203,0.053713 0.03241,0.053134 0.03279,0.052561 0.03316,0.051994 0.03353,0.051433 0.0339,0.050878 0.03426,0.050328 0.03463,0.049784 0.03499,0.049246 0.03535,0.048714 0.03571,0.048188 0.03606,0.047667 0.03642,0.047152 0.03677,0.046643 0.03712,0.04614 0.03747,0.045643 0.03782,0.045151 0.07666,0.08885 0.078028,0.086953 0.079377,0.085103 0.080709,0.083298 0.082027,0.081541 0.083329,0.079829 0.084616,0.078164 0.085892,0.076549 0.087266,0.07506 0.088678,0.073633 0.090081,0.072227 0.091477,0.070843 0.092864,0.069481 0.094243,0.068141 0.095614,0.066823 0.096977,0.065527 0.098331,0.064253 0.099678,0.063001 0.1010157,0.06177 0.1023459,0.060562 0.1036678,0.059376 0.1049817,0.058211 0.1062874,0.057069 0.1075848,0.055948 0.1088743,0.054849 0.1101555,0.053773 0.1114285,0.052718 0.1126934,0.051685 0.1139502,0.050674 0.1151989,0.049685 0.1164393,0.048717 0.1176716,0.047772 0.1188957,0.046849 0.1201992,0.045976 0.1219118,0.045253 0.123682,0.044552 0.1254573,0.043857 0.1272378,0.043166 0.1290235,0.042481 0.1308143,0.041801 0.1326103,0.041127 0.1344116,0.040457 0.1362178,0.039793 0.1380294,0.039133 0.1398461,0.038479 0.141668,0.03783 0.143495,0.037186 0.1453272,0.036548 0.1471646,0.035914 0.1490071,0.035286 0.1508549,0.034663 0.1527078,0.034045 0.1545658,0.033432 0.1564291,0.032825 0.1582976,0.032222 0.1601711,0.031625 0.1620498,0.031033 0.1639338,0.030445 0.1658229,0.029864 0.1677172,0.029287 0.1696166,0.0287155 0.1715212,0.0281492 0.173431,0.027588 0.175346,0.027032 0.1772661,0.0264812 0.1791914,0.0259354 0.1811219,0.025395 0.1830575,0.0248596 0.1849983,0.0243295 0.1869444,0.0238044 0.1888955,0.0232845 0.1908518,0.0227699 0.1928133,0.0222603 0.1947801,0.021756 0.1967518,0.0212568 0.1987289,0.0207627 0.2007111,0.0202739 0.2026984,0.0197901 0.204691,0.0193117 0.2066887,0.0188382 0.2086915,0.01837 0.2106996,0.017907 0.2127129,0.0174491 0.2147312,0.0169963 0.2167548,0.0165488 0.2187835,0.0161065 0.2208174,0.0156691 0.2228566,0.0152372 0.2249007,0.0148102 0.2265482,0.0143631 0.227379,0.0138735 0.2281098,0.0133899 0.2287599,0.0129135 0.2293291,0.0124441 0.2298173,0.0119822 0.4607759,0.0226069 0.4617583,0.020845 0.4620936,0.0191407 0.4617819,0.0174939 0.460823,0.0159048 0.2298497,0.007375 0.2293673,0.006999 0.2288041,0.00663 0.2281599,0.006269 0.2274349,0.005915 0.226629,0.005568 0.2257421,0.005228 0.2247745,0.004896 0.2237259,0.00457 0.2225964,0.004252 0.2213861,0.003941 0.2200948,0.003638 0.2187227,0.003341 0.2172697,0.003052 0.2157358,0.002769 0.214121,0.002494 0.2124262,0.002227 0.210648,0.001966 0.208791,0.001713 0.206854,0.001467 0.204833,0.001227 0.202734,9.958e-4 0.200553,7.712e-4 0.19829,5.538e-4 0.196146,3.281e-4 0.196378,-3.768e-4 0.09913,-7.709e-4 0.100171,-0.001335 0.101525,-0.002031 0.103189,-0.002859 0.105163,-0.003818 0.05342,-0.00231 0.05403,-0.002599 0.05468,-0.002905 0.05537,-0.003227 0.05609,-0.003566 0.05686,-0.003921 0.05766,-0.004293 0.05851,-0.004681 0.05939,-0.005086 0.06016,-0.005494 0.119958,-0.011996 0.119089,-0.0133073 0.118212,-0.0146161 0.117326,-0.0159225 0.116429,-0.0172264 0.115524,-0.0185278 0.11461,-0.0198269 0.113685,-0.0211235 0.112752,-0.0224175 0.11181,-0.0237092 0.110858,-0.0249984 0.109897,-0.0262851 0.108927,-0.0275694 0.107947,-0.0288513 0.106958,-0.0301306 0.10596,-0.0314076 0.104952,-0.032682 0.103913,-0.0339434 0.102801,-0.0351681 0.101688,-0.0363835 0.100579,-0.0375917 0.09947,-0.0387926 0.09837,-0.0399864 0.09727,-0.041173 0.09618,-0.0423523 0.09509,-0.0435244 0.094,-0.0446892 0.09291,-0.045847 0.09183,-0.046998 0.09076,-0.048141 0.08968,-0.049277 0.08861,-0.050406 0.08755,-0.051527 0.08648,-0.052642 0.08542,-0.053749 0.08437,-0.054849 0.08331,-0.055942 0.08227,-0.057027 0.08122,-0.058105 0.08018,-0.059176 0.07914,-0.06024 0.07811,-0.061297 0.07708,-0.062347 0.07605,-0.063389 0.07497,-0.064372 0.07368,-0.065117 0.07236,-0.06582 0.07107,-0.066507 0.06979,-0.06718 0.06852,-0.067837 0.06727,-0.068478 0.06604,-0.069105 0.06482,-0.069716 0.06362,-0.070312 0.06243,-0.070893 0.06125,-0.071458 0.0601,-0.072008 0.05895,-0.072543 0.05783,-0.073062 0.05671,-0.073567 0.05562,-0.074056 0.05454,-0.074529 0.05347,-0.074988 0.05242,-0.075431 0.05138,-0.075859 0.05036,-0.076271 0.04935,-0.076668 0.04836,-0.07705 0.04739,-0.077417 0.04643,-0.077768 0.04548,-0.078105 0.04455,-0.078425 0.04364,-0.078731 0.04274,-0.079021 0.04186,-0.079296 0.04099,-0.079556 0.04015,-0.079846 0.03935,-0.080187 0.03856,-0.080518 0.03778,-0.08084 0.037,-0.081151 0.03623,-0.081453 0.03547,-0.081745 0.03471,-0.082028 0.03397,-0.0823 0.03323,-0.082563 0.0325,-0.082816 0.03177,-0.083059 0.03106,-0.083292 0.03035,-0.083516 0.02965,-0.08373 0.02896,-0.083933 0.02827,-0.084128 0.0276,-0.084312 0.02693,-0.084486 0.02627,-0.084651 0.02561,-0.084806 0.02497,-0.084951 0.02433,-0.085086 0.0237,-0.085211 0.02308,-0.085327 0.02246,-0.085433 0.02186,-0.085529 0.02126,-0.085615 0.04074,-0.17145 0.03844,-0.1716772 0.0362,-0.171826 0.03402,-0.1718963 0.0319,-0.1718882 0.02984,-0.1718016 0.02785,-0.1716366 0.02591,-0.1713931 0.02404,-0.1710713 0.02223,-0.1706709 0.02049,-0.1701921 0.0188,-0.1695927 0.01712,-0.1685975 0.0155,-0.1675016 0.01393,-0.1663805 0.01242,-0.165234 0.01097,-0.1640621 0.0096,-0.162865 0.0082,-0.1616425 0.007,-0.1603947 0.0058,-0.1591214 0.0046,-0.157823 0.0035,-0.156499 0.0025,-0.155291 0.0014,-0.155283 4.5e-4,-0.155371 -5.4e-4,-0.155234 -0.0015,-0.154871 -0.0025,-0.15428 -0.0035,-0.153464 -0.0044,-0.152421 -0.0054,-0.151151 -0.0064,-0.149656 -0.0073,-0.147934 -0.0083,-0.145987 -0.0092,-0.14467 -0.01022,-0.144015 -0.01121,-0.143338 -0.01222,-0.142639 -0.01323,-0.141919 -0.01424,-0.141175 -0.01525,-0.14041 -0.01627,-0.139623 -0.01729,-0.138814 -0.01832,-0.137982 -0.01935,-0.137129 -0.02038,-0.136253 -0.02142,-0.135356 -0.02246,-0.134436 -0.02351,-0.133494 -0.02456,-0.132531 -0.02561,-0.131544 -0.02666,-0.130537 -0.02772,-0.129506 -0.02883,-0.128637 -0.03001,-0.127982 -0.03119,-0.127305 -0.03237,-0.126604 -0.03357,-0.125879 -0.03476,-0.125134 -0.03597,-0.124363 -0.03718,-0.123571 -0.03839,-0.122756 -0.03962,-0.121916 -0.04085,-0.121055 -0.04208,-0.12017 -0.04332,-0.119262 -0.04457,-0.118331 -0.04582,-0.117378 -0.04708,-0.116401 -0.04834,-0.115401 -0.04961,-0.114378 -0.05089,-0.113332 -0.05218,-0.112263 -0.05346,-0.111172 -0.05476,-0.110056 -0.05606,-0.108918 -0.05737,-0.107758 -0.05868,-0.106574 -0.06,-0.105366 -0.06133,-0.104137 -0.06266,-0.102883 -0.064,-0.101608 -0.06522,-0.100156 -0.0663,-0.09852 -0.06737,-0.09688 -0.06844,-0.09525 -0.06949,-0.09363 -0.07054,-0.09201 -0.07158,-0.0904 -0.07262,-0.08879 -0.07364,-0.08719 -0.07466,-0.0856 -0.07567,-0.08401 -0.07667,-0.08242 -0.07767,-0.08084 -0.07866,-0.07926 -0.07963,-0.07769 -0.08061,-0.07613 -0.08157,-0.07457 -0.08253,-0.07302 -0.08347,-0.07147 -0.08441,-0.06993 -0.08535,-0.06839 -0.08627,-0.06686 -0.08717,-0.06532 -0.08776,-0.0636 -0.08824,-0.06184 -0.08871,-0.0601 -0.08917,-0.05839 -0.08961,-0.0567 -0.09004,-0.05504 -0.09046,-0.05339 -0.09086,-0.05178 -0.09124,-0.05018 -0.09162,-0.04861 -0.09198,-0.04706 -0.09233,-0.04554 -0.09266,-0.04404 -0.09298,-0.04256 -0.09329,-0.04111 -0.09358,-0.03968 -0.09386,-0.03827 -0.09412,-0.03689 -0.09437,-0.03552 -0.09461,-0.03419 -0.09483,-0.03287 -0.09504,-0.03158 -0.09524,-0.03032 -0.09542,-0.02907 -0.09559,-0.02785 -0.09575,-0.02666 -0.09589,-0.02549 -0.09602,-0.02433 -0.09594,-0.02316 -0.09571,-0.02197 -0.09546,-0.02081 -0.0952,-0.01967 -0.09494,-0.01855 -0.09466,-0.01747 -0.09437,-0.01641 -0.09408,-0.01537 -0.09377,-0.01436 -0.09346,-0.01337 -0.09313,-0.01241 -0.0928,-0.01148 -0.09245,-0.01057 -0.0921,-0.0097 -0.09173,-0.0088 -0.09136,-0.008 -0.09098,-0.0072 -0.09058,-0.0064 -0.09018,-0.0056 -0.08937,-0.005 -0.0455,-0.0024 -0.02387,-0.0012 -0.025,-0.0011 -0.02641,-0.0011 -0.02812,-0.0011 -0.03011,-0.001 -0.01589,-4.92e-4 -0.0165,-4.79e-4 -0.01714,-4.67e-4 -0.01782,-4.52e-4 -0.01854,-4.39e-4 -0.01929,-4.23e-4 -0.02008,-4.08e-4 -0.0209,-3.92e-4 -0.02176,-3.76e-4 -0.02265,-3.58e-4 -0.02359,-3.4e-4 -0.02455,-3.22e-4 -0.02556,-3.04e-4 -0.0266,-2.83e-4 -0.02767,-2.64e-4 -0.02878,-2.43e-4 -0.02993,-2.21e-4 -0.03111,-2e-4 -0.03234,-1.77e-4 -0.03359,-1.55e-4 -0.03488,-1.31e-4 -0.03621,-1.06e-4 -0.03757,-8.2e-5 -0.03898,-5.7e-5 -0.04041,-3.1e-5 -0.04188,-4e-6 -0.04339,2.2e-5 -0.04494,5.1e-5 -0.04652,7.8e-5 -0.04814,1.08e-4 -0.04979,1.36e-4 -0.05147,1.67e-4 -0.0532,1.97e-4 -0.05496,2.28e-4 -0.05676,2.6e-4 -0.05859,2.92e-4 -0.06046,3.25e-4 -0.06237,3.58e-4 -0.06431,3.93e-4 -0.06628,4.27e-4 -0.0683,4.62e-4 -0.07035,4.97e-4 -0.07243,5.34e-4 -0.07455,5.71e-4 -0.07671,6.08e-4 -0.07845,6.46e-4 -0.156752,0.0014 -0.15607,0.0015 -0.155355,0.0016 -0.1546059,0.0018 -0.1538232,0.0019 -0.153007,0.002 -0.1521571,0.0021 -0.1512736,0.0022 -0.1503564,0.0023 -0.1494057,0.0024 -0.1484213,0.0025 -0.1474032,0.0027 -0.1463515,0.0028 -0.1452662,0.0029 -0.1441472,0.003 -0.1430976,0.003 -0.1422378,0.0031 -0.1413867,0.0032 -0.1405388,0.0033 -0.1396945,0.0034 -0.1388535,0.0035 -0.1380159,0.0036 -0.1371816,0.0037 -0.1363509,0.0038 -0.1355234,0.0039 -0.1346994,0.004 -0.1338787,0.0041 -0.1330615,0.0042 -0.1322477,0.0043 -0.1314371,0.0044 -0.1306302,0.0045 -0.1298264,0.0046 -0.1290262,0.0047 -0.1282293,0.0048 -0.1274358,0.0048 -0.1266458,0.0049 -0.125859,0.005 -0.1250757,0.0051 -0.1242958,0.0052 -0.1235192,0.0053 -0.1227462,0.0054 -0.1219764,0.0055 -0.1212101,0.0056 -0.1204471,0.0057 -0.1196876,0.0058 -0.1189314,0.0058 -0.1181786,0.0059 -0.1174293,0.006 -0.1166833,0.0061 -0.1159407,0.0062 -0.1152015,0.0063 -0.1144658,0.0064 -0.1137333,0.0065 -0.1130043,0.0066 -0.1122787,0.0066 -0.1115564,0.0067 -0.1108377,0.0068 -0.1101222,0.0069 -0.1094101,0.007 -0.1087015,0.0071 -0.1079963,0.0072 -0.1072944,0.0072 -0.1065959,0.0073 -0.1059008,0.0074 -0.1052092,0.0075 -0.1045209,0.0076 -0.103836,0.0077 -0.1031545,0.0078 -0.1024763,0.0078 -0.1018017,0.0079 -0.1011304,0.008 -0.1004624,0.0081 -0.099798,0.0082 -0.099137,0.0083 -0.098479,0.0083 -0.0978247,0.0084 -0.0971737,0.0085 -0.0965261,0.0086 -0.0958819,0.0087 -0.0952412,0.0087 -0.0946038,0.0088 -0.0939698,0.0089 -0.0933392,0.009 -0.092712,0.0091 -0.0920882,0.0091 -0.0914678,0.0092 -0.0908508,0.0093 -0.0902371,0.0094 -0.0896269,0.0095 -0.0890201,0.0095 -0.0884166,0.0096 -0.0878165,0.0097 -0.1738466,0.01964 -0.171487,0.01996 -0.1691547,0.02027 -0.1668495,0.02057 -0.1645714,0.02088 -0.1623205,0.02118 -0.1600968,0.02148 -0.1579002,0.02178 -0.1557307,0.02208 -0.1535885,0.02238 -0.1514733,0.02267 -0.1493852,0.02296 -0.1473245,0.02325 -0.1452907,0.02354 -0.1432841,0.02383 -0.1413047,0.02411 -0.1393525,0.02439 -0.1374274,0.02467 -0.1355294,0.02495 -0.1336595,0.02523 -0.1318863,0.02552 -0.1301765,0.02582 -0.1284833,0.02612 -0.126807,0.02641 -0.1251472,0.02671 -0.1235044,0.02701 -0.1218782,0.02731 -0.1202688,0.0276 -0.1186761,0.0279 -0.1171002,0.0282 -0.1155409,0.02849 -0.1139985,0.02878 -0.1124728,0.02908 -0.1109638,0.02937 -0.1094716,0.02967 -0.107996,0.02996 -0.1065373,0.03026 -0.1050953,0.03055 -0.1036701,0.03084 -0.1022615,0.03113 -0.1008697,0.03142 -0.099495,0.03172 -0.098136,0.03201 -0.096795,0.0323 -0.09547,0.03259 -0.094162,0.03288 -0.092871,0.03317 -0.091596,0.03346 -0.090338,0.03375 -0.089097,0.03403 -0.087873,0.03432 -0.086665,0.03461 -0.085474,0.0349 -0.0843,0.03519 -0.083143,0.03547 -0.082002,0.03576 -0.080878,0.03604 -0.079771,0.03633 -0.07868,0.03661 -0.077607,0.0369 -0.07655,0.03718 -0.075539,0.03748 -0.074839,0.03796 -0.074214,0.03848 -0.073585,0.03901 -0.07295,0.03954 -0.07231,0.04007 -0.071666,0.0406 -0.071016,0.04114 -0.070361,0.04168 -0.069701,0.04222 -0.069037,0.04277 -0.068367,0.04332 -0.067692,0.04387 -0.067012,0.04443 -0.066327,0.04499 -0.065637,0.04555 -0.064941,0.04611 -0.064241,0.04668 -0.063536,0.04725 -0.062826,0.04782 -0.06211,0.0484 -0.06139,0.04898 -0.060664,0.04956 -0.059934,0.05014 -0.059198,0.05073 -0.058458,0.05132 -0.057712,0.05192 -0.056961,0.05251 -0.056206,0.05311 -0.055445,0.05372 -0.054679,0.05432 -0.053864,0.05488 -0.052886,0.05523 -0.051902,0.05557 -0.050931,0.0559 -0.04997,0.05622 -0.04902,0.05655 -0.04808,0.05687 -0.04716,0.05719 -0.04624,0.0575 -0.04534,0.05782 -0.04445,0.05813 -0.04357,0.05844 -0.0427,0.05874 -0.04185,0.05905 -0.041,0.05935 -0.04017,0.05964 -0.03935,0.05994 -0.03854,0.06023 -0.03774,0.06052 -0.03696,0.06081 -0.03618,0.06109 -0.03542,0.06137 -0.03467,0.06165 -0.03392,0.06193 -0.0332,0.0622 -0.03248,0.06247 -0.03177,0.06274 -0.03108,0.06301 -0.0304,0.06327 -0.02973,0.06353 -0.02907,0.06379 -0.02842,0.06404 -0.02779,0.06429 -0.02716,0.06454 -0.02655,0.06479 -0.02596,0.06508 -0.02544,0.06553 -0.02493,0.06599 -0.02442,0.06646 -0.02391,0.06692 -0.02341,0.06738 -0.0229,0.06785 -0.02241,0.06832 -0.02191,0.06879 -0.02142,0.06925 -0.02093,0.06972 -0.02044,0.07019 -0.01996,0.07066 -0.01948,0.07114 -0.01901,0.07161 -0.01853,0.07208 -0.01806,0.07256 -0.0176,0.07304 -0.01713,0.07351 -0.01667,0.07399 -0.01621,0.07447 -0.01576,0.07495 -0.01531,0.07543 -0.01486,0.07591 -0.01442,0.07639 -0.01398,0.07688 -0.01354,0.07736 -0.0131,0.07784 -0.01267,0.07833 -0.01224,0.07882 -0.01181,0.0793 -0.01139,0.07979 -0.01097,0.08028 -0.01056,0.08077 -0.01014,0.08126 -0.0097,0.08176 -0.0093,0.08225 -0.0089,0.08274 -0.0085,0.08324 -0.0081,0.08373 -0.0077,0.08423 -0.0073,0.08473 -0.0069,0.08523 -0.0066,0.08573 -0.0062,0.08623 -0.0058,0.08673 -0.0054,0.08723 -0.0051,0.08773 -0.0047,0.08824 -0.0043,0.08874 -0.004,0.08925 -0.0036,0.08975 -0.0032,0.09026 -0.0029,0.09077 -0.0025,0.09128 -0.0022,0.09179 -0.0018,0.0923 -0.0015,0.09281 -0.0012,0.09333 -8.24e-4,0.09384 -4.92e-4,0.09436 z"
       transform="matrix(1,0,0,-1,20.072876,0.6203875)"
       fill="rgb(255,255,255)"
       stroke="rgb(0,0,0)"
       stroke-width="0.0010cm"
       stroke-linecap="round"
       stroke-linejoin="round"
       id="path7390"
       style="fill:none;stroke:#ff6400;stroke-width:0.2;stroke-dasharray:none;stroke-opacity:1" /></g></svg>
