<?xml version="1.0" encoding="UTF-8" standalone="no"?>
<!-- Generator: Fusion 360, Shaper Origin Export Add-In, Version 1.8.0  -->

<svg
   shaper:fusionaddin="version:1.8.0"
   width="50cm"
   height="30cm"
   version="1.1"
   x="0cm"
   y="0cm"
   viewBox="0 0 50 30"
   enable-background="new 0 0 42.3335 23"
   xml:space="preserve"
   id="svg2577"
   sodipodi:docname="mid_004.svg"
   inkscape:version="1.2.2 (732a01da63, 2022-12-09)"
   xmlns:inkscape="http://www.inkscape.org/namespaces/inkscape"
   xmlns:sodipodi="http://sodipodi.sourceforge.net/DTD/sodipodi-0.dtd"
   xmlns="http://www.w3.org/2000/svg"
   xmlns:svg="http://www.w3.org/2000/svg"
   xmlns:shaper="http://www.shapertools.com/namespaces/shaper"><defs
     id="defs2581" /><sodipodi:namedview
     id="namedview2579"
     pagecolor="#505050"
     bordercolor="#eeeeee"
     borderopacity="1"
     inkscape:showpageshadow="0"
     inkscape:pageopacity="0"
     inkscape:pagecheckerboard="0"
     inkscape:deskcolor="#505050"
     inkscape:document-units="cm"
     showgrid="false"
     inkscape:zoom="0.49497475"
     inkscape:cx="829.33524"
     inkscape:cy="469.72093"
     inkscape:window-width="1920"
     inkscape:window-height="991"
     inkscape:window-x="-9"
     inkscape:window-y="-9"
     inkscape:window-maximized="1"
     inkscape:current-layer="svg2577" /><g
     id="g3795"
     transform="translate(3.833149,3.6348656)"><path
       d="m 42.3335,12.488 h -0.5 v -1.976 h 0.5 V 2 a 2,2 0 0 0 -2,-2 h -11.25 v 0.38 h -0.5 V 0 h -20.25 a 2,2 0 0 0 -2,2 v 4 0 l -2.3e-5,0.075526 -6.8e-5,0.074841 -1.14e-4,0.07416 -1.59e-4,0.073483 -2.06e-4,0.07281 -2.52e-4,0.07214 -2.98e-4,0.071474 -3.45e-4,0.070812 -3.92e-4,0.070153 -4.39e-4,0.069499 -4.87e-4,0.068848 -5.34e-4,0.0682 -5.81e-4,0.067557 -6.3e-4,0.066917 -6.78e-4,0.066281 -7.26e-4,0.065648 -7.74e-4,0.06502 -8.23e-4,0.064394 -8.72e-4,0.063773 -9.22e-4,0.063156 -9.7e-4,0.062542 -0.001,0.061932 -0.0011,0.061326 -0.0011,0.060723 -0.0024,0.1196532 -0.0026,0.1172875 -0.0028,0.1149517 -0.003,0.1126457 -0.0032,0.1103695 -0.0034,0.108123 -0.0036,0.1059066 -0.0038,0.1037197 -0.0041,0.1015629 -0.0043,0.099436 -0.0045,0.097338 -0.0047,0.095271 -0.0049,0.093233 -0.0051,0.091226 -0.0054,0.089248 -0.0056,0.087299 -0.0058,0.085381 -0.0061,0.083493 -0.0063,0.081634 -0.0065,0.079805 -0.0067,0.078006 -0.007,0.076237 -0.0072,0.074497 -0.0075,0.072788 -0.0077,0.071108 -0.0079,0.069458 -0.0082,0.06784 -0.0084,0.06625 -0.0087,0.06469 -0.0089,0.06316 -0.0092,0.06166 -0.0094,0.06018 -0.0097,0.05874 -0.0099,0.05733 -0.01018,0.05595 -0.01044,0.0546 -0.0107,0.05328 -0.01096,0.05199 -0.01124,0.05076 -0.01153,0.04967 -0.01184,0.0486 -0.01215,0.04755 -0.01246,0.04651 -0.01278,0.04549 -0.0131,0.04448 -0.01343,0.04348 -0.01376,0.0425 -0.01409,0.04154 -0.01444,0.04059 -0.01478,0.03966 -0.01513,0.03874 -0.01549,0.03784 -0.01584,0.03695 -0.01621,0.03608 -0.01658,0.03522 -0.01695,0.03437 -0.01733,0.03355 -0.01771,0.03273 -0.01817,0.03207 -0.01875,0.03157 -0.01934,0.03106 -0.01995,0.03054 -0.02057,0.03001 -0.02121,0.02948 -0.02188,0.02894 -0.02255,0.02839 -0.02325,0.02784 -0.02396,0.02727 -0.02469,0.0267 -0.02544,0.02612 -0.0262,0.02554 -0.02699,0.02495 -0.02779,0.02435 -0.02855,0.02369 -0.02927,0.023 -0.03,0.02232 -0.03075,0.02165 -0.03151,0.02098 -0.03228,0.02032 -0.03307,0.01966 -0.03387,0.01902 -0.03469,0.01838 -0.03552,0.01774 -0.03636,0.01712 -0.03722,0.0165 -0.03809,0.01589 -0.03897,0.01529 -0.03987,0.01469 -0.04078,0.0141 -0.04172,0.01352 -0.04276,0.01297 -0.04384,0.01243 -0.04494,0.0119 -0.04606,0.01136 -0.0472,0.01083 -0.04837,0.0103 -0.04955,0.0098 -0.05076,0.0092 -0.052,0.0087 -0.05325,0.0082 -0.05453,0.0077 -0.05583,0.0072 -0.05715,0.0067 -0.05849,0.0062 -0.05986,0.0056 -0.06125,0.0051 -0.06266,0.0046 -0.06409,0.0041 -0.06555,0.0036 -0.06703,0.0032 -0.06853,0.0027 -0.07005,0.0022 -0.07159,0.0017 -0.07316,0.0012 -0.07475,7.18e-4 -0.07636,2.38e-4 H 1.7e-5 v 0.7 h 4.9335 v 0.5 0 l 0.02518,3.28e-4 0.0251,9.95e-4 0.02503,0.0017 0.02494,0.0024 0.02485,0.0031 0.02475,0.0038 0.02464,0.0046 0.02453,0.0053 0.02441,0.0061 0.02421,0.0069 0.02389,0.0076 0.02357,0.0084 0.02325,0.0091 0.02294,0.0098 0.02263,0.01058 0.02232,0.01131 0.02201,0.01204 0.0217,0.01277 0.02128,0.01343 0.02082,0.01403 0.02036,0.01461 0.01991,0.01517 0.01947,0.01571 0.01903,0.01623 0.0186,0.01672 0.01817,0.0172 0.0351,0.03573 0.03348,0.03738 0.03191,0.03885 0.03041,0.04019 0.0295,0.04215 0.02881,0.0444 0.02811,0.04666 0.02742,0.04893 0.02673,0.05122 0.01311,0.02647 0.01294,0.02705 0.01277,0.02763 0.0126,0.02822 0.01243,0.0288 0.01226,0.02938 0.01209,0.02997 0.01192,0.03056 0.01176,0.03115 0.01159,0.03175 0.01142,0.03234 0.01125,0.03294 0.01109,0.03354 0.01092,0.03414 0.01076,0.03474 0.01059,0.03535 0.01043,0.03596 0.01026,0.03657 0.0101,0.03718 0.0099,0.0378 0.0098,0.03843 0.0096,0.03906 0.0095,0.03969 0.0093,0.04033 0.0091,0.04096 0.009,0.0416 0.0088,0.04224 0.0087,0.04289 0.0085,0.04353 0.0083,0.04418 0.0082,0.04483 0.008,0.04549 0.0079,0.04615 0.0077,0.04681 0.0075,0.04747 0.0074,0.04813 0.0072,0.0488 0.0071,0.04947 0.0069,0.05014 0.0068,0.05082 0.0066,0.05149 0.0064,0.05217 0.0063,0.05285 0.0061,0.05354 0.006,0.05422 0.0058,0.05492 0.0057,0.05561 0.0055,0.0563 0.0054,0.057 0.0052,0.0577 0.005,0.0584 0.0049,0.05911 0.0047,0.05981 0.0046,0.06052 0.0044,0.06123 0.0043,0.06195 0.0041,0.06267 0.004,0.06339 0.0038,0.06411 0.0037,0.06484 0.0035,0.06556 0.0034,0.06629 0.0032,0.06703 0.0031,0.06776 0.0029,0.0685 0.0028,0.06924 0.0026,0.06998 0.0025,0.07073 0.0023,0.07147 0.0022,0.07222 0.002,0.07298 0.0019,0.07373 0.0017,0.07449 0.0016,0.07525 0.0014,0.07601 0.0013,0.07678 0.0011,0.07755 9.61e-4,0.07832 8.13e-4,0.07909 6.64e-4,0.07987 5.17e-4,0.08064 3.68e-4,0.08142 2.21e-4,0.08221 7.4e-5,0.08299 v 2.2 a 2,2 0 0 0 2,2 h 32 a 2,2 0 0 0 2,-2 z"
       fill="rgb(0,0,0)"
       stroke-linecap="round"
       stroke-linejoin="round"
       id="path2565"
       style="fill:none;stroke:#ff0000;stroke-width:0.2;stroke-dasharray:none;stroke-opacity:1" /><path
       d="m 7.5335,2 a 0.55,0.55 0 1 0 1.1,0 0.55,0.55 0 1 0 -1.1,0 z"
       fill="rgb(255,255,255)"
       stroke="rgb(0,0,0)"
       stroke-width="0.0010cm"
       stroke-linecap="round"
       stroke-linejoin="round"
       id="path2567"
       style="fill:none;stroke:#ff6400;stroke-width:0.2;stroke-dasharray:none;stroke-opacity:1" /><path
       d="m 40.0335,21 a 0.55,0.55 0 1 0 1.1,0 0.55,0.55 0 1 0 -1.1,0 z"
       fill="rgb(255,255,255)"
       stroke="rgb(0,0,0)"
       stroke-width="0.0010cm"
       stroke-linecap="round"
       stroke-linejoin="round"
       id="path2569"
       style="fill:none;stroke:#ff6400;stroke-width:0.2;stroke-dasharray:none;stroke-opacity:1" /><path
       d="m 7.5335,21 a 0.55,0.55 0 1 0 1.1,0 0.55,0.55 0 1 0 -1.1,0 z"
       fill="rgb(255,255,255)"
       stroke="rgb(0,0,0)"
       stroke-width="0.0010cm"
       stroke-linecap="round"
       stroke-linejoin="round"
       id="path2571"
       style="fill:none;stroke:#ff6400;stroke-width:0.2;stroke-dasharray:none;stroke-opacity:1" /><path
       d="m 40.0335,2 a 0.55,0.55 0 1 0 1.1,0 0.55,0.55 0 1 0 -1.1,0 z"
       fill="rgb(255,255,255)"
       stroke="rgb(0,0,0)"
       stroke-width="0.0010cm"
       stroke-linecap="round"
       stroke-linejoin="round"
       id="path2573"
       style="fill:none;stroke:#ff6400;stroke-width:0.2;stroke-dasharray:none;stroke-opacity:1" /><path
       d="m 32.047786,22.343463 v 0 l -0.02558,9e-6 -0.02674,7e-6 -0.02793,6e-6 -0.02914,5e-6 -0.03037,1e-6 -0.03164,-1e-6 -0.03292,-5e-6 -0.03423,-8e-6 -0.03557,-1.4e-5 -0.03693,-1.8e-5 -0.03831,-2.5e-5 -0.03972,-3e-5 -0.04115,-3.7e-5 -0.04261,-4.5e-5 -0.04409,-5.2e-5 -0.04559,-6.1e-5 -0.04712,-6.9e-5 -0.04868,-7.9e-5 -0.05026,-8.9e-5 -0.05186,-9.9e-5 -0.05349,-1.11e-4 -0.05514,-1.21e-4 -0.05682,-1.35e-4 -0.05852,-1.46e-4 -0.06025,-1.6e-4 -0.062,-1.74e-4 -0.06377,-1.87e-4 -0.06557,-2.03e-4 -0.0674,-2.18e-4 -0.06896,-2.33e-4 -0.138198,-5.09e-4 -0.27587,-0.0012 -0.275103,-0.0014 -0.274258,-0.0016 -0.273332,-0.0019 -0.272327,-0.0021 -0.271244,-0.0024 -0.27008,-0.0026 -0.268839,-0.0029 -0.267517,-0.0031 -0.266116,-0.0034 -0.264637,-0.0037 -0.263077,-0.0039 -0.261439,-0.0042 -0.259721,-0.0045 -0.257925,-0.0048 -0.256049,-0.0051 -0.254093,-0.0054 -0.252059,-0.0057 -0.249932,-0.006 -0.124035,-0.0031 -0.123362,-0.0032 -0.122691,-0.0032 -0.122023,-0.0033 -0.121357,-0.0034 -0.120693,-0.0035 -0.120031,-0.0035 -0.119373,-0.0036 -0.118717,-0.0037 -0.118062,-0.0038 -0.11741,-0.0038 -0.116761,-0.0039 -0.116114,-0.004 -0.11547,-0.0041 -0.114827,-0.0041 -0.114187,-0.0042 -0.11355,-0.0043 -0.112914,-0.0044 -0.112282,-0.0044 -0.111652,-0.0045 -0.111023,-0.0046 -0.110398,-0.0047 -0.109775,-0.0047 -0.109153,-0.0048 -0.108536,-0.0049 -0.107919,-0.005 -0.107306,-0.005 -0.106694,-0.0051 -0.106085,-0.0052 -0.105479,-0.0053 -0.104874,-0.0054 -0.104273,-0.0054 -0.103673,-0.0055 -0.103076,-0.0056 -0.204371,-0.01142 -0.20201,-0.01174 -0.199671,-0.01206 -0.197348,-0.01238 -0.195046,-0.01271 -0.192762,-0.01303 -0.190498,-0.01336 -0.188252,-0.01369 -0.186025,-0.01402 -0.183818,-0.01435 -0.18163,-0.01469 -0.17946,-0.01502 -0.17731,-0.01536 -0.175178,-0.0157 -0.173066,-0.01604 -0.170973,-0.01639 -0.168898,-0.01673 -0.166843,-0.01708 -0.164807,-0.01743 -0.162789,-0.01778 -0.160792,-0.01813 -0.158812,-0.01848 -0.156852,-0.01884 -0.154911,-0.0192 -0.152989,-0.01956 -0.151086,-0.01992 -0.149202,-0.02028 -0.147336,-0.02065 -0.145491,-0.02101 -0.143664,-0.02138 -0.141842,-0.02175 -0.139851,-0.02209 -0.137824,-0.02241 -0.13582,-0.02274 -0.133838,-0.02307 -0.13188,-0.02339 -0.129945,-0.02372 -0.128033,-0.02405 -0.126144,-0.02437 -0.124277,-0.0247 -0.122435,-0.02503 -0.120614,-0.02535 -0.118817,-0.02568 -0.117044,-0.026 -0.115292,-0.02633 -0.113565,-0.02665 -0.111859,-0.02698 -0.110178,-0.0273 -0.108519,-0.02763 -0.106883,-0.02795 -0.10527,-0.02828 -0.10368,-0.0286 -0.102114,-0.02893 -0.100569,-0.02925 -0.09905,-0.02958 -0.09755,-0.0299 -0.09608,-0.03023 -0.09463,-0.03055 -0.0932,-0.03087 -0.09179,-0.0312 -0.09041,-0.03152 -0.08905,-0.03184 -0.08771,-0.03216 -0.0864,-0.03249 -0.08511,-0.03281 -0.08384,-0.03313 -0.0826,-0.03346 -0.08138,-0.03378 -0.08018,-0.0341 -0.079,-0.03442 -0.07786,-0.03476 -0.07676,-0.03511 -0.07567,-0.03546 -0.0746,-0.03582 -0.07353,-0.03617 -0.07248,-0.03653 -0.07143,-0.03688 -0.0704,-0.03724 -0.06939,-0.0376 -0.06838,-0.03796 -0.06738,-0.03831 -0.0664,-0.03867 -0.06542,-0.03903 -0.06446,-0.03939 -0.06351,-0.03975 -0.06257,-0.04012 -0.06164,-0.04048 -0.06073,-0.04084 -0.05982,-0.04121 -0.05893,-0.04157 -0.05805,-0.04194 -0.05718,-0.0423 -0.05632,-0.04267 -0.05547,-0.04304 -0.05464,-0.0434 -0.05381,-0.04377 -0.053,-0.04414 -0.0522,-0.04451 -0.05141,-0.04488 -0.05063,-0.04525 -0.04986,-0.04563 -0.04909,-0.04598 -0.04827,-0.04629 -0.04746,-0.04658 -0.04665,-0.04687 -0.04585,-0.04715 -0.04506,-0.04744 -0.04429,-0.04772 -0.04352,-0.048 -0.04276,-0.04827 -0.04201,-0.04854 -0.04127,-0.04881 -0.04054,-0.04908 -0.03982,-0.04935 -0.03911,-0.04961 -0.03841,-0.04987 -0.03772,-0.05013 -0.03703,-0.05039 -0.03636,-0.05064 -0.0357,-0.05089 -0.03505,-0.05114 -0.0344,-0.05138 -0.03377,-0.05163 -0.03314,-0.05187 -0.03253,-0.0521 -0.03192,-0.05234 -0.03133,-0.05257 -0.03074,-0.0528 -0.03016,-0.05303 -0.0296,-0.05325 -0.05753,-0.10717 -0.05537,-0.108038 -0.05329,-0.108887 -0.05129,-0.109714 -0.04944,-0.1107 -0.04784,-0.112234 -0.04628,-0.113814 -0.04474,-0.115401 -0.04322,-0.116992 -0.04171,-0.11859 -0.04023,-0.120195 -0.03876,-0.121803 -0.03732,-0.12342 -0.03589,-0.125042 -0.03448,-0.126669 -0.03309,-0.128303 -0.03172,-0.129943 -0.03037,-0.131588 -0.02904,-0.13324 -0.02773,-0.134897 -0.02644,-0.136561 -0.02516,-0.13823 -0.02391,-0.139906 -0.02267,-0.141587 -0.02146,-0.143274 -0.02026,-0.144968 -0.01908,-0.146667 -0.01792,-0.148372 -0.01678,-0.150083 -0.01566,-0.1518 -0.01456,-0.153523 -0.01348,-0.155231 -0.01232,-0.155762 -0.01115,-0.155463 -0.01003,-0.154955 -0.009,-0.154238 -0.0079,-0.15331 -0.0069,-0.152174 -0.006,-0.150828 -0.0051,-0.149272 -0.0042,-0.147506 -0.0034,-0.145533 -0.0014,-0.07196 -0.0012,-0.07139 -0.0011,-0.07079 -8.9e-4,-0.07016 -7.21e-4,-0.06951 -5.6e-4,-0.06884 -4.02e-4,-0.06813 -2.52e-4,-0.0674 -1.06e-4,-0.06665 3.3e-5,-0.06587 1.68e-4,-0.06506 2.96e-4,-0.06422 4.19e-4,-0.06336 5.36e-4,-0.06248 6.48e-4,-0.06156 7.53e-4,-0.06063 8.54e-4,-0.05966 9.48e-4,-0.05867 10e-4,-0.05765 0.0011,-0.05661 0.0012,-0.05554 0.0013,-0.05444 0.0013,-0.05332 0.0014,-0.05217 0.0015,-0.051 0.0015,-0.0498 0.0015,-0.04857 0.0016,-0.04732 0.0016,-0.04604 0.0016,-0.04476 0.0035,-0.08823 0.0037,-0.08743 0.004,-0.08664 0.0043,-0.08586 0.0045,-0.085078 0.0048,-0.084305 0.005,-0.083538 0.0053,-0.082777 0.0055,-0.082023 0.0058,-0.081274 0.0061,-0.080531 0.0063,-0.079793 0.0066,-0.079062 0.0068,-0.078337 0.0071,-0.077618 0.0073,-0.076904 0.0076,-0.076197 0.0078,-0.075495 0.0081,-0.0748 0.0083,-0.07411 0.0086,-0.073426 0.0088,-0.072748 0.0091,-0.072077 0.0093,-0.071411 0.0096,-0.070751 0.0098,-0.070097 0.01005,-0.069449 0.01029,-0.068806 0.01053,-0.06817 0.01077,-0.06754 0.01101,-0.066915 0.01125,-0.066297 0.01149,-0.065684 0.01173,-0.065077 0.01196,-0.064477 0.0122,-0.063882 0.01243,-0.063293 0.01266,-0.06271 0.0129,-0.062133 0.01313,-0.061562 0.01336,-0.060997 0.01359,-0.060438 0.02787,-0.1192218 0.02878,-0.1170562 0.02969,-0.114938 0.03059,-0.1128672 0.03148,-0.110844 0.03236,-0.1088681 0.03324,-0.1069396 0.03411,-0.1050587 0.03505,-0.1034075 0.0362,-0.102259 0.03737,-0.1011331 0.03854,-0.1000035 0.03973,-0.09887 0.04092,-0.097733 0.04213,-0.096593 0.04334,-0.095448 0.04457,-0.0943 0.0458,-0.093148 0.04705,-0.091993 0.0483,-0.090834 0.04956,-0.089671 0.05084,-0.088505 0.05212,-0.087334 0.05341,-0.086161 0.05471,-0.084983 0.05603,-0.083802 0.05735,-0.082617 0.05868,-0.081428 0.06002,-0.080236 0.06137,-0.07904 0.06273,-0.077836 0.06378,-0.076316 0.06463,-0.074625 0.06547,-0.072965 0.06628,-0.071336 0.06708,-0.069737 0.06786,-0.068169 0.06863,-0.066632 0.06937,-0.065126 0.0701,-0.063649 0.07081,-0.062204 0.0715,-0.06079 0.07217,-0.059406 0.07283,-0.058052 0.07346,-0.05673 0.07408,-0.055438 0.07468,-0.054176 0.07527,-0.052946 0.07583,-0.051746 0.07638,-0.050576 0.07691,-0.049438 0.07742,-0.04833 0.07792,-0.047252 0.07839,-0.046206 0.07885,-0.04519 0.07929,-0.044204 0.07974,-0.043262 0.08049,-0.04249 0.08132,-0.041769 0.08214,-0.041057 0.08295,-0.040353 0.08375,-0.039657 0.08454,-0.03897 0.08533,-0.038291 0.0861,-0.03762 0.08686,-0.036958 0.08762,-0.036304 0.08836,-0.035659 0.0891,-0.035021 0.08982,-0.034393 0.09054,-0.033772 0.09125,-0.03316 0.09195,-0.032556 0.09263,-0.03196 0.09331,-0.031373 0.09398,-0.030794 0.09464,-0.030224 0.09529,-0.029661 0.09593,-0.029107 0.09656,-0.028562 0.09719,-0.028025 0.0978,-0.027496 0.0984,-0.026975 0.099,-0.026463 0.09958,-0.025959 0.100154,-0.025464 0.100719,-0.024976 0.101274,-0.024497 0.101821,-0.024027 0.102358,-0.023565 0.102885,-0.023111 0.103403,-0.022665 0.103911,-0.022228 0.10441,-0.021799 0.104899,-0.021379 0.105379,-0.020967 0.10585,-0.020563 0.213074,-0.039948 0.214841,-0.038432 0.216535,-0.036984 0.21817,-0.035604 0.110107,-0.017355 0.111083,-0.017098 0.112056,-0.016842 0.113025,-0.016588 0.113988,-0.016336 0.114947,-0.016086 0.115903,-0.015837 0.116853,-0.01559 0.1178,-0.015345 0.118743,-0.015102 0.11968,-0.01486 0.120615,-0.01462 0.121543,-0.014382 0.122469,-0.014146 0.123389,-0.013911 0.124306,-0.013678 0.125218,-0.013447 0.126126,-0.013218 0.127029,-0.01299 0.127929,-0.012764 0.128823,-0.01254 0.129715,-0.012317 0.1306,-0.012097 0.131483,-0.011878 0.13236,-0.011661 0.133234,-0.011445 0.134103,-0.011231 0.134968,-0.011019 0.135828,-0.0108091 0.136684,-0.0106007 0.137537,-0.010394 0.138384,-0.0101889 0.139227,-0.009986 0.140066,-0.009784 0.140901,-0.009584 0.141732,-0.009386 0.142557,-0.00919 0.143379,-0.008996 0.144197,-0.008803 0.14501,-0.008612 0.145819,-0.008423 0.146623,-0.008235 0.147424,-0.008049 0.148219,-0.007865 0.149011,-0.007683 0.149799,-0.007502 0.150582,-0.007323 0.15136,-0.007146 0.152135,-0.006971 0.152905,-0.006797 0.15367,-0.006626 0.154433,-0.006456 0.155189,-0.006287 0.155943,-0.00612 0.156691,-0.005956 0.157435,-0.005793 0.158175,-0.005631 0.158911,-0.005471 0.159643,-0.005314 0.160369,-0.005157 0.161093,-0.005003 0.161811,-0.00485 0.162525,-0.004699 0.163235,-0.00455 0.16394,-0.004403 0.164642,-0.004257 0.165338,-0.004113 0.166032,-0.003971 0.16672,-0.003831 0.167403,-0.003692 0.168084,-0.003555 0.168759,-0.00342 0.16943,-0.003286 0.170097,-0.003155 0.17076,-0.003025 0.171417,-0.002896 0.172072,-0.00277 0.172721,-0.002645 0.173367,-0.002522 0.174008,-0.002401 0.174644,-0.002281 0.175277,-0.002164 0.175905,-0.002048 0.176528,-0.001933 0.177148,-0.001821 0.177764,-0.00171 0.178374,-0.001601 0.178981,-0.001494 0.179583,-0.001388 0.180181,-0.001284 0.362139,-0.002264 0.364479,-0.00187 0.366785,-0.00149 0.369057,-0.001123 0.371293,-7.709e-4 0.373496,-4.325e-4 0.187563,-9.37e-5 0.09422,1.16e-5 0.04815,1.408e-4 0.04907,2.759e-4 0.04997,4.232e-4 0.05086,5.833e-4 0.05173,7.555e-4 0.05258,9.404e-4 0.05342,0.001138 0.05424,0.001347 0.05504,0.00157 0.05582,0.001804 0.05658,0.002051 0.05733,0.002311 0.05806,0.002583 0.05877,0.002867 0.05947,0.003164 0.06014,0.003473 0.0608,0.003795 0.06144,0.004129 0.06207,0.004476 0.06267,0.004835 0.06326,0.005207 0.06383,0.005591 0.06439,0.005987 0.06492,0.006396 0.06544,0.006818 0.06594,0.007251 0.06642,0.007697 0.06689,0.008156 0.06734,0.008628 0.06777,0.009111 0.06818,0.009607 0.06858,0.0101156 0.06895,0.0106365 0.06931,0.01117 0.06965,0.0117159 0.06998,0.0122741 0.07029,0.0128449 0.07058,0.0134281 0.07085,0.0140238 0.0711,0.0146319 0.07134,0.0152524 0.07156,0.0158855 0.07176,0.0165309 0.07194,0.0171888 0.07211,0.0178592 0.07226,0.018542 0.07239,0.0192372 0.0725,0.019945 0.0726,0.020665 0.07268,0.021398 0.07274,0.022143 0.07278,0.0229 0.07278,0.02366 0.07239,0.024302 0.07188,0.024906 0.07137,0.025509 0.07086,0.026113 0.07035,0.026716 0.06984,0.02732 0.06934,0.027922 0.06883,0.028525 0.06832,0.029128 0.06781,0.02973 0.0673,0.030333 0.06679,0.030935 0.06627,0.031537 0.06576,0.032138 0.06525,0.03274 0.06474,0.033341 0.06423,0.033942 0.06372,0.034544 0.0632,0.035144 0.06269,0.035745 0.06218,0.036346 0.06167,0.036946 0.06115,0.037546 0.06064,0.038146 0.06012,0.038745 0.05961,0.039345 0.05909,0.039944 0.05858,0.040544 0.05806,0.041143 0.05755,0.041741 0.05703,0.04234 0.05652,0.042939 0.056,0.043537 0.05548,0.044135 0.05496,0.044724 0.05429,0.045185 0.05359,0.045603 0.0529,0.046016 0.05221,0.046423 0.05153,0.046825 0.05085,0.047222 0.05018,0.047614 0.04952,0.048 0.04886,0.048381 0.0482,0.048757 0.04756,0.049127 0.04691,0.049492 0.04628,0.049852 0.04565,0.050207 0.04502,0.050556 0.04441,0.050901 0.04379,0.05124 0.04319,0.051573 0.04259,0.051902 0.04199,0.052225 0.0414,0.052543 0.04082,0.052855 0.04024,0.053163 0.03967,0.053465 0.03911,0.053762 0.03854,0.054053 0.03799,0.054339 0.03744,0.05462 0.0369,0.054896 0.03636,0.055167 0.07114,0.1111235 0.06907,0.1121425 0.06704,0.1131191 0.06506,0.1140538 0.06312,0.1149463 0.06123,0.11581 0.05939,0.1166559 0.05757,0.1174629 0.05578,0.1182302 0.05403,0.1189582 0.0523,0.1196467 0.0506,0.1202956 0.04893,0.1209051 0.04729,0.1214752 0.04568,0.1220056 0.0441,0.1224968 0.04255,0.1229482 0.04103,0.1233604 0.03954,0.123733 0.03808,0.1240662 0.03664,0.1243598 0.03524,0.1246139 0.03387,0.1248287 0.03252,0.1250038 0.03121,0.1251396 0.02993,0.1252358 0.02867,0.1252926 0.02745,0.1253099 0.02625,0.1252877 0.02509,0.1252261 0.02395,0.1251248 0.02285,0.1249843 0.02177,0.1248041 0.02073,0.1245846 0.01971,0.1243254 0.01872,0.124027 0.01776,0.1236888 0.01684,0.1233508 0.01593,0.1231622 0.01506,0.1229376 0.0142,0.1226486 0.01336,0.1222952 0.01255,0.1218772 0.01175,0.121395 0.01098,0.1208481 0.01023,0.120237 0.0095,0.1195613 0.0088,0.1188212 0.0081,0.1180167 0.0074,0.1171478 0.0068,0.1162142 0.0062,0.115216 0.0056,0.114155 0.005,0.113027 0.0044,0.111837 0.0039,0.110581 0.0034,0.109261 0.0029,0.107876 0.0024,0.106428 0.0019,0.104914 0.0015,0.103336 0.0011,0.101694 6.9e-4,0.09999 3.2e-4,0.09822 -3e-5,0.09638 -3.58e-4,0.09448 -6.65e-4,0.09252 -9.5e-4,0.09049 -0.0012,0.08839 -0.0015,0.08624 -0.0017,0.08401 -0.0019,0.08173 -0.0021,0.07938 -0.0011,0.03879 -0.0011,0.03817 -0.0012,0.03756 -0.0012,0.03693 -0.0012,0.03629 -0.0013,0.03565 -0.0013,0.03499 -0.0013,0.03433 -0.0013,0.03367 -0.0013,0.03299 -0.0013,0.03231 -0.0014,0.03161 -0.0027,0.06144 -0.0059,0.122051 -0.0066,0.121935 -0.0072,0.121798 -0.0078,0.121639 -0.0085,0.12146 -0.0092,0.121259 -0.0098,0.121036 -0.01051,0.120793 -0.01119,0.120527 -0.01189,0.120241 -0.01259,0.119934 -0.0133,0.119604 -0.01402,0.119253 -0.01475,0.118883 -0.01548,0.118488 -0.01623,0.118075 -0.01698,0.117638 -0.01773,0.117182 -0.0185,0.116703 -0.01928,0.116203 -0.02006,0.115682 -0.02085,0.11514 -0.02165,0.114576 -0.02245,0.113991 -0.02327,0.113384 -0.02409,0.112756 -0.02492,0.112107 -0.02576,0.111437 -0.0266,0.110746 -0.0275,0.110194 -0.02842,0.109728 -0.02936,0.109241 -0.0303,0.108735 -0.03125,0.108208 -0.03221,0.107662 -0.03318,0.107096 -0.03415,0.106509 -0.03513,0.105903 -0.03612,0.105277 -0.03712,0.10463 -0.03813,0.103963 -0.03914,0.103278 -0.04016,0.10257 -0.04119,0.101845 -0.04223,0.101098 -0.04327,0.100331 -0.04432,0.09954 -0.04538,0.09874 -0.04645,0.09791 -0.04753,0.09706 -0.04861,0.0962 -0.0497,0.09531 -0.0508,0.09441 -0.05191,0.09348 -0.05302,0.09253 -0.05414,0.09157 -0.05527,0.09058 -0.05641,0.08957 -0.05743,0.08839 -0.05837,0.08708 -0.0593,0.08578 -0.06023,0.08449 -0.06116,0.08319 -0.06209,0.0819 -0.06301,0.08062 -0.06393,0.07934 -0.06485,0.07806 -0.06577,0.07678 -0.06669,0.07551 -0.0676,0.07424 -0.06851,0.07298 -0.06942,0.07172 -0.07032,0.07046 -0.07123,0.0692 -0.07213,0.06795 -0.07303,0.0667 -0.07392,0.06546 -0.07482,0.06422 -0.07571,0.06298 -0.0766,0.06175 -0.07749,0.06052 -0.07837,0.05929 -0.07925,0.05807 -0.07997,0.05675 -0.08045,0.05529 -0.08091,0.05385 -0.08135,0.05243 -0.08178,0.05103 -0.0822,0.04964 -0.08261,0.04828 -0.08301,0.04693 -0.08339,0.0456 -0.08376,0.04429 -0.08412,0.043 -0.08447,0.04173 -0.0848,0.04048 -0.08513,0.03925 -0.08544,0.03803 -0.08574,0.03684 -0.08602,0.03566 -0.0863,0.0345 -0.08656,0.03337 -0.08681,0.03225 -0.08704,0.03115 -0.08727,0.03007 -0.08748,0.029 -0.08768,0.02796 -0.08787,0.02694 -0.08805,0.02593 -0.08821,0.02495 -0.08837,0.02398 -0.0885,0.02303 -0.08863,0.0221 -0.08875,0.02119 -0.08896,0.02031 -0.08919,0.01944 -0.08941,0.01858 -0.08962,0.01774 -0.08982,0.01691 -0.09,0.01609 -0.09018,0.01527 -0.09034,0.01448 -0.09048,0.01369 -0.09062,0.01291 -0.09075,0.01215 -0.09086,0.0114 -0.09096,0.01065 -0.09104,0.0099 -0.09112,0.0092 -0.09118,0.0085 -0.09124,0.0078 -0.09127,0.0071 -0.0913,0.0064 -0.09132,0.0058 -0.09132,0.0051 -0.09131,0.0045 -0.09129,0.0039 -0.09125,0.0032 -0.09121,0.0026 -0.04558,0.0011 -0.01142,2.52e-4 -0.0062,1.26e-4 -0.0068,1.28e-4 -0.0075,1.31e-4 -0.0081,1.34e-4 -0.0088,1.35e-4 -0.0095,1.39e-4 -0.01029,1.41e-4 -0.01107,1.44e-4 -0.01186,1.47e-4 -0.01268,1.5e-4 -0.01353,1.52e-4 -0.0144,1.56e-4 -0.01529,1.58e-4 -0.01621,1.62e-4 -0.01715,1.64e-4 -0.01812,1.68e-4 -0.01911,1.72e-4 -0.02013,1.74e-4 -0.02117,1.78e-4 -0.02223,1.82e-4 -0.02332,1.85e-4 z"
       fill="rgb(255,255,255)"
       stroke="rgb(0,0,0)"
       stroke-width="0.0010cm"
       stroke-linecap="round"
       stroke-linejoin="round"
       id="path2575"
       style="fill:none;stroke:#ff6400;stroke-width:0.2;stroke-dasharray:none;stroke-opacity:1" /></g></svg>
