<?xml version="1.0" encoding="UTF-8" standalone="no"?>
<!-- Generator: Fusion 360, Shaper Origin Export Add-In, Version 1.8.0  -->

<svg
   shaper:fusionaddin="version:1.8.0"
   width="50cm"
   height="30cm"
   version="1.1"
   x="0cm"
   y="0cm"
   viewBox="0 0 50 30"
   enable-background="new 0 0 42.3335 23"
   xml:space="preserve"
   id="svg781"
   sodipodi:docname="mid_003.svg"
   inkscape:version="1.2.2 (732a01da63, 2022-12-09)"
   xmlns:inkscape="http://www.inkscape.org/namespaces/inkscape"
   xmlns:sodipodi="http://sodipodi.sourceforge.net/DTD/sodipodi-0.dtd"
   xmlns="http://www.w3.org/2000/svg"
   xmlns:svg="http://www.w3.org/2000/svg"
   xmlns:shaper="http://www.shapertools.com/namespaces/shaper"><defs
     id="defs785" /><sodipodi:namedview
     id="namedview783"
     pagecolor="#505050"
     bordercolor="#eeeeee"
     borderopacity="1"
     inkscape:showpageshadow="0"
     inkscape:pageopacity="0"
     inkscape:pagecheckerboard="0"
     inkscape:deskcolor="#505050"
     inkscape:document-units="cm"
     showgrid="false"
     inkscape:zoom="0.35"
     inkscape:cx="522.85714"
     inkscape:cy="795.71429"
     inkscape:window-width="1920"
     inkscape:window-height="991"
     inkscape:window-x="-9"
     inkscape:window-y="-9"
     inkscape:window-maximized="1"
     inkscape:current-layer="svg781" /><g
     id="g2190"
     transform="translate(3.833134,3.5279578)"><path
       d="m 42.3335,12.488 h -0.5 v -1.976 h 0.5 V 2 a 2,2 0 0 0 -2,-2 h -11.25 v 0.38 h -0.5 V 0 h -20.25 a 2,2 0 0 0 -2,2 v 4 0 l -2.3e-5,0.07553 -6.8e-5,0.07484 -1.14e-4,0.07416 -1.59e-4,0.07348 -2.06e-4,0.07281 -2.52e-4,0.07214 -2.98e-4,0.07147 -3.46e-4,0.07081 -3.92e-4,0.07015 -4.39e-4,0.0695 -4.86e-4,0.06885 -5.34e-4,0.0682 -5.82e-4,0.06756 -6.29e-4,0.06692 -6.78e-4,0.06628 -7.26e-4,0.06565 -7.74e-4,0.06502 -8.23e-4,0.06439 -8.72e-4,0.06377 -9.22e-4,0.06316 -9.7e-4,0.06254 -0.001,0.06193 -0.0011,0.06133 -0.0011,0.06072 -0.0024,0.119653 -0.0026,0.117288 -0.0028,0.114951 -0.003,0.112646 -0.0032,0.11037 -0.0034,0.108123 -0.0036,0.105906 -0.0038,0.10372 -0.0041,0.101563 -0.0043,0.09944 -0.0045,0.09734 -0.0047,0.09527 -0.0049,0.09323 -0.0051,0.09123 -0.0054,0.08925 -0.0056,0.0873 -0.0058,0.08538 -0.0061,0.08349 -0.0063,0.08163 -0.0065,0.07981 -0.0067,0.07801 -0.007,0.07624 -0.0072,0.0745 -0.0075,0.07279 -0.0077,0.07111 -0.0079,0.06946 -0.0082,0.06784 -0.0084,0.06625 -0.0087,0.06469 -0.0089,0.06316 -0.0092,0.06166 -0.0094,0.06018 -0.0097,0.05874 -0.0099,0.05733 -0.01018,0.05595 -0.01044,0.0546 -0.0107,0.05328 -0.01096,0.05198 -0.01124,0.05076 -0.01153,0.04967 -0.01184,0.0486 -0.01215,0.04755 -0.01246,0.04651 -0.01278,0.04549 -0.0131,0.04448 -0.01343,0.04348 -0.01376,0.0425 -0.0141,0.04154 -0.01444,0.04059 -0.01478,0.03966 -0.01513,0.03874 -0.01549,0.03784 -0.01584,0.03695 -0.01621,0.03608 -0.01657,0.03522 -0.01695,0.03437 -0.01732,0.03355 -0.01771,0.03273 -0.01818,0.03207 -0.01875,0.03157 -0.01934,0.03106 -0.01995,0.03054 -0.02057,0.03001 -0.02122,0.02948 -0.02188,0.02894 -0.02255,0.02839 -0.02325,0.02784 -0.02396,0.02727 -0.02469,0.0267 -0.02544,0.02613 -0.02621,0.02554 -0.02699,0.02495 -0.02779,0.02435 -0.02855,0.02369 -0.02927,0.023 -0.03,0.02232 -0.03075,0.02165 -0.03151,0.02098 -0.03228,0.02032 -0.03307,0.01966 -0.03387,0.01902 -0.03469,0.01838 -0.03552,0.01775 -0.03636,0.01712 -0.03722,0.0165 -0.03809,0.01589 -0.03897,0.01529 -0.03987,0.01469 -0.04078,0.0141 -0.04172,0.01352 -0.04276,0.01297 -0.04384,0.01243 -0.04494,0.0119 -0.04606,0.01136 -0.0472,0.01083 -0.04837,0.0103 -0.04955,0.0098 -0.05076,0.0092 -0.052,0.0087 -0.05325,0.0082 -0.05453,0.0077 -0.05583,0.0072 -0.05715,0.0067 -0.05849,0.0062 -0.05986,0.0056 -0.06125,0.0051 -0.06266,0.0046 -0.06409,0.0041 -0.06555,0.0036 -0.06703,0.0031 -0.06853,0.0027 -0.07005,0.0022 -0.07159,0.0017 -0.07316,0.0012 -0.07475,7.17e-4 -0.07636,2.39e-4 H -3e-6 v 0.7 h 4.9335 v 0.5 0 l 0.02518,3.28e-4 0.0251,9.94e-4 0.02503,0.0017 0.02494,0.0024 0.02485,0.0031 0.02475,0.0038 0.02464,0.0046 0.02453,0.0053 0.02441,0.0061 0.02421,0.0069 0.02389,0.0076 0.02357,0.0084 0.02325,0.0091 0.02294,0.0099 0.02262,0.01058 0.02232,0.01131 0.02201,0.01204 0.0217,0.01277 0.02128,0.01343 0.02082,0.01403 0.02036,0.01461 0.01991,0.01517 0.01947,0.01571 0.01903,0.01623 0.0186,0.01672 0.01817,0.0172 0.0351,0.03573 0.03348,0.03738 0.0319,0.03885 0.03041,0.04019 0.0295,0.04215 0.02881,0.0444 0.02811,0.04666 0.02742,0.04893 0.02673,0.05122 0.01311,0.02647 0.01294,0.02705 0.01277,0.02763 0.0126,0.02822 0.01243,0.0288 0.01226,0.02938 0.01209,0.02997 0.01192,0.03056 0.01175,0.03115 0.01159,0.03175 0.01142,0.03234 0.01125,0.03294 0.01109,0.03354 0.01092,0.03414 0.01076,0.03474 0.01059,0.03535 0.01043,0.03596 0.01026,0.03657 0.0101,0.03718 0.0099,0.0378 0.0098,0.03843 0.0096,0.03906 0.0095,0.03969 0.0093,0.04033 0.0091,0.04096 0.009,0.0416 0.0088,0.04224 0.0087,0.04289 0.0085,0.04353 0.0083,0.04418 0.0082,0.04484 0.008,0.04549 0.0079,0.04615 0.0077,0.04681 0.0075,0.04747 0.0074,0.04813 0.0072,0.0488 0.0071,0.04947 0.0069,0.05014 0.0068,0.05082 0.0066,0.05149 0.0064,0.05217 0.0063,0.05285 0.0061,0.05354 0.006,0.05423 0.0058,0.05491 0.0057,0.05561 0.0055,0.0563 0.0054,0.057 0.0052,0.0577 0.0051,0.0584 0.0049,0.05911 0.0047,0.05981 0.0046,0.06052 0.0044,0.06124 0.0043,0.06195 0.0041,0.06267 0.004,0.06339 0.0038,0.06411 0.0037,0.06484 0.0035,0.06556 0.0034,0.06629 0.0032,0.06703 0.0031,0.06776 0.0029,0.0685 0.0028,0.06924 0.0026,0.06998 0.0025,0.07073 0.0023,0.07147 0.0022,0.07222 0.002,0.07298 0.0019,0.07373 0.0017,0.07449 0.0016,0.07525 0.0014,0.07601 0.0013,0.07678 0.0011,0.07755 9.61e-4,0.07832 8.13e-4,0.07909 6.64e-4,0.07987 5.17e-4,0.08065 3.68e-4,0.08142 2.21e-4,0.08221 7.4e-5,0.08299 v 2.2 a 2,2 0 0 0 2,2 h 32 a 2,2 0 0 0 2,-2 z"
       fill="rgb(0,0,0)"
       stroke-linecap="round"
       stroke-linejoin="round"
       id="path769"
       style="fill:none;stroke:#ff0000;stroke-width:0.2;stroke-dasharray:none;stroke-opacity:1" /><path
       d="m 7.5335,2 a 0.55,0.55 0 1 0 1.1,0 0.55,0.55 0 1 0 -1.1,0 z"
       fill="rgb(255,255,255)"
       stroke="rgb(0,0,0)"
       stroke-width="0.0010cm"
       stroke-linecap="round"
       stroke-linejoin="round"
       id="path771"
       style="fill:none;stroke:#ff6400;stroke-width:0.2;stroke-dasharray:none;stroke-opacity:1" /><path
       d="m 40.0335,21 a 0.55,0.55 0 1 0 1.1,0 0.55,0.55 0 1 0 -1.1,0 z"
       fill="rgb(255,255,255)"
       stroke="rgb(0,0,0)"
       stroke-width="0.0010cm"
       stroke-linecap="round"
       stroke-linejoin="round"
       id="path773"
       style="fill:none;stroke:#ff6400;stroke-width:0.2;stroke-dasharray:none;stroke-opacity:1" /><path
       d="m 7.5335,21 a 0.55,0.55 0 1 0 1.1,0 0.55,0.55 0 1 0 -1.1,0 z"
       fill="rgb(255,255,255)"
       stroke="rgb(0,0,0)"
       stroke-width="0.0010cm"
       stroke-linecap="round"
       stroke-linejoin="round"
       id="path775"
       style="fill:none;stroke:#ff6400;stroke-width:0.2;stroke-dasharray:none;stroke-opacity:1" /><path
       d="m 40.0335,2 a 0.55,0.55 0 1 0 1.1,0 0.55,0.55 0 1 0 -1.1,0 z"
       fill="rgb(255,255,255)"
       stroke="rgb(0,0,0)"
       stroke-width="0.0010cm"
       stroke-linecap="round"
       stroke-linejoin="round"
       id="path777"
       style="fill:none;stroke:#ff6400;stroke-width:0.2;stroke-dasharray:none;stroke-opacity:1" /><path
       d="m 32.047786,22.216564 v 0 l -0.08163,6e-5 -0.08327,-2.4e-5 -0.08526,-7.2e-5 -0.04347,-4.4e-5 -0.0441,-4.3e-5 -0.35837,-4.19e-4 -0.358029,-7.25e-4 -0.357504,-0.001 -0.356974,-0.0014 -0.358055,-0.0017 -0.359736,-0.0021 -0.361137,-0.0025 -0.362262,-0.003 -0.363109,-0.0034 -0.727642,-0.0083 -0.363977,-0.0049 -0.363711,-0.0055 -0.363166,-0.006 -0.362344,-0.0066 -0.361242,-0.0072 -0.359863,-0.0078 -0.358207,-0.0085 -0.178394,-0.0045 -0.177708,-0.0047 -0.176661,-0.0048 -0.175601,-0.005 -0.174544,-0.0051 -0.173487,-0.0053 -0.17243,-0.0055 -0.171373,-0.0056 -0.170317,-0.0058 -0.169261,-0.006 -0.168207,-0.0061 -0.167151,-0.0063 -0.166098,-0.0065 -0.165043,-0.0067 -0.163991,-0.0068 -0.162937,-0.007 -0.161885,-0.0072 -0.160833,-0.0074 -0.159781,-0.0076 -0.158731,-0.0078 -0.157679,-0.008 -0.15663,-0.0081 -0.15558,-0.0083 -0.15453,-0.0085 -0.153482,-0.0087 -0.152433,-0.0089 -0.151386,-0.0091 -0.150337,-0.0094 -0.149291,-0.0096 -0.148245,-0.0098 -0.147198,-0.01 -0.146152,-0.01021 -0.145108,-0.01042 -0.144062,-0.01064 -0.143018,-0.01087 -0.141975,-0.01109 -0.140931,-0.01132 -0.139888,-0.01154 -0.138845,-0.01178 -0.137803,-0.01201 -0.136762,-0.01225 -0.135721,-0.01248 -0.13468,-0.01272 -0.13364,-0.01296 -0.132599,-0.01321 -0.131561,-0.01345 -0.130522,-0.0137 -0.129483,-0.01395 -0.128445,-0.0142 -0.127407,-0.01446 -0.126371,-0.01471 -0.125334,-0.01497 -0.124298,-0.01523 -0.123262,-0.0155 -0.122226,-0.01576 -0.121192,-0.01603 -0.120158,-0.0163 -0.119123,-0.01657 -0.11809,-0.01684 -0.117057,-0.01712 -0.116025,-0.0174 -0.114992,-0.01768 -0.11396,-0.01796 -0.112907,-0.01824 -0.111749,-0.0185 -0.110583,-0.01876 -0.109425,-0.01903 -0.108277,-0.0193 -0.107135,-0.01957 -0.106003,-0.01984 -0.104878,-0.02011 -0.103761,-0.02038 -0.102653,-0.02066 -0.101552,-0.02094 -0.10046,-0.02122 -0.09938,-0.0215 -0.0983,-0.02178 -0.09723,-0.02206 -0.09617,-0.02235 -0.09512,-0.02264 -0.09408,-0.02293 -0.09304,-0.02322 -0.09201,-0.02352 -0.09099,-0.02381 -0.08998,-0.02411 -0.08898,-0.02441 -0.08798,-0.02471 -0.087,-0.02501 -0.08602,-0.02532 -0.08505,-0.02562 -0.08408,-0.02593 -0.08313,-0.02624 -0.08218,-0.02655 -0.08125,-0.02686 -0.08032,-0.02718 -0.07939,-0.0275 -0.07848,-0.02782 -0.07757,-0.02814 -0.07668,-0.02846 -0.07579,-0.02878 -0.0749,-0.02911 -0.07403,-0.02944 -0.07317,-0.02977 -0.07231,-0.0301 -0.07146,-0.03043 -0.07062,-0.03077 -0.06978,-0.0311 -0.06898,-0.03145 -0.06826,-0.03183 -0.06753,-0.03223 -0.06682,-0.03262 -0.0661,-0.03302 -0.0654,-0.03342 -0.06469,-0.03383 -0.06399,-0.03424 -0.06329,-0.03466 -0.06259,-0.03508 -0.0619,-0.03551 -0.06121,-0.03593 -0.06053,-0.03637 -0.05984,-0.0368 -0.05917,-0.03724 -0.05849,-0.03769 -0.05782,-0.03814 -0.05715,-0.03859 -0.05649,-0.03905 -0.05583,-0.03951 -0.05517,-0.03998 -0.05452,-0.04045 -0.05387,-0.04093 -0.05322,-0.04141 -0.05258,-0.04189 -0.05194,-0.04238 -0.0513,-0.04287 -0.05067,-0.04337 -0.05004,-0.04387 -0.04941,-0.04437 -0.04879,-0.04488 -0.04817,-0.04539 -0.04752,-0.04587 -0.0468,-0.0463 -0.04609,-0.04672 -0.04539,-0.04714 -0.04469,-0.04756 -0.044,-0.04798 -0.04331,-0.0484 -0.04263,-0.04882 -0.04196,-0.04923 -0.04129,-0.04965 -0.04063,-0.05007 -0.03997,-0.05048 -0.03932,-0.0509 -0.03868,-0.05132 -0.03804,-0.05173 -0.03741,-0.05214 -0.03679,-0.05256 -0.03616,-0.05297 -0.03555,-0.05338 -0.03495,-0.0538 -0.03434,-0.05421 -0.03375,-0.05462 -0.03316,-0.05503 -0.03258,-0.05544 -0.032,-0.05584 -0.03143,-0.05625 -0.03087,-0.05666 -0.03031,-0.05707 -0.02975,-0.05747 -0.02921,-0.05788 -0.02867,-0.05828 -0.02813,-0.05869 -0.02761,-0.05909 -0.02708,-0.0595 -0.02657,-0.0599 -0.02609,-0.06037 -0.02567,-0.06097 -0.02525,-0.06158 -0.02483,-0.06219 -0.02441,-0.0628 -0.024,-0.06342 -0.02358,-0.06405 -0.02317,-0.06468 -0.02275,-0.06532 -0.02234,-0.06596 -0.02193,-0.06661 -0.02152,-0.06726 -0.02112,-0.06792 -0.02071,-0.06858 -0.0203,-0.06925 -0.0199,-0.06992 -0.0195,-0.0706 -0.0191,-0.07128 -0.01869,-0.07197 -0.0183,-0.07267 -0.0179,-0.07337 -0.0175,-0.07407 -0.01711,-0.07479 -0.01671,-0.0755 -0.01632,-0.07622 -0.01593,-0.07695 -0.01553,-0.07768 -0.01515,-0.07842 -0.01476,-0.07916 -0.01437,-0.07991 -0.01398,-0.08066 -0.0136,-0.08141 -0.01322,-0.08218 -0.01283,-0.08295 -0.01245,-0.08372 -0.01207,-0.0845 -0.01169,-0.08528 -0.01132,-0.08607 -0.01094,-0.08687 -0.01056,-0.08767 -0.01019,-0.08847 -0.0098,-0.08928 -0.0094,-0.0901 -0.0091,-0.09092 -0.0087,-0.09175 -0.0083,-0.09258 -0.008,-0.09341 -0.0076,-0.09425 -0.01401,-0.190001 -0.0124,-0.191175 -0.01086,-0.191863 -0.0094,-0.192066 -0.008,-0.191782 -0.0066,-0.191013 -0.0054,-0.189757 -0.0042,-0.188015 -0.0017,-0.0932 -0.0014,-0.09258 -0.0011,-0.09191 -8.49e-4,-0.09117 -5.98e-4,-0.09037 -3.56e-4,-0.08951 -1.22e-4,-0.08859 1.03e-4,-0.0876 3.2e-4,-0.08656 5.29e-4,-0.08546 7.28e-4,-0.08429 9.2e-4,-0.08307 0.0011,-0.08178 0.0013,-0.08044 0.0014,-0.07903 0.0016,-0.07756 0.0018,-0.07603 0.0019,-0.07444 0.002,-0.07279 0.0021,-0.07108 0.0023,-0.06931 0.0024,-0.06748 0.0025,-0.06558 0.0026,-0.06398 0.0056,-0.12668 0.0061,-0.1252515 0.0067,-0.123835 0.0072,-0.12243 0.0078,-0.121037 0.0083,-0.119655 0.0089,-0.118286 0.0094,-0.116928 0.01,-0.115583 0.01055,-0.114249 0.01111,-0.112927 0.01168,-0.111616 0.01225,-0.110318 0.01281,-0.109032 0.01338,-0.107757 0.01395,-0.106494 0.01452,-0.105243 0.0151,-0.104004 0.01567,-0.102777 0.01625,-0.101562 0.01683,-0.100357 0.01741,-0.09917 0.01799,-0.09799 0.01857,-0.09682 0.01916,-0.09566 0.01974,-0.09452 0.02033,-0.09338 0.02092,-0.09226 0.02151,-0.09116 0.0221,-0.09006 0.0227,-0.08897 0.02329,-0.0879 0.02389,-0.08684 0.02449,-0.08579 0.02509,-0.08475 0.02569,-0.08373 0.02629,-0.08271 0.02689,-0.08171 0.02751,-0.08076 0.02816,-0.07988 0.02881,-0.079 0.02947,-0.07813 0.03013,-0.07727 0.0308,-0.07642 0.03147,-0.07557 0.03215,-0.07473 0.03283,-0.07389 0.03352,-0.07306 0.03422,-0.07224 0.03492,-0.07143 0.03562,-0.07062 0.03633,-0.06981 0.03705,-0.06902 0.03777,-0.06823 0.03849,-0.06744 0.03922,-0.06667 0.03996,-0.06589 0.0407,-0.06513 0.04145,-0.06437 0.0422,-0.06362 0.04296,-0.06287 0.04372,-0.06213 0.04448,-0.0614 0.04526,-0.06068 0.04604,-0.05996 0.04682,-0.05924 0.0476,-0.05852 0.04828,-0.05768 0.04893,-0.05682 0.04957,-0.05596 0.05021,-0.05511 0.05085,-0.05427 0.05148,-0.05344 0.0521,-0.05262 0.05272,-0.05181 0.05333,-0.05101 0.05394,-0.05022 0.05454,-0.04944 0.05514,-0.04867 0.05574,-0.0479 0.05632,-0.04715 0.05691,-0.04641 0.05748,-0.04568 0.05806,-0.04495 0.05863,-0.04424 0.05919,-0.04354 0.05974,-0.04284 0.0603,-0.04216 0.06084,-0.04148 0.06138,-0.04082 0.06192,-0.04016 0.06245,-0.03952 0.06298,-0.03888 0.0635,-0.03826 0.06402,-0.03764 0.06453,-0.03703 0.06503,-0.03644 0.06553,-0.03585 0.06609,-0.0353 0.06671,-0.0348 0.06732,-0.0343 0.06792,-0.0338 0.06852,-0.03331 0.06912,-0.03283 0.06971,-0.03235 0.07029,-0.03187 0.07087,-0.0314 0.07145,-0.03094 0.07202,-0.03047 0.07258,-0.03002 0.07314,-0.02957 0.07369,-0.02912 0.07424,-0.02868 0.07478,-0.02825 0.07532,-0.02782 0.07586,-0.02739 0.07638,-0.02697 0.07691,-0.02655 0.07742,-0.02614 0.07794,-0.02573 0.07844,-0.02533 0.07895,-0.02493 0.07944,-0.02454 0.07993,-0.02416 0.08042,-0.02377 0.0809,-0.0234 0.163229,-0.04568 0.165092,-0.04423 0.166916,-0.04283 0.168698,-0.04146 0.170438,-0.04012 0.172136,-0.03883 0.173795,-0.03758 0.175412,-0.03637 0.176986,-0.0352 0.178521,-0.03406 0.180014,-0.03297 0.181465,-0.03191 0.182875,-0.0309 0.09208,-0.0151 0.09284,-0.01492 0.09361,-0.01474 0.09438,-0.01456 0.09516,-0.01438 0.09593,-0.0142 0.09671,-0.01403 0.09749,-0.01385 0.09828,-0.01368 0.09906,-0.0135 0.09985,-0.01333 0.100641,-0.01316 0.101434,-0.01299 0.10223,-0.01282 0.103027,-0.01265 0.103827,-0.01248 0.10463,-0.01231 0.105435,-0.01214 0.106243,-0.01198 0.107052,-0.01181 0.107864,-0.01165 0.108678,-0.01148 0.109496,-0.01132 0.110315,-0.01116 0.111136,-0.011 0.111961,-0.01084 0.112787,-0.01068 0.113616,-0.01052 0.114447,-0.01036 0.11528,-0.01021 0.116117,-0.01005 0.116955,-0.0099 0.117796,-0.0097 0.118639,-0.0096 0.119485,-0.0094 0.120333,-0.0093 0.121183,-0.0091 0.122035,-0.009 0.122891,-0.0088 0.123749,-0.0087 0.124608,-0.0085 0.125471,-0.0084 0.126335,-0.0083 0.127202,-0.0081 0.128072,-0.008 0.128944,-0.0078 0.129818,-0.0077 0.130694,-0.0075 0.131574,-0.0074 0.132455,-0.0073 0.133339,-0.0071 0.134225,-0.007 0.135113,-0.0068 0.136005,-0.0067 0.136898,-0.0066 0.137794,-0.0064 0.138691,-0.0063 0.139593,-0.0062 0.140495,-0.006 0.141401,-0.0059 0.142308,-0.0058 0.143218,-0.0057 0.144131,-0.0055 0.145046,-0.0054 0.145963,-0.0053 0.146883,-0.0051 0.147804,-0.005 0.14873,-0.0049 0.149655,-0.0048 0.150586,-0.0047 0.151516,-0.0045 0.152451,-0.0044 0.153387,-0.0043 0.154326,-0.0042 0.155267,-0.0041 0.156211,-0.0039 0.157156,-0.0038 0.158105,-0.0037 0.159055,-0.0036 0.160009,-0.0035 0.160964,-0.0034 0.161922,-0.0033 0.162883,-0.0031 0.163844,-0.003 0.16481,-0.0029 0.165778,-0.0028 0.166747,-0.0027 0.16772,-0.0026 0.168694,-0.0025 0.169671,-0.0024 0.17065,-0.0023 0.171633,-0.0022 0.172616,-0.0021 0.173603,-0.002 0.174592,-0.0019 0.175583,-0.0018 0.176577,-0.0017 0.177573,-0.0016 0.178572,-0.0015 0.179572,-0.0014 0.180576,-0.0013 0.181581,-0.0012 0.18259,-0.0011 0.1836,-0.001 0.184613,-9.19e-4 0.185628,-8.27e-4 0.186645,-7.37e-4 0.187666,-6.48e-4 0.188688,-5.6e-4 0.189713,-4.71e-4 0.19074,-3.85e-4 0.191769,-2.99e-4 0.192802,-2.14e-4 0.193965,-1.26e-4 0.04935,6e-6 0.05005,5e-5 0.05075,1.07e-4 0.05144,1.79e-4 0.05213,2.67e-4 0.05282,3.67e-4 0.05351,4.85e-4 0.0542,6.15e-4 0.05488,7.61e-4 0.05556,9.21e-4 0.05623,0.0011 0.05691,0.0013 0.05758,0.0015 0.05825,0.0017 0.05892,0.0019 0.05958,0.0022 0.06024,0.0025 0.0609,0.0027 0.06155,0.003 0.0622,0.0033 0.06285,0.0037 0.0635,0.004 0.06414,0.0043 0.06479,0.0047 0.06542,0.0051 0.06606,0.0055 0.06669,0.0059 0.06732,0.0063 0.06795,0.0067 0.06858,0.0072 0.0692,0.0077 0.06982,0.0082 0.07043,0.0087 0.07105,0.0092 0.07166,0.0097 0.07227,0.01023 0.07287,0.01079 0.07334,0.01134 0.146501,0.02421 0.146095,0.02629 0.145629,0.02843 0.145104,0.03062 0.14452,0.03288 0.07202,0.0173 0.07185,0.01789 0.07168,0.01848 0.0715,0.01908 0.07131,0.01969 0.07111,0.02031 0.0709,0.02093 0.07069,0.02156 0.07047,0.0222 0.07024,0.02285 0.07001,0.0235 0.06977,0.02416 0.06951,0.02483 0.06926,0.0255 0.06899,0.02618 0.06872,0.02688 0.06844,0.02757 0.06815,0.02828 0.06786,0.02899 0.06756,0.02971 0.06725,0.03044 0.06693,0.03117 0.06661,0.03191 0.06628,0.03266 0.06594,0.03342 0.0656,0.03418 0.06519,0.03493 0.06462,0.03558 0.06404,0.03624 0.06346,0.03689 0.06288,0.03755 0.06231,0.0382 0.06173,0.03886 0.06115,0.03952 0.06058,0.04018 0.06001,0.04084 0.05944,0.0415 0.05886,0.04216 0.05829,0.04283 0.05772,0.04349 0.05715,0.04416 0.05659,0.04483 0.05602,0.0455 0.05545,0.04617 0.05489,0.04684 0.05432,0.04751 0.05376,0.04818 0.0532,0.04886 0.05264,0.04953 0.05208,0.05021 0.05151,0.05088 0.05096,0.05156 0.0504,0.05224 0.04984,0.05293 0.04928,0.05361 0.04873,0.05429 0.04817,0.05497 0.04762,0.05566 0.04707,0.05635 0.04651,0.05702 0.04582,0.05754 0.0451,0.05801 0.04439,0.05847 0.04369,0.05891 0.04299,0.05936 0.0423,0.05979 0.04161,0.06021 0.04093,0.06063 0.04026,0.06104 0.03959,0.06144 0.03893,0.06183 0.03827,0.06221 0.03762,0.06259 0.03698,0.06295 0.03634,0.06331 0.03571,0.06366 0.03509,0.064 0.03447,0.06434 0.03385,0.06466 0.03325,0.06498 0.03265,0.06529 0.03205,0.06559 0.03147,0.06588 0.03088,0.06617 0.03031,0.06644 0.02974,0.06671 0.02918,0.06697 0.02862,0.06722 0.05559,0.135163 0.05343,0.13607 0.05133,0.13691 0.04927,0.137685 0.04726,0.138393 0.0453,0.139036 0.04342,0.139706 0.04177,0.140936 0.04018,0.142251 0.03861,0.143541 0.03706,0.144806 0.03553,0.146049 0.03403,0.147264 0.03255,0.148458 0.03109,0.149625 0.02965,0.150768 0.02823,0.151887 0.02684,0.152982 0.02547,0.154051 0.02412,0.155097 0.02279,0.156118 0.02149,0.157115 0.02021,0.158086 0.01895,0.159034 0.01771,0.159956 0.0165,0.160856 0.0153,0.161729 0.01413,0.162579 0.01298,0.163403 0.01186,0.164205 0.01075,0.16498 0.0097,0.165733 0.0086,0.1664585 0.0076,0.167162 0.0066,0.167839 0.0056,0.168495 0.0046,0.169123 0.0036,0.169727 0.0027,0.170308 0.001,0.0855 8.24e-4,0.08625 6.16e-4,0.08702 3.97e-4,0.08776 1.69e-4,0.08848 -6.8e-5,0.08918 -3.15e-4,0.08986 -5.71e-4,0.09052 -8.37e-4,0.09115 -0.0011,0.09177 -0.0014,0.09236 -0.0017,0.09293 -0.002,0.09347 -0.0023,0.094 -0.0056,0.18948 -0.007,0.191317 -0.0084,0.192979 -0.0099,0.194465 -0.0115,0.195777 -0.01317,0.196912 -0.01491,0.197874 -0.01673,0.198659 -0.01863,0.199269 -0.0206,0.199705 -0.02264,0.199965 -0.02476,0.20005 -0.02696,0.19996 -0.02923,0.199694 -0.01549,0.09969 -0.01609,0.09956 -0.01669,0.09941 -0.01731,0.09923 -0.01793,0.09903 -0.01857,0.09881 -0.01921,0.09857 -0.01986,0.09831 -0.02053,0.09802 -0.0212,0.09772 -0.02188,0.09739 -0.02257,0.09703 -0.02327,0.09666 -0.02398,0.09627 -0.0247,0.09585 -0.02543,0.09541 -0.02618,0.09503 -0.027,0.09484 -0.02783,0.09463 -0.02867,0.0944 -0.02953,0.09415 -0.03039,0.09388 -0.03128,0.09359 -0.03218,0.09328 -0.03309,0.09295 -0.03402,0.09259 -0.03496,0.09222 -0.03591,0.09182 -0.03688,0.09141 -0.03786,0.09097 -0.03886,0.09051 -0.03987,0.09003 -0.04089,0.08953 -0.04193,0.08901 -0.04298,0.08846 -0.04405,0.0879 -0.04513,0.08731 -0.04622,0.08671 -0.04733,0.08608 -0.04845,0.08543 -0.04958,0.08476 -0.05073,0.08408 -0.0519,0.08337 -0.05307,0.08263 -0.05426,0.08188 -0.05542,0.08104 -0.05644,0.07998 -0.05745,0.07889 -0.05846,0.07781 -0.05948,0.07672 -0.06051,0.07563 -0.06154,0.07454 -0.06258,0.07345 -0.06362,0.07235 -0.06467,0.07125 -0.06572,0.07015 -0.06678,0.06905 -0.06784,0.06794 -0.06891,0.06684 -0.06999,0.06573 -0.07107,0.06461 -0.07215,0.0635 -0.07325,0.06239 -0.07434,0.06127 -0.07545,0.06015 -0.07655,0.05903 -0.07767,0.0579 -0.07879,0.05678 -0.07991,0.05565 -0.08104,0.05452 -0.0819,0.05321 -0.08256,0.05179 -0.08322,0.0504 -0.08385,0.04902 -0.08448,0.04765 -0.08508,0.04631 -0.08568,0.04498 -0.08626,0.04367 -0.08682,0.04237 -0.08737,0.04109 -0.0879,0.03983 -0.08845,0.03864 -0.08893,0.03736 -0.08942,0.03615 -0.08989,0.03496 -0.09036,0.03378 -0.0908,0.03262 -0.09124,0.03148 -0.09165,0.03036 -0.09206,0.02925 -0.09244,0.02816 -0.09282,0.02708 -0.09318,0.02602 -0.09352,0.02499 -0.09385,0.02396 -0.09416,0.02295 -0.09446,0.02197 -0.09475,0.02099 -0.09502,0.02004 -0.09527,0.0191 -0.0955,0.01817 -0.09572,0.01726 -0.09591,0.01637 -0.09609,0.01549 -0.09625,0.01463 -0.09639,0.01379 -0.09651,0.01296 -0.09661,0.01215 -0.09669,0.01135 -0.09676,0.01057 -0.09681,0.0098 -0.09683,0.0091 -0.09685,0.0083 -0.09652,0.0076 -0.04727,0.0035 -0.04646,0.0033 -0.0457,0.0031 -0.04499,0.0029 -0.04431,0.0027 -0.04367,0.0026 -0.08561,0.0046 -0.08358,0.004 -0.08187,0.0034 -0.08051,0.0028 -0.07947,0.0023 -0.157193,0.0034 -0.157083,0.0019 -0.07934,5.58e-4 z"
       fill="rgb(255,255,255)"
       stroke="rgb(0,0,0)"
       stroke-width="0.0010cm"
       stroke-linecap="round"
       stroke-linejoin="round"
       id="path779"
       style="fill:none;stroke:#ff6400;stroke-width:0.2;stroke-dasharray:none;stroke-opacity:1" /></g></svg>
