<?xml version="1.0" encoding="UTF-8" standalone="no"?>
<!-- Generator: Fusion 360, Shaper Origin Export Add-In, Version 1.8.0  -->

<svg
   shaper:fusionaddin="version:1.8.0"
   width="50cm"
   height="30cm"
   version="1.1"
   x="0cm"
   y="0cm"
   viewBox="0 0 50 30"
   enable-background="new 0 0 42.3335 23"
   xml:space="preserve"
   id="svg4182"
   sodipodi:docname="mid_005.svg"
   inkscape:version="1.2.2 (732a01da63, 2022-12-09)"
   xmlns:inkscape="http://www.inkscape.org/namespaces/inkscape"
   xmlns:sodipodi="http://sodipodi.sourceforge.net/DTD/sodipodi-0.dtd"
   xmlns="http://www.w3.org/2000/svg"
   xmlns:svg="http://www.w3.org/2000/svg"
   xmlns:shaper="http://www.shapertools.com/namespaces/shaper"><defs
     id="defs4186" /><sodipodi:namedview
     id="namedview4184"
     pagecolor="#505050"
     bordercolor="#eeeeee"
     borderopacity="1"
     inkscape:showpageshadow="0"
     inkscape:pageopacity="0"
     inkscape:pagecheckerboard="0"
     inkscape:deskcolor="#505050"
     inkscape:document-units="cm"
     showgrid="false"
     inkscape:zoom="0.2894707"
     inkscape:cx="896.46379"
     inkscape:cy="602.8244"
     inkscape:window-width="1920"
     inkscape:window-height="991"
     inkscape:window-x="-9"
     inkscape:window-y="-9"
     inkscape:window-maximized="1"
     inkscape:current-layer="svg4182" /><g
     id="g4674"
     transform="translate(3.9303057,3.5000483)"><path
       d="m 22.040757,10.009006 h -0.5 v 1.976 h 0.5 v 8.512 a 2,2 0 0 1 -2,2 H 8.7907574 v -0.38 h -0.5 v 0.38 H -11.959243 a 2,2 90 0 1 -2,-2 v -4 0 l -2.2e-5,-0.07553 -6.8e-5,-0.07484 -1.14e-4,-0.07416 -1.6e-4,-0.07348 -2.06e-4,-0.07281 -2.51e-4,-0.07214 -2.99e-4,-0.07147 -3.45e-4,-0.07081 -3.92e-4,-0.07015 -4.39e-4,-0.0695 -4.86e-4,-0.06885 -5.34e-4,-0.0682 -5.82e-4,-0.06756 -6.3e-4,-0.06692 -6.77e-4,-0.06628 -7.26e-4,-0.06565 -7.75e-4,-0.06502 -8.23e-4,-0.06439 -8.72e-4,-0.06377 -9.21e-4,-0.06316 -9.71e-4,-0.06254 -10e-4,-0.06193 -0.0011,-0.06133 -0.0011,-0.06072 -0.0024,-0.119653 -0.0026,-0.117288 -0.0028,-0.114952 -0.003,-0.112645 -0.0032,-0.11037 -0.0034,-0.108123 -0.0036,-0.105906 -0.0038,-0.10372 -0.0041,-0.101563 -0.0043,-0.09944 -0.0045,-0.09734 -0.0047,-0.09527 -0.0049,-0.09323 -0.0051,-0.09123 -0.0054,-0.08925 -0.0056,-0.0873 -0.0058,-0.08538 -0.0061,-0.08349 -0.0063,-0.08163 -0.0065,-0.07981 -0.0067,-0.07801 -0.007,-0.07624 -0.0072,-0.0745 -0.0075,-0.07279 -0.0077,-0.07111 -0.0079,-0.06946 -0.0082,-0.06784 -0.0084,-0.06625 -0.0087,-0.06469 -0.0089,-0.06316 -0.0092,-0.06166 -0.0094,-0.06018 -0.0097,-0.05874 -0.0099,-0.05733 -0.01019,-0.05595 -0.01044,-0.0546 -0.0107,-0.05328 -0.01096,-0.05198 -0.01124,-0.05076 -0.01153,-0.04967 -0.01184,-0.0486 -0.01215,-0.04755 -0.01246,-0.04651 -0.01278,-0.04549 -0.0131,-0.04448 -0.01343,-0.04348 -0.01376,-0.0425 -0.0141,-0.04154 -0.01444,-0.04059 -0.01478,-0.03966 -0.01513,-0.03874 -0.01548,-0.03784 -0.01584,-0.03695 -0.01621,-0.03607 -0.01658,-0.03522 -0.01695,-0.03437 -0.01733,-0.03355 -0.01771,-0.03273 -0.01817,-0.03207 -0.01875,-0.03157 -0.01934,-0.03106 -0.01995,-0.03054 -0.02057,-0.03001 -0.02122,-0.02948 -0.02188,-0.02894 -0.02255,-0.02839 -0.02325,-0.02784 -0.02396,-0.02727 -0.02469,-0.0267 -0.02544,-0.02612 -0.02621,-0.02554 -0.02699,-0.02495 -0.02779,-0.02435 -0.02855,-0.02369 -0.02927,-0.023 -0.03,-0.02232 -0.03075,-0.02165 -0.03151,-0.02098 -0.03228,-0.02032 -0.03307,-0.01966 -0.03387,-0.01902 -0.03469,-0.01838 -0.03552,-0.01775 -0.03636,-0.01712 -0.03722,-0.0165 -0.03809,-0.01589 -0.03897,-0.01529 -0.03987,-0.01469 -0.04078,-0.0141 -0.04172,-0.01352 -0.04276,-0.01297 -0.04384,-0.01243 -0.04494,-0.0119 -0.04606,-0.01136 -0.0472,-0.01083 -0.04837,-0.0103 -0.04955,-0.0098 -0.05076,-0.0092 -0.052,-0.0087 -0.05325,-0.0082 -0.05453,-0.0077 -0.05583,-0.0072 -0.05715,-0.0067 -0.05849,-0.0062 -0.05986,-0.0056 -0.06125,-0.0051 -0.06266,-0.0046 -0.06409,-0.0041 -0.06555,-0.0036 -0.06703,-0.0031 -0.06853,-0.0027 -0.07005,-0.0022 -0.07159,-0.00168 -0.07316,-0.0012 -0.07475,-7.174e-4 -0.07636,-2.386e-4 h -3.3335 v -0.7 h 4.9335 v -0.5 0 l 0.02518,-3.278e-4 0.0251,-9.945e-4 0.02503,-0.00168 0.02494,-0.00238 0.02485,-0.00309 0.02475,-0.00382 0.02464,-0.00457 0.02453,-0.00533 0.02441,-0.00611 0.02421,-0.00689 0.02389,-0.00763 0.02357,-0.00837 0.02325,-0.00911 0.02294,-0.00985 0.02262,-0.010581 0.02232,-0.011313 0.02201,-0.012044 0.0217,-0.012771 0.02128,-0.013426 0.02082,-0.014028 0.02036,-0.01461 0.01991,-0.01517 0.01947,-0.015708 0.01903,-0.016226 0.0186,-0.016722 0.01817,-0.017197 0.0351,-0.035732 0.03347,-0.037376 0.03191,-0.038849 0.03041,-0.040191 0.0295,-0.042153 0.02881,-0.044397 0.02811,-0.046657 0.02742,-0.048931 0.02673,-0.051221 0.01311,-0.026474 0.01294,-0.027052 0.01277,-0.027633 0.0126,-0.028215 0.01243,-0.028799 0.01226,-0.029385 0.01209,-0.029973 0.01192,-0.030562 0.01175,-0.031154 0.01159,-0.031748 0.01142,-0.032343 0.01125,-0.032941 0.01109,-0.03354 0.01092,-0.034142 0.01075,-0.034745 0.01059,-0.03535 0.01043,-0.035957 0.01026,-0.036566 0.0101,-0.03718 0.0099,-0.037804 0.0098,-0.038431 0.0096,-0.03906 0.0095,-0.039691 0.0093,-0.040326 0.0091,-0.040962 0.009,-0.041601 0.0088,-0.042243 0.0087,-0.042887 0.0085,-0.043534 0.0083,-0.044183 0.0082,-0.044835 0.008,-0.045489 0.0079,-0.046146 0.0077,-0.046806 0.0075,-0.047468 0.0074,-0.048132 0.0072,-0.048799 0.0071,-0.049468 0.0069,-0.05014 0.0068,-0.050815 0.0066,-0.051492 0.0064,-0.052171 0.0063,-0.052854 0.0061,-0.053538 0.006,-0.054225 0.0058,-0.054915 0.0057,-0.055607 0.0055,-0.056302 0.0054,-0.056999 0.0052,-0.057699 0.0051,-0.058401 0.0049,-0.059106 0.0047,-0.059813 0.0046,-0.060523 0.0044,-0.061236 0.0043,-0.061951 0.0041,-0.062668 0.004,-0.063388 0.0038,-0.064111 0.0037,-0.064836 0.0035,-0.065563 0.0034,-0.066293 0.0032,-0.067026 0.0031,-0.067761 0.0029,-0.068499 0.0028,-0.069239 0.0026,-0.069981 0.0025,-0.070727 0.0023,-0.071474 0.0022,-0.072225 0.002,-0.072978 0.0019,-0.073733 0.0017,-0.074491 0.0016,-0.075251 0.0014,-0.076014 0.0013,-0.076779 0.0011,-0.077547 9.61e-4,-0.078318 8.12e-4,-0.079091 6.65e-4,-0.079867 5.16e-4,-0.080644 3.69e-4,-0.081425 2.21e-4,-0.082208 7.3e-5,-0.082994 v -2.2 a 2,2 -180 0 1 2,-2 h 32 a 2,2 -90 0 1 2,2 z"
       transform="matrix(1,0,0,-1,20.292743,22.497006)"
       fill="rgb(0,0,0)"
       stroke-linecap="round"
       stroke-linejoin="round"
       id="path4170"
       style="fill:none;stroke:#ff0000;stroke-width:0.2;stroke-dasharray:none;stroke-opacity:1" /><path
       d="m -12.759243,20.497006 a 0.55,0.55 0 1 1 1.1,0 0.55,0.55 0 1 1 -1.1,0 z"
       transform="matrix(1,0,0,-1,20.292743,22.497006)"
       fill="rgb(255,255,255)"
       stroke="rgb(0,0,0)"
       stroke-width="0.0010cm"
       stroke-linecap="round"
       stroke-linejoin="round"
       id="path4172"
       style="fill:none;stroke:#ff6400;stroke-width:0.2;stroke-dasharray:none;stroke-opacity:1" /><path
       d="m 19.740757,1.497006 a 0.55,0.55 0 1 1 1.1,0 0.55,0.55 0 1 1 -1.1,0 z"
       transform="matrix(1,0,0,-1,20.292743,22.497006)"
       fill="rgb(255,255,255)"
       stroke="rgb(0,0,0)"
       stroke-width="0.0010cm"
       stroke-linecap="round"
       stroke-linejoin="round"
       id="path4174"
       style="fill:none;stroke:#ff6400;stroke-width:0.2;stroke-dasharray:none;stroke-opacity:1" /><path
       d="m -12.759243,1.497006 a 0.55,0.55 0 1 1 1.1,0 0.55,0.55 0 1 1 -1.1,0 z"
       transform="matrix(1,0,0,-1,20.292743,22.497006)"
       fill="rgb(255,255,255)"
       stroke="rgb(0,0,0)"
       stroke-width="0.0010cm"
       stroke-linecap="round"
       stroke-linejoin="round"
       id="path4176"
       style="fill:none;stroke:#ff6400;stroke-width:0.2;stroke-dasharray:none;stroke-opacity:1" /><path
       d="m 19.740757,20.497006 a 0.55,0.55 0 1 1 1.1,0 0.55,0.55 0 1 1 -1.1,0 z"
       transform="matrix(1,0,0,-1,20.292743,22.497006)"
       fill="rgb(255,255,255)"
       stroke="rgb(0,0,0)"
       stroke-width="0.0010cm"
       stroke-linecap="round"
       stroke-linejoin="round"
       id="path4178"
       style="fill:none;stroke:#ff6400;stroke-width:0.2;stroke-dasharray:none;stroke-opacity:1" /><path
       d="m -12.349986,10.997006 v 0 l 2.31e-4,0.103223 5.58e-4,0.101823 8.71e-4,0.100313 0.0012,0.09869 0.0015,0.09695 0.0017,0.0951 0.002,0.09313 0.0022,0.09106 0.0025,0.08887 0.0027,0.08656 0.0014,0.04238 0.0015,0.04176 0.0015,0.04113 0.0016,0.04049 0.0033,0.07925 0.0036,0.07848 0.0078,0.155453 0.0088,0.153457 0.0098,0.151476 0.01072,0.149513 0.0117,0.147566 0.01268,0.145637 0.01366,0.143724 0.01465,0.141828 0.01564,0.139949 0.01664,0.138087 0.01764,0.136241 0.01865,0.134413 0.01965,0.132602 0.02067,0.130806 0.02169,0.129029 0.02271,0.127268 0.02373,0.125524 0.02476,0.123797 0.0258,0.122086 0.02683,0.120393 0.02788,0.118716 0.02892,0.117056 0.02997,0.115413 0.03103,0.113788 0.03209,0.112178 0.03315,0.110586 0.03422,0.109011 0.03529,0.107451 0.03637,0.105911 0.03744,0.104385 0.03853,0.102878 0.03962,0.101386 0.04071,0.09991 0.04192,0.09873 0.04335,0.09806 0.04483,0.09739 0.04636,0.09672 0.04793,0.09603 0.04954,0.09532 0.05119,0.09461 0.05289,0.09389 0.05463,0.09315 0.05641,0.0924 0.05823,0.09165 0.0601,0.09088 0.06201,0.09009 0.06396,0.0893 0.06596,0.0885 0.06799,0.08768 0.07007,0.08685 0.0722,0.08601 0.07436,0.08516 0.07657,0.0843 0.03913,0.04182 0.03969,0.0416 0.04027,0.04138 0.04085,0.04116 0.04143,0.04093 0.04199,0.04068 0.04255,0.04042 0.04312,0.04016 0.043697,0.0399 0.044279,0.03965 0.044869,0.03939 0.045465,0.03913 0.046068,0.03887 0.046678,0.03862 0.047294,0.03836 0.047917,0.0381 0.048547,0.03784 0.049183,0.03758 0.049826,0.03733 0.050475,0.03707 0.051132,0.03681 0.051794,0.03655 0.052464,0.03629 0.05314,0.03604 0.053823,0.03578 0.054512,0.03552 0.055209,0.03526 0.055912,0.03501 0.056621,0.03475 0.057337,0.03449 0.05806,0.03423 0.058789,0.03398 0.059526,0.03372 0.060268,0.03346 0.061018,0.0332 0.061774,0.03295 0.062537,0.03269 0.063306,0.03243 0.064082,0.03217 0.064865,0.03191 0.065654,0.03166 0.06645,0.0314 0.067253,0.03114 0.068062,0.03088 0.068878,0.03063 0.069701,0.03037 0.070518,0.03011 0.071276,0.02981 0.072029,0.02951 0.072785,0.02922 0.073545,0.02893 0.074308,0.02863 0.075076,0.02834 0.075848,0.02805 0.076624,0.02776 0.077403,0.02747 0.078186,0.02719 0.078974,0.0269 0.079765,0.02662 0.08056,0.02634 0.081359,0.02605 0.082162,0.02577 0.082969,0.0255 0.083779,0.02522 0.084594,0.02494 0.085413,0.02467 0.086235,0.0244 0.087061,0.02413 0.087891,0.02385 0.088726,0.02359 0.089564,0.02332 0.090406,0.02305 0.091251,0.02279 0.092101,0.02252 0.092955,0.02226 0.093812,0.022 0.094674,0.02174 0.095539,0.02148 0.096408,0.02122 0.097282,0.02097 0.098159,0.02071 0.09904,0.02046 0.099925,0.02021 0.1008132,0.01996 0.101706,0.01971 0.1026025,0.01946 0.103503,0.01922 0.1044075,0.01897 0.1053157,0.01873 0.1062279,0.01849 0.107144,0.01825 0.1080641,0.01801 0.1089879,0.01777 0.1099158,0.01753 0.1108475,0.0173 0.1117831,0.01706 0.1127226,0.01683 0.1136661,0.0166 0.1146134,0.01637 0.1155647,0.01614 0.1165197,0.01591 0.1174789,0.01568 0.1184418,0.01546 0.1194086,0.01524 0.1203794,0.01501 0.121354,0.01479 0.1223327,0.01457 0.123315,0.01436 0.1243015,0.01414 0.1252917,0.01392 0.1262859,0.01371 0.127284,0.0135 0.128286,0.01328 0.1292919,0.01308 0.1303016,0.01287 0.1313154,0.01266 0.1323329,0.01245 0.1333545,0.01225 0.1343798,0.01204 0.1354092,0.01184 0.1364424,0.01164 0.1374795,0.01144 0.1385205,0.01124 0.1395655,0.01105 0.1406142,0.01085 0.141667,0.01066 0.1427237,0.01047 0.1437842,0.01027 0.1448486,0.01008 0.145917,0.0099 0.1469892,0.0097 0.1480478,0.0095 0.1489638,0.0093 0.1498231,0.0091 0.1506518,0.0089 0.1514497,0.0087 0.1522172,0.0085 0.1529539,0.0083 0.15366,0.0081 0.1543355,0.0079 0.1549804,0.0077 0.1555946,0.0075 0.3129094,0.01444 0.3149987,0.0137 0.3168431,0.01297 0.3184424,0.01226 0.3197967,0.01157 0.3209058,0.0109 0.3217701,0.01024 0.3223892,0.0096 0.3227633,0.009 0.3228924,0.0084 0.3227764,0.0078 0.3224155,0.0072 0.3218094,0.0066 0.3209583,0.0061 0.3198622,0.0056 0.318521,0.0051 0.3169349,0.0046 0.3151037,0.0041 0.3130273,0.0037 0.1556586,0.0017 0.1550475,0.0016 0.154406,0.0015 0.1537338,0.0014 0.1530309,0.0013 0.1522975,0.0012 0.1515333,0.0011 0.1507385,9.62e-4 0.149913,8.69e-4 0.149057,7.79e-4 0.148171,6.9e-4 0.147254,6.05e-4 0.146305,5.21e-4 0.145327,4.4e-4 0.07229,1.9e-4 0.03594,8.7e-5 0.03522,8.4e-5 0.03443,7.9e-5 0.03366,7.5e-5 0.03289,7e-5 0.03214,6.5e-5 0.03141,6e-5 0.03069,5.5e-5 0.02998,5e-5 0.02929,4.3e-5 0.02861,3.7e-5 0.02795,3.1e-5 0.0273,2.5e-5 0.02666,1.8e-5 0.02604,1.1e-5 0.02543,4e-6 0.04909,-1.5e-5 0.04682,-4.6e-5 0.04467,-7.8e-5 0.04263,-1.14e-4 0.04069,-1.51e-4 0.03887,-1.89e-4 0.03716,-2.29e-4 0.03557,-2.71e-4 0.03408,-3.15e-4 0.03271,-3.61e-4 0.03145,-4.08e-4 0.0303,-4.57e-4 0.02926,-5.09e-4 0.02834,-5.61e-4 0.02752,-6.16e-4 0.05305,-0.0014 0.05147,-0.0016 0.103125,-0.0039 0.103623,-0.0048 0.104107,-0.0057 0.104577,-0.0066 0.105032,-0.0076 0.105474,-0.0086 0.105901,-0.0097 0.106316,-0.01073 0.106715,-0.01183 0.107101,-0.01297 0.107472,-0.01413 0.107831,-0.01533 0.10817,-0.01655 0.108271,-0.01777 0.108219,-0.01899 0.108149,-0.02024 0.108059,-0.02151 0.10795,-0.02282 0.107821,-0.02416 0.107672,-0.02552 0.107505,-0.02691 0.107317,-0.02833 0.107112,-0.02978 0.106885,-0.03126 0.10664,-0.03276 0.106375,-0.0343 0.106091,-0.03586 0.105787,-0.03745 0.105464,-0.03907 0.105122,-0.04072 0.10476,-0.0424 0.104379,-0.0441 0.103978,-0.04584 0.103558,-0.0476 0.103119,-0.04939 0.102659,-0.05121 0.102181,-0.05306 0.101684,-0.05494 0.101166,-0.05685 0.100629,-0.05878 0.09995,-0.06068 0.09889,-0.06238 0.09779,-0.06408 0.09669,-0.0658 0.09558,-0.06751 0.09447,-0.06924 0.09335,-0.07097 0.09222,-0.07271 0.09109,-0.07446 0.08995,-0.07622 0.0888,-0.07798 0.08765,-0.07975 0.08649,-0.08153 0.08532,-0.08332 0.08414,-0.08512 0.08296,-0.08692 0.08178,-0.08874 0.08058,-0.09056 0.07938,-0.09239 0.07817,-0.09422 0.07696,-0.09607 0.07574,-0.09792 0.07451,-0.09977 0.07303,-0.101324 0.07143,-0.102701 0.06985,-0.104049 0.06828,-0.105369 0.06672,-0.106659 0.06518,-0.107922 0.06364,-0.109155 0.06212,-0.110361 0.0606,-0.111537 0.0591,-0.112686 0.05761,-0.113805 0.05614,-0.114896 0.05467,-0.115958 0.05322,-0.116992 0.05177,-0.117998 0.05034,-0.118974 0.04892,-0.119923 0.04751,-0.120843 0.04612,-0.121733 0.04473,-0.122596 0.04336,-0.12343 0.042,-0.124235 0.04065,-0.125013 0.03931,-0.125761 0.03798,-0.12648 0.03667,-0.127172 0.03537,-0.127834 0.03407,-0.128468 0.03283,-0.129205 0.03164,-0.130073 0.03047,-0.130911 0.0293,-0.131721 0.02815,-0.132502 0.02701,-0.133253 0.02587,-0.133977 0.02475,-0.13467 0.02364,-0.135335 0.02255,-0.135971 0.02146,-0.136577 0.02038,-0.137155 0.01932,-0.137704 0.01826,-0.138223 0.01722,-0.138714 0.01619,-0.139176 0.01517,-0.139607 0.01416,-0.140012 0.01316,-0.140386 0.01218,-0.140731 0.0112,-0.141048 0.01024,-0.141335 0.0093,-0.141641 0.0084,-0.142575 0.0075,-0.143654 0.0066,-0.144658 0.0057,-0.14559 0.0049,-0.146446 0.004,-0.147229 0.0031,-0.147938 0.0022,-0.148571 0.0014,-0.149132 4.96e-4,-0.149618 -3.67e-4,-0.150136 -0.0012,-0.151106 -0.0022,-0.152118 -0.0031,-0.153104 -0.0041,-0.154068 -0.0052,-0.155007 -0.0062,-0.1559224 -0.0073,-0.1568136 -0.0085,-0.1576809 -0.0097,-0.1585243 L 20.376067,9.303727 20.363839,9.1435931 20.350292,8.9827235 20.335373,8.8211781 20.319029,8.659017 20.301204,8.4963002 20.281846,8.3330878 20.2609,8.1694397 20.238313,8.0054161 20.214031,7.8410769 20.188,7.6764822 20.160165,7.511692 l -0.02969,-0.1649257 -0.0316,-0.1650011 -0.03357,-0.1650165 -0.03558,-0.1649719 -0.03766,-0.1648672 -0.03978,-0.1647025 -0.04196,-0.1644778 -0.0442,-0.1641931 -0.04649,-0.1638482 -0.02412,-0.081776 -0.02471,-0.081667 -0.02532,-0.081589 -0.026,-0.081662 -0.02669,-0.081739 -0.0274,-0.081803 -0.02812,-0.081855 -0.02886,-0.081892 -0.02961,-0.081917 -0.03038,-0.081929 -0.03116,-0.081927 -0.03196,-0.081913 -0.03277,-0.081885 -0.03359,-0.081844 -0.03443,-0.08179 -0.03529,-0.081722 -0.03615,-0.081642 -0.03704,-0.081548 -0.03794,-0.081441 -0.03885,-0.081321 -0.03977,-0.081188 -0.04072,-0.081042 -0.04167,-0.080881 -0.04259,-0.080599 -0.04348,-0.08024 -0.04438,-0.079867 -0.0453,-0.07948 -0.04624,-0.079078 -0.04719,-0.078662 -0.04815,-0.078232 -0.04912,-0.077788 -0.05011,-0.077329 -0.05111,-0.076857 -0.05213,-0.07637 -0.05316,-0.075868 -0.0542,-0.075353 -0.05526,-0.074823 -0.05633,-0.074279 -0.05741,-0.07372 -0.05851,-0.073148 -0.05962,-0.072561 -0.06075,-0.07196 -0.06189,-0.071344 -0.06304,-0.070715 -0.0642,-0.070071 -0.06539,-0.069413 -0.06658,-0.068741 -0.06779,-0.068054 -0.06901,-0.067353 -0.07024,-0.066638 -0.07143,-0.065849 -0.07239,-0.064822 -0.07333,-0.063768 -0.07427,-0.062712 -0.07522,-0.061652 -0.07616,-0.060589 -0.07711,-0.059523 -0.07805,-0.058453 -0.079,-0.057381 -0.07996,-0.056306 -0.08091,-0.055228 -0.08186,-0.054146 -0.08282,-0.053062 -0.08378,-0.051974 -0.08473,-0.050884 -0.0857,-0.04979 -0.08666,-0.048693 -0.08762,-0.047593 -0.08859,-0.046491 -0.08956,-0.045385 -0.09052,-0.0442756 -0.0915,-0.0431635 -0.09247,-0.0420483 -0.09344,-0.04093 -0.09442,-0.0398087 -0.09539,-0.0386843 -0.09637,-0.0375568 -0.0972,-0.0363657 -0.09789,-0.0351204 -0.09855,-0.033884 L 14.917839,0.6043781 14.817993,0.5729406 14.717522,0.5427132 14.616439,0.5136871 14.514759,0.4858535 14.412496,0.4592037 14.309663,0.4337288 14.206274,0.40942 14.102343,0.3862687 13.997884,0.3642659 13.892911,0.343403 13.787439,0.3236711 13.68148,0.3050615 13.575049,0.2875653 13.46816,0.2711739 13.360826,0.2558783 13.253062,0.2416699 13.144882,0.2285398 13.036298,0.2164793 12.927327,0.2054795 12.81798,0.1955318 l -0.109707,-0.008905 -0.110055,-0.00787 -0.05512,-0.003549 -0.05357,-0.003261 -0.05148,-0.002965 -0.04984,-0.002681 -0.04864,-0.002411 -0.04789,-0.002154 -0.09529,-0.003587 -0.04829,-0.001459 -0.04932,-0.001254 -0.05079,-0.001061 -0.0527,-8.813e-4 -0.02721,-3.773e-4 -0.02785,-3.372e-4 -0.02855,-2.987e-4 -0.02931,-2.619e-4 -0.03012,-2.267e-4 -0.03099,-1.93e-4 -0.03191,-1.611e-4 -0.03289,-1.306e-4 -0.03392,-1.019e-4 -0.03501,-7.48e-5 -0.03616,-4.92e-5 -0.03736,-2.53e-5 -0.03862,-3.1e-6 -0.03993,1.77e-5 -0.04129,3.67e-5 -0.04272,5.41e-5 -0.0442,7e-5 -0.04573,8.42e-5 -0.04732,9.68e-5 -0.04897,1.077e-4 -0.05067,1.172e-4 -0.05242,1.248e-4 -0.05424,1.31e-4 -0.05591,1.365e-4 -0.112936,3.066e-4 -0.113841,3.555e-4 -0.114735,4.057e-4 -0.11562,4.572e-4 -0.116494,5.101e-4 -0.117358,5.643e-4 -0.118213,6.2e-4 -0.119057,6.769e-4 L 9.8848828,0.1576436 9.6480823,0.159361 9.4134322,0.1612769 9.1809202,0.1633906 8.950534,0.1657013 8.7222612,0.1682083 8.4960896,0.1709111 8.2720067,0.1738088 8.0500003,0.1769009 7.830058,0.1801867 7.6121675,0.1836654 7.3963164,0.1873365 7.1824925,0.1911991 6.9706835,0.1952527 6.7608768,0.1994966 6.5530604,0.20393 6.3472217,0.2085523 6.1433485,0.2133629 5.9414285,0.2183609 5.7414494,0.2235459 5.5433987,0.228917 5.3472642,0.2344736 5.1530335,0.240215 4.9606944,0.2461406 4.7702344,0.2522497 4.5816413,0.2585415 4.3949028,0.2650154 4.2100064,0.2716708 4.0269399,0.2785068 3.8456909,0.285523 3.6662471,0.2927185 3.4885962,0.3000927 3.3127259,0.307645 3.1386237,0.3153746 2.9662775,0.3232809 2.7956748,0.3313631 2.6268034,0.3396207 2.4596508,0.3480528 2.2942049,0.356659 2.1304531,0.3654383 1.9683833,0.3743903 1.8079831,0.3835142 1.6492401,0.3928093 1.4921421,0.402275 1.3366766,0.4119105 1.1828314,0.4217152 1.0305942,0.4316884 0.8799526,0.4418294 0.7308942,0.4521376 0.5834068,0.4626123 0.437478,0.4732527 0.2930955,0.4840583 0.150247,0.4950283 0.0089201,0.506162 -0.1308975,0.5174588 -0.2692181,0.528918 l -0.136836,0.0116209 -0.1353637,0.0117819 -0.1339037,0.0119423 -0.132456,0.012102 -0.1310207,0.0122609 -0.1295977,0.0124193 -0.128187,0.0125769 -0.1267887,0.0127338 -0.1254027,0.0128901 -0.124029,0.0130457 -0.1226676,0.0132007 -0.1213187,0.0133548 -0.1199819,0.0135084 -0.1186576,0.0136613 -0.1173455,0.0138135 -0.1160459,0.013965 -0.1147584,0.0141159 -0.1134834,0.0142659 -0.1122207,0.0144155 -0.1109704,0.0145643 -0.1097322,0.0147123 -0.1085065,0.0148599 -0.1072932,0.0150065 -0.106092,0.0151527 -0.1049034,0.015298 -0.1037999,0.0154528 -0.1030482,0.015655 -0.1023423,0.0158651 -0.1016381,0.016077 -0.1009354,0.016291 -0.1002341,0.0165067 -0.099534,0.0167245 -0.098836,0.0169441 -0.09814,0.0171656 -0.097444,0.017389 -0.096751,0.017614 -0.096059,0.017842 -0.095368,0.018071 -0.094679,0.018302 -0.093992,0.018535 -0.093306,0.01877 -0.092621,0.019006 -0.091939,0.019245 -0.091257,0.019486 -0.090577,0.019728 -0.089899,0.019973 -0.089222,0.020219 -0.088547,0.020467 -0.087873,0.020717 -0.087201,0.020969 -0.086531,0.021223 -0.085861,0.021479 -0.085194,0.021737 -0.084528,0.021997 -0.083863,0.022258 -0.0832,0.022522 -0.082539,0.022787 -0.081879,0.023054 -0.08122,0.023324 -0.080563,0.023595 -0.079908,0.023868 -0.079254,0.024143 -0.078602,0.02442 -0.077951,0.024698 -0.077302,0.024979 -0.076654,0.025261 -0.076008,0.025546 -0.075363,0.025832 -0.07472,0.026121 -0.074078,0.026411 -0.073438,0.026703 -0.0728,0.026997 -0.072163,0.027293 -0.071527,0.027591 -0.070893,0.02789 -0.070261,0.028192 -0.06963,0.028496 -0.069001,0.028801 -0.068373,0.029108 -0.067746,0.029418 -0.067193,0.029757 -0.066718,0.030132 -0.066241,0.030513 -0.065764,0.0309 -0.065286,0.031294 -0.064808,0.031693 -0.064328,0.032098 -0.063847,0.03251 -0.063365,0.032927 -0.062883,0.033351 -0.062399,0.03378 -0.061915,0.034216 -0.061429,0.034658 -0.060943,0.035106 -0.060456,0.035559 -0.059968,0.03602 -0.059479,0.036485 -0.058989,0.036958 -0.058498,0.037436 -0.058006,0.03792 -0.057513,0.03841 -0.05702,0.038906 -0.056525,0.039409 -0.05603,0.039917 -0.055533,0.040432 -0.055036,0.040953 -0.054537,0.041479 -0.054038,0.042012 -0.053538,0.042551 -0.053037,0.043096 -0.052535,0.043647 -0.052032,0.044203 -0.051528,0.044767 -0.051023,0.045336 -0.050518,0.045911 -0.04997,0.04646 -0.04937,0.04697 -0.04877,0.047484 -0.04817,0.048001 -0.04758,0.048523 -0.04698,0.049048 -0.04639,0.049577 -0.0458,0.050111 -0.04521,0.050648 -0.04462,0.051189 -0.04404,0.051734 -0.04345,0.052282 -0.04287,0.052835 -0.04229,0.053392 -0.04171,0.053952 -0.04113,0.054517 -0.04055,0.055085 -0.03998,0.055657 -0.03941,0.056233 -0.03883,0.056813 -0.03827,0.057397 -0.0377,0.057985 -0.03713,0.058576 -0.03656,0.059172 -0.036,0.059771 -0.03544,0.060374 -0.03488,0.060982 -0.03432,0.061593 -0.03376,0.062208 -0.0332,0.062827 -0.03265,0.063449 -0.0321,0.064076 -0.03155,0.064707 -0.031,0.065341 -0.03045,0.065984 -0.02995,0.066714 -0.02947,0.067482 -0.02898,0.06826 -0.02849,0.069049 -0.02801,0.069849 -0.02752,0.07066 -0.02703,0.071481 -0.02654,0.072313 -0.02605,0.073156 -0.02556,0.07401 -0.02506,0.074874 -0.02457,0.075749 -0.02407,0.076635 -0.02358,0.077532 -0.02309,0.078439 -0.02259,0.079357 -0.02209,0.080286 -0.0216,0.081226 -0.0211,0.082176 -0.0206,0.083138 -0.0201,0.08411 -0.0196,0.085092 -0.0191,0.086085 -0.01859,0.08709 -0.01809,0.088105 -0.01759,0.08913 -0.01708,0.090167 -0.01658,0.091214 -0.01607,0.092272 -0.01557,0.093341 -0.01506,0.09442 -0.01455,0.09551 -0.01404,0.096611 -0.01353,0.097723 -0.01302,0.098845 -0.01251,0.099978 -0.012,0.1011224 -0.01149,0.1022771 -0.01097,0.1034425 -0.01046,0.1046188 -0.0099,0.1058057 -0.0094,0.1070034 -0.0089,0.1081964 -0.0083,0.1090569 -0.0077,0.109694 -0.0072,0.1102181 -0.0066,0.1106292 -0.0116,0.2220387 -0.0095,0.2223256 -0.0076,0.2217079 -0.0031,0.110339 -0.0026,0.109846 -0.0022,0.109238 -0.0018,0.108519 -0.0014,0.107686 -10e-4,0.106739 -6.27e-4,0.10568 z"
       transform="matrix(1,0,0,-1,20.292743,22.497006)"
       fill="rgb(255,255,255)"
       stroke="rgb(0,0,0)"
       stroke-width="0.0010cm"
       stroke-linecap="round"
       stroke-linejoin="round"
       id="path4180"
       style="fill:none;stroke:#ff6400;stroke-width:0.2;stroke-dasharray:none;stroke-opacity:1" /></g></svg>
