<?xml version="1.0" encoding="UTF-8" standalone="no"?>
<!-- Generator: Fusion 360, Shaper Origin Export Add-In, Version 1.8.0  -->

<svg
   shaper:fusionaddin="version:1.8.0"
   width="50cm"
   height="30cm"
   version="1.1"
   x="0cm"
   y="0cm"
   viewBox="0 0 50 30"
   enable-background="new 0 0 42.3335 23"
   xml:space="preserve"
   id="svg6034"
   sodipodi:docname="mid_002.svg"
   inkscape:version="1.2.2 (732a01da63, 2022-12-09)"
   xmlns:inkscape="http://www.inkscape.org/namespaces/inkscape"
   xmlns:sodipodi="http://sodipodi.sourceforge.net/DTD/sodipodi-0.dtd"
   xmlns="http://www.w3.org/2000/svg"
   xmlns:svg="http://www.w3.org/2000/svg"
   xmlns:shaper="http://www.shapertools.com/namespaces/shaper"><defs
     id="defs6038" /><sodipodi:namedview
     id="namedview6036"
     pagecolor="#505050"
     bordercolor="#eeeeee"
     borderopacity="1"
     inkscape:showpageshadow="0"
     inkscape:pageopacity="0"
     inkscape:pagecheckerboard="0"
     inkscape:deskcolor="#505050"
     inkscape:document-units="cm"
     showgrid="false"
     inkscape:zoom="1.3864167"
     inkscape:cx="196.54986"
     inkscape:cy="822.62428"
     inkscape:window-width="1920"
     inkscape:window-height="991"
     inkscape:window-x="-9"
     inkscape:window-y="-9"
     inkscape:window-maximized="1"
     inkscape:current-layer="svg6034" /><g
     id="g6556"
     transform="translate(5.9813235,3.49984)"><path
       d="m 0,13.2 h 4.9335 v 0.5 0 l 0.02451,3.11e-4 0.0242,9.29e-4 0.0239,0.0015 0.0236,0.0022 0.0233,0.0028 0.02301,0.0034 0.02272,0.004 0.02243,0.0046 0.02215,0.0052 0.02187,0.0058 0.0216,0.0064 0.02132,0.0069 0.02105,0.0075 0.02079,0.0081 0.02053,0.0087 0.02027,0.0093 0.02001,0.0099 0.01976,0.01045 0.01951,0.01102 0.01926,0.0116 0.01901,0.01217 0.01877,0.01275 0.01853,0.01332 0.01829,0.01389 0.01806,0.01446 0.01783,0.01503 0.0176,0.0156 0.01737,0.01617 0.01714,0.01674 0.01692,0.0173 0.0167,0.01787 0.01648,0.01844 0.01626,0.01901 0.01605,0.01957 0.01584,0.02014 0.01563,0.02071 0.01542,0.02128 0.01521,0.02185 0.01501,0.02242 0.0148,0.02299 0.0146,0.02356 0.0144,0.02413 0.0142,0.0247 0.01401,0.02528 0.01381,0.02585 0.01362,0.02643 0.01343,0.02701 0.01324,0.02759 0.01305,0.02817 0.01286,0.02875 0.01267,0.02933 0.01249,0.02992 0.01231,0.03051 0.01212,0.0311 0.01194,0.03169 0.01176,0.03229 0.01159,0.03289 0.01141,0.03349 0.01123,0.03409 0.01106,0.03469 0.01088,0.0353 0.01071,0.03591 0.01054,0.03653 0.01037,0.03714 0.0102,0.03776 0.01003,0.03839 0.0099,0.03901 0.0097,0.03965 0.0095,0.04028 0.0094,0.04092 0.0092,0.04156 0.009,0.04221 0.0089,0.04286 0.0087,0.04351 0.0085,0.04417 0.0084,0.04483 0.0082,0.0455 0.0081,0.04617 0.0079,0.04685 0.0077,0.04753 0.0076,0.04822 0.0074,0.04892 0.0073,0.04961 0.0071,0.05032 0.0069,0.05103 0.0068,0.05174 0.0066,0.05246 0.0065,0.05319 0.0063,0.05392 0.0062,0.05466 0.006,0.05541 0.0058,0.05617 0.0057,0.05692 0.0055,0.05769 0.0054,0.05847 0.0052,0.05925 0.0051,0.06004 0.0049,0.06083 0.0047,0.06164 0.0046,0.06245 0.0044,0.06327 0.0043,0.0641 0.0041,0.06494 0.004,0.06579 0.0038,0.06664 0.0037,0.06751 0.0035,0.06838 0.0033,0.06926 0.0032,0.07015 0.003,0.07106 0.0029,0.07197 0.0027,0.07289 0.0026,0.07383 0.0024,0.07477 0.0022,0.07573 0.0021,0.0767 0.0019,0.07768 0.0017,0.07867 0.0016,0.07967 0.0014,0.08069 0.0013,0.08172 0.0011,0.08276 9.26e-4,0.08381 7.59e-4,0.08488 5.92e-4,0.08596 4.25e-4,0.08706 2.55e-4,0.08817 8.5e-5,0.08929 v 2.2 a 2,2 0 0 0 2,2 h 32 a 2,2 0 0 0 2,-2 v -19 a 2,2 0 0 0 -2,-2 h -11.25 v 0.38 h -0.5 v -0.38 h -20.25 a 2,2 0 0 0 -2,2 v 4 0 l -1.1e-5,0.053639 -3.4e-5,0.053015 -5.7e-5,0.052401 -7.8e-5,0.051798 -2.22e-4,0.101828 -3.06e-4,0.099536 -3.89e-4,0.09732 -4.7e-4,0.095177 -5.49e-4,0.093103 -6.27e-4,0.091096 -7.02e-4,0.089153 -7.76e-4,0.08727 -8.49e-4,0.085447 -9.2e-4,0.083679 -9.89e-4,0.081965 -0.0011,0.080303 -0.0011,0.07869 -0.0012,0.077125 -0.0013,0.075606 -0.0013,0.07413 -0.0014,0.072698 -0.0014,0.071305 -0.0015,0.069952 -0.0016,0.068637 -0.0016,0.067358 -0.0017,0.066114 -0.0017,0.064903 -0.0018,0.063725 -0.0019,0.062579 -0.0019,0.061463 -0.002,0.060375 -0.002,0.059316 -0.0021,0.058285 -0.0021,0.057279 -0.0022,0.056299 -0.0022,0.055344 -0.0023,0.054412 -0.0023,0.053503 -0.0024,0.052616 -0.0024,0.05175 -0.0025,0.050906 -0.0025,0.050082 -0.0026,0.049277 -0.0026,0.04849 -0.0027,0.047722 -0.0027,0.046972 -0.0028,0.046239 -0.0028,0.045523 -0.0029,0.044822 -0.0029,0.044138 -0.003,0.043468 -0.003,0.042813 -0.0031,0.042173 -0.0031,0.041546 -0.0032,0.040933 -0.0032,0.040333 -0.0066,0.078915 -0.0068,0.076662 -0.0069,0.074501 -0.0071,0.072428 -0.0073,0.070436 -0.0075,0.068522 -0.0077,0.066682 -0.0079,0.06491 -0.0081,0.06321 -0.0083,0.06157 -0.0085,0.05999 -0.0087,0.05846 -0.0089,0.05699 -0.0091,0.05557 -0.0093,0.0542 -0.0095,0.05288 -0.0097,0.0516 -0.0099,0.05036 -0.01016,0.04917 -0.01038,0.04801 -0.0106,0.04689 -0.01083,0.04581 -0.01106,0.04476 -0.0113,0.04373 -0.01154,0.04275 -0.01178,0.04179 -0.01203,0.04086 -0.01229,0.03995 -0.01254,0.03907 -0.01281,0.03822 -0.01308,0.03739 -0.01336,0.03658 -0.01364,0.03579 -0.01393,0.03503 -0.01423,0.03428 -0.01453,0.03356 -0.01484,0.03285 -0.01516,0.03216 -0.01549,0.03148 -0.01582,0.03083 -0.01617,0.03018 -0.01652,0.02956 -0.01688,0.02894 -0.01726,0.02834 -0.01764,0.02776 -0.01803,0.02718 -0.01844,0.02662 -0.01886,0.02607 -0.01929,0.02553 -0.01973,0.025 -0.02018,0.02447 -0.02066,0.02396 -0.02114,0.02346 -0.02164,0.02297 -0.02216,0.02248 -0.02269,0.02201 -0.02324,0.02153 -0.02382,0.02107 -0.02441,0.02061 -0.02502,0.02016 -0.02565,0.01971 -0.0263,0.01928 -0.02698,0.01884 -0.02769,0.01841 -0.02842,0.01798 -0.02917,0.01755 -0.02996,0.01713 -0.03078,0.01671 -0.03163,0.0163 -0.03251,0.01588 -0.03343,0.01547 -0.03438,0.01506 -0.03538,0.01465 -0.03642,0.01424 -0.03751,0.01382 -0.03864,0.01341 -0.03982,0.013 -0.04106,0.01258 -0.04235,0.01216 -0.04371,0.01174 -0.04512,0.01131 -0.04661,0.01088 -0.04817,0.01045 -0.04981,0.01 -0.05153,0.0096 -0.05334,0.0091 -0.05524,0.0086 -0.05725,0.0082 -0.05937,0.0077 -0.0616,0.0072 -0.03168,0.0034 -0.03229,0.0033 -0.03291,0.0031 -0.03355,0.003 -0.03421,0.0029 -0.03489,0.0027 -0.0356,0.0026 -0.03632,0.0024 -0.03706,0.0023 -0.03783,0.0021 -0.03862,0.002 -0.03944,0.0018 -0.04028,0.0017 -0.04115,0.0015 -0.04204,0.0014 -0.04297,0.0012 -0.04393,10e-4 -0.04492,8.43e-4 -0.04594,6.64e-4 -0.047,4.8e-4 -0.04809,2.92e-4 -0.04922,9.8e-5 h -3.3335 z"
       fill="rgb(0,0,0)"
       stroke-linecap="round"
       stroke-linejoin="round"
       id="path6022"
       style="fill:none;stroke:#ff0000;stroke-width:0.2;stroke-dasharray:none;stroke-opacity:1" /><path
       d="m 32.047786,21.8917 v 0 l -0.04961,-3.3e-5 h -0.04872 l -0.04781,10e-7 -0.04709,-2.1e-5 -0.188108,-1.54e-4 -0.375769,-6.13e-4 -0.374648,-10e-4 -0.3729,-0.0014 -0.185599,-8.68e-4 -0.184972,-9.7e-4 -0.370908,-0.0023 -0.372828,-0.0027 -0.374374,-0.0032 -0.375549,-0.0037 -0.376353,-0.0042 -0.75363,-0.0101 -0.376533,-0.0059 -0.375849,-0.0065 -0.374794,-0.0071 -0.373367,-0.0077 -0.371568,-0.0084 -0.184994,-0.0045 -0.184404,-0.0046 -0.183768,-0.0048 -0.183087,-0.005 -0.182274,-0.0051 -0.181067,-0.0053 -0.179818,-0.0055 -0.178572,-0.0056 -0.177329,-0.0058 -0.176088,-0.006 -0.174852,-0.0061 -0.173617,-0.0063 -0.172385,-0.0065 -0.171156,-0.0066 -0.169931,-0.0068 -0.168708,-0.007 -0.167487,-0.0072 -0.166271,-0.0073 -0.165056,-0.0075 -0.163844,-0.0077 -0.162637,-0.0079 -0.16143,-0.0081 -0.160228,-0.0083 -0.159028,-0.0085 -0.15783,-0.0086 -0.156637,-0.0088 -0.155445,-0.009 -0.154257,-0.0092 -0.153072,-0.0094 -0.151889,-0.0096 -0.150709,-0.0098 -0.149533,-0.01004 -0.148358,-0.01024 -0.147188,-0.01045 -0.146019,-0.01066 -0.144854,-0.01087 -0.143691,-0.01108 -0.142532,-0.0113 -0.141375,-0.01151 -0.140222,-0.01173 -0.13907,-0.01195 -0.137923,-0.01218 -0.136777,-0.0124 -0.135636,-0.01262 -0.134495,-0.01285 -0.13336,-0.01308 -0.132226,-0.01331 -0.131095,-0.01354 -0.129967,-0.01378 -0.128842,-0.01402 -0.12772,-0.01425 -0.126601,-0.01449 -0.125485,-0.01473 -0.124371,-0.01498 -0.123261,-0.01522 -0.122153,-0.01547 -0.121049,-0.01572 -0.119946,-0.01597 -0.118847,-0.01622 -0.117752,-0.01647 -0.116658,-0.01673 -0.115567,-0.01698 -0.114481,-0.01724 -0.113395,-0.0175 -0.112266,-0.01776 -0.111085,-0.01801 -0.109913,-0.01826 -0.108748,-0.01851 -0.107591,-0.01876 -0.106442,-0.01902 -0.1053,-0.01928 -0.104168,-0.01953 -0.103041,-0.01979 -0.101924,-0.02005 -0.100814,-0.02031 -0.09971,-0.02057 -0.09862,-0.02084 -0.09753,-0.0211 -0.09645,-0.02137 -0.09538,-0.02163 -0.09432,-0.0219 -0.09326,-0.02217 -0.09222,-0.02244 -0.09118,-0.02271 -0.09014,-0.02299 -0.08912,-0.02326 -0.08811,-0.02354 -0.0871,-0.02382 -0.0861,-0.02409 -0.0851,-0.02438 -0.08412,-0.02466 -0.08314,-0.02494 -0.08217,-0.02522 -0.08121,-0.02551 -0.08026,-0.02579 -0.07931,-0.02608 -0.07837,-0.02637 -0.07744,-0.02666 -0.07652,-0.02695 -0.07561,-0.02725 -0.0747,-0.02754 -0.0738,-0.02783 -0.07291,-0.02813 -0.07203,-0.02843 -0.07115,-0.02873 -0.07029,-0.02903 -0.06943,-0.02933 -0.06858,-0.02963 -0.06773,-0.02994 -0.06697,-0.03027 -0.06623,-0.03063 -0.06551,-0.03098 -0.06478,-0.03134 -0.06406,-0.0317 -0.06335,-0.03207 -0.06264,-0.03244 -0.06193,-0.03281 -0.06123,-0.03319 -0.06053,-0.03357 -0.05984,-0.03395 -0.05915,-0.03434 -0.05846,-0.03473 -0.05778,-0.03512 -0.0571,-0.03552 -0.05643,-0.03592 -0.05576,-0.03632 -0.05509,-0.03673 -0.05443,-0.03714 -0.05378,-0.03755 -0.05312,-0.03797 -0.05248,-0.03839 -0.05183,-0.03882 -0.05119,-0.03925 -0.05056,-0.03968 -0.04993,-0.04011 -0.0493,-0.04055 -0.04868,-0.04099 -0.04806,-0.04144 -0.04744,-0.04189 -0.04683,-0.04234 -0.04623,-0.0428 -0.04557,-0.04321 -0.04488,-0.04359 -0.0442,-0.04397 -0.04353,-0.04434 -0.04286,-0.04472 -0.0422,-0.0451 -0.04154,-0.04548 -0.04089,-0.04585 -0.04025,-0.04623 -0.03961,-0.04661 -0.03898,-0.04699 -0.03835,-0.04736 -0.03773,-0.04774 -0.03711,-0.04811 -0.03651,-0.04849 -0.0359,-0.04886 -0.03531,-0.04924 -0.03472,-0.04961 -0.03413,-0.04998 -0.03355,-0.05036 -0.03298,-0.05073 -0.03242,-0.0511 -0.03186,-0.05148 -0.0313,-0.05185 -0.03076,-0.05222 -0.03021,-0.05259 -0.02968,-0.05296 -0.02915,-0.05333 -0.02862,-0.0537 -0.02811,-0.05407 -0.02759,-0.05445 -0.02709,-0.05481 -0.02659,-0.05518 -0.02609,-0.05555 -0.02561,-0.05592 -0.02515,-0.05634 -0.02474,-0.05687 -0.02433,-0.05739 -0.02393,-0.05793 -0.02352,-0.05847 -0.02312,-0.05901 -0.02272,-0.05956 -0.02233,-0.06011 -0.02193,-0.06066 -0.02153,-0.06123 -0.02114,-0.06179 -0.02075,-0.06235 -0.02036,-0.06292 -0.01997,-0.0635 -0.01959,-0.06408 -0.0192,-0.06466 -0.01882,-0.06525 -0.01844,-0.06584 -0.01806,-0.06643 -0.01768,-0.06703 -0.01731,-0.06763 -0.01693,-0.06824 -0.01656,-0.06885 -0.01619,-0.06946 -0.01582,-0.07008 -0.01545,-0.0707 -0.01509,-0.07133 -0.01473,-0.07196 -0.01436,-0.07259 -0.014,-0.07323 -0.01364,-0.07387 -0.01329,-0.07451 -0.01293,-0.07517 -0.01258,-0.07582 -0.01223,-0.07648 -0.01188,-0.07714 -0.01153,-0.0778 -0.01118,-0.07847 -0.01084,-0.07915 -0.0105,-0.07982 -0.01015,-0.0805 -0.0098,-0.08119 -0.0095,-0.08188 -0.0091,-0.08257 -0.0088,-0.08327 -0.0085,-0.08397 -0.0081,-0.08467 -0.0078,-0.08538 -0.0075,-0.08609 -0.0071,-0.08667 -0.01319,-0.173509 -0.01176,-0.173326 -0.0104,-0.172812 -0.0091,-0.171962 -0.0079,-0.170781 -0.0067,-0.169266 -0.0056,-0.167416 -0.0024,-0.08291 -0.0021,-0.08232 -0.0019,-0.08169 -0.0017,-0.08102 -0.0014,-0.08031 -0.0012,-0.07956 -10e-4,-0.07876 -7.98e-4,-0.07793 -6.01e-4,-0.07705 -4.13e-4,-0.07613 -2.32e-4,-0.07516 -6e-5,-0.07416 1.04e-4,-0.07311 2.6e-4,-0.07203 4.09e-4,-0.0709 5.49e-4,-0.06973 6.8e-4,-0.06851 8.05e-4,-0.06726 9.21e-4,-0.06596 10e-4,-0.06462 0.0011,-0.06325 0.0012,-0.06182 0.0013,-0.06036 0.0014,-0.05886 0.0014,-0.05731 0.0015,-0.05572 0.0016,-0.0541 0.0016,-0.05242 0.0016,-0.05071 0.0017,-0.04896 0.0035,-0.09507 0.0038,-0.0942 0.0041,-0.09336 0.0044,-0.09253 0.0047,-0.091712 0.005,-0.090895 0.0053,-0.090083 0.0056,-0.089277 0.0059,-0.088476 0.0062,-0.087681 0.0066,-0.086892 0.0069,-0.086108 0.0072,-0.08533 0.0075,-0.084557 0.0078,-0.08379 L 8.34008,8.971821 8.34848,8.889548 8.35718,8.808025 8.36628,8.727247 8.37568,8.647208 8.38538,8.567903 8.39539,8.489326 8.40572,8.411471 8.41637,8.334333 8.42734,8.257906 8.43863,8.182184 8.45024,8.107162 8.46217,8.032834 8.47442,7.959195 8.487,7.886239 8.4999,7.813961 8.51313,7.742355 8.52668,7.671415 8.54056,7.601136 8.55476,7.531512 8.56929,7.462538 8.58415,7.394207 8.59933,7.326515 8.61484,7.259456 8.63068,7.193024 8.64685,7.127213 8.66335,7.062019 8.68018,6.997435 8.69735,6.933456 8.71485,6.870076 8.73268,6.807289 8.75084,6.74509 8.76934,6.683474 8.78818,6.622435 8.80735,6.561967 8.82686,6.502065 8.84671,6.44271 8.86692,6.383864 8.88748,6.325524 8.90841,6.267686 8.9297,6.210346 8.95135,6.153502 8.97337,6.097151 8.99576,6.041289 9.01852,5.985914 9.04165,5.931022 9.06515,5.87661 9.08903,5.822675 9.11329,5.769214 9.13792,5.716224 9.16294,5.663701 9.18834,5.611643 9.21412,5.560046 9.26685,5.4582247 l 0.0543,-0.100013 0.05588,-0.09823 0.05747,-0.096471 0.05909,-0.094738 0.06071,-0.093029 0.06235,-0.091346 0.06401,-0.089687 0.06568,-0.088054 0.06737,-0.086445 0.06907,-0.084855 0.07075,-0.083253 0.072451,-0.081667 0.07415,-0.080103 0.07587,-0.078563 0.07761,-0.077044 0.07935,-0.075548 0.08112,-0.074075 0.08289,-0.072624 0.08468,-0.071196 0.08648,-0.06979 0.0883,-0.068407 0.09013,-0.067047 0.09197,-0.065708 0.09383,-0.064393 0.09569,-0.0631 0.09758,-0.06183 0.09948,-0.060582 0.101388,-0.059357 0.103313,-0.058155 0.105194,-0.056944 0.106818,-0.055619 0.108388,-0.054301 0.109933,-0.053004 0.111451,-0.051729 0.112944,-0.050477 0.114411,-0.049246 0.115853,-0.048037 0.117268,-0.04685 0.118658,-0.045685 0.120022,-0.044542 0.121361,-0.043421 0.122673,-0.042321 0.12396,-0.041244 0.125221,-0.040189 0.126457,-0.039155 0.127667,-0.038144 0.12885,-0.037154 0.130009,-0.036186 0.131141,-0.035241 0.132248,-0.034317 0.133329,-0.033415 0.134384,-0.032535 0.135414,-0.031677 0.136417,-0.030841 0.137396,-0.030027 0.138348,-0.029235 0.139274,-0.028464 0.140176,-0.027716 0.14105,-0.02699 0.1419,-0.026285 0.142724,-0.025602 0.143521,-0.024942 0.144302,-0.024305 0.07294,-0.012005 0.07394,-0.011983 0.07496,-0.01196 0.076,-0.011934 0.07707,-0.011907 0.07815,-0.011878 0.07926,-0.011847 0.08039,-0.011813 0.08155,-0.011778 0.08272,-0.011741 0.08392,-0.011702 0.08514,-0.011661 0.08638,-0.011618 0.08765,-0.011573 0.08893,-0.011526 0.09024,-0.011478 0.09157,-0.011427 0.09293,-0.011374 0.0943,-0.011319 0.0957,-0.011263 0.09712,-0.011204 0.09856,-0.011144 0.100025,-0.011081 0.101513,-0.011017 0.10302,-0.01095 0.104552,-0.010882 0.106105,-0.010811 0.107679,-0.010739 0.109278,-0.010665 0.110896,-0.010589 0.112539,-0.010511 0.114202,-0.010431 0.115889,-0.010349 0.117596,-0.010265 0.119328,-0.010179 0.12108,-0.010091 0.122854,-0.010001 0.124652,-0.00991 0.126471,-0.00982 0.128313,-0.00972 0.130176,-0.00962 0.132062,-0.00952 0.13397,-0.00942 0.135901,-0.00932 0.137852,-0.00921 0.139828,-0.00911 0.141824,-0.00899 0.143843,-0.00888 0.145884,-0.00877 0.147947,-0.00866 0.150034,-0.00854 0.15214,-0.00842 0.154271,-0.0083 0.156423,-0.00818 0.158597,-0.00805 0.160793,-0.00792 0.163013,-0.00779 0.165253,-0.00766 0.167516,-0.00753 0.169801,-0.0074 0.172109,-0.00726 0.174439,-0.00712 0.17679,-0.00698 0.179164,-0.00684 0.09048,-0.00336 0.09108,-0.00333 0.09169,-0.00329 0.09229,-0.00326 0.0929,-0.00322 0.09352,-0.00318 0.09413,-0.00314 0.09475,-0.0031 0.09537,-0.00307 0.096,-0.00303 0.09662,-0.00299 0.09725,-0.00295 0.09788,-0.00291 0.09852,-0.00287 0.09916,-0.00283 0.0998,-0.00279 0.100441,-0.00275 0.101088,-0.00271 0.101736,-0.00267 0.102389,-0.00263 0.103042,-0.00259 0.1037,-0.00255 0.10436,-0.00251 0.105023,-0.00247 0.105689,-0.00242 0.106357,-0.00238 0.107028,-0.00234 0.107702,-0.0023 0.108379,-0.00225 0.109058,-0.00221 0.10974,-0.00217 0.110426,-0.00212 0.111113,-0.00208 0.111804,-0.00204 0.112497,-0.00199 0.113194,-0.00195 0.113892,-0.0019 0.114594,-0.00186 0.115299,-0.00181 0.116005,-0.00177 0.116716,-0.00172 0.117428,-0.00167 0.118144,-0.00163 0.118862,-0.00158 0.119584,-0.00153 0.120307,-0.00149 0.121034,-0.00144 0.121763,-0.00139 0.122496,-0.00134 0.12323,-0.00129 0.123968,-0.00125 0.124709,-0.0012 0.125452,-0.00115 0.126198,-0.0011 0.126947,-0.00105 0.127698,-0.001 0.128453,-9.512e-4 0.12921,-9.011e-4 0.12997,-8.508e-4 0.130732,-8.002e-4 0.131498,-7.495e-4 0.132266,-6.984e-4 0.133038,-6.472e-4 0.133811,-5.956e-4 0.134587,-5.439e-4 0.135367,-4.919e-4 0.136149,-4.396e-4 0.136934,-3.872e-4 0.137722,-3.344e-4 0.138512,-2.814e-4 0.139305,-2.282e-4 0.140102,-1.747e-4 0.1409,-1.21e-4 0.0709,-3.44e-5 0.07247,4.82e-5 0.07428,1.824e-4 0.07605,3.599e-4 0.07779,5.808e-4 0.07948,8.45e-4 0.08115,0.00115 0.08277,0.0015 0.08436,0.0019 0.08591,0.00233 0.08742,0.00282 0.08889,0.00334 0.09033,0.00391 0.09173,0.00452 0.0931,0.00517 0.09443,0.00587 0.09572,0.00661 0.09697,0.00739 0.09819,0.00822 0.09937,0.00909 0.100511,0.010007 0.101617,0.010965 0.102686,0.011966 0.103718,0.01301 0.104713,0.014097 0.105671,0.015228 0.106538,0.016396 0.106572,0.017504 0.106311,0.018604 0.106025,0.019729 0.105716,0.020878 0.105382,0.022051 0.105023,0.023248 0.104642,0.024469 0.104235,0.025714 0.103804,0.026983 0.103349,0.028276 0.102871,0.029593 0.102367,0.030934 0.101839,0.032299 0.101288,0.033688 0.100712,0.035101 0.100112,0.036539 0.09949,0.038 0.09884,0.039485 0.09817,0.040995 0.09747,0.042528 0.09675,0.044085 0.096,0.045667 0.09523,0.047273 0.09444,0.048902 0.09355,0.050515 0.09228,0.051927 0.09096,0.053311 0.08964,0.054695 0.08833,0.056082 0.08702,0.057469 0.08573,0.058859 0.08443,0.060249 0.08314,0.061642 0.08186,0.063036 0.08058,0.064431 0.07931,0.065829 0.07804,0.067227 0.07678,0.068627 0.07553,0.070029 0.07428,0.071433 0.07303,0.072837 0.0718,0.074244 0.07056,0.075652 0.06933,0.077062 0.06811,0.078473 0.0669,0.079885 0.06564,0.081236 0.06412,0.082237 0.06258,0.083163 0.06107,0.084062 0.05957,0.084935 0.0581,0.085781 0.05665,0.086602 0.05522,0.087396 0.05381,0.088163 0.05242,0.088904 0.05105,0.089619 0.04971,0.090308 0.04838,0.09097 0.04708,0.091606 0.04579,0.092216 0.04453,0.092799 0.04329,0.093355 0.04207,0.093886 0.04087,0.09439 0.03969,0.094868 0.03854,0.095319 0.0374,0.095744 0.03629,0.096143 0.03519,0.096515 0.03412,0.096862 0.03307,0.097181 0.03204,0.097475 0.03103,0.097742 0.03007,0.098067 0.02925,0.098795 0.02845,0.099575 0.02766,0.1003496 0.02688,0.1011198 0.0261,0.1018851 0.02533,0.1026457 0.02457,0.1034016 0.02382,0.1041527 0.02307,0.1048991 0.02233,0.1056406 0.0216,0.1063774 0.02088,0.1071095 0.02016,0.1078369 0.01945,0.1085594 0.01874,0.1092772 0.01805,0.1099902 0.01736,0.1106985 0.01668,0.111402 0.01601,0.1121008 0.01534,0.1127949 0.01468,0.113484 0.01403,0.1141686 0.01339,0.1148483 0.01275,0.1155233 0.01212,0.1161935 0.0115,0.116859 0.01089,0.1175197 0.01028,0.1181757 0.0097,0.1188268 0.0091,0.1194733 0.0085,0.120115 0.0079,0.1207519 0.0074,0.1213841 0.0068,0.1220115 0.0062,0.122634 0.0057,0.123252 0.0051,0.123865 0.0046,0.124474 0.0041,0.125077 0.0036,0.125676 0.0031,0.12627 0.0026,0.126859 0.0021,0.127444 0.0016,0.128024 0.0011,0.128744 3.79e-4,0.06512 2.68e-4,0.06571 1.8e-4,0.133167 -3.31e-4,0.135401 -8.85e-4,0.13753 -0.0015,0.139555 -0.0021,0.141473 -0.0028,0.143288 -0.0035,0.144998 -0.0043,0.146603 -0.0051,0.148104 -0.006,0.149499 -0.0069,0.150789 -0.0078,0.151976 -0.0088,0.153056 -0.0098,0.154033 -0.01089,0.154905 -0.012,0.155671 -0.01316,0.156333 -0.01436,0.156891 -0.01561,0.157343 -0.01689,0.15769 -0.01822,0.157934 -0.01959,0.158071 -0.02101,0.158105 -0.02247,0.158033 -0.02397,0.157858 -0.02552,0.157575 -0.02711,0.157191 -0.02874,0.156699 -0.03041,0.156104 -0.03213,0.155404 -0.03389,0.154599 -0.03569,0.153689 -0.03754,0.152675 -0.03943,0.151555 -0.04136,0.150338 -0.04343,0.149456 -0.04561,0.148737 -0.02364,0.07407 -0.0242,0.07386 -0.02477,0.07364 -0.02535,0.0734 -0.02594,0.07316 -0.02653,0.0729 -0.02713,0.07264 -0.02773,0.07236 -0.02835,0.07208 -0.02897,0.07178 -0.0296,0.07147 -0.03023,0.07115 -0.03087,0.07082 -0.03152,0.07048 -0.03217,0.07013 -0.03283,0.06977 -0.0335,0.06939 -0.03418,0.06901 -0.03486,0.06862 -0.03555,0.06821 -0.03625,0.0678 -0.03695,0.06737 -0.03766,0.06693 -0.03838,0.06648 -0.0391,0.06602 -0.03983,0.06556 -0.04057,0.06508 -0.04132,0.06459 -0.04207,0.06408 -0.04283,0.06357 -0.04359,0.06304 -0.04425,0.06236 -0.04487,0.06162 -0.0455,0.06089 -0.04613,0.06016 -0.04676,0.05942 -0.04739,0.05869 -0.04803,0.05796 -0.04866,0.05723 -0.0493,0.05649 -0.04994,0.05576 -0.05058,0.05503 -0.05123,0.0543 -0.05187,0.05357 -0.05252,0.05284 -0.05317,0.05211 -0.05382,0.05138 -0.05447,0.05065 -0.05513,0.04992 -0.05578,0.04919 -0.05644,0.04846 -0.0571,0.04773 -0.05776,0.047 -0.05843,0.04627 -0.05909,0.04554 -0.05976,0.04482 -0.06043,0.04409 -0.0611,0.04336 -0.06177,0.04263 -0.06245,0.04191 -0.06311,0.04117 -0.06356,0.04031 -0.06395,0.03941 -0.06433,0.03853 -0.0647,0.03766 -0.06506,0.03679 -0.06542,0.03594 -0.06577,0.0351 -0.06611,0.03426 -0.06644,0.03343 -0.06676,0.03262 -0.06708,0.03181 -0.06739,0.03102 -0.06769,0.03023 -0.06799,0.02945 -0.06827,0.02869 -0.06855,0.02793 -0.06882,0.02718 -0.06908,0.02644 -0.06934,0.02572 -0.06959,0.025 -0.06982,0.02429 -0.07005,0.02359 -0.07028,0.0229 -0.0705,0.02222 -0.07071,0.02155 -0.0709,0.02089 -0.0711,0.02024 -0.07128,0.0196 -0.07146,0.01896 -0.07163,0.01834 -0.07179,0.01773 -0.07195,0.01713 -0.07209,0.01653 -0.144598,0.03133 -0.145091,0.02907 -0.07258,0.01369 -0.07231,0.0131 -0.07203,0.01252 -0.07173,0.01196 -0.07141,0.01141 -0.07108,0.01087 -0.07073,0.01034 -0.07037,0.0098 -0.06999,0.0093 -0.06959,0.0088 -0.06919,0.0084 -0.06876,0.0079 -0.06832,0.0075 -0.06786,0.007 -0.06739,0.0066 -0.0669,0.0062 -0.0664,0.0058 -0.06588,0.0054 -0.06534,0.005 -0.06479,0.0047 -0.06423,0.0043 -0.06364,0.004 -0.06305,0.0037 -0.06243,0.0034 -0.0618,0.0031 -0.06116,0.0028 -0.0605,0.0025 -0.05982,0.0023 -0.05913,0.0021 -0.05843,0.0018 -0.0577,0.0016 -0.05696,0.0014 -0.05621,0.0012 -0.05544,10e-4 -0.05466,8.79e-4 -0.05385,7.29e-4 -0.05304,5.92e-4 -0.05221,4.68e-4 -0.05136,3.57e-4 z"
       fill="rgb(255,255,255)"
       stroke="rgb(0,0,0)"
       stroke-width="0.0010cm"
       stroke-linecap="round"
       stroke-linejoin="round"
       id="path6024"
       style="fill:none;stroke:#ff6400;stroke-width:0.2;stroke-dasharray:none;stroke-opacity:1" /><path
       d="m 40.0335,2 a 0.55,0.55 0 1 0 1.1,0 0.55,0.55 0 1 0 -1.1,0 z"
       fill="rgb(255,255,255)"
       stroke="rgb(0,0,0)"
       stroke-width="0.0010cm"
       stroke-linecap="round"
       stroke-linejoin="round"
       id="path6026"
       style="fill:none;stroke:#ff6400;stroke-width:0.2;stroke-dasharray:none;stroke-opacity:1" /><path
       d="m 7.5335,21 a 0.55,0.55 0 1 0 1.1,0 0.55,0.55 0 1 0 -1.1,0 z"
       fill="rgb(255,255,255)"
       stroke="rgb(0,0,0)"
       stroke-width="0.0010cm"
       stroke-linecap="round"
       stroke-linejoin="round"
       id="path6028"
       style="fill:none;stroke:#ff6400;stroke-width:0.2;stroke-dasharray:none;stroke-opacity:1" /><path
       d="m 40.0335,21 a 0.55,0.55 0 1 0 1.1,0 0.55,0.55 0 1 0 -1.1,0 z"
       fill="rgb(255,255,255)"
       stroke="rgb(0,0,0)"
       stroke-width="0.0010cm"
       stroke-linecap="round"
       stroke-linejoin="round"
       id="path6030"
       style="fill:none;stroke:#ff6400;stroke-width:0.2;stroke-dasharray:none;stroke-opacity:1" /><path
       d="m 7.5335,2 a 0.55,0.55 0 1 0 1.1,0 0.55,0.55 0 1 0 -1.1,0 z"
       fill="rgb(255,255,255)"
       stroke="rgb(0,0,0)"
       stroke-width="0.0010cm"
       stroke-linecap="round"
       stroke-linejoin="round"
       id="path6032"
       style="fill:none;stroke:#ff6400;stroke-width:0.2;stroke-dasharray:none;stroke-opacity:1" /></g><g
     id="g561"
     transform="translate(3.0188251,22.278695)"
     style="stroke-width:0.01;stroke-dasharray:none;stroke:#ff9600;stroke-opacity:1"><path
       d="m 1,-1.36 v -0.07 h 1.2 v 0.07 H 2.19 v 0 l -0.015755,4.346e-4 -0.015409,0.0013 -0.015063,0.00217 -0.014719,0.00304 -0.014376,0.0039 -0.014035,0.00476 -0.013696,0.00561 -0.01336,0.00646 -0.013027,0.00731 -0.012698,0.00815 -0.012372,0.00898 -0.01205,0.00981 -0.011733,0.010625 -0.011421,0.011434 -0.011114,0.012235 -0.010812,0.013026 -0.010516,0.013807 -0.010226,0.014578 -0.00994,0.015338 -0.00967,0.016087 -0.0094,0.016825 -0.00913,0.01755 -0.00888,0.018263 -0.00863,0.018963 -0.00839,0.019649 -0.00816,0.020323 -0.00794,0.020983 -0.00772,0.021628 -0.00751,0.022259 -0.00732,0.022876 -0.00713,0.0234777 -0.00695,0.0240644 -0.013408,0.0498265 -0.012814,0.0519852 -0.012301,0.0540143 -0.011874,0.0559107 -0.011534,0.0576715 -0.011285,0.0592938 -0.011128,0.0607755 -0.011065,0.0621142 -0.0111,0.0633083 L 1.723105,-0.3648282 1.711636,-0.2995718 1.69983,-0.2335635 1.687583,-0.1669527 1.674789,-0.0998894 1.661341,-0.0325242 1.647132,0.034992 1.632051,0.1025082 1.615989,0.1698734 1.598834,0.2369367 1.580475,0.3035475 1.560799,0.3695558 1.539693,0.4348122 1.517044,0.4991683 1.492738,0.5624766 1.466661,0.6245908 1.438701,0.6853663 1.423979,0.7152073 1.408744,0.7446601 1.392982,0.7737074 1.376679,0.8023316 1.359821,0.8305156 1.342394,0.8582423 1.324385,0.8854949 1.30578,0.9122566 1.286566,0.938511 1.266729,0.9642418 1.246256,0.9894328 1.225134,1.0140683 l -0.021783,0.024064 -0.022458,0.023478 -0.023145,0.022876 -0.023844,0.022259 -0.024556,0.021628 -0.02528,0.020983 -0.026015,0.020323 -0.026763,0.01965 -0.027521,0.018963 -0.0282911,0.018263 -0.0290718,0.01755 -0.0298631,0.016825 -0.0306649,0.016087 -0.0314765,0.015338 -0.0322978,0.014578 -0.0331286,0.013807 -0.0339682,0.013026 -0.0348165,0.012235 -0.0356728,0.011434 -0.0365369,0.010625 -0.0374084,0.00981 -0.0382865,0.00898 -0.039171,0.00815 -0.0400613,0.00731 -0.040957,0.00646 -0.0418575,0.00561 -0.042762,0.00476 -0.0436702,0.0039 -0.0445815,0.00304 -0.0454951,0.00217 -0.0464106,0.0013 L 0.14,1.43 v 0 l -0.0144286,-2.3e-4 -0.0129233,-6.755e-4 -0.0115818,-0.0011 -0.0103757,-0.00153 -0.0092815,-0.00194 -0.0082793,-0.00236 -0.007353,-0.0028 -0.0064877,-0.00324 -0.005671,-0.00371 -0.0048914,-0.0042 -0.004138,-0.00473 -0.0034009,-0.0053 L 0.0385183,1.3922478 0.0365847,1.3856296 0.0354025,1.3782449 0.035,1.37 a 0.035,0.035 0 0 0 -0.07,0 v 0 l -4.025e-4,0.00824 -0.0011822,0.00738 -0.0019336,0.00662 -0.0026695,0.00593 -0.0034009,0.0053 -0.004138,0.00473 -0.0048914,0.0042 -0.005671,0.00371 -0.0064877,0.00324 -0.007353,0.0028 -0.0082793,0.00236 -0.0092815,0.00194 -0.0103757,0.00153 -0.0115818,0.0011 -0.0129233,6.9e-4 L -0.14,1.43 v 0 l -0.0473271,-4.346e-4 -0.0464106,-0.0013 -0.0454951,-0.00217 -0.0445815,-0.00304 -0.0436702,-0.0039 -0.042762,-0.00476 -0.0418575,-0.00561 -0.040957,-0.00646 -0.0400613,-0.00731 -0.039171,-0.00815 -0.0382865,-0.00898 -0.0374084,-0.00981 -0.0365369,-0.010625 -0.0356728,-0.011434 -0.0348165,-0.012235 -0.0339682,-0.013026 -0.0331286,-0.013807 -0.0322978,-0.014578 -0.0314765,-0.015338 -0.0306649,-0.016087 -0.0298631,-0.016825 -0.0290718,-0.01755 -0.0282911,-0.018263 -0.027521,-0.018963 -0.026763,-0.01965 -0.026015,-0.020323 -0.02528,-0.020983 -0.024556,-0.021628 -0.023844,-0.022259 -0.023145,-0.022876 -0.022458,-0.023478 -0.021783,-0.024064 -0.021122,-0.0246355 -0.020473,-0.025191 -0.019837,-0.0257308 -0.019214,-0.0262544 -0.018605,-0.0267617 -0.018009,-0.0272526 -0.017427,-0.0277267 -0.016858,-0.028184 -0.016303,-0.0286242 -0.015762,-0.0290473 -0.015235,-0.0294528 -0.014722,-0.029841 -0.02796,-0.0607755 -0.026077,-0.0621142 -0.024306,-0.0633083 -0.022649,-0.0643561 -0.021106,-0.0652564 -0.019676,-0.0660083 -0.018359,-0.0666108 -0.017155,-0.0670633 -0.016062,-0.0673652 -0.015081,-0.0675162 -0.014209,-0.0675162 -0.013448,-0.0673652 -0.012794,-0.0670633 -0.012247,-0.0666108 -0.011806,-0.0660083 -0.011469,-0.0652564 -0.011234,-0.0643561 -0.0111,-0.0633083 -0.011065,-0.0621142 -0.011128,-0.0607755 -0.011285,-0.0592938 -0.011534,-0.0576715 -0.011874,-0.0559107 -0.012301,-0.0540143 -0.012814,-0.0519852 -0.013408,-0.0498265 -0.00695,-0.0240644 -0.00713,-0.0234777 -0.00732,-0.022876 -0.00751,-0.022259 -0.00772,-0.021628 -0.00794,-0.020983 -0.00816,-0.020323 -0.00839,-0.019649 -0.00863,-0.018963 -0.00888,-0.018263 -0.00913,-0.01755 -0.0094,-0.016825 -0.00967,-0.016087 -0.00994,-0.015338 -0.010226,-0.014578 -0.010516,-0.013807 -0.010812,-0.013026 -0.011114,-0.012235 -0.011421,-0.011434 -0.011733,-0.010625 -0.01205,-0.00981 -0.012372,-0.00898 -0.012698,-0.00815 -0.013027,-0.00731 -0.01336,-0.00646 -0.013696,-0.00561 -0.014035,-0.00476 -0.014376,-0.0039 -0.014719,-0.00304 -0.015063,-0.00217 -0.015409,-0.0013 L -2.19,-1.36 H -2.2 V -1.43 H -1 v 0.07 h -0.01 v 0 l -0.030531,5.793e-4 -0.028694,0.00174 -0.026863,0.00289 -0.025041,0.00403 -0.023234,0.00515 -0.021443,0.00626 -0.019671,0.00735 -0.017922,0.00842 -0.016196,0.00946 -0.014497,0.010475 -0.012826,0.011458 -0.011184,0.012408 -0.00957,0.013324 -0.00799,0.014204 -0.00645,0.015045 -0.00493,0.015847 -0.00345,0.016609 -0.002,0.017328 -5.824e-4,0.018005 8.005e-4,0.018637 0.00215,0.019224 0.00347,0.019765 0.00475,0.020258 0.006,0.020705 0.00723,0.021103 0.00842,0.021452 0.00958,0.021752 0.010711,0.0220028 0.011816,0.0222036 0.012894,0.0223544 0.013947,0.0224551 0.014976,0.0225054 0.015981,0.0225054 0.016964,0.0224551 0.017926,0.0223544 0.018869,0.0222036 0.019792,0.0220028 0.020699,0.0217521 0.021588,0.021452 0.022464,0.0211028 0.023325,0.0207047 0.0241748,0.0202585 0.0250129,0.0197646 0.0258411,0.0192239 0.0266604,0.0186369 0.0274718,0.0180047 0.0282766,0.0173284 0.0290755,0.0166089 0.0298696,0.0158473 0.0306599,0.0150452 0.031447,0.0142035 0.032232,0.0133242 0.0330156,0.0124084 0.0337985,0.0114582 0.0345812,0.0104752 0.0353644,0.009462 0.0361483,0.00842 0.0369335,0.007353 0.0377198,0.006263 0.0385076,0.005153 0.0392968,0.004026 0.0400872,0.002886 0.0408788,0.001736 L -0.25,-0.43 h 0.5 v 0 l 0.041671,-5.793e-4 0.0408788,-0.001736 0.0400872,-0.002886 0.0392968,-0.004026 0.0385076,-0.005153 0.0377198,-0.006263 0.0369335,-0.007353 0.0361483,-0.00842 0.0353644,-0.009462 0.0345812,-0.0104752 0.0337985,-0.0114582 0.0330156,-0.0124084 0.032232,-0.0133242 0.031447,-0.0142035 0.0306599,-0.0150452 0.0298696,-0.0158473 0.0290755,-0.0166089 0.0282766,-0.0173284 0.0274718,-0.0180047 0.0266604,-0.0186369 0.0258411,-0.0192239 0.0250129,-0.0197646 0.0241748,-0.0202585 0.023325,-0.0207047 0.022464,-0.0211028 0.021588,-0.021452 0.020699,-0.0217521 0.019792,-0.0220028 0.018869,-0.0222036 0.017926,-0.0223544 0.016964,-0.0224551 0.015981,-0.0225054 0.014976,-0.0225054 0.013947,-0.0224551 0.012894,-0.0223544 0.011816,-0.0222036 0.010711,-0.0220028 0.00958,-0.021752 0.00842,-0.021452 0.00723,-0.021103 0.006,-0.020705 0.00475,-0.020258 0.00347,-0.019765 0.00215,-0.019224 8.005e-4,-0.018637 -5.824e-4,-0.018005 -0.002,-0.017328 -0.00345,-0.016609 -0.00493,-0.015847 -0.00645,-0.015045 -0.00799,-0.014204 -0.00957,-0.013324 -0.011184,-0.012408 -0.012826,-0.011458 -0.014497,-0.010475 -0.016196,-0.00946 -0.017922,-0.00842 -0.019671,-0.00735 -0.021443,-0.00626 -0.023234,-0.00515 -0.025041,-0.00403 -0.026863,-0.00289 -0.028694,-0.00174 L 1.01,-1.36 Z"
       transform="matrix(1,0,0,-1,2.2,1.43)"
       fill="rgb(0,0,0)"
       stroke-linecap="round"
       stroke-linejoin="round"
       id="path2692"
       style="fill:none;stroke:#ff9600;stroke-width:0.01;stroke-dasharray:none;stroke-opacity:1" /><path
       d="M 0.23,0.6200001 V 0.45 v 0 L 0.2297672,0.4417668 0.2290362,0.4328555 0.227758,0.4232593 0.2258853,0.4129808 0.2233736,0.4020341 0.220183,0.390446 0.2162802,0.3782576 0.2116405,0.365525 0.2062494,0.35232 0.2001048,0.3387299 0.1932181,0.3248563 0.1856153,0.310814 0.1773379,0.2967278 0.1684417,0.2827299 0.1490858,0.2555403 0.1388005,0.2426127 0.1282404,0.2302934 0.1175087,0.2186897 0.1067093,0.207893 0.0959435,0.1979765 0.0853071,0.1889938 0.074888,0.1809791 0.0647642,0.1739472 0.0550025,0.1678954 0.045658,0.1628048 0.0367738,0.1586431 0.0283814,0.155367 0.0205012,0.1529243 0.0131441,0.1512571 0.0063121,0.1503036 0,0.15 v 0 l -0.0063121,3.036e-4 -0.006832,9.535e-4 -0.0073571,0.001667 -0.0078802,0.002443 -0.0083924,0.003276 -0.0088842,0.004162 -0.0093445,0.005091 -0.0097617,0.006052 -0.0101238,0.007032 -0.0104191,0.008015 -0.0106364,0.008983 -0.0107658,0.009916 -0.0107994,0.0107967 -0.0107317,0.0116037 -0.0105601,0.0123193 -0.0102853,0.0129276 -0.0193559,0.0271896 -0.008896,0.0139979 -0.008277,0.0140862 -0.007603,0.0140423 -0.006887,0.0138736 -0.006145,0.0135901 -0.005391,0.013205 -0.00464,0.0127326 -0.003903,0.0121884 -0.003191,0.0115881 -0.002512,0.0109467 -0.001873,0.0102785 -0.001278,0.009596 -7.31e-4,0.008911 L -0.23,0.45 v 0.1700001 0 l 5.46e-5,0.008786 1.578e-4,0.008114 5.959e-4,0.014495 9.317e-4,0.0125642 0.001234,0.01099 0.001514,0.009689 0.001779,0.008602 0.002036,0.007683 0.002289,0.006899 0.002544,0.006224 0.002803,0.005638 0.006424,0.009802 0.007614,0.008196 0.00898,0.006912 0.0105978,0.005856 0.012568,0.004965 0.007169,0.002186 0.00786,0.002003 0.008645,0.001828 0.009543,0.001659 0.0105776,0.001493 0.0117801,0.001328 0.0131892,0.001161 0.0148569,9.875e-4 0.0168513,8.05e-4 0.0093001,3.297e-4 0.009965,2.78e-4 0.0107023,2.234e-4 0.0115233,1.652e-4 0.0124413,1.029e-4 L 0,0.7700001 v 0 l 0.0134719,-3.56e-5 0.0124413,-1.029e-4 0.0115233,-1.652e-4 0.0107023,-2.234e-4 0.009965,-2.78e-4 0.0093001,-3.297e-4 0.0168513,-8.05e-4 0.0148569,-9.875e-4 0.0131892,-0.001161 0.0117801,-0.001328 0.0105776,-0.001493 0.009543,-0.001659 0.008645,-0.001828 0.00786,-0.002003 0.007169,-0.002186 0.012568,-0.004965 0.0105978,-0.005856 0.00898,-0.006912 0.007614,-0.008196 0.006424,-0.009802 0.002803,-0.005638 0.002544,-0.006224 0.002289,-0.006899 0.002036,-0.007683 0.001779,-0.008602 0.001514,-0.009689 0.001234,-0.01099 9.317e-4,-0.0125642 5.959e-4,-0.014495 1.578e-4,-0.008114 z"
       transform="matrix(1,0,0,-1,2.2,1.43)"
       fill="rgb(255,255,255)"
       stroke="rgb(0,0,0)"
       stroke-width="0.0010cm"
       stroke-linecap="round"
       stroke-linejoin="round"
       id="path2694"
       style="fill:none;stroke:#ff9600;stroke-width:0.01;stroke-dasharray:none;stroke-opacity:1" /></g><g
     id="g719"
     transform="rotate(180,5.2738085,7.4999959)"
     style="stroke-width:0.01;stroke-dasharray:none;stroke:#ff9600;stroke-opacity:1"><path
       d="m -1.8883613,1.2035582 v 0 l 0.027502,-0.1296896 0.026262,-0.1310788 0.025035,-0.1324545 0.02383,-0.1338081 0.022655,-0.1351316 0.021516,-0.1364171 0.020423,-0.1376572 0.019382,-0.1388444 0.018399,-0.1399721 0.017482,-0.1410335 0.016637,-0.1420224 0.015869,-0.1429327 0.015185,-0.1437586 0.01459,-0.144495 0.01409,-0.1451363 0.013689,-0.1456779 0.026596,-0.292557 0.026304,-0.2934073 0.026975,-0.2932956 0.014058,-0.1462874 0.014617,-0.1458698 0.015314,-0.1453146 0.016153,-0.1446183 0.017137,-0.143778 0.01827,-0.1427903 0.019554,-0.1416524 0.020994,-0.1403618 0.02259,-0.1389156 0.011943,-0.068866 0.012403,-0.068446 0.012882,-0.068004 0.013382,-0.067543 0.013903,-0.067062 0.014444,-0.06656 0.015006,-0.066038 0.015589,-0.065495 0.016194,-0.064931 0.016819,-0.064347 0.017466,-0.063741 0.018134,-0.063115 0.018823,-0.062467 0.019534,-0.061799 0.020266,-0.061109 0.021021,-0.060398 0.021797,-0.059666 0.022594,-0.058912 0.023414,-0.058138 0.024255,-0.057341 0.025118,-0.056524 0.0260028,-0.055685 0.0269095,-0.054825 0.0278378,-0.053943 0.0287877,-0.05304 0.0297594,-0.052117 0.0307524,-0.051172 0.031767,-0.050206 0.0328027,-0.04922 0.0338596,-0.048213 0.0349376,-0.047185 0.0360364,-0.046138 0.0371559,-0.045069 0.0382958,-0.043981 0.0394561,-0.042873 0.0406365,-0.041746 0.0418366,-0.040599 0.0430563,-0.039434 0.0442955,-0.038249 0.0455536,-0.037046 0.0468305,-0.035824 0.0481259,-0.034585 0.0494394,-0.033328 0.0507707,-0.032054 0.0521193,-0.030762 0.0534848,-0.029455 0.054867,-0.028131 0.056265,-0.026792 0.0576786,-0.025437 0.0591071,-0.024068 0.06055,-0.022686 0.0620065,-0.02129 0.0634763,-0.019881 0.0649583,-0.01846 0.0664521,-0.017028 0.0679568,-0.015585 0.0694719,-0.014132 0.0709961,-0.01267 0.072529,-0.0112 0.0740696,-0.00972 0.0756169,-0.00824 0.0771702,-0.00675 0.078728,-0.00525 0.08029,-0.00376 0.081855,-0.00225 0.083422,-7.518e-4 h 5.7 v 0.5 h -4.7 v 0 l -0.030839,8.79e-4 -0.030146,0.00264 -0.029454,0.00439 -0.028764,0.00614 -0.028075,0.00789 -0.027388,0.00963 -0.026704,0.011358 -0.026023,0.01308 -0.025345,0.014792 -0.024671,0.016493 -0.024001,0.018181 -0.023335,0.019855 -0.022674,0.021515 -0.022018,0.023159 -0.021368,0.024785 -0.020723,0.026395 -0.020084,0.027985 -0.019451,0.029556 -0.018824,0.031106 -0.018205,0.032636 -0.017592,0.034143 -0.016986,0.035627 -0.016388,0.037088 -0.015797,0.038525 -0.015214,0.039937 -0.014638,0.041324 -0.01407,0.042685 -0.013511,0.044019 -0.01296,0.045327 -0.012417,0.046607 -0.011882,0.047859 -0.011356,0.049083 -0.010838,0.050278 -0.010329,0.051444 -0.00983,0.052581 -0.00934,0.053687 -0.00886,0.054763 -0.00838,0.055809 -0.00792,0.056823 -0.00746,0.057806 -0.00702,0.058757 -0.00658,0.059677 -0.00615,0.060564 -0.00573,0.061419 -0.00532,0.062242 -0.00492,0.063031 -0.00453,0.063788 -0.00415,0.064511 -0.00378,0.065201 -0.00342,0.065858 -0.00306,0.066481 -0.00272,0.06707 -0.00238,0.067626 -0.00206,0.068147 -0.00317,0.1377237 -0.00197,0.1394025 -8.455e-4,0.1408089 2.097e-4,0.1419427 0.0012,0.1428036 0.00211,0.1433924 0.00296,0.1437094 0.00374,0.1437559 0.00446,0.1435329 0.00511,0.143042 0.0057,0.1422853 0.00623,0.1412648 0.0067,0.139983 0.00711,0.138443 0.00747,0.1366478 0.00776,0.1346016 0.00398,0.0664561 0.00403,0.0658523 0.00408,0.0652184 0.00412,0.0645547 0.00416,0.0638616 0.00419,0.0631393 0.00421,0.0623884 0.00423,0.0616092 0.00424,0.0608018 0.00425,0.0599672 0.00425,0.0591052 0.00425,0.0582168 0.00424,0.0573021 0.00422,0.0563616 0.00421,0.0553959 0.00418,0.0544055 0.00415,0.0533909 0.00412,0.0523525 0.00408,0.051291 0.00404,0.050207 0.004,0.049101 0.00395,0.0479738 0.00389,0.0468258 0.00384,0.045658 0.00378,0.0444709 0.00371,0.0432656 0.00365,0.0420424 0.00358,0.0408026 0.0035,0.0395467 0.00343,0.0382759 0.00335,0.0369908 0.00327,0.0356926 0.00319,0.0343821 0.0031,0.0330604 0.00302,0.0317286 0.00293,0.0303875 0.00284,0.0290385 0.00275,0.0276826 0.00266,0.026321 0.00257,0.0249547 0.00248,0.0235851 0.00238,0.0222135 0.1943989,1.7894717 A 2.121,2.121 -6.2 1 1 -2.1866039,2.571422 Z"
       fill="rgb(0,0,0)"
       stroke-linecap="round"
       stroke-linejoin="round"
       id="path3550"
       style="fill:none;stroke:#ff9600;stroke-width:0.01;stroke-dasharray:none;stroke-opacity:1"
       transform="matrix(1,0,0,-1,2.2352902,5.1442594)" /><path
       d="m -0.3142902,3.0232594 a 0.2,0.2 0 1 1 0.4,0 0.2,0.2 0 1 1 -0.4,0 z"
       transform="matrix(1,0,0,-1,2.2352902,5.1442594)"
       fill="rgb(255,255,255)"
       stroke="rgb(0,0,0)"
       stroke-width="0.0010cm"
       stroke-linecap="round"
       stroke-linejoin="round"
       id="path3552"
       style="fill:none;stroke:#ff9600;stroke-width:0.01;stroke-dasharray:none;stroke-opacity:1" /></g><g
     id="g11082"
     transform="translate(3.3920751,26.621551)"
     style="stroke-width:0.01;stroke-dasharray:none;stroke:#ff9600;stroke-opacity:1"><path
       d="m -1.25,1.352 v -1.976 h 2.5 v 1.976 z"
       transform="matrix(1,0,0,-1,1.25,1.352)"
       fill="rgb(0,0,0)"
       stroke-linecap="round"
       stroke-linejoin="round"
       id="path10590"
       style="fill:none;stroke:#ff9600;stroke-width:0.01;stroke-dasharray:none;stroke-opacity:1" /><path
       d="m -0.26,0.364 a 0.26,0.26 0 1 1 0.52,0 0.26,0.26 0 1 1 -0.52,0 z"
       transform="matrix(1,0,0,-1,1.25,1.352)"
       fill="rgb(255,255,255)"
       stroke="rgb(0,0,0)"
       stroke-width="0.0010cm"
       stroke-linecap="round"
       stroke-linejoin="round"
       id="path10592"
       style="fill:none;stroke:#ff9600;stroke-width:0.01;stroke-dasharray:none;stroke-opacity:1" /></g><g
     id="g12010"
     transform="translate(2.3953251,17.848663)"
     style="stroke-width:0.01;stroke-dasharray:none;stroke:#ff9600;stroke-opacity:1"><path
       d="M -3.8185,-1.67 H 1.115 v 3.34 h -4.9335 z"
       transform="matrix(1,0,0,-1,3.8185,1.67)"
       fill="rgb(0,0,0)"
       stroke-linecap="round"
       stroke-linejoin="round"
       id="path1482"
       style="fill:none;stroke:#ff9600;stroke-width:0.01;stroke-dasharray:none;stroke-opacity:1" /><path
       d="m -3.16,0.9 a 0.075,0.075 0 1 1 0.15,0 0.075,0.075 0 1 1 -0.15,0 z"
       transform="matrix(1,0,0,-1,3.8185,1.67)"
       fill="rgb(255,255,255)"
       stroke="rgb(0,0,0)"
       stroke-width="0.0010cm"
       stroke-linecap="round"
       stroke-linejoin="round"
       id="path1484"
       style="fill:none;stroke:#ff9600;stroke-width:0.01;stroke-dasharray:none;stroke-opacity:1" /><path
       d="m 0.44,1.05 a 0.075,0.075 0 1 1 0.15,0 0.075,0.075 0 1 1 -0.15,0 z"
       transform="matrix(1,0,0,-1,3.8185,1.67)"
       fill="rgb(255,255,255)"
       stroke="rgb(0,0,0)"
       stroke-width="0.0010cm"
       stroke-linecap="round"
       stroke-linejoin="round"
       id="path1486"
       style="fill:none;stroke:#ff9600;stroke-width:0.01;stroke-dasharray:none;stroke-opacity:1" /><path
       d="m -3.16,-0.9 a 0.075,0.075 0 1 1 0.15,0 0.075,0.075 0 1 1 -0.15,0 z"
       transform="matrix(1,0,0,-1,3.8185,1.67)"
       fill="rgb(255,255,255)"
       stroke="rgb(0,0,0)"
       stroke-width="0.0010cm"
       stroke-linecap="round"
       stroke-linejoin="round"
       id="path1488"
       style="fill:none;stroke:#ff9600;stroke-width:0.01;stroke-dasharray:none;stroke-opacity:1" /><path
       d="m 0.44,-1.05 a 0.075,0.075 0 1 1 0.15,0 0.075,0.075 0 1 1 -0.15,0 z"
       transform="matrix(1,0,0,-1,3.8185,1.67)"
       fill="rgb(255,255,255)"
       stroke="rgb(0,0,0)"
       stroke-width="0.0010cm"
       stroke-linecap="round"
       stroke-linejoin="round"
       id="path1490"
       style="fill:none;stroke:#ff9600;stroke-width:0.01;stroke-dasharray:none;stroke-opacity:1" /><path
       d="m -2.855,0 a 0.87,0.87 0 1 1 1.74,0 0.87,0.87 0 1 1 -1.74,0 z"
       transform="matrix(1,0,0,-1,3.8185,1.67)"
       fill="rgb(255,255,255)"
       stroke="rgb(0,0,0)"
       stroke-width="0.0010cm"
       stroke-linecap="round"
       stroke-linejoin="round"
       id="path1492"
       style="fill:none;stroke:#ff9600;stroke-width:0.01;stroke-dasharray:none;stroke-opacity:1" /></g></svg>
