<?xml version="1.0" encoding="UTF-8" standalone="no"?>
<!-- Generator: Fusion 360, Shaper Origin Export Add-In, Version 1.8.0  -->

<svg
   shaper:fusionaddin="version:1.8.0"
   width="50cm"
   height="30cm"
   version="1.1"
   x="0cm"
   y="0cm"
   viewBox="0 0 50 30"
   enable-background="new 0 0 42.3335 23"
   xml:space="preserve"
   id="svg5787"
   sodipodi:docname="mid_006.svg"
   inkscape:version="1.2.2 (732a01da63, 2022-12-09)"
   xmlns:inkscape="http://www.inkscape.org/namespaces/inkscape"
   xmlns:sodipodi="http://sodipodi.sourceforge.net/DTD/sodipodi-0.dtd"
   xmlns="http://www.w3.org/2000/svg"
   xmlns:svg="http://www.w3.org/2000/svg"
   xmlns:shaper="http://www.shapertools.com/namespaces/shaper"><defs
     id="defs5791" /><sodipodi:namedview
     id="namedview5789"
     pagecolor="#505050"
     bordercolor="#eeeeee"
     borderopacity="1"
     inkscape:showpageshadow="0"
     inkscape:pageopacity="0"
     inkscape:pagecheckerboard="0"
     inkscape:deskcolor="#505050"
     inkscape:document-units="cm"
     showgrid="false"
     inkscape:zoom="0.40937339"
     inkscape:cx="778.01833"
     inkscape:cy="504.42947"
     inkscape:window-width="1920"
     inkscape:window-height="991"
     inkscape:window-x="-9"
     inkscape:window-y="-9"
     inkscape:window-maximized="1"
     inkscape:current-layer="svg5787" /><g
     id="g6279"
     transform="translate(3.833174,3.4254588)"><path
       d="m 22.146083,-11.941196 h -0.5 v 1.9760003 h 0.5 v 8.512 a 2,2 0 0 1 -2,2 H 8.8960829 v -0.38 h -0.5 v 0.38 H -11.853917 a 2,2 90 0 1 -2,-2 v -4 0 l -2.3e-5,-0.075526 -6.8e-5,-0.074841 -1.14e-4,-0.07416 -1.59e-4,-0.073483 -2.06e-4,-0.07281 -2.52e-4,-0.07214 -2.98e-4,-0.071474 -3.45e-4,-0.070812 -3.93e-4,-0.070153 -4.39e-4,-0.069499 -4.86e-4,-0.068848 -5.34e-4,-0.0682 -5.81e-4,-0.067557 -6.3e-4,-0.066917 -6.78e-4,-0.066281 -7.26e-4,-0.065648 -7.74e-4,-0.06502 -8.23e-4,-0.064395 -8.72e-4,-0.063773 -9.22e-4,-0.063156 -9.7e-4,-0.062542 -10e-4,-0.061932 -0.0011,-0.061326 -0.0011,-0.060723 -0.0024,-0.1196532 -0.0026,-0.1172875 -0.0028,-0.1149517 -0.003,-0.1126456 -0.0032,-0.1103695 -0.0034,-0.1081231 -0.0036,-0.1059065 -0.0038,-0.1037198 -0.0041,-0.1015628 -0.0043,-0.099436 -0.0045,-0.097338 -0.0047,-0.095271 -0.0049,-0.093234 -0.0051,-0.091226 -0.0054,-0.089248 -0.0056,-0.087299 -0.0058,-0.085381 -0.0061,-0.083493 -0.0063,-0.081634 -0.0065,-0.079805 -0.0067,-0.078006 -0.007,-0.076237 -0.0072,-0.074497 -0.0075,-0.072788 -0.0077,-0.071108 -0.0079,-0.069458 -0.0082,-0.067838 -0.0084,-0.066247 -0.0087,-0.064687 -0.0089,-0.063156 -0.0092,-0.061656 -0.0094,-0.060184 -0.0097,-0.058743 -0.0099,-0.057332 -0.01018,-0.05595 -0.01044,-0.0546 -0.0107,-0.05328 -0.01096,-0.05199 -0.01124,-0.05076 -0.01153,-0.04967 -0.01184,-0.0486 -0.01215,-0.04755 -0.01246,-0.04651 -0.01278,-0.04549 -0.0131,-0.04448 -0.01343,-0.04348 -0.01376,-0.0425 -0.0141,-0.04154 -0.01444,-0.04059 -0.01478,-0.03966 -0.01513,-0.03874 -0.01549,-0.03784 -0.01584,-0.03695 -0.01621,-0.03608 -0.01658,-0.03522 -0.01695,-0.03437 -0.01733,-0.03355 -0.01771,-0.03273 -0.01817,-0.03207 -0.01875,-0.03157 -0.01934,-0.03106 -0.01995,-0.03054 -0.02057,-0.03001 -0.02122,-0.02948 -0.02188,-0.02894 -0.02255,-0.02839 -0.02325,-0.02784 -0.02396,-0.02727 -0.02469,-0.0267 -0.02544,-0.02613 -0.0262,-0.02554 -0.02699,-0.02495 -0.02779,-0.02435 -0.02855,-0.02369 -0.02927,-0.023 -0.03,-0.02232 -0.03075,-0.02165 -0.03151,-0.02098 -0.03228,-0.02032 -0.03307,-0.01966 -0.03387,-0.01902 -0.03469,-0.01838 -0.03552,-0.01774 -0.03636,-0.01712 -0.03722,-0.0165 -0.03809,-0.01589 -0.03897,-0.01528 -0.03987,-0.01469 -0.04078,-0.0141 -0.04172,-0.01352 -0.04276,-0.01297 -0.04384,-0.01243 -0.04494,-0.0119 -0.04606,-0.01136 -0.0472,-0.01083 -0.04837,-0.0103 -0.04955,-0.0098 -0.05076,-0.0092 -0.052,-0.0087 -0.05325,-0.0082 -0.05453,-0.0077 -0.05583,-0.0072 -0.05715,-0.0067 -0.05849,-0.0062 -0.05986,-0.0056 -0.06125,-0.0051 -0.06266,-0.0046 -0.06409,-0.0041 -0.06555,-0.0036 -0.06703,-0.0031 -0.06853,-0.0027 -0.07005,-0.0022 -0.07159,-0.0017 -0.07316,-0.0012 -0.07475,-7.17e-4 -0.07636,-2.39e-4 h -3.3335 v -0.7 h 4.9335 v -0.5 0 l 0.02518,-3.28e-4 0.0251,-9.94e-4 0.02503,-0.0017 0.02494,-0.0024 0.02485,-0.0031 0.02475,-0.0038 0.02464,-0.0046 0.02453,-0.0053 0.02441,-0.0061 0.02421,-0.0069 0.02389,-0.0076 0.02357,-0.0084 0.02325,-0.0091 0.02294,-0.0098 0.02263,-0.01058 0.02232,-0.01131 0.02201,-0.01204 0.0217,-0.01277 0.02128,-0.01343 0.02082,-0.01403 0.02036,-0.01461 0.01991,-0.01517 0.01947,-0.01571 0.01903,-0.01623 0.0186,-0.01672 0.01817,-0.0172 0.0351,-0.03573 0.03348,-0.03738 0.03191,-0.03885 0.03041,-0.04019 0.0295,-0.04215 0.02881,-0.0444 0.02811,-0.04666 0.02742,-0.04893 0.02673,-0.05122 0.01311,-0.02647 0.01294,-0.02705 0.01277,-0.02763 0.0126,-0.02821 0.01243,-0.0288 0.01226,-0.02939 0.01209,-0.02997 0.01192,-0.03056 0.01176,-0.03115 0.01159,-0.03175 0.01142,-0.03234 0.01125,-0.03294 0.01109,-0.03354 0.01092,-0.03414 0.01076,-0.03474 0.01059,-0.03535 0.01042,-0.03596 0.01026,-0.03657 0.0101,-0.03718 0.0099,-0.0378 0.0098,-0.03843 0.0096,-0.03906 0.0095,-0.03969 0.0093,-0.04033 0.0091,-0.04096 0.009,-0.0416 0.0088,-0.04224 0.0087,-0.04289 0.0085,-0.04354 0.0083,-0.04418 0.0082,-0.04483 0.008,-0.04549 0.0079,-0.04615 0.0077,-0.0468 0.0075,-0.04747 0.0074,-0.04813 0.0072,-0.0488 0.0071,-0.04947 0.0069,-0.05014 0.0068,-0.05082 0.0066,-0.05149 0.0064,-0.05217 0.0063,-0.05285 0.0061,-0.05354 0.006,-0.05423 0.0058,-0.05491 0.0057,-0.05561 0.0055,-0.0563 0.0054,-0.057 0.0052,-0.0577 0.005,-0.0584 0.0049,-0.05911 0.0047,-0.05981 0.0046,-0.06052 0.0044,-0.06124 0.0043,-0.06195 0.0041,-0.06267 0.004,-0.06339 0.0038,-0.06411 0.0037,-0.06484 0.0035,-0.06556 0.0034,-0.06629 0.0032,-0.06702 0.0031,-0.06776 0.0029,-0.0685 0.0028,-0.06924 0.0026,-0.06998 0.0025,-0.07073 0.0023,-0.07147 0.0022,-0.07222 0.002,-0.07298 0.0019,-0.07373 0.0017,-0.07449 0.0016,-0.07525 0.0014,-0.07601 0.0013,-0.07678 0.0011,-0.07755 9.61e-4,-0.07832 8.13e-4,-0.07909 6.64e-4,-0.07987 5.17e-4,-0.08065 3.68e-4,-0.08142 2.21e-4,-0.08221 7.4e-5,-0.08299 v -2.2 a 2,2 -180 0 1 2,-2 h 32 a 2,2 -90 0 1 2,2 z"
       transform="matrix(1,0,0,-1,20.187417,0.5468043)"
       fill="rgb(0,0,0)"
       stroke-linecap="round"
       stroke-linejoin="round"
       id="path5775"
       style="fill:none;stroke:#ff0000;stroke-width:0.2;stroke-dasharray:none;stroke-opacity:1" /><path
       d="m -12.653917,-1.4531957 a 0.55,0.55 0 1 1 1.1,0 0.55,0.55 0 1 1 -1.1,0 z"
       transform="matrix(1,0,0,-1,20.187417,0.5468043)"
       fill="rgb(255,255,255)"
       stroke="rgb(0,0,0)"
       stroke-width="0.0010cm"
       stroke-linecap="round"
       stroke-linejoin="round"
       id="path5777"
       style="fill:none;stroke:#ff6400;stroke-width:0.2;stroke-dasharray:none;stroke-opacity:1" /><path
       d="m 19.846083,-20.453196 a 0.55,0.55 0 1 1 1.1,0 0.55,0.55 0 1 1 -1.1,0 z"
       transform="matrix(1,0,0,-1,20.187417,0.5468043)"
       fill="rgb(255,255,255)"
       stroke="rgb(0,0,0)"
       stroke-width="0.0010cm"
       stroke-linecap="round"
       stroke-linejoin="round"
       id="path5779"
       style="fill:none;stroke:#ff6400;stroke-width:0.2;stroke-dasharray:none;stroke-opacity:1" /><path
       d="m -12.653917,-20.453196 a 0.55,0.55 0 1 1 1.1,0 0.55,0.55 0 1 1 -1.1,0 z"
       transform="matrix(1,0,0,-1,20.187417,0.5468043)"
       fill="rgb(255,255,255)"
       stroke="rgb(0,0,0)"
       stroke-width="0.0010cm"
       stroke-linecap="round"
       stroke-linejoin="round"
       id="path5781"
       style="fill:none;stroke:#ff6400;stroke-width:0.2;stroke-dasharray:none;stroke-opacity:1" /><path
       d="m 19.846083,-1.4531957 a 0.55,0.55 0 1 1 1.1,0 0.55,0.55 0 1 1 -1.1,0 z"
       transform="matrix(1,0,0,-1,20.187417,0.5468043)"
       fill="rgb(255,255,255)"
       stroke="rgb(0,0,0)"
       stroke-width="0.0010cm"
       stroke-linecap="round"
       stroke-linejoin="round"
       id="path5783"
       style="fill:none;stroke:#ff6400;stroke-width:0.2;stroke-dasharray:none;stroke-opacity:1" /><path
       d="m -12.188151,-10.953196 v 0 l 4.26e-4,0.15843 0.0013,0.15864 0.0022,0.158764 0.0032,0.158801 0.0042,0.158751 0.0052,0.158616 0.0063,0.1583929 0.0035,0.078984 0.0038,0.078428 0.004,0.077841 0.0043,0.077257 0.0045,0.076677 0.0048,0.0761 0.0051,0.075527 0.0053,0.074958 0.0056,0.074392 0.0058,0.07383 0.0061,0.073271 0.0063,0.072716 0.0066,0.072164 0.0068,0.071616 0.01438,0.1416033 0.01539,0.1394546 0.01638,0.1373347 0.01738,0.1352434 0.01838,0.1331808 0.01938,0.1311469 0.02037,0.1291417 0.02136,0.1271651 0.02236,0.1252173 0.02334,0.1232981 0.02433,0.1214075 0.02532,0.1195458 0.0263,0.1177126 0.02729,0.1159081 0.02827,0.1141324 0.02925,0.1123852 0.03023,0.1106669 0.0312,0.1089771 0.03218,0.1073161 0.03315,0.1056836 0.03412,0.10408 0.03509,0.102505 0.03606,0.1009587 0.03705,0.099482 0.03817,0.098324 0.03932,0.097229 0.04048,0.096139 0.04165,0.095051 0.04283,0.093967 0.04402,0.092886 0.04522,0.091809 0.04643,0.090736 0.04765,0.089666 0.04887,0.088599 0.05011,0.087536 0.05135,0.086476 0.05261,0.08542 0.05387,0.084367 0.05515,0.083318 0.05643,0.082272 0.05772,0.08123 0.05902,0.080191 0.06033,0.079156 0.06165,0.078124 0.06298,0.077095 0.06432,0.07607 0.06566,0.075049 0.06702,0.074031 0.06837,0.073002 0.06963,0.071899 0.07088,0.070795 0.072133,0.069704 0.073387,0.068625 0.074643,0.067559 0.075901,0.066505 0.077161,0.065463 0.078423,0.064434 0.079686,0.063417 0.080952,0.062413 0.082219,0.061421 0.083489,0.060442 0.08476,0.059474 0.086033,0.05852 0.087308,0.057577 0.088585,0.056647 0.089864,0.05573 0.091145,0.054824 0.092428,0.053932 0.093712,0.053051 0.094999,0.052183 0.096287,0.051328 0.097577,0.050484 0.09887,0.049653 0.100164,0.048835 0.101484,0.048039 0.1030122,0.047342 0.1045961,0.046669 0.1061899,0.046 0.1077937,0.045337 0.1094075,0.044678 0.1110313,0.044023 0.1126649,0.043373 0.1143085,0.042728 0.1159621,0.042087 0.1176257,0.04145 0.1192991,0.040818 0.1209826,0.040191 0.122676,0.039568 0.1243793,0.03895 0.1260927,0.038336 0.1278159,0.037727 0.1295491,0.037123 0.1312923,0.036523 0.1330455,0.035927 0.1348085,0.035336 0.1365815,0.03475 0.1383646,0.034168 0.1401575,0.033591 0.1419603,0.033018 0.1437733,0.03245 0.145596,0.031886 0.1474288,0.031327 0.1492715,0.030773 0.1511242,0.030223 0.1529868,0.029677 0.1548594,0.029136 0.1567419,0.0286 0.1586345,0.028068 0.1605368,0.0275408 0.1624493,0.0270182 0.1643716,0.0265 0.1663039,0.0259864 0.1682461,0.0254774 0.1701984,0.0249728 0.1721606,0.0244729 0.1741326,0.0239774 0.1761148,0.0234866 0.1781068,0.0230003 0.1801087,0.0225185 0.1821207,0.0220412 0.1841426,0.0215686 0.1861745,0.0211005 0.1882162,0.0206369 0.190268,0.0201778 0.1923297,0.0197234 0.1944014,0.0192734 0.196483,0.0188281 0.1985746,0.0183872 0.2006761,0.0179509 0.2027876,0.0175192 0.2048808,0.0170854 0.2068519,0.0166322 0.2087633,0.0161811 0.2106235,0.0157345 0.2124328,0.0152927 0.2141908,0.0148552 0.2158978,0.0144225 0.2175538,0.0139941 0.2191586,0.0135706 0.2207123,0.0131513 0.2222149,0.0127369 0.2236664,0.0123268 0.2250669,0.0119214 0.2264162,0.0115206 0.2277145,0.0111243 0.2289616,0.0107325 0.2301576,0.0103453 0.2313027,0.009963 0.2323964,0.009585 0.2334393,0.009211 0.2344309,0.008842 0.2353715,0.008478 0.2362609,0.008118 0.2370994,0.007763 0.2378866,0.007412 0.2386229,0.007066 0.2393079,0.006725 0.239942,0.006388 0.2405248,0.006055 0.2410567,0.005728 0.4835044,0.0104899 0.4850185,0.009233 0.4861238,0.008013 0.4868205,0.00683 0.4871083,0.005683 0.4869876,0.004572 0.486457,0.003498 0.121484,7.111e-4 0.06034,3.315e-4 0.05893,3.16e-4 0.05748,3.002e-4 0.05605,2.843e-4 0.05465,2.683e-4 0.05328,2.52e-4 0.05193,2.357e-4 0.0506,2.19e-4 0.0493,2.024e-4 0.04802,1.854e-4 0.04677,1.684e-4 0.04554,1.512e-4 0.04434,1.337e-4 0.04316,1.162e-4 0.04201,9.84e-5 0.04088,8.06e-5 0.03977,6.25e-5 0.03869,4.42e-5 0.03764,2.59e-5 0.03661,7.2e-6 0.03561,-1.14e-5 0.03463,-3.04e-5 0.03367,-4.94e-5 0.03274,-6.87e-5 0.03183,-8.8e-5 0.03095,-1.077e-4 0.03009,-1.274e-4 0.02926,-1.472e-4 0.02845,-1.674e-4 0.02767,-1.876e-4 0.02691,-2.08e-4 0.02618,-2.286e-4 0.02547,-2.493e-4 0.02479,-2.702e-4 0.02413,-2.913e-4 0.02349,-3.125e-4 0.04518,-6.894e-4 0.04294,-7.765e-4 0.04089,-8.647e-4 0.03905,-9.543e-4 0.0374,-0.001045 0.03594,-0.001138 0.03469,-0.001231 0.03364,-0.001326 0.03278,-0.001423 0.06377,-0.003139 0.0627,-0.003541 0.06322,-0.003953 0.0323,-0.002134 0.03302,-0.002241 0.136656,-0.0100162 0.136363,-0.0116516 0.13565,-0.0132959 0.134911,-0.014952 0.134148,-0.0166198 0.133359,-0.0182994 0.132546,-0.0199905 0.131708,-0.0216936 0.130843,-0.0234082 0.129955,-0.0251347 0.129041,-0.0268729 0.128103,-0.0286228 0.127138,-0.0303843 0.126149,-0.0321578 0.125135,-0.0339424 0.124005,-0.0357075 0.122807,-0.0374564 0.121604,-0.0392068 0.120394,-0.0409586 0.11918,-0.042712 0.117958,-0.0444667 0.116732,-0.046223 0.1155,-0.0479807 0.114261,-0.0497398 0.113018,-0.0515005 0.111768,-0.0532625 0.110512,-0.0550261 0.109251,-0.056791 0.107984,-0.058558 0.106711,-0.060325 0.105432,-0.062095 0.104148,-0.063866 0.102858,-0.065638 0.101562,-0.067412 0.10026,-0.069187 0.09895,-0.070964 0.09764,-0.072742 0.09632,-0.07452 0.09467,-0.076018 0.09281,-0.077298 0.09098,-0.078553 0.08916,-0.079783 0.08736,-0.080989 0.08559,-0.082171 0.08384,-0.083328 0.08211,-0.084461 0.0804,-0.08557 0.07871,-0.086653 0.07704,-0.087713 0.0754,-0.088748 0.07377,-0.089759 0.07217,-0.090745 0.07059,-0.091707 0.06904,-0.092644 0.0675,-0.093557 0.06598,-0.094446 0.06449,-0.09531 0.06302,-0.096149 0.06157,-0.096964 0.06014,-0.097755 0.05873,-0.098521 0.05734,-0.099263 0.05597,-0.099956 0.05459,-0.100587 0.05323,-0.101195 0.05189,-0.1017809 0.05056,-0.1023447 0.04925,-0.1028862 0.04796,-0.1034058 0.04669,-0.1039032 0.04543,-0.1043784 0.04419,-0.1048316 0.04297,-0.1052625 0.04176,-0.1056715 0.04057,-0.1060583 0.0394,-0.1064229 0.03825,-0.1067654 0.03711,-0.1070859 0.03599,-0.1073841 0.03488,-0.1076603 0.0338,-0.1079144 0.03273,-0.1081463 0.03168,-0.1083561 0.03064,-0.1085437 0.02962,-0.1087094 0.02862,-0.1088527 0.02764,-0.1089741 0.02667,-0.1090733 0.02572,-0.1091503 0.02479,-0.1092053 0.02388,-0.1092381 0.02298,-0.1092489 0.0221,-0.1092374 0.02123,-0.1092039 0.02038,-0.1091482 0.01955,-0.1090704 0.01874,-0.1089706 0.01795,-0.1088485 0.01717,-0.1087044 0.0164,-0.1085381 0.01566,-0.1083497 0.01493,-0.1081478 0.01421,-0.1079416 0.0135,-0.1077246 0.01281,-0.1074969 0.01213,-0.1072587 0.01146,-0.1070096 0.01081,-0.1067499 0.01017,-0.1064795 0.0095,-0.1061984 0.0089,-0.1059066 0.0083,-0.1056042 0.0078,-0.1052911 0.0072,-0.1049672 0.0066,-0.1046326 0.0061,-0.1042875 0.0056,-0.1039316 0.0051,-0.103565 0.0046,-0.1031877 0.0077,-0.2056621 0.0058,-0.204854 0.0022,-0.101914 0.0018,-0.101461 0.0014,-0.100921 9.44e-4,-0.100298 5.39e-4,-0.09959 1.44e-4,-0.0988 -2.4e-4,-0.09792 -6.15e-4,-0.09696 -9.79e-4,-0.09591 -0.0013,-0.0949 -0.0038,-0.188679 -0.0052,-0.187391 -0.0067,-0.186063 -0.0082,-0.184697 -0.0097,-0.183293 -0.01114,-0.181851 -0.01263,-0.18037 -0.01412,-0.178851 -0.01568,-0.177868 -0.01731,-0.177403 -0.01896,-0.176881 -0.02064,-0.1763 -0.02235,-0.17566 -0.02407,-0.17496 -0.02582,-0.174202 -0.0276,-0.173384 -0.0294,-0.172509 -0.03122,-0.171574 -0.03306,-0.17058 -0.03493,-0.169526 -0.03682,-0.168416 -0.03874,-0.167244 -0.04068,-0.166015 -0.04264,-0.164726 -0.02206,-0.08186 -0.02256,-0.08152 -0.02306,-0.08117 -0.02357,-0.08082 -0.0241,-0.08052 -0.02464,-0.08023 -0.02518,-0.07993 -0.02572,-0.07962 -0.02626,-0.0793 -0.02681,-0.07898 -0.02735,-0.07866 -0.02791,-0.07832 -0.02846,-0.07798 -0.02902,-0.07763 -0.02957,-0.07727 -0.03013,-0.07691 -0.0307,-0.07654 -0.03127,-0.07616 -0.03184,-0.07578 -0.03241,-0.07538 -0.03298,-0.07499 -0.03356,-0.07458 -0.03414,-0.07417 -0.03472,-0.07375 -0.03531,-0.07332 -0.03589,-0.07289 -0.03648,-0.07245 -0.03708,-0.072 -0.03767,-0.07154 -0.03827,-0.07109 -0.03887,-0.07062 -0.03947,-0.07014 -0.04008,-0.06966 -0.04069,-0.06917 -0.0413,-0.06867 -0.04192,-0.06817 -0.04253,-0.06766 -0.04315,-0.06714 -0.04377,-0.06662 -0.0444,-0.06608 -0.04502,-0.06555 -0.04565,-0.065 -0.04629,-0.06445 -0.04685,-0.0638 -0.04736,-0.06308 -0.04786,-0.06236 -0.04836,-0.06164 -0.04886,-0.06093 -0.04936,-0.06021 -0.04986,-0.0595 -0.05036,-0.05878 -0.05085,-0.05807 -0.05135,-0.05735 -0.05184,-0.05664 -0.05233,-0.05594 -0.05282,-0.05523 -0.0533,-0.05452 -0.05379,-0.05381 -0.05427,-0.05311 -0.05476,-0.0524 -0.05524,-0.0517 -0.05572,-0.051 -0.0562,-0.05029 -0.05668,-0.0496 -0.05715,-0.0489 -0.05763,-0.0482 -0.0581,-0.0475 -0.05857,-0.0468 -0.05904,-0.04611 -0.05951,-0.04542 -0.05998,-0.04473 -0.06044,-0.04403 -0.06091,-0.04334 -0.06137,-0.04265 -0.06183,-0.04197 -0.06223,-0.04124 -0.06249,-0.04044 -0.06274,-0.03965 -0.06299,-0.03886 -0.06323,-0.03807 -0.06348,-0.0373 -0.06371,-0.03653 -0.06394,-0.03577 -0.06417,-0.03502 -0.06439,-0.03427 -0.06461,-0.03353 -0.06482,-0.0328 -0.06503,-0.03207 -0.06523,-0.03135 -0.06543,-0.03063 -0.06562,-0.02993 -0.06581,-0.02923 -0.066,-0.02853 -0.06618,-0.02785 -0.06635,-0.02717 -0.06652,-0.0265 -0.06669,-0.02583 -0.06685,-0.02517 -0.06701,-0.02452 -0.06716,-0.02387 -0.06731,-0.02323 -0.06745,-0.0226 -0.06759,-0.02197 -0.06772,-0.02135 -0.06785,-0.02074 -0.06798,-0.02014 -0.0681,-0.01954 -0.06821,-0.01895 -0.136756,-0.03615 -0.137162,-0.03386 -0.137532,-0.03163 -0.137865,-0.02945 -0.138138,-0.02733 -0.138023,-0.02518 -0.137757,-0.02307 -0.137459,-0.02101 -0.137126,-0.01902 -0.136762,-0.01709 -0.136364,-0.01522 -0.135935,-0.01341 -0.135471,-0.01165 -0.134976,-0.01 -0.134448,-0.0083 -0.133886,-0.0068 -0.133293,-0.0052 -0.06641,-0.0021 -0.01668,-4.67e-4 -0.0089,-2.41e-4 -0.0095,-2.49e-4 -0.01029,-2.56e-4 -0.01114,-2.6e-4 -0.0121,-2.64e-4 -0.01316,-2.65e-4 -0.01434,-2.65e-4 -0.01561,-2.62e-4 -0.01699,-2.59e-4 -0.01848,-2.53e-4 -0.02007,-2.46e-4 -0.02177,-2.38e-4 -0.02357,-2.26e-4 -0.02548,-2.15e-4 -0.0275,-2.01e-4 -0.02962,-1.84e-4 -0.03185,-1.68e-4 -0.03418,-1.49e-4 -0.018,-6.6e-5 -0.01862,-6.1e-5 -0.01926,-5.6e-5 -0.0199,-4.9e-5 -0.02057,-4.4e-5 -0.02124,-3.8e-5 -0.02193,-3e-5 -0.02263,-2.5e-5 -0.02335,-1.7e-5 -0.02408,-10e-6 -0.02482,-3e-6 -0.02557,4e-6 -0.02634,1.3e-5 -0.02712,2e-5 -0.02792,2.8e-5 -0.02872,3.7e-5 -0.02954,4.6e-5 -0.03038,5.4e-5 -0.03123,6.3e-5 -0.03209,7.3e-5 -0.03296,8.2e-5 -0.03385,9.1e-5 -0.03475,1.02e-4 -0.03566,1.11e-4 -0.03659,1.22e-4 -0.03753,1.33e-4 -0.03848,1.43e-4 -0.03944,1.54e-4 -0.04042,1.65e-4 -0.04142,1.77e-4 -0.04242,1.88e-4 -0.04344,2e-4 -0.04447,2.12e-4 -0.04552,2.24e-4 -0.04658,2.36e-4 -0.04765,2.49e-4 -0.193672,0.0011 -0.388868,0.0028 -0.3904536,0.0035 -0.3915453,0.0042 -0.3921421,0.0049 -0.3922442,0.0057 -0.3918516,0.0064 -0.3909645,0.0072 -0.3895826,0.0079 -0.3877061,0.0087 -0.1929948,0.0047 -0.1923402,0.0049 -0.1916237,0.0051 -0.1908455,0.0053 -0.1900053,0.0055 -0.1891034,0.0057 -0.1881396,0.0059 -0.187114,0.0061 -0.1860266,0.0063 -0.1847512,0.0065 -0.1831189,0.0067 -0.1814785,0.0068 -0.1798481,0.007 -0.1782278,0.0072 -0.1766176,0.0074 -0.1750173,0.0076 -0.1734272,0.0077 -0.1718471,0.0079 -0.1702771,0.0081 -0.1687171,0.0083 -0.1671673,0.0085 -0.1656275,0.0086 -0.1640977,0.0088 -0.162578,0.009 -0.1610684,0.0092 -0.1595688,0.0093 -0.1580793,0.0095 -0.1565998,0.0097 -0.1551305,0.0099 -0.1536712,0.01005 -0.1522219,0.01022 -0.1507827,0.0104 -0.1493536,0.01057 -0.1479346,0.01074 -0.1465255,0.01092 -0.1451266,0.01109 -0.1437377,0.01126 -0.142359,0.01143 -0.1409901,0.0116 -0.1396315,0.01178 -0.1382829,0.01195 -0.1369443,0.01212 -0.1356158,0.01229 -0.1342974,0.01246 -0.132989,0.01263 -0.1316908,0.01279 -0.1304024,0.01296 -0.1291243,0.01313 -0.1278562,0.0133 -0.1265981,0.01347 -0.1253502,0.01364 -0.1241122,0.0138 -0.1228843,0.01397 -0.1216666,0.01413 -0.1204588,0.0143 -0.1192611,0.01446 -0.1180735,0.01463 -0.116896,0.0148 -0.1157285,0.01496 -0.1145711,0.01512 -0.1134237,0.01529 -0.1122864,0.01545 -0.1111592,0.01561 -0.110042,0.01578 -0.1089349,0.01594 -0.1078379,0.0161 -0.1067509,0.01626 -0.105674,0.01642 -0.1046071,0.01658 -0.1035503,0.01675 -0.1025036,0.0169 -0.101467,0.01706 -0.1004403,0.01722 -0.099424,0.01738 -0.098417,0.01754 -0.097421,0.0177 -0.096434,0.01786 -0.095458,0.01802 -0.094492,0.01817 -0.093536,0.01833 -0.09259,0.01849 -0.091654,0.01864 -0.090728,0.0188 -0.089812,0.01896 -0.088906,0.01911 -0.08801,0.01927 -0.087125,0.01942 -0.086249,0.01957 -0.085383,0.01973 -0.084528,0.01988 -0.083682,0.02003 -0.082847,0.02019 -0.082022,0.02034 -0.081206,0.02049 -0.080427,0.02065 -0.079687,0.02082 -0.078952,0.02099 -0.078221,0.02117 -0.077496,0.02134 -0.076775,0.02151 -0.076059,0.02169 -0.075348,0.02186 -0.074642,0.02203 -0.073941,0.02221 -0.073244,0.02238 -0.072552,0.02255 -0.071866,0.02273 -0.071184,0.0229 -0.070506,0.02307 -0.069834,0.02325 -0.069166,0.02342 -0.068504,0.0236 -0.067846,0.02377 -0.067193,0.02395 -0.066545,0.02412 -0.065901,0.0243 -0.065263,0.02447 -0.064629,0.02465 -0.064,0.02482 -0.063376,0.025 -0.062757,0.02518 -0.062142,0.02535 -0.061533,0.02553 -0.060928,0.02571 -0.060328,0.02588 -0.059733,0.02606 -0.059143,0.02624 -0.058558,0.02641 -0.057977,0.02659 -0.057401,0.02677 -0.1130948,0.05407 -0.1108498,0.05478 -0.1086437,0.05549 -0.106476,0.05621 -0.1043472,0.05692 -0.102257,0.05764 -0.1002053,0.05836 -0.098265,0.05913 -0.096764,0.06018 -0.095328,0.06129 -0.093889,0.06241 -0.092447,0.06354 -0.091002,0.06469 -0.089555,0.06584 -0.088104,0.06701 -0.086651,0.0682 -0.085195,0.06939 -0.083736,0.07059 -0.082275,0.07181 -0.08081,0.07304 -0.079343,0.07429 -0.077873,0.07554 -0.0764,0.07681 -0.07492,0.07809 -0.07345,0.07938 -0.07196,0.08068 -0.07048,0.082 -0.06899,0.08333 -0.06742,0.08455 -0.06572,0.08555 -0.06403,0.08656 -0.06237,0.08757 -0.06073,0.08858 -0.05911,0.08959 -0.05751,0.09061 -0.05593,0.09162 -0.05438,0.09264 -0.05285,0.09366 -0.05134,0.09469 -0.04986,0.09572 -0.0484,0.09674 -0.04696,0.09778 -0.04554,0.09881 -0.04414,0.09985 -0.04277,0.100888 -0.04142,0.10193 -0.04009,0.102974 -0.03878,0.104021 -0.03749,0.10507 -0.03623,0.106122 -0.03499,0.107175 -0.03378,0.108232 -0.03258,0.109291 -0.03144,0.110491 -0.03034,0.11181 -0.02925,0.113138 -0.02816,0.114477 -0.02709,0.115825 -0.02602,0.117183 -0.02496,0.118551 -0.02391,0.119927 -0.02287,0.121314 -0.02184,0.12271 -0.02082,0.124116 -0.0198,0.125532 -0.01879,0.126957 -0.01779,0.128391 -0.0168,0.129836 -0.01582,0.131291 -0.01485,0.132753 -0.01388,0.134228 -0.01292,0.13571 -0.01198,0.137203 -0.01104,0.138705 -0.0101,0.140217 -0.0092,0.141738 -0.0083,0.14327 -0.0074,0.14481 -0.0065,0.146361 -0.0056,0.147921 -0.0047,0.149491 -0.0038,0.15107 -0.003,0.152658 -0.0021,0.154258 -0.0013,0.155866 z"
       transform="matrix(1,0,0,-1,20.187417,0.5468043)"
       fill="rgb(255,255,255)"
       stroke="rgb(0,0,0)"
       stroke-width="0.0010cm"
       stroke-linecap="round"
       stroke-linejoin="round"
       id="path5785"
       style="fill:none;stroke:#ff6400;stroke-width:0.2;stroke-dasharray:none;stroke-opacity:1" /></g></svg>
