<?xml version="1.0" encoding="UTF-8" standalone="no"?>
<!-- Generator: Fusion 360, Shaper Origin Export Add-In, Version 1.8.0  -->

<svg
   shaper:fusionaddin="version:1.8.0"
   width="500mm"
   height="300mm"
   version="1.1"
   x="0cm"
   y="0cm"
   viewBox="0 0 50 30"
   enable-background="new 0 0 36 23"
   xml:space="preserve"
   id="svg4420"
   sodipodi:docname="mid_001.svg"
   inkscape:version="1.2.2 (732a01da63, 2022-12-09)"
   xmlns:inkscape="http://www.inkscape.org/namespaces/inkscape"
   xmlns:sodipodi="http://sodipodi.sourceforge.net/DTD/sodipodi-0.dtd"
   xmlns="http://www.w3.org/2000/svg"
   xmlns:svg="http://www.w3.org/2000/svg"
   xmlns:shaper="http://www.shapertools.com/namespaces/shaper"><defs
     id="defs4424" /><sodipodi:namedview
     id="namedview4422"
     pagecolor="#505050"
     bordercolor="#eeeeee"
     borderopacity="1"
     inkscape:showpageshadow="0"
     inkscape:pageopacity="0"
     inkscape:pagecheckerboard="0"
     inkscape:deskcolor="#505050"
     inkscape:document-units="cm"
     showgrid="false"
     inkscape:zoom="0.46244565"
     inkscape:cx="621.69468"
     inkscape:cy="528.71078"
     inkscape:window-width="1920"
     inkscape:window-height="991"
     inkscape:window-x="-9"
     inkscape:window-y="-9"
     inkscape:window-maximized="1"
     inkscape:current-layer="svg4420" /><g
     id="g5647"
     transform="translate(7,3.4328358)"><path
       d="M 34,0 H 22.75 v 0.38 h -0.5 V 0 H 2 A 2,2 0 0 0 0,2 v 19 a 2,2 0 0 0 2,2 h 32 a 2,2 0 0 0 2,-2 V 2 A 2,2 0 0 0 34,0 Z"
       fill="rgb(0,0,0)"
       stroke-linecap="round"
       stroke-linejoin="round"
       id="path4408"
       style="fill:none;stroke:#ff0000;stroke-width:0.2;stroke-dasharray:none;stroke-opacity:1" /><path
       d="m 1.2,21 a 0.55,0.55 0 1 0 1.1,0 0.55,0.55 0 1 0 -1.1,0 z"
       fill="rgb(255,255,255)"
       stroke="rgb(0,0,0)"
       stroke-width="0.0010cm"
       stroke-linecap="round"
       stroke-linejoin="round"
       id="path4410"
       style="fill:none;stroke:#ff6400;stroke-width:0.2;stroke-dasharray:none;stroke-opacity:1" /><path
       d="M 1.2,2 A 0.55,0.55 0 1 0 2.3,2 0.55,0.55 0 1 0 1.2,2 Z"
       fill="rgb(255,255,255)"
       stroke="rgb(0,0,0)"
       stroke-width="0.0010cm"
       stroke-linecap="round"
       stroke-linejoin="round"
       id="path4412"
       style="fill:none;stroke:#ff6400;stroke-width:0.2;stroke-dasharray:none;stroke-opacity:1" /><path
       d="m 33.7,21 a 0.55,0.55 0 1 0 1.1,0 0.55,0.55 0 1 0 -1.1,0 z"
       fill="rgb(255,255,255)"
       stroke="rgb(0,0,0)"
       stroke-width="0.0010cm"
       stroke-linecap="round"
       stroke-linejoin="round"
       id="path4414"
       style="fill:none;stroke:#ff6400;stroke-width:0.2;stroke-dasharray:none;stroke-opacity:1" /><path
       d="m 33.7,2 a 0.55,0.55 0 1 0 1.1,0 0.55,0.55 0 1 0 -1.1,0 z"
       fill="rgb(255,255,255)"
       stroke="rgb(0,0,0)"
       stroke-width="0.0010cm"
       stroke-linecap="round"
       stroke-linejoin="round"
       id="path4416"
       style="fill:none;stroke:#ff6400;stroke-width:0.2;stroke-dasharray:none;stroke-opacity:1" /><path
       d="m 29.159548,2.5206759 v 0 l 0.07933,0.019271 0.07805,0.019792 0.07678,0.020313 0.07554,0.020834 0.07432,0.021355 0.07313,0.021878 0.07196,0.0224 0.07081,0.022923 0.06969,0.023447 0.06859,0.023971 0.06752,0.024496 0.06647,0.02502 0.06544,0.025546 0.06444,0.026072 0.06346,0.026598 0.0625,0.027125 0.06155,0.027655 0.06061,0.028189 0.05969,0.028725 0.05879,0.029265 0.0579,0.029807 0.05703,0.030353 0.05617,0.030902 0.05532,0.031455 0.0545,0.03201 0.05368,0.032569 0.05288,0.03313 0.0521,0.033695 0.05133,0.034263 0.05058,0.034833 0.04985,0.035402 0.04912,0.035978 0.0484,0.03656 0.0477,0.037151 0.047,0.037748 0.04631,0.038353 0.04562,0.038965 0.04495,0.039584 0.04429,0.040211 0.04363,0.040845 0.04298,0.041486 0.04234,0.042135 0.04171,0.042791 0.04109,0.043454 0.04048,0.044125 0.03987,0.044802 0.03928,0.045488 0.03869,0.04618 0.03811,0.04688 0.03754,0.047587 0.03698,0.048302 0.03643,0.049024 0.03588,0.049753 0.03535,0.050489 0.03482,0.051233 0.0343,0.051988 0.03378,0.052758 0.03326,0.053541 0.03274,0.054338 0.03223,0.055149 0.03173,0.055974 0.03123,0.056813 0.03073,0.057666 0.03024,0.058533 0.02975,0.059413 0.02926,0.060308 0.02878,0.061216 0.02831,0.062139 0.02783,0.063075 0.02737,0.064025 0.0269,0.06499 0.02644,0.065968 0.02599,0.066959 0.02554,0.067966 0.02509,0.068992 0.02464,0.070041 0.02419,0.071111 0.02375,0.072204 0.0233,0.073318 0.02286,0.074455 0.02242,0.075614 0.02198,0.076795 0.02154,0.077998 0.02111,0.079223 0.02067,0.080469 0.02024,0.081739 0.01981,0.08303 0.01938,0.084339 0.01895,0.085658 0.01852,0.087012 0.0181,0.088403 0.01767,0.089832 0.01723,0.091298 0.0168,0.092801 0.01637,0.094342 0.01593,0.095921 0.01549,0.097536 0.01506,0.09919 0.01462,0.1008804 0.01418,0.1026087 0.01373,0.1043742 0.01329,0.1061774 0.01284,0.1080179 0.0124,0.1098958 0.01195,0.1118113 0.0115,0.113764 0.01105,0.1157544 0.01059,0.1177822 0.01014,0.1198665 0.0097,0.1220218 0.0092,0.1242392 0.0087,0.1265185 0.0042,0.064133 0.0041,0.064726 0.0039,0.065327 0.0038,0.065936 0.0037,0.066552 0.0036,0.067177 0.0035,0.067808 0.0033,0.068448 0.0032,0.069095 0.0031,0.06975 0.003,0.070413 0.0028,0.071084 0.0027,0.071762 0.0026,0.072449 0.0024,0.07315 0.0023,0.07386 0.0022,0.07458 0.002,0.07531 0.0019,0.07605 0.0018,0.07681 0.0016,0.07757 0.0015,0.07835 0.0014,0.07914 0.0012,0.07994 0.0011,0.08075 9.46e-4,0.08157 8.03e-4,0.08241 6.6e-4,0.08325 5.15e-4,0.0841 3.7e-4,0.08497 2.22e-4,0.08585 7.5e-5,0.08674 -7.5e-5,0.08674 -2.22e-4,0.08585 -3.69e-4,0.08497 -5.15e-4,0.08411 -6.6e-4,0.08325 -8.03e-4,0.08241 -9.46e-4,0.08157 -0.0011,0.08075 -0.0012,0.07994 -0.0014,0.07914 -0.0015,0.07835 -0.0016,0.07757 -0.0018,0.07681 -0.0019,0.07605 -0.002,0.07531 -0.0022,0.07458 -0.0023,0.07385 -0.0024,0.07314 -0.0026,0.07244 -0.0027,0.07176 -0.0028,0.07108 -0.003,0.07041 -0.0031,0.06976 -0.0032,0.06912 -0.0033,0.06848 -0.0034,0.06784 -0.0036,0.06722 -0.0037,0.0666 -0.0038,0.06599 -0.0039,0.06538 -0.0041,0.06478 -0.0042,0.06419 -0.0087,0.126618 -0.0092,0.124322 -0.0097,0.122079 -0.01013,0.119888 -0.0106,0.11775 -0.01106,0.115662 -0.01152,0.113629 -0.01197,0.111646 -0.01242,0.109716 -0.01287,0.107839 -0.01331,0.106013 -0.01375,0.10424 -0.01419,0.102519 -0.01462,0.100849 -0.01505,0.09921 -0.01549,0.09759 -0.01592,0.096 -0.01635,0.09444 -0.01678,0.09291 -0.01722,0.0914 -0.01765,0.08993 -0.01808,0.08848 -0.01852,0.08707 -0.01895,0.08568 -0.01938,0.08432 -0.01981,0.08299 -0.02025,0.08169 -0.02068,0.08042 -0.02111,0.07918 -0.02155,0.07797 -0.02198,0.07678 -0.02242,0.07562 -0.02286,0.07447 -0.0233,0.07334 -0.02374,0.07223 -0.02418,0.07113 -0.02463,0.07006 -0.02509,0.069 -0.02554,0.06796 -0.02599,0.06694 -0.02645,0.06594 -0.02692,0.06496 -0.02738,0.06399 -0.02785,0.06304 -0.02832,0.06212 -0.02879,0.06121 -0.02926,0.06032 -0.02973,0.05944 -0.03021,0.05857 -0.0307,0.05771 -0.0312,0.05687 -0.0317,0.05603 -0.0322,0.05521 -0.03271,0.05439 -0.03323,0.05359 -0.03375,0.05279 -0.03429,0.05201 -0.03482,0.05123 -0.03536,0.05047 -0.03591,0.04972 -0.03647,0.04898 -0.03703,0.04825 -0.03759,0.04752 -0.03817,0.04682 -0.03874,0.04611 -0.03933,0.04543 -0.03992,0.04475 -0.04051,0.04408 -0.04112,0.04342 -0.04173,0.04277 -0.04234,0.04214 -0.04297,0.0415 -0.0436,0.04087 -0.04425,0.04024 -0.04491,0.03962 -0.04558,0.039 -0.04626,0.03839 -0.04695,0.03778 -0.04766,0.03718 -0.04837,0.03659 -0.0491,0.036 -0.04984,0.03541 -0.05059,0.03483 -0.05135,0.03425 -0.05213,0.03368 -0.05291,0.03311 -0.05371,0.03255 -0.05452,0.032 -0.05534,0.03145 -0.05617,0.0309 -0.05702,0.03036 -0.05788,0.02981 -0.05877,0.02927 -0.05967,0.02873 -0.06059,0.0282 -0.06153,0.02766 -0.06249,0.02713 -0.06347,0.0266 -0.06446,0.02607 -0.06547,0.02554 -0.0665,0.02501 -0.06755,0.02449 -0.06862,0.02397 -0.06971,0.02345 -0.07082,0.02293 -0.07196,0.02241 -0.07313,0.02188 -0.07431,0.02136 -0.07552,0.02084 -0.07676,0.02031 -0.07801,0.01979 -0.07929,0.01926 v 0 l -0.0806,0.01874 -0.08195,0.01821 -0.08333,0.01769 -0.08475,0.01716 -0.08621,0.01663 -0.08769,0.01609 -0.08921,0.01556 -0.09077,0.01502 -0.09236,0.01447 -0.09398,0.01393 -0.09564,0.01338 -0.09733,0.01282 -0.09906,0.01227 -0.10084,0.01171 -0.102672,0.01114 -0.104555,0.01056 -0.106491,0.01 -0.108476,0.0094 -0.110514,0.0088 -0.112603,0.0082 -0.114742,0.0076 -0.116934,0.007 -0.119177,0.0064 -0.06045,0.003 -0.06104,0.0028 -0.06163,0.0026 -0.06223,0.0025 -0.06285,0.0023 -0.06347,0.0022 -0.06411,0.002 -0.06475,0.0018 -0.0654,0.0017 -0.06606,0.0015 -0.06673,0.0013 -0.06741,0.0011 -0.0681,9.72e-4 -0.0688,7.98e-4 -0.0695,6.24e-4 -0.07022,4.47e-4 -0.07095,2.69e-4 -0.07168,9e-5 v 0 l -0.144709,-1.7e-5 -0.145841,-5.2e-5 -0.146919,-8.9e-5 -0.147943,-1.25e-4 -0.148913,-1.65e-4 -0.149827,-2.05e-4 -0.150688,-2.46e-4 -0.151494,-2.89e-4 -0.152245,-3.32e-4 -0.152942,-3.78e-4 -0.307758,-8.95e-4 -0.309893,-0.0011 -0.311592,-0.0013 -0.312855,-0.0015 -0.313682,-0.0017 -0.628285,-0.0042 -0.627655,-0.0052 -0.312939,-0.003 -0.312,-0.0033 -0.310799,-0.0036 -0.309338,-0.0038 -0.307617,-0.0041 -0.305634,-0.0044 -0.303446,-0.0047 -0.301136,-0.0051 -0.149661,-0.0027 -0.149037,-0.0027 -0.148396,-0.0028 -0.14774,-0.0029 -0.147068,-0.003 -0.14638,-0.0031 -0.145677,-0.0031 -0.144958,-0.0032 -0.144224,-0.0033 -0.143473,-0.0034 -0.142707,-0.0035 -0.141925,-0.0036 -0.141129,-0.0037 -0.140316,-0.0038 -0.139504,-0.0039 -0.13869,-0.0039 -0.137864,-0.004 -0.137031,-0.0041 -0.136187,-0.0042 -0.135335,-0.0043 v 0 l -0.131029,-0.0043 -0.130216,-0.0044 -0.129397,-0.0045 -0.128575,-0.0046 -0.127749,-0.0047 -0.126919,-0.0047 -0.126084,-0.0048 -0.125247,-0.0049 -0.124404,-0.005 -0.123559,-0.0051 -0.122709,-0.0052 -0.121848,-0.0053 -0.120987,-0.0054 -0.120127,-0.0055 -0.119269,-0.0056 -0.118413,-0.0057 -0.11756,-0.0058 -0.116707,-0.0059 -0.115858,-0.006 -0.11501,-0.0061 -0.114164,-0.0062 -0.11332,-0.0063 -0.112478,-0.0064 -0.111639,-0.0065 -0.1108,-0.0066 -0.109965,-0.0067 -0.10913,-0.0068 -0.108299,-0.0069 -0.107469,-0.007 -0.10664,-0.0071 -0.105815,-0.0073 -0.104991,-0.0074 -0.104168,-0.0075 -0.103349,-0.0076 -0.102531,-0.0077 -0.101715,-0.0078 -0.1009,-0.0079 -0.100089,-0.008 -0.09928,-0.0081 -0.09847,-0.0083 -0.09766,-0.0084 -0.09686,-0.0085 -0.09606,-0.0086 -0.09527,-0.0087 -0.09448,-0.0088 -0.09371,-0.009 -0.09293,-0.0091 -0.09216,-0.0092 -0.0914,-0.0093 -0.09064,-0.0094 -0.08988,-0.0096 -0.08913,-0.0097 -0.08838,-0.0098 -0.08764,-0.0099 -0.0869,-0.01007 -0.08617,-0.0102 -0.085439,-0.01033 -0.084715,-0.01046 -0.083995,-0.01059 -0.083281,-0.01072 -0.082571,-0.01085 -0.081866,-0.01099 -0.081165,-0.01112 -0.080469,-0.01126 -0.079778,-0.0114 -0.079091,-0.01154 -0.078409,-0.01168 -0.077731,-0.01182 -0.077058,-0.01196 -0.07639,-0.0121 -0.075728,-0.01225 -0.075074,-0.01239 -0.074425,-0.01253 -0.073781,-0.01267 -0.07314,-0.01282 -0.072504,-0.01297 -0.071872,-0.01312 -0.071244,-0.01327 -0.070621,-0.01343 -0.070001,-0.01358 -0.069386,-0.01374 -0.068775,-0.0139 -0.068169,-0.01406 -0.067567,-0.01422 -0.066969,-0.01439 -0.066375,-0.01456 -0.065785,-0.01473 -0.0652,-0.0149 -0.06462,-0.01507 -0.06404,-0.01525 -0.126371,-0.03102 -0.124114,-0.03174 -0.121893,-0.03248 -0.119704,-0.03323 -0.11755,-0.034 -0.115429,-0.03478 -0.113343,-0.03557 -0.111291,-0.03638 -0.109272,-0.03721 -0.107288,-0.03805 -0.105338,-0.0389 -0.10342,-0.03977 -0.101539,-0.04066 -0.09969,-0.04156 -0.09787,-0.04248 -0.09607,-0.04342 -0.09429,-0.0444 -0.09253,-0.0454 -0.09079,-0.04644 -0.08908,-0.04751 -0.08739,-0.04861 -0.08572,-0.04973 -0.08408,-0.05089 -0.08245,-0.05208 -0.08085,-0.0533 -0.07927,-0.05455 -0.07771,-0.05582 -0.07618,-0.05713 -0.07466,-0.05847 -0.07317,-0.05984 -0.0717,-0.06124 -0.07025,-0.06267 -0.06882,-0.06415 -0.0674,-0.06567 -0.06598,-0.06725 -0.06459,-0.06888 -0.0632,-0.07057 -0.06183,-0.07231 -0.06047,-0.07411 -0.05912,-0.07596 -0.05778,-0.07786 -0.05646,-0.07981 -0.02774,-0.04066 -0.02741,-0.04117 -0.02708,-0.04168 -0.02676,-0.04221 -0.02644,-0.04274 -0.02612,-0.04327 -0.0258,-0.04382 -0.02548,-0.04438 -0.02516,-0.04494 -0.02484,-0.04552 -0.02452,-0.04611 -0.02421,-0.04671 -0.02389,-0.04732 -0.02358,-0.04794 -0.02326,-0.04857 -0.02294,-0.04922 -0.02263,-0.04987 -0.02232,-0.05053 -0.022,-0.05121 -0.02169,-0.05189 -0.02138,-0.05259 -0.02107,-0.0533 -0.02075,-0.05401 -0.02044,-0.05475 -0.02013,-0.05548 -0.01982,-0.05623 -0.01951,-0.057 -0.0192,-0.05779 -0.01889,-0.05858 -0.01858,-0.0594 -0.01827,-0.06023 -0.01795,-0.06107 -0.01764,-0.06193 -0.01733,-0.06281 -0.01701,-0.0637 -0.0167,-0.06461 -0.01639,-0.06554 -0.01607,-0.06648 -0.01576,-0.06743 -0.01544,-0.0684 -0.01512,-0.06938 -0.01481,-0.07038 -0.01449,-0.0714 -0.01417,-0.07245 -0.01385,-0.07352 -0.01353,-0.07461 -0.0132,-0.07573 -0.01287,-0.07688 -0.01255,-0.07805 -0.01222,-0.07924 -0.01188,-0.08046 -0.01155,-0.0817 -0.01121,-0.08297 -0.01088,-0.08426 -0.01054,-0.08557 -0.0102,-0.08691 -0.0099,-0.08827 -0.0095,-0.08966 -0.0092,-0.09107 -0.0088,-0.09251 -0.0085,-0.09397 -0.0081,-0.09545 -0.0078,-0.09696 -0.0074,-0.09851 -0.007,-0.100106 -0.0067,-0.101744 -0.0063,-0.103424 -0.0059,-0.105147 -0.0056,-0.106912 -0.0052,-0.10872 -0.0048,-0.110571 -0.0044,-0.112464 -0.004,-0.1144 -0.0036,-0.116378 -0.0032,-0.118399 -0.0028,-0.120463 -0.0024,-0.122568 -0.0019,-0.124718 -0.0015,-0.126909 -0.0011,-0.129143 -6.56e-4,-0.13142 -2.19e-4,-0.133739 2.19e-4,-0.133739 6.55e-4,-0.131421 0.0011,-0.129145 0.0015,-0.126911 0.0019,-0.12472 0.0024,-0.122572 0.0028,-0.120465 0.0032,-0.118402 0.0036,-0.116381 0.004,-0.114403 0.0044,-0.112466 0.0048,-0.110572 0.0052,-0.10872 0.0055,-0.1069126 0.0059,-0.1051463 0.0063,-0.1034226 0.0067,-0.1017414 0.007,-0.1001025 0.0074,-0.098506 0.0078,-0.096952 0.0081,-0.095441 0.0085,-0.093962 0.0088,-0.0925 0.0092,-0.091063 0.0095,-0.08965 0.0099,-0.088262 0.0102,-0.086899 0.01054,-0.08556 0.01088,-0.084246 0.01122,-0.082957 0.01155,-0.081692 0.01188,-0.080452 0.01222,-0.079237 0.01255,-0.078046 0.01288,-0.07688 0.0132,-0.075739 0.01352,-0.074622 0.01385,-0.07353 0.01417,-0.072463 0.01449,-0.07142 L 2.924137,7.492724 2.939257,7.423323 2.954697,7.35491 2.970447,7.287469 2.986517,7.220984 3.002897,7.15544 3.019597,7.090822 3.036607,7.027113 3.053937,6.964299 3.071577,6.902363 3.089537,6.84129 3.107807,6.781065 3.126387,6.721672 3.145277,6.663095 3.164477,6.605319 3.183997,6.548328 3.203817,6.492107 3.223957,6.43664 3.244407,6.381912 3.265167,6.327904 3.286227,6.2746 3.307597,6.221989 3.329277,6.170063 3.351267,6.118814 3.373567,6.068232 3.396187,6.018308 3.419117,5.969034 3.442357,5.920401 3.465917,5.8724 l 0.02388,-0.047378 0.02419,-0.046764 0.02451,-0.046159 0.02483,-0.045563 0.02515,-0.044975 0.02547,-0.044397 0.0258,-0.043827 0.02612,-0.043266 0.02645,-0.042714 0.02677,-0.042171 0.0271,-0.041637 0.02742,-0.041111 0.02775,-0.040595 0.05649,-0.079676 0.05782,-0.077717 0.05915,-0.075828 0.06049,-0.074011 0.06184,-0.072264 0.0632,-0.070586 0.06457,-0.068938 0.06596,-0.067321 0.06737,-0.065743 0.0688,-0.064202 0.07024,-0.062699 0.07171,-0.061234 0.07319,-0.059807 0.07469,-0.058418 0.07621,-0.057066 0.07775,-0.055753 0.0793,-0.054477 0.08088,-0.05324 0.08247,-0.05204 L 5.197567,4.019945 5.283277,3.970193 5.370647,3.921547 5.459697,3.873985 5.550457,3.827484 5.642947,3.782021 5.737207,3.737573 5.833257,3.694117 5.931117,3.65163 6.030817,3.610089 6.132392,3.569471 6.235864,3.529753 6.341259,3.490912 6.448605,3.452925 6.557926,3.415768 6.669248,3.379418 6.782607,3.343861 6.898039,3.309085 7.015579,3.275077 7.135264,3.241824 7.257128,3.209314 7.381209,3.177533 7.507541,3.146469 7.571561,3.131202 7.636161,3.116109 7.701341,3.101188 7.767106,3.086439 7.833461,3.071859 7.90041,3.057447 7.967958,3.043201 8.036109,3.02912 8.104868,3.015202 8.174239,3.001446 8.244227,2.987849 8.314836,2.974411 8.386071,2.961129 8.457936,2.948002 8.530436,2.935029 8.603575,2.922207 8.677358,2.909536 8.751789,2.897013 8.826873,2.884637 8.902614,2.872407 8.979016,2.860321 9.056085,2.848377 9.133824,2.836573 9.212238,2.824908 9.291332,2.813381 9.37111,2.801989 9.451576,2.790732 9.532739,2.779609 9.614607,2.76862 9.697184,2.757765 9.780473,2.747042 9.86448,2.736451 l 0.084728,-0.01046 0.085453,-0.01033 0.08618,-0.0102 0.08692,-0.010072 0.08765,-0.00994 0.0884,-0.00982 0.08914,-0.00969 0.08989,-0.00957 0.09065,-0.00944 0.09141,-0.00932 0.09217,-0.0092 0.09294,-0.00908 0.09371,-0.00896 0.09448,-0.00884 0.09527,-0.00872 0.09605,-0.0086 0.09684,-0.00848 0.09763,-0.00837 0.09843,-0.00825 0.09923,-0.00814 0.100032,-0.00802 0.100841,-0.00791 0.101654,-0.0078 0.102472,-0.00769 0.103293,-0.00758 0.104119,-0.00747 0.10495,-0.00736 0.105783,-0.00725 0.106624,-0.00714 0.107466,-0.00704 0.10831,-0.00693 0.109153,-0.00682 0.109996,-0.00672 0.11084,-0.00662 0.111685,-0.00651 0.112528,-0.00641 0.113373,-0.00631 0.114218,-0.0062 0.115063,-0.0061 0.115908,-0.006 0.116753,-0.0059 0.117599,-0.0058 0.118445,-0.0057 0.119291,-0.00561 0.120137,-0.00551 0.120984,-0.00541 0.121831,-0.00531 0.122677,-0.00522 0.123525,-0.00512 0.124373,-0.00503 0.12522,-0.00494 0.126068,-0.00484 0.126914,-0.00475 0.127744,-0.00466 0.128572,-0.00457 0.129399,-0.00447 0.130226,-0.00438 0.131053,-0.00429 v 0 l 0.203353,-0.00644 0.205244,-0.00623 0.207107,-0.00602 0.20894,-0.00581 0.210745,-0.00561 0.212519,-0.00541 0.214265,-0.00521 0.215982,-0.00502 0.217667,-0.00482 0.2193,-0.00463 0.220872,-0.00444 0.22238,-0.00425 0.223827,-0.00407 0.225209,-0.00389 0.22653,-0.00371 0.227789,-0.00353 0.228984,-0.00336 0.23013,-0.00319 0.231197,-0.00302 0.23215,-0.00285 0.232988,-0.00269 0.233709,-0.00253 0.469122,-0.00459 0.470625,-0.00399 0.471207,-0.00342 0.470864,-0.00287 0.4695,-0.00235 0.233806,-9.927e-4 0.232927,-8.755e-4 0.231862,-7.623e-4 0.23061,-6.536e-4 0.229171,-5.492e-4 0.227546,-4.491e-4 0.225734,-3.532e-4 0.223734,-2.617e-4 0.221549,-1.745e-4 0.109897,-5.59e-5 0.10928,-3.57e-5 0.108641,-1.61e-5 0.107759,8.79e-5 0.106165,4.687e-4 0.104542,8.671e-4 0.102951,0.00126 0.101392,0.00165 0.09986,0.00204 0.09837,0.00242 0.0969,0.00279 0.09546,0.00316 0.09406,0.00353 0.09268,0.0039 0.09134,0.00425 0.09003,0.00461 0.08875,0.00496 0.0875,0.0053 0.08629,0.00564 0.08509,0.00598 0.08392,0.00631 0.08276,0.00665 0.08162,0.00698 0.0805,0.00731 0.07939,0.00764 0.07831,0.00796 0.07724,0.00829 0.07619,0.00861 0.07516,0.00893 0.07415,0.00925 0.07315,0.00957 0.07218,0.00988 0.07122,0.010195 0.07028,0.010506 0.06936,0.010815 0.06845,0.011122 0.06757,0.011428 0.0667,0.011731 0.06585,0.012033 0.06502,0.012333 0.06421,0.012631 0.06342,0.012927 0.06264,0.013221 0.06187,0.013514 0.0611,0.013811 z"
       fill="rgb(255,255,255)"
       stroke="rgb(0,0,0)"
       stroke-width="0.0010cm"
       stroke-linecap="round"
       stroke-linejoin="round"
       id="path4418"
       style="fill:none;stroke:#ff6400;stroke-width:0.2;stroke-dasharray:none;stroke-opacity:1" /></g></svg>
