<?xml version="1.0" encoding="UTF-8" standalone="no"?>
<!-- Generator: Fusion 360, Shaper Origin Export Add-In, Version 1.8.0  -->

<svg
   shaper:fusionaddin="version:1.8.0"
   width="50cm"
   height="30cm"
   version="1.1"
   x="0cm"
   y="0cm"
   viewBox="0 0 49.999998 30"
   enable-background="new 0 0 38.5815833 23"
   xml:space="preserve"
   id="svg4"
   sodipodi:docname="top.svg"
   inkscape:version="1.2.2 (732a01da63, 2022-12-09)"
   xmlns:inkscape="http://www.inkscape.org/namespaces/inkscape"
   xmlns:sodipodi="http://sodipodi.sourceforge.net/DTD/sodipodi-0.dtd"
   xmlns="http://www.w3.org/2000/svg"
   xmlns:svg="http://www.w3.org/2000/svg"
   xmlns:shaper="http://www.shapertools.com/namespaces/shaper"><defs
     id="defs8" /><sodipodi:namedview
     id="namedview6"
     pagecolor="#505050"
     bordercolor="#eeeeee"
     borderopacity="1"
     inkscape:showpageshadow="0"
     inkscape:pageopacity="0"
     inkscape:pagecheckerboard="0"
     inkscape:deskcolor="#505050"
     inkscape:document-units="cm"
     showgrid="false"
     inkscape:zoom="0.44918342"
     inkscape:cx="506.47461"
     inkscape:cy="481.98573"
     inkscape:window-width="1920"
     inkscape:window-height="991"
     inkscape:window-x="-9"
     inkscape:window-y="-9"
     inkscape:window-maximized="1"
     inkscape:current-layer="svg4" /><path
     d="m 11.900271,26.5 v 0 l 0.163541,-5.45e-4 0.16344,-0.0016 0.163338,-0.0027 0.163238,-0.0038 0.163136,-0.0049 0.163037,-0.006 0.162937,-0.007 0.162837,-0.0081 0.162739,-0.0092 0.162642,-0.01022 0.162544,-0.01127 0.162447,-0.0123 0.162352,-0.01333 0.162258,-0.01434 0.162165,-0.01535 0.162072,-0.01634 0.161981,-0.01732 0.161891,-0.01829 0.161803,-0.01924 0.161715,-0.02018 0.161629,-0.02111 0.161545,-0.02202 0.161461,-0.02291 0.16138,-0.02379 0.161299,-0.02465 0.161221,-0.0255 0.161144,-0.02632 0.161069,-0.02713 0.160995,-0.02792 0.160923,-0.0287 0.160853,-0.02945 0.160785,-0.03019 0.160718,-0.03091 0.160653,-0.0316 0.160591,-0.03228 0.160529,-0.03294 0.16047,-0.03357 0.160412,-0.03419 0.320662,-0.07014 0.320456,-0.07235 0.320267,-0.07438 0.320094,-0.07624 0.319937,-0.07792 0.319799,-0.07942 0.319676,-0.08073 0.319572,-0.08186 0.319483,-0.08281 0.638774,-0.167691 0.638633,-0.169206 0.638633,-0.169206 0.638774,-0.167692 0.319483,-0.08281 0.319571,-0.08186 0.319677,-0.08073 0.319798,-0.07942 0.319938,-0.07792 0.320094,-0.07624 0.320267,-0.07438 0.320456,-0.07235 0.320661,-0.07014 0.160413,-0.03419 0.16047,-0.03357 0.160529,-0.03294 0.16059,-0.03228 0.160653,-0.0316 0.160718,-0.03091 0.160785,-0.03019 0.160853,-0.02945 0.160923,-0.0287 0.160995,-0.02792 0.161069,-0.02713 0.161144,-0.02632 0.161221,-0.02549 0.1613,-0.02465 0.16138,-0.02379 0.161461,-0.02291 0.161545,-0.02202 0.161629,-0.02111 0.161715,-0.02018 0.161802,-0.01924 0.161891,-0.01829 0.161982,-0.01732 0.162072,-0.01634 0.162164,-0.01535 0.162258,-0.01434 0.162352,-0.01333 0.162448,-0.0123 0.162544,-0.01127 0.162641,-0.01022 0.162739,-0.0092 0.162838,-0.0081 0.162937,-0.007 0.163036,-0.006 0.163137,-0.0049 0.163238,-0.0038 0.163338,-0.0027 0.16344,-0.0016 L 32.514557,23 h 3 v 0 l 0.05247,5.45e-4 0.05199,0.0016 0.0515,0.0027 0.05102,0.0038 0.05053,0.0049 0.05005,0.006 0.04957,0.007 0.0491,0.0081 0.04862,0.0092 0.04815,0.01022 0.04769,0.01127 0.04723,0.0123 0.04677,0.01333 0.04631,0.01434 0.04587,0.01535 0.04542,0.01634 0.04499,0.01732 0.04455,0.01829 0.04413,0.01924 0.04371,0.02018 0.0433,0.02111 0.04289,0.02202 0.04249,0.02291 0.0421,0.02379 0.04172,0.02465 0.04134,0.02549 0.04097,0.02632 0.04061,0.02713 0.04025,0.02792 0.03991,0.0287 0.03957,0.02945 0.03924,0.03019 0.03893,0.03091 0.03861,0.0316 0.03831,0.03228 0.03802,0.03294 0.03773,0.03357 0.03746,0.03419 0.03719,0.03478 0.03694,0.03536 0.07315,0.07235 0.07224,0.07438 0.07141,0.07624 0.07066,0.07792 0.06999,0.07942 0.0694,0.08073 0.0689,0.08186 0.06848,0.08281 0.06814,0.08356 0.06789,0.08413 0.135355,0.169206 0.135355,0.169206 0.06789,0.08413 0.06814,0.08356 0.06848,0.08281 0.0689,0.08186 0.0694,0.08073 0.06999,0.07942 0.07066,0.07792 0.07141,0.07624 0.07224,0.07438 0.07315,0.07235 0.03694,0.03536 0.03719,0.03478 0.03746,0.03419 0.03773,0.03357 0.03802,0.03294 0.03831,0.03228 0.03861,0.0316 0.03892,0.03091 0.03924,0.03019 0.03957,0.02945 0.03991,0.0287 0.04026,0.02792 0.04061,0.02713 0.04097,0.02632 0.04134,0.0255 0.04172,0.02465 0.0421,0.02379 0.04249,0.02291 0.04289,0.02202 0.0433,0.02111 0.04371,0.02018 0.04413,0.01924 0.04456,0.01829 0.04499,0.01732 0.04542,0.01634 0.04587,0.01535 0.04631,0.01434 0.04677,0.01333 0.04723,0.0123 0.04769,0.01127 0.04815,0.01022 0.04862,0.0092 0.0491,0.0081 0.04957,0.007 0.05005,0.006 0.05053,0.0049 0.05101,0.0038 0.0515,0.0027 0.05199,0.0016 0.05245,6.53e-4 h 1.6 a 2,2 0 0 0 2,-2 v 0 l 4.36e-4,-0.05808 0.0013,-0.05806 0.0022,-0.05804 0.003,-0.05801 0.0039,-0.05799 0.0047,-0.05797 0.0055,-0.05795 0.0063,-0.05793 0.0071,-0.05791 0.0079,-0.05789 0.0086,-0.05787 0.0093,-0.05785 0.01003,-0.05784 0.01069,-0.05782 0.01132,-0.0578 0.01193,-0.05779 0.02554,-0.115531 0.02758,-0.11548 0.02935,-0.115434 0.03083,-0.115397 0.03203,-0.115366 0.03293,-0.115343 0.06753,-0.230648 0.06738,-0.230647 0.03293,-0.115343 0.03203,-0.115366 0.03083,-0.115397 0.02935,-0.115434 0.02758,-0.115479 0.02554,-0.115532 0.01193,-0.05779 0.01132,-0.0578 0.01069,-0.05782 0.01003,-0.05784 0.0093,-0.05785 0.0086,-0.05787 0.0079,-0.05789 0.0071,-0.05791 0.0063,-0.05793 0.0055,-0.05795 0.0047,-0.05797 0.0039,-0.05799 0.003,-0.05801 0.0022,-0.05804 0.0013,-0.05806 5.9e-4,-0.05808 v -2.8 0 l 5.53e-4,-0.08788 0.0017,-0.08646 0.0028,-0.08504 0.0038,-0.08363 0.0049,-0.08222 0.006,-0.08082 0.007,-0.07943 0.008,-0.07805 0.0089,-0.07669 0.0099,-0.07533 0.01077,-0.07399 0.01163,-0.07266 0.01244,-0.07135 0.01321,-0.07005 0.01393,-0.06876 0.01461,-0.06748 0.01523,-0.06621 0.0158,-0.06496 0.01632,-0.06372 0.01678,-0.06248 0.01718,-0.06126 0.01753,-0.06004 0.01781,-0.05883 0.01803,-0.05763 0.01819,-0.05643 0.01828,-0.05523 0.01831,-0.05404 0.01828,-0.05284 0.01817,-0.05165 0.018,-0.05045 0.01776,-0.04925 0.01745,-0.04805 0.01708,-0.04684 0.01663,-0.04562 0.01611,-0.04439 0.01552,-0.04315 0.01486,-0.0419 0.01413,-0.04064 0.01333,-0.03936 0.01246,-0.03806 0.01152,-0.03675 0.01051,-0.03543 0.0094,-0.03408 0.0083,-0.03271 0.0071,-0.03132 0.0058,-0.02991 0.0044,-0.02848 0.003,-0.02702 0.0015,-0.02554 -1.5e-5,-0.02404 -0.0016,-0.02252 -0.0033,-0.02097 -0.005,-0.0194 -0.0032,-0.0091 -0.0036,-0.0087 -0.0041,-0.0083 -0.0045,-0.0079 -0.005,-0.0075 -0.0055,-0.0071 -0.0059,-0.0067 -0.0064,-0.0062 -0.0069,-0.0058 -0.0074,-0.0054 -0.0079,-0.005 -0.0084,-0.0046 -0.0089,-0.0041 -0.0094,-0.0037 -0.0099,-0.0033 -0.01043,-0.0028 -0.01095,-0.0024 -0.01147,-0.002 -0.01199,-0.0015 -0.01251,-0.0011 -0.01303,-6.55e-4 -0.01362,-2.19e-4 a 0.035,0.035 0 0 1 0,-0.07 v 0 l 0.01356,-2.19e-4 0.01303,-6.55e-4 0.01251,-0.0011 0.01199,-0.0015 0.01147,-0.002 0.01095,-0.0024 0.01043,-0.0028 0.0099,-0.0033 0.0094,-0.0037 0.0089,-0.0041 0.0084,-0.0046 0.0079,-0.005 0.0074,-0.0054 0.0069,-0.0058 0.0064,-0.0062 0.0059,-0.0067 0.0055,-0.0071 0.005,-0.0075 0.0045,-0.0079 0.0041,-0.0083 0.0036,-0.0087 0.0032,-0.0091 0.005,-0.0194 0.0033,-0.02097 0.0016,-0.02252 1.5e-5,-0.02404 -0.0015,-0.02554 -0.003,-0.02702 -0.0044,-0.02848 -0.0058,-0.02991 -0.0071,-0.03132 -0.0083,-0.03271 -0.0094,-0.03408 -0.01051,-0.03543 -0.01152,-0.03675 -0.01246,-0.03806 -0.01333,-0.03936 -0.01413,-0.04064 -0.01486,-0.0419 -0.01552,-0.04315 -0.01611,-0.04439 -0.01663,-0.04562 -0.01708,-0.04684 -0.01745,-0.04805 -0.01776,-0.04925 -0.018,-0.05045 -0.01817,-0.05165 -0.01828,-0.05284 -0.01831,-0.05404 -0.01828,-0.05523 -0.01819,-0.05643 -0.01803,-0.05763 -0.01781,-0.05883 -0.01753,-0.06004 -0.01718,-0.06126 -0.01678,-0.06248 -0.01632,-0.06372 -0.0158,-0.06496 -0.01523,-0.06621 -0.01461,-0.06748 -0.01393,-0.06876 -0.01321,-0.07005 -0.01244,-0.07135 -0.01163,-0.07266 -0.01077,-0.07399 -0.0099,-0.07533 -0.0089,-0.07669 -0.008,-0.07805 -0.007,-0.07943 -0.006,-0.08082 -0.0049,-0.08222 -0.0038,-0.08363 -0.0028,-0.08504 -0.0017,-0.08646 L 45.000271,12 v -2.8 0 l -4.36e-4,-0.05808 -0.0013,-0.058058 -0.0022,-0.058036 -0.003,-0.058014 -0.0039,-0.057993 -0.0047,-0.057971 -0.0055,-0.05795 -0.0063,-0.05793 -0.0071,-0.05791 -0.0079,-0.05789 -0.0086,-0.057872 -0.0093,-0.057853 -0.01003,-0.057836 -0.01069,-0.057819 -0.01132,-0.057803 -0.01193,-0.057787 -0.02554,-0.1155314 -0.02758,-0.1154795 -0.02935,-0.1154344 -0.03083,-0.1153965 -0.03203,-0.115366 L 44.717805,7.5806473 44.650271,7.35 l -0.06738,-0.2306472 -0.03293,-0.1153429 -0.03203,-0.115366 -0.03083,-0.1153965 -0.02935,-0.1154344 -0.02758,-0.1154795 -0.02554,-0.1155314 -0.01193,-0.057787 -0.01132,-0.057803 -0.01069,-0.057819 -0.01003,-0.057836 -0.0093,-0.057853 -0.0086,-0.057871 -0.0079,-0.05789 -0.0071,-0.05791 -0.0063,-0.05793 -0.0055,-0.05795 -0.0047,-0.057971 -0.0039,-0.057993 -0.003,-0.058014 -0.0022,-0.058036 -0.0013,-0.058058 L 44.300271,5.5 a 2,2 0 0 0 -2,-2 h -1.6 v 0 l -0.05247,5.45e-4 -0.05199,0.0016 -0.0515,0.0027 -0.05101,0.0038 -0.05053,0.0049 -0.05005,0.006 -0.04957,0.007 -0.0491,0.0081 -0.04862,0.0092 -0.04815,0.01022 -0.04769,0.01127 -0.04723,0.0123 -0.04677,0.01333 -0.04631,0.01434 -0.04587,0.01535 -0.04542,0.01634 -0.04499,0.01732 -0.04456,0.01829 -0.04413,0.01924 -0.04371,0.02018 -0.0433,0.02111 -0.04289,0.02202 -0.04249,0.02291 -0.0421,0.02379 -0.04172,0.02465 -0.04134,0.0255 -0.04097,0.02632 -0.04061,0.02713 -0.04026,0.02792 -0.03991,0.0287 -0.03957,0.02945 -0.03924,0.03019 -0.03892,0.03091 -0.03861,0.0316 -0.03831,0.03228 -0.03802,0.03294 -0.03773,0.03357 -0.03746,0.03419 -0.03719,0.03478 -0.03694,0.03536 -0.07315,0.07235 -0.07224,0.07438 -0.07141,0.07624 -0.07066,0.07792 -0.06999,0.07942 -0.0694,0.08073 -0.0689,0.08186 -0.06848,0.08281 -0.06814,0.08356 -0.06789,0.08413 -0.135347,0.169255 -0.135355,0.1692061 -0.06789,0.084129 -0.06814,0.083562 -0.06848,0.082806 -0.0689,0.081863 -0.0694,0.080733 -0.06999,0.079419 -0.07066,0.077921 -0.07141,0.076242 -0.07224,0.074383 -0.07315,0.072348 -0.03694,0.035356 -0.03719,0.034783 -0.03746,0.034188 -0.03773,0.033572 -0.03802,0.032936 -0.03831,0.032279 -0.03861,0.031602 -0.03893,0.030905 -0.03924,0.030188 -0.03957,0.029452 -0.03991,0.028697 -0.04025,0.027924 -0.04061,0.027132 -0.04097,0.026322 -0.04134,0.025495 -0.04172,0.02465 -0.0421,0.023788 -0.04249,0.02291 -0.04289,0.022016 -0.0433,0.021106 -0.04371,0.020181 -0.04413,0.019242 -0.04455,0.018288 -0.04499,0.017321 -0.04542,0.016341 -0.04587,0.015348 -0.04631,0.014344 -0.04677,0.013329 -0.04722,0.012303 -0.04769,0.011268 -0.04815,0.010223 -0.04862,0.00917 -0.0491,0.00811 -0.04957,0.00704 -0.05005,0.00597 -0.05053,0.00489 -0.05101,0.00381 -0.0515,0.00272 -0.05198,0.00164 L 35.514557,7 h -3 v 0 l -0.163541,-5.452e-4 -0.16344,-0.00164 -0.163338,-0.00272 -0.163238,-0.00381 -0.163137,-0.00489 -0.163036,-0.00597 -0.162937,-0.00704 -0.162838,-0.00811 -0.162739,-0.00917 -0.162641,-0.010223 -0.162544,-0.011268 -0.162448,-0.012303 -0.162352,-0.013329 -0.162258,-0.014344 -0.162164,-0.015348 -0.162072,-0.016341 -0.161981,-0.017321 -0.161892,-0.018288 -0.161802,-0.019242 -0.161715,-0.020181 -0.161629,-0.021106 -0.161545,-0.022016 -0.161461,-0.02291 -0.16138,-0.023792 -0.1613,-0.02465 L 28.293908,6.6479483 28.132764,6.621626 27.971695,6.594494 27.8107,6.56657 27.649777,6.5378725 27.488924,6.5084202 27.328139,6.478232 27.167421,6.4473272 27.006768,6.4157255 26.846178,6.3834468 26.685649,6.3505112 26.525179,6.3169391 26.364766,6.2827511 26.044105,6.2126121 25.723649,6.1402641 25.403382,6.0658811 25.083288,5.9896391 24.76335,5.9117181 24.443552,5.8322991 24.123875,5.7515661 23.804304,5.6697031 23.484821,5.5868971 22.846047,5.4192061 22.207414,5.25 21.568781,5.0807939 20.930007,4.913103 20.610524,4.830293 20.290952,4.748433 19.971276,4.667703 19.651478,4.588283 19.33154,4.510363 l -0.320094,-0.07624 -0.320267,-0.07438 -0.320456,-0.07235 -0.320662,-0.07014 -0.160412,-0.03419 -0.16047,-0.03357 -0.160529,-0.03294 -0.160591,-0.03228 -0.160653,-0.0316 -0.160718,-0.03091 -0.160785,-0.03019 -0.160853,-0.02945 -0.160923,-0.0287 -0.160995,-0.02792 -0.161069,-0.02713 -0.161144,-0.02632 -0.161221,-0.0255 -0.161299,-0.02465 -0.16138,-0.02379 -0.161461,-0.02291 -0.161545,-0.02202 -0.161629,-0.02111 -0.161715,-0.02018 -0.161803,-0.01924 -0.161891,-0.01829 -0.161981,-0.01732 -0.162072,-0.01634 -0.162165,-0.01535 -0.162258,-0.01434 -0.162352,-0.01333 -0.162447,-0.0123 -0.162544,-0.01127 -0.162642,-0.01022 -0.162739,-0.0092 -0.162837,-0.0081 -0.162937,-0.007 -0.163037,-0.006 -0.163136,-0.0049 -0.163238,-0.0038 -0.163338,-0.0027 -0.16344,-0.0016 L 11.900271,3.5 h -1.6 a 2,2 0 0 0 -2.0000002,2 v 0 l -4.36e-4,0.05808 -0.0013,0.058058 -0.0022,0.058036 -0.003,0.058014 -0.0039,0.057993 -0.0047,0.057971 -0.0055,0.05795 -0.0063,0.05793 -0.0071,0.05791 -0.0079,0.05789 -0.0086,0.057871 -0.0093,0.057853 -0.01003,0.057836 -0.01069,0.057819 -0.01132,0.057803 -0.01193,0.057787 -0.02554,0.1155314 -0.02758,0.1154795 -0.02935,0.1154344 -0.03083,0.1153965 -0.03203,0.115366 -0.033084,0.115344 -0.06738,0.2306472 -0.06738,0.2306472 -0.03293,0.1153429 -0.03203,0.115366 -0.03083,0.1153965 -0.02935,0.1154344 -0.02758,0.1154795 -0.02554,0.1155314 -0.01193,0.057787 -0.01132,0.057803 -0.01069,0.057819 -0.01003,0.057836 -0.0093,0.057853 -0.0086,0.057872 -0.0079,0.05789 -0.0071,0.05791 -0.0063,0.05793 -0.0055,0.05795 -0.0047,0.057971 -0.0039,0.057993 -0.003,0.058014 -0.0022,0.058036 -0.0013,0.058058 -5.9e-4,0.05808 v 2.8 0 l -5.53e-4,0.08788 -0.0017,0.08646 -0.0028,0.08504 -0.0038,0.08363 -0.0049,0.08222 -0.006,0.08082 -0.007,0.07943 -0.008,0.07805 -0.0089,0.07669 -0.0099,0.07533 -0.01077,0.07399 -0.01163,0.07266 -0.01244,0.07135 -0.01321,0.07005 -0.01393,0.06876 -0.01461,0.06748 -0.01523,0.06621 -0.0158,0.06496 -0.01632,0.06372 -0.01678,0.06248 -0.01718,0.06126 -0.01753,0.06004 -0.01781,0.05883 -0.01803,0.05763 -0.01819,0.05643 -0.01828,0.05523 -0.01831,0.05404 -0.01828,0.05284 -0.01817,0.05165 -0.018,0.05045 -0.01776,0.04925 -0.01745,0.04805 -0.01708,0.04684 -0.01663,0.04562 -0.01611,0.04439 -0.01552,0.04315 -0.01486,0.0419 -0.01413,0.04064 -0.01333,0.03936 -0.01246,0.03806 -0.01152,0.03675 -0.01051,0.03543 -0.0094,0.03408 -0.0083,0.03271 -0.0071,0.03132 -0.0058,0.02991 -0.0044,0.02848 -0.003,0.02702 -0.0015,0.02554 1.5e-5,0.02404 0.0016,0.02252 0.0033,0.02097 0.005,0.0194 0.0032,0.0091 0.0036,0.0087 0.0041,0.0083 0.0045,0.0079 0.005,0.0075 0.0055,0.0071 0.0059,0.0067 0.0064,0.0062 0.0069,0.0058 0.0074,0.0054 0.0079,0.005 0.0084,0.0046 0.0089,0.0041 0.0094,0.0037 0.0099,0.0033 0.01043,0.0028 0.01095,0.0024 0.01147,0.002 0.01199,0.0015 0.01251,0.0011 0.01303,6.55e-4 0.013618,2.19e-4 a 0.035,0.035 0 0 1 0,0.07 v 0 l -0.01356,2.19e-4 -0.01303,6.55e-4 -0.01251,0.0011 -0.01199,0.0015 -0.01147,0.002 -0.01095,0.0024 -0.01043,0.0028 -0.0099,0.0033 -0.0094,0.0037 -0.0089,0.0041 -0.0084,0.0046 -0.0079,0.005 -0.0074,0.0054 -0.0069,0.0058 -0.0064,0.0062 -0.0059,0.0067 -0.0055,0.0071 -0.005,0.0075 -0.0045,0.0079 -0.0041,0.0083 -0.0036,0.0087 -0.0032,0.0091 -0.005,0.0194 -0.0033,0.02097 -0.0016,0.02252 -1.5e-5,0.02404 0.0015,0.02554 0.003,0.02702 0.0044,0.02848 0.0058,0.02991 0.0071,0.03132 0.0083,0.03271 0.0094,0.03408 0.01051,0.03543 0.01152,0.03675 0.01246,0.03806 0.01333,0.03936 0.01413,0.04064 0.01486,0.0419 0.01552,0.04315 0.01611,0.04439 0.01663,0.04562 0.01708,0.04684 0.01745,0.04805 0.01776,0.04925 0.018,0.05045 0.01817,0.05165 0.01828,0.05284 0.01831,0.05404 0.01828,0.05523 0.01819,0.05643 0.01803,0.05763 0.01781,0.05883 0.01753,0.06004 0.01718,0.06126 0.01678,0.06248 0.01632,0.06372 0.0158,0.06496 0.01523,0.06621 0.01461,0.06748 0.01393,0.06876 0.01321,0.07005 0.01244,0.07135 0.01163,0.07266 0.01077,0.07399 0.0099,0.07533 0.0089,0.07669 0.008,0.07805 0.007,0.07943 0.006,0.08082 0.0049,0.08222 0.0038,0.08363 0.0028,0.08504 0.0017,0.08646 4.95e-4,0.08788 v 2.8 0 l 4.36e-4,0.05808 0.0013,0.05806 0.0022,0.05804 0.003,0.05801 0.0039,0.05799 0.0047,0.05797 0.0055,0.05795 0.0063,0.05793 0.0071,0.05791 0.0079,0.05789 0.0086,0.05787 0.0093,0.05785 0.01003,0.05784 0.01069,0.05782 0.01132,0.0578 0.01193,0.05779 0.02554,0.115531 0.02758,0.11548 0.02935,0.115434 0.03083,0.115397 0.03203,0.115366 0.03293,0.115343 0.067534,0.230647 0.06738,0.230647 0.03293,0.115343 0.03203,0.115366 0.03083,0.115397 0.02935,0.115434 0.02758,0.115479 0.02554,0.115532 0.01193,0.05779 0.01132,0.0578 0.01069,0.05782 0.01003,0.05784 0.0093,0.05785 0.0086,0.05787 0.0079,0.05789 0.0071,0.05791 0.0063,0.05793 0.0055,0.05795 0.0047,0.05797 0.0039,0.05799 0.003,0.05801 0.0022,0.05804 0.0013,0.05806 5.9e-4,0.05785 a 2,2 0 0 0 2.0000002,2 z"
     fill="rgb(0,0,0)"
     stroke-linecap="round"
     stroke-linejoin="round"
     id="path2"
     style="fill:none;stroke:#ff0000;stroke-width:0.2;stroke-dasharray:none;stroke-opacity:1" /></svg>
