<?xml version="1.0" encoding="UTF-8" standalone="no"?>
<!-- Generator: Fusion 360, Shaper Origin Export Add-In, Version 1.8.0  -->

<svg
   shaper:fusionaddin="version:1.8.0"
   width="4.9335cm"
   height="3.34cm"
   version="1.1"
   x="0cm"
   y="0cm"
   viewBox="0 0 4.9335 3.34"
   enable-background="new 0 0 4.9335 3.34"
   xml:space="preserve"
   id="svg1494"
   sodipodi:docname="tuner_mountingplate.svg"
   inkscape:version="1.2.2 (732a01da63, 2022-12-09)"
   xmlns:inkscape="http://www.inkscape.org/namespaces/inkscape"
   xmlns:sodipodi="http://sodipodi.sourceforge.net/DTD/sodipodi-0.dtd"
   xmlns="http://www.w3.org/2000/svg"
   xmlns:svg="http://www.w3.org/2000/svg"
   xmlns:shaper="http://www.shapertools.com/namespaces/shaper"><defs
     id="defs1498" /><sodipodi:namedview
     id="namedview1496"
     pagecolor="#505050"
     bordercolor="#eeeeee"
     borderopacity="1"
     inkscape:showpageshadow="0"
     inkscape:pageopacity="0"
     inkscape:pagecheckerboard="0"
     inkscape:deskcolor="#505050"
     inkscape:document-units="cm"
     showgrid="false"
     inkscape:zoom="2.8"
     inkscape:cx="34.107143"
     inkscape:cy="95.535714"
     inkscape:window-width="1920"
     inkscape:window-height="991"
     inkscape:window-x="-9"
     inkscape:window-y="-9"
     inkscape:window-maximized="1"
     inkscape:current-layer="svg1494" /><g
     id="g12010"><path
       d="M-3.8185,-1.67 L1.115,-1.67 1.115,1.67 -3.8185,1.67 -3.8185,-1.67z"
       transform="matrix(1,0,0,-1,3.8185,1.67)"
       fill="rgb(0,0,0)"
       stroke-linecap="round"
       stroke-linejoin="round"
       id="path1482"
       style="fill:none;stroke:#ff0000;stroke-opacity:1;stroke-width:0.2;stroke-dasharray:none" /><path
       d="M-3.16,0.9 a0.075,0.075 0 1,1 0.15,0 a0.075,0.075 0 1,1 -0.15,0z"
       transform="matrix(1,0,0,-1,3.8185,1.67)"
       fill="rgb(255,255,255)"
       stroke="rgb(0,0,0)"
       stroke-width="0.0010cm"
       stroke-linecap="round"
       stroke-linejoin="round"
       id="path1484"
       style="fill:none;stroke:#ff6400;stroke-opacity:1;stroke-width:0.2;stroke-dasharray:none" /><path
       d="M0.44,1.05 a0.075,0.075 0 1,1 0.15,0 a0.075,0.075 0 1,1 -0.15,0z"
       transform="matrix(1,0,0,-1,3.8185,1.67)"
       fill="rgb(255,255,255)"
       stroke="rgb(0,0,0)"
       stroke-width="0.0010cm"
       stroke-linecap="round"
       stroke-linejoin="round"
       id="path1486"
       style="fill:none;stroke:#ff6400;stroke-opacity:1;stroke-width:0.2;stroke-dasharray:none" /><path
       d="M-3.16,-0.9 a0.075,0.075 0 1,1 0.15,0 a0.075,0.075 0 1,1 -0.15,0z"
       transform="matrix(1,0,0,-1,3.8185,1.67)"
       fill="rgb(255,255,255)"
       stroke="rgb(0,0,0)"
       stroke-width="0.0010cm"
       stroke-linecap="round"
       stroke-linejoin="round"
       id="path1488"
       style="fill:none;stroke:#ff6400;stroke-opacity:1;stroke-width:0.2;stroke-dasharray:none" /><path
       d="M0.44,-1.05 a0.075,0.075 0 1,1 0.15,0 a0.075,0.075 0 1,1 -0.15,0z"
       transform="matrix(1,0,0,-1,3.8185,1.67)"
       fill="rgb(255,255,255)"
       stroke="rgb(0,0,0)"
       stroke-width="0.0010cm"
       stroke-linecap="round"
       stroke-linejoin="round"
       id="path1490"
       style="fill:none;stroke:#ff6400;stroke-opacity:1;stroke-width:0.2;stroke-dasharray:none" /><path
       d="M-2.855,-0 a0.87,0.87 0 1,1 1.74,0 a0.87,0.87 0 1,1 -1.74,0z"
       transform="matrix(1,0,0,-1,3.8185,1.67)"
       fill="rgb(255,255,255)"
       stroke="rgb(0,0,0)"
       stroke-width="0.0010cm"
       stroke-linecap="round"
       stroke-linejoin="round"
       id="path1492"
       style="fill:none;stroke:#ff6400;stroke-opacity:1;stroke-width:0.2;stroke-dasharray:none" /></g></svg>
