<?xml version="1.0" encoding="UTF-8" standalone="no"?>
<!-- Generator: Fusion 360, Shaper Origin Export Add-In, Version 1.8.0  -->

<svg
   shaper:fusionaddin="version:1.8.0"
   width="21.6cm"
   height="2.4cm"
   version="1.1"
   x="0cm"
   y="0cm"
   viewBox="0 0 21.6 2.4"
   enable-background="new 0 0 21.6 2.4"
   xml:space="preserve"
   id="svg13273"
   sodipodi:docname="Connector_plate_Faces.svg"
   inkscape:version="1.2.2 (732a01da63, 2022-12-09)"
   xmlns:inkscape="http://www.inkscape.org/namespaces/inkscape"
   xmlns:sodipodi="http://sodipodi.sourceforge.net/DTD/sodipodi-0.dtd"
   xmlns="http://www.w3.org/2000/svg"
   xmlns:svg="http://www.w3.org/2000/svg"
   xmlns:shaper="http://www.shapertools.com/namespaces/shaper"><defs
     id="defs13277" /><sodipodi:namedview
     id="namedview13275"
     pagecolor="#505050"
     bordercolor="#eeeeee"
     borderopacity="1"
     inkscape:showpageshadow="0"
     inkscape:pageopacity="0"
     inkscape:pagecheckerboard="0"
     inkscape:deskcolor="#505050"
     inkscape:document-units="cm"
     showgrid="false"
     inkscape:zoom="1.6046489"
     inkscape:cx="324.37002"
     inkscape:cy="-5.2971089"
     inkscape:window-width="1920"
     inkscape:window-height="991"
     inkscape:window-x="-9"
     inkscape:window-y="-9"
     inkscape:window-maximized="1"
     inkscape:current-layer="svg13273" /><g
     id="g13402"
     style="fill:none;stroke:#000000;stroke-opacity:1;stroke-width:0.1;stroke-dasharray:none"><path
       d="M-10.8,-1.2 L10.8,-1.2 10.8,1.2 -10.8,1.2 -10.8,-1.2z"
       transform="matrix(1,0,0,-1,10.8,1.2)"
       fill="rgb(0,0,0)"
       stroke-linecap="round"
       stroke-linejoin="round"
       id="path13261"
       style="fill:none;stroke:#000000;stroke-opacity:1;stroke-width:0.1;stroke-dasharray:none" /><path
       d="M9.6299999,0 a0.17,0.17 0 1,1 0.34,0 a0.17,0.17 0 1,1 -0.34,0z"
       transform="matrix(1,0,0,-1,10.8,1.2)"
       fill="rgb(255,255,255)"
       stroke="rgb(0,0,0)"
       stroke-width="0.0010cm"
       stroke-linecap="round"
       stroke-linejoin="round"
       id="path13263"
       style="fill:none;stroke:#000000;stroke-opacity:1;stroke-width:0.1;stroke-dasharray:none" /><path
       d="M3.5926,-0.0106 A0.615,0.615 12.6803835 0,0 3.5926,-0.2806 L3.5926,-0.6956 A0.05,0.05 0 0,0 3.5426,-0.7456 L3.1276,-0.7456 A0.615,0.615 282.6803835 0,0 2.8576,-0.7456 L2.4426,-0.7456 A0.05,0.05 270 0,0 2.3926,-0.6956 L2.3926,-0.2806 A0.615,0.615 192.6803835 0,0 2.3926,-0.0106 L2.3926,0.3044 A0.05,0.05 180 0,0 2.4426,0.3544 L2.6345148,0.3544 A0.615,0.615 125.6091162 0,0 3.3506852,0.3544 L3.5426,0.3544 A0.05,0.05 90 0,0 3.5926,0.3044 L3.5926,-0.0106z"
       transform="matrix(1,0,0,-1,10.8,1.2)"
       fill="rgb(255,255,255)"
       stroke="rgb(0,0,0)"
       stroke-width="0.0010cm"
       stroke-linecap="round"
       stroke-linejoin="round"
       id="path13265"
       style="fill:none;stroke:#000000;stroke-opacity:1;stroke-width:0.1;stroke-dasharray:none" /><path
       d="M-6.71614,0.8465 L-4.93714,0.8465 A0.05,0.05 90 0,0 -4.88714,0.7965 L-4.88714,-0.6905 A0.05,0.05 0 0,0 -4.93714,-0.7405 L-6.71614,-0.7405 A0.05,0.05 270 0,0 -6.76614,-0.6905 L-6.76614,0.7965 A0.05,0.05 180 0,0 -6.71614,0.8465z"
       transform="matrix(1,0,0,-1,10.8,1.2)"
       fill="rgb(255,255,255)"
       stroke="rgb(0,0,0)"
       stroke-width="0.0010cm"
       stroke-linecap="round"
       stroke-linejoin="round"
       id="path13267"
       style="fill:none;stroke:#000000;stroke-opacity:1;stroke-width:0.1;stroke-dasharray:none" /><path
       d="M-9.9699999,0 a0.17,0.17 0 1,1 0.34,0 a0.17,0.17 0 1,1 -0.34,0z"
       transform="matrix(1,0,0,-1,10.8,1.2)"
       fill="rgb(255,255,255)"
       stroke="rgb(0,0,0)"
       stroke-width="0.0010cm"
       stroke-linecap="round"
       stroke-linejoin="round"
       id="path13269"
       style="fill:none;stroke:#000000;stroke-opacity:1;stroke-width:0.1;stroke-dasharray:none" /><path
       d="M4.8975,-0.6666 L4.8975,1.099117 A0.05,0.05 180 0,0 4.9475,1.149117 L5.9145,1.149117 A0.05,0.05 90 0,0 5.9645,1.099117 L5.9645,-0.6666 A0.05,0.05 0 0,0 5.9145,-0.7166 L4.9475,-0.7166 A0.05,0.05 270 0,0 4.8975,-0.6666z"
       transform="matrix(1,0,0,-1,10.8,1.2)"
       fill="rgb(255,255,255)"
       stroke="rgb(0,0,0)"
       stroke-width="0.0010cm"
       stroke-linecap="round"
       stroke-linejoin="round"
       id="path13271"
       style="fill:none;stroke:#000000;stroke-opacity:1;stroke-width:0.1;stroke-dasharray:none" /></g></svg>
