<?xml version="1.0" encoding="UTF-8" standalone="no"?>
<!-- Generator: Fusion 360, Shaper Origin Export Add-In, Version 1.8.0  -->

<svg
   shaper:fusionaddin="version:1.8.0"
   width="128cm"
   height="36cm"
   version="1.1"
   x="0cm"
   y="0cm"
   viewBox="0 0 128 36"
   enable-background="new 0 0 128 36"
   xml:space="preserve"
   id="svg38"
   sodipodi:docname="corpus_2_Faces.svg"
   inkscape:version="1.2.2 (732a01da63, 2022-12-09)"
   xmlns:inkscape="http://www.inkscape.org/namespaces/inkscape"
   xmlns:sodipodi="http://sodipodi.sourceforge.net/DTD/sodipodi-0.dtd"
   xmlns="http://www.w3.org/2000/svg"
   xmlns:svg="http://www.w3.org/2000/svg"
   xmlns:shaper="http://www.shapertools.com/namespaces/shaper"><defs
     id="defs42" /><sodipodi:namedview
     id="namedview40"
     pagecolor="#505050"
     bordercolor="#eeeeee"
     borderopacity="1"
     inkscape:showpageshadow="0"
     inkscape:pageopacity="0"
     inkscape:pagecheckerboard="0"
     inkscape:deskcolor="#505050"
     inkscape:document-units="cm"
     showgrid="false"
     inkscape:zoom="0.27078451"
     inkscape:cx="2306.2619"
     inkscape:cy="681.35361"
     inkscape:window-width="1920"
     inkscape:window-height="991"
     inkscape:window-x="-9"
     inkscape:window-y="-9"
     inkscape:window-maximized="1"
     inkscape:current-layer="svg38" /><g
     id="g289"
     style="fill:none;stroke:#000000;stroke-opacity:1;stroke-width:0.1;stroke-dasharray:none"><path
       d="M-63.4304359,26.4254109 L-46.7304359,26.4254109 A1,1 90 0,0 -45.7304359,25.4254109 L-45.7304359,9.8254109 A1,1 0 0,0 -46.7304359,8.8254109 L-63.4304359,8.8254109 -63.4304359,6.8254109 -63.7304359,6.8254109 -63.7304359,1.0254109 A1.4,1.4 180 0,1 -62.3304359,-0.3745891 L62.8695641,-0.3745891 A1.4,1.4 270 0,1 64.2695641,1.0254109 L64.2695641,34.2254109 A1.4,1.4 0 0,1 62.8695641,35.6254109 L-62.3304359,35.6254109 A1.4,1.4 90 0,1 -63.7304359,34.2254109 L-63.7304359,28.4254109 -63.4304359,28.4254109 -63.4304359,26.4254109z"
       transform="matrix(1,0,0,-1,63.7304359,35.6254109)"
       fill="rgb(0,0,0)"
       stroke-linecap="round"
       stroke-linejoin="round"
       id="path2"
       style="fill:none;stroke:#000000;stroke-opacity:1;stroke-width:0.1;stroke-dasharray:none" /><path
       d="M61.3745641,33.1254109 a0.395,0.395 0 1,1 0.79,0 a0.395,0.395 0 1,1 -0.79,0z"
       transform="matrix(1,0,0,-1,63.7304359,35.6254109)"
       fill="rgb(255,255,255)"
       stroke="rgb(0,0,0)"
       stroke-width="0.0010cm"
       stroke-linecap="round"
       stroke-linejoin="round"
       id="path4"
       style="fill:none;stroke:#000000;stroke-opacity:1;stroke-width:0.1;stroke-dasharray:none" /><path
       d="M21.2078974,33.1254109 a0.395,0.395 0 1,1 0.79,0 a0.395,0.395 0 1,1 -0.79,0z"
       transform="matrix(1,0,0,-1,63.7304359,35.6254109)"
       fill="rgb(255,255,255)"
       stroke="rgb(0,0,0)"
       stroke-width="0.0010cm"
       stroke-linecap="round"
       stroke-linejoin="round"
       id="path6"
       style="fill:none;stroke:#000000;stroke-opacity:1;stroke-width:0.1;stroke-dasharray:none" /><path
       d="M-21.4587692,33.1254109 a0.395,0.395 0 1,1 0.79,0 a0.395,0.395 0 1,1 -0.79,0z"
       transform="matrix(1,0,0,-1,63.7304359,35.6254109)"
       fill="rgb(255,255,255)"
       stroke="rgb(0,0,0)"
       stroke-width="0.0010cm"
       stroke-linecap="round"
       stroke-linejoin="round"
       id="path8"
       style="fill:none;stroke:#000000;stroke-opacity:1;stroke-width:0.1;stroke-dasharray:none" /><path
       d="M-21.4587692,2.1254109 a0.395,0.395 0 1,1 0.79,0 a0.395,0.395 0 1,1 -0.79,0z"
       transform="matrix(1,0,0,-1,63.7304359,35.6254109)"
       fill="rgb(255,255,255)"
       stroke="rgb(0,0,0)"
       stroke-width="0.0010cm"
       stroke-linecap="round"
       stroke-linejoin="round"
       id="path10"
       style="fill:none;stroke:#000000;stroke-opacity:1;stroke-width:0.1;stroke-dasharray:none" /><path
       d="M-61.6254359,33.1254109 a0.395,0.395 0 1,1 0.79,0 a0.395,0.395 0 1,1 -0.79,0z"
       transform="matrix(1,0,0,-1,63.7304359,35.6254109)"
       fill="rgb(255,255,255)"
       stroke="rgb(0,0,0)"
       stroke-width="0.0010cm"
       stroke-linecap="round"
       stroke-linejoin="round"
       id="path12"
       style="fill:none;stroke:#000000;stroke-opacity:1;stroke-width:0.1;stroke-dasharray:none" /><path
       d="M61.3745641,2.1254109 a0.395,0.395 0 1,1 0.79,0 a0.395,0.395 0 1,1 -0.79,0z"
       transform="matrix(1,0,0,-1,63.7304359,35.6254109)"
       fill="rgb(255,255,255)"
       stroke="rgb(0,0,0)"
       stroke-width="0.0010cm"
       stroke-linecap="round"
       stroke-linejoin="round"
       id="path14"
       style="fill:none;stroke:#000000;stroke-opacity:1;stroke-width:0.1;stroke-dasharray:none" /><path
       d="M21.2078974,2.1254109 a0.395,0.395 0 1,1 0.79,0 a0.395,0.395 0 1,1 -0.79,0z"
       transform="matrix(1,0,0,-1,63.7304359,35.6254109)"
       fill="rgb(255,255,255)"
       stroke="rgb(0,0,0)"
       stroke-width="0.0010cm"
       stroke-linecap="round"
       stroke-linejoin="round"
       id="path16"
       style="fill:none;stroke:#000000;stroke-opacity:1;stroke-width:0.1;stroke-dasharray:none" /><path
       d="M-61.6254359,2.1254109 a0.395,0.395 0 1,1 0.79,0 a0.395,0.395 0 1,1 -0.79,0z"
       transform="matrix(1,0,0,-1,63.7304359,35.6254109)"
       fill="rgb(255,255,255)"
       stroke="rgb(0,0,0)"
       stroke-width="0.0010cm"
       stroke-linecap="round"
       stroke-linejoin="round"
       id="path18"
       style="fill:none;stroke:#000000;stroke-opacity:1;stroke-width:0.1;stroke-dasharray:none" /><path
       d="M22.2278974,32.0428791 L22.2278974,32.0428791 22.2748475,32.0709711 22.3205308,32.1003125 22.3649685,32.1309305 22.4081815,32.1628523 22.4501906,32.1961051 22.491017,32.2307161 22.5306816,32.2667123 22.5692052,32.3041211 22.606609,32.3429695 22.6429138,32.3832848 22.6781406,32.4250941 22.7121693,32.4682385 22.7447362,32.5123019 22.775894,32.5572265 22.8057067,32.6029684 22.8342379,32.6494832 22.8615516,32.6967269 22.8877115,32.7446553 22.9127815,32.7932243 22.9368253,32.8423897 22.9599068,32.8921075 22.9820898,32.9423334 23.003441,32.9930341 23.0240284,33.0441822 23.0439131,33.0957259 23.0631558,33.1476128 23.0999589,33.2522065 23.1349247,33.3575439 23.16854,33.4632059 23.2012917,33.568773 23.2336666,33.6738259 23.2661516,33.7779452 23.2992335,33.8807118 23.3333992,33.9817061 23.3510406,34.0314077 23.3691356,34.080509 23.3877452,34.1289584 23.4069384,34.1767267 23.4267819,34.2237707 23.4473389,34.2700352 23.4686725,34.3154653 23.4908458,34.3600057 23.5139222,34.4036013 23.5379647,34.446197 23.5630365,34.4877377 23.5892008,34.5281683 23.6165207,34.5674336 23.6450494,34.605465 23.6747956,34.6421426 23.70581,34.6774143 23.7381506,34.7112385 23.7718756,34.7435736 23.807043,34.774378 23.8437109,34.8036103 23.8819374,34.8312288 23.9216885,34.8571351 23.9216885,34.8571351 24.1665934,34.8534055 24.4108331,34.8495867 24.6544057,34.8456774 24.8973094,34.8416764 25.1395423,34.8375824 25.3811026,34.8333942 25.6219885,34.8291106 25.8621982,34.8247304 26.1017296,34.8202524 26.3405811,34.8156753 26.5787508,34.8109979 26.8162368,34.806219 27.0530374,34.8013374 27.2891505,34.7963518 27.5245745,34.791261 27.7593074,34.7860639 27.9933475,34.7807591 28.2266928,34.7753455 28.4593416,34.7698218 28.6912919,34.7641868 28.922542,34.7584394 29.1530899,34.7525782 29.382934,34.746602 29.6120722,34.7405097 29.8405028,34.7343 30.0682239,34.7279717 30.2952337,34.7215235 30.5215304,34.7149543 30.747112,34.7082628 30.9719767,34.7014478 31.1961228,34.694508 31.4195483,34.6874423 31.6422514,34.6802495 31.8642303,34.6729282 32.0854832,34.6654773 32.3060081,34.6578956 32.5258032,34.6501819 32.7448667,34.6423348 32.9631968,34.6343533 33.1807916,34.626236 33.3976492,34.6179818 33.6137679,34.6095894 33.8291457,34.6010577 34.0437808,34.5923853 34.2576715,34.5835711 34.4708157,34.5746138 34.6832118,34.5655122 34.8948578,34.5562652 35.105752,34.5468714 35.3158924,34.5373297 35.5252772,34.5276388 35.7339045,34.5177975 35.9417727,34.5078047 36.1488797,34.4976589 36.3552237,34.4873592 36.5608029,34.4769041 36.7656155,34.4662926 36.9696596,34.4555233 37.1729334,34.4445951 37.375435,34.4335068 37.5771626,34.422257 37.7781143,34.4108446 37.9782883,34.3992684 38.1776827,34.3875272 38.3762958,34.3756197 38.5741256,34.3635447 38.7711703,34.351301 38.9674281,34.3388873 39.1628971,34.3263025 39.3575755,34.3135452 39.5514614,34.3006144 39.744553,34.2875088 39.9368485,34.2742271 40.128346,34.2607681 40.3190436,34.2471306 40.5089396,34.2333135 40.698032,34.2193154 40.8863191,34.2051351 41.0737989,34.1907714 41.2604697,34.1762232 41.4463296,34.1614891 41.6313767,34.1465679 41.8156093,34.1314585 41.9990254,34.1161597 42.1816232,34.10067 42.3634009,34.0849885 42.5443566,34.0691138 42.7244885,34.0530447 42.9037948,34.03678 43.0822736,34.0203185 43.259923,34.003659 43.4367412,33.9868002 43.6127265,33.9697409 43.7878768,33.9524799 43.9621904,33.9350159 44.1356654,33.9173478 44.3083001,33.8994743 44.4800925,33.8813942 44.8219183,33.8445279 44.9933485,33.8255873 45.1653083,33.8062787 45.3377732,33.7865966 45.5107186,33.7665354 45.8579534,33.7252534 46.2068165,33.6823879 46.5571119,33.6378942 46.9086437,33.5917276 47.2612159,33.5438434 47.6146325,33.494197 47.9686974,33.4427436 48.3232147,33.3894386 48.6779883,33.3342371 49.0328223,33.2770946 49.3875207,33.2179663 49.7418874,33.1568075 50.0957265,33.0935736 50.4488419,33.0282198 50.625067,32.994734 50.8010377,32.9607014 50.9767295,32.9261165 51.1521179,32.8909738 51.3271783,32.8552675 51.5018864,32.8189921 51.6762175,32.7821421 51.8501472,32.7447118 52.023651,32.7066957 52.1967044,32.6680882 52.3692829,32.6288836 52.5413619,32.5890764 52.7129171,32.5486611 52.8839238,32.5076319 53.0543576,32.4659834 53.224194,32.4237099 53.3934085,32.3808059 53.5619766,32.3372658 53.7298738,32.2930839 53.8970755,32.2482548 54.0635573,32.2027727 54.2292948,32.1566322 54.3942633,32.1098276 54.5584384,32.0623533 54.7223157,32.0140495 54.8049127,31.9893484 54.8880021,31.9642541 55.0555677,31.9128775 55.2248317,31.8599032 55.3956138,31.8053143 55.5677333,31.749094 55.7410099,31.6912256 55.9152629,31.6316925 56.0903118,31.5704777 56.2659762,31.5075646 56.4420755,31.4429364 56.6184291,31.3765764 56.7948567,31.3084679 56.9711776,31.238594 57.1472113,31.166938 57.3227774,31.0934832 57.4976952,31.0182128 57.6717844,30.9411101 57.8448643,30.8621583 58.0167544,30.7813408 58.1872743,30.6986406 58.271964,30.6565793 58.3562434,30.6140411 58.44009,30.5710239 58.5234812,30.5275256 58.6063945,30.483544 58.6888072,30.4390772 58.7706968,30.394123 58.8520408,30.3486792 58.9328166,30.3027439 59.0130016,30.256315 59.0925733,30.2093902 59.1715089,30.1619678 59.2494994,30.1142284 59.3262856,30.066337 59.4018799,30.018292 59.4762948,29.9700918 59.5495427,29.9217351 59.6216361,29.8732203 59.6925874,29.8245458 59.762409,29.7757102 59.8311134,29.7267119 59.898713,29.6775495 59.9652204,29.6282214 60.0306479,29.5787261 60.0950079,29.5290622 60.158313,29.479228 60.2205755,29.4292221 60.2818079,29.3790431 60.3420227,29.3286892 60.4012323,29.2781592 60.4594492,29.2274514 60.5166857,29.1765643 60.5729544,29.1254964 60.6282676,29.0742463 60.6826379,29.0228124 60.7360776,28.9711932 60.7885993,28.9193871 60.8402153,28.8673928 60.8909382,28.8152086 60.9407802,28.7628331 60.989754,28.7102647 61.0378719,28.6575019 61.0851465,28.6045433 61.1315902,28.551387 61.177302,28.4979298 61.2223592,28.4440844 61.2667669,28.389845 61.3105305,28.3352056 61.3536551,28.2801604 61.396146,28.2247035 61.4380083,28.1688289 61.4792473,28.1125308 61.5198681,28.0558032 61.5598761,27.9986403 61.5992764,27.9410362 61.6380743,27.8829849 61.6762749,27.8244806 61.7138835,27.7655173 61.7509053,27.7060892 61.7873455,27.6461904 61.8232093,27.5858149 61.8585019,27.5249568 61.8932286,27.4636104 61.9273946,27.4017695 61.961005,27.3394285 61.9940652,27.2765813 62.0265802,27.213222 62.0585554,27.1493448 62.089996,27.0849438 62.1209071,27.020013 62.151294,26.9545466 62.1811619,26.8885386 62.210516,26.8219832 62.2393615,26.7548744 62.2677037,26.6872064 62.2955477,26.6189733 62.3228989,26.5501691 62.3497623,26.4807879 62.3761432,26.4108239 62.4020468,26.3402712 62.4274784,26.2691238 62.4524431,26.1973759 62.4769462,26.1250215 62.5009943,26.0520505 62.5246285,25.9783413 62.5478678,25.9038306 62.5707141,25.828506 62.5931696,25.7523551 62.6152362,25.6753653 62.6369159,25.5975243 62.6582108,25.5188195 62.679123,25.4392386 62.6996543,25.358769 62.719807,25.2773984 62.7395829,25.1951142 62.7589841,25.1119039 62.7780126,25.0277552 62.7966705,24.9426556 62.8149597,24.8565927 62.8328824,24.7695539 62.8504405,24.6815268 62.867636,24.5924989 62.884471,24.5024579 62.9009475,24.4113912 62.9170676,24.3192864 62.9328332,24.226131 62.9482463,24.1319127 62.9633091,24.0366188 62.9780235,23.940237 62.9923915,23.8427548 63.0064152,23.7441598 63.0200966,23.6444394 63.0334377,23.5435813 63.0464405,23.441573 63.0591072,23.338402 63.0714396,23.2340559 63.0834398,23.1285222 63.0951099,23.0217884 63.1064518,22.9138422 63.1174677,22.804671 63.1281594,22.6942624 63.1385291,22.582604 63.1485788,22.4696832 63.1583104,22.3554876 63.1677261,22.2400049 63.1768278,22.1232224 63.1856176,22.0051278 63.1940974,21.8857086 63.2022694,21.7649523 63.2101355,21.6428465 63.2176978,21.5193787 63.2249583,21.3945366 63.2319189,21.2683075 63.2385818,21.1406791 63.244949,21.0116389 63.2510224,20.8811745 63.2568042,20.7492733 63.2622963,20.615923 63.2675007,20.4811111 63.2724196,20.3448251 63.2770548,20.2070526 63.2814085,20.0677811 63.2854826,19.9269982 63.2892792,19.7846913 63.2928003,19.6408481 63.296048,19.4954561 63.2990242,19.3485028 63.3017309,19.1999758 63.3041703,19.0498627 63.3063443,18.8981509 63.308255,18.744828 63.3099043,18.5898815 63.3112943,18.4332991 63.3124271,18.2750682 63.3133046,18.1151764 63.3139289,17.9536112 63.314302,17.7903602 63.3144259,17.6254109 63.3144259,17.6254109 63.3143608,17.5042854 63.3141646,17.3839979 63.313836,17.2645445 63.3133737,17.1459214 63.3127765,17.0281249 63.3120429,16.9111511 63.3111718,16.7949961 63.3101619,16.6796563 63.3090117,16.5651277 63.3077201,16.4514066 63.3062858,16.3384892 63.3047074,16.2263717 63.3029836,16.1150502 63.3011132,16.0045209 63.2990948,15.8947801 63.2969272,15.7858239 63.2946091,15.6776485 63.2921391,15.5702502 63.289516,15.463625 63.2867385,15.3577693 63.2838052,15.2526791 63.2807149,15.1483508 63.2774663,15.0447804 63.2740581,14.9419641 63.270489,14.8398982 63.2667577,14.7385789 63.2628629,14.6380024 63.2588032,14.5381647 63.2545775,14.4390622 63.2501844,14.340691 63.2456226,14.2430473 63.2408908,14.1461273 63.2359877,14.0499273 63.2309121,13.9544433 63.2256626,13.8596716 63.2202379,13.7656083 63.2146367,13.6722498 63.2088578,13.579592 63.2028998,13.4876314 63.1967615,13.396364 63.1904415,13.305786 63.1839385,13.2158936 63.1772513,13.1266831 63.1703786,13.0381505 63.163319,12.9502922 63.1560713,12.8631043 63.1486342,12.7765829 63.1410063,12.6907243 63.1331864,12.6055247 63.1251732,12.5209803 63.1169653,12.4370872 63.1085616,12.3538417 63.0999606,12.2712399 63.0911611,12.189278 63.0821618,12.1079523 63.0729615,12.0272589 63.0635587,11.947194 63.0539522,11.8677538 63.0441407,11.7889344 63.034123,11.7107322 63.0238976,11.6331433 63.0134634,11.5561638 63.002819,11.4797899 62.9919632,11.404018 62.9808945,11.328844 62.9696118,11.2542644 62.9581138,11.1802751 62.9463991,11.1068725 62.9344664,11.0340527 62.9223145,10.9618118 62.909942,10.8901462 62.8973477,10.819052 62.8845302,10.7485254 62.8714883,10.6785625 62.8582207,10.6091596 62.844726,10.5403129 62.8170504,10.4042726 62.7884511,10.2704114 62.7589177,10.1386986 62.72844,10.0091038 62.6970074,9.8815966 62.6646097,9.7561464 62.6312242,9.6326759 62.5967866,9.5109591 62.5612744,9.3909484 62.5246707,9.2726184 62.4869584,9.1559436 62.4481206,9.0408984 62.4081402,8.9274575 62.3670004,8.8155952 62.3246841,8.7052862 62.2811743,8.5965049 62.2364541,8.4892259 62.1905064,8.3834236 62.1433144,8.2790725 62.094861,8.1761472 62.0451292,8.0746222 61.994102,7.974472 61.9417625,7.875671 61.8880937,7.7781939 61.8330786,7.6820151 61.7767002,7.5871091 61.7189416,7.4934505 61.6597857,7.4010137 61.5992156,7.3097733 61.5372142,7.2197037 61.4737647,7.1307795 61.4088501,7.0429752 61.3423546,6.9561382 61.2740093,6.8699435 61.2037619,6.7843686 61.1315705,6.6994049 61.0573931,6.615044 60.9811879,6.5312772 60.9029131,6.4480961 60.8225267,6.3654922 60.7399869,6.2834569 60.6552518,6.2019817 60.5682795,6.1210581 60.4790281,6.0406775 60.4335347,6.0006882 60.3874558,5.9608314 60.3407862,5.9211062 60.2935207,5.8815114 60.2456539,5.842046 60.1971808,5.8027088 60.1480961,5.763499 60.0983944,5.7244152 60.0480707,5.6854566 59.9971196,5.6466221 59.9455359,5.6079105 59.8933144,5.5693208 59.8404498,5.530852 59.786937,5.492503 59.7327706,5.4542727 59.6779455,5.41616 59.6224564,5.3781639 59.5662981,5.3402833 59.5094653,5.3025172 59.4519528,5.2648645 59.3937553,5.2273241 59.3348677,5.1898949 59.2752848,5.152576 59.2150899,5.1154247 59.0931229,5.0417851 58.9690884,4.9690252 58.8430289,4.8971403 58.7149873,4.8261253 58.5850061,4.7559754 58.453128,4.6866856 58.3193958,4.6182512 58.183852,4.550667 58.0465395,4.4839283 57.9075008,4.4180301 57.7667786,4.3529676 57.6244156,4.2887357 57.4804545,4.2253297 57.3349379,4.1627445 57.1879086,4.1009754 57.0394091,4.0400173 56.8894823,3.9798654 56.7381707,3.9205147 56.5855171,3.8619604 56.4315641,3.8041975 56.2763543,3.7472212 56.1199306,3.6910265 55.9623354,3.6356085 55.8036116,3.5809623 55.6438018,3.527083 55.4829487,3.4739657 55.3210949,3.4216055 55.1582832,3.3699975 54.9945561,3.3191367 54.8299564,3.2690183 54.6645268,3.2196373 54.4983099,3.1709888 54.3313485,3.123068 54.1636851,3.0758699 53.9953625,3.0293896 53.8264233,2.9836222 53.6569102,2.9385628 53.4868659,2.8942065 53.3163331,2.8505484 53.1453545,2.8075835 52.9739726,2.765307 52.8022303,2.723714 52.6301701,2.6827994 52.4578348,2.6425586 52.285267,2.6029864 52.1125095,2.564078 51.9396048,2.5258286 51.7665956,2.4882332 51.5935247,2.4512868 51.4204347,2.4149846 51.2473683,2.3793217 51.0743682,2.3442932 50.901477,2.3098941 50.7287374,2.2761196 50.5561922,2.2429647 50.3838838,2.2104245 50.2118115,2.1784858 50.0390306,2.1469599 49.8651346,2.1157687 49.6901129,2.0849107 49.5139547,2.0543842 49.3366492,2.0241877 49.1581856,1.9943195 48.9785533,1.964778 48.7977414,1.9355615 48.6157392,1.9066686 48.4325359,1.8780976 48.2481208,1.8498468 48.0624831,1.8219147 47.8756121,1.7942996 47.6874971,1.767 47.4981271,1.7400142 47.3074916,1.7133407 47.1155797,1.6869778 46.9223807,1.6609238 46.7278838,1.6351773 46.5320783,1.6097366 46.3349534,1.5846 46.1364983,1.559766 45.9367024,1.535233 45.7355548,1.5109993 45.5330448,1.4870634 45.3291616,1.4634236 45.1238945,1.4400783 44.9172327,1.4170259 44.7091655,1.3942649 44.4996821,1.3717935 44.2887717,1.3496102 44.0764236,1.3277134 43.8626271,1.3061015 43.6473713,1.2847728 43.4306456,1.2637257 43.2124391,1.2429587 42.9927412,1.2224702 42.771541,1.2022584 42.5488277,1.1823219 42.3245908,1.1626589 42.0988193,1.143268 41.8715025,1.1241474 41.6426297,1.1052956 41.4121901,1.086711 41.180173,1.0683919 40.9465676,1.0503368 40.7113631,1.032544 40.4745488,1.015012 40.2361139,0.997739 39.9960477,0.9807236 39.7543394,0.963964 39.5109783,0.9474588 39.2659536,0.9312062 39.0192546,0.9152047 38.7708704,0.8994526 38.5207903,0.8839484 38.2690037,0.8686905 38.0154996,0.8536772 37.7602675,0.8389069 37.5032964,0.824378 37.2445757,0.8100889 36.9840946,0.796038 36.7218423,0.7822237 36.4578081,0.7686444 36.1919812,0.7552985 35.9243509,0.7421843 35.6549064,0.7293002 35.383637,0.7166447 35.1105318,0.7042161 34.8355802,0.6920129 34.5587714,0.6800333 34.2800946,0.6682759 33.9995391,0.6567389 33.7170941,0.6454208 33.4327489,0.63432 33.1464927,0.6234349 32.8583147,0.6127638 32.5682042,0.6023052 32.2761504,0.5920574 31.9821426,0.5820188 31.6861701,0.5721878 31.388222,0.5625629 31.0882876,0.5531423 30.7863561,0.5439246 30.4824169,0.534908 30.1764591,0.526091 29.8684719,0.5174719 29.5584447,0.5090492 29.2463667,0.5008213 28.9322271,0.4927864 28.6160151,0.4849431 28.29772,0.4772897 27.9773311,0.4698246 27.6548375,0.4625463 27.3302286,0.455453 27.0034935,0.4485431 26.6746216,0.4418152 26.343602,0.4352675 26.010424,0.4288984 25.6750769,0.4227064 25.3375499,0.4166898 24.9978321,0.410847 24.655913,0.4051765 24.3117817,0.3996765 23.9654274,0.3943456 23.9654274,0.3943456 23.9267684,0.420468 23.8893362,0.4483602 23.8530901,0.478001 23.8179924,0.5093668 23.7841301,0.5423044 23.7515204,0.5766956 23.7201096,0.6124842 23.6898438,0.6496143 23.6606695,0.6880296 23.6325327,0.727674 23.6053797,0.7684916 23.5791568,0.8104261 23.5538101,0.8534215 23.529286,0.8974217 23.5055305,0.9423705 23.4824896,0.9882133 23.4601035,1.0349134 23.438319,1.0824224 23.4170851,1.1306861 23.396351,1.1796505 23.3760655,1.2292614 23.3561779,1.2794646 23.3173924,1.3814317 23.2795868,1.4851187 23.2423535,1.5900925 23.1679739,1.8021682 23.1300124,1.908404 23.0909931,2.0141943 23.0505085,2.1191061 23.0295892,2.1710972 23.0081551,2.2226967 22.9861704,2.2738184 22.9635837,2.3244159 22.9403417,2.3744467 22.9163913,2.4238684 22.8916791,2.4726386 22.866152,2.520715 22.8397566,2.568055 22.8124399,2.6146163 22.7841485,2.6603565 22.7548293,2.7052332 22.7244289,2.7492039 22.6928942,2.7922262 22.6601877,2.8342381 22.6264611,2.8749606 22.5917359,2.9143188 22.5559733,2.9523175 22.5191348,2.9889615 22.4811819,3.0242557 22.4420758,3.0582047 22.401778,3.0908136 22.3602499,3.122087 22.3174528,3.1520298 22.2733482,3.1806467 22.2278974,3.2079426 A1.25,1.25 60 0,1 20.9778974,3.2079426 L20.9778974,3.2079426 20.9302365,3.1794097 20.8837159,3.1494783 20.8383295,3.118107 20.7940707,3.0852545 20.7509334,3.0508793 20.7089111,3.0149401 20.6679976,2.9773954 20.6283716,2.9383936 20.5902734,2.8982072 20.5536493,2.8568484 20.518443,2.8143269 20.484598,2.7706523 20.452058,2.7258345 20.4207665,2.679883 20.3907587,2.6329553 20.3620576,2.5852262 20.3345958,2.5367416 20.3083059,2.4875475 20.2831204,2.4376897 20.2589719,2.3872142 20.2357929,2.3361671 20.2135159,2.2845941 20.1920734,2.2325412 20.1713982,2.1800544 20.1514226,2.1271797 20.1320792,2.0739628 20.0950193,1.9666869 20.0597107,1.8586949 20.0256525,1.7505001 19.9923202,1.6425517 19.9591896,1.5352992 19.9257361,1.4291917 19.8914355,1.3246787 19.8738036,1.2731605 19.8557633,1.2222094 19.837249,1.1718817 19.8181952,1.1222333 19.7985363,1.0733206 19.7782068,1.0251996 19.7571223,0.9778859 19.7350034,0.9310054 19.7117123,0.8845646 19.6871685,0.8387026 19.6612918,0.7935585 19.6340017,0.7492714 19.6052178,0.7059806 19.5748598,0.663825 19.5428473,0.6229438 19.5091231,0.5835006 19.4916941,0.5644596 19.4739065,0.5459099 19.4557531,0.5278537 19.4372266,0.5102935 19.4183197,0.4932316 19.3990251,0.4766705 19.3793355,0.4606125 19.3592437,0.4450599 19.3387423,0.4300152 19.3178242,0.4154807 19.296482,0.4014588 19.2747084,0.3879519 19.2524962,0.3749623 19.229838,0.3624925 19.2068173,0.3505904 19.1835701,0.3393176 19.1835701,0.3393176 18.0674162,0.3308011 17.5098918,0.3270773 16.953075,0.3236946 15.8416143,0.3179022 15.2850947,0.3154611 14.727861,0.3133102 13.6120943,0.309848 12.4959991,0.3074527 11.9383549,0.3066356 11.3812606,0.3060616 10.8249268,0.305723 10.2695641,0.3056119 10.2695641,0.3056119 9.2741547,0.3061144 8.2777951,0.3076827 7.2812146,0.3104078 6.2851425,0.3143808 5.2903081,0.3196927 4.7935831,0.3228791 4.297441,0.3264344 3.801973,0.33037 3.3072703,0.3346971 2.8134241,0.3394273 2.3205255,0.3445718 1.8286657,0.3501421 1.3379358,0.3561496 0.8484272,0.3626055 0.3602308,0.3695214 -0.1265622,0.3769085 -0.6118604,0.3847783 -1.0955729,0.3931421 -1.5776084,0.4020113 -2.0578757,0.4113974 -2.5362837,0.4213116 -3.0127413,0.4317653 -3.4871571,0.44277 -3.9594402,0.454337 -4.4294992,0.4664777 -4.6636663,0.4727668 -4.8972431,0.4792035 -5.1302184,0.4857893 -5.3625807,0.4925257 -5.5943186,0.499414 -5.8254207,0.5064558 -6.0558757,0.5136523 -6.2856721,0.521005 -6.5147986,0.5285154 -6.7432437,0.5361849 -6.970996,0.5440148 -7.1980443,0.5520067 -7.4243769,0.5601619 -7.6499826,0.5684819 -7.87485,0.576968 -8.0989677,0.5856218 -8.3223242,0.5944446 -8.5449082,0.6034378 -8.7667083,0.6126029 -8.987713,0.6219413 -9.2079111,0.6314544 -9.427291,0.6411437 -9.6458414,0.6510105 -9.863551,0.6610563 -10.0804082,0.6712825 -10.2964017,0.6816905 -10.5115202,0.6922818 -10.7257522,0.7030578 -10.9390863,0.7140199 -11.1515111,0.7251694 -11.3630152,0.736508 -11.5735973,0.7480373 -11.7841641,0.7598044 -11.9952949,0.7718432 -12.4191588,0.7967576 -12.8450099,0.8228242 -13.2726689,0.8500867 -13.7019568,0.8785887 -14.1326944,0.9083738 -14.5647024,0.9394856 -14.9978018,0.9719678 -15.4318133,1.005864 -15.8665579,1.0412178 -16.3018563,1.0780729 -16.7375294,1.1164728 -17.173398,1.1564613 -17.609283,1.1980819 -18.0450051,1.2413783 -18.4803853,1.286394 -18.9152444,1.3331728 -19.3494032,1.3817582 -19.3494032,1.3817582 -19.3731106,1.4463649 -19.396535,1.5115379 -19.4429327,1.6431609 -19.4893933,1.7757831 -19.5367137,1.9085606 -19.5856909,2.0406494 -19.6110498,2.1061718 -19.6371217,2.1712054 -19.6639975,2.2356255 -19.6917535,2.2992803 -19.7204916,2.3620828 -19.750316,2.4239503 -19.7813305,2.4847999 -19.8136391,2.5445488 -19.8473456,2.6031142 -19.8825542,2.6604132 -19.9193686,2.7163631 -19.9578928,2.7708811 -19.9778286,2.7975772 -19.9982298,2.8238829 -20.0190416,2.8497055 -20.0402341,2.874994 -20.0618166,2.8997497 -20.0837986,2.9239737 -20.1061895,2.9476672 -20.1289988,2.9708315 -20.1522357,2.9934675 -20.1759099,3.0155766 -20.2000307,3.0371599 -20.2246074,3.0582186 -20.2496497,3.0787539 -20.2751668,3.0987668 -20.3011681,3.1182587 -20.3276632,3.1372306 -20.3546615,3.1556838 -20.3821723,3.1736194 -20.410205,3.1910387 -20.4387692,3.2079426 A1.25,1.25 60 0,1 -21.6887692,3.2079426 L-21.6887692,3.2079426 -21.7347643,3.1804422 -21.7796289,3.1516877 -21.8233751,3.1216469 -21.8660152,3.0902878 -21.9075616,3.0575782 -21.9480264,3.0234861 -21.9874218,2.9879793 -22.0257603,2.9510257 -22.063054,2.9125932 -22.0991602,2.8728271 -22.1338176,2.832069 -22.1670756,2.7903532 -22.1989913,2.7477053 -22.2296219,2.7041513 -22.2590245,2.6597169 -22.2872563,2.6144281 -22.3143745,2.5683106 -22.3404361,2.5213903 -22.3654693,2.4737496 -22.3894896,2.42551 -22.4125563,2.3767172 -22.4347291,2.3274157 -22.4560676,2.2776504 -22.4766317,2.2274659 -22.4964811,2.1769071 -22.5156754,2.1260185 -22.552338,2.0234311 -22.5870972,1.9200615 -22.6204308,1.8162676 -22.6204308,1.8162676 -22.8684807,1.8547621 -23.1175375,1.8942943 -23.367524,1.9348823 -23.618363,1.976544 -23.8699775,2.0192977 -24.1222902,2.0631614 -24.375224,2.1081531 -24.6287017,2.1542911 -24.8826463,2.2015932 -25.1369805,2.2500777 -25.3916272,2.2997626 -25.6465092,2.3506661 -25.9015494,2.4028061 -26.1566707,2.4562007 -26.4117958,2.5108682 -26.6668477,2.5668265 -26.9217491,2.6240936 -27.176423,2.6826879 -27.4307922,2.7426272 -27.6847795,2.8039296 -27.9383077,2.8666134 -28.1912998,2.9306964 -28.4436786,2.996197 -28.6953669,3.063133 -28.9462875,3.1315226 -29.1963634,3.2013839 -29.4455173,3.272735 -29.6936721,3.3455939 -29.9407507,3.4199788 -30.1866759,3.4959077 -30.4313706,3.5733987 -30.6747575,3.6524699 -30.9167596,3.7331393 -31.1572997,3.8154251 -31.3963007,3.8993454 -31.6336854,3.9849182 -31.7517475,4.0283299 -31.8693766,4.0721616 -31.986563,4.1164154 -32.1032972,4.1610937 -32.2195694,4.2061986 -32.33537,4.2517325 -32.4506894,4.2976977 -32.5655179,4.3440963 -32.6798459,4.3909306 -32.7936638,4.438203 -32.9069618,4.4859156 -33.0197304,4.5340707 -33.1319599,4.5826706 -33.2436407,4.6317175 -33.3547631,4.6812138 -33.4653175,4.7311616 -33.5752942,4.7815632 -33.6846836,4.8324209 -33.793476,4.883737 -33.9016618,4.9355136 -34.0092314,4.9877531 -34.1161751,5.0404578 -34.2224833,5.0936298 -34.3281463,5.1472715 -34.4331545,5.2013851 -34.5374982,5.2559728 -34.6411678,5.311037 -34.7441537,5.3665798 -34.8464461,5.4226036 -34.9480355,5.4791107 -35.0486539,5.5359545 -35.1479636,5.592939 -35.2459741,5.6500613 -35.3426963,5.7073197 -35.4381415,5.7647125 -35.5323205,5.8222378 -35.6252445,5.8798938 -35.7169245,5.9376788 -35.8073715,5.995591 -35.8965965,6.0536285 -35.9846107,6.1117896 -36.071425,6.1700726 -36.1570505,6.2284756 -36.2414982,6.2869968 -36.3247792,6.3456345 -36.4069045,6.4043868 -36.4878851,6.463252 -36.5677322,6.5222283 -36.6464566,6.581314 -36.7240696,6.6405071 -36.800582,6.699806 -36.876005,6.7592088 -36.9503497,6.8187138 -37.0236269,6.8783191 -37.0958478,6.9380231 -37.1670235,6.9978238 -37.2371649,7.0577196 -37.3062831,7.1177085 -37.3743891,7.177789 -37.441494,7.237959 -37.5076089,7.298217 -37.5727447,7.358561 -37.6369125,7.4189893 -37.7001234,7.4795002 -37.7623883,7.5400917 -37.8237184,7.6007622 -37.8841247,7.6615099 -37.9436181,7.7223329 -38.0022099,7.7832294 -38.0599109,7.8441978 -38.1167359,7.9052402 -38.172834,7.9665112 -38.2282807,8.0280923 -38.2830788,8.0899859 -38.3372311,8.1521947 -38.3907406,8.2147213 -38.4436101,8.2775681 -38.4958424,8.3407379 -38.5474404,8.4042331 -38.5984071,8.4680564 -38.6487452,8.5322102 -38.6984576,8.5966973 -38.7475473,8.6615201 -38.796017,8.7266812 -38.8438696,8.7921832 -38.891108,8.8580287 -38.9377352,8.9242203 -38.9837538,8.9907604 -39.0291669,9.0576518 -39.0739772,9.1248969 -39.1181877,9.1924983 -39.1618012,9.2604587 -39.2048205,9.3287805 -39.2472487,9.3974664 -39.2890884,9.4665189 -39.3303426,9.5359406 -39.3710141,9.6057341 -39.4111059,9.6759019 -39.4506208,9.7464466 -39.4895616,9.8173708 -39.5279312,9.8886771 -39.5657325,9.960368 -39.6029684,10.0324461 -39.6396417,10.104914 -39.6757553,10.1777742 -39.711312,10.2510294 -39.7463148,10.324682 -39.7807664,10.3987347 -39.8146699,10.4731901 -39.8480279,10.5480507 -39.8808435,10.623319 -39.9131194,10.6989978 -39.9448586,10.7750894 -39.9760638,10.8515966 -40.006738,10.9285218 -40.0368841,11.0058676 -40.0665051,11.0836372 -40.0956184,11.16187 -40.1242354,11.2405937 -40.1523579,11.3198127 -40.1799877,11.3995316 -40.2071266,11.4797548 -40.2337764,11.5604868 -40.2599388,11.641732 -40.2856156,11.7234951 -40.3108087,11.8057804 -40.3355198,11.8885924 -40.3597507,11.9719357 -40.3835031,12.0558147 -40.4067789,12.1402339 -40.4295799,12.2251978 -40.4519078,12.3107108 -40.4737644,12.3967775 -40.4951515,12.4834024 -40.5160709,12.5705899 -40.5365244,12.6583445 -40.5565138,12.7466707 -40.5760408,12.8355729 -40.5951073,12.9250558 -40.6137149,13.0151237 -40.6318656,13.1057812 -40.6495611,13.1970327 -40.6668032,13.2888827 -40.6835936,13.3813357 -40.6999342,13.4743961 -40.7158267,13.5680686 -40.7312729,13.6623575 -40.7462747,13.7572674 -40.7608337,13.8528027 -40.7749519,13.9489679 -40.7886309,14.0457675 -40.8018725,14.1432059 -40.8146786,14.2412878 -40.8270509,14.3400175 -40.8389912,14.4393996 -40.8505014,14.5394384 -40.8615831,14.6401386 -40.8722382,14.7415046 -40.8824684,14.8435409 -40.8922756,14.946252 -40.9016615,15.0496423 -40.9106279,15.1537163 -40.9191766,15.2584786 -40.9273094,15.3639336 -40.935028,15.4700858 -40.9423343,15.5769396 -40.9492301,15.6844997 -40.9557171,15.7927704 -40.9617971,15.9017562 -40.9674719,16.0114617 -40.9727433,16.1218912 -40.977613,16.2330494 -40.9820829,16.3449407 -40.9861548,16.4575695 -40.9898304,16.5709404 -40.9931115,16.6850578 -40.9959999,16.7999262 -40.9984974,16.9155502 -41.0006057,17.0319341 -41.0023267,17.1490826 -41.0036622,17.267 -41.0046139,17.3856908 -41.0051836,17.5051596 -41.0053731,17.6254109 -41.0053731,17.6254109 -41.0051941,17.7422857 -41.0046562,17.8584007 -41.0037579,17.9737606 -41.0024978,18.0883697 -41.0008745,18.2022325 -40.9988865,18.3153537 -40.9965324,18.4277375 -40.9938107,18.5393885 -40.9907201,18.6503113 -40.9872591,18.7605103 -40.9834262,18.8699899 -40.9792201,18.9787547 -40.9746393,19.0868091 -40.9696823,19.1941577 -40.9643477,19.300805 -40.9586341,19.4067553 -40.9525401,19.5120132 -40.9460642,19.6165833 -40.9392049,19.7204699 -40.9319609,19.8236776 -40.9243308,19.9262108 -40.916313,20.0280741 -40.9079061,20.1292719 -40.8991088,20.2298088 -40.8899195,20.3296891 -40.8803369,20.4289174 -40.8703595,20.5274983 -40.8599859,20.6254361 -40.8492146,20.7227353 -40.8380442,20.8194005 -40.8264733,20.9154361 -40.8145004,21.0108466 -40.8021241,21.1056366 -40.789343,21.1998104 -40.7761556,21.2933727 -40.7625605,21.3863278 -40.7485563,21.4786802 -40.7341415,21.5704345 -40.7193147,21.6615951 -40.7040745,21.7521666 -40.6884194,21.8421534 -40.672348,21.9315599 -40.6558588,22.0203907 -40.6389505,22.1086504 -40.6216216,22.1963432 -40.6038706,22.2834738 -40.5856961,22.3700467 -40.5670967,22.4560663 -40.548071,22.5415371 -40.5286175,22.6264635 -40.5087348,22.7108502 -40.4884214,22.7947015 -40.4676759,22.878022 -40.446497,22.9608162 -40.424883,23.0430884 -40.4028327,23.1248433 -40.3803445,23.2060854 -40.3574171,23.286819 -40.334049,23.3670487 -40.3102388,23.4467789 -40.2859808,23.5260275 -40.2612365,23.6049096 -40.2359939,23.6834519 -40.2102486,23.7616556 -40.1839966,23.8395218 -40.1572337,23.9170517 -40.1299556,23.9942464 -40.1021582,24.071107 -40.0738374,24.1476349 -40.0449888,24.223831 -40.0156084,24.2996965 -39.9856919,24.3752327 -39.9552352,24.4504406 -39.9242341,24.5253215 -39.8926844,24.5998764 -39.8605819,24.6741065 -39.8279224,24.7480131 -39.7947018,24.8215971 -39.7609158,24.8948599 -39.7265603,24.9678025 -39.6916311,25.040426 -39.6561241,25.1127318 -39.6200349,25.1847209 -39.5833595,25.2563944 -39.5460937,25.3277535 -39.5082332,25.3987994 -39.4697739,25.4695333 -39.4307117,25.5399562 -39.3910423,25.6100694 -39.3507615,25.679874 -39.3098651,25.7493711 -39.2683491,25.818562 -39.2262091,25.8874477 -39.183441,25.9560294 -39.1400407,26.0243083 -39.0960039,26.0922855 -39.0513265,26.1599622 -39.0060042,26.2273395 -38.9600329,26.2944187 -38.9134084,26.3612008 -38.8661265,26.4276869 -38.8181831,26.4938784 -38.7695739,26.5597762 -38.7202948,26.6253817 -38.6703416,26.6906958 -38.6197101,26.7557199 -38.5683961,26.8204549 -38.5163954,26.8849022 -38.4636437,26.9491384 -38.4100506,27.0132669 -38.3556053,27.0772868 -38.3002977,27.1411966 -38.2441175,27.2049949 -38.1870545,27.2686802 -38.1290984,27.332251 -38.070239,27.3957059 -38.0104662,27.4590433 -37.9497696,27.5222619 -37.8881391,27.5853602 -37.8255644,27.6483366 -37.7620353,27.7111898 -37.6975415,27.7739182 -37.6320729,27.8365203 -37.5656192,27.8989948 -37.4981702,27.9613401 -37.4297157,28.0235548 -37.3602454,28.0856373 -37.2897491,28.1475863 -37.2182166,28.2094003 -37.1456377,28.2710777 -37.072002,28.3326172 -36.9972995,28.3940172 -36.9215199,28.4552763 -36.8446529,28.516393 -36.7666883,28.5773658 -36.6876159,28.6381933 -36.6074255,28.698874 -36.5261069,28.7594065 -36.4436497,28.8197892 -36.3600439,28.8800207 -36.2752791,28.9400995 -36.1893451,29.0000242 -36.1022318,29.0597932 -36.0139288,29.1194052 -35.924426,29.1788586 -35.8337132,29.238152 -35.74178,29.2972839 -35.6486163,29.3562528 -35.5542119,29.4150573 -35.4585565,29.4736959 -35.3616399,29.5321672 -35.2634518,29.5904695 -35.1639822,29.6486016 -35.0632206,29.7065619 -34.9612859,29.7642758 -34.8585902,29.8215096 -34.755174,29.878248 -34.6510474,29.9344935 -34.5462204,29.9902482 -34.4407031,30.0455147 -34.3345054,30.1002951 -34.2276375,30.154592 -34.1201093,30.2084075 -34.011931,30.2617441 -33.9031125,30.3146041 -33.7936638,30.3669898 -33.6835952,30.4189037 -33.5729164,30.4703479 -33.4616377,30.521325 -33.349769,30.5718372 -33.2373204,30.6218868 -33.1243019,30.6714762 -33.0107236,30.7206078 -32.8965954,30.769284 -32.7819275,30.8175069 -32.6667299,30.865279 -32.5510126,30.9126027 -32.4347856,30.9594803 -32.3180591,31.0059141 -32.2008429,31.0519064 -32.0831473,31.0974597 -31.9649821,31.1425762 -31.8463575,31.1872583 -31.7272835,31.2315084 -31.6077701,31.2753287 -31.4878274,31.3187217 -31.2466941,31.404235 -31.003964,31.4880669 -30.7597173,31.5702363 -30.5140344,31.6507619 -30.2669955,31.7296624 -30.018681,31.8069566 -29.7691713,31.8826632 -29.5185465,31.9568011 -29.266887,32.0293889 -29.0142732,32.1004455 -28.7607853,32.1699895 -28.5065037,32.2380398 -28.2515087,32.3046151 -27.9958806,32.3697341 -27.7396996,32.4334156 -27.4830462,32.4956784 -27.2260005,32.5565412 -26.968643,32.6160228 -26.711054,32.6741419 -26.4533137,32.7309173 -26.1955025,32.7863677 -25.9377007,32.840512 -25.6799886,32.8933688 -25.4224465,32.9449568 -25.1651547,32.995295 -24.9081935,33.044402 -24.6516433,33.0922965 -24.3955844,33.1389974 -24.140097,33.1845234 -23.8852615,33.2288932 -23.6311582,33.2721257 -23.3778674,33.3142395 -23.1254694,33.3552534 -22.8740446,33.3951861 -22.6236732,33.4340566 -22.6236732,33.4340566 -22.5859237,33.3287631 -22.5470825,33.2239629 -22.5067522,33.1200786 -22.4859045,33.0686119 -22.4645429,33.0175492 -22.4426309,32.9669679 -22.4201168,32.9169102 -22.3969487,32.8674172 -22.3730748,32.8185305 -22.3484433,32.7702912 -22.3230022,32.7227408 -22.2966997,32.6759206 -22.2694838,32.6298718 -22.2413029,32.5846359 -22.2121048,32.540254 -22.1818379,32.4967677 -22.1504502,32.4542182 -22.1179156,32.4126789 -22.084391,32.3724282 -22.0498814,32.3335181 -22.0143494,32.2959438 -21.9777573,32.2597008 -21.9400674,32.2247842 -21.9012422,32.1911895 -21.8612441,32.1589119 -21.8200353,32.1279468 -21.7775783,32.0982894 -21.7338355,32.0699351 -21.6887692,32.0428791 A1.25,1.25 240 0,1 -20.4387692,32.0428791 L-20.4387692,32.0428791 -20.4094895,32.0601627 -20.3806906,32.0779295 -20.352368,32.0961864 -20.3245173,32.1149405 -20.2971339,32.1341987 -20.2702134,32.153968 -20.2437512,32.1742554 -20.2177429,32.1950678 -20.1921841,32.2164123 -20.1670701,32.2382957 -20.1423965,32.2607251 -20.1181589,32.2837075 -20.0943526,32.3072497 -20.0709734,32.3313589 -20.0480165,32.356042 -20.0254777,32.3813059 -20.0033523,32.4071577 -19.9817197,32.4334995 -19.9606668,32.4602049 -19.9401786,32.4872641 -19.9202399,32.5146676 -19.9008356,32.5424058 -19.8635696,32.5988482 -19.8282592,32.6565147 -19.7947833,32.7153288 -19.7630205,32.775214 -19.7328495,32.8360938 -19.7041495,32.8978911 -19.6768144,32.9604931 -19.6507337,33.0237889 -19.6257895,33.0876832 -19.6018635,33.1520811 -19.5788376,33.2168872 -19.5565938,33.2820064 -19.5350138,33.3473437 -19.4933732,33.4782915 -19.4529706,33.6089694 -19.4128612,33.7386162 -19.3926211,33.802815 -19.3720999,33.8664705 -19.3720999,33.8664705 -18.9376345,33.9151899 -18.5024542,33.962098 -18.0667386,34.0072383 -17.6306673,34.0506547 -17.1944199,34.0923908 -16.758176,34.1324903 -16.3221152,34.1709969 -15.886417,34.2079543 -15.4512611,34.2434063 -15.0168272,34.2773964 -14.5832947,34.3099685 -14.1508432,34.3411662 -13.7196525,34.3710332 -13.289902,34.3996133 -12.8617714,34.42695 -12.4354403,34.4530872 -12.0110882,34.4780684 -11.7997104,34.4901393 -11.5888948,34.5019375 -11.3782154,34.51349 -11.1666443,34.5248496 -10.95415,34.53602 -10.7407441,34.5470026 -10.5264379,34.5577987 -10.3112428,34.5684098 -10.0951703,34.5788373 -9.8782317,34.5890826 -9.6604384,34.5991473 -9.4418019,34.6090326 -9.2223335,34.61874 -9.0020447,34.628271 -8.7809468,34.637627 -8.5590512,34.6468093 -8.3363694,34.6558195 -8.1129128,34.6646589 -7.8886927,34.673329 -7.6637205,34.6818312 -7.4380077,34.6901668 -7.2115657,34.6983375 -6.9844059,34.7063445 -6.7565396,34.7141892 -6.5279782,34.7218733 -6.2987333,34.7293979 -6.0688161,34.7367646 -5.8382381,34.7439748 -5.6070107,34.7510299 -5.3751452,34.7579314 -5.1426531,34.7646806 -4.9095458,34.771279 -4.6758347,34.777728 -4.4415312,34.7840291 -3.9711925,34.796193 -3.498621,34.8077822 -3.0239079,34.8188081 -2.5471444,34.829282 -2.0684218,34.8392154 -1.5878311,34.8486196 -1.1054638,34.857506 -0.6214109,34.8658861 -0.1357637,34.8737712 0.3513866,34.8811728 0.8399487,34.8881022 1.3298315,34.8945708 1.8209437,34.9005901 2.3131941,34.9061714 2.8064915,34.9113262 3.3007447,34.9160658 3.7958624,34.9204016 4.2917535,34.924345 4.7883268,34.9279074 5.2854909,34.9311003 6.281227,34.9364229 7.2782321,34.940404 8.2757765,34.9431347 9.2731304,34.9447063 10.2695641,34.9452099 10.2695641,34.9452099 10.8223754,34.9450998 11.3761429,34.9447643 12.4857163,34.9433863 13.5966236,34.9410141 14.7072043,34.9375858 15.2618533,34.9354562 15.8157978,34.9330394 16.922142,34.9273054 17.4763876,34.9239574 18.0313286,34.9202722 19.142295,34.9118452 19.142295,34.9118452 19.1850731,34.8895001 19.2266117,34.8651524 19.2669437,34.8388013 19.3061023,34.810446 19.3441203,34.7800857 19.3808472,34.7478901 19.4161644,34.7140581 19.4501317,34.6786513 19.482809,34.6417312 19.5142561,34.6033593 19.5445329,34.5635973 19.5736991,34.5225065 19.6018147,34.4801486 19.6289395,34.436585 19.6551333,34.3918774 19.6804559,34.3460872 19.7049682,34.2992729 19.728733,34.2514824 19.7518078,34.202775 19.7742497,34.1532113 19.7961155,34.102852 19.8174624,34.0517576 19.8383472,33.9999889 19.8588271,33.9476064 19.8987999,33.8412426 19.9378368,33.7331512 19.9763937,33.6238175 20.0149267,33.5137263 20.0538917,33.4033627 20.0937448,33.2932118 20.1349419,33.1837585 20.156187,33.1294451 20.177939,33.075488 20.2002492,33.0219613 20.2231588,32.9689571 20.2467265,32.9165252 20.2710118,32.8647131 20.2960744,32.8135683 20.3219737,32.7631383 20.3487694,32.7134706 20.3765211,32.6646125 20.4052883,32.6166116 20.4351306,32.5695154 20.4661075,32.5233713 20.4982788,32.4782267 20.5317038,32.4341293 20.5663146,32.3912796 20.6019871,32.3499013 20.6387633,32.3099904 20.6766867,32.2715413 20.7158003,32.2345488 20.7561474,32.1990074 20.7977712,32.1649118 20.8407149,32.1322565 20.8850217,32.1010362 20.9307348,32.0712456 20.9778974,32.0428791 A1.25,1.25 240 0,1 22.2278974,32.0428791z"
       transform="matrix(1,0,0,-1,63.7304359,35.6254109)"
       fill="rgb(255,255,255)"
       stroke="rgb(0,0,0)"
       stroke-width="0.0010cm"
       stroke-linecap="round"
       stroke-linejoin="round"
       id="path20"
       style="fill:none;stroke:#000000;stroke-opacity:1;stroke-width:0.1;stroke-dasharray:none" /><path
       d="M-45.0841156,13.6254109 a0.475,0.475 0 1,1 0.95,0 a0.475,0.475 0 1,1 -0.95,0z"
       transform="matrix(1,0,0,-1,63.7304359,35.6254109)"
       fill="rgb(255,255,255)"
       stroke="rgb(0,0,0)"
       stroke-width="0.0010cm"
       stroke-linecap="round"
       stroke-linejoin="round"
       id="path22"
       style="fill:none;stroke:#000000;stroke-opacity:1;stroke-width:0.1;stroke-dasharray:none" /><path
       d="M-45.0841156,21.6254109 a0.475,0.475 0 1,1 0.95,0 a0.475,0.475 0 1,1 -0.95,0z"
       transform="matrix(1,0,0,-1,63.7304359,35.6254109)"
       fill="rgb(255,255,255)"
       stroke="rgb(0,0,0)"
       stroke-width="0.0010cm"
       stroke-linecap="round"
       stroke-linejoin="round"
       id="path24"
       style="fill:none;stroke:#000000;stroke-opacity:1;stroke-width:0.1;stroke-dasharray:none" /><path
       d="M-61.7054359,27.5467312 a0.475,0.475 0 1,1 0.95,0 a0.475,0.475 0 1,1 -0.95,0z"
       transform="matrix(1,0,0,-1,63.7304359,35.6254109)"
       fill="rgb(255,255,255)"
       stroke="rgb(0,0,0)"
       stroke-width="0.0010cm"
       stroke-linecap="round"
       stroke-linejoin="round"
       id="path26"
       style="fill:none;stroke:#000000;stroke-opacity:1;stroke-width:0.1;stroke-dasharray:none" /><path
       d="M-53.7054359,7.7040905 a0.475,0.475 0 1,1 0.95,0 a0.475,0.475 0 1,1 -0.95,0z"
       transform="matrix(1,0,0,-1,63.7304359,35.6254109)"
       fill="rgb(255,255,255)"
       stroke="rgb(0,0,0)"
       stroke-width="0.0010cm"
       stroke-linecap="round"
       stroke-linejoin="round"
       id="path28"
       style="fill:none;stroke:#000000;stroke-opacity:1;stroke-width:0.1;stroke-dasharray:none" /><path
       d="M-53.7054359,27.5467312 a0.475,0.475 0 1,1 0.95,0 a0.475,0.475 0 1,1 -0.95,0z"
       transform="matrix(1,0,0,-1,63.7304359,35.6254109)"
       fill="rgb(255,255,255)"
       stroke="rgb(0,0,0)"
       stroke-width="0.0010cm"
       stroke-linecap="round"
       stroke-linejoin="round"
       id="path30"
       style="fill:none;stroke:#000000;stroke-opacity:1;stroke-width:0.1;stroke-dasharray:none" /><path
       d="M-45.7054359,8.3254109 a0.475,0.475 0 1,1 0.95,0 a0.475,0.475 0 1,1 -0.95,0z"
       transform="matrix(1,0,0,-1,63.7304359,35.6254109)"
       fill="rgb(255,255,255)"
       stroke="rgb(0,0,0)"
       stroke-width="0.0010cm"
       stroke-linecap="round"
       stroke-linejoin="round"
       id="path32"
       style="fill:none;stroke:#000000;stroke-opacity:1;stroke-width:0.1;stroke-dasharray:none" /><path
       d="M-61.7054359,7.7040905 a0.475,0.475 0 1,1 0.95,0 a0.475,0.475 0 1,1 -0.95,0z"
       transform="matrix(1,0,0,-1,63.7304359,35.6254109)"
       fill="rgb(255,255,255)"
       stroke="rgb(0,0,0)"
       stroke-width="0.0010cm"
       stroke-linecap="round"
       stroke-linejoin="round"
       id="path34"
       style="fill:none;stroke:#000000;stroke-opacity:1;stroke-width:0.1;stroke-dasharray:none" /><path
       d="M-45.7054359,26.9254109 a0.475,0.475 0 1,1 0.95,0 a0.475,0.475 0 1,1 -0.95,0z"
       transform="matrix(1,0,0,-1,63.7304359,35.6254109)"
       fill="rgb(255,255,255)"
       stroke="rgb(0,0,0)"
       stroke-width="0.0010cm"
       stroke-linecap="round"
       stroke-linejoin="round"
       id="path36"
       style="fill:none;stroke:#000000;stroke-opacity:1;stroke-width:0.1;stroke-dasharray:none" /></g></svg>
