<?xml version="1.0" encoding="utf-8"?>
<!-- Generator: Fusion 360, Shaper Origin Export Add-In, Version 1.8.0  -->
<svg xmlns="http://www.w3.org/2000/svg" xmlns:xlink="http://www.w3.org/1999/xlink" xmlns:shaper="http://www.shapertools.com/namespaces/shaper" shaper:fusionaddin="version:1.8.0" width="121cm" height="36cm" version="1.1" x="0cm" y="0cm" viewBox="0 0 121 36" enable-background="new 0 0 121 36" xml:space="preserve"><path d="M-55.7562575,1.4970127 A1.4,1.4 90 0,1 -57.1562575,0.0970127 L-57.1562575,-33.1029873 A1.4,1.4 180 0,1 -55.7562575,-34.5029873 L62.4437425,-34.5029873 A1.4,1.4 270 0,1 63.8437425,-33.1029873 L63.8437425,0.0970127 A1.4,1.4 0 0,1 62.4437425,1.4970127 L-55.7562575,1.4970127z" transform="matrix(1,0,0,-1,57.1562575,1.4970127)" fill="rgb(0,0,0)" stroke-linecap="round" stroke-linejoin="round" /><path d="M-32.9645908,-0.1029873 a0.475,0.475 0 1,1 0.95,0 a0.475,0.475 0 1,1 -0.95,0z" transform="matrix(1,0,0,-1,57.1562575,1.4970127)" fill="rgb(255,255,255)" stroke="rgb(0,0,0)" stroke-width="0.0010cm" stroke-linecap="round" stroke-linejoin="round" /><path d="M7.3687425,-0.1029873 a0.475,0.475 0 1,1 0.95,0 a0.475,0.475 0 1,1 -0.95,0z" transform="matrix(1,0,0,-1,57.1562575,1.4970127)" fill="rgb(255,255,255)" stroke="rgb(0,0,0)" stroke-width="0.0010cm" stroke-linecap="round" stroke-linejoin="round" /><path d="M47.7020759,-0.1029873 a0.475,0.475 0 1,1 0.95,0 a0.475,0.475 0 1,1 -0.95,0z" transform="matrix(1,0,0,-1,57.1562575,1.4970127)" fill="rgb(255,255,255)" stroke="rgb(0,0,0)" stroke-width="0.0010cm" stroke-linecap="round" stroke-linejoin="round" /><path d="M39.2020759,-32.9029873 a0.475,0.475 0 1,1 0.95,0 a0.475,0.475 0 1,1 -0.95,0z" transform="matrix(1,0,0,-1,57.1562575,1.4970127)" fill="rgb(255,255,255)" stroke="rgb(0,0,0)" stroke-width="0.0010cm" stroke-linecap="round" stroke-linejoin="round" /><path d="M-1.1312575,-32.9029873 a0.475,0.475 0 1,1 0.95,0 a0.475,0.475 0 1,1 -0.95,0z" transform="matrix(1,0,0,-1,57.1562575,1.4970127)" fill="rgb(255,255,255)" stroke="rgb(0,0,0)" stroke-width="0.0010cm" stroke-linecap="round" stroke-linejoin="round" /><path d="M-41.4645908,-32.9029873 a0.475,0.475 0 1,1 0.95,0 a0.475,0.475 0 1,1 -0.95,0z" transform="matrix(1,0,0,-1,57.1562575,1.4970127)" fill="rgb(255,255,255)" stroke="rgb(0,0,0)" stroke-width="0.0010cm" stroke-linecap="round" stroke-linejoin="round" /><path d="M-32.9645908,-32.9029873 a0.475,0.475 0 1,1 0.95,0 a0.475,0.475 0 1,1 -0.95,0z" transform="matrix(1,0,0,-1,57.1562575,1.4970127)" fill="rgb(255,255,255)" stroke="rgb(0,0,0)" stroke-width="0.0010cm" stroke-linecap="round" stroke-linejoin="round" /><path d="M7.3687425,-32.9029873 a0.475,0.475 0 1,1 0.95,0 a0.475,0.475 0 1,1 -0.95,0z" transform="matrix(1,0,0,-1,57.1562575,1.4970127)" fill="rgb(255,255,255)" stroke="rgb(0,0,0)" stroke-width="0.0010cm" stroke-linecap="round" stroke-linejoin="round" /><path d="M47.7020759,-32.9029873 a0.475,0.475 0 1,1 0.95,0 a0.475,0.475 0 1,1 -0.95,0z" transform="matrix(1,0,0,-1,57.1562575,1.4970127)" fill="rgb(255,255,255)" stroke="rgb(0,0,0)" stroke-width="0.0010cm" stroke-linecap="round" stroke-linejoin="round" /><path d="M39.2020759,-0.1029873 a0.475,0.475 0 1,1 0.95,0 a0.475,0.475 0 1,1 -0.95,0z" transform="matrix(1,0,0,-1,57.1562575,1.4970127)" fill="rgb(255,255,255)" stroke="rgb(0,0,0)" stroke-width="0.0010cm" stroke-linecap="round" stroke-linejoin="round" /><path d="M-1.1312575,-0.1029873 a0.475,0.475 0 1,1 0.95,0 a0.475,0.475 0 1,1 -0.95,0z" transform="matrix(1,0,0,-1,57.1562575,1.4970127)" fill="rgb(255,255,255)" stroke="rgb(0,0,0)" stroke-width="0.0010cm" stroke-linecap="round" stroke-linejoin="round" /><path d="M-41.4645908,-0.1029873 a0.475,0.475 0 1,1 0.95,0 a0.475,0.475 0 1,1 -0.95,0z" transform="matrix(1,0,0,-1,57.1562575,1.4970127)" fill="rgb(255,255,255)" stroke="rgb(0,0,0)" stroke-width="0.0010cm" stroke-linecap="round" stroke-linejoin="round" /><path d="M-21.2979241,-0.1029873 a0.475,0.475 0 1,1 0.95,0 a0.475,0.475 0 1,1 -0.95,0z" transform="matrix(1,0,0,-1,57.1562575,1.4970127)" fill="rgb(255,255,255)" stroke="rgb(0,0,0)" stroke-width="0.0010cm" stroke-linecap="round" stroke-linejoin="round" /><path d="M19.0354092,-0.1029873 a0.475,0.475 0 1,1 0.95,0 a0.475,0.475 0 1,1 -0.95,0z" transform="matrix(1,0,0,-1,57.1562575,1.4970127)" fill="rgb(255,255,255)" stroke="rgb(0,0,0)" stroke-width="0.0010cm" stroke-linecap="round" stroke-linejoin="round" /><path d="M59.3687425,-0.1029873 a0.475,0.475 0 1,1 0.95,0 a0.475,0.475 0 1,1 -0.95,0z" transform="matrix(1,0,0,-1,57.1562575,1.4970127)" fill="rgb(255,255,255)" stroke="rgb(0,0,0)" stroke-width="0.0010cm" stroke-linecap="round" stroke-linejoin="round" /><path d="M27.5354092,-32.9029873 a0.475,0.475 0 1,1 0.95,0 a0.475,0.475 0 1,1 -0.95,0z" transform="matrix(1,0,0,-1,57.1562575,1.4970127)" fill="rgb(255,255,255)" stroke="rgb(0,0,0)" stroke-width="0.0010cm" stroke-linecap="round" stroke-linejoin="round" /><path d="M-12.7979241,-32.9029873 a0.475,0.475 0 1,1 0.95,0 a0.475,0.475 0 1,1 -0.95,0z" transform="matrix(1,0,0,-1,57.1562575,1.4970127)" fill="rgb(255,255,255)" stroke="rgb(0,0,0)" stroke-width="0.0010cm" stroke-linecap="round" stroke-linejoin="round" /><path d="M-53.1312575,-32.9029873 a0.475,0.475 0 1,1 0.95,0 a0.475,0.475 0 1,1 -0.95,0z" transform="matrix(1,0,0,-1,57.1562575,1.4970127)" fill="rgb(255,255,255)" stroke="rgb(0,0,0)" stroke-width="0.0010cm" stroke-linecap="round" stroke-linejoin="round" /><path d="M-21.2979241,-32.9029873 a0.475,0.475 0 1,1 0.95,0 a0.475,0.475 0 1,1 -0.95,0z" transform="matrix(1,0,0,-1,57.1562575,1.4970127)" fill="rgb(255,255,255)" stroke="rgb(0,0,0)" stroke-width="0.0010cm" stroke-linecap="round" stroke-linejoin="round" /><path d="M19.0354092,-32.9029873 a0.475,0.475 0 1,1 0.95,0 a0.475,0.475 0 1,1 -0.95,0z" transform="matrix(1,0,0,-1,57.1562575,1.4970127)" fill="rgb(255,255,255)" stroke="rgb(0,0,0)" stroke-width="0.0010cm" stroke-linecap="round" stroke-linejoin="round" /><path d="M59.3687425,-32.9029873 a0.475,0.475 0 1,1 0.95,0 a0.475,0.475 0 1,1 -0.95,0z" transform="matrix(1,0,0,-1,57.1562575,1.4970127)" fill="rgb(255,255,255)" stroke="rgb(0,0,0)" stroke-width="0.0010cm" stroke-linecap="round" stroke-linejoin="round" /><path d="M27.5354092,-0.1029873 a0.475,0.475 0 1,1 0.95,0 a0.475,0.475 0 1,1 -0.95,0z" transform="matrix(1,0,0,-1,57.1562575,1.4970127)" fill="rgb(255,255,255)" stroke="rgb(0,0,0)" stroke-width="0.0010cm" stroke-linecap="round" stroke-linejoin="round" /><path d="M-12.7979241,-0.1029873 a0.475,0.475 0 1,1 0.95,0 a0.475,0.475 0 1,1 -0.95,0z" transform="matrix(1,0,0,-1,57.1562575,1.4970127)" fill="rgb(255,255,255)" stroke="rgb(0,0,0)" stroke-width="0.0010cm" stroke-linecap="round" stroke-linejoin="round" /><path d="M-53.1312575,-0.1029873 a0.475,0.475 0 1,1 0.95,0 a0.475,0.475 0 1,1 -0.95,0z" transform="matrix(1,0,0,-1,57.1562575,1.4970127)" fill="rgb(255,255,255)" stroke="rgb(0,0,0)" stroke-width="0.0010cm" stroke-linecap="round" stroke-linejoin="round" /><path d="M23.1154092,-1.0029873 a0.395,0.395 0 1,1 0.79,0 a0.395,0.395 0 1,1 -0.79,0z" transform="matrix(1,0,0,-1,57.1562575,1.4970127)" fill="rgb(255,255,255)" stroke="rgb(0,0,0)" stroke-width="0.0010cm" stroke-linecap="round" stroke-linejoin="round" /><path d="M-17.2179241,-1.0029873 a0.395,0.395 0 1,1 0.79,0 a0.395,0.395 0 1,1 -0.79,0z" transform="matrix(1,0,0,-1,57.1562575,1.4970127)" fill="rgb(255,255,255)" stroke="rgb(0,0,0)" stroke-width="0.0010cm" stroke-linecap="round" stroke-linejoin="round" /><path d="M-17.2179241,-32.0029873 a0.395,0.395 0 1,1 0.79,0 a0.395,0.395 0 1,1 -0.79,0z" transform="matrix(1,0,0,-1,57.1562575,1.4970127)" fill="rgb(255,255,255)" stroke="rgb(0,0,0)" stroke-width="0.0010cm" stroke-linecap="round" stroke-linejoin="round" /><path d="M23.1154092,-32.0029873 a0.395,0.395 0 1,1 0.79,0 a0.395,0.395 0 1,1 -0.79,0z" transform="matrix(1,0,0,-1,57.1562575,1.4970127)" fill="rgb(255,255,255)" stroke="rgb(0,0,0)" stroke-width="0.0010cm" stroke-linecap="round" stroke-linejoin="round" /><path d="M60.9487425,-1.0029873 a0.395,0.395 0 1,1 0.79,0 a0.395,0.395 0 1,1 -0.79,0z" transform="matrix(1,0,0,-1,57.1562575,1.4970127)" fill="rgb(255,255,255)" stroke="rgb(0,0,0)" stroke-width="0.0010cm" stroke-linecap="round" stroke-linejoin="round" /><path d="M-55.0512575,-1.0029873 a0.395,0.395 0 1,1 0.79,0 a0.395,0.395 0 1,1 -0.79,0z" transform="matrix(1,0,0,-1,57.1562575,1.4970127)" fill="rgb(255,255,255)" stroke="rgb(0,0,0)" stroke-width="0.0010cm" stroke-linecap="round" stroke-linejoin="round" /><path d="M60.9487425,-32.0029873 a0.395,0.395 0 1,1 0.79,0 a0.395,0.395 0 1,1 -0.79,0z" transform="matrix(1,0,0,-1,57.1562575,1.4970127)" fill="rgb(255,255,255)" stroke="rgb(0,0,0)" stroke-width="0.0010cm" stroke-linecap="round" stroke-linejoin="round" /><path d="M-55.0512575,-32.0029873 a0.395,0.395 0 1,1 0.79,0 a0.395,0.395 0 1,1 -0.79,0z" transform="matrix(1,0,0,-1,57.1562575,1.4970127)" fill="rgb(255,255,255)" stroke="rgb(0,0,0)" stroke-width="0.0010cm" stroke-linecap="round" stroke-linejoin="round" /><path d="M40.5770759,-1.5029873 A0.3,0.3 270 0,1 40.8770759,-1.2029873 L40.8770759,-0.752489 40.8770759,-0.752489 40.877461,-0.736957 40.8786146,-0.721475 40.8805342,-0.7060727 40.8832171,-0.6907798 40.8866605,-0.6756271 40.8908534,-0.6606716 40.8957844,-0.6459542 40.9014449,-0.6315036 40.9078262,-0.6173485 40.9149164,-0.6035233 40.9226823,-0.590095 40.9311035,-0.5770959 40.9401631,-0.564551 40.9498442,-0.5524854 40.9601301,-0.540924 40.9710037,-0.5298918 40.9824483,-0.5194137 40.9944228,-0.509534 41.0068658,-0.500304 41.0197512,-0.4917407 41.0330532,-0.4838608 41.0467461,-0.476681 41.0608042,-0.470218 41.0752018,-0.4644884 41.0899063,-0.4595111 41.1048288,-0.4553181 41.1199242,-0.4519191 41.135162,-0.4493185 41.1505114,-0.4475208 41.1659418,-0.4465305 41.1814225,-0.446352 41.1969229,-0.4469897 41.1969229,-0.4469897 41.3959156,-0.4605588 41.5929317,-0.4742405 41.7879989,-0.4880352 41.9811447,-0.5019434 42.172397,-0.5159652 42.3617833,-0.5301012 42.5493314,-0.5443517 42.7350689,-0.558717 42.9190243,-0.5731974 43.1012228,-0.5877931 43.2816859,-0.6025047 43.4604352,-0.6173326 43.6374923,-0.6322774 43.8128786,-0.6473394 43.9866158,-0.6625192 44.1587254,-0.6778173 44.329229,-0.6932342 44.498148,-0.7087703 44.6655041,-0.7244261 44.8313187,-0.7402022 44.9956136,-0.756099 45.1584101,-0.772117 45.3197298,-0.7882567 45.4795943,-0.8045186 45.6380209,-0.8209034 45.795025,-0.8374118 45.9506236,-0.8540444 46.1048339,-0.8708019 46.2576727,-0.8876849 46.4091573,-0.904694 46.5593046,-0.9218298 46.7081316,-0.9390929 46.7081316,-0.9390929 46.7214389,-0.9409878 46.734606,-0.9435383 46.747615,-0.9467343 46.760448,-0.9505652 46.773087,-0.955021 46.785514,-0.9600913 46.797711,-0.9657657 46.8096238,-0.9720135 46.8212116,-0.9788033 46.8324637,-0.9861174 46.8433694,-0.9939382 46.853918,-1.0022481 46.8739008,-1.0202645 46.8922613,-1.0399455 46.9088815,-1.0610573 46.9237391,-1.0834533 46.936812,-1.1069873 46.9480778,-1.1315127 46.9574963,-1.1568224 46.9650542,-1.1827322 46.9707658,-1.2091178 46.9746452,-1.2358551 46.9746452,-1.2358551 46.9764658,-1.2494682 46.9789047,-1.262964 46.981956,-1.276322 46.9856134,-1.2895214 46.9898711,-1.3025416 46.9947228,-1.315362 47.0001626,-1.3279619 47.0061809,-1.3403142 47.0127505,-1.352363 47.0198559,-1.3640854 47.0274845,-1.375464 47.0356237,-1.3864813 47.0442607,-1.3971201 47.0533828,-1.407363 47.0629774,-1.4171925 47.0730083,-1.4265704 47.0834398,-1.4354659 47.0942537,-1.4438671 47.1054321,-1.4517625 47.116957,-1.4591403 47.1288105,-1.4659888 47.1409745,-1.4722963 47.153431,-1.478051 47.1661543,-1.4832384 47.1790827,-1.4878334 47.1921888,-1.4918291 47.2054514,-1.4952214 47.2188497,-1.4980061 47.2323624,-1.5001792 47.2459687,-1.5017365 47.2596474,-1.5026739 47.2733774,-1.5029873 49.0879122,-1.5029873 49.0879122,-1.5029873 49.1112716,-1.5021016 49.1344832,-1.4994547 49.157446,-1.4950618 49.1800102,-1.4889534 49.2020426,-1.4811701 49.2234432,-1.4717484 49.2440462,-1.4607646 49.2637358,-1.4482893 49.2824252,-1.4343815 49.3000275,-1.4191004 49.3164557,-1.4025051 49.3315772,-1.384711 49.3452707,-1.3658514 49.3574654,-1.3460121 49.3680906,-1.3252792 49.3770759,-1.3037388 49.3770759,-1.3037388 49.487475,-1.3214528 49.5970762,-1.3392805 49.7058869,-1.3572228 49.8139146,-1.3752804 49.9211666,-1.3934541 50.0276504,-1.4117446 50.1333735,-1.4301528 50.2383432,-1.4486794 50.342567,-1.4673253 50.4460523,-1.4860911 50.5488067,-1.5049777 50.6508374,-1.5239859 50.752152,-1.5431164 50.8527594,-1.5623696 50.9526663,-1.5817464 51.0518783,-1.6012476 51.1504008,-1.6208744 51.2482397,-1.6406277 51.3454005,-1.6605086 51.4418888,-1.680518 51.5377103,-1.700657 51.6328706,-1.7209266 51.7273753,-1.7413278 51.8212301,-1.7618616 51.9144405,-1.7825291 52.0070122,-1.8033311 52.0989508,-1.8242688 52.190262,-1.8453431 52.2809513,-1.8665551 52.3710244,-1.8879057 52.460487,-1.909396 52.5493446,-1.931027 52.6376028,-1.9527997 52.7252674,-1.974715 52.8123439,-1.9967741 52.898838,-2.0189779 53.0701012,-2.0638238 53.239102,-2.1092605 53.4058802,-2.1552957 53.5704671,-2.2019403 53.7328934,-2.2492061 53.89319,-2.2971049 54.0513875,-2.3456486 54.2075167,-2.394849 54.3616084,-2.444718 54.5136933,-2.4952674 54.6638021,-2.5465091 54.8119656,-2.5984549 54.9582145,-2.6511166 55.1025796,-2.7045061 55.2450916,-2.7586352 55.3857813,-2.8135157 55.5246794,-2.8691596 55.6618149,-2.9255767 55.7972094,-2.9827808 55.9308824,-3.0407908 56.0628535,-3.0996252 56.1931423,-3.1593028 56.3217683,-3.2198421 56.4487511,-3.281262 56.5741104,-3.343581 56.6978656,-3.4068178 56.8200363,-3.4709912 56.9406421,-3.5361196 57.0597025,-3.602222 57.1772372,-3.6693168 57.2932657,-3.7374228 57.4078076,-3.8065587 57.5208823,-3.8767431 57.6325096,-3.9479947 57.7427091,-4.0203307 57.8514976,-4.0937622 57.9588857,-4.1683183 58.0648834,-4.2440322 58.1695005,-4.3209373 58.2727469,-4.3990666 58.3746325,-4.4784535 58.4751672,-4.5591311 58.5743608,-4.6411326 58.6722233,-4.7244913 58.7687645,-4.8092403 58.8639943,-4.8954129 58.9579226,-4.9830423 59.0505593,-5.0721617 59.1419142,-5.1628043 59.2319973,-5.2550033 59.3208184,-5.348792 59.4083874,-5.4442035 59.4947142,-5.541271 59.5798087,-5.6400278 59.6636803,-5.7405079 59.7463289,-5.8427656 59.827754,-5.946861 59.9079576,-6.0528503 59.9869418,-6.1607894 60.0647086,-6.2707345 60.1031362,-6.3264768 60.1412602,-6.3827416 60.1790808,-6.439536 60.2165984,-6.4968669 60.2538132,-6.5547414 60.2907255,-6.6131664 60.3273354,-6.672149 60.3636433,-6.7316963 60.3996494,-6.7918151 60.435354,-6.8525125 60.4707574,-6.9137955 60.5058598,-6.9756704 60.5406615,-7.0381438 60.5751617,-7.1012263 60.6093599,-7.1649288 60.6432553,-7.2292622 60.6768474,-7.2942373 60.7101355,-7.3598649 60.7431188,-7.4261559 60.7757968,-7.4931212 60.8081688,-7.5607716 60.8402341,-7.6291179 60.8719921,-7.698171 60.9034421,-7.7679417 60.9345834,-7.838441 60.9654155,-7.9096796 60.9959376,-7.9816683 61.026149,-8.0544181 61.0560493,-8.1279398 61.0856375,-8.2022441 61.1149132,-8.2773421 61.1438757,-8.3532445 61.1725242,-8.4299622 61.2008582,-8.5075059 61.228877,-8.585886 61.2565807,-8.6651089 61.2839675,-8.7451913 61.3110351,-8.8261512 61.3377814,-8.9080072 61.3642042,-8.9907776 61.3903015,-9.0744807 61.416071,-9.1591349 61.4415106,-9.2447585 61.4666182,-9.33137 61.4913916,-9.4189875 61.5158286,-9.5076296 61.539927,-9.5973146 61.5636849,-9.6880607 61.5870999,-9.7798864 61.6101699,-9.8728101 61.6328928,-9.96685 61.6552664,-10.0620245 61.6772886,-10.158352 61.6989572,-10.2558509 61.7202701,-10.3545394 61.7412251,-10.454436 61.76182,-10.555559 61.7820527,-10.6579267 61.8019211,-10.7615576 61.8214226,-10.8664716 61.8405523,-10.9727024 61.8593057,-11.0802805 61.8776786,-11.189235 61.8956671,-11.2995949 61.9132669,-11.4113892 61.9304741,-11.5246469 61.9472844,-11.6393971 61.9636937,-11.7556688 61.979698,-11.8734909 61.9952931,-11.9928926 62.010475,-12.1139028 62.0252395,-12.2365505 62.0395826,-12.3608645 62.0534999,-12.4868748 62.0669854,-12.6146219 62.0800326,-12.7441474 62.0926352,-12.8754929 62.104787,-13.0087001 62.1164815,-13.1438105 62.1277124,-13.2808659 62.1384734,-13.4199078 62.1487582,-13.560978 62.1585603,-13.704118 62.1678735,-13.8493695 62.1766915,-13.9967741 62.1850078,-14.1463736 62.1928165,-14.2982073 62.2001094,-14.4523275 62.2035593,-14.5302647 62.2068764,-14.6087971 62.2100597,-14.6879325 62.2131077,-14.7676789 62.2160192,-14.848044 62.218793,-14.9290356 62.2214278,-15.0106618 62.2239224,-15.0929302 62.2262755,-15.1758489 62.2284859,-15.2594255 62.2305523,-15.343668 62.2324734,-15.4285842 62.2342481,-15.514182 62.235875,-15.6004692 62.2373529,-15.6874537 62.2386806,-15.7751433 62.2398567,-15.8635459 62.2408801,-15.9526693 62.2417495,-16.0425215 62.2424637,-16.1331101 62.2430213,-16.2244432 62.2434211,-16.3165285 62.243662,-16.4093739 62.2437425,-16.5029873 62.2437425,-16.5029873 62.2436617,-16.5965988 62.2434199,-16.6894391 62.2430187,-16.7815165 62.2424593,-16.8728393 62.2417431,-16.9634157 62.2408713,-17.0532543 62.2398454,-17.1423632 62.2386667,-17.2307508 62.2373364,-17.3184254 62.235856,-17.4053954 62.2342267,-17.491669 62.23245,-17.5772546 62.230527,-17.6621606 62.2284593,-17.7463952 62.226248,-17.8299668 62.2238946,-17.9128836 62.2214004,-17.9951541 62.2187666,-18.0767866 62.2159947,-18.1577893 62.213086,-18.2381706 62.2100417,-18.3179383 62.2068628,-18.3970983 62.2035501,-18.4756568 62.2001047,-18.5536199 62.1928194,-18.7077839 62.1850144,-18.8596391 62.1766973,-19.0092341 62.1678757,-19.1566176 62.1585571,-19.3018382 62.148749,-19.4449446 62.1384592,-19.5859854 62.127695,-19.7250094 62.1164647,-19.8620681 62.1047768,-19.9972159 62.0926362,-20.1304863 62.0800476,-20.2619111 62.0670155,-20.3915219 62.0535445,-20.5193503 62.0396391,-20.645428 62.025304,-20.7697867 62.0105437,-20.8924579 61.9953628,-21.0134734 61.9797658,-21.1328648 61.9637574,-21.2506637 61.9473421,-21.3669018 61.9305245,-21.4816108 61.9133091,-21.5948222 61.8957006,-21.7065678 61.8777035,-21.8168792 61.8593224,-21.9257879 61.8405619,-22.0333258 61.8214265,-22.1395244 61.8019208,-22.2444154 61.7820485,-22.3480255 61.7618104,-22.4503646 61.7412088,-22.551452 61.7202461,-22.6513079 61.6989249,-22.7499525 61.6772478,-22.8474061 61.6552171,-22.943689 61.6328355,-23.0388214 61.6101055,-23.1328235 61.5870295,-23.2257156 61.56361,-23.317518 61.5398497,-23.4082508 61.5157509,-23.4979344 61.4913162,-23.586589 61.4665482,-23.674235 61.4414491,-23.7608911 61.4160204,-23.8465717 61.3902633,-23.9312909 61.3641791,-24.0150624 61.3377692,-24.0979001 61.3110348,-24.179818 61.2839773,-24.2608301 61.2565978,-24.3409501 61.2288977,-24.4201919 61.2008784,-24.4985696 61.172541,-24.576097 61.1438869,-24.6527879 61.1149174,-24.7286564 61.0856338,-24.8037162 61.0560373,-24.8779814 61.0261292,-24.9514658 60.995911,-25.0241832 60.9653837,-25.0961477 60.9345488,-25.1673732 60.9034076,-25.2378726 60.8719604,-25.3076555 60.8402074,-25.3767306 60.8081489,-25.4451068 60.7757851,-25.5127929 60.743116,-25.5797977 60.7101421,-25.64613 60.6768633,-25.7117986 60.64328,-25.7768124 60.6093924,-25.8411801 60.5752006,-25.9049106 60.5407048,-25.9680127 60.5059052,-26.0304952 60.4708021,-26.0923669 60.4353956,-26.1536366 60.3996859,-26.2143133 60.3636732,-26.2744055 60.3273578,-26.3339223 60.2907397,-26.3928724 60.2538193,-26.4512646 60.2165967,-26.5091077 60.1790721,-26.5664105 60.1412457,-26.623182 60.0646884,-26.7351658 59.9869268,-26.8451279 59.9079592,-26.9531193 59.8277791,-27.0591812 59.7463797,-27.1633545 59.6637543,-27.2656803 59.5798961,-27.3661996 59.4947983,-27.4649534 59.4084544,-27.5619828 59.3208575,-27.6573289 59.2320008,-27.7510325 59.1418777,-27.8431348 59.0504815,-27.9336767 58.9578053,-28.0226994 58.8638425,-28.1102438 58.7685863,-28.196351 58.67203,-28.2810619 58.5741668,-28.3644176 58.4749912,-28.4464587 58.3744998,-28.5272159 58.2726775,-28.6067114 58.1695076,-28.6849668 58.064973,-28.762004 57.9590571,-28.8378446 57.8517431,-28.9125105 57.743014,-28.9860234 57.6328532,-29.058405 57.5212437,-29.1296771 57.4081688,-29.1998615 57.2936116,-29.26898 57.1775553,-29.3370542 57.0599831,-29.404106 56.9408782,-29.470157 56.8202238,-29.5352291 56.698003,-29.599344 56.5741991,-29.6625235 56.4487952,-29.7247893 56.3217744,-29.7861632 56.1931201,-29.8466669 56.0628153,-29.9063222 55.9308432,-29.9651508 55.7971867,-30.0231739 55.6618157,-30.080396 55.5246991,-30.1368244 55.3858085,-30.1924722 55.2451157,-30.2473522 55.1025923,-30.3014771 54.9582101,-30.35486 54.8119409,-30.4075136 54.6637563,-30.4594508 54.513628,-30.5106844 54.3615279,-30.5612274 54.2074276,-30.6110926 54.0512988,-30.6602929 53.8931133,-30.708841 53.7328445,-30.7567496 53.5704618,-30.8040286 53.4059239,-30.8506868 53.2391893,-30.8967329 53.0702162,-30.9421756 52.8989629,-30.9870237 52.8124683,-31.0092275 52.725388,-31.0312859 52.6377168,-31.0532001 52.5494495,-31.074971 52.460581,-31.0965999 52.371106,-31.1180877 52.2810194,-31.1394356 52.1903158,-31.1606448 52.0989901,-31.1817161 52.0070371,-31.2026509 51.9144516,-31.2234501 51.8212284,-31.2441149 51.7273622,-31.2646462 51.6328479,-31.2850454 51.5376803,-31.3053133 51.4418541,-31.3254512 51.3453642,-31.3454601 51.2482052,-31.3653411 51.1503721,-31.3850953 51.0518593,-31.4047238 50.952657,-31.4242269 50.8527576,-31.4436054 50.7521541,-31.4628599 50.6508395,-31.4819913 50.548807,-31.5010003 50.4460495,-31.5198876 50.3425602,-31.5386541 50.238332,-31.5573003 50.1333581,-31.5758272 50.0276315,-31.5942355 49.9211452,-31.6125259 49.8138923,-31.6306991 49.7058658,-31.6487559 49.5970589,-31.6666972 49.4874646,-31.6845235 49.3770759,-31.7022358 49.3770759,-31.7022358 49.3680817,-31.6806765 49.3574305,-31.6599013 49.3451886,-31.640001 49.3314513,-31.6211035 49.316317,-31.6033184 49.2998651,-31.5867226 49.2822186,-31.5714274 49.263503,-31.5575253 49.243807,-31.5450707 49.2232199,-31.5341177 49.2018305,-31.5247205 49.1798012,-31.5169561 49.1572958,-31.5108783 49.1344132,-31.5065093 49.1112524,-31.5038715 49.0879122,-31.5029873 47.2733774,-31.5029873 47.2733774,-31.5029873 47.2596455,-31.5033007 47.2459615,-31.5042387 47.2323465,-31.5057975 47.2188218,-31.5079735 47.2054084,-31.5107631 47.1921276,-31.5141625 47.1790005,-31.5181683 47.1660543,-31.5227743 47.1533466,-31.5279602 47.1409028,-31.5337134 47.1287417,-31.5400234 47.1168821,-31.5468798 47.1053427,-31.5542721 47.0941424,-31.5621899 47.0832999,-31.5706226 47.0728564,-31.57954 47.0628478,-31.5889091 47.0532879,-31.5987135 47.0441906,-31.608937 47.0355698,-31.6195629 47.0274392,-31.630575 47.0198128,-31.6419567 47.0127043,-31.6536918 47.0061311,-31.6657569 47.0001257,-31.678093 46.9946986,-31.6906727 46.9898562,-31.7034754 46.9856052,-31.7164808 46.981952,-31.7296684 46.9789033,-31.7430176 46.9764655,-31.7565081 46.9746452,-31.7701195 46.9746452,-31.7701195 46.9707631,-31.7968697 46.9650438,-31.8232795 46.9574709,-31.8492258 46.9480449,-31.8745419 46.9367874,-31.8990381 46.9237094,-31.9225708 46.9088221,-31.9449967 46.892138,-31.9661703 46.873769,-31.9858404 46.8538281,-32.003802 46.8432907,-32.0120969 46.8323872,-32.0199101 46.8211267,-32.0272237 46.8095181,-32.0340194 46.7975987,-32.0402644 46.7854284,-32.0459207 46.7730254,-32.0509772 46.7604072,-32.055423 46.7475912,-32.0592471 46.734595,-32.0624389 46.7214359,-32.0649873 46.7081316,-32.0668816 46.7081316,-32.0668816 46.559313,-32.0841441 46.4091756,-32.1012794 46.2577014,-32.1182883 46.1048723,-32.1351712 45.9506702,-32.1519289 45.7950772,-32.1685617 45.6380752,-32.1850704 45.4796461,-32.2014555 45.3197719,-32.2177175 45.1584346,-32.2338571 44.9956161,-32.2498748 44.8312984,-32.2657712 44.6654634,-32.2815468 44.498093,-32.2972023 44.3291702,-32.3127383 44.1586759,-32.3281554 43.9865859,-32.343454 43.8128754,-32.3586346 43.6375196,-32.3736975 43.4604938,-32.3886431 43.2817733,-32.4034718 43.1013334,-32.418184 42.9191492,-32.4327801 42.7351962,-32.4472605 42.5494495,-32.4616255 42.3618844,-32.4758757 42.1724762,-32.4900112 41.9812002,-32.5040327 41.7880316,-32.5179404 41.5929456,-32.5317347 41.3959176,-32.5454161 41.1969229,-32.5589849 41.1969229,-32.5589849 41.1814136,-32.5596227 41.1659066,-32.5594427 41.1504329,-32.5584466 41.1350237,-32.5566362 41.1197192,-32.5540149 41.1045879,-32.5505955 41.0896637,-32.5463882 41.074976,-32.5414029 41.0605554,-32.5356497 41.0464712,-32.5291582 41.0327692,-32.5219552 41.0194735,-32.5140595 41.0066082,-32.5054896 40.9941977,-32.4962642 40.9822659,-32.4864021 40.9708371,-32.4759219 40.9599455,-32.464853 40.9496516,-32.4532609 40.9399748,-32.4411762 40.9309299,-32.4286251 40.9225317,-32.4156337 40.9147949,-32.4022282 40.9077342,-32.3884348 40.9013645,-32.3742796 40.8957094,-32.3598138 40.8907933,-32.3451076 40.8866209,-32.3301913 40.8831969,-32.3150942 40.8805258,-32.2998457 40.8786122,-32.2844752 40.8774607,-32.269012 40.8770759,-32.2534856 40.8770759,-31.8029873 A0.3,0.3 0 0,1 40.5770759,-31.5029873 L38.7770759,-31.5029873 A0.3,0.3 90 0,1 38.4770759,-31.8029873 L38.4770759,-32.4358134 38.4770759,-32.4358134 38.4767381,-32.4501203 38.4757273,-32.4643743 38.4740477,-32.4785515 38.4717032,-32.4926284 38.4686978,-32.506581 38.4650356,-32.5203857 38.4607205,-32.5340186 38.4557599,-32.547448 38.450178,-32.5606077 38.4439893,-32.5734707 38.4372059,-32.586016 38.42984,-32.5982229 38.4219038,-32.6100705 38.4134095,-32.6215381 38.4043692,-32.6326048 38.3947974,-32.6432475 38.3847414,-32.6534119 38.3742303,-32.6630718 38.3632834,-32.6722124 38.3519199,-32.6808191 38.3401592,-32.6888771 38.3280203,-32.6963717 38.3155225,-32.7032884 38.3026858,-32.709612 38.2895692,-32.7153118 38.276218,-32.72037 38.262656,-32.7247807 38.2489064,-32.7285377 38.2349929,-32.7316349 38.220939,-32.7340662 38.2067681,-32.7358254 38.1925037,-32.7369065 38.1925037,-32.7369065 37.9654396,-32.7485401 37.851012,-32.7543172 37.7359806,-32.7600679 37.6203404,-32.7657922 37.5040865,-32.77149 37.3872139,-32.7771615 37.2697176,-32.7828065 37.1515926,-32.7884252 37.0328338,-32.7940175 36.9134364,-32.7995834 36.7933964,-32.805123 36.6727159,-32.8106363 36.5513899,-32.8161233 36.4294119,-32.8215841 36.3067754,-32.8270185 36.183474,-32.8324265 36.0595012,-32.8378081 35.9348505,-32.8431633 35.8095155,-32.8484921 35.6834896,-32.8537943 35.5567664,-32.85907 35.4293395,-32.8643192 35.3012022,-32.8695417 35.1723483,-32.8747376 35.0427711,-32.8799069 34.9124642,-32.8850495 34.7814211,-32.8901653 34.6496355,-32.8952544 34.5171007,-32.9003167 34.3838103,-32.9053522 34.2497578,-32.9103608 34.1149368,-32.9153426 33.9793408,-32.9202974 33.8429633,-32.9252253 33.7057979,-32.9301261 33.5678379,-32.935 33.4290771,-32.9398468 33.2895089,-32.9446666 33.1491268,-32.9494592 33.0079243,-32.9542247 32.8658951,-32.958963 32.7230325,-32.9636741 32.5793302,-32.968358 32.4347816,-32.9730145 32.2893803,-32.9776438 32.1431198,-32.9822458 31.9959936,-32.9868203 31.8479953,-32.9913675 31.6991183,-32.9958872 31.5493562,-33.0003795 31.3987026,-33.0048442 31.2471509,-33.0092815 31.0946942,-33.0136911 30.941318,-33.018073 30.7870111,-33.022427 30.6317646,-33.0267531 30.4755697,-33.0310512 30.3184174,-33.0353212 30.1602989,-33.039563 30.0012052,-33.0437767 29.8411275,-33.0479621 29.6800569,-33.0521191 29.5179845,-33.0562478 29.5179845,-33.0562478 29.5029794,-33.0562514 29.4880036,-33.0555041 29.4730853,-33.0540083 29.4582524,-33.0517662 29.4435438,-33.0487826 29.4290144,-33.0450692 29.4146927,-33.0406344 29.4006054,-33.0354867 29.3867853,-33.0296368 29.3732969,-33.0231136 29.3601709,-33.015936 29.3474301,-33.0081197 29.3350976,-32.9996806 29.3231966,-32.9906346 29.3117499,-32.9809976 29.3007806,-32.9707854 29.2903227,-32.9600258 29.2804318,-32.9487771 29.2711263,-32.9370659 29.2624213,-32.9249154 29.2543321,-32.9123491 29.246874,-32.8993904 29.2400622,-32.8860626 29.233912,-32.8723892 29.2284472,-32.8584174 29.2236935,-32.8442167 29.2196566,-32.8298153 29.2163417,-32.8152407 29.2137542,-32.8005202 29.2118994,-32.7856813 29.2107826,-32.7707512 29.2104092,-32.7557575 29.2104092,-31.8029873 A0.3,0.3 0 0,1 28.9104092,-31.5029873 L27.1104092,-31.5029873 A0.3,0.3 90 0,1 26.8104092,-31.8029873 L26.8104092,-32.8224108 26.8104092,-32.8224108 26.8100569,-32.8370104 26.809003,-32.8515516 26.8072524,-32.8660091 26.8048097,-32.8803577 26.8016797,-32.8945722 26.7978672,-32.9086275 26.7933767,-32.9224982 26.7882131,-32.9361592 26.7823961,-32.9495528 26.7759501,-32.962627 26.7688887,-32.9753603 26.7612256,-32.9877309 26.7529745,-32.9997171 26.7441492,-33.0112972 26.7347633,-33.0224495 26.7248307,-33.0331523 26.7143898,-33.0433606 26.7034853,-33.0530327 26.6921382,-33.0621537 26.6803695,-33.0707087 26.6682,-33.0786828 26.6556509,-33.086061 26.6427431,-33.0928284 26.6294975,-33.09897 26.6159674,-33.1044587 26.602211,-33.1092726 26.5882534,-33.113406 26.5741198,-33.1168532 26.5598353,-33.1196086 26.5454253,-33.1216666 26.5309148,-33.1230213 26.5163291,-33.1236673 26.5163291,-33.1236673 26.3782815,-33.1263882 26.2395442,-33.1290918 26.1001118,-33.1317779 25.9599793,-33.1344465 25.8191413,-33.1370976 25.6775927,-33.139731 25.5353281,-33.1423469 25.3923424,-33.144945 25.3923424,-33.144945 25.3750459,-33.1092238 25.3581129,-33.0730124 25.3252493,-32.9992253 25.2935739,-32.9237973 25.2629085,-32.8469426 25.2330743,-32.7688755 25.2038925,-32.68981 25.1751846,-32.6099596 25.1467722,-32.5295366 25.0901267,-32.3678149 25.0325531,-32.2063098 25.0029875,-32.126148 24.9726775,-32.0466457 24.9414575,-31.9679974 24.9091657,-31.8903934 24.8756438,-31.8140189 24.8407381,-31.7390539 24.8042996,-31.6656723 24.7854603,-31.6296279 24.7661845,-31.5940417 24.7464548,-31.5589336 24.7262548,-31.5243228 24.705568,-31.4902283 24.6843787,-31.4566684 24.6626715,-31.4236612 24.6404313,-31.3912238 24.6176436,-31.3593732 24.5942946,-31.3281253 24.5703706,-31.2974958 24.545859,-31.2674994 24.5207474,-31.2381504 24.4950243,-31.2094621 24.4686785,-31.1814471 24.4417,-31.1541173 24.4140791,-31.1274835 24.3858071,-31.101556 24.356876,-31.0763439 24.3272785,-31.0518554 24.2970084,-31.0280978 24.2660602,-31.0050774 24.2344293,-30.9827993 24.2021121,-30.9612679 24.1691059,-30.940486 24.1354092,-30.9204555 A1.25,1.25 60 0,1 22.8854092,-30.9204555 L22.8854092,-30.9204555 22.8482041,-30.9425508 22.81188,-30.965366 22.7764346,-30.9888994 22.7418646,-31.0131478 22.7081651,-31.0381069 22.6753301,-31.0637715 22.6433525,-31.0901352 22.612224,-31.1171906 22.5819352,-31.1449292 22.5524755,-31.1733418 22.5238335,-31.202418 22.4959967,-31.2321466 22.4689517,-31.2625157 22.4426841,-31.2935123 22.4171787,-31.3251229 22.3924196,-31.357333 22.3683899,-31.3901275 22.3450721,-31.4234907 22.322448,-31.4574061 22.3004988,-31.4918566 22.2792049,-31.5268246 22.2585462,-31.5622919 22.2385022,-31.5982398 22.2190517,-31.634649 22.2001731,-31.6714999 22.181844,-31.7087721 22.164042,-31.746445 22.1467439,-31.7844975 22.1135648,-31.8616546 22.0821136,-31.9400662 22.0521911,-32.0195488 22.0235926,-32.0999136 21.9961089,-32.1809666 21.9695264,-32.2625095 21.918194,-32.4262527 21.867827,-32.5894862 21.8424435,-32.6703826 21.816624,-32.7505122 21.7901405,-32.8296583 21.7627646,-32.9076034 21.7342678,-32.9841292 21.7044222,-33.0590171 21.6889226,-33.0957786 21.6730008,-33.1320488 21.6566286,-33.1678006 21.639778,-33.2030068 21.639778,-33.2030068 21.4845712,-33.205025 21.3285559,-33.2070258 21.1717296,-33.2090089 21.0140902,-33.2109743 21.0140902,-33.2109743 20.9991587,-33.2107842 20.9842658,-33.2098457 20.9694392,-33.2081616 20.9547066,-33.2057344 20.9401111,-33.2025708 20.9257033,-33.1986825 20.9115095,-33.1940784 20.8975562,-33.188767 20.8838857,-33.1827644 20.8705571,-33.1760996 20.857594,-33.1687894 20.8450186,-33.1608496 20.8328531,-33.1522965 20.8211198,-33.143146 20.8098408,-33.1334142 20.7990383,-33.1231171 20.7887552,-33.1122936 20.7790371,-33.1009954 20.7698986,-33.0892459 20.761354,-33.0770682 20.7534176,-33.0644855 20.7461039,-33.051521 20.7394271,-33.0381979 20.7334015,-33.0245392 20.7280528,-33.0105997 20.7234013,-32.996439 20.719452,-32.9820839 20.7162097,-32.9675611 20.7136793,-32.9528974 20.7118659,-32.9381194 20.7107742,-32.9232539 20.7104092,-32.9083275 20.7104092,-31.8029873 A0.3,0.3 0 0,1 20.4104092,-31.5029873 L18.6104092,-31.5029873 A0.3,0.3 90 0,1 18.3104092,-31.8029873 L18.3104092,-32.9400933 18.3104092,-32.9400933 18.3100543,-32.9548437 18.3089926,-32.9695352 18.307229,-32.9841419 18.3047682,-32.9986383 18.3016148,-33.0129987 18.2977737,-33.0271974 18.2932494,-33.0412087 18.2880469,-33.055007 18.2821787,-33.0685491 18.2756738,-33.0817687 18.2685467,-33.0946417 18.2608112,-33.1071456 18.252481,-33.1192581 18.2435698,-33.130957 18.2340915,-33.14222 18.2240598,-33.1530246 18.2135034,-33.1633345 18.2024756,-33.1730977 18.190999,-33.1822971 18.179095,-33.1909172 18.166785,-33.1989424 18.1540902,-33.206357 18.1410321,-33.2131457 18.1276319,-33.2192927 18.1139368,-33.2247728 18.1000144,-33.2295597 18.0858914,-33.2336472 18.0715938,-33.2370296 18.0571474,-33.239701 18.0425782,-33.2416557 18.027912,-33.2428877 18.0131749,-33.2433915 18.0131749,-33.2433915 17.7736377,-33.2455978 17.5323185,-33.2477677 17.2891935,-33.249901 17.0442387,-33.2519975 16.7974302,-33.2540567 16.5487441,-33.2560783 16.2981565,-33.2580622 16.0456435,-33.260008 15.7911811,-33.2619153 15.5347454,-33.263784 15.2763126,-33.2656137 15.0158585,-33.267404 14.7533595,-33.2691548 14.4887914,-33.2708657 14.2221305,-33.2725365 13.9533527,-33.2741667 13.6824342,-33.2757562 13.409351,-33.2773045 13.1340792,-33.2788116 12.856595,-33.2802769 12.5768742,-33.2817003 12.2948932,-33.2830815 12.0106278,-33.28442 11.7240542,-33.2857158 11.4351482,-33.2869684 11.1438721,-33.2881773 10.9973336,-33.2887653 10.8501898,-33.2893421 10.7024369,-33.2899079 10.554071,-33.2904625 10.4050884,-33.2910058 10.2554852,-33.2915379 10.1052577,-33.2920587 9.954402,-33.2925681 9.8029144,-33.2930661 9.650791,-33.2935526 9.4980281,-33.2940275 9.3446219,-33.294491 9.3446219,-33.294491 9.329733,-33.2941599 9.3148899,-33.29308 9.3001197,-33.2912542 9.28545,-33.2886856 9.2709284,-33.2853824 9.2566006,-33.2813564 9.2424923,-33.2766165 9.2286297,-33.2711718 9.2150665,-33.2650448 9.2018505,-33.2582614 9.1890032,-33.250838 9.1765463,-33.2427908 9.1645012,-33.2341363 9.1528895,-33.2248907 9.141733,-33.2150704 9.1310536,-33.2046922 9.1209025,-33.1938058 9.1113134,-33.1824534 9.1023,-33.1706579 9.093876,-33.1584426 9.0860549,-33.1458304 9.0788503,-33.1328444 9.0722759,-33.1195078 9.0663453,-33.1058439 9.0610852,-33.0919132 9.0565116,-33.0777666 9.052629,-33.0634304 9.0494421,-33.0489307 9.0469554,-33.034294 9.0451735,-33.0195463 9.044101,-33.0047139 9.0437425,-32.989823 9.0437425,-31.8029873 A0.3,0.3 0 0,1 8.7437425,-31.5029873 L6.9437425,-31.5029873 A0.3,0.3 90 0,1 6.6437425,-31.8029873 L6.6437425,-32.9959823 6.6437425,-32.9959823 6.6433859,-33.0108484 6.6423178,-33.0256716 6.6405403,-33.0404257 6.6380559,-33.0550841 6.6348693,-33.069611 6.6309906,-33.0839584 6.626427,-33.0980998 6.6211854,-33.1120097 6.6152763,-33.1256555 6.6087251,-33.1389781 6.6015475,-33.1519501 6.5937572,-33.1645488 6.585368,-33.1767511 6.5763937,-33.1885345 6.5668479,-33.1998761 6.5567443,-33.2107531 6.5461059,-33.2211341 6.5349888,-33.2309626 6.5234188,-33.240218 6.5114175,-33.2488843 6.4990063,-33.2569454 6.4862069,-33.2643852 6.4730408,-33.2711876 6.4595295,-33.2773365 6.4457159,-33.282808 6.4316739,-33.2875726 6.4174319,-33.2916235 6.4030166,-33.2949549 6.3884542,-33.2975608 6.3737713,-33.2994354 6.3589943,-33.3005726 6.3441497,-33.3009667 6.3441497,-33.3009667 6.1633074,-33.3012082 5.9816063,-33.3014347 5.7990393,-33.3016461 5.6155996,-33.3018425 5.4312803,-33.3020236 5.2460745,-33.3021894 5.0599754,-33.3023399 4.8729759,-33.3024748 4.6850692,-33.3025942 4.4962485,-33.302698 4.3065068,-33.302786 4.1158373,-33.3028582 3.9242329,-33.3029146 3.731687,-33.3029549 3.5381925,-33.3029792 3.3437425,-33.3029873 3.3437425,-33.3029873 3.0243698,-33.3029795 2.7069805,-33.3029563 2.3915625,-33.3029176 2.0781039,-33.3028635 1.7665927,-33.3027941 1.4570169,-33.3027093 1.1493646,-33.3026093 0.8436237,-33.302494 0.8436237,-33.302494 0.8287539,-33.3021128 0.8139522,-33.3009852 0.7992453,-33.2991171 0.7846597,-33.2965148 0.770222,-33.2931843 0.7559586,-33.2891316 0.7418961,-33.2843627 0.7280615,-33.278884 0.7145239,-33.2727222 0.7013345,-33.265905 0.6885149,-33.2584488 0.6760865,-33.25037 0.6640707,-33.2416852 0.652489,-33.2324106 0.6413627,-33.2225628 0.6307143,-33.2121592 0.6205966,-33.2012522 0.6110403,-33.1898811 0.6020589,-33.178069 0.5936657,-33.1658392 0.5858742,-33.1532146 0.5786978,-33.1402183 0.5721498,-33.1268736 0.5662439,-33.1132039 0.5610069,-33.0992709 0.5564535,-33.0851235 0.5525883,-33.0707877 0.5494158,-33.0562896 0.5469405,-33.0416554 0.5451668,-33.0269111 0.5440993,-33.012083 0.5437425,-32.997197 0.5437425,-31.8029873 A0.3,0.3 0 0,1 0.2437425,-31.5029873 L-1.5562575,-31.5029873 A0.3,0.3 90 0,1 -1.8562575,-31.8029873 L-1.8562575,-32.9950886 -1.8562575,-32.9950886 -1.8566147,-33.0099864 -1.8576847,-33.0248413 -1.8594652,-33.0396268 -1.8619538,-33.0543165 -1.865146,-33.0688748 -1.8690317,-33.0832533 -1.8736036,-33.0974252 -1.8788547,-33.1113648 -1.8847753,-33.1250407 -1.89134,-33.1383937 -1.8985326,-33.1513948 -1.9063393,-33.1640211 -1.9147465,-33.1762496 -1.9237402,-33.1880574 -1.9333068,-33.1994215 -1.9434325,-33.2103191 -1.9540958,-33.2207198 -1.9652402,-33.2305665 -1.9768387,-33.2398372 -1.9888698,-33.248516 -2.0013118,-33.2565864 -2.014143,-33.2640323 -2.0273417,-33.2708374 -2.0408864,-33.2769856 -2.0547355,-33.2824532 -2.0688132,-33.28721 -2.0830907,-33.291249 -2.0975411,-33.2945644 -2.1121379,-33.2971501 -2.1268545,-33.2990004 -2.1416643,-33.3001091 -2.1565406,-33.3004705 -2.1565406,-33.3004705 -2.4555058,-33.3001742 -2.7525295,-33.2998618 -3.0476246,-33.2995333 -3.3408039,-33.2991888 -3.6320803,-33.2988281 -3.9214667,-33.2984516 -4.208976,-33.298059 -4.4946209,-33.2976506 -4.7784145,-33.2972263 -5.0603695,-33.2967862 -5.3404988,-33.2963303 -5.6188153,-33.2958586 -5.8953319,-33.2953713 -6.1700613,-33.2948683 -6.4430166,-33.2943497 -6.7142105,-33.2938156 -6.983656,-33.2932659 -7.2513658,-33.2927008 -7.5173529,-33.2921202 -7.7816302,-33.2915242 -8.0442104,-33.2909128 -8.3051062,-33.2902862 -8.5643275,-33.2896442 -8.8218854,-33.2889871 -9.0777916,-33.2883147 -9.3320579,-33.2876271 -9.584696,-33.2869244 -9.8357175,-33.2862065 -10.0851342,-33.2854736 -10.3329578,-33.2847257 -10.5791999,-33.2839627 -10.8238723,-33.2831848 -10.8238723,-33.2831848 -10.8387236,-33.2827622 -10.8535048,-33.2815942 -10.8681895,-33.279687 -10.8827513,-33.2770466 -10.8971636,-33.2736793 -10.9114002,-33.2695911 -10.9254346,-33.2647881 -10.9392393,-33.259277 -10.9527425,-33.2530863 -10.9658968,-33.2462423 -10.978681,-33.2387614 -10.9910737,-33.2306601 -11.0030537,-33.2219549 -11.0145998,-33.2126622 -11.0256906,-33.2027984 -11.0363034,-33.1923816 -11.0463845,-33.1814657 -11.0559053,-33.1700882 -11.0648526,-33.1582721 -11.0732132,-33.1460404 -11.0809739,-33.1334161 -11.0881213,-33.1204224 -11.0946422,-33.1070822 -11.1005231,-33.0934194 -11.1057372,-33.0794964 -11.1102704,-33.0653603 -11.1141184,-33.0510371 -11.1172767,-33.0365526 -11.1197408,-33.021933 -11.1215064,-33.0072041 -11.122569,-32.9923919 -11.1229241,-32.9775225 -11.1229241,-31.8029873 A0.3,0.3 0 0,1 -11.4229241,-31.5029873 L-13.2229241,-31.5029873 A0.3,0.3 90 0,1 -13.5229241,-31.8029873 L-13.5229241,-32.9661339 -13.5229241,-32.9661339 -13.5232824,-32.9810729 -13.5243555,-32.9959688 -13.5261413,-33.010795 -13.5286372,-33.0255247 -13.531839,-33.0401233 -13.5357365,-33.0545415 -13.5403222,-33.068752 -13.5455892,-33.0827287 -13.5515284,-33.0964419 -13.5581149,-33.1098323 -13.5653313,-33.1228686 -13.573164,-33.1355279 -13.5815992,-33.147787 -13.5906229,-33.1596228 -13.6002214,-33.1710123 -13.6103808,-33.1819322 -13.621081,-33.1923536 -13.6322655,-33.2022187 -13.6439055,-33.2115039 -13.6559794,-33.2201931 -13.6684654,-33.2282697 -13.6813415,-33.2357175 -13.6945862,-33.24252 -13.7081774,-33.248661 -13.722075,-33.2541171 -13.7362015,-33.2588575 -13.750527,-33.2628749 -13.7650246,-33.2661633 -13.7796675,-33.2687169 -13.7944288,-33.2705298 -13.8092818,-33.2715959 -13.8241995,-33.2719095 -13.8241995,-33.2719095 -14.0902445,-33.2707421 -14.354304,-33.2695543 -14.6163825,-33.2683461 -14.8764848,-33.2671176 -14.8764848,-33.2671176 -14.8962701,-33.2314592 -14.9155656,-33.1951524 -14.9343969,-33.1582279 -14.9527896,-33.1207167 -14.9707695,-33.08265 -14.9883626,-33.0440591 -15.0224924,-32.96543 -15.0553883,-32.8850809 -15.08726,-32.8032635 -15.1183177,-32.7202297 -15.1487714,-32.6362306 -15.2087048,-32.4663354 -15.2687235,-32.2955569 -15.2992776,-32.2104442 -15.3304636,-32.1258336 -15.3624794,-32.0419582 -15.3955194,-31.9590466 -15.4297736,-31.877322 -15.4654271,-31.7970011 -15.5026597,-31.7182943 -15.5219226,-31.6796097 -15.5416449,-31.641404 -15.5618472,-31.6037012 -15.5825497,-31.5665248 -15.6037721,-31.5298977 -15.6255336,-31.4938422 -15.647853,-31.4583801 -15.6707484,-31.4235323 -15.6942374,-31.3893194 -15.718337,-31.3557609 -15.7430637,-31.3228758 -15.7684331,-31.2906823 -15.7944601,-31.2591975 -15.821159,-31.228438 -15.8485433,-31.1984191 -15.8766255,-31.1691554 -15.9054173,-31.1406603 -15.9349295,-31.1129462 -15.965172,-31.0860245 -15.9961535,-31.0599053 -16.027882,-31.0345976 -16.0603642,-31.0101091 -16.0936056,-30.9864461 -16.1276107,-30.963614 -16.1623829,-30.9416163 -16.1979241,-30.9204555 A1.25,1.25 60 0,1 -17.4479241,-30.9204555 L-17.4479241,-30.9204555 -17.4858302,-30.9429792 -17.5228215,-30.9662506 -17.5589003,-30.9902676 -17.5940703,-31.0150269 -17.6283367,-31.040524 -17.6617059,-31.0667532 -17.6941856,-31.0937075 -17.7257848,-31.121379 -17.7565136,-31.1497586 -17.7863832,-31.1788364 -17.8154061,-31.2086012 -17.8435957,-31.2390411 -17.8709664,-31.270143 -17.8975335,-31.3018932 -17.9233134,-31.3342771 -17.9483232,-31.3672792 -17.9725809,-31.4008834 -17.9961054,-31.4350726 -18.0189161,-31.4698292 -18.0410333,-31.505135 -18.0624778,-31.5409711 -18.0832711,-31.577318 -18.1034351,-31.6141556 -18.1229927,-31.6514634 -18.1419669,-31.6892203 -18.1603814,-31.7274046 -18.1782605,-31.7659942 -18.1956288,-31.8049666 -18.2289341,-31.8839669 -18.2605036,-31.964216 -18.2905498,-32.0455181 -18.3192909,-32.1276716 -18.3469501,-32.2104697 -18.3737546,-32.2937008 -18.4257263,-32.4605969 -18.4770857,-32.6265969 -18.5031324,-32.708698 -18.5297447,-32.7898958 -18.5571643,-32.8699603 -18.5856328,-32.9486607 -18.6153919,-33.025766 -18.6308306,-33.0636482 -18.6466821,-33.1010449 -18.6629764,-33.1379274 -18.6797432,-33.1742668 -18.6970121,-33.2100345 -18.7148127,-33.245202 -18.7148127,-33.245202 -18.8684863,-33.2441606 -19.0214065,-33.2431104 -19.1735794,-33.2420515 -19.3250114,-33.2409837 -19.3250114,-33.2409837 -19.3398337,-33.2405047 -19.3545834,-33.2392824 -19.3692344,-33.237323 -19.3837604,-33.2346329 -19.3981351,-33.2312181 -19.4123322,-33.2270848 -19.4263256,-33.2222393 -19.4400868,-33.2166886 -19.4535412,-33.2104633 -19.4666463,-33.203588 -19.4793812,-33.196079 -19.4917247,-33.1879528 -19.5036557,-33.1792258 -19.5151531,-33.1699146 -19.5261959,-33.1600354 -19.5367607,-33.1496072 -19.546793,-33.1386854 -19.5562669,-33.1273052 -19.5651693,-33.1154895 -19.5734872,-33.1032612 -19.5812075,-33.0906432 -19.5883171,-33.0776585 -19.594803,-33.0643301 -19.6006516,-33.0506819 -19.6058362,-33.0367773 -19.6103436,-33.0226613 -19.6141695,-33.0083597 -19.6173096,-32.9938982 -19.6197594,-32.9793028 -19.6215147,-32.964599 -19.6225711,-32.9498129 -19.6229241,-32.93497 -19.6229241,-31.8029873 A0.3,0.3 0 0,1 -19.9229241,-31.5029873 L-21.7229241,-31.5029873 A0.3,0.3 90 0,1 -22.0229241,-31.8029873 L-22.0229241,-32.9105225 -22.0229241,-32.9105225 -22.0232841,-32.9255163 -22.0243623,-32.9404666 -22.0261564,-32.9553465 -22.0286641,-32.9701293 -22.0318812,-32.9847809 -22.0357973,-32.999251 -22.040405,-33.0135115 -22.0456971,-33.0275363 -22.0516653,-33.0412969 -22.0582851,-33.0547346 -22.0655382,-33.0678152 -22.0734105,-33.0805152 -22.081888,-33.0928115 -22.0909569,-33.1046807 -22.1006031,-33.1160995 -22.1108127,-33.1270444 -22.1215671,-33.137488 -22.1328098,-33.1473719 -22.1445098,-33.1566706 -22.1566453,-33.1653675 -22.169194,-33.1734461 -22.1821341,-33.1808898 -22.1954434,-33.1876822 -22.2090999,-33.1938067 -22.2230647,-33.1992406 -22.2372585,-33.2039522 -22.25165,-33.2079339 -22.2662121,-33.2111799 -22.2809176,-33.2136841 -22.2957393,-33.2154408 -22.3106502,-33.2164441 -22.3256231,-33.216688 -22.3256231,-33.216688 -22.4857834,-33.2152073 -22.6450512,-33.2137147 -22.803433,-33.2122101 -22.9609341,-33.2106936 -23.1175598,-33.2091652 -23.2733154,-33.2076249 -23.428206,-33.2060726 -23.5822371,-33.2045084 -23.7354139,-33.2029323 -23.8877417,-33.2013443 -24.0392257,-33.1997444 -24.1898712,-33.1981325 -24.3396835,-33.1965087 -24.4886679,-33.1948731 -24.6368297,-33.1932255 -24.7841741,-33.1915659 -24.9307064,-33.1898945 -25.0764319,-33.1882112 -25.2213559,-33.1865159 -25.3654836,-33.1848088 -25.5088203,-33.1830897 -25.6513713,-33.1813588 -25.793142,-33.1796159 -25.9341374,-33.1778611 -26.074363,-33.1760944 -26.213824,-33.1743158 -26.3525257,-33.1725253 -26.4904734,-33.1707229 -26.6276723,-33.1689086 -26.7641277,-33.1670824 -26.899845,-33.1652443 -27.0348293,-33.1633943 -27.1690859,-33.1615324 -27.3026202,-33.1596585 -27.4354374,-33.1577728 -27.5675428,-33.1558752 -27.6989417,-33.1539658 -27.8296393,-33.1520444 -27.9596409,-33.1501111 -28.0889518,-33.1481659 -28.217575,-33.1462088 -28.345514,-33.1442398 -28.4727727,-33.1422588 -28.5993554,-33.1402659 -28.725266,-33.138261 -28.8505089,-33.1362442 -28.9750879,-33.1342154 -29.0990074,-33.1321746 -29.2222714,-33.1301218 -29.344884,-33.1280571 -29.4668493,-33.1259803 -29.5881715,-33.1238915 -29.7088546,-33.1217907 -29.8289029,-33.1196779 -29.9483203,-33.1175531 -30.0671111,-33.1154162 -30.1852793,-33.1132673 -30.3028291,-33.1111063 -30.4197646,-33.1089333 -30.5360899,-33.1067481 -30.6518091,-33.104551 -30.7669263,-33.1023417 -30.9953714,-33.0978869 -30.9953714,-33.0978869 -31.0100892,-33.0972269 -31.0247272,-33.0958324 -31.0392596,-33.0937099 -31.0536609,-33.0908656 -31.0679052,-33.0873059 -31.0819671,-33.0830372 -31.0958207,-33.0780658 -31.1094323,-33.0724017 -31.122725,-33.0660788 -31.1356684,-33.0591171 -31.148242,-33.0515329 -31.1604253,-33.0433426 -31.1721977,-33.0345623 -31.1835388,-33.0252084 -31.1944281,-33.015297 -31.2048393,-33.0048506 -31.2147182,-32.9939265 -31.224045,-32.9825541 -31.2328073,-32.9707559 -31.2409924,-32.9585545 -31.2485878,-32.9459723 -31.2555809,-32.9330319 -31.261959,-32.9197558 -31.2677087,-32.906169 -31.2728034,-32.8923362 -31.2772322,-32.8782974 -31.2809911,-32.8640776 -31.2840759,-32.849702 -31.2864824,-32.8351959 -31.2882065,-32.8205843 -31.2892441,-32.8058926 -31.2895908,-32.7911459 -31.2895908,-31.8029873 A0.3,0.3 0 0,1 -31.5895908,-31.5029873 L-33.3895908,-31.5029873 A0.3,0.3 90 0,1 -33.6895908,-31.8029873 L-33.6895908,-32.7223527 -33.6895908,-32.7223527 -33.6899572,-32.7375273 -33.6910549,-32.7526571 -33.6928813,-32.7677143 -33.6954339,-32.7826711 -33.6987092,-32.7974957 -33.7026966,-32.8121349 -33.7073877,-32.8265575 -33.712775,-32.8407366 -33.718851,-32.8546453 -33.7255957,-32.8682328 -33.7329847,-32.8814513 -33.7410036,-32.8942766 -33.7496376,-32.9066849 -33.7588723,-32.9186521 -33.7686929,-32.930154 -33.7790851,-32.9411668 -33.7900331,-32.9516655 -33.8014839,-32.9615941 -33.8133974,-32.9709181 -33.8257506,-32.9796207 -33.8385205,-32.9876849 -33.8516841,-32.9950938 -33.8652185,-33.0018303 -33.8791007,-33.0078777 -33.8932956,-33.0132145 -33.9077188,-33.0178076 -33.9223343,-33.0216482 -33.9371139,-33.0247304 -33.9520293,-33.0270488 -33.9670524,-33.0285975 -33.9821549,-33.0293711 -33.9973086,-33.0293638 -33.9973086,-33.0293638 -34.1972653,-33.0240428 -34.3951946,-33.0186691 -34.59112,-33.0132425 -34.7850653,-33.0077627 -34.9770541,-33.0022295 -35.1671101,-32.9966428 -35.355257,-32.9910022 -35.5415185,-32.9853077 -35.7259182,-32.9795589 -35.9084798,-32.9737557 -36.089227,-32.9678979 -36.2681836,-32.9619852 -36.4453731,-32.9560175 -36.6208192,-32.9499945 -36.7945456,-32.943916 -36.9665755,-32.9377818 -37.1369283,-32.9315917 -37.3056228,-32.9253453 -37.4726778,-32.9190424 -37.6381119,-32.9126827 -37.8019439,-32.9062658 -37.9641924,-32.8997914 -38.1248762,-32.8932594 -38.284014,-32.8866693 -38.4416244,-32.8800209 -38.5977262,-32.8733139 -38.7523381,-32.866548 -38.9054789,-32.8597229 -39.0571671,-32.8528383 -39.2074215,-32.8458939 -39.3562609,-32.8388894 -39.5037038,-32.8318245 -39.5037038,-32.8318245 -39.5181636,-32.8307655 -39.5325256,-32.8289952 -39.5467657,-32.8265206 -39.5608597,-32.8233487 -39.5747834,-32.8194864 -39.5885126,-32.8149408 -39.602023,-32.8097187 -39.6152839,-32.8038304 -39.6282233,-32.7973095 -39.6408121,-32.7901764 -39.653031,-32.7824471 -39.6648609,-32.7741376 -39.6762828,-32.765264 -39.6872775,-32.7558423 -39.6978258,-32.7458885 -39.7078925,-32.7354365 -39.7174346,-32.7245362 -39.7264398,-32.7132098 -39.7348965,-32.7014788 -39.742793,-32.6893646 -39.7501177,-32.6768889 -39.7568589,-32.664073 -39.7630048,-32.6509386 -39.7685414,-32.6375138 -39.7734437,-32.6238629 -39.7777047,-32.610017 -39.7813207,-32.596 -39.7842878,-32.5818357 -39.7866021,-32.5675481 -39.78826,-32.5531609 -39.7892575,-32.538698 -39.7895908,-32.5241832 -39.7895908,-31.8029873 A0.3,0.3 0 0,1 -40.0895908,-31.5029873 L-41.8895908,-31.5029873 A0.3,0.3 90 0,1 -42.1895908,-31.8029873 L-42.1895908,-32.3461621 -42.1895908,-32.3461621 -42.1899755,-32.3617934 -42.1911275,-32.3773755 -42.1930442,-32.3928785 -42.1957226,-32.4082725 -42.1991599,-32.4235271 -42.2033461,-32.4385893 -42.2082697,-32.4534149 -42.213922,-32.467975 -42.2202944,-32.4822403 -42.2273774,-32.4961803 -42.2351415,-32.5097317 -42.2435634,-32.5228546 -42.2526265,-32.5355231 -42.2623143,-32.5477115 -42.2726103,-32.5593938 -42.283498,-32.5705443 -42.2949607,-32.5811372 -42.3069677,-32.5911352 -42.3194519,-32.6004793 -42.3323844,-32.6091487 -42.3457395,-32.6171259 -42.3594917,-32.624393 -42.3736152,-32.6309324 -42.3880844,-32.6367264 -42.4028698,-32.641756 -42.4178819,-32.6459875 -42.4330681,-32.6494082 -42.4483975,-32.6520135 -42.4638388,-32.6537985 -42.4793611,-32.6547587 -42.4949331,-32.6548893 -42.5105238,-32.6541856 -42.5105238,-32.6541856 -42.6414016,-32.6446743 -42.7710023,-32.6350772 -42.8993403,-32.6253934 -43.0264298,-32.6156221 -43.1522854,-32.6057626 -43.2769212,-32.5958141 -43.4003518,-32.5857758 -43.5225914,-32.5756468 -43.6436544,-32.5654265 -43.7635552,-32.555114 -43.8823081,-32.5447086 -43.9999276,-32.5342094 -44.1164279,-32.5236157 -44.2318234,-32.5129267 -44.3461285,-32.5021415 -44.4593576,-32.4912595 -44.571525,-32.4802798 -44.682645,-32.4692017 -44.7927315,-32.4580245 -44.9017957,-32.4467475 -45.0098481,-32.4353696 -45.116899,-32.4238898 -45.2229588,-32.412307 -45.328038,-32.4006201 -45.432147,-32.3888281 -45.5352963,-32.3769298 -45.6374961,-32.3649243 -45.738757,-32.3528104 -45.8390893,-32.3405871 -45.9385035,-32.3282533 -46.03701,-32.315808 -46.1346192,-32.30325 -46.2313415,-32.2905784 -46.3271874,-32.277792 -46.4221672,-32.2648898 -46.5162915,-32.2518706 -46.6095705,-32.2387336 -46.7020147,-32.2254774 -46.7936346,-32.2121012 -46.8844405,-32.1986038 -46.9744428,-32.1849842 -47.063652,-32.1712414 -47.1520769,-32.1573744 -47.2397247,-32.143382 -47.3266028,-32.1292624 -47.4127184,-32.1150142 -47.498079,-32.1006357 -47.5826918,-32.0861252 -47.6665641,-32.0714813 -47.7497033,-32.0567024 -47.8321166,-32.0417867 -47.9138113,-32.0267328 -47.9947947,-32.011539 -48.0750743,-31.9962038 -48.1546572,-31.9807255 -48.2335508,-31.9651026 -48.3117623,-31.9493335 -48.3892992,-31.9334165 -48.4661687,-31.9173501 -48.542378,-31.9011326 -48.6179346,-31.8847626 -48.6928458,-31.8682383 -48.7671187,-31.8515583 -48.8407608,-31.8347208 -48.9137794,-31.8177243 -48.9861817,-31.8005673 -49.0579751,-31.7832481 -49.1291669,-31.765765 -49.1997642,-31.748117 -49.2697727,-31.7303029 -49.3391973,-31.7123204 -49.408043,-31.6941669 -49.5440175,-31.6573363 -49.6777356,-31.6197905 -49.8092369,-31.5815086 -49.938561,-31.5424699 -50.0657473,-31.5026537 -50.1908354,-31.4620392 -50.3138649,-31.4206056 -50.4348754,-31.3783322 -50.5539063,-31.3351983 -50.6709971,-31.291183 -50.7861876,-31.2462656 -50.8995171,-31.2004254 -51.0110252,-31.1536416 -51.1207512,-31.1058956 -51.2287272,-31.0571742 -51.3349785,-31.0074423 -51.4395301,-30.9566609 -51.5424072,-30.9047914 -51.6436347,-30.8517948 -51.7432377,-30.7976324 -51.8412412,-30.7422654 -51.9376704,-30.685655 -52.0325501,-30.6277623 -52.1259056,-30.5685486 -52.2177617,-30.507975 -52.3081436,-30.4460028 -52.3970764,-30.3825931 -52.484585,-30.3177072 -52.5706945,-30.2513063 -52.6554299,-30.1833514 -52.7388163,-30.1138039 -52.8208727,-30.0426135 -52.9016087,-29.9697054 -52.9810402,-29.8950103 -53.0591832,-29.8184594 -53.1360537,-29.7399837 -53.2116676,-29.6595141 -53.2490084,-29.61851 -53.2860409,-29.5769817 -53.3227673,-29.5349204 -53.3591895,-29.4923175 -53.3953096,-29.4491645 -53.4311295,-29.4054526 -53.4666512,-29.3611733 -53.5018767,-29.316319 -53.5368077,-29.2708814 -53.5714454,-29.2248468 -53.6057911,-29.1782012 -53.6398458,-29.1309306 -53.6736109,-29.083021 -53.7070876,-29.0344583 -53.740277,-28.9852285 -53.7731803,-28.9353177 -53.8057988,-28.8847118 -53.8381336,-28.8333968 -53.8701861,-28.7813587 -53.9019572,-28.7285834 -53.9334484,-28.6750571 -53.9646608,-28.6207656 -53.9955955,-28.565695 -54.0262538,-28.5098312 -54.056637,-28.4531602 -54.0867461,-28.3956681 -54.1165824,-28.3373407 -54.1461472,-28.2781649 -54.1754419,-28.2181326 -54.2044667,-28.1572224 -54.2332219,-28.095409 -54.2617076,-28.0326668 -54.289924,-27.9689707 -54.3178712,-27.9042953 -54.3455495,-27.8386152 -54.372959,-27.7719051 -54.4000998,-27.7041396 -54.4269721,-27.6352934 -54.4535761,-27.5653411 -54.4799119,-27.4942574 -54.5059798,-27.422017 -54.5317797,-27.3485944 -54.557312,-27.2739644 -54.5825768,-27.1981017 -54.6075743,-27.1209807 -54.6323045,-27.0425763 -54.6567677,-26.962863 -54.6809641,-26.8818156 -54.7048937,-26.7994086 -54.7285566,-26.7156137 -54.7519511,-26.6303828 -54.7750759,-26.5436718 -54.79793,-26.4554379 -54.8205124,-26.3656384 -54.842822,-26.2742304 -54.8648576,-26.1811713 -54.8866182,-26.0864182 -54.9081028,-25.9899285 -54.9293102,-25.8916593 -54.9502394,-25.791568 -54.9708893,-25.6896119 -54.9912589,-25.585749 -55.0113459,-25.4799206 -55.0311481,-25.3720614 -55.0506628,-25.2621066 -55.0698875,-25.1499911 -55.0888198,-25.0356499 -55.1074573,-24.9190179 -55.1166647,-24.8598226 -55.1257974,-24.8000303 -55.1348551,-24.7396327 -55.1438376,-24.6786219 -55.1527444,-24.6169896 -55.1615754,-24.5547277 -55.1703302,-24.4918281 -55.1790085,-24.4282827 -55.1876099,-24.3640834 -55.1961343,-24.2992231 -55.2045812,-24.2336939 -55.2129502,-24.1674828 -55.2212406,-24.1005767 -55.2294517,-24.0329624 -55.2375831,-23.9646269 -55.245634,-23.8955568 -55.2536038,-23.8257392 -55.261492,-23.7551607 -55.2692979,-23.6838083 -55.277021,-23.6116689 -55.2846605,-23.5387292 -55.292216,-23.4649761 -55.2996867,-23.3903964 -55.3070721,-23.3149771 -55.3143716,-23.2387049 -55.3215845,-23.1615667 -55.3287103,-23.0835494 -55.3357482,-23.0046397 -55.3426978,-22.9248246 -55.3495584,-22.8440908 -55.3563294,-22.7624253 -55.3630102,-22.6798148 -55.3696001,-22.5962463 -55.3760988,-22.5117089 -55.3825056,-22.4261924 -55.3888196,-22.3396744 -55.3950394,-22.2521317 -55.401164,-22.1635414 -55.407192,-22.0738801 -55.4131224,-21.9831249 -55.4189539,-21.8912526 -55.4246854,-21.7982401 -55.4303156,-21.7040642 -55.4358433,-21.6087019 -55.4412675,-21.5121301 -55.4465868,-21.4143255 -55.4518001,-21.3152651 -55.4569062,-21.2149259 -55.461904,-21.1132845 -55.4667921,-21.010318 -55.4715695,-20.9060032 -55.4762349,-20.8003171 -55.4807872,-20.6932363 -55.4852251,-20.584738 -55.4895475,-20.4747989 -55.4937532,-20.3633959 -55.4978409,-20.250506 -55.5018096,-20.1361059 -55.5056576,-20.0201654 -55.5093823,-19.9026393 -55.5129819,-19.7834896 -55.5164543,-19.6626788 -55.5197974,-19.5401695 -55.5230093,-19.415924 -55.5260879,-19.2899049 -55.5290312,-19.1620746 -55.5318372,-19.0323956 -55.5345039,-18.9008304 -55.5370293,-18.7673415 -55.5394113,-18.6318914 -55.541648,-18.4944425 -55.5437373,-18.3549582 -55.5456767,-18.2133904 -55.5474632,-18.0696842 -55.5490937,-17.9237851 -55.5505653,-17.7756384 -55.551875,-17.6251893 -55.5530197,-17.4723832 -55.5535293,-17.3950792 -55.5539966,-17.3171655 -55.5544211,-17.2386351 -55.5548025,-17.1594813 -55.5551405,-17.0796973 -55.5554346,-16.9992761 -55.5556845,-16.918211 -55.5558897,-16.8364952 -55.5560501,-16.7541217 -55.556165,-16.6710838 -55.5562343,-16.5873746 -55.5562575,-16.5029873 -55.5562575,-16.5029873 -55.5562343,-16.4186004 -55.556165,-16.3348924 -55.5560499,-16.2518563 -55.5558894,-16.1694853 -55.555684,-16.0877723 -55.5554339,-16.0067104 -55.5551396,-15.9262927 -55.5548014,-15.8465123 -55.5544198,-15.7673621 -55.5539951,-15.6888354 -55.5535276,-15.610925 -55.5530178,-15.5336241 -55.5518728,-15.380823 -55.550563,-15.2303765 -55.5490914,-15.0822291 -55.5474612,-14.9363252 -55.5456753,-14.7926094 -55.5437368,-14.6510261 -55.5416483,-14.5115256 -55.5394121,-14.374069 -55.5370302,-14.2386173 -55.5345046,-14.1051315 -55.5318375,-13.9735729 -55.529031,-13.8439024 -55.5260872,-13.7160811 -55.5230081,-13.5900702 -55.5197959,-13.4658307 -55.5164527,-13.3433237 -55.5129805,-13.2225103 -55.5093814,-13.1033515 -55.5056579,-12.9858035 -55.5018121,-12.8698244 -55.4978455,-12.7553895 -55.4937591,-12.6424747 -55.4895544,-12.5310562 -55.4852324,-12.4211097 -55.4807945,-12.3126112 -55.4762418,-12.2055366 -55.4715758,-12.0998619 -55.4667975,-11.9955631 -55.4619082,-11.892616 -55.4569092,-11.7909966 -55.4518017,-11.6906808 -55.446587,-11.5916446 -55.4412663,-11.4938638 -55.4358409,-11.3973146 -55.430312,-11.3019727 -55.4246808,-11.2078141 -55.4189485,-11.1148148 -55.4131166,-11.0229506 -55.4071861,-10.9321976 -55.4011583,-10.8425317 -55.3950345,-10.7539287 -55.3888158,-10.6663647 -55.3825037,-10.5798156 -55.3760986,-10.4942682 -55.3696008,-10.409717 -55.3630109,-10.3261474 -55.3563297,-10.2435447 -55.3495578,-10.1618942 -55.342696,-10.0811813 -55.3357449,-10.0013912 -55.3287053,-9.9225093 -55.3215778,-9.844521 -55.3143632,-9.7674115 -55.3070622,-9.6911662 -55.2996754,-9.6157704 -55.2922036,-9.5412094 -55.2846474,-9.4674685 -55.2770076,-9.3945332 -55.2692848,-9.3223887 -55.2614799,-9.2510203 -55.2535933,-9.1804135 -55.2456257,-9.1105574 -55.2375775,-9.0414423 -55.229449,-8.9730584 -55.2212407,-8.9053961 -55.212953,-8.8384454 -55.2045863,-8.7721969 -55.1961409,-8.7066406 -55.1876174,-8.641767 -55.179016,-8.5775662 -55.1703373,-8.5140286 -55.1615816,-8.4511444 -55.1527493,-8.3889039 -55.1438408,-8.3272974 -55.1348566,-8.2663151 -55.1257971,-8.2059474 -55.1074536,-8.0870165 -55.0888135,-7.9704271 -55.0698803,-7.8561012 -55.050657,-7.743962 -55.031146,-7.6339488 -55.0113486,-7.5260136 -54.9912664,-7.4201092 -54.9709005,-7.3161879 -54.9502525,-7.2142022 -54.9293237,-7.1141048 -54.9081155,-7.015848 -54.8866292,-6.9193845 -54.8648663,-6.8246666 -54.8428282,-6.731647 -54.8205161,-6.6402781 -54.7979316,-6.5505124 -54.7750759,-6.4623025 -54.7519504,-6.3756009 -54.7285567,-6.2903602 -54.7048955,-6.2065422 -54.680967,-6.1241195 -54.6567711,-6.0430656 -54.6323077,-5.9633539 -54.6075767,-5.8849577 -54.5825782,-5.8078506 -54.5573119,-5.7320059 -54.531778,-5.6573971 -54.5059762,-5.5839976 -54.4799065,-5.5117807 -54.4535688,-5.44072 -54.4269632,-5.3707888 -54.4000895,-5.3019606 -54.3729476,-5.2342087 -54.3455376,-5.1675067 -54.3178592,-5.1018279 -54.2899125,-5.0371457 -54.2616974,-4.9734335 -54.2332139,-4.9106649 -54.2044618,-4.8488131 -54.1754411,-4.7878544 -54.1461513,-4.7277738 -54.116591,-4.6685576 -54.0867591,-4.6101922 -54.0566542,-4.5526638 -54.0262751,-4.4959587 -53.9956206,-4.4400633 -53.9646893,-4.3849639 -53.9334801,-4.3306466 -53.9019918,-4.277098 -53.8702229,-4.2243042 -53.8381724,-4.1722515 -53.805839,-4.1209263 -53.7732213,-4.0703149 -53.7403182,-4.0204036 -53.7071284,-3.9711786 -53.6736506,-3.9226264 -53.6398837,-3.8747331 -53.6058263,-3.8274851 -53.5714772,-3.7808687 -53.5368351,-3.7348702 -53.5018989,-3.6894759 -53.4666671,-3.6446722 -53.4311387,-3.6004452 -53.3953124,-3.5567813 -53.3591868,-3.5136669 -53.3227608,-3.4710882 -53.2860336,-3.429033 -53.2116704,-3.3464666 -53.136079,-3.2659156 -53.059239,-3.1873277 -52.9811302,-3.110651 -52.9017325,-3.0358334 -52.8210257,-2.9628227 -52.7389896,-2.8915668 -52.6556039,-2.8220137 -52.5708485,-2.7541112 -52.4847032,-2.6878072 -52.3971477,-2.6230497 -52.3081619,-2.5597865 -52.2177256,-2.4979655 -52.1258185,-2.4375347 -52.0324205,-2.3784419 -51.9375113,-2.320635 -51.8410708,-2.2640619 -51.7430784,-2.2086719 -51.6435034,-2.1544511 -51.5423125,-2.1013822 -51.4394749,-2.0494365 -51.33496,-1.9985852 -51.2287369,-1.9487994 -51.1207748,-1.9000505 -51.011043,-1.8523094 -50.8995107,-1.8055476 -50.7861472,-1.759736 -50.6709216,-1.714846 -50.5538038,-1.6708495 -50.4347598,-1.6277248 -50.3137478,-1.5854525 -50.190726,-1.5440137 -50.0656524,-1.5033892 -49.9384852,-1.4635598 -49.8091824,-1.4245064 -49.6777021,-1.3862099 -49.5440024,-1.348651 -49.4080413,-1.3118107 -49.3391997,-1.293654 -49.269777,-1.2756697 -49.199768,-1.2578556 -49.1291675,-1.240209 -49.0579703,-1.2227278 -48.9861724,-1.2054099 -48.9137672,-1.1882537 -48.8407475,-1.1712577 -48.7671056,-1.1544203 -48.6928341,-1.13774 -48.6179255,-1.1212153 -48.5423724,-1.1048445 -48.4661672,-1.0886261 -48.3893025,-1.0725586 -48.3117708,-1.0566404 -48.2335647,-1.04087 -48.1546766,-1.0252458 -48.075099,-1.0097662 -47.9948245,-0.9944298 -47.9138457,-0.9792348 -47.8321549,-0.9641799 -47.7497448,-0.9492635 -47.6666079,-0.9344839 -47.5827366,-0.9198396 -47.4981236,-0.9053292 -47.4127612,-0.8909509 -47.3266422,-0.8767034 -47.2397589,-0.862585 -47.1521039,-0.8485941 -47.0636697,-0.8347293 -46.9744488,-0.8209889 -46.8844338,-0.8073714 -46.7936178,-0.7938753 -46.7019962,-0.7804995 -46.6095586,-0.767243 -46.5162935,-0.7541048 -46.4221896,-0.7410839 -46.3272353,-0.7281794 -46.2314192,-0.7153904 -46.1347299,-0.7027157 -46.037156,-0.6901545 -45.9386861,-0.6777059 -45.8393086,-0.6653687 -45.7390122,-0.6531421 -45.6377855,-0.641025 -45.5356169,-0.6290166 -45.4324952,-0.6171158 -45.3284088,-0.6053216 -45.2233462,-0.5936332 -45.1172962,-0.5820495 -45.0102472,-0.5705695 -44.9021878,-0.5591923 -44.7931066,-0.5479169 -44.6829922,-0.5367423 -44.5718331,-0.5256676 -44.4596178,-0.5146918 -44.346335,-0.5038138 -44.2319732,-0.4930329 -44.116521,-0.4823479 -43.999967,-0.4717579 -43.8822996,-0.461262 -43.7635076,-0.4508591 -43.6435794,-0.4405483 -43.5225037,-0.4303286 -43.4002657,-0.4201994 -43.2768423,-0.4101606 -43.1522173,-0.4002117 -43.0263751,-0.3903518 -42.8993001,-0.3805804 -42.770977,-0.3708966 -42.64139,-0.3612997 -42.5105238,-0.3517889 -42.5105238,-0.3517889 -42.494924,-0.3510851 -42.4793241,-0.3512172 -42.4637559,-0.3521834 -42.4482509,-0.353982 -42.4328524,-0.356609 -42.4176315,-0.3600506 -42.4026215,-0.3642958 -42.3878524,-0.3693342 -42.3733564,-0.3751542 -42.3592082,-0.3817223 -42.3454494,-0.389012 -42.3321038,-0.3970035 -42.3191954,-0.405677 -42.3067481,-0.4150127 -42.2947859,-0.4249908 -42.2833327,-0.4355915 -42.2724262,-0.4467798 -42.2621239,-0.4584909 -42.2524424,-0.4706955 -42.2433959,-0.4833669 -42.2349988,-0.496478 -42.2272653,-0.510002 -42.2202098,-0.5239119 -42.2138465,-0.5381809 -42.2081995,-0.5527548 -42.2032903,-0.5675682 -42.1991237,-0.5825912 -42.1957042,-0.5977941 -42.1930366,-0.6131474 -42.1911253,-0.6286212 -42.1899752,-0.6441861 -42.1895908,-0.6598124 -42.1895908,-1.2029873 A0.3,0.3 180 0,1 -41.8895908,-1.5029873 L-40.0895908,-1.5029873 A0.3,0.3 270 0,1 -39.7895908,-1.2029873 L-39.7895908,-0.4817913 -39.7895908,-0.4817913 -39.7892574,-0.4672755 -39.7882596,-0.4528094 -39.7866008,-0.4384171 -39.7842847,-0.4241225 -39.7813148,-0.4099494 -39.7776946,-0.3959218 -39.7734276,-0.3820636 -39.7685176,-0.3683991 -39.7629819,-0.3549838 -39.7568385,-0.3418604 -39.7500985,-0.329051 -39.7427728,-0.3165772 -39.7348726,-0.304461 -39.7264089,-0.2927241 -39.7173927,-0.2813883 -39.707835,-0.2704756 -39.6977657,-0.2600266 -39.687229,-0.2500886 -39.6762439,-0.2406787 -39.6648289,-0.2318131 -39.6530027,-0.2235085 -39.640784,-0.2157813 -39.6281915,-0.2086481 -39.6152437,-0.2021252 -39.6019867,-0.1962408 -39.5884853,-0.191024 -39.5747641,-0.1864822 -39.5608471,-0.1826227 -39.5467584,-0.1794525 -39.5325223,-0.1769788 -39.5181627,-0.175209 -39.5037038,-0.17415 -39.5037038,-0.17415 -39.3562593,-0.1670852 -39.2074139,-0.1600809 -39.0571503,-0.1531366 -38.9054512,-0.1462522 -38.7522993,-0.1394273 -38.5976771,-0.1326615 -38.4415674,-0.1259547 -38.2839527,-0.1193063 -38.1248193,-0.1127162 -37.9641526,-0.1061839 -37.8019307,-0.0997091 -37.6381319,-0.0932916 -37.4727344,-0.0869313 -37.3057161,-0.0806277 -37.1370554,-0.0743808 -36.9667302,-0.0681902 -36.7947189,-0.0620557 -36.6209996,-0.0559771 -36.4455503,-0.0499542 -36.2683492,-0.0439866 -36.0893746,-0.0380743 -35.9086045,-0.0322168 -35.726017,-0.026414 -35.5415905,-0.0206657 -35.3553029,-0.0149716 -35.1671324,-0.0093314 -34.9770572,-0.0037449 -34.7850555,0.001788 -34.5911053,0.0072677 -34.3951847,0.0126944 -34.1972643,0.0180682 -33.9973086,0.0233892 -33.9973086,0.0233892 -33.982145,0.0233963 -33.9670132,0.0226199 -33.9519421,0.0210629 -33.9369607,0.018728 -33.9221168,0.0156223 -33.9074646,0.0117592 -33.8930315,0.0071482 -33.8788447,0.0017991 -33.8649514,-0.0042691 -33.8514131,-0.0110246 -33.838253,-0.0184494 -33.8254934,-0.0265256 -33.8131566,-0.0352355 -33.8012647,-0.0445613 -33.7898401,-0.0544852 -33.7789051,-0.0649894 -33.7685092,-0.0760255 -33.7586916,-0.0875453 -33.7494657,-0.0995243 -33.7408452,-0.111938 -33.7328437,-0.1247619 -33.7254747,-0.1379713 -33.7187519,-0.1515419 -33.712689,-0.1654489 -33.707312,-0.1796322 -33.7026373,-0.1940382 -33.6986696,-0.2086398 -33.6954132,-0.2234094 -33.6928726,-0.2383198 -33.6910524,-0.2533436 -33.689957,-0.2684534 -33.6895908,-0.2836219 -33.6895908,-1.2029873 A0.3,0.3 180 0,1 -33.3895908,-1.5029873 L-31.5895908,-1.5029873 A0.3,0.3 270 0,1 -31.2895908,-1.2029873 L-31.2895908,-0.2148287 -31.2895908,-0.2148287 -31.2892441,-0.200082 -31.2882066,-0.1853904 -31.2864825,-0.1707789 -31.2840759,-0.1562728 -31.2809912,-0.1418972 -31.2772322,-0.1276773 -31.2728034,-0.1136384 -31.2677087,-0.0998055 -31.2619591,-0.0862188 -31.2555808,-0.0729423 -31.2485872,-0.0600011 -31.2409909,-0.0474177 -31.2328044,-0.0352146 -31.2240402,-0.0234143 -31.2147108,-0.0120396 -31.2048287,-0.0011128 -31.1944174,0.0093327 -31.1835299,0.0192416 -31.1721892,0.0285944 -31.1604158,0.0373748 -31.1482299,0.045566 -31.135652,0.0531518 -31.1227024,0.0601156 -31.1094014,0.0664409 -31.0957917,0.0721025 -31.0819454,0.0770698 -31.06789,0.0813356 -31.053651,0.0848932 -31.039254,0.0877363 -31.0247247,0.0898582 -31.0100886,0.0912524 -30.9953714,0.0919123 -30.9953714,0.0919123 -30.7669095,0.0963674 -30.6517854,0.0985768 -30.5360603,0.100774 -30.41973,0.1029591 -30.3027905,0.1051322 -30.1852376,0.1072931 -30.0670671,0.109442 -29.948275,0.1115788 -29.828857,0.1137036 -29.7088091,0.1158164 -29.5881271,0.1179171 -29.4668068,0.1200058 -29.3448442,0.1220825 -29.2222355,0.1241473 -29.0989817,0.1262001 -28.9750797,0.128241 -28.8505242,0.1302699 -28.7253101,0.1322869 -28.5994322,0.134292 -28.4728854,0.1362851 -28.3456647,0.1382663 -28.2177647,0.1402356 -28.0891804,0.1421929 -27.9599067,0.1441384 -27.8299384,0.1460719 -27.6992703,0.1479934 -27.5678973,0.1499031 -27.4358143,0.1518008 -27.3030161,0.1536866 -27.1694976,0.1555605 -27.0352536,0.1574224 -26.900279,0.1592724 -26.7645687,0.1611105 -26.6281175,0.1629367 -26.4909202,0.164751 -26.3529718,0.1665533 -26.214267,0.1683437 -26.0748007,0.1701222 -25.9345679,0.1718888 -25.7935633,0.1736435 -25.6517818,0.1753862 -25.5092182,0.1771171 -25.3658675,0.178836 -25.2217244,0.180543 -25.0767839,0.1822381 -24.9310407,0.1839213 -24.7844898,0.1855926 -24.637126,0.1872519 -24.4889442,0.1888994 -24.3399391,0.1905349 -24.1901057,0.1921585 -24.0394389,0.1937703 -23.8879334,0.1953701 -23.7355842,0.196958 -23.582386,0.198534 -23.4283338,0.2000981 -23.2734225,0.2016503 -23.1176467,0.2031906 -22.9610015,0.204719 -22.8034817,0.2062354 -22.6450821,0.20774 -22.4857976,0.2092327 -22.3256231,0.2107135 -22.3256231,0.2107135 -22.3106402,0.2104691 -22.2956998,0.2094626 -22.28083,0.2076969 -22.2660584,0.2051751 -22.2514344,0.2019055 -22.2370052,0.1979005 -22.2227971,0.1931695 -22.2088363,0.1877217 -22.195178,0.1815803 -22.1818712,0.1747725 -22.1689376,0.1673152 -22.1563989,0.1592254 -22.1442768,0.15052 -22.132593,0.141216 -22.121369,0.1313303 -22.1106274,0.1208805 -22.1004204,0.1099188 -22.0907807,0.0984867 -22.0817217,0.0866078 -22.0732569,0.0743057 -22.0653995,0.0616041 -22.0581631,0.0485265 -22.0515609,0.0350965 -22.0456067,0.0213384 -22.0403269,0.0073135 -22.0357366,-0.0069284 -22.0318402,-0.0213608 -22.0286423,-0.0359572 -22.0261473,-0.050691 -22.0243596,-0.0655358 -22.0232838,-0.080465 -22.0229241,-0.095452 -22.0229241,-1.2029873 A0.3,0.3 180 0,1 -21.7229241,-1.5029873 L-19.9229241,-1.5029873 A0.3,0.3 270 0,1 -19.6229241,-1.2029873 L-19.6229241,-0.0710045 -19.6229241,-0.0710045 -19.6225712,-0.0561643 -19.6215138,-0.0413658 -19.6197542,-0.0266352 -19.6172946,-0.0119986 -19.6141396,0.0025085 -19.6102988,0.0168394 -19.6057789,0.0309682 -19.6005867,0.0448693 -19.5947324,0.0585099 -19.5882405,0.0718321 -19.581126,0.0848092 -19.5734021,0.0974183 -19.565082,0.1096367 -19.556179,0.1214415 -19.5467063,0.1328099 -19.5366771,0.1437192 -19.5261136,0.1541382 -19.515071,0.1640099 -19.5035746,0.1733136 -19.4916456,0.1820331 -19.4793052,0.1901518 -19.4665743,0.1976535 -19.4534741,0.2045218 -19.4400258,0.2107405 -19.4262712,0.2162851 -19.4122847,0.2211254 -19.3980948,0.2252542 -19.3837277,0.2286652 -19.3692096,0.2313525 -19.3545667,0.2333096 -19.3398252,0.2345306 -19.3250114,0.2350092 -19.3250114,0.2350092 -19.1839634,0.2360041 -19.0422727,0.2369915 -18.8999345,0.2379712 -18.756944,0.2389433 -18.756944,0.2389433 -18.7376554,0.2032314 -18.7188317,0.1669021 -18.7004481,0.1299855 -18.6824795,0.0925119 -18.6649007,0.0545115 -18.6476866,0.0160147 -18.6142508,-0.0623459 -18.5819689,-0.1423256 -18.550637,-0.22368 -18.520051,-0.3061646 -18.4900069,-0.3895358 -18.4307321,-0.5579694 -18.3711998,-0.7270627 -18.3408403,-0.8112681 -18.3098249,-0.8949385 -18.277962,-0.9778482 -18.2450636,-1.059776 -18.210946,-1.1405064 -18.17543,-1.2198296 -18.138342,-1.2975426 -18.1191558,-1.3357337 -18.0995142,-1.3734496 -18.0793973,-1.4106668 -18.0587855,-1.4473628 -18.0376598,-1.4835154 -18.0160016,-1.519103 -17.9937929,-1.5541048 -17.9710162,-1.5885003 -17.9476543,-1.6222699 -17.923691,-1.6553947 -17.8991104,-1.6878563 -17.8738974,-1.7196373 -17.8480376,-1.7507209 -17.8215172,-1.7810916 -17.7943232,-1.8107342 -17.7664437,-1.8396348 -17.7378672,-1.8677805 -17.7085835,-1.8951594 -17.6785829,-1.9217604 -17.6478571,-1.9475739 -17.6163984,-1.9725913 -17.5842005,-1.996805 -17.5512578,-2.0202089 -17.5175661,-2.042798 -17.4831222,-2.0645688 -17.4479241,-2.085519 A1.25,1.25 240 0,1 -16.1979241,-2.085519 L-16.1979241,-2.085519 -16.1596516,-2.0627712 -16.1223118,-2.039261 -16.0859025,-2.0149906 -16.0504196,-1.9899633 -16.0158579,-1.964184 -15.9822107,-1.9376586 -15.9494699,-1.9103942 -15.9176263,-1.882399 -15.8866694,-1.8536826 -15.8565875,-1.8242552 -15.8273676,-1.7941285 -15.798996,-1.7633149 -15.7714575,-1.7318277 -15.7447364,-1.6996813 -15.7188156,-1.666891 -15.6936774,-1.6334726 -15.6693031,-1.599443 -15.6456732,-1.5648198 -15.6227676,-1.5296212 -15.6005652,-1.4938662 -15.5790445,-1.4575744 -15.5581833,-1.4207658 -15.5379587,-1.3834613 -15.5183473,-1.3456822 -15.4993251,-1.3074503 -15.4808675,-1.2687881 -15.4629496,-1.2297183 -15.4455458,-1.1902645 -15.412176,-1.1103005 -15.3805447,-1.0290919 -15.3504321,-0.9468415 -15.3216128,-0.8637577 -15.2938561,-0.7800544 -15.2669273,-0.69595 -15.2145971,-0.5274321 -15.1626827,-0.3600243 -15.1362661,-0.2773175 -15.1092126,-0.1955891 -15.0812732,-0.115076 -15.0521991,-0.0360161 -15.0217417,0.0413527 -15.0059169,0.0793285 -14.9896535,0.1167923 -14.9729209,0.1537145 -14.9556883,0.1900656 -14.9379256,0.225816 -14.9196023,0.2609366 -14.9196023,0.2609366 -14.6489476,0.2622194 -14.3761748,0.26348 -14.101265,0.2647186 -13.8241995,0.2659349 -13.8241995,0.2659349 -13.8092717,0.2656209 -13.7943894,0.2645513 -13.7795801,0.2627294 -13.7648714,0.260158 -13.7503126,0.2568459 -13.7359492,0.2528052 -13.721807,0.2480449 -13.7079124,0.2425744 -13.6943219,0.2364178 -13.6810813,0.2296008 -13.6682123,0.2221401 -13.6557363,0.2140524 -13.6436749,0.2053544 -13.6320495,0.1960628 -13.6208817,0.1861942 -13.6101939,0.1757662 -13.6000389,0.1648314 -13.5904479,0.1534298 -13.5814344,0.1415849 -13.5730118,0.1293199 -13.5651933,0.1166582 -13.5579925,0.1036232 -13.5514226,0.0902381 -13.5454973,0.0765268 -13.5402432,0.0625511 -13.5356751,0.0483599 -13.5317976,0.0339794 -13.5286151,0.0194361 -13.526132,0.0047561 -13.5243528,-0.0100342 -13.5232821,-0.0249085 -13.5229241,-0.0398406 -13.5229241,-1.2029873 A0.3,0.3 180 0,1 -13.2229241,-1.5029873 L-11.4229241,-1.5029873 A0.3,0.3 270 0,1 -11.1229241,-1.2029873 L-11.1229241,-0.028452 -11.1229241,-0.028452 -11.1225691,-0.0135854 -11.1215055,0.0012389 -11.1197356,0.0159945 -11.1172618,0.0306553 -11.1140884,0.0451856 -11.1102256,0.0595379 -11.1056801,0.0736859 -11.1004591,0.087604 -11.0945722,0.1012599 -11.0880448,0.1145951 -11.0808921,0.1275819 -11.0731278,0.1401974 -11.0647653,0.1524187 -11.0558182,0.164223 -11.0462998,0.1755874 -11.0362238,0.1864891 -11.025612,0.1968973 -11.0145203,0.2067549 -11.0029747,0.2160407 -10.9909967,0.2247386 -10.9786075,0.2328322 -10.9658287,0.2403053 -10.9526814,0.2471416 -10.9391872,0.2533248 -10.9253879,0.2588309 -10.9113582,0.2636297 -10.8971271,0.2677142 -10.8827208,0.2710784 -10.8681657,0.2737161 -10.8534884,0.2756214 -10.8387151,0.2767881 -10.8238723,0.2772103 -10.8238723,0.2772103 -10.5792113,0.2779882 -10.3329803,0.2787511 -10.0851672,0.279499 -9.8357604,0.280232 -9.5847477,0.2809498 -9.3321173,0.2816526 -9.0778572,0.2823402 -8.8219557,0.2830126 -8.5644006,0.2836698 -8.3051802,0.2843118 -8.0442825,0.2849385 -7.7816956,0.2855498 -7.5174076,0.2861458 -7.2514065,0.2867263 -6.9836804,0.2872914 -6.7142175,0.2878411 -6.4430058,0.2883752 -6.1700334,0.2888937 -5.8952884,0.2893966 -5.6187589,0.2898839 -5.3404328,0.2903555 -5.0602985,0.2908114 -4.7783429,0.2912515 -4.4945513,0.2916759 -4.2089104,0.2920843 -3.921407,0.2924769 -3.6320281,0.2928535 -3.3407604,0.2932142 -3.047591,0.2935588 -2.7525066,0.2938873 -2.4554942,0.2941997 -2.1565406,0.2944959 -2.1565406,0.2944959 -2.1416557,0.2941341 -2.1268384,0.2930242 -2.1121153,0.2911722 -2.0975129,0.2885841 -2.083058,0.2852661 -2.0687772,0.2812242 -2.054697,0.2764645 -2.0408443,0.2709932 -2.0272875,0.2648366 -2.0140794,0.2580229 -2.0012415,0.2505687 -1.9887952,0.2424904 -1.9767622,0.2338045 -1.9651637,0.2245276 -1.9540214,0.2146762 -1.9433575,0.2042677 -1.9332247,0.1933541 -1.9236542,0.1819754 -1.9146594,0.1701548 -1.9062539,0.1579155 -1.8984509,0.1452806 -1.8912639,0.1322733 -1.8847063,0.1189168 -1.8787918,0.1052348 -1.8735471,0.0912887 -1.868987,0.0771277 -1.8651162,0.062778 -1.861939,0.0482656 -1.8594601,0.0336169 -1.8576839,0.0188579 -1.8566148,0.0040149 -1.8562575,-0.0108859 -1.8562575,-1.2029873 A0.3,0.3 180 0,1 -1.5562575,-1.5029873 L0.2437425,-1.5029873 A0.3,0.3 270 0,1 0.5437425,-1.2029873 L0.5437425,-0.0087775 0.5437425,-0.0087775 0.5440992,0.0061055 0.5451677,0.0209457 0.5469457,0.0357168 0.5494308,0.0503922 0.5526184,0.0649363 0.5564985,0.079301 0.5610639,0.0934597 0.5663075,0.1073866 0.5722194,0.1210499 0.5787744,0.1343907 0.5859563,0.1473805 0.5937516,0.1599963 0.6021464,0.1722155 0.6111271,0.1840149 0.6206799,0.1953719 0.6307911,0.2062635 0.6414389,0.2166591 0.6525668,0.2265016 0.6641484,0.2357698 0.6761622,0.2444474 0.6885865,0.2525183 0.7013999,0.2599663 0.7145806,0.2667752 0.7281071,0.2729288 0.7419375,0.2784034 0.7559968,0.2831689 0.7702561,0.2872185 0.7846888,0.2905462 0.7992685,0.2931461 0.8139685,0.2950123 0.8287624,0.2961387 0.8436237,0.2965195 0.8436237,0.2965195 1.1493687,0.2966347 1.457023,0.2967348 1.766599,0.2968195 2.0781093,0.2968889 2.3915663,0.296943 2.7069825,0.2969817 3.0243704,0.297005 3.3437425,0.2970127 3.3437425,0.2970127 3.5381925,0.2970046 3.731687,0.2969804 3.9242331,0.29694 4.1158375,0.2968837 4.3065071,0.2968115 4.4962489,0.2967234 4.6850697,0.2966197 4.8729765,0.2965003 5.059976,0.2963653 5.2460752,0.2962149 5.431281,0.296049 5.6156003,0.2958679 5.7990399,0.2956716 5.9816067,0.2954601 6.1633077,0.2952336 6.3441497,0.2949922 6.3441497,0.2949922 6.3590029,0.2945976 6.3737876,0.2934592 6.3884775,0.2915827 6.4030459,0.2889743 6.4174665,0.28564 6.4317128,0.2815858 6.4457584,0.2768178 6.4595763,0.271342 6.4730983,0.2651851 6.4862729,0.2583744 6.4990785,0.2509264 6.5114938,0.2428574 6.5234974,0.2341837 6.5350678,0.2249216 6.5461836,0.2150874 6.5568225,0.2046984 6.5669321,0.1938062 6.5764811,0.1824507 6.5854561,0.1706548 6.5938437,0.1584416 6.6016303,0.145834 6.6088026,0.132855 6.615347,0.1195277 6.62125,0.1058755 6.6264848,0.0919598 6.6310362,0.0778297 6.6348999,0.0635114 6.6380712,0.0490308 6.6405456,0.0344141 6.6423187,0.0196873 6.6433858,0.0048765 6.6437425,-0.0099922 6.6437425,-1.2029873 A0.3,0.3 180 0,1 6.9437425,-1.5029873 L8.7437425,-1.5029873 A0.3,0.3 270 0,1 9.0437425,-1.2029873 L9.0437425,-0.0161515 9.0437425,-0.0161515 9.0441014,-0.0012535 9.0451763,0.0136012 9.046965,0.0283859 9.049465,0.043074 9.0526717,0.0576295 9.0565745,0.0720036 9.0611662,0.0861694 9.0664394,0.100101 9.0723842,0.1137669 9.0789747,0.1271072 9.0861945,0.1400933 9.0940294,0.1527022 9.1024656,0.1649111 9.111489,0.1766971 9.1210855,0.1880374 9.1312412,0.198909 9.1419336,0.2092812 9.1531059,0.2190971 9.1647313,0.2283357 9.1767881,0.2369809 9.1892543,0.2450167 9.2021082,0.2524272 9.215328,0.2591962 9.2288917,0.2653077 9.2427568,0.2707381 9.2568487,0.2754582 9.2711385,0.2794611 9.2855995,0.2827411 9.300205,0.2852924 9.3149283,0.2871092 9.3297428,0.2881858 9.3446219,0.2885164 9.3446219,0.2885164 9.4980281,0.288053 9.6507909,0.287578 9.8029143,0.2870915 9.9544018,0.2865935 10.1052575,0.2860841 10.255485,0.2855634 10.4050882,0.2850313 10.5540708,0.2844879 10.7024367,0.2839334 10.8501897,0.2833676 10.9973335,0.2827907 11.143872,0.2822028 11.4351482,0.2809938 11.7240561,0.2797412 12.0106327,0.2784455 12.294902,0.2771069 12.5768877,0.2757258 12.8566135,0.2743024 13.1341033,0.272837 13.4093808,0.2713299 13.6824697,0.2697815 13.953394,0.268192 14.2221773,0.2665617 14.4888433,0.264891 14.753416,0.26318 15.015919,0.2614292 15.2763761,0.2596388 15.5348111,0.2578091 15.7912478,0.2559404 16.0457099,0.2540331 16.2982212,0.2520873 16.5488055,0.2501034 16.7974865,0.2480818 17.044288,0.2460226 17.2892339,0.2439262 17.5323478,0.241793 17.7736536,0.2396231 18.0131749,0.2374169 18.0131749,0.2374169 18.027912,0.2369132 18.042578,0.2356811 18.057147,0.2337265 18.0715931,0.2310552 18.0858904,0.227673 18.1000129,0.2235856 18.1139348,0.218799 18.1276296,0.2133191 18.1410301,0.2071721 18.1540882,0.2003836 18.1667826,0.1929693 18.1790919,0.1849448 18.1909949,0.1763257 18.2024702,0.1671276 18.2134967,0.1573662 18.2240523,0.1470577 18.2340858,0.1362519 18.2435652,0.1249884 18.2524767,0.1132895 18.2608068,0.1011778 18.2685419,0.0886755 18.2756682,0.075805 18.2821721,0.0625888 18.2880399,0.0490495 18.2932448,0.0352474 18.2977707,0.0212327 18.3016131,0.0070311 18.3047673,-0.0073317 18.3072287,-0.0218301 18.3089925,-0.0364382 18.3100542,-0.0511305 18.3104092,-0.0658813 18.3104092,-1.2029873 A0.3,0.3 180 0,1 18.6104092,-1.5029873 L20.4104092,-1.5029873 A0.3,0.3 270 0,1 20.7104092,-1.2029873 L20.7104092,-0.0976471 20.7104092,-0.0976471 20.7107745,-0.082713 20.7118688,-0.0678243 20.7136895,-0.0530079 20.7162338,-0.0382912 20.7194968,-0.0237108 20.723467,-0.009318 20.7281364,0.0048597 20.733497,0.0187961 20.7395385,0.0324598 20.7462332,0.0457893 20.7535634,0.0587549 20.761514,0.0713338 20.7700702,0.0835033 20.779217,0.0952405 20.7889395,0.1065227 20.7992226,0.117327 20.8100421,0.127622 20.8213395,0.1373516 20.8330881,0.1464958 20.8452651,0.1550392 20.8578479,0.1629662 20.870814,0.1702615 20.8841406,0.1769093 20.8978053,0.1828943 20.9117635,0.1881932 20.9259421,0.1927788 20.9403123,0.196645 20.954847,0.1997865 20.9695191,0.2021981 20.9843018,0.2038743 20.9991678,0.20481 21.0140902,0.2049998 21.0140902,0.2049998 21.1612929,0.2031653 21.3077868,0.2013154 21.4535755,0.1994502 21.5986624,0.1975696 21.5986624,0.1975696 21.6170803,0.1618099 21.6350773,0.1254879 21.652677,0.0886324 21.6699034,0.051272 21.7033316,-0.0248483 21.7355539,-0.1026418 21.7667632,-0.1818771 21.7971525,-0.2623227 21.8269152,-0.3437476 21.856244,-0.4259214 21.9143678,-0.5916015 21.9730464,-0.7575542 22.0030622,-0.8400781 22.0337742,-0.922011 22.0653627,-1.0031404 22.0980045,-1.0832587 22.1318723,-1.1621633 22.1671344,-1.2396574 22.2039536,-1.3155505 22.2229966,-1.352839 22.2424874,-1.389659 22.2624448,-1.4259888 22.282887,-1.461807 22.3038318,-1.497093 22.3252967,-1.5318265 22.3472986,-1.5659879 22.3698539,-1.5995583 22.3929785,-1.6325191 22.4166878,-1.6648527 22.4409966,-1.696542 22.4659189,-1.7275705 22.4914683,-1.7579229 22.5176577,-1.7875842 22.544499,-1.8165406 22.5720036,-1.8447791 22.600182,-1.8722875 22.6290439,-1.8990547 22.6585982,-1.9250706 22.6888528,-1.9503261 22.7198147,-1.974813 22.7514899,-1.9985245 22.7838835,-2.0214549 22.8169995,-2.0435994 22.8508407,-2.0649548 22.8854092,-2.085519 A1.25,1.25 240 0,1 24.1354092,-2.085519 L24.1354092,-2.085519 24.1716824,-2.0639925 24.2071187,-2.041782 24.2417201,-2.0188892 24.2754897,-1.9953169 24.3084318,-1.9710689 24.3405518,-1.9461501 24.3718562,-1.9205661 24.4023525,-1.8943238 24.4320493,-1.8674307 24.460956,-1.8398953 24.4890831,-1.8117269 24.5164419,-1.7829357 24.5430446,-1.7535325 24.5689042,-1.723529 24.5940344,-1.6929376 24.6184499,-1.6617714 24.6421659,-1.6300441 24.6651983,-1.5977701 24.6875638,-1.5649643 24.7092795,-1.5316423 24.7303632,-1.4978201 24.7508332,-1.4635143 24.7707083,-1.4287421 24.7900078,-1.3935208 24.8087516,-1.3578686 24.8269598,-1.3218039 24.8446531,-1.2853455 24.8618527,-1.2485127 24.8948571,-1.1738032 24.9261495,-1.0978373 24.9559124,-1.0207827 24.9843331,-0.9428121 25.0116036,-0.864103 25.0379199,-0.7848374 25.0884903,-0.6253817 25.1376715,-0.4659668 25.1622591,-0.3867616 25.1871239,-0.308155 25.2124768,-0.2303469 25.238529,-0.1535382 25.265492,-0.0779307 25.2935773,-0.0037265 25.3229957,0.0688719 25.3382705,0.1045059 25.3539572,0.1396627 25.3539572,0.1396627 25.5019031,0.1369824 25.6490824,0.1342832 25.7954999,0.131565 25.9411603,0.128828 26.0860686,0.1260722 26.2302296,0.1232976 26.3736481,0.1205045 26.5163291,0.1176928 26.5163291,0.1176928 26.5309152,0.1170468 26.5454267,0.1156918 26.5598385,0.1136336 26.5741253,0.1108775 26.5882619,0.1074292 26.602223,0.1032942 26.6159836,0.0984781 26.6295172,0.0929869 26.6427579,0.0868465 26.6556623,0.0800801 26.6682092,0.0727025 26.6803776,0.0647286 26.6921463,0.056173 26.7034943,0.0470505 26.7144005,0.037376 26.7248433,0.0271647 26.7347726,0.0164644 26.7441561,0.005314 26.7529798,-0.0062648 26.7612301,-0.0182505 26.7688929,-0.0306215 26.7759545,-0.043356 26.7824011,-0.0564325 26.7882187,-0.0698292 26.7933805,-0.0834871 26.7978695,-0.0973551 26.8016811,-0.111408 26.8048104,-0.1256205 26.8072527,-0.1399675 26.8090031,-0.1544239 26.8100569,-0.1689644 26.8104092,-0.1835638 26.8104092,-1.2029873 A0.3,0.3 180 0,1 27.1104092,-1.5029873 L28.9104092,-1.5029873 A0.3,0.3 270 0,1 29.2104092,-1.2029873 L29.2104092,-0.250217 29.2104092,-0.250217 29.210783,-0.2352152 29.2119026,-0.2202612 29.2137649,-0.2053828 29.216367,-0.1906079 29.2197036,-0.1759739 29.2237619,-0.1615355 29.228533,-0.147321 29.234008,-0.1333571 29.2401763,-0.1196745 29.2470086,-0.1063365 29.2544848,-0.093375 29.2625889,-0.0808128 29.2713045,-0.0686728 29.2806157,-0.0569777 29.2905063,-0.0457503 29.3009602,-0.0350135 29.3119515,-0.0247985 29.3234202,-0.0151611 29.3353381,-0.0061206 29.3476816,0.002308 29.3604272,0.0101098 29.3735511,0.0172697 29.3870297,0.0237729 29.4008395,0.0296042 29.4149348,0.0347414 29.4292429,0.039159 29.4437347,0.0428516 29.4583827,0.0458145 29.4731593,0.0480429 29.4880369,0.049532 29.5029878,0.0502771 29.5179845,0.0502732 29.5179845,0.0502732 29.6800597,0.0461445 29.8411333,0.0419874 30.0012142,0.037802 30.1603108,0.0335884 30.318432,0.0293465 30.4755863,0.0250765 30.6317824,0.0207785 30.7870291,0.0164524 30.9413349,0.0120984 31.0947085,0.0077166 31.2471586,0.0033069 31.3986938,-0.0011306 31.5493228,-0.0055957 31.6990543,-0.0100885 31.8478975,-0.0146088 31.995866,-0.0191564 32.1429678,-0.0237314 32.2892091,-0.0283337 32.4345961,-0.0329632 32.5791349,-0.03762 32.7228317,-0.0423039 32.8656927,-0.047015 33.007724,-0.0517533 33.1489319,-0.0565187 33.2893224,-0.0613111 33.4289019,-0.0661307 33.5676763,-0.0709773 33.705652,-0.0758509 33.8428351,-0.0807514 33.9792317,-0.085679 34.1148481,-0.0906334 34.2496903,-0.0956148 34.3837646,-0.100623 34.5170772,-0.1056581 34.6496342,-0.11072 34.7814417,-0.1158087 34.9125061,-0.1209242 35.0428333,-0.1260664 35.1724297,-0.1312353 35.3013013,-0.1364309 35.4294544,-0.1416532 35.5568951,-0.1469021 35.6836296,-0.1521776 35.809664,-0.1574797 35.9350046,-0.1628084 36.0596575,-0.1681635 36.1836289,-0.1735452 36.3069249,-0.1789533 36.4295518,-0.1843879 36.5515156,-0.1898489 36.6728226,-0.1953363 36.7934789,-0.2008501 36.9134908,-0.2063902 37.0328643,-0.2119566 37.1516057,-0.2175492 37.2697211,-0.2231682 37.3872163,-0.2288134 37.50409,-0.2344849 37.620345,-0.2401828 37.735986,-0.2459071 37.8510177,-0.2516577 37.9654447,-0.2574348 38.1925037,-0.269068 38.1925037,-0.269068 38.2067688,-0.2701492 38.2209421,-0.2719088 38.235,-0.274341 38.2489189,-0.2774399 38.2626753,-0.2811996 38.2762456,-0.2856142 38.2896061,-0.2906778 38.3027314,-0.2963837 38.3155583,-0.3027048 38.3280503,-0.3096204 38.3401879,-0.3171162 38.3519513,-0.325178 38.3633209,-0.3337919 38.374277,-0.3429436 38.3847999,-0.352619 38.3948643,-0.362798 38.4044195,-0.3734283 38.4134465,-0.3844841 38.4219326,-0.3959449 38.4298647,-0.4077904 38.4372298,-0.4200004 38.4440151,-0.4325544 38.4502076,-0.4454322 38.4557934,-0.4586112 38.4607452,-0.472028 38.4650511,-0.4856426 38.4687068,-0.4994314 38.4717078,-0.5133708 38.4740497,-0.5274372 38.4757279,-0.5416068 38.4767381,-0.555856 38.4770759,-0.5701611 38.4770759,-1.2029873 A0.3,0.3 180 0,1 38.7770759,-1.5029873 L40.5770759,-1.5029873z" transform="matrix(1,0,0,-1,57.1562575,1.4970127)" fill="rgb(255,255,255)" stroke="rgb(0,0,0)" stroke-width="0.0010cm" stroke-linecap="round" stroke-linejoin="round" /></svg>