<?xml version="1.0" encoding="UTF-8" standalone="no"?>
<!-- Generator: Fusion 360, Shaper Origin Export Add-In, Version 1.8.0  -->

<svg
   shaper:fusionaddin="version:1.8.0"
   width="128cm"
   height="36cm"
   version="1.1"
   x="0cm"
   y="0cm"
   viewBox="0 0 128 36"
   enable-background="new 0 0 128 36"
   xml:space="preserve"
   id="svg70"
   sodipodi:docname="corpus_6_Faces.svg"
   inkscape:version="1.2.2 (732a01da63, 2022-12-09)"
   xmlns:inkscape="http://www.inkscape.org/namespaces/inkscape"
   xmlns:sodipodi="http://sodipodi.sourceforge.net/DTD/sodipodi-0.dtd"
   xmlns="http://www.w3.org/2000/svg"
   xmlns:svg="http://www.w3.org/2000/svg"
   xmlns:shaper="http://www.shapertools.com/namespaces/shaper"><defs
     id="defs74" /><sodipodi:namedview
     id="namedview72"
     pagecolor="#505050"
     bordercolor="#eeeeee"
     borderopacity="1"
     inkscape:showpageshadow="0"
     inkscape:pageopacity="0"
     inkscape:pagecheckerboard="0"
     inkscape:deskcolor="#505050"
     inkscape:document-units="cm"
     showgrid="false"
     inkscape:zoom="0.27078451"
     inkscape:cx="2306.2619"
     inkscape:cy="681.35361"
     inkscape:window-width="1920"
     inkscape:window-height="991"
     inkscape:window-x="-9"
     inkscape:window-y="-9"
     inkscape:window-maximized="1"
     inkscape:current-layer="svg70" /><g
     id="g287"
     style="fill:none;stroke:#000000;stroke-opacity:1;stroke-width:0.1;stroke-dasharray:none"><path
       d="M60.6562575,33.1029873 A1.4,1.4 0 0,1 59.2562575,34.5029873 L-65.9437425,34.5029873 A1.4,1.4 90 0,1 -67.3437425,33.1029873 L-67.3437425,-0.0970127 A1.4,1.4 180 0,1 -65.9437425,-1.4970127 L59.2562575,-1.4970127 A1.4,1.4 270 0,1 60.6562575,-0.0970127 L60.6562575,33.1029873z"
       transform="matrix(1,0,0,-1,67.3437425,34.5029873)"
       fill="rgb(0,0,0)"
       stroke-linecap="round"
       stroke-linejoin="round"
       id="path2"
       style="fill:none;stroke:#000000;stroke-opacity:1;stroke-width:0.1;stroke-dasharray:none" /><path
       d="M44.2229241,31.5029873 A0.3,0.3 270 0,1 44.5229241,31.8029873 L44.5229241,32.5629862 44.5229241,32.5629862 44.5233046,32.5785112 44.5244441,32.5939881 44.5263399,32.6093873 44.5289892,32.6246796 44.5323892,32.6398345 44.5365294,32.6547981 44.5413992,32.6695298 44.5469901,32.684001 44.5532938,32.6981831 44.5602996,32.7120432 44.5679767,32.7255169 44.576305,32.7385703 44.5852685,32.7511781 44.5948511,32.7633149 44.6050367,32.7749553 44.6158092,32.786074 44.6271526,32.7966455 44.6390314,32.8066288 44.6513829,32.8159688 44.6641808,32.8246469 44.6774001,32.8326454 44.6910158,32.8399468 44.7050028,32.8465336 44.7193362,32.8523884 44.7339855,32.8574917 44.7488614,32.8618096 44.7639161,32.8653305 44.7791191,32.8680494 44.7944399,32.8699613 44.8098482,32.8710614 44.8253136,32.8713447 44.8408055,32.8708062 44.8408055,32.8708062 44.9951264,32.8612387 45.1483067,32.8515481 45.3003501,32.8417327 45.4512602,32.8317902 45.6010407,32.821719 45.7496951,32.8115168 45.8972272,32.8011819 46.0436405,32.7907122 46.1889387,32.7801057 46.3331255,32.7693606 46.4762044,32.7584748 46.6181791,32.7474464 46.7590532,32.7362735 46.8988304,32.724954 47.0375144,32.713486 47.1751087,32.7018675 47.3116169,32.6900966 47.4470428,32.6781714 47.58139,32.6660898 47.714662,32.6538499 47.8468626,32.6414498 47.9779953,32.6288874 48.1080638,32.6161609 48.2370718,32.6032682 48.3650229,32.5902074 48.4919206,32.5769765 48.6177687,32.5635736 48.7425708,32.5499967 48.8663305,32.5362439 48.9890515,32.5223132 49.1107373,32.5082025 49.2313917,32.4939101 49.3510182,32.4794338 49.4696206,32.4647718 49.5872024,32.4499221 49.7037672,32.4348827 49.8193188,32.4196517 49.9338607,32.4042271 50.0473966,32.3886069 50.1599301,32.3727892 50.2714649,32.356772 50.3820045,32.3405533 50.4915527,32.3241313 50.6001131,32.3075039 50.7076892,32.2906691 50.8142848,32.2736251 50.9199035,32.2563699 51.0245488,32.2389014 51.1282246,32.2212177 51.2309343,32.2033169 51.3326816,32.185197 51.4334701,32.1668561 51.5333036,32.1482922 51.6321856,32.1295032 51.7301197,32.1104874 51.8271097,32.0912426 51.923159,32.071767 52.0182715,32.0520585 52.1124506,32.0321153 52.2057001,32.0119354 52.2980236,31.9915167 52.3894247,31.9708573 52.4799071,31.9499554 52.5694743,31.9288088 52.6581301,31.9074157 52.745878,31.8857741 52.8327217,31.863882 52.9186582,31.84174 53.0036863,31.8193482 53.0878126,31.7967044 53.1710437,31.7738063 53.2533861,31.7506518 53.3348466,31.7272384 53.4154316,31.7035639 53.4951477,31.6796261 53.5740015,31.6554227 53.6519997,31.6309514 53.7291488,31.6062099 53.8054553,31.581196 53.8809259,31.5559074 53.9555672,31.5303418 54.0293857,31.504497 54.1023881,31.4783706 54.1745809,31.4519605 54.2459707,31.4252643 54.3165641,31.3982798 54.3863676,31.3710047 54.455388,31.3434367 54.5236316,31.3155736 54.5911053,31.287413 54.6578154,31.2589528 54.7237687,31.2301906 54.7889717,31.2011242 54.8534309,31.1717513 54.9171531,31.1420696 54.9801447,31.1120769 55.0424123,31.0817709 55.1039626,31.0511493 55.1648021,31.0202098 55.2249374,30.9889502 55.2843751,30.9573682 55.3431218,30.9254616 55.4011841,30.893228 55.4585685,30.8606652 55.5152817,30.8277709 55.5713316,30.7945419 55.6268338,30.7609079 55.681858,30.7268212 55.7364043,30.6922754 55.7904731,30.6572644 55.8440645,30.6217818 55.8971789,30.5858214 55.9498165,30.5493769 56.0019776,30.5124421 56.0536625,30.4750106 56.1048713,30.4370763 56.1556043,30.3986328 56.2058619,30.3596739 56.2556442,30.3201933 56.3049516,30.2801847 56.3537842,30.2396419 56.4021424,30.1985586 56.4500263,30.1569285 56.4974364,30.1147454 56.5443727,30.072003 56.5908356,30.0286951 56.6368253,29.9848153 56.6823421,29.9403573 56.7273863,29.895315 56.7719581,29.8496821 56.8160577,29.8034523 56.8596855,29.7566192 56.9028416,29.7091767 56.9455263,29.6611185 56.98774,29.6124383 57.0294828,29.5631299 57.070755,29.5131869 57.1115569,29.4626032 57.1518834,29.4113805 57.1917193,29.3595376 57.2310664,29.3070699 57.2699277,29.2539709 57.308306,29.2002341 57.3462042,29.145853 57.3836254,29.0908213 57.4205724,29.0351324 57.4570482,28.9787799 57.4930556,28.9217574 57.5285977,28.8640583 57.5636774,28.8056762 57.5982975,28.7466046 57.6324611,28.6868371 57.666171,28.6263673 57.6994302,28.5651886 57.7322415,28.5032946 57.764608,28.4406789 57.7965326,28.3773349 57.8280182,28.3132563 57.8590677,28.2484365 57.889684,28.1828691 57.9198702,28.1165476 57.949629,28.0494656 57.9789635,27.9816167 58.0078766,27.9129943 58.0363712,27.8435919 58.0644502,27.7734033 58.0921165,27.7024218 58.1193732,27.630641 58.1462231,27.5580544 58.1726691,27.4846556 58.1987142,27.4104382 58.2243614,27.3353957 58.2496134,27.2595215 58.2744734,27.1828093 58.2989441,27.1052526 58.3230286,27.0268449 58.3467297,26.9475798 58.3700523,26.8674443 58.3930274,26.7863293 58.4156659,26.7041881 58.437969,26.6210081 58.4599378,26.5367769 58.4815731,26.4514817 58.5028762,26.3651101 58.523848,26.2776495 58.5444896,26.1890874 58.564802,26.0994111 58.5847863,26.0086081 58.6044435,25.9166658 58.6237748,25.8235717 58.642781,25.7293132 58.6614633,25.6338778 58.6798227,25.5372528 58.6978603,25.4394257 58.7155771,25.340384 58.7329742,25.2401151 58.7500525,25.1386064 58.7668132,25.0358453 58.7832573,24.9318194 58.7993859,24.8265159 58.8151999,24.7199225 58.8307005,24.6120264 58.8458886,24.5028151 58.8607654,24.3922761 58.8753319,24.2803969 58.8895891,24.1671647 58.9035381,24.0525672 58.9171798,23.9365916 58.9305155,23.8192255 58.9435461,23.7004563 58.9562726,23.5802714 58.9686961,23.4586582 58.9808177,23.3356043 58.9926384,23.2110969 59.0041592,23.0851236 59.0153812,22.9576719 59.0263055,22.828729 59.036933,22.6982825 59.0472649,22.5663198 59.0573021,22.4328284 59.0670458,22.2977956 59.076497,22.1612089 59.0856567,22.0230558 59.0945259,21.8833237 59.1031058,21.742 59.1113973,21.5990721 59.1194015,21.4545275 59.1271195,21.3083536 59.1345523,21.1605379 59.1417009,21.0110678 59.1485664,20.8599307 59.1551499,20.7071141 59.1614524,20.5526054 59.1674749,20.396392 59.1732184,20.2384614 59.1786842,20.078801 59.183873,19.9173982 59.1887861,19.7542406 59.1934245,19.5893154 59.1977892,19.4226102 59.2018813,19.2541123 59.2057017,19.0838093 59.2092516,18.9116886 59.2125321,18.7377375 59.215544,18.5619436 59.2182886,18.3842942 59.2207668,18.2047768 59.2229797,18.0233789 59.2249284,17.8400878 59.2266138,17.6548911 59.2280371,17.467776 59.2291992,17.2787302 59.2301013,17.0877409 59.2307443,16.8947958 59.2311294,16.6998821 59.2312575,16.5029873 59.2312575,16.5029873 59.2311754,16.3429303 59.2309274,16.1837547 59.2305112,16.0254624 59.2299241,15.868055 59.2291638,15.7115343 59.2282278,15.555902 59.2271136,15.4011598 59.2258186,15.2473094 59.2243406,15.0943526 59.2226769,14.942291 59.2208251,14.7911265 59.2187827,14.6408607 59.2165473,14.4914953 59.2141164,14.3430321 59.2114874,14.1954727 59.2086581,14.048819 59.2056258,13.9030727 59.2023881,13.7582353 59.1989425,13.6143088 59.1952866,13.4712948 59.1914178,13.329195 59.1873337,13.1880111 59.1830319,13.0477449 59.1785099,12.9083982 59.1737651,12.7699725 59.1687951,12.6324697 59.1635975,12.4958914 59.1581698,12.3602394 59.1525094,12.2255155 59.146614,12.0917212 59.140481,11.9588585 59.134108,11.8269289 59.1274925,11.6959341 59.120632,11.5658761 59.1135241,11.4367563 59.1061663,11.3085767 59.0985561,11.1813388 59.0906911,11.0550444 59.0825687,10.9296953 59.0741865,10.8052932 59.065542,10.6818397 59.0566328,10.5593366 59.0474564,10.4377856 59.0380103,10.3171885 59.028292,10.197547 59.0182991,10.0788628 59.008029,9.9611376 58.9974794,9.8443731 58.9866477,9.7285711 58.9755315,9.6137333 58.9641283,9.4998614 58.9524357,9.3869571 58.940451,9.2750222 58.928172,9.1640583 58.915596,9.0540673 58.9027207,8.9450508 58.8895436,8.8370105 58.8760622,8.7299482 58.8622739,8.6238656 58.8481765,8.5187644 58.8337707,8.4146672 58.8190698,8.3116667 58.804074,8.2097662 58.7887813,8.1089569 58.7731897,8.0092302 58.7572975,7.9105775 58.7411027,7.8129899 58.7246034,7.716459 58.7077978,7.620976 58.6906839,7.5265321 58.6732599,7.4331188 58.6555238,7.3407274 58.6374739,7.2493492 58.6191081,7.1589755 58.6004247,7.0695976 58.5814216,6.9812068 58.5620971,6.8937946 58.5424493,6.8073521 58.5224761,6.7218708 58.5021759,6.6373419 58.4815466,6.5537567 58.4605864,6.4711067 58.4392934,6.3893831 58.4176656,6.3085773 58.3957013,6.2286805 58.3733986,6.149684 58.3507554,6.0715793 58.32777,5.9943577 58.3044404,5.9180103 58.2807648,5.8425287 58.2567413,5.7679041 58.232368,5.6941278 58.207643,5.6211911 58.1825643,5.5490854 58.1571302,5.477802 58.1313387,5.4073323 58.105188,5.3376674 58.0786761,5.2687989 58.0518011,5.2007179 58.0245613,5.1334158 57.9969546,5.066884 57.9689792,5.0011137 57.9406298,4.9360889 57.9118756,4.871741 57.8827066,4.8080513 57.8531187,4.7450152 57.8231078,4.6826278 57.7926699,4.6208846 57.7618011,4.5597807 57.7304972,4.4993114 57.6987543,4.439472 57.6665684,4.3802578 57.6339354,4.321664 57.6008513,4.263686 57.5673121,4.2063189 57.5333138,4.1495581 57.4988523,4.0933988 57.4639236,4.0378362 57.4285237,3.9828658 57.3926486,3.9284827 57.3562943,3.8746822 57.3194566,3.8214595 57.2821317,3.7688101 57.2443155,3.716729 57.206004,3.6652116 57.167193,3.6142532 57.1278788,3.5638491 57.0880571,3.5139944 57.047724,3.4646845 57.0068754,3.4159147 56.9655074,3.3676802 56.9236159,3.3199762 56.8811969,3.2727982 56.8382464,3.2261412 56.7947603,3.1800007 56.7507347,3.1343718 56.7061654,3.0892499 56.6610485,3.0446302 56.6153619,3.0004923 56.5690862,2.9568203 56.5222164,2.9136108 56.4747469,2.8708606 56.4266725,2.8285662 56.3779878,2.7867244 56.3286876,2.7453318 56.2787665,2.7043852 56.2282192,2.6638812 56.1770403,2.6238166 56.1252246,2.5841879 56.0727666,2.5449919 56.0196612,2.5062253 55.9659029,2.4678847 55.9114865,2.4299668 55.8564066,2.3924684 55.8006578,2.3553861 55.744235,2.3187165 55.6871327,2.2824565 55.6293456,2.2466025 55.5708684,2.2111514 55.5116958,2.1760999 55.4518225,2.1414445 55.3912431,2.1071821 55.3299522,2.0733092 55.2679447,2.0398225 55.2052151,2.0067188 55.1417582,1.9739947 55.0775686,1.941647 55.0126409,1.9096722 54.94697,1.8780671 54.8805503,1.8468284 54.8133767,1.8159527 54.7454438,1.7854367 54.6767463,1.7552772 54.6072788,1.7254707 54.5370001,1.6959992 54.4658144,1.6668239 54.3937069,1.6379415 54.3206665,1.6093503 54.2466821,1.5810485 54.1717427,1.5530345 54.0958371,1.5253064 54.0189545,1.4978626 53.9410836,1.4707014 53.8622134,1.4438211 53.782333,1.4172199 53.7014311,1.3908961 53.6194969,1.364848 53.5365191,1.3390739 53.4524869,1.3135721 53.367389,1.2883408 53.2812144,1.2633784 53.1939522,1.238683 53.1055912,1.2142531 53.0161204,1.1900868 52.9255286,1.1661825 52.833805,1.1425384 52.7409384,1.1191529 52.6469177,1.0960241 52.5517319,1.0731505 52.45537,1.0505302 52.3578208,1.0281616 52.2590734,1.0060429 52.1591167,0.9841724 52.0579395,0.9625484 51.955531,0.9411692 51.8518799,0.9200331 51.7469753,0.8991383 51.640806,0.8784831 51.5333612,0.8580659 51.4246296,0.8378848 51.3146002,0.8179383 51.203262,0.7982244 51.0906039,0.7787416 50.9766148,0.7594882 50.8612838,0.7404623 50.7445997,0.7216623 50.6265515,0.7030865 50.5071281,0.6847331 50.3863185,0.6666005 50.2641116,0.6486869 50.1404964,0.6309906 50.0154617,0.6135098 49.8889967,0.5962429 49.7610901,0.5791882 49.631731,0.5623439 49.5009082,0.5457082 49.3686108,0.5292796 49.2348277,0.5130563 49.0995477,0.4970365 48.96276,0.4812185 48.8244533,0.4656007 48.6846167,0.4501812 48.543239,0.4349585 48.4003093,0.4199307 48.2558165,0.4050961 48.1097495,0.3904531 47.9620972,0.3759999 47.8128487,0.3617348 47.6619928,0.347656 47.5095186,0.333762 47.3554148,0.3200508 47.1996706,0.3065209 47.0422748,0.2931705 46.8832163,0.2799979 46.7224842,0.2670013 46.5600673,0.2541791 46.3959546,0.2415295 46.2301351,0.2290508 46.0625977,0.2167414 45.8933313,0.2045994 45.7223249,0.1926232 45.5495674,0.180811 45.3750478,0.1691611 45.198755,0.1576719 45.0206779,0.1463415 44.8408055,0.1351684 44.8408055,0.1351684 44.8253042,0.1346298 44.8098106,0.1349149 44.7943557,0.1360215 44.7789705,0.1379477 44.7636993,0.1406888 44.7486095,0.144231 44.7337327,0.1485636 44.7190981,0.1536764 44.7047402,0.1595566 44.6907339,0.1661698 44.6771143,0.1734922 44.663905,0.1815045 44.6511294,0.1901874 44.6388111,0.1995215 44.6269736,0.2094876 44.6156406,0.2200664 44.6048522,0.2312201 44.5946625,0.2428868 44.5850867,0.2550391 44.576139,0.2676505 44.5678336,0.2806948 44.5601845,0.2941456 44.5532061,0.3079766 44.5469123,0.3221614 44.5413277,0.3366445 44.5364728,0.3513631 44.5323521,0.366288 44.5289703,0.3813902 44.526332,0.3966404 44.5244418,0.4120095 44.5233043,0.4274686 44.5229241,0.4429884 44.5229241,1.2029873 A0.3,0.3 0 0,1 44.2229241,1.5029873 L42.4229241,1.5029873 A0.3,0.3 90 0,1 42.1229241,1.2029873 L42.1229241,0.2891421 42.1229241,0.2891421 42.122588,0.2745789 42.1215819,0.2600666 42.1199096,0.2456293 42.1175748,0.2312914 42.1145811,0.2170768 42.1109321,0.2030099 42.1066316,0.1891147 42.1016832,0.1754154 42.096103,0.1619646 42.0899109,0.14881 42.0831183,0.1359736 42.0757366,0.1234775 42.0677771,0.1113436 42.0592511,0.0995939 42.0501699,0.0882504 42.040545,0.0773351 42.0304046,0.0668868 42.0197951,0.0569551 42.0087362,0.0475571 41.9972469,0.0387093 41.9853461,0.0304282 41.9730529,0.0227304 41.9603862,0.0156322 41.947365,0.0091501 41.9340347,0.0033118 41.9204617,-0.0018535 41.9066709,-0.0063384 41.8926869,-0.0101357 41.878534,-0.0132385 41.8642367,-0.0156397 41.8498194,-0.0173322 41.8353065,-0.018309 41.8353065,-0.018309 41.4908649,-0.0326191 41.145945,-0.0463992 40.4559405,-0.0724249 40.1114912,-0.0846985 39.7678341,-0.0964979 39.4252868,-0.1078372 39.0835493,-0.1187495 38.740855,-0.1293091 38.3972721,-0.1395286 37.7083547,-0.1589772 37.0186239,-0.1771548 36.3299068,-0.1941209 36.3299068,-0.1941209 36.3147697,-0.1940906 36.299666,-0.1932802 36.2846245,-0.1916923 36.2696739,-0.1893297 36.2548624,-0.1861999 36.240243,-0.1823158 36.2258429,-0.1776872 36.2116894,-0.1723237 36.1978306,-0.1662449 36.1843265,-0.159482 36.1711998,-0.1520527 36.1584727,-0.1439749 36.1461674,-0.135266 36.134306,-0.1259437 36.1229108,-0.1160258 36.112004,-0.1055298 36.1016358,-0.0945052 36.0918441,-0.0829987 36.0826426,-0.0710348 36.0740448,-0.058638 36.0660643,-0.0458325 36.0587146,-0.0326427 36.0520093,-0.0190932 36.0459622,-0.0052084 36.0405992,0.0089513 36.0359368,0.0233329 36.0319794,0.0379093 36.0287315,0.0526532 36.0261975,0.0675374 36.0243819,0.0825346 36.0232893,0.0976176 36.0229241,0.1127592 36.0229241,1.2029873 A0.3,0.3 0 0,1 35.7229241,1.5029873 L33.9229241,1.5029873 A0.3,0.3 90 0,1 33.6229241,1.2029873 L33.6229241,0.0502113 33.6229241,0.0502113 33.6225765,0.0354522 33.6215365,0.0207484 33.6198083,0.0061253 33.6173961,-0.008392 33.6143041,-0.0227781 33.6105364,-0.0370079 33.6060974,-0.051056 33.6009912,-0.0648972 33.5952283,-0.0784923 33.5888353,-0.0917762 33.581826,-0.1047235 33.574213,-0.1173116 33.5660088,-0.129518 33.5572262,-0.14132 33.5478776,-0.152695 33.5379758,-0.1636205 33.527544,-0.1740636 33.5166353,-0.1839686 33.5052734,-0.1933159 33.4934787,-0.202089 33.4812717,-0.2102715 33.4686727,-0.2178469 33.4557023,-0.2247986 33.4423809,-0.2311104 33.428751,-0.236757 33.4148852,-0.2417079 33.4008109,-0.2459559 33.3865539,-0.2494944 33.3721398,-0.252317 33.3575943,-0.2544171 33.3429431,-0.2557884 33.328212,-0.2564243 33.328212,-0.2564243 32.7128273,-0.2672134 32.0960537,-0.2774486 31.4787439,-0.2871494 30.8617504,-0.2963351 30.2459257,-0.3050254 29.9387182,-0.3091908 29.6321225,-0.3132397 29.3262454,-0.3171744 29.0211934,-0.3209975 28.4118524,-0.3283429 27.8000303,-0.3353455 27.186135,-0.3420173 26.5707494,-0.3483682 25.9544566,-0.3544079 24.7214815,-0.3655932 24.1059653,-0.3707586 23.4918739,-0.3756521 23.4918739,-0.3756521 23.4769071,-0.3753873 23.4619837,-0.3743623 23.4471314,-0.3725801 23.4323782,-0.3700438 23.4177733,-0.3667617 23.4033633,-0.3627462 23.3891744,-0.3580066 23.3752329,-0.3525521 23.3615945,-0.3464063 23.3483072,-0.3395959 23.3353925,-0.3321376 23.3228722,-0.3240485 23.3107678,-0.3153452 23.299101,-0.3060448 23.2878935,-0.2961641 23.2771675,-0.2857207 23.2669757,-0.2747669 23.2573503,-0.2633438 23.2483046,-0.2514749 23.2398521,-0.2391837 23.2320061,-0.2264937 23.22478,-0.2134286 23.2181873,-0.2000118 23.2122415,-0.1862673 23.2069692,-0.1722568 23.2023853,-0.1580297 23.1984945,-0.1436125 23.1953011,-0.1290317 23.1928095,-0.1143136 23.1910243,-0.0994848 23.1899499,-0.0845716 23.1895908,-0.0696006 23.1895908,1.2029873 A0.3,0.3 0 0,1 22.8895908,1.5029873 L21.0895908,1.5029873 A0.3,0.3 90 0,1 20.7895908,1.2029873 L20.7895908,-0.0903052 20.7895908,-0.0903052 20.7892373,-0.1051527 20.7881782,-0.1199584 20.7864157,-0.134696 20.7839522,-0.1493394 20.7807921,-0.1638529 20.7769451,-0.1781899 20.7724181,-0.192324 20.7672179,-0.2062298 20.7613545,-0.2198747 20.7548527,-0.2332007 20.7477275,-0.2461806 20.7399923,-0.2587916 20.7316604,-0.2710108 20.7227451,-0.2828155 20.7132597,-0.2941828 20.7032175,-0.30509 20.6926405,-0.315506 20.6815841,-0.3253738 20.670074,-0.3346727 20.6581313,-0.3433861 20.6457772,-0.3514979 20.6330329,-0.3589917 20.6199196,-0.3658511 20.6064584,-0.3720598 20.5926913,-0.3775938 20.5786928,-0.3824225 20.5644913,-0.3865389 20.5501133,-0.3899369 20.5355848,-0.3926104 20.5209323,-0.394553 20.5061819,-0.3957589 20.49136,-0.3962217 20.49136,-0.3962217 20.0221617,-0.3989868 20.0221617,-0.3989868 19.9991252,-0.3647606 19.9767475,-0.3297145 19.954998,-0.2938809 19.9338458,-0.2572926 19.91326,-0.2199822 19.8932098,-0.1819823 19.8736645,-0.1433256 19.8545931,-0.1040447 19.8359648,-0.0641723 19.8177489,-0.0237409 19.7999144,0.0172167 19.7824306,0.058668 19.7483916,0.1429208 19.7153852,0.2287565 19.6831649,0.3159139 19.6514839,0.404132 19.5887537,0.5827055 19.5252215,0.7623881 19.4925381,0.8519925 19.4589143,0.9410908 19.4241034,1.029422 19.387869,1.1167021 19.3500088,1.2025815 19.3303911,1.2449256 19.3102722,1.2868384 19.2896198,1.3282943 19.2684017,1.3692675 19.2465857,1.4097325 19.2241396,1.4496636 19.2010312,1.4890352 19.1772284,1.5278215 19.1526989,1.565997 19.1274105,1.603536 19.1013311,1.6404128 19.0744283,1.6766017 19.0466864,1.7120569 19.0182231,1.7465784 18.9890496,1.7801237 18.9591426,1.8126955 18.9284786,1.8442969 18.8970345,1.8749308 18.8647868,1.9046 18.8317121,1.9333075 18.7977872,1.9610562 18.7629886,1.9878489 18.727293,2.0136887 18.6906771,2.0385784 18.6531175,2.0625208 18.6145908,2.085519 A1.25,1.25 60 0,1 17.3645908,2.085519 L17.3645908,2.085519 17.3248302,2.0618598 17.2858984,2.0372604 17.2477887,2.0116993 17.2104942,1.9851549 17.1740084,1.9576057 17.1383244,1.9290301 17.1034355,1.8994065 17.069335,1.8687134 17.0360162,1.8369292 17.0034723,1.8040324 16.9718494,1.7701708 16.9413102,1.7355533 16.9118192,1.7001941 16.8833406,1.664107 16.8558385,1.6273057 16.829277,1.5898042 16.8036203,1.5516161 16.7788324,1.5127552 16.7548776,1.4732353 16.7317211,1.4330724 16.7093732,1.3923668 16.6878196,1.3511877 16.6670216,1.3095633 16.6469406,1.2675219 16.6275381,1.2250918 16.6087754,1.1823011 16.5906139,1.1391781 16.573015,1.0957511 16.5393507,1.0080979 16.5074736,0.9195675 16.4770749,0.8303858 16.4478457,0.7407787 16.3916608,0.5611929 16.3641067,0.47173 16.3365243,0.3828753 16.3086135,0.2948899 16.2800739,0.2080351 16.2506053,0.1225722 16.2199076,0.0387623 16.2040039,-0.0024411 16.1876803,-0.0431332 16.1708994,-0.0832815 16.1536235,-0.1228533 16.1358151,-0.1618158 16.1174367,-0.2001365 16.0984336,-0.2378161 16.0786447,-0.2750437 16.0580006,-0.3117987 16.0364546,-0.3480134 16.0139601,-0.38362 15.9904706,-0.4185507 15.9904706,-0.4185507 14.9906644,-0.4223781 14.9906644,-0.4223781 14.9757449,-0.4220543 14.9608712,-0.420976 14.9460709,-0.4191463 14.9313715,-0.4165683 14.9168223,-0.4132506 14.9024684,-0.4092052 14.8883358,-0.4044413 14.8744508,-0.3989682 14.8608702,-0.3928101 14.8476392,-0.3859925 14.8347795,-0.3785321 14.8223124,-0.3704454 14.8102595,-0.3617492 14.7986424,-0.3524601 14.7874824,-0.3425947 14.7768021,-0.3321706 14.7666542,-0.3212403 14.75707,-0.3098439 14.7480627,-0.2980045 14.7396458,-0.2857455 14.7318326,-0.2730901 14.7246366,-0.2600618 14.718071,-0.2466837 14.7121496,-0.2329796 14.7068989,-0.2190114 14.7023338,-0.2048279 14.6984587,-0.1904554 14.6952782,-0.1759201 14.6927967,-0.1612483 14.6910186,-0.1464662 14.6899485,-0.1316 14.6895908,-0.1166762 14.6895908,1.2029873 A0.3,0.3 0 0,1 14.3895908,1.5029873 L12.5895908,1.5029873 A0.3,0.3 90 0,1 12.2895908,1.2029873 L12.2895908,-0.126221 12.2895908,-0.126221 12.2892355,-0.1410909 12.2881709,-0.1559184 12.2863996,-0.1706772 12.2839236,-0.185341 12.2807476,-0.1998741 12.2768815,-0.214229 12.2723323,-0.2283792 12.267107,-0.2422991 12.2612154,-0.2559567 12.2546827,-0.2692933 12.2475245,-0.282281 12.2397544,-0.2948968 12.2313857,-0.307118 12.2224322,-0.3189216 12.2129073,-0.3302849 12.2028246,-0.3411849 12.192206,-0.3515909 12.1811073,-0.3614459 12.1695548,-0.3707287 12.1575698,-0.3794229 12.1451739,-0.3875125 12.1323883,-0.394981 12.1192346,-0.4018122 12.1057341,-0.4079899 12.0919287,-0.4134902 12.0778932,-0.4182828 12.0636566,-0.4223608 12.049245,-0.425718 12.0346851,-0.4283486 12.0200033,-0.4302464 12.0052259,-0.4314054 11.9903794,-0.4318197 11.9903794,-0.4318197 9.5279654,-0.4375652 8.9129042,-0.4387512 8.2986265,-0.4398434 7.6854156,-0.4408446 7.0734092,-0.4417584 6.4608217,-0.4425903 5.8472148,-0.4433433 4.6178164,-0.4446212 2.1563968,-0.4463213 2.1563968,-0.4463213 2.1415183,-0.4459527 2.1267076,-0.4448367 2.1119911,-0.4429795 2.0973956,-0.440387 2.0829476,-0.4370654 2.0686737,-0.4330206 2.0546005,-0.4282589 2.0407549,-0.4227862 2.0272054,-0.4166293 2.0140043,-0.4098159 2.0011732,-0.4023627 1.9887335,-0.394286 1.9767066,-0.3856023 1.965114,-0.3763281 1.9539773,-0.3664799 1.9433186,-0.356075 1.9331908,-0.3451655 1.9236249,-0.3337914 1.9146344,-0.3219756 1.9062327,-0.3097414 1.8984332,-0.2971119 1.8912494,-0.2841102 1.8846947,-0.2707595 1.8787827,-0.2570834 1.8735401,-0.2431434 1.8689819,-0.2289886 1.8651127,-0.2146451 1.8619368,-0.2001392 1.8594588,-0.1854969 1.8576833,-0.1707444 1.8566147,-0.1559079 1.8562575,-0.1410135 1.8562575,1.2029873 A0.3,0.3 0 0,1 1.5562575,1.5029873 L-0.2437425,1.5029873 A0.3,0.3 90 0,1 -0.5437425,1.2029873 L-0.5437425,-0.1417827 -0.5437425,-0.1417827 -0.5440995,-0.1566676 -0.5451687,-0.1715097 -0.5469479,-0.1862825 -0.5494347,-0.2009595 -0.5526245,-0.2155052 -0.5565072,-0.2298712 -0.5610755,-0.2440308 -0.5663225,-0.2579584 -0.5722382,-0.2716223 -0.5787974,-0.2849636 -0.5859839,-0.2979534 -0.5937838,-0.3105689 -0.6021835,-0.3227872 -0.6111691,-0.3345853 -0.620727,-0.3459406 -0.6308433,-0.35683 -0.6414963,-0.3672232 -0.6526296,-0.377063 -0.6642165,-0.386328 -0.6762354,-0.3950022 -0.6886648,-0.4030693 -0.701483,-0.4105131 -0.7146684,-0.4173175 -0.7281994,-0.4234664 -0.742034,-0.428936 -0.7560973,-0.4336963 -0.7703604,-0.4377405 -0.7847966,-0.4410627 -0.7993795,-0.443657 -0.8140824,-0.4455173 -0.828879,-0.4466379 -0.8437425,-0.4470127 -0.8437425,-0.4470127 -1.5308493,-0.4469105 -2.2185305,-0.4465993 -3.5946166,-0.445321 -4.9700018,-0.443121 -6.3445372,-0.4399376 -6.3445372,-0.4399376 -6.3593718,-0.4395249 -6.3741375,-0.4383707 -6.3888079,-0.436481 -6.4033567,-0.4338618 -6.4177575,-0.4305191 -6.4319838,-0.4264589 -6.4460094,-0.4216872 -6.4598074,-0.41621 -6.4733095,-0.4100541 -6.4864649,-0.4032464 -6.4992522,-0.3958033 -6.5116501,-0.3877408 -6.5236371,-0.3790754 -6.5351919,-0.369823 -6.5462929,-0.36 -6.556918,-0.3496234 -6.5670149,-0.3387448 -6.5765522,-0.3274037 -6.5855166,-0.3156231 -6.5938944,-0.3034259 -6.6016723,-0.290835 -6.6088368,-0.2778732 -6.6153744,-0.2645635 -6.6212713,-0.2509293 -6.626501,-0.2370317 -6.631048,-0.22292 -6.634908,-0.2086204 -6.6380763,-0.1941587 -6.6405485,-0.1795609 -6.6423199,-0.1648532 -6.6433861,-0.1500614 -6.6437425,-0.1352116 -6.6437425,1.2029873 A0.3,0.3 0 0,1 -6.9437425,1.5029873 L-8.7437425,1.5029873 A0.3,0.3 90 0,1 -9.0437425,1.2029873 L-9.0437425,-0.1248738 -9.0437425,-0.1248738 -9.0441024,-0.1397778 -9.0451804,-0.1546381 -9.0469742,-0.1694279 -9.0494812,-0.1841207 -9.0526968,-0.1986804 -9.0566103,-0.2130576 -9.0612143,-0.2272255 -9.0665014,-0.2411581 -9.0724617,-0.2548238 -9.0790688,-0.2681627 -9.0863062,-0.2811458 -9.0941596,-0.2937502 -9.102615,-0.305953 -9.1116581,-0.3177315 -9.1212748,-0.3290627 -9.131451,-0.3399237 -9.1421638,-0.3502838 -9.1533562,-0.3600861 -9.1650015,-0.3693098 -9.1770776,-0.3779389 -9.1895627,-0.3859575 -9.2024348,-0.3933496 -9.2156719,-0.4000993 -9.2292519,-0.4061906 -9.2431322,-0.4116 -9.2572382,-0.4162985 -9.2715411,-0.4202795 -9.2860141,-0.4235372 -9.3006305,-0.4260661 -9.3153636,-0.4278603 -9.3301866,-0.4289142 -9.3450728,-0.429222 -9.3450728,-0.429222 -10.5770737,-0.423175 -11.8101698,-0.4160657 -13.0424191,-0.4078325 -13.6576193,-0.403275 -14.2718795,-0.3984133 -14.884957,-0.3932397 -15.496609,-0.3877465 -16.1075008,-0.3819171 -16.7199912,-0.375716 -17.3339163,-0.3691284 -17.9489419,-0.3621415 -18.5647337,-0.3547422 -19.1809574,-0.3469174 -19.1809574,-0.3469174 -19.1956395,-0.346363 -19.2102494,-0.3450876 -19.2247614,-0.3430967 -19.2391497,-0.3403962 -19.2533889,-0.3369917 -19.2674531,-0.3328889 -19.2813168,-0.3280937 -19.2949536,-0.3226119 -19.3082968,-0.3164695 -19.3212999,-0.3096913 -19.3339417,-0.3022927 -19.346201,-0.2942889 -19.3580565,-0.2856952 -19.3694869,-0.276527 -19.3804711,-0.2667994 -19.3909873,-0.2565285 -19.4009846,-0.245763 -19.4104308,-0.2345425 -19.4193122,-0.2228891 -19.427615,-0.2108248 -19.4353255,-0.1983718 -19.4424299,-0.1855522 -19.4489145,-0.1723881 -19.4547655,-0.1589018 -19.4599561,-0.145153 -19.4644698,-0.1311925 -19.4683021,-0.1170457 -19.4714481,-0.1027382 -19.4739032,-0.0882955 -19.4756626,-0.0737431 -19.4767218,-0.0591065 -19.4770759,-0.0444112 -19.4770759,1.2029873 A0.3,0.3 0 0,1 -19.7770759,1.5029873 L-21.5770759,1.5029873 A0.3,0.3 90 0,1 -21.8770759,1.2029873 L-21.8770759,-0.0004563 -21.8770759,-0.0004563 -21.8774443,-0.0154102 -21.8785477,-0.0303178 -21.8803834,-0.0451519 -21.8829487,-0.0598849 -21.8862383,-0.0744799 -21.8902404,-0.0888843 -21.8949465,-0.1030705 -21.9003484,-0.117012 -21.9064356,-0.1306775 -21.9131796,-0.1440049 -21.920562,-0.1569639 -21.9285675,-0.1695317 -21.9371806,-0.1816856 -21.9463859,-0.1934027 -21.956168,-0.2046603 -21.9665116,-0.2154356 -21.9773915,-0.2256971 -21.9887487,-0.2353888 -22.0005562,-0.2444913 -22.0127909,-0.2529893 -22.0254297,-0.2608676 -22.0384499,-0.2681108 -22.0518283,-0.2747036 -22.065542,-0.2806308 -22.0795459,-0.2858694 -22.0937672,-0.290393 -22.1081772,-0.2941959 -22.1227487,-0.2972729 -22.1374544,-0.2996189 -22.1522671,-0.3012289 -22.1671597,-0.3020976 -22.1821048,-0.3022201 -22.1821048,-0.3022201 -22.7121384,-0.2930814 -22.7121384,-0.2930814 -22.7322925,-0.2582188 -22.751932,-0.2226993 -22.7710836,-0.1865513 -22.7897738,-0.1498031 -22.8080294,-0.1124828 -22.8258769,-0.0746189 -22.8433431,-0.0362396 -22.8604545,0.0026269 -22.8937198,0.0817082 -22.9258858,0.1623986 -22.9571657,0.244472 -22.9877726,0.3277021 -23.0179198,0.4118628 -23.0478203,0.4967276 -23.1077339,0.6676652 -23.1381733,0.7532854 -23.1692187,0.8387049 -23.2010831,0.9236975 -23.2339797,1.0080369 -23.2681194,1.0914917 -23.3036768,1.1737541 -23.3408583,1.2546067 -23.3601277,1.2944488 -23.3798866,1.333872 -23.4001629,1.372854 -23.4209844,1.4113727 -23.4423791,1.4494059 -23.4643746,1.4869313 -23.4869988,1.5239268 -23.5102797,1.5603703 -23.534245,1.5962395 -23.5589225,1.6315122 -23.5843402,1.6661664 -23.6105254,1.7001791 -23.6374031,1.7334042 -23.6649171,1.7657421 -23.6930878,1.7971955 -23.7219353,1.8277668 -23.7514798,1.8574585 -23.7817414,1.8862732 -23.8127404,1.9142134 -23.844497,1.9412815 -23.8770313,1.9674802 -23.9103635,1.9928118 -23.9445139,2.017279 -23.9795027,2.0408843 -24.0153499,2.0636301 -24.0520759,2.085519 A1.25,1.25 60 0,1 -25.3020759,2.085519 L-25.3020759,2.085519 -25.3383814,2.0639728 -25.3739892,2.0416506 -25.4089048,2.0185364 -25.443134,1.9946144 -25.4766824,1.9698685 -25.5095556,1.944283 -25.5417593,1.9178417 -25.5732992,1.8905289 -25.6041808,1.8623286 -25.63441,1.8332247 -25.6639922,1.8032015 -25.6928846,1.7722967 -25.7208873,1.7407426 -25.7480021,1.7085782 -25.7742566,1.6758152 -25.7996784,1.6424655 -25.8242953,1.608541 -25.8481349,1.5740533 -25.8712249,1.5390144 -25.8935928,1.5034361 -25.9152664,1.4673302 -25.9362733,1.4307085 -25.9566354,1.3935937 -25.9763429,1.3560719 -25.9954183,1.3181767 -26.0138909,1.2799298 -26.0317898,1.2413529 -26.0491442,1.2024676 -26.0823365,1.1238583 -26.1137014,1.0442749 -26.1434727,0.9638905 -26.171884,0.8828781 -26.199169,0.8014108 -26.2255613,0.7196616 -26.276603,0.55601 -26.3268538,0.3933907 -26.3522347,0.3130143 -26.378088,0.2335291 -26.4046415,0.155134 -26.4321227,0.0780274 -26.4607593,0.0024082 -26.4907789,-0.0715249 -26.5063785,-0.1077972 -26.5224092,-0.1435734 -26.5388995,-0.1788288 -26.5558778,-0.2135384 -26.5558778,-0.2135384 -27.1209599,-0.199628 -27.6849615,-0.185104 -27.6849615,-0.185104 -27.6994622,-0.1843701 -27.7138859,-0.1829374 -27.7282077,-0.1808114 -27.742403,-0.1779974 -27.7564468,-0.1745011 -27.7703143,-0.1703278 -27.7839807,-0.165483 -27.7974195,-0.1599729 -27.8105644,-0.1538239 -27.8233757,-0.1470575 -27.8358326,-0.139688 -27.847914,-0.13173 -27.8595992,-0.1231977 -27.8708671,-0.1141055 -27.8816968,-0.1044679 -27.8920669,-0.0942998 -27.9019272,-0.0836488 -27.9112464,-0.0725526 -27.9200106,-0.0610324 -27.9282059,-0.0491093 -27.9358184,-0.0368047 -27.9428344,-0.0241398 -27.9492398,-0.0111357 -27.9550208,0.0021861 -27.9601505,0.0157669 -27.9646118,0.0295558 -27.9684001,0.0435281 -27.9715105,0.0576587 -27.9739381,0.071923 -27.9756781,0.0862959 -27.9767256,0.1007527 -27.9770759,0.1152684 -27.9770759,1.2029873 A0.3,0.3 0 0,1 -28.2770759,1.5029873 L-30.0770759,1.5029873 A0.3,0.3 90 0,1 -30.3770759,1.2029873 L-30.3770759,0.2040938 -30.3770759,0.2040938 -30.3774542,0.1890297 -30.3785873,0.1740146 -30.3804719,0.1590769 -30.3831051,0.1442449 -30.3864814,0.1295555 -30.3905876,0.1150656 -30.3954139,0.1008045 -30.4009514,0.0867993 -30.4071895,0.0730794 -30.414099,0.059708 -30.4216577,0.0467204 -30.429849,0.0341395 -30.4386561,0.0219882 -30.4480623,0.0102895 -30.4580508,-0.0009337 -30.4686051,-0.0116585 -30.4797001,-0.0218548 -30.4912743,-0.0314664 -30.503298,-0.0404729 -30.515747,-0.0488595 -30.5285971,-0.0566115 -30.5418242,-0.0637138 -30.5554042,-0.0701518 -30.5693127,-0.0759104 -30.5835048,-0.080968 -30.5979064,-0.0852994 -30.6124877,-0.0888994 -30.6272208,-0.0917633 -30.6420777,-0.0938866 -30.6570303,-0.0952648 -30.6720507,-0.0958932 -30.6871108,-0.0957674 -30.6871108,-0.0957674 -31.3077041,-0.0744637 -31.9299215,-0.0520009 -32.55305,-0.0283398 -33.1763766,-0.0034416 -33.7991883,0.0227329 -34.4207719,0.0502228 -34.7308803,0.0644731 -35.0404144,0.079067 -35.3492849,0.0940092 -35.6574028,0.1093046 -35.9646789,0.1249582 -36.271024,0.1409747 -36.5763491,0.1573591 -36.8805651,0.1741163 -37.1835827,0.1912511 -37.4853129,0.2087685 -37.7856665,0.2266732 -38.0849634,0.2449948 -38.3857656,0.2639029 -38.6883919,0.2834425 -38.9926706,0.3036299 -39.2984302,0.3244814 -39.6054988,0.3460132 -39.9137048,0.3682417 -40.2228766,0.3911831 -40.5328425,0.4148537 -40.5328425,0.4148537 -40.5470773,0.4163099 -40.5611976,0.4184599 -40.5751802,0.4212964 -40.5890021,0.4248119 -40.6026401,0.4289989 -40.6160712,0.4338499 -40.6292723,0.4393574 -40.6422042,0.4455058 -40.6548026,0.4522611 -40.6670472,0.4596064 -40.6789202,0.4675259 -40.6904036,0.4760038 -40.7014798,0.4850243 -40.7121308,0.4945715 -40.7223355,0.5046263 -40.732045,0.5151362 -40.74124,0.5260718 -40.7499101,0.5374125 -40.7580449,0.5491375 -40.7656342,0.5612263 -40.7726678,0.5736581 -40.7791351,0.5864122 -40.7850261,0.5994681 -40.7903237,0.6127873 -40.7950088,0.6263125 -40.7990782,0.6400203 -40.802529,0.6538881 -40.8053585,0.6678937 -40.8075641,0.6820146 -40.8091429,0.6962282 -40.8100921,0.7105123 -40.8104092,0.7248444 -40.8104092,1.2029873 A0.3,0.3 0 0,1 -41.1104092,1.5029873 L-42.9104092,1.5029873 A0.3,0.3 90 0,1 -43.2104092,1.2029873 L-43.2104092,1.0136304 -43.2104092,1.0136304 -43.2107729,0.9971878 -43.2118652,0.9807852 -43.2136878,0.9644524 -43.2162423,0.9482192 -43.2195307,0.9321155 -43.2235542,0.9161719 -43.2283081,0.9004391 -43.2337875,0.884957 -43.2399897,0.8697572 -43.2469116,0.8548717 -43.2545504,0.8403322 -43.2628973,0.8261802 -43.2719218,0.8124855 -43.2816091,0.7992843 -43.2919462,0.7866084 -43.3029205,0.7744898 -43.3145192,0.7629606 -43.3267293,0.7520526 -43.3395335,0.7418017 -43.3528564,0.7322832 -43.3666543,0.7235359 -43.3809001,0.715584 -43.395567,0.7084516 -43.4106277,0.7021631 -43.4260554,0.6967426 -43.4418013,0.6922202 -43.4577422,0.688637 -43.4738316,0.6860017 -43.4900332,0.6843197 -43.5063105,0.6835962 -43.5226272,0.6838366 -43.5389469,0.6850464 -43.5389469,0.6850464 -43.8158937,0.714268 -44.0916069,0.7442117 -44.3660272,0.7748925 -44.6390954,0.8063254 -44.9107525,0.8385253 -45.1809392,0.8715072 -45.4495963,0.9052862 -45.7166647,0.939877 -45.9820851,0.9752948 -46.2457985,1.0115545 -46.5077456,1.048671 -46.7678673,1.0866593 -47.0261043,1.1255344 -47.2823975,1.1653113 -47.5366877,1.2060048 -47.7889158,1.2476301 -48.0390225,1.290202 -48.1632618,1.3118476 -48.2869487,1.3337355 -48.4100756,1.3558675 -48.5326352,1.3782456 -48.65462,1.4008715 -48.7760228,1.4237472 -48.896836,1.4468745 -49.0170523,1.4702553 -49.1366643,1.4938915 -49.2556647,1.5177849 -49.3740459,1.5419375 -49.4918006,1.566351 -49.6089214,1.5910274 -49.7254009,1.6159685 -49.8412317,1.6411762 -49.9564064,1.6666523 -50.0708811,1.6923894 -50.1844912,1.7183472 -50.2972213,1.744522 -50.4090757,1.7709152 -50.5200588,1.7975281 -50.6301748,1.824362 -50.739428,1.8514182 -50.8478227,1.878698 -50.9553633,1.9062028 -51.062054,1.9339338 -51.1678991,1.9618924 -51.272903,1.9900798 -51.3770699,2.0184974 -51.4804041,2.0471465 -51.5829099,2.0760284 -51.6845917,2.1051445 -51.7854536,2.1344959 -51.8855001,2.1640842 -51.9847355,2.1939104 -52.0831639,2.2239761 -52.1807898,2.2542824 -52.2776174,2.2848307 -52.373651,2.3156224 -52.4688949,2.3466586 -52.5633534,2.3779408 -52.6570309,2.4094702 -52.7499316,2.4412482 -52.8420598,2.473276 -52.9334198,2.5055551 -53.0240159,2.5380866 -53.1138525,2.5708719 -53.2029338,2.6039124 -53.291264,2.6372092 -53.3788476,2.6707639 -53.4656888,2.7045775 -53.551792,2.7386516 -53.6371613,2.7729873 -53.7218012,2.807586 -53.8057158,2.8424491 -53.8889096,2.8775777 -53.9713868,2.9129733 -54.0531517,2.9486371 -54.1342086,2.9845704 -54.2145618,3.0207747 -54.2942156,3.0572511 -54.3731744,3.094001 -54.4514423,3.1310257 -54.5290237,3.1683265 -54.605923,3.2059047 -54.6821444,3.2437617 -54.7576921,3.2818988 -54.8325706,3.3203172 -54.9067841,3.3590183 -54.9803368,3.3980033 -55.0532332,3.4372737 -55.1254904,3.4768379 -55.2687683,3.5572415 -55.4105618,3.6394847 -55.4808929,3.6813095 -55.550842,3.7236103 -55.6204056,3.7663923 -55.68958,3.8096609 -55.7583616,3.8534214 -55.8267468,3.8976791 -55.8947321,3.9424395 -55.9623137,3.9877078 -56.029488,4.0334893 -56.0962515,4.0797894 -56.1626005,4.1266135 -56.2285315,4.1739668 -56.2940408,4.2218547 -56.3591247,4.2702826 -56.4237798,4.3192557 -56.4880023,4.3687794 -56.5517887,4.418859 -56.6151353,4.4694999 -56.6780385,4.5207074 -56.7404947,4.5724869 -56.8025004,4.6248436 -56.8640518,4.6777829 -56.9251454,4.7313102 -56.9857775,4.7854307 -57.0459446,4.8401498 -57.1056431,4.8954729 -57.1648692,4.9514053 -57.2236195,5.0079522 -57.2818902,5.0651191 -57.3396778,5.1229113 -57.3969787,5.1813341 -57.4537892,5.2403928 -57.5101058,5.3000929 -57.5659247,5.3604395 -57.6212425,5.4214381 -57.6760536,5.4830917 -57.730278,5.5453106 -57.7838768,5.608049 -57.8368529,5.6713102 -57.8892092,5.7350978 -57.9409485,5.7994151 -57.9920737,5.8642657 -58.0425876,5.929653 -58.0924931,5.9955804 -58.141793,6.0620514 -58.1904901,6.1290695 -58.2385874,6.196638 -58.2860876,6.2647605 -58.3329937,6.3334404 -58.3793084,6.4026812 -58.4250346,6.4724863 -58.4701752,6.5428591 -58.514733,6.6138031 -58.5587108,6.6853219 -58.6021115,6.7574187 -58.644938,6.8300972 -58.6871931,6.9033606 -58.7288797,6.9772126 -58.7700005,7.0516564 -58.8105586,7.1266957 -58.8505566,7.2023338 -58.8899974,7.2785742 -58.928884,7.3554204 -58.9672191,7.4328757 -59.0050056,7.5109437 -59.0422464,7.5896278 -59.0789442,7.6689315 -59.115102,7.7488582 -59.1507226,7.8294113 -59.1858088,7.9105944 -59.2203636,7.9924109 -59.2543896,8.0748641 -59.2878899,8.1579577 -59.3208672,8.241695 -59.3533244,8.3260794 -59.3852643,8.4111145 -59.4166898,8.4968037 -59.4476037,8.5831505 -59.478009,8.6701582 -59.5079109,8.7578382 -59.5373336,8.8462612 -59.566283,8.9354483 -59.5947597,9.0254054 -59.6227647,9.1161383 -59.6502985,9.2076529 -59.6773619,9.2999553 -59.7039558,9.3930512 -59.7300808,9.4869467 -59.7557377,9.5816475 -59.7809273,9.6771597 -59.8056502,9.773489 -59.8299073,9.8706415 -59.8536993,9.968623 -59.8770269,10.0674395 -59.8998909,10.1670968 -59.922292,10.2676009 -59.9442311,10.3689577 -59.9657087,10.471173 -59.9867258,10.5742528 -60.0072829,10.678203 -60.027381,10.7830294 -60.0470207,10.8887381 -60.0662027,10.9953349 -60.0849279,11.1028258 -60.1031969,11.2112165 -60.1210106,11.3205131 -60.1383697,11.4307215 -60.1552748,11.5418475 -60.1717269,11.653897 -60.1877265,11.7668761 -60.2032745,11.8807905 -60.2183717,11.9956461 -60.2330187,12.111449 -60.2472163,12.228205 -60.2609652,12.34592 -60.2742663,12.4645999 -60.2871202,12.5842507 -60.2995278,12.7048781 -60.3114897,12.8264882 -60.3230067,12.9490869 -60.3340795,13.07268 -60.344709,13.1972735 -60.3548958,13.3228732 -60.3646407,13.4494852 -60.3739444,13.5771152 -60.3828077,13.7057692 -60.3912314,13.8354532 -60.3992162,13.9661729 -60.4067628,14.0979344 -60.413872,14.2307434 -60.4205446,14.3646061 -60.4267812,14.4995281 -60.4325827,14.6355156 -60.4379497,14.7725742 -60.4428831,14.9107101 -60.4473836,15.049929 -60.4514519,15.1902369 -60.4550888,15.3316397 -60.458295,15.4741434 -60.4610713,15.6177537 -60.4634184,15.7624766 -60.4653371,15.9083181 -60.4668281,16.0552839 -60.4678922,16.2033802 -60.4685301,16.3526126 -60.4687425,16.5029873 -60.4687425,16.5029873 -60.4685747,16.6365298 -60.4680707,16.7691756 -60.4672303,16.9009286 -60.4660527,17.0317929 -60.4645377,17.1617724 -60.4626846,17.2908712 -60.460493,17.4190932 -60.4579623,17.5464425 -60.4550922,17.672923 -60.451882,17.7985388 -60.4483314,17.9232939 -60.4444397,18.0471922 -60.4402065,18.1702377 -60.4356314,18.2924345 -60.4307138,18.4137866 -60.4254532,18.5342979 -60.4198491,18.6539724 -60.4139011,18.7728142 -60.4076086,18.8908272 -60.4009711,19.0080155 -60.3939883,19.124383 -60.3866594,19.2399338 -60.3789842,19.3546718 -60.370962,19.4686011 -60.3625924,19.5817256 -60.3538749,19.6940493 -60.344809,19.8055763 -60.3353941,19.9163105 -60.3256299,20.026256 -60.3155158,20.1354167 -60.3050513,20.2437967 -60.2942359,20.3513999 -60.2830691,20.4582303 -60.2715505,20.564292 -60.2596795,20.6695889 -60.2474556,20.774125 -60.2348784,20.8779044 -60.2219474,20.980931 -60.208662,21.0832088 -60.1950218,21.1847419 -60.1810262,21.2855342 -60.1666749,21.3855898 -60.1519672,21.4849126 -60.1369027,21.5835066 -60.1214809,21.6813759 -60.1057013,21.7785243 -60.0895634,21.874956 -60.0730668,21.970675 -60.0562108,22.0656852 -60.0389951,22.1599906 -60.0214191,22.2535952 -60.0034823,22.3465031 -59.9851843,22.4387182 -59.9665246,22.5302445 -59.9475026,22.621086 -59.9281178,22.7112468 -59.9083699,22.8007308 -59.8882581,22.889542 -59.8677822,22.9776844 -59.8469416,23.0651621 -59.8257357,23.151979 -59.8041642,23.2381391 -59.7822264,23.3236464 -59.759922,23.408505 -59.7372504,23.4927188 -59.7142111,23.5762918 -59.6908036,23.659228 -59.6670274,23.7415314 -59.6428821,23.8232061 -59.6183672,23.9042559 -59.593482,23.984685 -59.5682263,24.0644973 -59.5425994,24.1436969 -59.5166008,24.2222876 -59.4902302,24.3002736 -59.4634869,24.3776587 -59.4363705,24.4544471 -59.4088805,24.5306427 -59.3810164,24.6062495 -59.3527777,24.6812715 -59.3241639,24.7557128 -59.2951745,24.8295772 -59.2359599,24.9758487 -59.1748628,25.1207 -59.1118375,25.2641506 -59.0795906,25.3353489 -59.0468485,25.4061948 -59.0136065,25.4766877 -58.9798603,25.5468268 -58.9456054,25.6166114 -58.9108374,25.6860407 -58.8755518,25.755114 -58.8397442,25.8238307 -58.8034102,25.89219 -58.7665453,25.9601911 -58.729145,26.0278333 -58.691205,26.095116 -58.6527209,26.1620384 -58.613688,26.2285997 -58.5741021,26.2947992 -58.5339587,26.3606363 -58.4932533,26.4261102 -58.4519815,26.4912201 -58.4101388,26.5559653 -58.3677209,26.6203452 -58.3247232,26.684359 -58.2811414,26.7480059 -58.236971,26.8112852 -58.1922075,26.8741963 -58.1468466,26.9367384 -58.1008837,26.9989107 -58.0543144,27.0607126 -58.0071344,27.1221432 -57.9593391,27.183202 -57.9109241,27.2438881 -57.861885,27.3042009 -57.8122173,27.3641396 -57.7619167,27.4237035 -57.7109786,27.4828918 -57.6593985,27.5417039 -57.6071722,27.600139 -57.5542951,27.6581964 -57.5007628,27.7158753 -57.4465709,27.7731751 -57.3917148,27.830095 -57.3362048,27.8866208 -57.2800785,27.9427145 -57.2233352,27.9983759 -57.1659716,28.053607 -57.1079843,28.10841 -57.0493698,28.1627871 -56.990125,28.2167404 -56.9302464,28.270272 -56.8697306,28.3233842 -56.8085744,28.376079 -56.7467743,28.4283587 -56.684327,28.4802253 -56.6212292,28.531681 -56.5574775,28.582728 -56.4930685,28.6333683 -56.4279989,28.6836043 -56.3622653,28.7334379 -56.2958645,28.7828715 -56.228793,28.831907 -56.1610474,28.8805467 -56.0926245,28.9287927 -56.0235208,28.9766471 -55.9537331,29.0241122 -55.8832579,29.0711901 -55.8120919,29.1178828 -55.7402318,29.1641926 -55.6676741,29.2101216 -55.5944157,29.255672 -55.520453,29.3008459 -55.4457827,29.3456454 -55.3704016,29.3900728 -55.2943062,29.4341301 -55.2174931,29.4778195 -55.1399591,29.5211432 -55.0617007,29.5641033 -54.9827147,29.6067019 -54.9029976,29.6489413 -54.8225461,29.6908235 -54.7413569,29.7323507 -54.6594266,29.7735251 -54.5767518,29.8143488 -54.4933293,29.8548239 -54.4091555,29.8949527 -54.3242273,29.9347372 -54.2385412,29.9741796 -54.1520938,30.0132821 -54.0648355,30.0520673 -53.9767108,30.0905586 -53.8877131,30.1287572 -53.797836,30.1666644 -53.7070728,30.2042812 -53.6154171,30.2416088 -53.5228622,30.2786484 -53.4294015,30.3154012 -53.3350286,30.3518683 -53.2397369,30.3880509 -53.1435198,30.4239501 -53.0463707,30.4595671 -52.9482831,30.4949031 -52.8492505,30.5299592 -52.7492663,30.5647366 -52.6483238,30.5992365 -52.5464167,30.63346 -52.4435382,30.6674083 -52.3396819,30.7010826 -52.2348412,30.734484 -52.1290096,30.7676136 -52.0221804,30.8004728 -51.9143471,30.8330625 -51.8055032,30.865384 -51.6956421,30.8974384 -51.5847572,30.9292269 -51.4728421,30.9607508 -51.35989,30.992011 -51.2458946,31.0230088 -51.1308491,31.0537454 -51.0147471,31.0842219 -50.897582,31.1144395 -50.7793473,31.1443994 -50.6600363,31.1741026 -50.5396426,31.2035505 -50.4181595,31.232744 -50.2955805,31.2616845 -50.1718991,31.2903731 -50.0471087,31.3188109 -49.9212027,31.3469991 -49.7941746,31.3749388 -49.6660178,31.4026313 -49.5367258,31.4300777 -49.406292,31.4572791 -49.2747098,31.4842368 -49.1419728,31.5109518 -49.0080742,31.5374254 -48.8730077,31.5636586 -48.7367665,31.5896528 -48.5993442,31.615409 -48.4607342,31.6409284 -48.32093,31.6662121 -48.1799249,31.6912614 -48.0377125,31.7160774 -47.8942862,31.7406612 -47.7496393,31.7650141 -47.6037654,31.7891371 -47.4566579,31.8130315 -47.3083103,31.8366985 -47.1587159,31.860139 -47.0078683,31.8833545 -46.8557608,31.9063459 -46.7023869,31.9291145 -46.5477401,31.9516614 -46.3918137,31.9739879 -46.2346013,31.996095 -46.0760963,32.0179839 -45.9162921,32.0396558 -45.7551822,32.0611119 -45.5927599,32.0823532 -45.4290188,32.1033811 -45.2639523,32.1241966 -45.0975539,32.1448009 -44.9298169,32.1651952 -44.7607348,32.1853806 -44.5903011,32.2053583 -44.4185091,32.2251295 -44.2453524,32.2446953 -44.0708244,32.2640569 -43.8949186,32.2832155 -43.7176282,32.3021722 -43.5389469,32.3209281 -43.5389469,32.3209281 -43.5226183,32.3221382 -43.5062681,32.3223776 -43.4899334,32.3216474 -43.4736515,32.3199486 -43.4574918,32.3172888 -43.4415378,32.3136869 -43.425824,32.3091579 -43.4103842,32.3037172 -43.3952787,32.297392 -43.3805967,32.2902323 -43.366364,32.2822665 -43.3526037,32.2735221 -43.3393392,32.2640264 -43.3265935,32.2538068 -43.3143898,32.2428906 -43.3027636,32.2313186 -43.2917793,32.2191717 -43.2814507,32.2064872 -43.2717867,32.1932973 -43.262796,32.1796342 -43.2544872,32.16553 -43.2468692,32.1510168 -43.2399506,32.1361269 -43.2337454,32.120907 -43.2282716,32.1054263 -43.2235293,32.0897169 -43.2195181,32.0738091 -43.2162375,32.0577327 -43.2136868,32.041518 -43.2118655,32.0251949 -43.2107732,32.0087936 -43.2104092,31.9923442 -43.2104092,31.8029873 A0.3,0.3 180 0,1 -42.9104092,31.5029873 L-41.1104092,31.5029873 A0.3,0.3 270 0,1 -40.8104092,31.8029873 L-40.8104092,32.2811301 -40.8104092,32.2811301 -40.8100921,32.295463 -40.8091425,32.3097503 -40.8075628,32.3239696 -40.8053553,32.3380985 -40.8025226,32.3521143 -40.799067,32.3659948 -40.7949909,32.3797173 -40.7902968,32.3932594 -40.7849972,32.4065745 -40.7791092,32.4196165 -40.7726422,32.4323643 -40.7656053,32.4447968 -40.758008,32.4568929 -40.7498593,32.4686314 -40.7411685,32.4799912 -40.7319451,32.4909513 -40.7222229,32.5014644 -40.712037,32.5114912 -40.7014043,32.521015 -40.6903416,32.5300192 -40.6788657,32.5384871 -40.6669937,32.5464022 -40.6547422,32.5537477 -40.6421283,32.5605071 -40.6292,32.5666494 -40.6160166,32.5721459 -40.6026011,32.5769887 -40.5889764,32.5811699 -40.5751653,32.5846816 -40.5611907,32.5875159 -40.5470754,32.5896649 -40.5328425,32.5911208 -40.5328425,32.5911208 -40.2228766,32.6147915 -39.9137048,32.6377329 -39.6054988,32.6599614 -39.2984302,32.6814932 -38.9926706,32.7023447 -38.6883919,32.7225321 -38.3857656,32.7420717 -38.0849634,32.7609798 -37.7856665,32.7793013 -37.4853129,32.7972061 -37.1835827,32.8147234 -36.8805651,32.8318582 -36.5763491,32.8486154 -36.271024,32.8649998 -35.9646789,32.8810164 -35.6574028,32.8966699 -35.3492849,32.9119654 -35.0404144,32.9269076 -34.7308803,32.9415014 -34.4207719,32.9557518 -33.7991883,32.9832416 -33.1763766,33.0094161 -32.55305,33.0343144 -31.9299215,33.0579754 -31.3077041,33.0804383 -30.6871108,33.101742 -30.6871108,33.101742 -30.6720425,33.1018676 -30.6569981,33.1012372 -30.6420058,33.0998528 -30.6270941,33.0977165 -30.6123002,33.0948326 -30.5976814,33.0912124 -30.5832673,33.0868645 -30.5690852,33.0817973 -30.555165,33.0760201 -30.5415708,33.0695603 -30.5283387,33.0624387 -30.5154919,33.0546712 -30.5030541,33.0462739 -30.4910485,33.0372626 -30.4794988,33.0276533 -30.4684284,33.0174621 -30.4578682,33.0067129 -30.4478765,32.9954653 -30.4384745,32.9837483 -30.4296777,32.9715857 -30.4215019,32.9590009 -30.4139626,32.9460178 -30.4070755,32.9326599 -30.4008562,32.918951 -30.3953281,32.9049355 -30.3905185,32.8906864 -30.3864339,32.8762333 -30.3830796,32.8616039 -30.3804612,32.8468261 -30.3785841,32.8319278 -30.3774538,32.8169367 -30.3770759,32.8018807 -30.3770759,31.8029873 A0.3,0.3 180 0,1 -30.0770759,31.5029873 L-28.2770759,31.5029873 A0.3,0.3 270 0,1 -27.9770759,31.8029873 L-27.9770759,32.8907061 -27.9770759,32.8907061 -27.9767256,32.9052224 -27.9756778,32.9196808 -27.9739374,32.9340564 -27.9715088,32.9483244 -27.9683969,32.9624597 -27.9646063,32.9764376 -27.9601416,32.990233 -27.955008,33.00382 -27.9492287,33.0171343 -27.9428246,33.030133 -27.9358093,33.0427947 -27.9281966,33.0550981 -27.9199999,33.0670217 -27.9112328,33.0785442 -27.901909,33.0896441 -27.8920423,33.1002997 -27.8816763,33.1104616 -27.8708501,33.1200944 -27.8595843,33.1291837 -27.8478995,33.1377146 -27.8358166,33.1456726 -27.8233563,33.1530429 -27.8105391,33.159811 -27.7973861,33.1659621 -27.7839534,33.171468 -27.7702939,33.176309 -27.7564324,33.1804796 -27.7423937,33.1839741 -27.7282024,33.1867868 -27.7138835,33.1889123 -27.6994616,33.1903447 -27.6849615,33.1910786 -27.6849615,33.1910786 -27.1413635,33.2050885 -26.5967635,33.2185275 -26.5967635,33.2185275 -26.5784146,33.1835104 -26.5604884,33.1479412 -26.542961,33.1118451 -26.5258086,33.0752476 -26.492533,33.0006501 -26.4604706,32.9243519 -26.4294303,32.8465562 -26.3992212,32.7674662 -26.3696522,32.6872852 -26.3405323,32.6062164 -26.2828755,32.4422284 -26.2247227,32.2771281 -26.1949828,32.194669 -26.1645457,32.1125414 -26.1332205,32.0309487 -26.1008162,31.9500941 -26.0671602,31.8702215 -26.0320894,31.7915815 -25.995405,31.7143348 -25.9763952,31.6762837 -25.9569071,31.6386406 -25.9369158,31.6014254 -25.9163962,31.5646579 -25.8953234,31.5283582 -25.8736725,31.492546 -25.8514185,31.4572412 -25.8285363,31.4224637 -25.8050012,31.3882335 -25.780788,31.3545703 -25.7558719,31.3214942 -25.7302573,31.2890614 -25.7040466,31.2574367 -25.6772354,31.2266357 -25.6498057,31.1966563 -25.6217393,31.167496 -25.5930181,31.1391528 -25.563624,31.1116243 -25.533539,31.0849082 -25.5027449,31.0590024 -25.4712236,31.0339045 -25.4389571,31.0096123 -25.4059271,30.9861236 -25.3721156,30.963436 -25.3375046,30.9415474 -25.3020759,30.9204555 A1.25,1.25 240 0,1 -24.0520759,30.9204555 L-24.0520759,30.9204555 -24.0143425,30.9428736 -23.9773992,30.966108 -23.9412369,30.9901744 -23.9058467,31.0150886 -23.8712197,31.0408661 -23.8373468,31.0675227 -23.804219,31.0950741 -23.7718276,31.1235359 -23.7401633,31.1529238 -23.7092174,31.1832536 -23.6789808,31.2145409 -23.6494446,31.2468014 -23.6206141,31.2800337 -23.5926949,31.3139805 -23.5657318,31.348536 -23.5396922,31.3836811 -23.5145437,31.4193965 -23.4902538,31.455663 -23.4667901,31.4924615 -23.44412,31.5297728 -23.4222112,31.5675778 -23.4010311,31.6058572 -23.3805473,31.6445918 -23.3607273,31.6837626 -23.3415386,31.7233503 -23.3229564,31.763319 -23.3049587,31.8036229 -23.2875137,31.8442365 -23.2541531,31.9262908 -23.2226181,32.0092786 -23.1926525,32.0929968 -23.1639996,32.1772418 -23.136403,32.2618106 -23.1096064,32.3464997 -23.057387,32.5154257 -23.0314514,32.599256 -23.00529,32.6823934 -22.9786462,32.7646347 -22.9512589,32.8457939 -22.9228574,32.9257009 -22.8931827,33.0041238 -22.8777871,33.0427052 -22.8619763,33.0808274 -22.8457179,33.1184611 -22.8289798,33.1555767 -22.8117295,33.1921449 -22.7939348,33.2281364 -22.7755634,33.2635216 -22.7565829,33.2982713 -22.7565829,33.2982713 -22.1821048,33.3081947 -22.1821048,33.3081947 -22.1671508,33.3080719 -22.1522322,33.3072005 -22.1373768,33.3055831 -22.1226123,33.3032222 -22.1079801,33.3001236 -22.0935325,33.2962993 -22.0792965,33.2917576 -22.0652986,33.2865072 -22.051577,33.2805619 -22.0381939,33.273951 -22.025175,33.2666918 -22.0125426,33.2588003 -22.0003193,33.2502922 -21.9885275,33.2411837 -21.9771899,33.2314906 -21.9663289,33.221229 -21.9559837,33.2104329 -21.9462043,33.1991574 -21.9370064,33.1874266 -21.9284046,33.1752637 -21.9204136,33.162692 -21.9130482,33.1497346 -21.9063229,33.1364149 -21.9002525,33.1227559 -21.8948619,33.1088094 -21.8901736,33.0946391 -21.8861926,33.0802722 -21.8829241,33.0657355 -21.8803731,33.0510561 -21.8785447,33.0362609 -21.8774439,33.0213769 -21.8770759,33.0064309 -21.8770759,31.8029873 A0.3,0.3 180 0,1 -21.5770759,31.5029873 L-19.7770759,31.5029873 A0.3,0.3 270 0,1 -19.4770759,31.8029873 L-19.4770759,33.0503857 -19.4770759,33.0503857 -19.4767218,33.0650809 -19.4756627,33.0797172 -19.4739033,33.0942691 -19.4714484,33.1087111 -19.4683027,33.1230177 -19.4644709,33.1371634 -19.4599578,33.1511227 -19.4547681,33.1648701 -19.4489168,33.1783576 -19.4424318,33.1915231 -19.435327,33.2043438 -19.4276161,33.2167976 -19.419313,33.2288625 -19.4104314,33.2405164 -19.400985,33.2517372 -19.3909876,33.2625027 -19.3804713,33.2727738 -19.3694869,33.2825015 -19.358056,33.2916701 -19.3461999,33.3002642 -19.3339399,33.3082684 -19.321297,33.3156675 -19.3082926,33.3224461 -19.2949478,33.3285889 -19.281312,33.33407 -19.2674496,33.3388646 -19.2533864,33.3429669 -19.2391481,33.3463711 -19.2247605,33.3490714 -19.210249,33.3510622 -19.1956394,33.3523376 -19.1809574,33.352892 -19.1809574,33.352892 -18.5647337,33.3607167 -17.9489419,33.3681161 -17.3339163,33.375103 -16.7199912,33.3816905 -16.1075008,33.3878917 -15.496609,33.3937211 -14.884957,33.3992143 -14.2718795,33.4043879 -13.6576193,33.4092496 -13.0424191,33.413807 -11.8101698,33.4220403 -10.5770737,33.4291495 -9.3450728,33.4351966 -9.3450728,33.4351966 -9.3301768,33.4348883 -9.3153255,33.4338312 -9.3005461,33.4320282 -9.285866,33.4294823 -9.2713323,33.4262015 -9.2569914,33.4221976 -9.2428692,33.4174795 -9.2289918,33.412056 -9.2154111,33.4059488 -9.202177,33.3991843 -9.1893111,33.3917789 -9.176835,33.3837488 -9.1647705,33.3751104 -9.1531393,33.3658798 -9.1419631,33.3560735 -9.1312638,33.3457079 -9.1210915,33.3348314 -9.1114818,33.3234874 -9.1024485,33.3116991 -9.0940052,33.2994896 -9.0861657,33.2868819 -9.0789437,33.2738991 -9.0723529,33.2605644 -9.0664072,33.2469011 -9.061133,33.2329688 -9.056547,33.2188197 -9.0526538,33.2044803 -9.0494581,33.1899769 -9.0469645,33.1753356 -9.0451776,33.1605829 -9.0441021,33.1457451 -9.0437425,33.1308484 -9.0437425,31.8029873 A0.3,0.3 180 0,1 -8.7437425,31.5029873 L-6.9437425,31.5029873 A0.3,0.3 270 0,1 -6.6437425,31.8029873 L-6.6437425,33.1411861 -6.6437425,33.1411861 -6.6433862,33.1560334 -6.642319,33.170838 -6.640543,33.1855734 -6.6380608,33.2002134 -6.634877,33.2147216 -6.6310018,33.2290505 -6.6264424,33.2431737 -6.6212058,33.2570658 -6.6153026,33.2706934 -6.6087585,33.2839978 -6.6015888,33.2969522 -6.5938073,33.309534 -6.5854278,33.3217204 -6.5764639,33.3334887 -6.5669293,33.3448161 -6.5568379,33.3556801 -6.5462133,33.3660485 -6.5351114,33.3758653 -6.5235573,33.3851107 -6.5115726,33.3937686 -6.4991787,33.401823 -6.4863973,33.4092581 -6.4732498,33.4160576 -6.4597577,33.4222058 -6.4459644,33.4276783 -6.431943,33.4324462 -6.4177216,33.436503 -6.4033266,33.4398426 -6.3887842,33.4424592 -6.374121,33.4443469 -6.3593632,33.4454999 -6.3445372,33.4459121 -6.3445372,33.4459121 -4.9700018,33.4490956 -3.5946166,33.4512956 -2.2185305,33.4525738 -1.5308493,33.4528851 -0.8437425,33.4529873 -0.8437425,33.4529873 -0.8288703,33.452612 -0.814066,33.4514902 -0.7993561,33.449628 -0.7847672,33.4470313 -0.7703259,33.4437062 -0.7560586,33.4396588 -0.741992,33.4348951 -0.7281531,33.4294213 -0.714611,33.4232642 -0.701417,33.4164515 -0.6885926,33.4089995 -0.6761593,33.4009246 -0.6641384,33.3922432 -0.6525515,33.3829719 -0.6414201,33.3731269 -0.6307665,33.3627257 -0.6206435,33.3518207 -0.6110821,33.3404512 -0.6020957,33.3286404 -0.5936977,33.3164115 -0.5859016,33.3037874 -0.5787209,33.2907914 -0.5721688,33.2774465 -0.5662592,33.2637763 -0.5610186,33.2498424 -0.5564622,33.2356939 -0.5525944,33.2213567 -0.5494198,33.2068571 -0.5469427,33.1922212 -0.5451678,33.1774752 -0.5440996,33.1626452 -0.5437425,33.1477572 -0.5437425,31.8029873 A0.3,0.3 180 0,1 -0.2437425,31.5029873 L1.5562575,31.5029873 A0.3,0.3 270 0,1 1.8562575,31.8029873 L1.8562575,33.1469881 1.8562575,33.1469881 1.8566145,33.1618794 1.8576841,33.1767279 1.859464,33.1915071 1.8619516,33.2061904 1.8651426,33.2207424 1.8690268,33.2351147 1.8735969,33.2492805 1.8788458,33.2632141 1.8847639,33.276884 1.8913258,33.2902311 1.8985152,33.3032265 1.9063184,33.3158474 1.9147217,33.3280708 1.9237113,33.3398738 1.9332734,33.3512336 1.9433944,33.3621272 1.9540524,33.3725242 1.9651911,33.3823675 1.9767837,33.3916355 1.9888086,33.400312 2.0012442,33.4083808 2.0140688,33.4158258 2.0272608,33.4226307 2.0407986,33.4287793 2.0546403,33.434248 2.0687108,33.4390067 2.082981,33.4430485 2.0974242,33.4463674 2.112014,33.4489575 2.1267238,33.4508129 2.1415269,33.4519277 2.1563968,33.4522959 2.1563968,33.4522959 4.6178164,33.4505957 5.8472148,33.4493179 6.4608217,33.4485648 7.0734092,33.447733 7.6854156,33.4468192 8.2986265,33.4458179 8.9129042,33.4447258 9.5279654,33.4435397 11.9903794,33.4377942 11.9903794,33.4377942 12.0052344,33.4373795 12.0200197,33.4362193 12.0347089,33.4343195 12.0492754,33.4316863 12.0636929,33.4283259 12.0779348,33.4242443 12.0919748,33.4194477 12.1057854,33.4139425 12.1192952,33.4077572 12.1324562,33.4009181 12.1452472,33.3934418 12.1576467,33.3853445 12.1696336,33.376643 12.1811866,33.3673534 12.1922842,33.3574925 12.2029038,33.3470779 12.2129918,33.3361634 12.2225193,33.3247869 12.2314731,33.3129713 12.2398399,33.3007397 12.2476063,33.2881152 12.2547592,33.2751207 12.2612853,33.2617794 12.2671709,33.2481151 12.2723893,33.23419 12.2769263,33.2200515 12.2807775,33.2057256 12.2839385,33.1912384 12.2864047,33.1766157 12.2881718,33.1618837 12.2892353,33.1470683 12.2895908,33.1321956 12.2895908,31.8029873 A0.3,0.3 180 0,1 12.5895908,31.5029873 L14.3895908,31.5029873 A0.3,0.3 270 0,1 14.6895908,31.8029873 L14.6895908,33.1226507 14.6895908,33.1226507 14.6899488,33.1375815 14.6910213,33.1524692 14.6928059,33.1672872 14.6953003,33.1820089 14.6985001,33.1965995 14.7023951,33.2110098 14.706978,33.2252126 14.7122416,33.2391819 14.718177,33.2528878 14.7247589,33.2662708 14.7319705,33.2793003 14.7397979,33.2919532 14.7482272,33.3042063 14.7572448,33.3160367 14.7668367,33.3274212 14.7769891,33.3383368 14.7876818,33.3487543 14.7988581,33.3586159 14.8104898,33.3678985 14.822555,33.3765858 14.835032,33.3846615 14.8478991,33.3921091 14.8611344,33.3989124 14.8747162,33.405055 14.888604,33.4105137 14.9027207,33.4152576 14.9170366,33.4192796 14.9315247,33.4225736 14.9461583,33.4251339 14.9609107,33.4269545 14.975755,33.4280293 14.9906644,33.4283526 14.9906644,33.4283526 15.9431366,33.4247148 15.9431366,33.4247148 15.9667884,33.3906728 15.9897507,33.3557766 16.0120553,33.3200597 16.0337338,33.2835557 16.0548179,33.2462982 16.0753393,33.2083206 16.0953297,33.1696565 16.1148208,33.1303394 16.1338444,33.0904029 16.152432,33.0498804 16.1706155,33.0088055 16.1884264,32.9672117 16.2230576,32.8826016 16.2565791,32.7963183 16.2892445,32.70863 16.3213074,32.619805 16.3530213,32.5301115 16.3846398,32.4398177 16.448605,32.258502 16.4814588,32.1680167 16.5152314,32.0780039 16.5501766,31.9887319 16.5865418,31.9004827 16.6245339,31.8136208 16.6442183,31.770787 16.6644058,31.7283864 16.6851293,31.6864455 16.7064221,31.6449905 16.7283172,31.604048 16.7508477,31.5636442 16.7740467,31.5238055 16.7979473,31.4845583 16.8225827,31.4459289 16.8479858,31.4079438 16.8741898,31.3706292 16.9012279,31.3340117 16.9291249,31.2981275 16.9577699,31.2631733 16.9871356,31.2292138 17.017246,31.1962461 17.0481252,31.164267 17.079797,31.1332737 17.1122856,31.1032632 17.145615,31.0742325 17.1798091,31.0461785 17.2148919,31.0190983 17.2508875,30.9929889 17.2878198,30.9678473 17.3257129,30.9436705 17.3645908,30.9204555 A1.25,1.25 240 0,1 18.6145908,30.9204555 L18.6145908,30.9204555 18.6539666,30.9438788 18.6925422,30.968232 18.7303232,30.9935367 18.7673152,31.0198146 18.8035236,31.0470875 18.8389541,31.0753772 18.8736121,31.1047052 18.9075032,31.1350934 18.9406328,31.1665634 18.9729837,31.1991131 19.0043237,31.2324978 19.0346184,31.2666396 19.0639016,31.3015277 19.0922072,31.3371513 19.1195692,31.3734996 19.1460214,31.4105619 19.1715979,31.4483274 19.1963325,31.4867854 19.2202591,31.5259249 19.243366,31.5656548 19.2656492,31.6058815 19.2871462,31.6465781 19.3078948,31.6877177 19.3279325,31.7292733 19.347297,31.7712181 19.366026,31.8135252 19.3841571,31.8561676 19.401728,31.8991184 19.4353399,31.9858377 19.4671627,32.0734678 19.4974978,32.1617933 19.5266463,32.250599 19.5549096,32.3396696 19.582567,32.4287161 19.6371793,32.6055606 19.6647208,32.6928647 19.69281,32.779094 19.7217404,32.8640018 19.751805,32.947341 19.7673544,32.9883452 19.7832972,33.0288647 19.7996703,33.0688686 19.8165102,33.108326 19.8338536,33.147206 19.8517372,33.1854779 19.8702514,33.223218 19.8895513,33.2606008 19.9096858,33.2975636 19.9307003,33.3340362 19.9526403,33.3699484 19.9755513,33.4052299 19.9755513,33.4052299 20.49136,33.4021963 20.49136,33.4021963 20.5061904,33.401733 20.520949,33.4005258 20.5356095,33.398581 20.5501455,33.3959047 20.5645309,33.3925031 20.5787392,33.3883823 20.5927441,33.3835486 20.6065176,33.3780089 20.6199855,33.3717932 20.6331042,33.3649266 20.6458528,33.3574255 20.65821,33.3493062 20.6701547,33.3405853 20.6816657,33.3312791 20.6927219,33.3214042 20.7033001,33.3109791 20.7133459,33.3000589 20.7228329,33.2886795 20.7317478,33.2768636 20.7400776,33.2646344 20.7478091,33.2520147 20.7549292,33.2390274 20.7614249,33.2256957 20.7672825,33.2120434 20.7724753,33.1981336 20.7769899,33.184012 20.780822,33.1697043 20.7839671,33.1552364 20.7864209,33.1406342 20.788179,33.1259234 20.7892371,33.11113 20.7895908,33.0962797 20.7895908,31.8029873 A0.3,0.3 180 0,1 21.0895908,31.5029873 L22.8895908,31.5029873 A0.3,0.3 270 0,1 23.1895908,31.8029873 L23.1895908,33.0755752 23.1895908,33.0755752 23.1899503,33.0905529 23.191027,33.1054872 23.1928186,33.1203514 23.1953229,33.1351186 23.1985355,33.1497547 23.2024462,33.1642096 23.2070475,33.1784555 23.2123322,33.1924662 23.218292,33.2062129 23.2249021,33.2196368 23.2321445,33.2327045 23.2400053,33.2453927 23.2484704,33.2576781 23.2575261,33.2695375 23.2671584,33.2809476 23.2773532,33.2918852 23.2880918,33.3023223 23.2993175,33.3122007 23.3110001,33.3214955 23.3231176,33.3301901 23.335648,33.3382681 23.3485694,33.3457131 23.3618597,33.3525084 23.3754972,33.3586377 23.3894423,33.3640781 23.4036165,33.3687982 23.4179887,33.3727903 23.4325319,33.3760487 23.4472191,33.3785675 23.4620232,33.3803406 23.4769172,33.3813623 23.4918739,33.3816267 23.4918739,33.3816267 24.1059653,33.3767331 24.7214815,33.3715678 25.9544566,33.3603824 26.5707494,33.3543427 27.186135,33.3479919 27.8000303,33.34132 28.4118524,33.3343174 29.0211934,33.326972 29.3262454,33.323149 29.6321225,33.3192142 29.9387182,33.3151654 30.2459257,33.311 30.8617504,33.3023097 31.4787439,33.2931239 32.0960537,33.2834232 32.7128273,33.273188 33.328212,33.2623989 33.328212,33.2623989 33.3429437,33.2617629 33.3575965,33.2603914 33.3721447,33.2582907 33.3865625,33.255467 33.4008242,33.2519268 33.4149041,33.2476762 33.4287764,33.2427218 33.4424081,33.2370729 33.4557221,33.2307633 33.4686869,33.2238134 33.4812819,33.2162396 33.4934865,33.2080581 33.50528,33.1992853 33.516642,33.1899374 33.5275517,33.1800307 33.5379836,33.1695869 33.5478829,33.1586636 33.5572294,33.1472905 33.5660104,33.1354904 33.5742133,33.1232858 33.5818254,33.1106992 33.5888341,33.0977532 33.5952267,33.0844705 33.6009896,33.0708758 33.6060963,33.0570338 33.6105357,33.0429849 33.6143036,33.0287545 33.6173958,33.0143678 33.6198082,32.9998501 33.6215365,32.9852266 33.6225765,32.9705225 33.6229241,32.9557633 33.6229241,31.8029873 A0.3,0.3 180 0,1 33.9229241,31.5029873 L35.7229241,31.5029873 A0.3,0.3 270 0,1 36.0229241,31.8029873 L36.0229241,32.8932154 36.0229241,32.8932154 36.0232896,32.9083632 36.0243845,32.9234663 36.0262062,32.9384971 36.0287523,32.9534281 36.0320192,32.9682269 36.0359963,32.982841 36.0406753,32.9972394 36.0460487,33.0113954 36.0521091,33.0252822 36.0588357,33.0388474 36.066205,33.0520452 36.0742025,33.0648518 36.0828137,33.0772432 36.0920242,33.0891956 36.1018193,33.1006849 36.1121848,33.1116872 36.1231045,33.1221775 36.1345249,33.1320991 36.1464071,33.1414191 36.1587283,33.1501205 36.1714657,33.1581865 36.1845965,33.1656003 36.1980978,33.1723448 36.2119468,33.1784033 36.2261079,33.1837543 36.2404973,33.1883648 36.2550798,33.1922261 36.2698273,33.1953325 36.2847119,33.1976783 36.2997054,33.1992579 36.3147797,33.2000655 36.3299068,33.2000954 36.3299068,33.2000954 37.0186239,33.1831293 37.7083547,33.1649517 38.3972721,33.1455031 38.740855,33.1352836 39.0835493,33.124724 39.4252868,33.1138118 39.7678341,33.1024725 40.1114912,33.090673 40.4559405,33.0783994 41.145945,33.0523737 41.4908649,33.0385937 41.8353065,33.0242835 41.8353065,33.0242835 41.8498201,33.0233066 41.8642395,33.0216138 41.87854,33.0192119 41.8926973,33.0161077 41.9066868,33.0123082 41.920484,33.0078202 41.9340645,33.0026506 41.9473981,32.9968089 41.9604125,32.9903285 41.9730761,32.9832304 41.9853696,32.9755307 41.9972737,32.9672455 42.0087689,32.958391 42.0198358,32.9489832 42.0304551,32.9390382 42.0405936,32.928587 42.0502053,32.9176821 42.0592771,32.9063465 42.0677971,32.8946019 42.0757534,32.8824701 42.0831341,32.8699727 42.0899275,32.8571314 42.0961215,32.8439681 42.1017023,32.8305099 42.1066444,32.8168218 42.1109402,32.8029363 42.1145858,32.7888778 42.1175772,32.7746702 42.1199107,32.7603378 42.1215822,32.7459046 42.122588,32.7313948 42.1229241,32.7168325 42.1229241,31.8029873 A0.3,0.3 180 0,1 42.4229241,31.5029873 L44.2229241,31.5029873z"
       transform="matrix(1,0,0,-1,67.3437425,34.5029873)"
       fill="rgb(255,255,255)"
       stroke="rgb(0,0,0)"
       stroke-width="0.0010cm"
       stroke-linecap="round"
       stroke-linejoin="round"
       id="path4"
       style="fill:none;stroke:#000000;stroke-opacity:1;stroke-width:0.1;stroke-dasharray:none" /><path
       d="M34.3479241,0.1029873 a0.475,0.475 0 1,1 0.95,0 a0.475,0.475 0 1,1 -0.95,0z"
       transform="matrix(1,0,0,-1,67.3437425,34.5029873)"
       fill="rgb(255,255,255)"
       stroke="rgb(0,0,0)"
       stroke-width="0.0010cm"
       stroke-linecap="round"
       stroke-linejoin="round"
       id="path6"
       style="fill:none;stroke:#000000;stroke-opacity:1;stroke-width:0.1;stroke-dasharray:none" /><path
       d="M-8.3187425,0.1029873 a0.475,0.475 0 1,1 0.95,0 a0.475,0.475 0 1,1 -0.95,0z"
       transform="matrix(1,0,0,-1,67.3437425,34.5029873)"
       fill="rgb(255,255,255)"
       stroke="rgb(0,0,0)"
       stroke-width="0.0010cm"
       stroke-linecap="round"
       stroke-linejoin="round"
       id="path8"
       style="fill:none;stroke:#000000;stroke-opacity:1;stroke-width:0.1;stroke-dasharray:none" /><path
       d="M-50.9854092,0.1029873 a0.475,0.475 0 1,1 0.95,0 a0.475,0.475 0 1,1 -0.95,0z"
       transform="matrix(1,0,0,-1,67.3437425,34.5029873)"
       fill="rgb(255,255,255)"
       stroke="rgb(0,0,0)"
       stroke-width="0.0010cm"
       stroke-linecap="round"
       stroke-linejoin="round"
       id="path10"
       style="fill:none;stroke:#000000;stroke-opacity:1;stroke-width:0.1;stroke-dasharray:none" /><path
       d="M-42.4854092,32.9029873 a0.475,0.475 0 1,1 0.95,0 a0.475,0.475 0 1,1 -0.95,0z"
       transform="matrix(1,0,0,-1,67.3437425,34.5029873)"
       fill="rgb(255,255,255)"
       stroke="rgb(0,0,0)"
       stroke-width="0.0010cm"
       stroke-linecap="round"
       stroke-linejoin="round"
       id="path12"
       style="fill:none;stroke:#000000;stroke-opacity:1;stroke-width:0.1;stroke-dasharray:none" /><path
       d="M0.1812575,32.9029873 a0.475,0.475 0 1,1 0.95,0 a0.475,0.475 0 1,1 -0.95,0z"
       transform="matrix(1,0,0,-1,67.3437425,34.5029873)"
       fill="rgb(255,255,255)"
       stroke="rgb(0,0,0)"
       stroke-width="0.0010cm"
       stroke-linecap="round"
       stroke-linejoin="round"
       id="path14"
       style="fill:none;stroke:#000000;stroke-opacity:1;stroke-width:0.1;stroke-dasharray:none" /><path
       d="M42.8479241,32.9029873 a0.475,0.475 0 1,1 0.95,0 a0.475,0.475 0 1,1 -0.95,0z"
       transform="matrix(1,0,0,-1,67.3437425,34.5029873)"
       fill="rgb(255,255,255)"
       stroke="rgb(0,0,0)"
       stroke-width="0.0010cm"
       stroke-linecap="round"
       stroke-linejoin="round"
       id="path16"
       style="fill:none;stroke:#000000;stroke-opacity:1;stroke-width:0.1;stroke-dasharray:none" /><path
       d="M34.3479241,32.9029873 a0.475,0.475 0 1,1 0.95,0 a0.475,0.475 0 1,1 -0.95,0z"
       transform="matrix(1,0,0,-1,67.3437425,34.5029873)"
       fill="rgb(255,255,255)"
       stroke="rgb(0,0,0)"
       stroke-width="0.0010cm"
       stroke-linecap="round"
       stroke-linejoin="round"
       id="path18"
       style="fill:none;stroke:#000000;stroke-opacity:1;stroke-width:0.1;stroke-dasharray:none" /><path
       d="M-8.3187425,32.9029873 a0.475,0.475 0 1,1 0.95,0 a0.475,0.475 0 1,1 -0.95,0z"
       transform="matrix(1,0,0,-1,67.3437425,34.5029873)"
       fill="rgb(255,255,255)"
       stroke="rgb(0,0,0)"
       stroke-width="0.0010cm"
       stroke-linecap="round"
       stroke-linejoin="round"
       id="path20"
       style="fill:none;stroke:#000000;stroke-opacity:1;stroke-width:0.1;stroke-dasharray:none" /><path
       d="M-50.9854092,32.9029873 a0.475,0.475 0 1,1 0.95,0 a0.475,0.475 0 1,1 -0.95,0z"
       transform="matrix(1,0,0,-1,67.3437425,34.5029873)"
       fill="rgb(255,255,255)"
       stroke="rgb(0,0,0)"
       stroke-width="0.0010cm"
       stroke-linecap="round"
       stroke-linejoin="round"
       id="path22"
       style="fill:none;stroke:#000000;stroke-opacity:1;stroke-width:0.1;stroke-dasharray:none" /><path
       d="M-42.4854092,0.1029873 a0.475,0.475 0 1,1 0.95,0 a0.475,0.475 0 1,1 -0.95,0z"
       transform="matrix(1,0,0,-1,67.3437425,34.5029873)"
       fill="rgb(255,255,255)"
       stroke="rgb(0,0,0)"
       stroke-width="0.0010cm"
       stroke-linecap="round"
       stroke-linejoin="round"
       id="path24"
       style="fill:none;stroke:#000000;stroke-opacity:1;stroke-width:0.1;stroke-dasharray:none" /><path
       d="M0.1812575,0.1029873 a0.475,0.475 0 1,1 0.95,0 a0.475,0.475 0 1,1 -0.95,0z"
       transform="matrix(1,0,0,-1,67.3437425,34.5029873)"
       fill="rgb(255,255,255)"
       stroke="rgb(0,0,0)"
       stroke-width="0.0010cm"
       stroke-linecap="round"
       stroke-linejoin="round"
       id="path26"
       style="fill:none;stroke:#000000;stroke-opacity:1;stroke-width:0.1;stroke-dasharray:none" /><path
       d="M42.8479241,0.1029873 a0.475,0.475 0 1,1 0.95,0 a0.475,0.475 0 1,1 -0.95,0z"
       transform="matrix(1,0,0,-1,67.3437425,34.5029873)"
       fill="rgb(255,255,255)"
       stroke="rgb(0,0,0)"
       stroke-width="0.0010cm"
       stroke-linecap="round"
       stroke-linejoin="round"
       id="path28"
       style="fill:none;stroke:#000000;stroke-opacity:1;stroke-width:0.1;stroke-dasharray:none" /><path
       d="M21.5145908,0.1029873 a0.475,0.475 0 1,1 0.95,0 a0.475,0.475 0 1,1 -0.95,0z"
       transform="matrix(1,0,0,-1,67.3437425,34.5029873)"
       fill="rgb(255,255,255)"
       stroke="rgb(0,0,0)"
       stroke-width="0.0010cm"
       stroke-linecap="round"
       stroke-linejoin="round"
       id="path30"
       style="fill:none;stroke:#000000;stroke-opacity:1;stroke-width:0.1;stroke-dasharray:none" /><path
       d="M-21.1520759,0.1029873 a0.475,0.475 0 1,1 0.95,0 a0.475,0.475 0 1,1 -0.95,0z"
       transform="matrix(1,0,0,-1,67.3437425,34.5029873)"
       fill="rgb(255,255,255)"
       stroke="rgb(0,0,0)"
       stroke-width="0.0010cm"
       stroke-linecap="round"
       stroke-linejoin="round"
       id="path32"
       style="fill:none;stroke:#000000;stroke-opacity:1;stroke-width:0.1;stroke-dasharray:none" /><path
       d="M-63.8187425,0.1029873 a0.475,0.475 0 1,1 0.95,0 a0.475,0.475 0 1,1 -0.95,0z"
       transform="matrix(1,0,0,-1,67.3437425,34.5029873)"
       fill="rgb(255,255,255)"
       stroke="rgb(0,0,0)"
       stroke-width="0.0010cm"
       stroke-linecap="round"
       stroke-linejoin="round"
       id="path34"
       style="fill:none;stroke:#000000;stroke-opacity:1;stroke-width:0.1;stroke-dasharray:none" /><path
       d="M-29.6520759,32.9029873 a0.475,0.475 0 1,1 0.95,0 a0.475,0.475 0 1,1 -0.95,0z"
       transform="matrix(1,0,0,-1,67.3437425,34.5029873)"
       fill="rgb(255,255,255)"
       stroke="rgb(0,0,0)"
       stroke-width="0.0010cm"
       stroke-linecap="round"
       stroke-linejoin="round"
       id="path36"
       style="fill:none;stroke:#000000;stroke-opacity:1;stroke-width:0.1;stroke-dasharray:none" /><path
       d="M13.0145908,32.9029873 a0.475,0.475 0 1,1 0.95,0 a0.475,0.475 0 1,1 -0.95,0z"
       transform="matrix(1,0,0,-1,67.3437425,34.5029873)"
       fill="rgb(255,255,255)"
       stroke="rgb(0,0,0)"
       stroke-width="0.0010cm"
       stroke-linecap="round"
       stroke-linejoin="round"
       id="path38"
       style="fill:none;stroke:#000000;stroke-opacity:1;stroke-width:0.1;stroke-dasharray:none" /><path
       d="M55.6812575,32.9029873 a0.475,0.475 0 1,1 0.95,0 a0.475,0.475 0 1,1 -0.95,0z"
       transform="matrix(1,0,0,-1,67.3437425,34.5029873)"
       fill="rgb(255,255,255)"
       stroke="rgb(0,0,0)"
       stroke-width="0.0010cm"
       stroke-linecap="round"
       stroke-linejoin="round"
       id="path40"
       style="fill:none;stroke:#000000;stroke-opacity:1;stroke-width:0.1;stroke-dasharray:none" /><path
       d="M21.5145908,32.9029873 a0.475,0.475 0 1,1 0.95,0 a0.475,0.475 0 1,1 -0.95,0z"
       transform="matrix(1,0,0,-1,67.3437425,34.5029873)"
       fill="rgb(255,255,255)"
       stroke="rgb(0,0,0)"
       stroke-width="0.0010cm"
       stroke-linecap="round"
       stroke-linejoin="round"
       id="path42"
       style="fill:none;stroke:#000000;stroke-opacity:1;stroke-width:0.1;stroke-dasharray:none" /><path
       d="M-21.1520759,32.9029873 a0.475,0.475 0 1,1 0.95,0 a0.475,0.475 0 1,1 -0.95,0z"
       transform="matrix(1,0,0,-1,67.3437425,34.5029873)"
       fill="rgb(255,255,255)"
       stroke="rgb(0,0,0)"
       stroke-width="0.0010cm"
       stroke-linecap="round"
       stroke-linejoin="round"
       id="path44"
       style="fill:none;stroke:#000000;stroke-opacity:1;stroke-width:0.1;stroke-dasharray:none" /><path
       d="M-63.8187425,32.9029873 a0.475,0.475 0 1,1 0.95,0 a0.475,0.475 0 1,1 -0.95,0z"
       transform="matrix(1,0,0,-1,67.3437425,34.5029873)"
       fill="rgb(255,255,255)"
       stroke="rgb(0,0,0)"
       stroke-width="0.0010cm"
       stroke-linecap="round"
       stroke-linejoin="round"
       id="path46"
       style="fill:none;stroke:#000000;stroke-opacity:1;stroke-width:0.1;stroke-dasharray:none" /><path
       d="M-29.6520759,0.1029873 a0.475,0.475 0 1,1 0.95,0 a0.475,0.475 0 1,1 -0.95,0z"
       transform="matrix(1,0,0,-1,67.3437425,34.5029873)"
       fill="rgb(255,255,255)"
       stroke="rgb(0,0,0)"
       stroke-width="0.0010cm"
       stroke-linecap="round"
       stroke-linejoin="round"
       id="path48"
       style="fill:none;stroke:#000000;stroke-opacity:1;stroke-width:0.1;stroke-dasharray:none" /><path
       d="M13.0145908,0.1029873 a0.475,0.475 0 1,1 0.95,0 a0.475,0.475 0 1,1 -0.95,0z"
       transform="matrix(1,0,0,-1,67.3437425,34.5029873)"
       fill="rgb(255,255,255)"
       stroke="rgb(0,0,0)"
       stroke-width="0.0010cm"
       stroke-linecap="round"
       stroke-linejoin="round"
       id="path50"
       style="fill:none;stroke:#000000;stroke-opacity:1;stroke-width:0.1;stroke-dasharray:none" /><path
       d="M55.6812575,0.1029873 a0.475,0.475 0 1,1 0.95,0 a0.475,0.475 0 1,1 -0.95,0z"
       transform="matrix(1,0,0,-1,67.3437425,34.5029873)"
       fill="rgb(255,255,255)"
       stroke="rgb(0,0,0)"
       stroke-width="0.0010cm"
       stroke-linecap="round"
       stroke-linejoin="round"
       id="path52"
       style="fill:none;stroke:#000000;stroke-opacity:1;stroke-width:0.1;stroke-dasharray:none" /><path
       d="M-65.2387425,1.0029873 a0.395,0.395 0 1,1 0.79,0 a0.395,0.395 0 1,1 -0.79,0z"
       transform="matrix(1,0,0,-1,67.3437425,34.5029873)"
       fill="rgb(255,255,255)"
       stroke="rgb(0,0,0)"
       stroke-width="0.0010cm"
       stroke-linecap="round"
       stroke-linejoin="round"
       id="path54"
       style="fill:none;stroke:#000000;stroke-opacity:1;stroke-width:0.1;stroke-dasharray:none" /><path
       d="M17.5945908,1.0029873 a0.395,0.395 0 1,1 0.79,0 a0.395,0.395 0 1,1 -0.79,0z"
       transform="matrix(1,0,0,-1,67.3437425,34.5029873)"
       fill="rgb(255,255,255)"
       stroke="rgb(0,0,0)"
       stroke-width="0.0010cm"
       stroke-linecap="round"
       stroke-linejoin="round"
       id="path56"
       style="fill:none;stroke:#000000;stroke-opacity:1;stroke-width:0.1;stroke-dasharray:none" /><path
       d="M57.7612575,1.0029873 a0.395,0.395 0 1,1 0.79,0 a0.395,0.395 0 1,1 -0.79,0z"
       transform="matrix(1,0,0,-1,67.3437425,34.5029873)"
       fill="rgb(255,255,255)"
       stroke="rgb(0,0,0)"
       stroke-width="0.0010cm"
       stroke-linecap="round"
       stroke-linejoin="round"
       id="path58"
       style="fill:none;stroke:#000000;stroke-opacity:1;stroke-width:0.1;stroke-dasharray:none" /><path
       d="M-65.2387425,32.0029873 a0.395,0.395 0 1,1 0.79,0 a0.395,0.395 0 1,1 -0.79,0z"
       transform="matrix(1,0,0,-1,67.3437425,34.5029873)"
       fill="rgb(255,255,255)"
       stroke="rgb(0,0,0)"
       stroke-width="0.0010cm"
       stroke-linecap="round"
       stroke-linejoin="round"
       id="path60"
       style="fill:none;stroke:#000000;stroke-opacity:1;stroke-width:0.1;stroke-dasharray:none" /><path
       d="M-25.0720759,1.0029873 a0.395,0.395 0 1,1 0.79,0 a0.395,0.395 0 1,1 -0.79,0z"
       transform="matrix(1,0,0,-1,67.3437425,34.5029873)"
       fill="rgb(255,255,255)"
       stroke="rgb(0,0,0)"
       stroke-width="0.0010cm"
       stroke-linecap="round"
       stroke-linejoin="round"
       id="path62"
       style="fill:none;stroke:#000000;stroke-opacity:1;stroke-width:0.1;stroke-dasharray:none" /><path
       d="M-25.0720759,32.0029873 a0.395,0.395 0 1,1 0.79,0 a0.395,0.395 0 1,1 -0.79,0z"
       transform="matrix(1,0,0,-1,67.3437425,34.5029873)"
       fill="rgb(255,255,255)"
       stroke="rgb(0,0,0)"
       stroke-width="0.0010cm"
       stroke-linecap="round"
       stroke-linejoin="round"
       id="path64"
       style="fill:none;stroke:#000000;stroke-opacity:1;stroke-width:0.1;stroke-dasharray:none" /><path
       d="M17.5945908,32.0029873 a0.395,0.395 0 1,1 0.79,0 a0.395,0.395 0 1,1 -0.79,0z"
       transform="matrix(1,0,0,-1,67.3437425,34.5029873)"
       fill="rgb(255,255,255)"
       stroke="rgb(0,0,0)"
       stroke-width="0.0010cm"
       stroke-linecap="round"
       stroke-linejoin="round"
       id="path66"
       style="fill:none;stroke:#000000;stroke-opacity:1;stroke-width:0.1;stroke-dasharray:none" /><path
       d="M57.7612575,32.0029873 a0.395,0.395 0 1,1 0.79,0 a0.395,0.395 0 1,1 -0.79,0z"
       transform="matrix(1,0,0,-1,67.3437425,34.5029873)"
       fill="rgb(255,255,255)"
       stroke="rgb(0,0,0)"
       stroke-width="0.0010cm"
       stroke-linecap="round"
       stroke-linejoin="round"
       id="path68"
       style="fill:none;stroke:#000000;stroke-opacity:1;stroke-width:0.1;stroke-dasharray:none" /></g></svg>
