<?xml version="1.0" encoding="utf-8"?>
<!-- Generator: Fusion 360, Shaper Origin Export Add-In, Version 1.8.0  -->
<svg xmlns="http://www.w3.org/2000/svg" xmlns:xlink="http://www.w3.org/1999/xlink" xmlns:shaper="http://www.shapertools.com/namespaces/shaper" shaper:fusionaddin="version:1.8.0" width="121cm" height="36cm" version="1.1" x="0cm" y="0cm" viewBox="0 0 121 36" enable-background="new 0 0 121 36" xml:space="preserve"><path d="M60.3947019,-1.014471 A1.4,1.4 0 0,1 58.9947019,0.385529 L-59.2052981,0.385529 A1.4,1.4 90 0,1 -60.6052981,-1.014471 L-60.6052981,-34.214471 A1.4,1.4 180 0,1 -59.2052981,-35.614471 L58.9947019,-35.614471 A1.4,1.4 270 0,1 60.3947019,-34.214471 L60.3947019,-1.014471z" transform="matrix(1,0,0,-1,60.6052981,0.385529)" fill="rgb(0,0,0)" stroke-linecap="round" stroke-linejoin="round" /><path d="M18.053392,-0.7491052 L18.053392,-0.7491052 18.0753577,-0.7836152 18.0967179,-0.8188854 18.1175018,-0.8548846 18.1377388,-0.8915818 18.1574581,-0.928946 18.1766891,-0.9669461 18.1954611,-1.005551 18.2138032,-1.0447297 18.2317449,-1.084451 18.2493155,-1.1246839 18.2834603,-1.2065602 18.3164719,-1.2901101 18.3485848,-1.3750849 18.3800333,-1.4612362 18.4110517,-1.5483154 18.4727361,-1.724263 18.5355127,-1.9009393 18.5678965,-1.9889293 18.6012566,-2.0763558 18.6358271,-2.1629703 18.6718229,-2.2484803 18.7094433,-2.3325766 18.7289389,-2.3740325 18.7489321,-2.415061 18.7694535,-2.4556379 18.7905339,-2.4957386 18.8122037,-2.5353388 18.8344937,-2.5744141 18.8574343,-2.6129402 18.8810562,-2.6508926 18.90539,-2.688247 18.9304664,-2.724979 18.9563158,-2.7610641 18.982969,-2.7964781 19.0104179,-2.8311488 19.0385484,-2.8648901 19.06737,-2.8976881 19.0969049,-2.9295456 19.1271753,-2.9604654 19.1582033,-2.9904503 19.1900113,-3.0195029 19.2226214,-3.0476262 19.2560557,-3.0748228 19.2903365,-3.1010955 19.325486,-3.1264471 19.3615264,-3.1508803 19.3984798,-3.1743979 19.4363685,-3.1970027 A1.25,1.25 240 0,1 20.6863685,-3.1970027 L20.6863685,-3.1970027 20.7218497,-3.175959 20.7566628,-3.154176 20.7908131,-3.1316389 20.8243062,-3.108333 20.8571473,-3.0842435 20.8893419,-3.0593557 20.9208955,-3.0336548 20.9518133,-3.007126 20.9821008,-2.9797547 21.0117635,-2.951526 21.0408066,-2.9224251 21.0692296,-2.892444 21.0968578,-2.8617753 21.1236277,-2.8305222 21.1495652,-2.7986963 21.1746962,-2.7663087 21.1990467,-2.7333708 21.2226425,-2.699894 21.2455095,-2.6658896 21.2676735,-2.6313689 21.2891606,-2.5963433 21.3099965,-2.5608241 21.3302072,-2.5248226 21.3498058,-2.4883745 21.3687871,-2.4515558 21.387177,-2.4143896 21.4050026,-2.3768959 21.4222912,-2.3390952 21.4553659,-2.2626536 21.4866189,-2.1852268 21.5162678,-2.1069768 21.5445303,-2.0280658 21.571624,-1.9486559 21.5977667,-1.8689091 21.6480696,-1.7090531 21.6971764,-1.5498075 21.7218043,-1.4708895 21.7467602,-1.3927038 21.7722563,-1.3154368 21.7985047,-1.239275 21.8257177,-1.1644046 21.8541076,-1.0910122 21.8838864,-1.0192842 21.899363,-0.9841025 21.9152665,-0.9494069 21.9152665,-0.9494069 22.1267377,-0.9627026 22.3366352,-0.9761805 22.5449656,-0.9898415 22.7517354,-1.0036866 22.9569514,-1.0177171 23.1606199,-1.0319338 23.3627478,-1.0463378 23.5633414,-1.0609302 23.7624074,-1.075712 23.9599524,-1.0906844 24.155983,-1.1058482 24.3505057,-1.1212046 24.5435272,-1.1367546 24.735054,-1.1524993 24.9250927,-1.1684396 25.1136499,-1.1845768 25.3007321,-1.2009117 25.486346,-1.2174455 25.6704982,-1.2341791 25.8531952,-1.2511138 26.0344436,-1.2682503 26.2142501,-1.28559 26.3926211,-1.3031337 26.5695632,-1.3208825 26.7450831,-1.3388375 26.9191874,-1.3569997 27.0918826,-1.3753702 27.2631753,-1.39395 27.4330721,-1.4127402 27.6015795,-1.4317417 27.7687042,-1.4509558 27.9344528,-1.4703833 28.0988318,-1.4900253 28.2618478,-1.509883 28.4235074,-1.5299573 28.5838172,-1.5502493 28.7427838,-1.57076 28.9004137,-1.5914905 29.0567135,-1.6124418 29.2116899,-1.633615 29.3653494,-1.6550111 29.5176986,-1.6766312 29.668744,-1.6984763 29.8184923,-1.7205475 29.9669501,-1.7428457 30.1141239,-1.7653721 30.2600203,-1.7881277 30.4046459,-1.8111136 30.5480073,-1.8343308 30.690111,-1.8577803 30.8309637,-1.8814631 30.970572,-1.9053804 31.1089423,-1.9295332 31.2460814,-1.9539226 31.3819958,-1.9785494 31.516692,-2.003415 31.6501767,-2.0285201 31.7824565,-2.053866 31.9135379,-2.0794537 32.0434275,-2.1052841 32.1721318,-2.1313585 32.2996576,-2.1576777 32.4260114,-2.1842428 32.5511997,-2.211055 32.6752291,-2.2381152 32.7981063,-2.2654245 32.9198377,-2.2929839 33.0404332,-2.320795 33.1599651,-2.3488707 33.2784656,-2.3772172 33.3959403,-2.4058363 33.5123949,-2.4347299 33.6278351,-2.4638996 33.7422665,-2.4933474 33.8556949,-2.5230749 33.9681258,-2.5530839 34.0795649,-2.5833762 34.190018,-2.6139537 34.2994906,-2.644818 34.4079885,-2.6759709 34.5155173,-2.7074144 34.6220826,-2.73915 34.7276902,-2.7711796 34.8323458,-2.8035051 34.9360549,-2.8361281 35.0388232,-2.8690504 35.1406565,-2.9022739 35.2415604,-2.9358002 35.3415405,-2.9696313 35.4406025,-3.0037688 35.5387522,-3.0382146 35.635995,-3.0729704 35.7323368,-3.108038 35.8277832,-3.1434192 35.9223399,-3.1791157 36.0160124,-3.2151295 36.1088066,-3.2514621 36.200728,-3.2881155 36.2917824,-3.3250914 36.3819754,-3.3623915 36.4713126,-3.4000177 36.5597997,-3.4379718 36.6474425,-3.4762554 36.7342465,-3.5148705 36.8202174,-3.5538187 36.905361,-3.5931019 36.9896828,-3.6327219 37.0731886,-3.6726803 37.1558839,-3.7129791 37.2377746,-3.75362 37.3188661,-3.7946047 37.3991643,-3.835935 37.4786748,-3.8776128 37.5574031,-3.9196398 37.6353552,-3.9620178 37.7125364,-4.0047486 37.7889686,-4.0478431 37.8648662,-4.0914273 37.9402926,-4.1355457 38.0152447,-4.180205 38.0897191,-4.2254118 38.1637126,-4.2711729 38.2372219,-4.317495 38.3102437,-4.3643846 38.3827749,-4.4118484 38.454812,-4.4598932 38.5263519,-4.5085257 38.5973913,-4.5577524 38.6679269,-4.60758 38.7379555,-4.6580153 38.8074738,-4.7090649 38.8764785,-4.7607355 38.9449664,-4.8130337 39.0129342,-4.8659663 39.0803786,-4.9195399 39.1472963,-4.9737611 39.2136842,-5.0286367 39.279539,-5.0841733 39.3448573,-5.1403776 39.4096359,-5.1972562 39.4738716,-5.2548159 39.537561,-5.3130633 39.600701,-5.3720052 39.6632882,-5.431648 39.7253195,-5.4919986 39.7867914,-5.5530637 39.8477008,-5.6148498 39.9080444,-5.6773636 39.967819,-5.7406119 40.0270212,-5.8046013 40.0856478,-5.8693385 40.1436955,-5.9348301 40.2011611,-6.0010829 40.2580298,-6.0680889 40.3142334,-6.1357695 40.3697633,-6.2041163 40.4246222,-6.2731343 40.4788128,-6.3428287 40.5323377,-6.4132046 40.5851996,-6.4842671 40.6374011,-6.5560214 40.6889448,-6.6284725 40.7398335,-6.7016256 40.7900697,-6.7754858 40.8396562,-6.8500583 40.8885955,-6.9253481 40.9368903,-7.0013604 40.9845433,-7.0781003 41.031557,-7.155573 41.0779343,-7.2337835 41.1236776,-7.312737 41.1687897,-7.3924385 41.2132731,-7.4728933 41.2571306,-7.5541065 41.3003648,-7.6360831 41.3429784,-7.7188284 41.3849739,-7.8023473 41.4263541,-7.8866451 41.4671216,-7.9717269 41.507279,-8.0575977 41.546829,-8.1442628 41.5857742,-8.2317271 41.6241173,-8.319996 41.6618609,-8.4090744 41.6990077,-8.4989676 41.7355603,-8.5896806 41.7715214,-8.6812185 41.8068936,-8.7735865 41.8416796,-8.8667897 41.875882,-8.9608333 41.9095035,-9.0557223 41.9425467,-9.1514618 41.9750143,-9.2480571 42.0069088,-9.3455131 42.038241,-9.4438599 42.0690366,-9.543179 42.099298,-9.6434838 42.1290262,-9.744783 42.1582219,-9.8470852 42.1868861,-9.9503989 42.2150195,-10.0547326 42.2426231,-10.1600949 42.2696975,-10.2664945 42.2962438,-10.3739397 42.3222627,-10.4824393 42.347755,-10.5920017 42.3727217,-10.7026356 42.3971636,-10.8143495 42.4210815,-10.9271519 42.4444762,-11.0410514 42.4673486,-11.1560565 42.4896995,-11.2721759 42.5115299,-11.3894181 42.5328404,-11.5077917 42.5536321,-11.6273051 42.5739056,-11.7479671 42.5936619,-11.869786 42.6129018,-11.9927706 42.6316262,-12.1169293 42.6498358,-12.2422707 42.6675316,-12.3688035 42.6847143,-12.496536 42.7013849,-12.6254769 42.7175441,-12.7556349 42.7331929,-12.8870183 42.7483319,-13.0196358 42.7629622,-13.1534959 42.7770845,-13.2886073 42.7906997,-13.4249784 42.8038087,-13.5626179 42.8164121,-13.7015342 42.828511,-13.841736 42.8401062,-13.9832318 42.8511985,-14.1260301 42.8617887,-14.2701396 42.8718777,-14.4155688 42.8814663,-14.5623262 42.8905554,-14.7104204 42.8991458,-14.8598601 42.9072384,-15.0106536 42.9148339,-15.1628096 42.9219334,-15.3163367 42.9285375,-15.4712434 42.9346471,-15.6275383 42.9402632,-15.78523 42.9453864,-15.9443269 42.9500177,-16.1048377 42.954158,-16.2667709 42.957808,-16.4301351 42.9609685,-16.5949388 42.9636406,-16.7611906 42.9658249,-16.9288991 42.9675223,-17.0980729 42.9687337,-17.2687204 42.96946,-17.4408502 42.9697019,-17.614471 42.9697019,-17.614471 42.9691713,-17.8731439 42.9675641,-18.1297623 42.9648569,-18.3843173 42.9610263,-18.6368004 42.9560492,-18.8872028 42.9531233,-19.011621 42.949902,-19.1355159 42.9463825,-19.2588862 42.9425616,-19.3817309 42.9384367,-19.504049 42.9340046,-19.6258393 42.9292626,-19.7471007 42.9242077,-19.8678322 42.9188369,-19.9880327 42.9131474,-20.1077011 42.9071363,-20.2268363 42.9008006,-20.3454373 42.8941375,-20.4635028 42.8871439,-20.5810319 42.8798171,-20.6980235 42.872154,-20.8144765 42.8641518,-20.9303897 42.8558075,-21.0457622 42.8471183,-21.1605928 42.8380812,-21.2748804 42.8286933,-21.388624 42.8189516,-21.5018225 42.8088534,-21.6144747 42.7983955,-21.7265797 42.7875753,-21.8381362 42.7763896,-21.9491433 42.7648357,-22.0595999 42.7529105,-22.1695047 42.7406112,-22.2788569 42.7279349,-22.3876552 42.7148786,-22.4958986 42.7014395,-22.6035861 42.6876146,-22.7107165 42.6734009,-22.8172887 42.6587957,-22.9233016 42.6437959,-23.0287543 42.6283987,-23.1336455 42.6126011,-23.2379743 42.5964002,-23.3417394 42.5797934,-23.4449385 42.562782,-23.5475436 42.5453639,-23.6495454 42.5275353,-23.7509452 42.5092922,-23.8517444 42.4906306,-23.9519446 42.4715466,-24.0515471 42.4520363,-24.1505534 42.4320957,-24.2489649 42.4117209,-24.3467831 42.3909079,-24.4440093 42.3696528,-24.5406451 42.3479517,-24.6366918 42.3258007,-24.7321509 42.3031957,-24.8270238 42.2801328,-24.9213119 42.2566082,-25.0150168 42.2326178,-25.1081398 42.2081577,-25.2006823 42.1832241,-25.2926459 42.1578128,-25.3840318 42.1319201,-25.4748417 42.105542,-25.5650768 42.0786744,-25.6547387 42.0513136,-25.7438287 42.0234555,-25.8323483 41.9950962,-25.920299 41.9662317,-26.0076822 41.9368582,-26.0944992 41.9069717,-26.1807516 41.8765682,-26.2664408 41.8456438,-26.3515682 41.8141946,-26.4361352 41.7822166,-26.5201433 41.7497059,-26.603594 41.7166585,-26.6864885 41.6830705,-26.7688285 41.648938,-26.8506153 41.6142551,-26.9318543 41.5789894,-27.0126025 41.5431257,-27.0928779 41.5066577,-27.1726798 41.469579,-27.2520075 41.4318833,-27.3308605 41.3935642,-27.409238 41.3546153,-27.4871395 41.3150302,-27.5645643 41.2748027,-27.6415118 41.2339264,-27.7179814 41.1923948,-27.7939724 41.1502017,-27.8694841 41.1073407,-27.944516 41.0638054,-28.0190675 41.0195895,-28.0931378 40.9746866,-28.1667263 40.9290903,-28.2398325 40.8827943,-28.3124557 40.8357923,-28.3845952 40.7880778,-28.4562504 40.7396445,-28.5274207 40.6904861,-28.5981055 40.6405962,-28.6683041 40.5899684,-28.7380158 40.5385964,-28.8072401 40.4864739,-28.8759763 40.4335944,-28.9442238 40.3799516,-29.0119819 40.3255391,-29.07925 40.2703507,-29.1460276 40.2143798,-29.2123138 40.1576202,-29.2781082 40.1000656,-29.34341 40.0417095,-29.4082187 39.9825456,-29.4725336 39.9225675,-29.536354 39.8617689,-29.5996794 39.8001434,-29.6625091 39.7376847,-29.7248425 39.6743902,-29.7866755 39.610302,-29.8479664 39.5454289,-29.9087057 39.4797657,-29.9688964 39.4133073,-30.0285416 39.3460484,-30.0876446 39.277984,-30.1462084 39.2091087,-30.2042361 39.1394175,-30.2617309 39.0689051,-30.3186959 38.9975663,-30.3751343 38.925396,-30.4310492 38.852389,-30.4864436 38.77854,-30.5413208 38.703844,-30.5956838 38.6282957,-30.6495358 38.5518899,-30.7028799 38.4746214,-30.7557193 38.3964851,-30.8080571 38.3174757,-30.8598963 38.2375882,-30.9112402 38.1568172,-30.9620919 38.0751577,-31.0124544 37.9926043,-31.062331 37.9091521,-31.1117247 37.8247956,-31.1606387 37.7395298,-31.2090761 37.6533496,-31.25704 37.5662496,-31.3045336 37.4782247,-31.35156 37.3892697,-31.3981223 37.2993795,-31.4442237 37.2085488,-31.4898672 37.1167725,-31.5350561 37.0240453,-31.5797934 36.9303622,-31.6240823 36.8357178,-31.6679259 36.7401071,-31.7113273 36.6435248,-31.7542897 36.5459657,-31.7968161 36.4474247,-31.8389098 36.3478607,-31.8805901 36.2471628,-31.9219055 36.1453125,-31.9628604 36.0422973,-32.0034561 35.9381048,-32.0436941 35.8327223,-32.0835758 35.7261376,-32.1231026 35.618338,-32.1622759 35.5093111,-32.2010972 35.3990445,-32.239568 35.2875257,-32.2776895 35.1747421,-32.3154633 35.0606814,-32.3528908 34.945331,-32.3899734 34.8286785,-32.4267125 34.7107114,-32.4631095 34.5914172,-32.4991659 34.4707834,-32.5348831 34.3487976,-32.5702626 34.2254474,-32.6053057 34.1007201,-32.6400138 33.9746034,-32.6743885 33.8470847,-32.708431 33.7181516,-32.7421429 33.5877917,-32.7755256 33.4559924,-32.8085805 33.3227413,-32.841309 33.1880259,-32.8737126 33.0518337,-32.9057926 32.9141522,-32.9375505 32.774969,-32.9689877 32.6342717,-33.0001057 32.4920476,-33.0309058 32.3482844,-33.0613896 32.2029695,-33.0915583 32.0560906,-33.1214135 31.9076351,-33.1509566 31.7575905,-33.180189 31.6059444,-33.209112 31.4526843,-33.2377273 31.2977977,-33.266036 31.1412722,-33.2940398 30.9830952,-33.32174 30.8232543,-33.3491381 30.6617371,-33.3762354 30.498531,-33.4030334 30.3336236,-33.4295335 30.1670024,-33.4557372 29.9986549,-33.4816458 29.8285687,-33.5072608 29.6567312,-33.5325836 29.48313,-33.5576157 29.3077527,-33.5823584 29.1305867,-33.6068133 28.9516196,-33.6309816 28.7708389,-33.6548649 28.5882321,-33.6784645 28.4037868,-33.701782 28.2174904,-33.7248186 28.0293305,-33.7475759 27.8392947,-33.7700553 27.6473704,-33.7922581 27.4535452,-33.8141859 27.2578066,-33.83584 27.0601421,-33.8572218 26.8605393,-33.8783329 26.6589857,-33.8991745 26.4554687,-33.9197482 26.249976,-33.9400554 26.042495,-33.9600974 25.8330133,-33.9798758 25.6215185,-33.9993918 25.4079979,-34.0186471 25.1924392,-34.0376429 24.9748299,-34.0563808 24.7551574,-34.0748621 24.5334094,-34.0930882 24.3095734,-34.1110607 24.0836368,-34.1287808 23.8555873,-34.1462501 23.6254123,-34.1634699 23.3930993,-34.1804417 23.1586359,-34.197167 22.9220096,-34.213647 22.6832079,-34.2298834 22.4422184,-34.2458774 22.1990286,-34.2616305 21.953626,-34.2771441 21.953626,-34.2771441 21.9363155,-34.2421541 21.9193743,-34.2066734 21.8865111,-34.1343345 21.8548585,-34.0603167 21.8242387,-33.9848092 21.7944737,-33.9080014 21.7653857,-33.8300823 21.7367969,-33.7512413 21.7085292,-33.6716677 21.6522462,-33.5110793 21.5951136,-33.3498312 21.565784,-33.2694329 21.5357084,-33.1894373 21.5047089,-33.1100338 21.4726089,-33.0314145 21.4392631,-32.9538379 21.4045018,-32.8774916 21.3681391,-32.8025238 21.3492991,-32.7656032 21.3299891,-32.7290828 21.3101857,-32.6929811 21.2898658,-32.6573166 21.2690061,-32.6221078 21.2475833,-32.5873734 21.2255742,-32.5531317 21.2029556,-32.5194013 21.1797042,-32.4862007 21.1557968,-32.4535485 21.1312102,-32.4214632 21.1059926,-32.3900504 21.0802137,-32.3594242 21.053857,-32.3295829 21.0269055,-32.3005243 20.9993426,-32.2722463 20.9711512,-32.2447468 20.9423145,-32.2180238 20.9128157,-32.1920752 20.8826379,-32.1668987 20.8517643,-32.1424924 20.820178,-32.1188541 20.7878621,-32.0959817 20.7547998,-32.0738732 20.7209742,-32.0525264 20.6863685,-32.0319392 A1.25,1.25 60 0,1 19.4363685,-32.0319392 L19.4363685,-32.0319392 19.3974396,-32.0550888 19.3593553,-32.0791061 19.3221057,-32.1040081 19.2856804,-32.1298119 19.2500696,-32.1565343 19.2152629,-32.1841925 19.1812504,-32.2128035 19.1480219,-32.2423842 19.1155673,-32.2729517 19.0838765,-32.3045229 19.0529393,-32.337115 19.0227457,-32.3707448 18.9933336,-32.4053711 18.964928,-32.4406969 18.9375286,-32.4766601 18.9110995,-32.5132392 18.8856051,-32.5504124 18.8610095,-32.5881582 18.837277,-32.626455 18.8143718,-32.6652811 18.792258,-32.704615 18.7709001,-32.744435 18.7502621,-32.7847196 18.7303083,-32.8254471 18.7110041,-32.8665934 18.6923257,-32.9081089 18.674241,-32.9499594 18.6567149,-32.9921169 18.6231978,-33.0772405 18.5914931,-33.1632556 18.5613197,-33.2499381 18.5323963,-33.3370639 18.5044416,-33.4244087 18.4771746,-33.5117484 18.4235785,-33.6855159 18.3966869,-33.7714955 18.3693582,-33.8565733 18.3413107,-33.9405263 18.3122512,-34.0231715 18.2818897,-34.1042816 18.2661317,-34.1441806 18.2499415,-34.1835995 18.2332835,-34.2225061 18.2161222,-34.2608683 18.198422,-34.2986539 18.1801473,-34.3358307 18.1612626,-34.3723668 18.1417323,-34.4082299 18.1215209,-34.4433878 18.1005928,-34.4778085 18.1005928,-34.4778085 17.690752,-34.4951223 17.2807231,-34.5117892 16.870747,-34.5278249 16.461065,-34.5432451 16.0519181,-34.5580653 15.6435475,-34.5723013 15.2361943,-34.5859687 14.8300996,-34.599083 14.4255046,-34.61166 14.0226503,-34.6237153 13.6217779,-34.6352646 13.2231285,-34.6463234 13.0247128,-34.6516737 12.8269433,-34.6569074 12.6298501,-34.6620262 12.4334633,-34.6670322 12.2378131,-34.6719274 12.0429297,-34.6767136 11.8488431,-34.6813929 11.6555836,-34.6859671 11.2688479,-34.6948654 10.879789,-34.7034792 10.4885165,-34.7118128 10.0951417,-34.7198702 9.6997758,-34.7276557 9.3025303,-34.7351734 8.9035163,-34.7424276 8.5028452,-34.7494224 8.1006281,-34.756162 7.6969765,-34.7626505 7.2920017,-34.7688922 6.8858148,-34.7748911 6.4785271,-34.7806516 6.0702501,-34.7861778 5.6610949,-34.7914738 5.2511728,-34.7965438 4.4294732,-34.8060227 3.6060416,-34.8146478 2.7817683,-34.8224526 1.9575436,-34.8294704 1.1342577,-34.8357348 0.312801,-34.8412791 -0.0969632,-34.8437917 -0.5059363,-34.8461367 -0.9140069,-34.8483185 -1.3210638,-34.8503412 -1.7269957,-34.8522089 -2.1316913,-34.8539258 -2.5350393,-34.8554961 -2.9369284,-34.856924 -3.3372474,-34.8582137 -3.735885,-34.8593693 -4.1327298,-34.860395 -4.5276706,-34.861295 -4.9205961,-34.8620735 -5.311395,-34.8627346 -5.6999561,-34.8632826 -5.8933626,-34.8635154 -6.0861679,-34.8637216 -6.2783582,-34.8639015 -6.4699194,-34.8640557 -6.6608377,-34.8641848 -6.8510991,-34.8642892 -7.0406898,-34.8643695 -7.2295958,-34.8644262 -7.4178032,-34.8644599 -7.6052981,-34.864471 -7.6052981,-34.864471 -8.2443539,-34.8644299 -8.8854751,-34.8643039 -9.5283117,-34.8640892 -10.1725137,-34.863782 -10.8177311,-34.8633782 -11.463614,-34.8628741 -12.7559765,-34.8615492 -13.4017561,-34.8607207 -14.0468013,-34.8597762 -14.6907622,-34.858712 -15.3332887,-34.8575241 -15.9740309,-34.8562087 -16.6139309,-34.8547588 -17.2560784,-34.8531613 -17.9001788,-34.8514089 -17.9001788,-34.8514089 -17.9390553,-34.8257578 -17.976846,-34.7982279 -18.0135794,-34.7688177 -18.0490988,-34.7376975 -18.0832993,-34.7050459 -18.1162349,-34.6709184 -18.1479598,-34.6353707 -18.178528,-34.5984582 -18.2079937,-34.5602366 -18.2364108,-34.5207615 -18.2638336,-34.4800884 -18.2903161,-34.4382729 -18.3159124,-34.3953706 -18.3406766,-34.3514371 -18.3646631,-34.306527 -18.3879291,-34.2606841 -18.4105275,-34.21396 -18.4325098,-34.1664094 -18.4539277,-34.1180871 -18.4748326,-34.0690481 -18.495276,-34.0193471 -18.5153097,-33.9690389 -18.5543536,-33.8668207 -18.5923767,-33.762832 -18.6297914,-33.6575115 -18.7044451,-33.44463 -18.742509,-33.3379464 -18.781614,-33.2316858 -18.8221726,-33.1262869 -18.8431259,-33.0740477 -18.8645942,-33.0221952 -18.8866133,-32.9708179 -18.9092343,-32.919965 -18.9325111,-32.8696796 -18.9564976,-32.8200046 -18.9812476,-32.770983 -19.0068151,-32.7226575 -19.033254,-32.6750712 -19.060618,-32.6282671 -19.0889611,-32.5822879 -19.1183372,-32.5371768 -19.1488001,-32.4929765 -19.1804038,-32.4497301 -19.2131903,-32.4074952 -19.247012,-32.3665488 -19.2818389,-32.3269779 -19.3177101,-32.2887778 -19.3546648,-32.2519436 -19.3927419,-32.2164704 -19.4319805,-32.1823533 -19.4724198,-32.1495874 -19.5140988,-32.1181679 -19.5570566,-32.08809 -19.6013322,-32.0593487 -19.6469648,-32.0319392 A1.25,1.25 60 0,1 -20.8969648,-32.0319392 L-20.8969648,-32.0319392 -20.9435714,-32.0598183 -20.9889283,-32.0889272 -21.0330563,-32.1192923 -21.075976,-32.1509401 -21.1177079,-32.183897 -21.1582728,-32.2181896 -21.1976912,-32.2538442 -21.2359838,-32.2908873 -21.2731711,-32.3293453 -21.3092739,-32.3692448 -21.3443128,-32.4106121 -21.3782095,-32.4533443 -21.4106756,-32.4970053 -21.4417463,-32.5415189 -21.4714842,-32.5868416 -21.4999516,-32.6329299 -21.527211,-32.6797406 -21.5533248,-32.7272302 -21.5783553,-32.7753552 -21.6023651,-32.8240724 -21.6254165,-32.8733383 -21.647572,-32.9231095 -21.6688954,-32.9733477 -21.6894549,-33.0240307 -21.7093109,-33.0751105 -21.728523,-33.1265362 -21.7652535,-33.230221 -21.8001223,-33.3346767 -21.8336056,-33.4394949 -21.8661795,-33.5442672 -21.8983201,-33.6485851 -21.9305033,-33.7520404 -21.9632054,-33.8542245 -21.9969025,-33.9547292 -22.0142728,-34.0042242 -22.0320705,-34.0531461 -22.0503549,-34.1014439 -22.0691883,-34.1490747 -22.0886392,-34.19601 -22.1087698,-34.2421974 -22.1296418,-34.2875833 -22.151317,-34.3321138 -22.1738571,-34.375735 -22.1973239,-34.4183932 -22.2217791,-34.4600346 -22.2472843,-34.5006053 -22.2739014,-34.5400515 -22.3016921,-34.5783195 -22.3306789,-34.6153053 -22.3608817,-34.6509164 -22.3923567,-34.6851135 -22.4251599,-34.7178574 -22.4593474,-34.7491089 -22.4949753,-34.7788287 -22.5320997,-34.8069777 -22.5707767,-34.8335166 -22.5707767,-34.8335166 -22.8408975,-34.8321628 -23.1094574,-34.8307785 -23.3764614,-34.8293634 -23.6419149,-34.8279173 -23.9058231,-34.8264399 -24.1681911,-34.824931 -24.4290243,-34.8233903 -24.6883278,-34.8218177 -24.9461068,-34.8202128 -25.2023666,-34.8185755 -25.4571125,-34.8169055 -25.7103495,-34.8152025 -25.962083,-34.8134663 -26.2123181,-34.8116967 -26.4610602,-34.8098934 -26.7083143,-34.8080561 -26.9540858,-34.8061848 -27.1983798,-34.804279 -27.4412017,-34.8023386 -27.6825565,-34.8003633 -27.9224495,-34.7983529 -28.160886,-34.7963071 -28.3978711,-34.7942257 -28.6334102,-34.7921085 -28.8675083,-34.7899552 -29.1001708,-34.7877656 -29.3314029,-34.7855394 -29.5612097,-34.7832764 -29.7895965,-34.7809763 -30.0165685,-34.778639 -30.242131,-34.7762641 -30.4662892,-34.7738515 -30.6890482,-34.7714008 -30.9104134,-34.7689119 -31.1303899,-34.7663845 -31.3489829,-34.7638183 -31.5661977,-34.7612132 -31.7820396,-34.7585689 -31.9965136,-34.7558851 -32.2096251,-34.7531616 -32.4213793,-34.7503982 -32.6317814,-34.7475946 -32.8408365,-34.7447505 -33.04855,-34.7418658 -33.2549271,-34.7389402 -33.4599729,-34.7359735 -33.6636928,-34.7329653 -33.8660919,-34.7299156 -34.0671754,-34.726824 -34.2669486,-34.7236902 -34.4654166,-34.7205142 -34.6625848,-34.7172955 -34.8584584,-34.714034 -35.0530425,-34.7107294 -35.2463423,-34.7073815 -35.4383632,-34.7039901 -35.6291103,-34.7005548 -35.8185888,-34.6970756 -36.0068041,-34.693552 -36.1937612,-34.6899839 -36.3794654,-34.6863711 -36.5639219,-34.6827133 -36.7471361,-34.6790102 -36.929113,-34.6752617 -37.1098579,-34.6714674 -37.289376,-34.6676271 -37.4676726,-34.6637407 -37.6447528,-34.6598078 -37.820622,-34.6558282 -37.9952852,-34.6518017 -38.1687478,-34.6477281 -38.341015,-34.643607 -38.5120919,-34.6394383 -38.6819838,-34.6352217 -38.850696,-34.6309569 -39.0182336,-34.6266438 -39.1846019,-34.622282 -39.3498061,-34.6178715 -39.5138514,-34.6134118 -39.676743,-34.6089027 -39.8384862,-34.6043441 -39.9990862,-34.5997357 -40.1585482,-34.5950772 -40.3168774,-34.5903685 -40.4740791,-34.5856091 -40.6301584,-34.580799 -40.7851206,-34.5759379 -40.938971,-34.5710255 -41.0917147,-34.5660616 -41.2433569,-34.561046 -41.393903,-34.5559783 -41.543358,-34.5508585 -41.6917273,-34.5456862 -41.839016,-34.5404611 -41.9852294,-34.5351831 -42.1303727,-34.5298519 -42.2744511,-34.5244673 -42.4174698,-34.519029 -42.5594341,-34.5135368 -42.7003492,-34.5079905 -42.8402203,-34.5023897 -42.9790526,-34.4967343 -43.1168514,-34.4910241 -43.2536219,-34.4852587 -43.3893692,-34.4794379 -43.5240987,-34.4735616 -43.6578155,-34.4676294 -43.7905249,-34.4616411 -43.922232,-34.4555965 -44.0529422,-34.4494954 -44.1826606,-34.4433374 -44.3113924,-34.4371224 -44.4391429,-34.4308501 -44.5659174,-34.4245202 -44.6917209,-34.4181326 -44.8165588,-34.411687 -44.9404362,-34.4051832 -45.0633585,-34.3986208 -45.1853307,-34.3919997 -45.3063582,-34.3853196 -45.4264461,-34.3785804 -45.5455997,-34.3717816 -45.6638242,-34.3649232 -45.7811248,-34.3580048 -45.8975067,-34.3510263 -46.0129753,-34.3439873 -46.1275356,-34.3368876 -46.2411929,-34.3297271 -46.3539524,-34.3225054 -46.4658194,-34.3152224 -46.5767991,-34.3078777 -46.6868967,-34.3004711 -46.7961174,-34.2930025 -46.9044664,-34.2854715 -47.0119491,-34.2778779 -47.1185705,-34.2702214 -47.2243359,-34.2625019 -47.3292505,-34.2547191 -47.4333196,-34.2468728 -47.5365484,-34.2389626 -47.638942,-34.2309884 -47.7405058,-34.22295 -47.841245,-34.214847 -47.9411647,-34.2066793 -48.0402701,-34.1984465 -48.1385666,-34.1901486 -48.2360594,-34.1817851 -48.3327536,-34.1733559 -48.4286544,-34.1648608 -48.5237672,-34.1562995 -48.6180971,-34.1476717 -48.7116493,-34.1389772 -48.8044291,-34.1302158 -48.8964417,-34.1213873 -48.9876923,-34.1124913 -49.0781861,-34.1035277 -49.1679284,-34.0944962 -49.2569244,-34.0853965 -49.3451793,-34.0762285 -49.4326983,-34.0669919 -49.5194866,-34.0576865 -49.6055495,-34.0483119 -49.6908922,-34.038868 -49.7755199,-34.0293545 -49.8594379,-34.0197712 -49.9426513,-34.0101179 -50.0251654,-34.0003942 -50.1069853,-33.9906 -50.1881164,-33.9807351 -50.2685639,-33.9707991 -50.3483329,-33.9607918 -50.4274287,-33.9507131 -50.5058566,-33.9405626 -50.5836216,-33.9303401 -50.6607291,-33.9200454 -50.7371843,-33.9096782 -50.8129924,-33.8992383 -50.8881587,-33.8887255 -50.9626882,-33.8781394 -51.0365864,-33.86748 -51.1098583,-33.8567469 -51.1825093,-33.8459398 -51.2545444,-33.8350586 -51.3259691,-33.824103 -51.3967884,-33.8130728 -51.4670076,-33.8019677 -51.6056667,-33.7795319 -51.741988,-33.7567937 -51.8760134,-33.7337512 -52.0077846,-33.7104024 -52.1373435,-33.6867454 -52.2647317,-33.6627784 -52.3899911,-33.6384993 -52.5131635,-33.6139062 -52.6342906,-33.5889972 -52.7534142,-33.5637705 -52.8705761,-33.5382239 -52.985818,-33.5123557 -53.0991818,-33.4861639 -53.2107092,-33.4596466 -53.320446,-33.4328005 -53.4285795,-33.4055736 -53.5352049,-33.377936 -53.6403368,-33.3498827 -53.74399,-33.3214088 -53.846179,-33.2925095 -53.9469185,-33.2631797 -54.0462231,-33.2334146 -54.1441074,-33.2032092 -54.2405862,-33.1725586 -54.335674,-33.1414579 -54.4293855,-33.1099022 -54.5217353,-33.0778865 -54.6127381,-33.0454059 -54.7024085,-33.0124555 -54.7907611,-32.9790303 -54.8778106,-32.9451254 -54.9635717,-32.910736 -55.0480589,-32.8758571 -55.1312869,-32.8404837 -55.2132704,-32.8046109 -55.2940239,-32.7682339 -55.3735622,-32.7313476 -55.4518999,-32.6939472 -55.5290515,-32.6560277 -55.6050318,-32.6175842 -55.6798554,-32.5786118 -55.753537,-32.5391055 -55.826091,-32.4990605 -55.8975324,-32.4584718 -55.967896,-32.4173221 -56.0374171,-32.3754675 -56.1061591,-32.3328571 -56.1741223,-32.2894771 -56.2413072,-32.2453136 -56.3077142,-32.2003526 -56.3733436,-32.1545803 -56.438196,-32.1079827 -56.5022716,-32.0605461 -56.565571,-32.0122564 -56.6280944,-31.9630997 -56.6898425,-31.9130623 -56.7508155,-31.8621301 -56.8110138,-31.8102893 -56.8704379,-31.7575259 -56.9290882,-31.7038261 -56.9869651,-31.649176 -57.044069,-31.5935617 -57.1004003,-31.5369692 -57.1559594,-31.4793847 -57.2107468,-31.4207943 -57.2647628,-31.361184 -57.3180079,-31.30054 -57.3704825,-31.2388484 -57.4221869,-31.1760953 -57.4731127,-31.1122801 -57.5232336,-31.0474331 -57.5725536,-30.9815436 -57.6210793,-30.9145973 -57.6688175,-30.84658 -57.7157746,-30.7774775 -57.7619573,-30.7072755 -57.8073721,-30.6359597 -57.8520257,-30.563516 -57.8959247,-30.48993 -57.9390756,-30.4151876 -57.9814852,-30.3392745 -58.0231598,-30.2621765 -58.0641063,-30.1838792 -58.1043311,-30.1043685 -58.1438409,-30.0236301 -58.1826423,-29.9416498 -58.2207418,-29.8584134 -58.2581461,-29.7739065 -58.2948618,-29.688115 -58.3308954,-29.6010246 -58.3662536,-29.5126211 -58.400943,-29.4228902 -58.4349701,-29.3318177 -58.4683416,-29.2393893 -58.5010641,-29.1455908 -58.5331442,-29.0504079 -58.5645884,-28.9538265 -58.5954034,-28.8558322 -58.6255957,-28.7564109 -58.655204,-28.6554359 -58.6842723,-28.5527424 -58.7128032,-28.4483007 -58.7407989,-28.3420819 -58.7682618,-28.2340566 -58.7951944,-28.1241958 -58.8215989,-28.0124703 -58.8474777,-27.898851 -58.8728331,-27.7833087 -58.8976675,-27.6658143 -58.9219833,-27.5463387 -58.9457829,-27.4248527 -58.9690684,-27.3013272 -58.9918424,-27.175733 -59.0141072,-27.0480411 -59.0358651,-26.9182222 -59.0571185,-26.7862471 -59.0778697,-26.6520869 -59.0981211,-26.5157123 -59.1178751,-26.3770942 -59.1371339,-26.2362035 -59.1559,-26.0930109 -59.1741757,-25.9474875 -59.1831304,-25.8738425 -59.1919634,-25.7996039 -59.200675,-25.724768 -59.2092654,-25.6493312 -59.217735,-25.5732898 -59.226084,-25.4966401 -59.2343128,-25.4193786 -59.2424217,-25.3415015 -59.2504109,-25.2630053 -59.2582807,-25.1838863 -59.2660315,-25.1041408 -59.2736635,-25.0237653 -59.281177,-24.942756 -59.2885723,-24.8611094 -59.2958498,-24.7788217 -59.3030096,-24.6958894 -59.3100522,-24.6123088 -59.3169777,-24.5280763 -59.3237865,-24.4431882 -59.3304789,-24.3576408 -59.3370552,-24.2714306 -59.3435156,-24.1845538 -59.3498605,-24.0970069 -59.3560902,-24.0087863 -59.3622049,-23.9198881 -59.3682049,-23.8303089 -59.3740906,-23.740045 -59.3798623,-23.6490927 -59.3855201,-23.5574484 -59.3910645,-23.4651084 -59.3964957,-23.3720692 -59.401814,-23.278327 -59.4070197,-23.1838782 -59.4121131,-23.0887192 -59.4170945,-22.9928463 -59.4219642,-22.896256 -59.4267225,-22.7989444 -59.4313697,-22.7009081 -59.435906,-22.6021434 -59.4403318,-22.5026465 -59.4446473,-22.402414 -59.4488529,-22.3014421 -59.4529489,-22.1997272 -59.4569354,-22.0972656 -59.460813,-21.9940538 -59.4645817,-21.890088 -59.468242,-21.7853646 -59.4717941,-21.67988 -59.4752383,-21.5736306 -59.4785749,-21.4666126 -59.4818042,-21.3588225 -59.4849265,-21.2502566 -59.4879421,-21.1409113 -59.4908513,-21.0307829 -59.4936544,-20.9198678 -59.4963516,-20.8081624 -59.4989433,-20.6956629 -59.5014298,-20.5823658 -59.5038113,-20.4682674 -59.5060882,-20.3533641 -59.5082607,-20.2376521 -59.5103291,-20.121128 -59.5122938,-20.0037881 -59.514155,-19.8856286 -59.5159131,-19.766646 -59.5175682,-19.6468366 -59.5191207,-19.5261967 -59.520571,-19.4047228 -59.5219193,-19.2824112 -59.5231658,-19.1592582 -59.5243109,-19.0352603 -59.5253549,-18.9104137 -59.5262981,-18.7847148 -59.5271408,-18.65816 -59.5278832,-18.5307456 -59.5285256,-18.402468 -59.5290685,-18.2733235 -59.5295119,-18.1433086 -59.5298563,-18.0124195 -59.530102,-17.8806526 -59.5302492,-17.7480043 -59.5302981,-17.614471 -59.5302981,-17.614471 -59.5302527,-17.4859102 -59.5301164,-17.3581784 -59.5298889,-17.2312724 -59.5295699,-17.1051886 -59.5291593,-16.9799238 -59.5286568,-16.8554746 -59.5280621,-16.7318376 -59.5273751,-16.6090095 -59.5265955,-16.4869868 -59.525723,-16.3657664 -59.5247575,-16.2453447 -59.5236986,-16.1257184 -59.5225462,-16.0068841 -59.5213,-15.8888386 -59.5199597,-15.7715784 -59.5185252,-15.6551002 -59.5169962,-15.5394006 -59.5153724,-15.4244762 -59.5136537,-15.3103237 -59.5118398,-15.1969398 -59.5099304,-15.084321 -59.5079253,-14.972464 -59.5058243,-14.8613655 -59.5036271,-14.751022 -59.5013336,-14.6414302 -59.4989434,-14.5325868 -59.4964563,-14.4244884 -59.4938722,-14.3171316 -59.4911906,-14.2105131 -59.4884115,-14.1046295 -59.4855346,-13.9994774 -59.4825597,-13.8950535 -59.4794864,-13.7913545 -59.4763146,-13.6883769 -59.473044,-13.5861174 -59.4696745,-13.4845726 -59.4662057,-13.3837392 -59.4626374,-13.2836138 -59.4589694,-13.184193 -59.4552015,-13.0854736 -59.4513334,-12.9874521 -59.4473648,-12.8901251 -59.4432956,-12.7934893 -59.4391255,-12.6975414 -59.4348543,-12.602278 -59.4304816,-12.5076956 -59.4260074,-12.4137911 -59.4214314,-12.3205609 -59.4167532,-12.2280017 -59.4119728,-12.1361103 -59.4070897,-12.0448831 -59.4021039,-11.9543169 -59.3970151,-11.8644082 -59.391823,-11.7751538 -59.3865274,-11.6865503 -59.381128,-11.5985942 -59.3756247,-11.5112823 -59.3700172,-11.4246111 -59.3643052,-11.3385774 -59.3584885,-11.2531777 -59.3525669,-11.1684087 -59.3465402,-11.084267 -59.340408,-11.0007493 -59.3341702,-10.9178522 -59.3278266,-10.8355724 -59.3213768,-10.7539064 -59.3148207,-10.6728509 -59.308158,-10.5924026 -59.3013885,-10.5125581 -59.2945119,-10.433314 -59.287528,-10.354667 -59.2804367,-10.2766137 -59.2659303,-10.1222748 -59.2509911,-9.9702704 -59.235617,-9.8205736 -59.2198061,-9.6731574 -59.2035566,-9.5279951 -59.1868665,-9.3850597 -59.169734,-9.2443244 -59.1521572,-9.1057621 -59.1341342,-8.9693461 -59.1156631,-8.8350494 -59.0967419,-8.7028452 -59.0773689,-8.5727065 -59.057542,-8.4446064 -59.0372594,-8.3185182 -59.0165193,-8.1944147 -58.9953197,-8.0722693 -58.9736587,-7.9520549 -58.9515344,-7.8337447 -58.9289449,-7.7173118 -58.9058884,-7.6027293 -58.8823629,-7.4899702 -58.8583666,-7.3790078 -58.8338975,-7.2698151 -58.8089538,-7.1623652 -58.7835336,-7.0566312 -58.7576075,-6.9524757 -58.7311449,-6.8497733 -58.7041406,-6.7485093 -58.6765894,-6.6486694 -58.6484861,-6.5502391 -58.6198255,-6.4532039 -58.5906024,-6.3575493 -58.5608117,-6.2632608 -58.5304481,-6.1703239 -58.4995064,-6.0787243 -58.4679814,-5.9884474 -58.435868,-5.8994787 -58.4031609,-5.8118037 -58.3698549,-5.725408 -58.3359449,-5.6402771 -58.3014256,-5.5563966 -58.2662919,-5.4737519 -58.2305386,-5.3923285 -58.1941604,-5.3121121 -58.1571522,-5.233088 -58.1195087,-5.1552419 -58.0812248,-5.0785593 -58.0422953,-5.0030257 -58.002715,-4.9286265 -57.9624786,-4.8553474 -57.921581,-4.7831738 -57.8800171,-4.7120913 -57.8377815,-4.6420855 -57.7948691,-4.5731417 -57.751266,-4.5052328 -57.7069184,-4.4382772 -57.6618112,-4.3722551 -57.6159365,-4.3071576 -57.5692862,-4.2429756 -57.5218522,-4.1797 -57.4736266,-4.1173219 -57.4246014,-4.0558322 -57.3747683,-3.995222 -57.3241196,-3.935482 -57.272647,-3.8766034 -57.2203426,-3.8185771 -57.1671984,-3.761394 -57.1132063,-3.7050451 -57.0583583,-3.6495215 -57.0026464,-3.594814 -56.9460625,-3.5409136 -56.8885986,-3.4878113 -56.8302467,-3.4354981 -56.7709987,-3.3839649 -56.7108466,-3.3332027 -56.6497824,-3.2832025 -56.587798,-3.2339553 -56.5248855,-3.1854519 -56.4610367,-3.1376834 -56.3962437,-3.0906408 -56.3304985,-3.0443149 -56.2637557,-2.9986708 -56.1959317,-2.9536508 -56.1270102,-2.9092479 -56.0569768,-2.8654564 -55.985817,-2.8222707 -55.9135166,-2.779685 -55.8400609,-2.7376936 -55.7654357,-2.696291 -55.6896264,-2.6554714 -55.6126187,-2.6152292 -55.5343982,-2.5755586 -55.4549504,-2.536454 -55.3742609,-2.4979097 -55.2923152,-2.4599201 -55.209099,-2.4224794 -55.1245979,-2.385582 -55.0387973,-2.3492222 -54.951683,-2.3133944 -54.8632404,-2.2780928 -54.7734551,-2.2433117 -54.6823128,-2.2090456 -54.589799,-2.1752887 -54.4958992,-2.1420353 -54.4005991,-2.1092798 -54.3038842,-2.0770165 -54.2057402,-2.0452397 -54.1061525,-2.0139437 -54.0051068,-1.9831228 -53.9025887,-1.9527715 -53.7985837,-1.9228839 -53.6930611,-1.8934485 -53.5858185,-1.8643948 -53.4767645,-1.8357023 -53.3658548,-1.8073687 -53.2530452,-1.7793919 -53.1382915,-1.7517697 -53.0215494,-1.7245 -52.9027748,-1.6975804 -52.7819233,-1.6710089 -52.6589508,-1.6447832 -52.5338131,-1.6189011 -52.4064659,-1.5933606 -52.276865,-1.5681593 -52.1449662,-1.543295 -52.0107252,-1.5187657 -51.9427126,-1.506626 -51.8740979,-1.4945691 -51.8048756,-1.4825949 -51.7350401,-1.470703 -51.6645858,-1.4588932 -51.5935074,-1.4471653 -51.5217991,-1.4355188 -51.4494556,-1.4239537 -51.3764713,-1.4124695 -51.3028407,-1.401066 -51.2285582,-1.389743 -51.1536182,-1.3785001 -51.0780154,-1.3673372 -51.0017441,-1.3562538 -50.9247988,-1.3452498 -50.8471741,-1.3343249 -50.7688642,-1.3234788 -50.6898639,-1.3127112 -50.6101674,-1.3020219 -50.5297693,-1.2914105 -50.4486641,-1.2808768 -50.3668462,-1.2704206 -50.28431,-1.2600416 -50.2010502,-1.2497394 -50.1170611,-1.2395138 -50.0323372,-1.2293646 -49.946873,-1.2192914 -49.860663,-1.2092941 -49.7737016,-1.1993722 -49.6859833,-1.1895256 -49.5975025,-1.179754 -49.5082538,-1.170057 -49.4182317,-1.1604345 -49.3274305,-1.1508862 -49.2358448,-1.1414117 -49.143469,-1.1320108 -49.0502976,-1.1226832 -48.9563251,-1.1134287 -48.861546,-1.104247 -48.7659547,-1.0951378 -48.6695457,-1.0861009 -48.5723134,-1.0771358 -48.4742524,-1.0682425 -48.3753571,-1.0594206 -48.275622,-1.0506699 -48.1750416,-1.04199 -48.0736102,-1.0333807 -47.9713225,-1.0248417 -47.8681729,-1.0163727 -47.7641558,-1.0079736 -47.6592657,-0.9996439 -47.5534971,-0.9913835 -47.4468445,-0.983192 -47.3393023,-0.9750692 -47.230865,-0.9670148 -47.1215271,-0.9590285 -47.011283,-0.9511101 -46.9001273,-0.9432593 -46.7880543,-0.9354758 -46.6750587,-0.9277593 -46.5611347,-0.9201096 -46.446277,-0.9125264 -46.33048,-0.9050094 -46.2137381,-0.8975583 -46.0960458,-0.8901729 -45.9773977,-0.8828529 -45.8577881,-0.8755981 -45.7372116,-0.868408 -45.6156626,-0.8612826 -45.4931355,-0.8542215 -45.369625,-0.8472243 -45.2451253,-0.840291 -45.1196311,-0.8334211 -44.9931367,-0.8266144 -44.8656367,-0.8198707 -44.7371256,-0.8131896 -44.6075977,-0.806571 -44.4770475,-0.8000144 -44.3454697,-0.7935196 -44.2128585,-0.7870865 -44.0792085,-0.7807146 -43.9445142,-0.7744038 -43.80877,-0.7681537 -43.6719704,-0.761964 -43.5341098,-0.7558346 -43.3951828,-0.7497651 -43.2551839,-0.7437552 -43.1141074,-0.7378048 -42.9719478,-0.7319134 -42.8286997,-0.7260808 -42.6843576,-0.7203069 -42.5389157,-0.7145912 -42.3923688,-0.7089335 -42.2447111,-0.7033335 -42.0959373,-0.697791 -41.9460417,-0.6923057 -41.7950188,-0.6868774 -41.6428632,-0.6815056 -41.4895692,-0.6761902 -41.3351314,-0.670931 -41.1795442,-0.6657275 -41.0228022,-0.6605796 -40.8648997,-0.655487 -40.7058312,-0.6504494 -40.5455912,-0.6454665 -40.3841743,-0.640538 -40.2215748,-0.6356638 -40.0577872,-0.6308434 -39.892806,-0.6260767 -39.7266257,-0.6213633 -39.5592408,-0.616703 -39.3906456,-0.6120956 -39.2208348,-0.6075407 -39.0498027,-0.603038 -38.8775439,-0.5985873 -38.7040527,-0.5941884 -38.5293238,-0.5898409 -38.3533515,-0.5855446 -38.1761303,-0.5812991 -37.9976547,-0.5771043 -37.8179192,-0.5729599 -37.6369183,-0.5688655 -37.4546463,-0.5648209 -37.2710978,-0.5608259 -37.0862673,-0.5568801 -36.9001492,-0.5529833 -36.7127381,-0.5491352 -36.5240283,-0.5453356 -36.3340143,-0.5415841 -36.1426907,-0.5378805 -35.9500518,-0.5342245 -35.7560922,-0.5306158 -35.5608064,-0.5270543 -35.3641887,-0.5235395 -35.1662338,-0.5200712 -34.9669359,-0.5166492 -34.7662898,-0.5132732 -34.5642897,-0.5099428 -34.3609301,-0.5066579 -34.1562057,-0.5034182 -33.9501107,-0.5002233 -33.7426397,-0.497073 -33.5337872,-0.4939671 -33.3235476,-0.4909052 -33.1119153,-0.4878871 -32.898885,-0.4849125 -32.684451,-0.4819812 -32.4686079,-0.4790928 -32.25135,-0.4762471 -32.0326719,-0.4734439 -31.812568,-0.4706827 -31.5910328,-0.4679635 -31.3680608,-0.4652858 -31.1436465,-0.4626495 -30.9177842,-0.4600542 -30.6904686,-0.4574997 -30.461694,-0.4549857 -30.231455,-0.452512 -29.999746,-0.4500781 -29.7665615,-0.447684 -29.5318959,-0.4453293 -29.2957437,-0.4430137 -29.0580995,-0.440737 -28.8189576,-0.4384988 -28.5783126,-0.436299 -28.3361589,-0.4341372 -28.0924909,-0.4320132 -27.8473033,-0.4299267 -27.6005903,-0.4278774 -27.3523466,-0.4258651 -27.1025665,-0.4238894 -26.8512446,-0.4219501 -26.5983754,-0.420047 -26.3439532,-0.4181797 -26.0879725,-0.4163479 -25.8304279,-0.4145515 -25.5713139,-0.4127902 -25.3106248,-0.4110635 -25.0483551,-0.4093714 -24.7844994,-0.4077135 -24.5190521,-0.4060895 -24.2520077,-0.4044992 -23.9833606,-0.4029422 -23.7131053,-0.4014184 -23.4412363,-0.3999275 -23.167748,-0.3984691 -22.892635,-0.3970429 -22.6158917,-0.3956489 -22.6158917,-0.3956489 -22.5781133,-0.4224027 -22.5415159,-0.4508958 -22.5060604,-0.481109 -22.4717585,-0.512973 -22.4387101,-0.5463078 -22.4068721,-0.5810504 -22.3761919,-0.6171457 -22.3466168,-0.6545391 -22.3180944,-0.6931758 -22.2905721,-0.7330009 -22.2639973,-0.7739596 -22.2383174,-0.8159972 -22.21348,-0.8590589 -22.1894323,-0.9030898 -22.1661219,-0.9480351 -22.1434938,-0.9938471 -22.121491,-1.0404895 -22.1000633,-1.0879102 -22.0791609,-1.1360564 -22.058734,-1.1848749 -22.0387328,-1.2343129 -22.0191074,-1.2843175 -21.9807849,-1.3858146 -21.9433681,-1.4889428 -21.9064584,-1.5932784 -21.8325664,-1.8038781 -21.794787,-1.9092952 -21.7559207,-2.0142259 -21.715569,-2.1182465 -21.6947115,-2.1697832 -21.6733402,-2.2209179 -21.6514184,-2.2715716 -21.6288946,-2.3217016 -21.6057166,-2.3712665 -21.5818325,-2.4202248 -21.5571901,-2.4685351 -21.5317374,-2.5161559 -21.5054224,-2.5630457 -21.478193,-2.609163 -21.4499971,-2.6544664 -21.4207828,-2.6989144 -21.3904979,-2.7424655 -21.3590904,-2.7850782 -21.3265326,-2.8266809 -21.2929808,-2.8669946 -21.2584424,-2.9059646 -21.2228794,-2.9435956 -21.1862543,-2.9798922 -21.1485291,-3.0148593 -21.1096663,-3.0485014 -21.0696279,-3.0808233 -21.0283764,-3.1118296 -20.9858738,-3.1415252 -20.9420826,-3.1699147 -20.8969648,-3.1970027 A1.25,1.25 240 0,1 -19.6469648,-3.1970027 L-19.6469648,-3.1970027 -19.6007517,-3.1693674 -19.5556175,-3.1404243 -19.5115557,-3.1101362 -19.4685598,-3.078466 -19.4266234,-3.0453766 -19.3857399,-3.0108307 -19.3459028,-2.9747911 -19.3071567,-2.9372722 -19.2698143,-2.898592 -19.2338867,-2.858821 -19.1993214,-2.8179698 -19.1660663,-2.7760493 -19.1340691,-2.7330702 -19.1032773,-2.6890433 -19.0736416,-2.643984 -19.0452116,-2.5980737 -19.0179788,-2.5514329 -18.991882,-2.5041039 -18.9668596,-2.456129 -18.9428502,-2.4075506 -18.9197924,-2.358411 -18.8976249,-2.3087525 -18.8762862,-2.2586173 -18.8557149,-2.208048 -18.8358495,-2.1570867 -18.8166288,-2.1057758 -18.7798753,-2.0022746 -18.7449643,-1.8978859 -18.7114411,-1.7930678 -18.6788431,-1.6882713 -18.6466928,-1.5839056 -18.614513,-1.4803798 -18.5818261,-1.3781032 -18.548155,-1.2774849 -18.5308011,-1.2279254 -18.5130222,-1.178934 -18.4947584,-1.1305617 -18.4759502,-1.0828597 -18.456538,-1.0358792 -18.4364619,-0.9896712 -18.4156156,-0.9441882 -18.3937379,-0.8990987 -18.3707341,-0.854479 -18.346531,-0.8104531 -18.3210551,-0.7671451 -18.2942331,-0.7246792 -18.2659917,-0.6831794 -18.2362575,-0.6427697 -18.2049571,-0.6035744 -18.1720425,-0.5657438 -18.1377389,-0.5296749 -18.1020777,-0.4954766 -18.0650085,-0.4631625 -18.0459302,-0.4477162 -18.026481,-0.432746 -18.0066545,-0.4182536 -17.9864445,-0.4042408 -17.9658447,-0.3907091 -17.9448488,-0.3776603 -17.9448488,-0.3776603 -17.297905,-0.3758899 -16.6529258,-0.374276 -16.0102412,-0.3728117 -15.3667777,-0.3714833 -14.7215015,-0.3702839 -14.0747675,-0.3692094 -13.4269304,-0.3682559 -12.7783451,-0.3674196 -11.4803487,-0.3660823 -10.8316472,-0.3655736 -10.1836166,-0.3651661 -9.5366116,-0.3648561 -8.890987,-0.3646395 -8.2470976,-0.3645125 -7.6052981,-0.364471 -7.6052981,-0.364471 -7.4180643,-0.3644821 -7.2301233,-0.3645156 -7.0414889,-0.3645722 -6.852175,-0.3646522 -6.6621954,-0.3647564 -6.4715639,-0.364885 -6.2802942,-0.3650388 -6.0884003,-0.3652182 -5.7027949,-0.3656557 -5.3148581,-0.3662019 -4.9247004,-0.3668608 -4.5324323,-0.3676366 -4.1381644,-0.3685335 -3.742007,-0.3695556 -3.3440708,-0.370707 -2.9444663,-0.3719919 -2.5433038,-0.3734144 -2.140694,-0.3749788 -1.7367473,-0.3766891 -1.3315743,-0.3785494 -0.9252853,-0.380564 -0.5179911,-0.382737 -0.1098019,-0.3850725 0.2991716,-0.3875747 1.1190296,-0.3930956 1.9406991,-0.3993331 2.763296,-0.4063202 3.5859363,-0.4140902 4.4077359,-0.4226763 5.2278109,-0.4321115 5.6369254,-0.4371579 6.0452773,-0.4424291 6.4527559,-0.4479292 6.8592509,-0.4536624 7.2646518,-0.4596327 7.6688479,-0.4658444 8.0717289,-0.4723015 8.4731842,-0.4790083 8.8731034,-0.4859689 9.2713758,-0.4931874 9.6678911,-0.500668 10.0625387,-0.5084149 10.4552081,-0.5164321 10.8457888,-0.5247238 11.2341703,-0.5332942 11.6202454,-0.5421475 11.8132035,-0.5466991 12.0069813,-0.5513549 12.2015492,-0.5561169 12.3968772,-0.560987 12.5929355,-0.5659672 12.7896941,-0.5710594 12.9871232,-0.5762656 13.185193,-0.5815876 13.583135,-0.592587 13.983281,-0.604073 14.3853922,-0.6160612 14.7892295,-0.628567 15.194554,-0.641606 15.6011266,-0.6551935 16.0087085,-0.6693451 16.4170606,-0.6840762 16.825944,-0.6994022 17.2351196,-0.7153388 17.6443486,-0.7319013 18.053392,-0.7491052z" transform="matrix(1,0,0,-1,60.6052981,0.385529)" fill="rgb(255,255,255)" stroke="rgb(0,0,0)" stroke-width="0.0010cm" stroke-linecap="round" stroke-linejoin="round" /><path d="M57.4997019,-2.114471 a0.395,0.395 0 1,1 0.79,0 a0.395,0.395 0 1,1 -0.79,0z" transform="matrix(1,0,0,-1,60.6052981,0.385529)" fill="rgb(255,255,255)" stroke="rgb(0,0,0)" stroke-width="0.0010cm" stroke-linecap="round" stroke-linejoin="round" /><path d="M19.6663685,-2.114471 a0.395,0.395 0 1,1 0.79,0 a0.395,0.395 0 1,1 -0.79,0z" transform="matrix(1,0,0,-1,60.6052981,0.385529)" fill="rgb(255,255,255)" stroke="rgb(0,0,0)" stroke-width="0.0010cm" stroke-linecap="round" stroke-linejoin="round" /><path d="M19.6663685,-33.114471 a0.395,0.395 0 1,1 0.79,0 a0.395,0.395 0 1,1 -0.79,0z" transform="matrix(1,0,0,-1,60.6052981,0.385529)" fill="rgb(255,255,255)" stroke="rgb(0,0,0)" stroke-width="0.0010cm" stroke-linecap="round" stroke-linejoin="round" /><path d="M-58.5002981,-2.114471 a0.395,0.395 0 1,1 0.79,0 a0.395,0.395 0 1,1 -0.79,0z" transform="matrix(1,0,0,-1,60.6052981,0.385529)" fill="rgb(255,255,255)" stroke="rgb(0,0,0)" stroke-width="0.0010cm" stroke-linecap="round" stroke-linejoin="round" /><path d="M-20.6669648,-33.114471 a0.395,0.395 0 1,1 0.79,0 a0.395,0.395 0 1,1 -0.79,0z" transform="matrix(1,0,0,-1,60.6052981,0.385529)" fill="rgb(255,255,255)" stroke="rgb(0,0,0)" stroke-width="0.0010cm" stroke-linecap="round" stroke-linejoin="round" /><path d="M57.4997019,-33.114471 a0.395,0.395 0 1,1 0.79,0 a0.395,0.395 0 1,1 -0.79,0z" transform="matrix(1,0,0,-1,60.6052981,0.385529)" fill="rgb(255,255,255)" stroke="rgb(0,0,0)" stroke-width="0.0010cm" stroke-linecap="round" stroke-linejoin="round" /><path d="M-20.6669648,-2.114471 a0.395,0.395 0 1,1 0.79,0 a0.395,0.395 0 1,1 -0.79,0z" transform="matrix(1,0,0,-1,60.6052981,0.385529)" fill="rgb(255,255,255)" stroke="rgb(0,0,0)" stroke-width="0.0010cm" stroke-linecap="round" stroke-linejoin="round" /><path d="M-58.5002981,-33.114471 a0.395,0.395 0 1,1 0.79,0 a0.395,0.395 0 1,1 -0.79,0z" transform="matrix(1,0,0,-1,60.6052981,0.385529)" fill="rgb(255,255,255)" stroke="rgb(0,0,0)" stroke-width="0.0010cm" stroke-linecap="round" stroke-linejoin="round" /></svg>