<?xml version="1.0" encoding="UTF-8" standalone="no"?>
<!-- Generator: Fusion 360, Shaper Origin Export Add-In, Version 1.8.0  -->

<svg
   shaper:fusionaddin="version:1.8.0"
   width="128cm"
   height="36cm"
   version="1.1"
   x="0cm"
   y="0cm"
   viewBox="0 0 128 36"
   enable-background="new 0 0 128 36"
   xml:space="preserve"
   id="svg70"
   sodipodi:docname="corpus_6_Faces.svg"
   inkscape:version="1.2.2 (732a01da63, 2022-12-09)"
   xmlns:inkscape="http://www.inkscape.org/namespaces/inkscape"
   xmlns:sodipodi="http://sodipodi.sourceforge.net/DTD/sodipodi-0.dtd"
   xmlns="http://www.w3.org/2000/svg"
   xmlns:svg="http://www.w3.org/2000/svg"
   xmlns:shaper="http://www.shapertools.com/namespaces/shaper"><defs
     id="defs74" /><sodipodi:namedview
     id="namedview72"
     pagecolor="#505050"
     bordercolor="#eeeeee"
     borderopacity="1"
     inkscape:showpageshadow="0"
     inkscape:pageopacity="0"
     inkscape:pagecheckerboard="0"
     inkscape:deskcolor="#505050"
     inkscape:document-units="cm"
     showgrid="false"
     inkscape:zoom="0.27078451"
     inkscape:cx="2306.2619"
     inkscape:cy="681.35361"
     inkscape:window-width="1920"
     inkscape:window-height="991"
     inkscape:window-x="-9"
     inkscape:window-y="-9"
     inkscape:window-maximized="1"
     inkscape:current-layer="svg70" /><g
     id="g337"
     style="fill:none;stroke:#000000;stroke-opacity:1;stroke-width:0.1;stroke-dasharray:none"><path
       d="M60.6562575,0.0970127 A1.4,1.4 0 0,1 59.2562575,1.4970127 L-65.9437425,1.4970127 A1.4,1.4 90 0,1 -67.3437425,0.0970127 L-67.3437425,-33.1029873 A1.4,1.4 180 0,1 -65.9437425,-34.5029873 L59.2562575,-34.5029873 A1.4,1.4 270 0,1 60.6562575,-33.1029873 L60.6562575,0.0970127z"
       transform="matrix(1,0,0,-1,67.3437425,1.4970127)"
       fill="rgb(0,0,0)"
       stroke-linecap="round"
       stroke-linejoin="round"
       id="path2"
       style="fill:none;stroke:#000000;stroke-opacity:1;stroke-width:0.1;stroke-dasharray:none" /><path
       d="M42.8479241,-0.1029873 a0.475,0.475 0 1,1 0.95,0 a0.475,0.475 0 1,1 -0.95,0z"
       transform="matrix(1,0,0,-1,67.3437425,1.4970127)"
       fill="rgb(255,255,255)"
       stroke="rgb(0,0,0)"
       stroke-width="0.0010cm"
       stroke-linecap="round"
       stroke-linejoin="round"
       id="path4"
       style="fill:none;stroke:#000000;stroke-opacity:1;stroke-width:0.1;stroke-dasharray:none" /><path
       d="M34.3479241,-0.1029873 a0.475,0.475 0 1,1 0.95,0 a0.475,0.475 0 1,1 -0.95,0z"
       transform="matrix(1,0,0,-1,67.3437425,1.4970127)"
       fill="rgb(255,255,255)"
       stroke="rgb(0,0,0)"
       stroke-width="0.0010cm"
       stroke-linecap="round"
       stroke-linejoin="round"
       id="path6"
       style="fill:none;stroke:#000000;stroke-opacity:1;stroke-width:0.1;stroke-dasharray:none" /><path
       d="M13.0145908,-0.1029873 a0.475,0.475 0 1,1 0.95,0 a0.475,0.475 0 1,1 -0.95,0z"
       transform="matrix(1,0,0,-1,67.3437425,1.4970127)"
       fill="rgb(255,255,255)"
       stroke="rgb(0,0,0)"
       stroke-width="0.0010cm"
       stroke-linecap="round"
       stroke-linejoin="round"
       id="path8"
       style="fill:none;stroke:#000000;stroke-opacity:1;stroke-width:0.1;stroke-dasharray:none" /><path
       d="M-8.3187425,-0.1029873 a0.475,0.475 0 1,1 0.95,0 a0.475,0.475 0 1,1 -0.95,0z"
       transform="matrix(1,0,0,-1,67.3437425,1.4970127)"
       fill="rgb(255,255,255)"
       stroke="rgb(0,0,0)"
       stroke-width="0.0010cm"
       stroke-linecap="round"
       stroke-linejoin="round"
       id="path10"
       style="fill:none;stroke:#000000;stroke-opacity:1;stroke-width:0.1;stroke-dasharray:none" /><path
       d="M-29.6520759,-32.9029873 a0.475,0.475 0 1,1 0.95,0 a0.475,0.475 0 1,1 -0.95,0z"
       transform="matrix(1,0,0,-1,67.3437425,1.4970127)"
       fill="rgb(255,255,255)"
       stroke="rgb(0,0,0)"
       stroke-width="0.0010cm"
       stroke-linecap="round"
       stroke-linejoin="round"
       id="path12"
       style="fill:none;stroke:#000000;stroke-opacity:1;stroke-width:0.1;stroke-dasharray:none" /><path
       d="M-21.1520759,-32.9029873 a0.475,0.475 0 1,1 0.95,0 a0.475,0.475 0 1,1 -0.95,0z"
       transform="matrix(1,0,0,-1,67.3437425,1.4970127)"
       fill="rgb(255,255,255)"
       stroke="rgb(0,0,0)"
       stroke-width="0.0010cm"
       stroke-linecap="round"
       stroke-linejoin="round"
       id="path14"
       style="fill:none;stroke:#000000;stroke-opacity:1;stroke-width:0.1;stroke-dasharray:none" /><path
       d="M0.1812575,-32.9029873 a0.475,0.475 0 1,1 0.95,0 a0.475,0.475 0 1,1 -0.95,0z"
       transform="matrix(1,0,0,-1,67.3437425,1.4970127)"
       fill="rgb(255,255,255)"
       stroke="rgb(0,0,0)"
       stroke-width="0.0010cm"
       stroke-linecap="round"
       stroke-linejoin="round"
       id="path16"
       style="fill:none;stroke:#000000;stroke-opacity:1;stroke-width:0.1;stroke-dasharray:none" /><path
       d="M21.5145908,-32.9029873 a0.475,0.475 0 1,1 0.95,0 a0.475,0.475 0 1,1 -0.95,0z"
       transform="matrix(1,0,0,-1,67.3437425,1.4970127)"
       fill="rgb(255,255,255)"
       stroke="rgb(0,0,0)"
       stroke-width="0.0010cm"
       stroke-linecap="round"
       stroke-linejoin="round"
       id="path18"
       style="fill:none;stroke:#000000;stroke-opacity:1;stroke-width:0.1;stroke-dasharray:none" /><path
       d="M-25.0870759,-1.0029873 a0.41,0.41 0 1,1 0.82,0 a0.41,0.41 0 1,1 -0.82,0z"
       transform="matrix(1,0,0,-1,67.3437425,1.4970127)"
       fill="rgb(255,255,255)"
       stroke="rgb(0,0,0)"
       stroke-width="0.0010cm"
       stroke-linecap="round"
       stroke-linejoin="round"
       id="path20"
       style="fill:none;stroke:#000000;stroke-opacity:1;stroke-width:0.1;stroke-dasharray:none" /><path
       d="M57.7462575,-1.0029873 a0.41,0.41 0 1,1 0.82,0 a0.41,0.41 0 1,1 -0.82,0z"
       transform="matrix(1,0,0,-1,67.3437425,1.4970127)"
       fill="rgb(255,255,255)"
       stroke="rgb(0,0,0)"
       stroke-width="0.0010cm"
       stroke-linecap="round"
       stroke-linejoin="round"
       id="path22"
       style="fill:none;stroke:#000000;stroke-opacity:1;stroke-width:0.1;stroke-dasharray:none" /><path
       d="M57.7462575,-32.0029873 a0.41,0.41 0 1,1 0.82,0 a0.41,0.41 0 1,1 -0.82,0z"
       transform="matrix(1,0,0,-1,67.3437425,1.4970127)"
       fill="rgb(255,255,255)"
       stroke="rgb(0,0,0)"
       stroke-width="0.0010cm"
       stroke-linecap="round"
       stroke-linejoin="round"
       id="path24"
       style="fill:none;stroke:#000000;stroke-opacity:1;stroke-width:0.1;stroke-dasharray:none" /><path
       d="M-65.2537425,-1.0029873 a0.41,0.41 0 1,1 0.82,0 a0.41,0.41 0 1,1 -0.82,0z"
       transform="matrix(1,0,0,-1,67.3437425,1.4970127)"
       fill="rgb(255,255,255)"
       stroke="rgb(0,0,0)"
       stroke-width="0.0010cm"
       stroke-linecap="round"
       stroke-linejoin="round"
       id="path26"
       style="fill:none;stroke:#000000;stroke-opacity:1;stroke-width:0.1;stroke-dasharray:none" /><path
       d="M17.5795908,-1.0029873 a0.41,0.41 0 1,1 0.82,0 a0.41,0.41 0 1,1 -0.82,0z"
       transform="matrix(1,0,0,-1,67.3437425,1.4970127)"
       fill="rgb(255,255,255)"
       stroke="rgb(0,0,0)"
       stroke-width="0.0010cm"
       stroke-linecap="round"
       stroke-linejoin="round"
       id="path28"
       style="fill:none;stroke:#000000;stroke-opacity:1;stroke-width:0.1;stroke-dasharray:none" /><path
       d="M17.5795908,-32.0029873 a0.41,0.41 0 1,1 0.82,0 a0.41,0.41 0 1,1 -0.82,0z"
       transform="matrix(1,0,0,-1,67.3437425,1.4970127)"
       fill="rgb(255,255,255)"
       stroke="rgb(0,0,0)"
       stroke-width="0.0010cm"
       stroke-linecap="round"
       stroke-linejoin="round"
       id="path30"
       style="fill:none;stroke:#000000;stroke-opacity:1;stroke-width:0.1;stroke-dasharray:none" /><path
       d="M-25.0870759,-32.0029873 a0.41,0.41 0 1,1 0.82,0 a0.41,0.41 0 1,1 -0.82,0z"
       transform="matrix(1,0,0,-1,67.3437425,1.4970127)"
       fill="rgb(255,255,255)"
       stroke="rgb(0,0,0)"
       stroke-width="0.0010cm"
       stroke-linecap="round"
       stroke-linejoin="round"
       id="path32"
       style="fill:none;stroke:#000000;stroke-opacity:1;stroke-width:0.1;stroke-dasharray:none" /><path
       d="M-65.2537425,-32.0029873 a0.41,0.41 0 1,1 0.82,0 a0.41,0.41 0 1,1 -0.82,0z"
       transform="matrix(1,0,0,-1,67.3437425,1.4970127)"
       fill="rgb(255,255,255)"
       stroke="rgb(0,0,0)"
       stroke-width="0.0010cm"
       stroke-linecap="round"
       stroke-linejoin="round"
       id="path34"
       style="fill:none;stroke:#000000;stroke-opacity:1;stroke-width:0.1;stroke-dasharray:none" /><path
       d="M55.6812575,-0.1029873 a0.475,0.475 0 1,1 0.95,0 a0.475,0.475 0 1,1 -0.95,0z"
       transform="matrix(1,0,0,-1,67.3437425,1.4970127)"
       fill="rgb(255,255,255)"
       stroke="rgb(0,0,0)"
       stroke-width="0.0010cm"
       stroke-linecap="round"
       stroke-linejoin="round"
       id="path36"
       style="fill:none;stroke:#000000;stroke-opacity:1;stroke-width:0.1;stroke-dasharray:none" /><path
       d="M-63.8187425,-32.9029873 a0.475,0.475 0 1,1 0.95,0 a0.475,0.475 0 1,1 -0.95,0z"
       transform="matrix(1,0,0,-1,67.3437425,1.4970127)"
       fill="rgb(255,255,255)"
       stroke="rgb(0,0,0)"
       stroke-width="0.0010cm"
       stroke-linecap="round"
       stroke-linejoin="round"
       id="path38"
       style="fill:none;stroke:#000000;stroke-opacity:1;stroke-width:0.1;stroke-dasharray:none" /><path
       d="M55.6812575,-32.9029873 a0.475,0.475 0 1,1 0.95,0 a0.475,0.475 0 1,1 -0.95,0z"
       transform="matrix(1,0,0,-1,67.3437425,1.4970127)"
       fill="rgb(255,255,255)"
       stroke="rgb(0,0,0)"
       stroke-width="0.0010cm"
       stroke-linecap="round"
       stroke-linejoin="round"
       id="path40"
       style="fill:none;stroke:#000000;stroke-opacity:1;stroke-width:0.1;stroke-dasharray:none" /><path
       d="M-63.8187425,-0.1029873 a0.475,0.475 0 1,1 0.95,0 a0.475,0.475 0 1,1 -0.95,0z"
       transform="matrix(1,0,0,-1,67.3437425,1.4970127)"
       fill="rgb(255,255,255)"
       stroke="rgb(0,0,0)"
       stroke-width="0.0010cm"
       stroke-linecap="round"
       stroke-linejoin="round"
       id="path42"
       style="fill:none;stroke:#000000;stroke-opacity:1;stroke-width:0.1;stroke-dasharray:none" /><path
       d="M-42.4854092,-0.1029873 a0.475,0.475 0 1,1 0.95,0 a0.475,0.475 0 1,1 -0.95,0z"
       transform="matrix(1,0,0,-1,67.3437425,1.4970127)"
       fill="rgb(255,255,255)"
       stroke="rgb(0,0,0)"
       stroke-width="0.0010cm"
       stroke-linecap="round"
       stroke-linejoin="round"
       id="path44"
       style="fill:none;stroke:#000000;stroke-opacity:1;stroke-width:0.1;stroke-dasharray:none" /><path
       d="M-50.9854092,-32.9029873 a0.475,0.475 0 1,1 0.95,0 a0.475,0.475 0 1,1 -0.95,0z"
       transform="matrix(1,0,0,-1,67.3437425,1.4970127)"
       fill="rgb(255,255,255)"
       stroke="rgb(0,0,0)"
       stroke-width="0.0010cm"
       stroke-linecap="round"
       stroke-linejoin="round"
       id="path46"
       style="fill:none;stroke:#000000;stroke-opacity:1;stroke-width:0.1;stroke-dasharray:none" /><path
       d="M-42.4854092,-32.9029873 a0.475,0.475 0 1,1 0.95,0 a0.475,0.475 0 1,1 -0.95,0z"
       transform="matrix(1,0,0,-1,67.3437425,1.4970127)"
       fill="rgb(255,255,255)"
       stroke="rgb(0,0,0)"
       stroke-width="0.0010cm"
       stroke-linecap="round"
       stroke-linejoin="round"
       id="path48"
       style="fill:none;stroke:#000000;stroke-opacity:1;stroke-width:0.1;stroke-dasharray:none" /><path
       d="M-50.9854092,-0.1029873 a0.475,0.475 0 1,1 0.95,0 a0.475,0.475 0 1,1 -0.95,0z"
       transform="matrix(1,0,0,-1,67.3437425,1.4970127)"
       fill="rgb(255,255,255)"
       stroke="rgb(0,0,0)"
       stroke-width="0.0010cm"
       stroke-linecap="round"
       stroke-linejoin="round"
       id="path50"
       style="fill:none;stroke:#000000;stroke-opacity:1;stroke-width:0.1;stroke-dasharray:none" /><path
       d="M42.8479241,-32.9029873 a0.475,0.475 0 1,1 0.95,0 a0.475,0.475 0 1,1 -0.95,0z"
       transform="matrix(1,0,0,-1,67.3437425,1.4970127)"
       fill="rgb(255,255,255)"
       stroke="rgb(0,0,0)"
       stroke-width="0.0010cm"
       stroke-linecap="round"
       stroke-linejoin="round"
       id="path52"
       style="fill:none;stroke:#000000;stroke-opacity:1;stroke-width:0.1;stroke-dasharray:none" /><path
       d="M34.3479241,-32.9029873 a0.475,0.475 0 1,1 0.95,0 a0.475,0.475 0 1,1 -0.95,0z"
       transform="matrix(1,0,0,-1,67.3437425,1.4970127)"
       fill="rgb(255,255,255)"
       stroke="rgb(0,0,0)"
       stroke-width="0.0010cm"
       stroke-linecap="round"
       stroke-linejoin="round"
       id="path54"
       style="fill:none;stroke:#000000;stroke-opacity:1;stroke-width:0.1;stroke-dasharray:none" /><path
       d="M13.0145908,-32.9029873 a0.475,0.475 0 1,1 0.95,0 a0.475,0.475 0 1,1 -0.95,0z"
       transform="matrix(1,0,0,-1,67.3437425,1.4970127)"
       fill="rgb(255,255,255)"
       stroke="rgb(0,0,0)"
       stroke-width="0.0010cm"
       stroke-linecap="round"
       stroke-linejoin="round"
       id="path56"
       style="fill:none;stroke:#000000;stroke-opacity:1;stroke-width:0.1;stroke-dasharray:none" /><path
       d="M-8.3187425,-32.9029873 a0.475,0.475 0 1,1 0.95,0 a0.475,0.475 0 1,1 -0.95,0z"
       transform="matrix(1,0,0,-1,67.3437425,1.4970127)"
       fill="rgb(255,255,255)"
       stroke="rgb(0,0,0)"
       stroke-width="0.0010cm"
       stroke-linecap="round"
       stroke-linejoin="round"
       id="path58"
       style="fill:none;stroke:#000000;stroke-opacity:1;stroke-width:0.1;stroke-dasharray:none" /><path
       d="M-29.6520759,-0.1029873 a0.475,0.475 0 1,1 0.95,0 a0.475,0.475 0 1,1 -0.95,0z"
       transform="matrix(1,0,0,-1,67.3437425,1.4970127)"
       fill="rgb(255,255,255)"
       stroke="rgb(0,0,0)"
       stroke-width="0.0010cm"
       stroke-linecap="round"
       stroke-linejoin="round"
       id="path60"
       style="fill:none;stroke:#000000;stroke-opacity:1;stroke-width:0.1;stroke-dasharray:none" /><path
       d="M-21.1520759,-0.1029873 a0.475,0.475 0 1,1 0.95,0 a0.475,0.475 0 1,1 -0.95,0z"
       transform="matrix(1,0,0,-1,67.3437425,1.4970127)"
       fill="rgb(255,255,255)"
       stroke="rgb(0,0,0)"
       stroke-width="0.0010cm"
       stroke-linecap="round"
       stroke-linejoin="round"
       id="path62"
       style="fill:none;stroke:#000000;stroke-opacity:1;stroke-width:0.1;stroke-dasharray:none" /><path
       d="M0.1812575,-0.1029873 a0.475,0.475 0 1,1 0.95,0 a0.475,0.475 0 1,1 -0.95,0z"
       transform="matrix(1,0,0,-1,67.3437425,1.4970127)"
       fill="rgb(255,255,255)"
       stroke="rgb(0,0,0)"
       stroke-width="0.0010cm"
       stroke-linecap="round"
       stroke-linejoin="round"
       id="path64"
       style="fill:none;stroke:#000000;stroke-opacity:1;stroke-width:0.1;stroke-dasharray:none" /><path
       d="M21.5145908,-0.1029873 a0.475,0.475 0 1,1 0.95,0 a0.475,0.475 0 1,1 -0.95,0z"
       transform="matrix(1,0,0,-1,67.3437425,1.4970127)"
       fill="rgb(255,255,255)"
       stroke="rgb(0,0,0)"
       stroke-width="0.0010cm"
       stroke-linecap="round"
       stroke-linejoin="round"
       id="path66"
       style="fill:none;stroke:#000000;stroke-opacity:1;stroke-width:0.1;stroke-dasharray:none" /><path
       d="M44.8399214,0.0548513 L44.8399214,0.0548513 45.0279654,0.0437471 45.2137728,0.0324992 45.3973628,0.0211067 45.5787549,0.0095688 45.7579683,-0.0021155 45.9350223,-0.0139471 46.1099362,-0.0259269 46.2827293,-0.0380558 46.453421,-0.0503347 46.6220305,-0.0627645 46.7885771,-0.0753461 46.9530802,-0.0880804 47.115559,-0.1009684 47.2760329,-0.1140109 47.4345212,-0.1272089 47.5910431,-0.1405632 47.745618,-0.1540747 47.8982652,-0.1677444 48.049004,-0.1815732 48.1978536,-0.1955619 48.3448335,-0.2097115 48.4899628,-0.2240229 48.633261,-0.238497 48.7747473,-0.2531346 48.914441,-0.2679368 49.0523614,-0.2829044 49.1885278,-0.2980383 49.3229596,-0.3133394 49.4556761,-0.3288086 49.5866964,-0.3444468 49.7160401,-0.360255 49.8437263,-0.3762341 49.9697743,-0.3923848 50.0942035,-0.4087083 50.2170332,-0.4252052 50.3382827,-0.4418767 50.4579713,-0.4587235 50.5761182,-0.4757466 50.6927429,-0.4929469 50.8078645,-0.5103252 50.9215025,-0.5278826 51.0336761,-0.5456198 51.1444046,-0.5635379 51.2537073,-0.5816377 51.3616036,-0.59992 51.4681127,-0.618386 51.5732539,-0.6370363 51.6770466,-0.655872 51.7795101,-0.6748939 51.8806636,-0.6941029 51.9805264,-0.7135 52.079118,-0.7330861 52.1764575,-0.752862 52.2725643,-0.7728287 52.3674577,-0.7929871 52.461157,-0.8133381 52.5536815,-0.8338825 52.6450504,-0.8546213 52.7352832,-0.8755555 52.8243991,-0.8966858 52.9124175,-0.9180133 52.999358,-0.9395389 53.0853204,-0.9612911 53.1703733,-0.9832916 53.2545233,-1.0055429 53.3377769,-1.0280472 53.4201407,-1.0508068 53.5016213,-1.073824 53.5822252,-1.0971011 53.661959,-1.1206404 53.7408293,-1.1444443 53.8188426,-1.168515 53.8960054,-1.1928547 53.9723244,-1.2174659 54.0478062,-1.2423508 54.1224572,-1.2675118 54.1962841,-1.292951 54.2692933,-1.3186709 54.3414916,-1.3446736 54.4128854,-1.3709616 54.4834812,-1.3975371 54.5532858,-1.4244025 54.6223056,-1.4515599 54.6905472,-1.4790118 54.7580171,-1.5067604 54.824722,-1.534808 54.8906683,-1.5631569 54.9558627,-1.5918094 55.0203117,-1.6207679 55.084022,-1.6500346 55.1469999,-1.6796118 55.2092522,-1.7095018 55.2707853,-1.7397069 55.3316059,-1.7702295 55.3917205,-1.8010718 55.4511356,-1.8322361 55.5098579,-1.8637248 55.5678939,-1.89554 55.6252501,-1.9276842 55.6819332,-1.9601596 55.7379497,-1.9929686 55.7933061,-2.0261133 55.848009,-2.0595962 55.9020821,-2.0934306 55.9556258,-2.1276825 56.0086571,-2.1623668 56.0611778,-2.1974888 56.1131897,-2.2330538 56.1646945,-2.2690671 56.2156939,-2.305534 56.2661897,-2.3424598 56.3161838,-2.3798498 56.3656777,-2.4177092 56.4146734,-2.4560433 56.4631725,-2.4948575 56.5111769,-2.5341571 56.5586882,-2.5739473 56.6057083,-2.6142334 56.6522389,-2.6550207 56.6982817,-2.6963145 56.7438385,-2.7381202 56.7889112,-2.7804429 56.8335013,-2.823288 56.8776108,-2.8666608 56.9212413,-2.9105665 56.9643946,-2.9550105 57.0070725,-2.9999981 57.0492768,-3.0455345 57.0910091,-3.091625 57.1322713,-3.138275 57.1730651,-3.1854896 57.2133923,-3.2332743 57.2532546,-3.2816343 57.2926538,-3.3305749 57.3315916,-3.3801014 57.3700699,-3.430219 57.4080903,-3.4809331 57.4456547,-3.532249 57.4827648,-3.584172 57.5194257,-3.6367087 57.5556409,-3.6898658 57.5914131,-3.7436496 57.6267451,-3.7980665 57.6616393,-3.8531227 57.6960985,-3.9088247 57.7301252,-3.9651786 57.7637221,-4.0221909 57.7968918,-4.0798679 57.829637,-4.1382158 57.8619602,-4.197241 57.8938642,-4.2569499 57.9253515,-4.3173487 57.9564247,-4.3784438 57.9870865,-4.4402415 58.0173396,-4.5027481 58.0471865,-4.56597 58.0766298,-4.6299134 58.1056723,-4.6945847 58.1343165,-4.7599902 58.162565,-4.8261362 58.1904206,-4.8930291 58.2178857,-4.9606751 58.2449631,-5.0290807 58.2716554,-5.098252 58.2979652,-5.1681955 58.3238951,-5.2389175 58.3494478,-5.3104242 58.3746258,-5.3827221 58.3994319,-5.4558174 58.4238686,-5.5297164 58.4479386,-5.6044255 58.4716445,-5.679951 58.494989,-5.7562993 58.5179746,-5.8334765 58.540604,-5.9114892 58.5628828,-5.9903544 58.58484,-6.0701784 58.6064831,-6.1509961 58.6278131,-6.2328196 58.6488309,-6.3156609 58.6695375,-6.399532 58.6899339,-6.4844449 58.710021,-6.5704116 58.7297998,-6.6574441 58.7492713,-6.7455544 58.7684364,-6.8347545 58.787296,-6.9250565 58.8058513,-7.0164723 58.824103,-7.1090139 58.8420523,-7.2026934 58.8597,-7.2975227 58.8770471,-7.3935138 58.8940947,-7.4906789 58.9108435,-7.5890297 58.9272947,-7.6885785 58.9434492,-7.7893371 58.9593079,-7.8913176 58.9748719,-7.9945321 58.990142,-8.0989923 59.0051193,-8.2047105 59.0198047,-8.3116986 59.0341992,-8.4199687 59.0483037,-8.5295326 59.0621192,-8.6404024 59.0756467,-8.7525902 59.0888872,-8.8661079 59.1018415,-8.9809676 59.1145108,-9.0971812 59.1268958,-9.2147608 59.1389977,-9.3337183 59.1508174,-9.4540657 59.1623558,-9.5758152 59.1736139,-9.6989786 59.1845926,-9.823568 59.195293,-9.9495954 59.205716,-10.0770727 59.2158626,-10.2060121 59.2257337,-10.3364255 59.2353303,-10.4683249 59.2446534,-10.6017223 59.2537039,-10.7366297 59.2624828,-10.8730591 59.2709911,-11.0110226 59.2792296,-11.1505321 59.2871995,-11.2915997 59.2949017,-11.4342373 59.302337,-11.578457 59.3095066,-11.7242707 59.3164113,-11.8716905 59.3230522,-12.0207284 59.3294301,-12.1713963 59.3355461,-12.3237063 59.3414011,-12.4776705 59.3469961,-12.6333007 59.352332,-12.790609 59.3574099,-12.9496074 59.3622306,-13.1103079 59.3667952,-13.2727226 59.3711047,-13.4368634 59.3751599,-13.6027423 59.3789618,-13.7703713 59.3825115,-13.9397625 59.3858098,-14.1109279 59.3888578,-14.2838793 59.3916564,-14.458629 59.3942066,-14.6351888 59.3965093,-14.8135708 59.3985655,-14.9937869 59.4003762,-15.1758493 59.4019423,-15.3597698 59.4032649,-15.5455605 59.4043448,-15.7332335 59.405183,-15.9228006 59.4057806,-16.1142739 59.4061384,-16.3076655 59.4062575,-16.5029873 59.4062575,-16.5029873 59.4061339,-16.7019374 59.4057626,-16.8988866 59.4051424,-17.0938473 59.4042724,-17.2868322 59.4031515,-17.4778541 59.4017788,-17.6669255 59.400153,-17.8540592 59.3982733,-18.0392677 59.3961387,-18.2225638 59.393748,-18.40396 59.3911002,-18.5834691 59.3881943,-18.7611038 59.3850294,-18.9368765 59.3816043,-19.1108001 59.377918,-19.2828872 59.3739695,-19.4531504 59.3697578,-19.6216023 59.3652819,-19.7882558 59.3605406,-19.9531233 59.355533,-20.1162176 59.3502581,-20.2775513 59.3447148,-20.437137 59.3389021,-20.5949875 59.332819,-20.7511154 59.3264643,-20.9055333 59.3198372,-21.0582539 59.3129366,-21.2092899 59.3057614,-21.3586538 59.2983106,-21.5063584 59.2905832,-21.6524164 59.2825782,-21.7968403 59.2742945,-21.9396429 59.2657311,-22.0808367 59.256887,-22.2204345 59.2477611,-22.358449 59.2383524,-22.4948926 59.2286598,-22.6297782 59.2186825,-22.7631184 59.2084192,-22.8949257 59.1978691,-23.025213 59.187031,-23.1539928 59.1759039,-23.2812778 59.1644869,-23.4070807 59.1527788,-23.5314141 59.1407786,-23.6542907 59.1284854,-23.775723 59.1158981,-23.8957239 59.1030156,-24.0143059 59.0898369,-24.1314817 59.0763611,-24.2472639 59.062587,-24.3616653 59.0485136,-24.4746984 59.0341399,-24.5863759 59.019465,-24.6967106 59.0044876,-24.8057149 58.9892069,-24.9134017 58.9736218,-25.0197834 58.9577312,-25.1248729 58.9415342,-25.2286828 58.9250297,-25.3312257 58.9082166,-25.4325142 58.891094,-25.5325611 58.8736608,-25.6313789 58.855916,-25.7289804 58.8378585,-25.8253782 58.8194873,-25.920585 58.8008015,-26.0146133 58.7817999,-26.107476 58.7624816,-26.1991855 58.7428454,-26.2897547 58.7228905,-26.3791961 58.7026156,-26.4675223 58.6820199,-26.5547462 58.6611023,-26.6408802 58.6398618,-26.7259371 58.6182972,-26.8099295 58.5964077,-26.8928701 58.5741922,-26.9747715 58.5516495,-27.0556464 58.5287745,-27.1355225 58.505535,-27.2145159 58.4819222,-27.2926541 58.4579333,-27.3699436 58.4335653,-27.4463908 58.4088155,-27.5220021 58.3836808,-27.5967839 58.3581584,-27.6707428 58.3322454,-27.7438851 58.305939,-27.8162174 58.2792362,-27.887746 58.2521341,-27.9584774 58.2246299,-28.028418 58.1967207,-28.0975744 58.1684035,-28.1659528 58.1396755,-28.2335599 58.1105339,-28.3004019 58.0809756,-28.3664854 58.0509979,-28.4318169 58.0205978,-28.4964027 57.9897725,-28.5602492 57.958519,-28.6233631 57.9268345,-28.6857506 57.8947161,-28.7474182 57.8621609,-28.8083725 57.829166,-28.8686197 57.7957285,-28.9281664 57.7618455,-28.9870191 57.7275142,-29.045184 57.6927316,-29.1026678 57.6574948,-29.1594768 57.6218011,-29.2156176 57.5856474,-29.2710964 57.5490309,-29.3259198 57.5119488,-29.3800943 57.474398,-29.4336262 57.4363758,-29.4865221 57.3978792,-29.5387883 57.3589054,-29.5904313 57.3194514,-29.6414575 57.2795222,-29.6918619 57.2391291,-29.741632 57.1982718,-29.7907735 57.1569499,-29.8392926 57.1151629,-29.8871955 57.0729103,-29.9344883 57.0301917,-29.9811771 56.9870066,-30.0272681 56.9433547,-30.0727673 56.8992354,-30.117681 56.8546483,-30.1620153 56.8095929,-30.2057763 56.7640688,-30.2489701 56.7180755,-30.2916029 56.6716126,-30.3336808 56.6246796,-30.3752099 56.5772761,-30.4161965 56.5294016,-30.4566465 56.4810557,-30.4965662 56.4322379,-30.5359617 56.3829478,-30.5748392 56.3331849,-30.6132047 56.2829487,-30.6510643 56.2322389,-30.6884244 56.1810549,-30.7252909 56.1293963,-30.76167 56.0772626,-30.7975678 56.0246535,-30.8329906 55.9715684,-30.8679443 55.9180069,-30.9024352 55.8639685,-30.9364694 55.8094528,-30.970053 55.7544497,-31.003198 55.6988316,-31.0359855 55.6425535,-31.0684416 55.5856089,-31.1005687 55.5279913,-31.1323689 55.469694,-31.1638445 55.4107107,-31.1949978 55.3510347,-31.2258311 55.2906595,-31.2563466 55.2295786,-31.2865466 55.1677854,-31.3164333 55.1052734,-31.3460091 55.0420361,-31.3752762 54.9780669,-31.4042368 54.9133593,-31.4328933 54.8479067,-31.4612479 54.7817026,-31.4893028 54.7147405,-31.5170603 54.6470139,-31.5445228 54.5785161,-31.5716924 54.5092407,-31.5985715 54.4391811,-31.6251622 54.3683308,-31.6514669 54.2966833,-31.6774879 54.2242319,-31.7032273 54.1509702,-31.7286875 54.0768917,-31.7538708 54.0019897,-31.7787793 53.9262578,-31.8034154 53.8496895,-31.8277814 53.7722781,-31.8518794 53.6940172,-31.8757118 53.6149001,-31.8992809 53.5349205,-31.9225888 53.4540716,-31.9456379 53.3723471,-31.9684305 53.2897403,-31.9909687 53.2062448,-32.0132549 53.1218539,-32.0352914 53.0365452,-32.0570847 52.9502448,-32.0786547 52.862935,-32.1000045 52.7746043,-32.1211357 52.6852418,-32.1420494 52.5948363,-32.1627471 52.5033765,-32.1832302 52.4108515,-32.2035 52.3172499,-32.2235579 52.2225607,-32.2434052 52.1267726,-32.2630433 52.0298746,-32.2824735 51.9318555,-32.3016973 51.8327041,-32.320716 51.7324093,-32.3395309 51.63096,-32.3581434 51.5283449,-32.3765549 51.4245529,-32.3947667 51.3195729,-32.4127803 51.2133937,-32.4305968 51.1060042,-32.4482178 50.9973932,-32.4656446 50.8875495,-32.4828786 50.776462,-32.499921 50.6641196,-32.5167733 50.5505111,-32.5334368 50.4356253,-32.549913 50.3194511,-32.5662031 50.2019773,-32.5823085 50.0831928,-32.5982305 49.9630865,-32.6139707 49.8416471,-32.6295302 49.7188635,-32.6449105 49.5947246,-32.6601129 49.4692192,-32.6751388 49.3423362,-32.6899896 49.2140643,-32.7046666 49.0843926,-32.7191712 48.9533097,-32.7335047 48.8208046,-32.7476685 48.686866,-32.7616639 48.5514829,-32.7754924 48.4146441,-32.7891553 48.2763384,-32.8026539 48.1365547,-32.8159897 47.9952819,-32.8291639 47.8525087,-32.842178 47.708224,-32.8550332 47.5624167,-32.867731 47.4150755,-32.8802728 47.2661895,-32.8926598 47.1157473,-32.9048935 46.963738,-32.9169752 46.8101502,-32.9289062 46.6549728,-32.940688 46.4981947,-32.9523219 46.3398048,-32.9638093 46.1797919,-32.9751514 46.0181448,-32.9863498 45.8548523,-32.9974057 45.6899034,-33.0083205 45.5232869,-33.0190956 45.3549916,-33.0297323 45.1850063,-33.040232 45.01332,-33.050596 44.8399214,-33.0608258 44.8399214,-33.0608258 44.8244473,-33.0613171 44.8089832,-33.060988 44.7935598,-33.0598406 44.7782081,-33.0578769 44.7629724,-33.0551019 44.7479195,-33.0515295 44.7330802,-33.0471701 44.7184837,-33.0420341 44.7041652,-33.0361345 44.6901992,-33.0295059 44.6766194,-33.0221716 44.6634491,-33.0141507 44.6507119,-33.0054624 44.6384311,-32.9961259 44.62663,-32.9861604 44.6153323,-32.9755851 44.6045788,-32.9644386 44.5944223,-32.9527818 44.584878,-32.9406419 44.5759598,-32.928045 44.5676818,-32.9150174 44.5600582,-32.9015851 44.553103,-32.8877745 44.5468304,-32.8736117 44.5412648,-32.8591527 44.5364264,-32.8444594 44.5323199,-32.8295608 44.5289496,-32.8144858 44.5263204,-32.7992635 44.5244366,-32.7839227 44.523303,-32.7684925 44.5229241,-32.7530017 44.5229241,-31.8029873 A0.3,0.3 0 0,1 44.2229241,-31.5029873 L42.4229241,-31.5029873 A0.3,0.3 90 0,1 42.1229241,-31.8029873 L42.1229241,-32.8991775 42.1229241,-32.8991775 42.122587,-32.9137592 42.1215782,-32.9282896 42.1199012,-32.9427446 42.1175599,-32.9570998 42.114558,-32.9713309 42.1108991,-32.9854138 42.106587,-32.9993241 42.1016254,-33.0130375 42.0960298,-33.0265028 42.0898208,-33.0396705 42.08301,-33.0525184 42.0756087,-33.0650245 42.0676284,-33.0771668 42.0590805,-33.0889231 42.0499765,-33.1002715 42.0403278,-33.11119 42.0301621,-33.1216401 42.0195267,-33.1315718 42.0084414,-33.1409676 41.9969253,-33.1498111 41.9849976,-33.1580857 41.9726773,-33.165775 41.9599836,-33.1728624 41.9469355,-33.1793314 41.9335782,-33.1851549 41.9199785,-33.1903031 41.9061619,-33.1947687 41.8921529,-33.1985447 41.8779759,-33.201624 41.8636555,-33.2039997 41.8492163,-33.2056648 41.8346828,-33.2066122 41.8346828,-33.2066122 41.678057,-33.212856 41.5203923,-33.2190282 41.3616931,-33.2251291 41.2019639,-33.2311593 41.0412092,-33.2371192 40.8794335,-33.2430094 40.7166412,-33.2488302 40.5528368,-33.2545822 40.3880247,-33.2602658 40.2222095,-33.2658815 40.0553956,-33.2714297 39.8875875,-33.276911 39.7187896,-33.2823258 39.5490064,-33.2876746 39.3782424,-33.2929579 39.2065021,-33.2981761 39.0337899,-33.3033297 38.8601102,-33.3084192 38.6854677,-33.313445 38.5098667,-33.3184077 38.3333117,-33.3233076 38.1558071,-33.3281454 37.9773575,-33.3329213 37.7979674,-33.337636 37.6176411,-33.3422899 37.4363832,-33.3468834 37.2541981,-33.3514171 37.0710903,-33.3558914 36.8870642,-33.3603067 36.7021245,-33.3646637 36.5162754,-33.3689626 36.3295215,-33.373204 36.3295215,-33.373204 36.3143974,-33.3731543 36.2993076,-33.3723258 36.2842807,-33.3707213 36.2693455,-33.3683437 36.2545502,-33.3652005 36.2399473,-33.3613047 36.2255641,-33.3566658 36.2114275,-33.3512936 36.1975863,-33.3452079 36.1840997,-33.3384396 36.1709902,-33.3310065 36.15828,-33.3229261 36.1459912,-33.3142162 36.1341459,-33.3048941 36.1227663,-33.2949777 36.1118746,-33.2844845 36.1015213,-33.2734641 36.0917437,-33.2619629 36.0825554,-33.2500053 36.07397,-33.2376157 36.066001,-33.2248183 36.058662,-33.2116375 36.0519665,-33.1980975 36.0459281,-33.184223 36.0405731,-33.1700745 36.0359176,-33.1557045 36.031966,-33.1411401 36.0287229,-33.1264085 36.0261926,-33.111537 36.0243798,-33.0965527 36.0232888,-33.0814827 36.0229241,-33.0663542 36.0229241,-31.8029873 A0.3,0.3 0 0,1 35.7229241,-31.5029873 L33.9229241,-31.5029873 A0.3,0.3 90 0,1 33.6229241,-31.8029873 L33.6229241,-33.1253347 33.6229241,-33.1253347 33.622576,-33.1401027 33.6215345,-33.1548151 33.6198038,-33.1694467 33.6173881,-33.1839721 33.6142917,-33.1983661 33.6105188,-33.2126033 33.6060736,-33.2266584 33.6009604,-33.2405062 33.5951894,-33.2541077 33.5887876,-33.2673974 33.5817686,-33.2803497 33.5741453,-33.292942 33.5659303,-33.3051517 33.5571363,-33.3169562 33.5477758,-33.3283327 33.5378617,-33.3392588 33.5274169,-33.3497017 33.516495,-33.3596056 33.5051197,-33.3689507 33.4933114,-33.3777206 33.4810908,-33.3858987 33.4684783,-33.3934687 33.4554944,-33.400414 33.4421596,-33.4067182 33.4285164,-33.4123562 33.4146376,-33.4172976 33.4005507,-33.421535 33.3862816,-33.425062 33.3718559,-33.427872 33.3572995,-33.4299587 33.342638,-33.4313156 33.3278972,-33.4319363 33.3278972,-33.4319363 33.0440269,-33.4366853 32.7585142,-33.44134 32.4713718,-33.4459015 32.1826122,-33.4503711 31.8922479,-33.4547499 31.6002914,-33.4590391 31.3067554,-33.4632398 31.0116523,-33.4673532 30.7149947,-33.4713805 30.4167952,-33.4753228 30.1170662,-33.4791813 29.8158204,-33.4829572 29.5130703,-33.4866517 29.2088283,-33.4902658 28.9031071,-33.4938008 28.5959193,-33.4972579 28.2872773,-33.5006382 27.9771936,-33.5039428 27.6656809,-33.507173 27.3527517,-33.51033 27.0384185,-33.5134148 26.7226939,-33.5164286 26.4055904,-33.5193727 26.0871205,-33.5222482 25.7672968,-33.5250562 25.4461319,-33.5277979 25.1236383,-33.5304745 24.7998284,-33.5330872 24.474715,-33.5356371 24.1483105,-33.5381254 23.8206274,-33.5405533 23.4916783,-33.5429219 23.4916783,-33.5429219 23.4767188,-33.5426475 23.4618032,-33.5416138 23.4469591,-33.5398237 23.4322143,-33.5372804 23.4176182,-33.5339923 23.403217,-33.5299716 23.389037,-33.5252277 23.3751045,-33.5197698 23.3614752,-33.5136215 23.3481969,-33.5068094 23.335291,-33.4993503 23.3227792,-33.4912609 23.3106832,-33.4825583 23.2990245,-33.4732592 23.2878247,-33.4633804 23.2771063,-33.4529396 23.2669217,-33.441989 23.2573031,-33.4305696 23.2482638,-33.4187049 23.2398172,-33.4064184 23.2319766,-33.3937335 23.2247556,-33.3806739 23.2181675,-33.3672628 23.2122258,-33.3535245 23.2069571,-33.3395204 23.2023765,-33.3253 23.1984884,-33.3108896 23.1952971,-33.2963158 23.1928073,-33.2816048 23.1910233,-33.2667832 23.1899497,-33.2518773 23.1895908,-33.2369136 23.1895908,-31.8029873 A0.3,0.3 0 0,1 22.8895908,-31.5029873 L21.0895908,-31.5029873 A0.3,0.3 90 0,1 20.7895908,-31.8029873 L20.7895908,-33.2557262 20.7895908,-33.2557262 20.789237,-33.270578 20.7881769,-33.285388 20.7864129,-33.3001297 20.7839472,-33.3147771 20.7807843,-33.3292944 20.776934,-33.3436349 20.7724032,-33.3577723 20.7671986,-33.3716811 20.7613303,-33.3853286 20.7548231,-33.3986569 20.7476922,-33.4116385 20.7399509,-33.4242507 20.7316126,-33.4364708 20.7226906,-33.4482757 20.7131982,-33.4596428 20.7031488,-33.4705492 20.6925644,-33.4809639 20.6815005,-33.4908299 20.6699828,-33.5001263 20.6580325,-33.5088368 20.6456709,-33.516945 20.6329192,-33.5244346 20.6197985,-33.5312894 20.6063302,-33.537493 20.592556,-33.5430212 20.5785507,-33.5478438 20.5643427,-33.5519536 20.5499584,-33.5553445 20.5354241,-33.5580105 20.520766,-33.5599452 20.5060106,-33.5611428 20.4911839,-33.5615969 20.4911839,-33.5615969 20.1005467,-33.5636742 20.1005467,-33.5636742 20.0719579,-33.5319508 20.0444393,-33.4990534 20.0179468,-33.4650138 19.9924575,-33.4298952 19.9679575,-33.3937826 19.9443993,-33.3567181 19.9217354,-33.3187434 19.8999181,-33.2798999 19.8788998,-33.2402293 19.8586329,-33.1997731 19.8390696,-33.1585729 19.8201624,-33.1166704 19.8018637,-33.074107 19.7841258,-33.0309244 19.766901,-32.9871638 19.7501361,-32.9428471 19.7337814,-32.8980027 19.7177912,-32.8526702 19.6867203,-32.7606992 19.6565565,-32.6672506 19.6269328,-32.5726411 19.5678378,-32.3812062 19.5376325,-32.2850141 19.5064993,-32.1889276 19.4740713,-32.0932635 19.4399814,-31.9983384 19.4221986,-31.951252 19.4038626,-31.904469 19.3849278,-31.8580291 19.3653476,-31.8119701 19.3450697,-31.7663081 19.3240443,-31.7210703 19.3022234,-31.6762898 19.2795588,-31.632 19.2560025,-31.5882338 19.2315064,-31.5450247 19.2060223,-31.5024056 19.1795022,-31.4604099 19.151898,-31.4190708 19.1231615,-31.3784213 19.0932447,-31.3384948 19.0621178,-31.2993468 19.0300217,-31.2613373 18.9970331,-31.2245662 18.9631362,-31.1890131 18.9283152,-31.1546574 18.8925545,-31.1214786 18.8558381,-31.0894562 18.8181505,-31.0585695 18.7794757,-31.0287982 18.7397982,-31.0001217 18.699102,-30.9725194 18.6573715,-30.9459709 18.6145908,-30.9204555 A1.25,1.25 60 0,1 17.3645908,-30.9204555 L17.3645908,-30.9204555 17.3227815,-30.9454849 17.2821111,-30.971629 17.2425497,-30.9988916 17.2040674,-31.0272765 17.1666343,-31.0567873 17.1302204,-31.0874279 17.0947957,-31.1192018 17.0603304,-31.1521129 17.0267944,-31.186165 16.9941579,-31.2213616 16.9623909,-31.2577066 16.9314634,-31.2952036 16.9013959,-31.3337899 16.8723199,-31.3732313 16.8442076,-31.4134782 16.8170176,-31.4544976 16.7907089,-31.4962567 16.76524,-31.5387227 16.7405696,-31.5818624 16.7166565,-31.6256432 16.6934594,-31.6700321 16.670937,-31.7149962 16.6490481,-31.7605026 16.6277513,-31.8065185 16.6070054,-31.8530108 16.586769,-31.8999468 16.547676,-31.994979 16.5102126,-32.0911643 16.474067,-32.1881576 16.4389206,-32.2856289 16.404455,-32.3832481 16.3362921,-32.5776104 16.3019578,-32.6736935 16.2670303,-32.7686043 16.2311912,-32.8620131 16.2128302,-32.908051 16.1941218,-32.9535896 16.1750245,-32.9985923 16.1554924,-33.0430299 16.1354841,-33.0868591 16.1149584,-33.1300356 16.0938741,-33.172515 16.0721901,-33.2142529 16.0498653,-33.255205 16.0268584,-33.295327 16.0031284,-33.3345744 15.9786341,-33.3729029 15.9533343,-33.4102682 15.9271583,-33.4466647 15.9000186,-33.4820965 15.8718685,-33.5165057 15.842662,-33.549834 15.8123526,-33.5820232 15.8123526,-33.5820232 14.9905144,-33.5847186 14.9905144,-33.5847186 14.9756025,-33.5843876 14.9607571,-33.5833051 14.9460052,-33.581477 14.9313734,-33.5789096 14.9168885,-33.5756089 14.9025773,-33.571581 14.8884665,-33.566832 14.874583,-33.5613681 14.8609946,-33.5552153 14.8477559,-33.5484025 14.8348884,-33.5409463 14.8224136,-33.5328634 14.810353,-33.5241704 14.7987283,-33.5148841 14.7875609,-33.505021 14.7768731,-33.4945986 14.7667177,-33.4836691 14.7571261,-33.4722729 14.7481118,-33.4604333 14.7396883,-33.4481736 14.7318688,-33.4355171 14.7246669,-33.4224872 14.7180959,-33.4091071 14.7121695,-33.3954007 14.7069142,-33.3814295 14.7023451,-33.3672428 14.6984666,-33.3528668 14.6952833,-33.3383277 14.6927995,-33.323652 14.6910199,-33.3088659 14.6899488,-33.2939956 14.6895908,-33.2790675 14.6895908,-31.8029873 A0.3,0.3 0 0,1 14.3895908,-31.5029873 L12.5895908,-31.5029873 A0.3,0.3 90 0,1 12.2895908,-31.8029873 L12.2895908,-33.287141 12.2895908,-33.287141 12.2892352,-33.3020139 12.2881699,-33.3168443 12.2863972,-33.3316059 12.2839194,-33.3462724 12.280741,-33.3608081 12.2768721,-33.3751653 12.2723196,-33.3893176 12.2670906,-33.4032393 12.2611949,-33.4168984 12.2546578,-33.4302361 12.2474948,-33.4432245 12.2397195,-33.4558407 12.2313456,-33.4680618 12.2223865,-33.4798649 12.2128559,-33.4912273 12.2027673,-33.5021259 12.1921427,-33.5125302 12.1810379,-33.5223829 12.1694794,-33.531663 12.1574885,-33.5403542 12.1450866,-33.5484402 12.1322953,-33.5559048 12.1191358,-33.5627318 12.1056298,-33.5689048 12.0918191,-33.5744 12.0777785,-33.5791872 12.063537,-33.5832595 12.0491209,-33.5866108 12.0345567,-33.5892351 12.0198708,-33.5911264 12.0050898,-33.5922787 11.9902399,-33.592686 11.9902399,-33.592686 11.3789843,-33.5939809 10.7680846,-33.5951732 10.1555497,-33.5962702 9.5416247,-33.5972742 8.9265574,-33.5981878 8.3105955,-33.5990133 7.076979,-33.6004102 5.8427573,-33.6014844 4.6099124,-33.6022556 3.9946256,-33.6025337 3.3804264,-33.6027433 2.7675623,-33.602887 2.1562813,-33.6029672 2.1562813,-33.6029672 2.141408,-33.6025931 2.1266027,-33.6014723 2.1118918,-33.5996109 2.097302,-33.597015 2.0828598,-33.5936906 2.0685917,-33.5896438 2.0545244,-33.5848806 2.0406846,-33.5794072 2.0271408,-33.57325 2.0139453,-33.566437 2.0011195,-33.5589847 1.9886848,-33.5509094 1.9766629,-33.5422276 1.965075,-33.5329558 1.9539427,-33.5231104 1.9432883,-33.5127086 1.9331643,-33.5018026 1.923602,-33.4904322 1.9146148,-33.4786205 1.9062162,-33.4663905 1.8984195,-33.4537654 1.8912381,-33.4407684 1.8846857,-33.4274225 1.8787756,-33.4137513 1.8735347,-33.3998163 1.868978,-33.3856666 1.8651099,-33.3713283 1.8619351,-33.3568276 1.8594579,-33.3421905 1.8576829,-33.3274434 1.8566146,-33.3126122 1.8562575,-33.2977231 1.8562575,-31.8029873 A0.3,0.3 0 0,1 1.5562575,-31.5029873 L-0.2437425,-31.5029873 A0.3,0.3 90 0,1 -0.5437425,-31.8029873 L-0.5437425,-33.2964078 -0.5437425,-33.2964078 -0.5441003,-33.3112989 -0.5451719,-33.3261469 -0.5469551,-33.3409254 -0.5494474,-33.3556077 -0.5526443,-33.3701581 -0.5565355,-33.3845281 -0.5611137,-33.398691 -0.5663718,-33.412621 -0.5722998,-33.4262863 -0.5788722,-33.4396276 -0.5860727,-33.4526164 -0.5938875,-33.4652296 -0.6023027,-33.4774445 -0.6113044,-33.4892381 -0.6208788,-33.5005876 -0.6310121,-33.5114701 -0.641682,-33.521855 -0.6528319,-33.5316851 -0.6644354,-33.5409394 -0.6764707,-33.5496017 -0.688916,-33.5576559 -0.7017498,-33.5650859 -0.7149502,-33.5718756 -0.7284955,-33.5780089 -0.7423436,-33.5834621 -0.7564195,-33.5882055 -0.7706944,-33.5922322 -0.7851417,-33.5955365 -0.7997347,-33.5981124 -0.8144468,-33.5999542 -0.8292515,-33.6010558 -0.8441222,-33.6014116 -0.8441222,-33.6014116 -1.182908,-33.6009442 -1.5225871,-33.6004115 -1.8631118,-33.5998119 -2.2044343,-33.5991439 -2.5465069,-33.5984059 -2.8892818,-33.5975964 -3.2327113,-33.5967137 -3.5767475,-33.5957563 -4.2664495,-33.5936111 -4.9580057,-33.5911483 -5.6510341,-33.5883551 -6.3451528,-33.5852192 -6.3451528,-33.5852192 -6.3599574,-33.5847778 -6.3746924,-33.5835989 -6.3893316,-33.5816886 -6.4038486,-33.5790526 -6.4182174,-33.5756971 -6.4324116,-33.5716278 -6.4464051,-33.5668508 -6.460171,-33.5613722 -6.4736416,-33.5552183 -6.4867668,-33.5484159 -6.4995252,-33.540981 -6.5118955,-33.5329297 -6.5238562,-33.5242779 -6.5353861,-33.5150417 -6.5464638,-33.5052372 -6.5570671,-33.4948811 -6.567144,-33.4840244 -6.576663,-33.4727068 -6.5856107,-33.4609509 -6.5939734,-33.4487797 -6.6017377,-33.4362157 -6.60889,-33.4232818 -6.6154168,-33.4100006 -6.6213044,-33.3963954 -6.626526,-33.382527 -6.6310662,-33.3684451 -6.6349205,-33.3541755 -6.6380843,-33.3397441 -6.6405529,-33.3251769 -6.6423219,-33.3104997 -6.6433866,-33.2957385 -6.6437425,-33.2809191 -6.6437425,-31.8029873 A0.3,0.3 0 0,1 -6.9437425,-31.5029873 L-8.7437425,-31.5029873 A0.3,0.3 90 0,1 -9.0437425,-31.8029873 L-9.0437425,-33.2636447 -9.0437425,-33.2636447 -9.0441042,-33.278559 -9.0451876,-33.2934291 -9.0469903,-33.3082281 -9.0495097,-33.3229292 -9.052741,-33.3374961 -9.0566734,-33.3518789 -9.0612991,-33.3660504 -9.0666107,-33.3799846 -9.072598,-33.39365 -9.0792343,-33.4069862 -9.0865026,-33.4199638 -9.0943885,-33.4325601 -9.1028775,-33.4447522 -9.1119553,-33.4565172 -9.1216074,-33.4678324 -9.1318194,-33.4786749 -9.142568,-33.4890137 -9.1537956,-33.498792 -9.1654756,-33.5079894 -9.1775857,-33.5165902 -9.1901037,-33.5245784 -9.2030075,-33.5319383 -9.2162748,-33.5386542 -9.2298835,-33.5447101 -9.2437902,-33.5500826 -9.2579209,-33.5547434 -9.2722466,-33.558686 -9.2867406,-33.5619048 -9.3013761,-33.5643943 -9.3161261,-33.5661489 -9.3309638,-33.567163 -9.3458625,-33.5674312 -9.3458625,-33.5674312 -9.9704337,-33.5627901 -10.5939624,-33.5578061 -11.2161697,-33.552471 -11.8367766,-33.5467765 -12.455504,-33.5407146 -13.072073,-33.5342771 -13.379461,-33.5309149 -13.6862047,-33.5274557 -13.9922694,-33.5238985 -14.2976201,-33.5202423 -14.6022219,-33.5164861 -14.9060401,-33.5126289 -15.2090397,-33.5086695 -15.5111859,-33.5046071 -16.1142287,-33.4961485 -16.4170992,-33.49172 -16.7210241,-33.4871514 -17.0259395,-33.4824398 -17.3317818,-33.4775823 -17.6384873,-33.4725758 -17.9459921,-33.4674173 -18.2542327,-33.4621039 -18.5631451,-33.4566325 -19.1827309,-33.4452041 -19.1827309,-33.4452041 -19.1973298,-33.4445698 -19.2118544,-33.443225 -19.2262795,-33.4411752 -19.2405797,-33.4384261 -19.2547299,-33.4349831 -19.2687047,-33.430852 -19.2824788,-33.4260382 -19.296026,-33.4205478 -19.3092802,-33.4144067 -19.3221975,-33.4076383 -19.3347567,-33.4002575 -19.3469369,-33.3922792 -19.3587169,-33.3837181 -19.3700756,-33.3745892 -19.3809919,-33.3649072 -19.3914442,-33.3546877 -19.4013822,-33.3439784 -19.4107737,-33.3328184 -19.4196048,-33.3212293 -19.4278616,-33.3092329 -19.4355305,-33.2968509 -19.4425975,-33.2841048 -19.4490489,-33.2710164 -19.4548707,-33.2576077 -19.460036,-33.2439376 -19.4645281,-33.2300572 -19.4683422,-33.2159918 -19.4714736,-33.2017665 -19.4739174,-33.1874067 -19.4756689,-33.1729375 -19.4767233,-33.1583842 -19.4770759,-33.143772 -19.4770759,-31.8029873 A0.3,0.3 0 0,1 -19.7770759,-31.5029873 L-21.5770759,-31.5029873 A0.3,0.3 90 0,1 -21.8770759,-31.8029873 L-21.8770759,-33.079749 -21.8770759,-33.079749 -21.8774491,-33.0947459 -21.878567,-33.1096953 -21.8804266,-33.1245692 -21.883025,-33.1393399 -21.8863569,-33.15397 -21.8904095,-33.1684051 -21.895174,-33.1826167 -21.9006417,-33.1965784 -21.9068018,-33.2102593 -21.9136252,-33.2235963 -21.9210919,-33.2365576 -21.929186,-33.2491204 -21.9378914,-33.2612618 -21.9471919,-33.2729592 -21.9570716,-33.2841896 -21.9675143,-33.2949303 -21.9784945,-33.30515 -21.989952,-33.3147929 -22.0018588,-33.3238397 -22.0141914,-33.3322753 -22.0269263,-33.3400848 -22.0400398,-33.3472531 -22.0535084,-33.3537653 -22.0673086,-33.3596063 -22.0813947,-33.3647536 -22.0956941,-33.3691818 -22.1101778,-33.3728856 -22.1248182,-33.3758599 -22.1395877,-33.3781001 -22.1544588,-33.3796014 -22.1694039,-33.3803588 -22.1843955,-33.3803677 -22.1843955,-33.3803677 -22.7158317,-33.3670729 -22.7158317,-33.3670729 -22.7367691,-33.3326806 -22.7569889,-33.2975515 -22.7765268,-33.2617177 -22.7954185,-33.2252111 -22.8136995,-33.1880637 -22.8314056,-33.1503074 -22.8485723,-33.1119743 -22.8652353,-33.0730962 -22.8814302,-33.0337052 -22.8971927,-32.9938331 -22.9275629,-32.9127738 -22.9566312,-32.8301725 -22.9846929,-32.7462277 -23.0120348,-32.6611448 -23.0389379,-32.5751493 -23.0925526,-32.4013228 -23.1198266,-32.3139431 -23.1477866,-32.226553 -23.1767136,-32.1393783 -23.206889,-32.0526444 -23.2385938,-31.9665771 -23.2721092,-31.8814017 -23.2896337,-31.839219 -23.3077164,-31.797344 -23.3263923,-31.7558047 -23.3456907,-31.7146416 -23.365641,-31.6738918 -23.3862793,-31.6335779 -23.4076414,-31.593722 -23.4297633,-31.5543465 -23.4526811,-31.5154736 -23.4764306,-31.4771258 -23.5010478,-31.4393252 -23.5265687,-31.4020942 -23.5530292,-31.3654552 -23.5804653,-31.3294303 -23.6089131,-31.294042 -23.6383393,-31.2593916 -23.6685225,-31.2257662 -23.6994517,-31.1931751 -23.7311373,-31.1616014 -23.7635899,-31.1310284 -23.7968199,-31.1014393 -23.8308378,-31.0728173 -23.865654,-31.0451456 -23.901279,-31.0184075 -23.9377232,-30.9925862 -23.9749971,-30.967665 -24.0131112,-30.943627 -24.0520759,-30.9204555 A1.25,1.25 60 0,1 -25.3020759,-30.9204555 L-25.3020759,-30.9204555 -25.3379916,-30.9418464 -25.3730669,-30.9640564 -25.4073208,-30.9870877 -25.4407721,-31.0109427 -25.4734397,-31.0356238 -25.5053424,-31.0611334 -25.5364991,-31.0874737 -25.5669286,-31.1146472 -25.5966499,-31.1426562 -25.6256818,-31.171503 -25.6540432,-31.20119 -25.681753,-31.2317195 -25.7088299,-31.2630939 -25.735293,-31.2953156 -25.7611296,-31.3283456 -25.7862365,-31.3620118 -25.8106265,-31.3962769 -25.8343255,-31.4311201 -25.8573596,-31.4665208 -25.8797549,-31.5024582 -25.9015372,-31.5389115 -25.9227328,-31.57586 -25.9433675,-31.6132831 -25.9634673,-31.6511599 -25.9830584,-31.6894698 -26.0021667,-31.7281921 -26.0390389,-31.8067905 -26.0742923,-31.8867895 -26.1081308,-31.9680136 -26.1407178,-32.0501826 -26.1722418,-32.1330609 -26.2029021,-32.2164367 -26.2328975,-32.3000983 -26.2916907,-32.4674311 -26.3502144,-32.6333647 -26.3798729,-32.7152772 -26.4100614,-32.7962044 -26.440979,-32.8759344 -26.4728247,-32.9542555 -26.5057978,-33.0309557 -26.5227693,-33.0686318 -26.5400973,-33.1058233 -26.5578066,-33.1425036 -26.5759223,-33.1786463 -26.5944691,-33.214225 -26.6134719,-33.249213 -26.6134719,-33.249213 -26.8852154,-33.2394729 -27.1549961,-33.2295805 -27.4228226,-33.2195349 -27.6887036,-33.2093354 -27.6887036,-33.2093354 -27.7030671,-33.2084327 -27.717348,-33.2068451 -27.7315221,-33.2045781 -27.7455653,-33.2016371 -27.7594534,-33.1980276 -27.7731622,-33.1937549 -27.7866675,-33.1888245 -27.7999403,-33.183244 -27.8129133,-33.1770416 -27.8255553,-33.1702353 -27.8378458,-33.1628392 -27.8497644,-33.154867 -27.8612907,-33.1463328 -27.8724041,-33.1372505 -27.8830843,-33.127634 -27.8933089,-33.117499 -27.9030267,-33.1068954 -27.912211,-33.0958561 -27.9208481,-33.0844018 -27.9289243,-33.0725531 -27.9364261,-33.0603307 -27.9433398,-33.0477551 -27.9496517,-33.0348472 -27.9553481,-33.021628 -27.9604015,-33.0081579 -27.9647966,-32.9944839 -27.9685287,-32.9806306 -27.9715929,-32.966622 -27.9739845,-32.9524824 -27.9756987,-32.9382362 -27.9767308,-32.9239077 -27.9770759,-32.909521 -27.9770759,-31.8029873 A0.3,0.3 0 0,1 -28.2770759,-31.5029873 L-30.0770759,-31.5029873 A0.3,0.3 90 0,1 -30.3770759,-31.8029873 L-30.3770759,-32.7757752 -30.3770759,-32.7757752 -30.3774605,-32.7910229 -30.3786123,-32.80622 -30.3805282,-32.8213375 -30.3832049,-32.8363461 -30.3866379,-32.8512115 -30.3908136,-32.8658737 -30.3957214,-32.8802998 -30.401352,-32.894462 -30.4076956,-32.9083326 -30.4147284,-32.9218574 -30.4224214,-32.9349861 -30.4307574,-32.947695 -30.439719,-32.9599606 -30.4492889,-32.9717594 -30.4594498,-32.9830678 -30.4701843,-32.9938623 -30.4814722,-33.0041169 -30.4932527,-33.0137744 -30.5054876,-33.0228075 -30.518152,-33.031201 -30.5312208,-33.0389395 -30.5446689,-33.046008 -30.5584712,-33.0523911 -30.5726026,-33.0580737 -30.5870225,-33.0630355 -30.6016501,-33.0672493 -30.616452,-33.0707091 -30.6313991,-33.0734104 -30.6464623,-33.0753491 -30.6616125,-33.0765206 -30.6768208,-33.0769208 -30.6920579,-33.0765452 -30.6920579,-33.0765452 -30.8773338,-33.0671716 -31.0615358,-33.0577005 -31.2446678,-33.0481313 -31.4267336,-33.0384638 -31.6077371,-33.0286974 -31.787682,-33.0188318 -31.9665722,-33.0088665 -32.1444114,-32.9988011 -32.3212036,-32.9886353 -32.4969525,-32.9783685 -32.6716619,-32.9680004 -32.8453358,-32.9575306 -33.0179777,-32.9469585 -33.1895917,-32.9362839 -33.3601816,-32.9255063 -33.529751,-32.9146252 -33.6983039,-32.9036403 -33.8658441,-32.8925511 -34.0323754,-32.8813573 -34.1979017,-32.8700583 -34.3624266,-32.8586538 -34.5259541,-32.8471433 -34.688488,-32.8355265 -34.8500321,-32.823803 -35.0105902,-32.8119722 -35.1701661,-32.8000338 -35.3287637,-32.7879874 -35.4863867,-32.7758325 -35.6430391,-32.7635687 -35.7987245,-32.7511956 -35.9534469,-32.7387129 -36.10721,-32.72612 -36.2600177,-32.7134165 -36.4118738,-32.7006021 -36.562782,-32.6876763 -36.7127463,-32.6746387 -36.8617705,-32.6614888 -37.0098583,-32.6482263 -37.1570136,-32.6348508 -37.3032401,-32.6213617 -37.4485418,-32.6077588 -37.5929225,-32.5940416 -37.7363859,-32.5802096 -37.8789359,-32.5662624 -38.0205762,-32.5521997 -38.1613108,-32.538021 -38.3011434,-32.5237258 -38.4400779,-32.5093139 -38.578118,-32.4947847 -38.7152677,-32.4801378 -38.8515306,-32.4653728 -38.9869107,-32.4504893 -39.1214117,-32.4354869 -39.2550375,-32.4203651 -39.3877918,-32.4051236 -39.5196786,-32.3897619 -39.6507016,-32.3742796 -39.7808647,-32.3586762 -39.9101716,-32.3429515 -40.0386262,-32.3271048 -40.1662322,-32.3111359 -40.2929937,-32.2950443 -40.4189142,-32.2788296 -40.5439977,-32.2624913 -40.5439977,-32.2624913 -40.5589455,-32.2600789 -40.5736911,-32.2568106 -40.5882096,-32.2527044 -40.602476,-32.2477781 -40.6164656,-32.2420494 -40.6301528,-32.2355366 -40.6434629,-32.2282871 -40.6563452,-32.220347 -40.6687867,-32.2117447 -40.6807745,-32.2025088 -40.6922955,-32.192668 -40.7033365,-32.1822509 -40.7138634,-32.1713108 -40.7238486,-32.1599015 -40.7332912,-32.1480502 -40.74219,-32.1357841 -40.7505441,-32.1231304 -40.7583525,-32.1101163 -40.765614,-32.096769 -40.7723277,-32.0831157 -40.7784926,-32.0691837 -40.7841041,-32.0550116 -40.7936665,-32.0260775 -40.8010435,-31.9964935 -40.8062698,-31.9664238 -40.8093801,-31.9360322 -40.8104092,-31.9054828 -40.8104092,-31.8029873 A0.3,0.3 0 0,1 -41.1104092,-31.5029873 L-42.9962033,-31.5029873 -42.9962033,-31.5029873 -43.0181147,-31.5036655 -43.0399235,-31.5056851 -43.0615644,-31.5090239 -43.0829727,-31.5136595 -43.1040831,-31.5195694 -43.124821,-31.5267276 -43.1450936,-31.5350972 -43.1648311,-31.5446465 -43.1839657,-31.555344 -43.2024293,-31.5671584 -43.220159,-31.5800631 -43.237083,-31.5940303 -43.253104,-31.6090148 -43.268124,-31.6249713 -43.282045,-31.641854 -43.2947691,-31.6596175 -43.2947691,-31.6596175 -43.3058636,-31.6754242 -43.3176188,-31.6904427 -43.3301614,-31.7047749 -43.3434922,-31.7183337 -43.3576108,-31.7310308 -43.3725172,-31.7427781 -43.3882092,-31.753486 -43.4045896,-31.763008 -43.4215766,-31.7712315 -43.4391334,-31.7780786 -43.457223,-31.7834715 -43.4757682,-31.7873251 -43.4944756,-31.7895458 -43.5132425,-31.7901207 -43.5320077,-31.7890479 -43.5507097,-31.7863253 -43.5507097,-31.7863253 -43.6805614,-31.761408 -43.8092699,-31.7362814 -43.9368426,-31.7109444 -44.0632872,-31.6853964 -44.1886112,-31.6596364 -44.312822,-31.6336635 -44.4359271,-31.6074769 -44.5579341,-31.5810757 -44.6788505,-31.554459 -44.7986838,-31.527626 -44.9174416,-31.5005757 -45.0351312,-31.4733074 -45.1517603,-31.4458202 -45.2673363,-31.4181131 -45.3818667,-31.3901853 -45.4953592,-31.3620359 -45.6078211,-31.3336641 -45.71926,-31.305069 -45.8296834,-31.2762497 -45.9390988,-31.2472054 -46.0475138,-31.2179352 -46.1549358,-31.1884381 -46.2613723,-31.1587134 -46.366831,-31.1287602 -46.4713192,-31.0985776 -46.5748444,-31.0681647 -46.6774143,-31.0375206 -46.7790363,-31.0066445 -46.8797179,-30.9755356 -46.9794667,-30.9441929 -47.0782901,-30.9126156 -47.1761957,-30.8808027 -47.2731909,-30.8487535 -47.3692834,-30.8164671 -47.4644805,-30.7839425 -47.5587898,-30.751179 -47.6522189,-30.7181756 -47.7447752,-30.6849315 -47.8364662,-30.6514458 -47.9272995,-30.6177177 -48.0172826,-30.5837462 -48.1064229,-30.5495305 -48.1947281,-30.5150697 -48.2822055,-30.480363 -48.3688628,-30.4454094 -48.4547357,-30.4101955 -48.5398984,-30.3746892 -48.6243569,-30.3388873 -48.7081143,-30.3027881 -48.7911736,-30.2663898 -48.873538,-30.2296907 -48.9552104,-30.192689 -49.0361938,-30.1553829 -49.1164915,-30.1177708 -49.1961063,-30.0798508 -49.2750413,-30.0416211 -49.3532996,-30.0030801 -49.4308842,-29.9642259 -49.5077982,-29.9250569 -49.5840447,-29.8855712 -49.6596266,-29.8457671 -49.734547,-29.8056428 -49.8088089,-29.7651966 -49.8824155,-29.7244267 -49.9553697,-29.6833313 -50.0276746,-29.6419088 -50.0993333,-29.6001573 -50.1703488,-29.5580751 -50.2407241,-29.5156604 -50.3104622,-29.4729115 -50.3795664,-29.4298266 -50.4480395,-29.3864039 -50.5158846,-29.3426418 -50.5831048,-29.2985383 -50.6497031,-29.2540919 -50.7156826,-29.2093007 -50.7810463,-29.1641629 -50.8457973,-29.1186769 -50.9099386,-29.0728407 -50.9734732,-29.0266528 -51.0364043,-28.9801113 -51.0987348,-28.9332145 -51.1604678,-28.8859606 -51.2216063,-28.8383479 -51.2821534,-28.7903745 -51.3421122,-28.7420388 -51.4014856,-28.693339 -51.4602768,-28.6442733 -51.5184887,-28.5948399 -51.5761245,-28.5450372 -51.6331872,-28.4948634 -51.6896797,-28.4443166 -51.7456053,-28.3933951 -51.8009668,-28.3420973 -51.8557645,-28.2904237 -51.9099776,-28.2383936 -51.9636044,-28.1860109 -52.0166483,-28.1332756 -52.0691127,-28.0801875 -52.121001,-28.0267462 -52.1723167,-27.9729517 -52.223063,-27.9188038 -52.2732435,-27.8643022 -52.3228616,-27.8094467 -52.3719206,-27.7542373 -52.420424,-27.6986735 -52.4683752,-27.6427554 -52.5157776,-27.5864826 -52.5626346,-27.5298549 -52.6089497,-27.4728723 -52.6547262,-27.4155344 -52.6999675,-27.3578411 -52.7446771,-27.2997922 -52.7888584,-27.2413875 -52.8325148,-27.1826268 -52.8756496,-27.1235099 -52.9182664,-27.0640366 -52.9603686,-27.0042067 -53.0019594,-26.94402 -53.0430424,-26.8834763 -53.083621,-26.8225755 -53.1236985,-26.7613172 -53.1632785,-26.6997014 -53.2023642,-26.6377278 -53.2409591,-26.5753963 -53.2790667,-26.5127066 -53.3538333,-26.3862518 -53.4266914,-26.2583621 -53.4976682,-26.1290359 -53.5667911,-25.9982714 -53.6340872,-25.8660673 -53.699584,-25.7324218 -53.7633088,-25.5973336 -53.8252887,-25.4608009 -53.8854613,-25.323016 -53.9437383,-25.184267 -54.000153,-25.0446051 -54.054739,-24.9040806 -54.1075302,-24.7627435 -54.1585603,-24.620644 -54.207863,-24.4778322 -54.2554722,-24.3343581 -54.3014216,-24.190272 -54.345745,-24.045624 -54.3884761,-23.9004641 -54.4296487,-23.7548425 -54.4692966,-23.6088094 -54.5074535,-23.4624148 -54.5441532,-23.3157088 -54.5794294,-23.1687417 -54.6133159,-23.0215634 -54.6458465,-22.8742242 -54.677055,-22.7267742 -54.706975,-22.5792634 -54.7356405,-22.4317421 -54.763085,-22.2842603 -54.7893425,-22.1368681 -54.8144703,-21.9894792 -54.8386653,-21.8411352 -54.8619721,-21.6916436 -54.8844,-21.541007 -54.9059579,-21.3892281 -54.9266551,-21.2363097 -54.9465006,-21.0822545 -54.9655036,-20.9270652 -54.9836732,-20.7707445 -55.0010185,-20.6132951 -55.0175486,-20.4547198 -55.0332727,-20.2950213 -55.0481999,-20.1342023 -55.0623393,-19.9722655 -55.0757001,-19.8092137 -55.0882913,-19.6450495 -55.1001221,-19.4797758 -55.1112016,-19.3133951 -55.1215389,-19.1459103 -55.1311432,-18.977324 -55.1400235,-18.807639 -55.1481891,-18.636858 -55.155649,-18.4649836 -55.1624123,-18.2920188 -55.1684882,-18.117966 -55.1738858,-17.9428282 -55.1786142,-17.7666079 -55.1826826,-17.589308 -55.1861,-17.4109311 -55.1888757,-17.2314799 -55.1910186,-17.0509572 -55.192538,-16.8693658 -55.1934429,-16.6867082 -55.1937425,-16.5029873 -55.1937425,-16.5029873 -55.1936052,-16.37936 -55.1931931,-16.2564939 -55.1925059,-16.1343858 -55.1915431,-16.0130327 -55.1903044,-15.8924313 -55.1887894,-15.7725786 -55.1869978,-15.6534714 -55.1849293,-15.5351068 -55.1825834,-15.4174814 -55.1799598,-15.3005923 -55.1770582,-15.1844363 -55.1738781,-15.0690103 -55.1704192,-14.9543111 -55.1666813,-14.8403358 -55.1626638,-14.727081 -55.1583664,-14.6145438 -55.1537888,-14.5027211 -55.1489306,-14.3916096 -55.1437915,-14.2812063 -55.1383711,-14.1715081 -55.132669,-14.0625119 -55.1266849,-13.9542145 -55.1204184,-13.8466129 -55.1138691,-13.7397039 -55.1070367,-13.6334843 -55.0999209,-13.5279512 -55.0925212,-13.4231013 -55.0848373,-13.3189316 -55.0768688,-13.215439 -55.0686155,-13.1126202 -55.0600769,-13.0104723 -55.0512526,-12.9089921 -55.0421423,-12.8081765 -55.0327457,-12.7080223 -55.0230623,-12.6085265 -55.0130919,-12.509686 -55.002834,-12.4114976 -54.9922883,-12.3139582 -54.9814545,-12.2170647 -54.9703321,-12.1208139 -54.9589209,-12.0252029 -54.9472204,-11.9302284 -54.9352303,-11.8358873 -54.9229502,-11.7421766 -54.9103798,-11.6490931 -54.8975187,-11.5566337 -54.8843665,-11.4647952 -54.870923,-11.3735747 -54.8571876,-11.2829689 -54.8431601,-11.1929747 -54.8288402,-11.103589 -54.8142273,-11.0148088 -54.7993213,-10.9266309 -54.7841217,-10.8390521 -54.7686281,-10.7520694 -54.7528403,-10.6656796 -54.7367578,-10.5798797 -54.7203802,-10.4946665 -54.7037073,-10.410037 -54.6867386,-10.3259879 -54.6694739,-10.2425162 -54.6519126,-10.1596187 -54.6340546,-10.0772924 -54.6158993,-9.9955342 -54.5974465,-9.9143408 -54.5786958,-9.8337093 -54.5596469,-9.7536364 -54.5402993,-9.6741192 -54.5206527,-9.5951544 -54.5007067,-9.5167389 -54.4804611,-9.4388697 -54.4599154,-9.3615436 -54.4390692,-9.2847575 -54.4179222,-9.2085082 -54.3964741,-9.1327928 -54.3747245,-9.057608 -54.352673,-8.9829508 -54.3303192,-8.908818 -54.3076629,-8.8352065 -54.2847036,-8.7621132 -54.2378746,-8.6174687 -54.1898295,-8.4748597 -54.1405653,-8.3342612 -54.0900792,-8.1956483 -54.0383527,-8.0589559 -53.9851393,-7.9235613 -53.9303324,-7.7892653 -53.8739023,-7.656076 -53.8158197,-7.5240015 -53.7560551,-7.3930498 -53.6945791,-7.2632291 -53.6313621,-7.1345474 -53.5663747,-7.0070128 -53.4995874,-6.8806335 -53.4309707,-6.7554174 -53.3604953,-6.6313727 -53.2881315,-6.5085074 -53.2138501,-6.3868296 -53.1376214,-6.2663475 -53.059416,-6.147069 -52.9792045,-6.0290023 -52.8969573,-5.9121555 -52.8550612,-5.8541921 -52.8126451,-5.7965366 -52.7697054,-5.7391902 -52.7262383,-5.6821538 -52.6822403,-5.6254284 -52.6377076,-5.569015 -52.5926365,-5.5129147 -52.5470233,-5.4571285 -52.5008644,-5.4016573 -52.4541561,-5.3465022 -52.4068947,-5.2916642 -52.3590765,-5.2371442 -52.3106978,-5.1829434 -52.2617549,-5.1290627 -52.2122443,-5.0755032 -52.1621621,-5.0222657 -52.1115782,-4.9694275 -52.060607,-4.9171045 -52.0092531,-4.8652943 -51.9575196,-4.8139933 -51.9054098,-4.7631975 -51.8529268,-4.7129032 -51.8000738,-4.6631066 -51.746854,-4.6138039 -51.6932707,-4.5649914 -51.639327,-4.5166653 -51.5303714,-4.421457 -51.4200127,-4.3281487 -51.3082766,-4.2367102 -51.1951887,-4.1471113 -51.0807746,-4.0593216 -50.9650598,-3.9733108 -50.8480701,-3.8890488 -50.7298309,-3.8065052 -50.610368,-3.7256498 -50.4897069,-3.6464522 -50.3678732,-3.5688823 -50.2448925,-3.4929098 -50.1207905,-3.4185043 -49.9955927,-3.3456357 -49.8693248,-3.2742736 -49.7420123,-3.2043878 -49.6136809,-3.135948 -49.4843562,-3.068924 -49.3536559,-3.0030792 -49.2209417,-2.9380767 -49.0861823,-2.8739059 -48.9493538,-2.8105601 -48.8104324,-2.7480327 -48.6693942,-2.6863171 -48.5262151,-2.6254065 -48.3808713,-2.5652942 -48.233339,-2.5059737 -48.0835941,-2.4474383 -47.9316129,-2.3896812 -47.7773713,-2.3326958 -47.6993954,-2.3044904 -47.6208454,-2.2764755 -47.5417184,-2.2486501 -47.4620114,-2.2210136 -47.3817214,-2.1935649 -47.3008454,-2.1663034 -47.2193804,-2.1392281 -47.1373234,-2.1123382 -47.0546714,-2.0856329 -46.9714215,-2.0591114 -46.8875707,-2.0327728 -46.8031159,-2.0066164 -46.7180541,-1.9806411 -46.6323825,-1.9548463 -46.546098,-1.9292312 -46.4591976,-1.9037947 -46.3716783,-1.8785362 -46.2835371,-1.8534548 -46.1947711,-1.8285497 -46.1053772,-1.80382 -46.0153526,-1.7792648 -45.924694,-1.7548835 -45.8333987,-1.7306751 -45.7414636,-1.7066387 -45.6488857,-1.6827737 -45.555662,-1.659079 -45.4617896,-1.635554 -45.3672654,-1.6121977 -45.2720865,-1.5890094 -45.1762498,-1.5659881 -45.0797524,-1.5431331 -44.9825913,-1.5204436 -44.8847636,-1.4979186 -44.7862661,-1.4755574 -44.687096,-1.4533591 -44.5872502,-1.431323 -44.4867257,-1.4094481 -44.3855196,-1.3877336 -44.2836289,-1.3661787 -44.1810506,-1.3447826 -44.0777816,-1.3235444 -43.9738191,-1.3024633 -43.86916,-1.2815385 -43.76378,-1.2607654 -43.6576316,-1.2401358 -43.5507097,-1.2196492 -43.5507097,-1.2196492 -43.5321359,-1.2169397 -43.5134574,-1.2158568 -43.4947345,-1.2164096 -43.4760673,-1.2186008 -43.4577122,-1.22238 -43.4397461,-1.2276873 -43.4222181,-1.2344651 -43.4052778,-1.2425998 -43.3890348,-1.2519654 -43.3735031,-1.2624734 -43.3586963,-1.2740351 -43.3446283,-1.286562 -43.3312989,-1.2999804 -43.3185541,-1.3144059 -43.3063683,-1.3298706 -43.2947691,-1.3463571 -43.2947691,-1.3463571 -43.282028,-1.364141 -43.2680898,-1.3810385 -43.2530584,-1.3970015 -43.2370379,-1.4119819 -43.2201311,-1.4259329 -43.2024115,-1.4388292 -43.1839449,-1.4506436 -43.1648022,-1.4613431 -43.1450541,-1.4708948 -43.1247717,-1.4792656 -43.104044,-1.4864174 -43.0829494,-1.4923208 -43.0615531,-1.4969526 -43.03992,-1.5002898 -43.0181151,-1.502309 -42.9962033,-1.5029873 -41.1104092,-1.5029873 A0.3,0.3 270 0,1 -40.8104092,-1.2029873 L-40.8104092,-1.1004918 -40.8104092,-1.1004918 -40.8093807,-1.0699538 -40.8062709,-1.0395657 -40.8010428,-1.0094886 -40.7936598,-0.9798838 -40.7840876,-0.9509205 -40.7784773,-0.9367531 -40.7723167,-0.9228325 -40.765605,-0.9091848 -40.758341,-0.8958361 -40.7505237,-0.8828122 -40.7421522,-0.8701392 -40.7332255,-0.8578432 -40.7237432,-0.845951 -40.7137321,-0.8345219 -40.7032135,-0.8236009 -40.6921975,-0.8132168 -40.6806943,-0.8033986 -40.6687138,-0.7941753 -40.6562663,-0.7855758 -40.6433617,-0.7776291 -40.6300389,-0.7703798 -40.6163834,-0.7638885 -40.6024219,-0.7581756 -40.5881785,-0.7532599 -40.5736773,-0.7491601 -40.5589424,-0.7458949 -40.5439977,-0.7434832 -40.5439977,-0.7434832 -40.418577,-0.7271013 -40.2923237,-0.7108448 -40.1652343,-0.6947133 -40.0373051,-0.6787064 -39.9085328,-0.6628235 -39.7789138,-0.6470644 -39.6484446,-0.6314284 -39.5171216,-0.6159153 -39.3849414,-0.6005244 -39.2519005,-0.5852555 -39.1179953,-0.570108 -38.9832223,-0.5550815 -38.847578,-0.5401755 -38.7110589,-0.5253897 -38.5736614,-0.5107235 -38.4353822,-0.4961766 -38.2962175,-0.4817484 -38.156164,-0.4674386 -38.0152182,-0.4532466 -37.8733764,-0.4391721 -37.7306352,-0.4252147 -37.5869911,-0.4113737 -37.4424406,-0.3976489 -37.2969801,-0.3840398 -37.1506062,-0.3705459 -37.0033152,-0.3571668 -36.8551038,-0.343902 -36.7059683,-0.3307511 -36.5559054,-0.3177137 -36.4049114,-0.3047893 -36.2529828,-0.2919774 -36.1001162,-0.2792777 -35.946308,-0.2666896 -35.7915548,-0.2542128 -35.6358529,-0.2418468 -35.4791989,-0.2295911 -35.3215892,-0.2174453 -35.1630204,-0.205409 -35.0034889,-0.1934817 -34.8429913,-0.1816629 -34.681524,-0.1699523 -34.5190834,-0.1583493 -34.3556662,-0.1468536 -34.1912687,-0.1354647 -34.0258874,-0.1241822 -33.8595189,-0.1130055 -33.6921597,-0.1019343 -33.5238061,-0.0909681 -33.3544547,-0.0801065 -33.184102,-0.069349 -33.0127445,-0.0586952 -32.8403786,-0.0481447 -32.6670009,-0.0376969 -32.4926078,-0.0273515 -32.3171958,-0.0171081 -32.1407614,-0.006966 -31.9633011,0.003075 -31.7848113,0.0130154 -31.6052886,0.0228557 -31.4247294,0.0325963 -31.2431303,0.0422376 -31.0604877,0.0517802 -30.8767981,0.0612244 -30.6920579,0.0705707 -30.6920579,0.0705707 -30.6768126,0.0709463 -30.6615802,0.0705445 -30.6463902,0.0693672 -30.6312721,0.0674163 -30.6162625,0.0646953 -30.6014233,0.0612156 -30.5867867,0.0569864 -30.5723809,0.0520163 -30.5582349,0.0463143 -30.5444106,0.0399058 -30.5309533,0.0328155 -30.517887,0.0250601 -30.5052358,0.0166565 -30.4930237,0.0076214 -30.4812747,-0.0020284 -30.4700129,-0.0122762 -30.4592677,-0.0230994 -30.4490995,-0.0344371 -30.4395321,-0.0462568 -30.4305814,-0.0585339 -30.4222633,-0.0712437 -30.4145934,-0.0843618 -30.4075876,-0.0978635 -30.4012617,-0.1117242 -30.3956384,-0.1259003 -30.3907463,-0.1403166 -30.386592,-0.1549418 -30.3831807,-0.1697473 -30.380518,-0.1847045 -30.3786093,-0.1997847 -30.3774601,-0.2149592 -30.3770759,-0.2301994 -30.3770759,-1.2029873 A0.3,0.3 180 0,1 -30.0770759,-1.5029873 L-28.2770759,-1.5029873 A0.3,0.3 270 0,1 -27.9770759,-1.2029873 L-27.9770759,-0.0964536 -27.9770759,-0.0964536 -27.9767307,-0.0820658 -27.9756983,-0.0677339 -27.9739831,-0.0534824 -27.9715896,-0.0393355 -27.9685223,-0.0253176 -27.9647855,-0.011453 -27.9603839,0.0022338 -27.9553238,0.0157136 -27.9496307,0.0289183 -27.9433215,0.0418157 -27.9364093,0.054385 -27.9289072,0.066605 -27.9208283,0.0784549 -27.9121857,0.0899136 -27.9029925,0.1009601 -27.8932635,0.1115717 -27.8830463,0.1216953 -27.8723731,0.1313026 -27.8612638,0.1403792 -27.8497386,0.1489107 -27.8378176,0.1568826 -27.8255208,0.1642804 -27.8128684,0.1710899 -27.799881,0.1772961 -27.7866175,0.1828695 -27.7731249,0.1877929 -27.7594271,0.1920605 -27.7455482,0.1956665 -27.7315124,0.1986053 -27.7173436,0.2008711 -27.703066,0.2024582 -27.6887036,0.2033609 -27.6887036,0.2033609 -27.4125874,0.2139485 -27.1344073,0.2243688 -26.8541544,0.2346229 -26.5718195,0.2447119 -26.5718195,0.2447119 -26.5540377,0.2098533 -26.5367912,0.1744092 -26.5200501,0.1384073 -26.5037847,0.1018749 -26.4879652,0.0648399 -26.4725617,0.0273297 -26.4428838,-0.0490059 -26.4145126,-0.1269111 -26.3872097,-0.2061652 -26.3607369,-0.2865475 -26.3348558,-0.3678375 -26.2839132,-0.5322718 -26.2324473,-0.697939 -26.2059108,-0.7807859 -26.178515,-0.8633993 -26.1500173,-0.9455974 -26.1201751,-1.0271985 -26.0887457,-1.1080207 -26.0554865,-1.1878824 -26.038095,-1.2273963 -26.0201549,-1.2666018 -26.0016361,-1.3054763 -25.9825082,-1.3439971 -25.9627409,-1.3821414 -25.9423149,-1.4198663 -25.9212342,-1.4570934 -25.8994718,-1.4938052 -25.8769987,-1.5299887 -25.8537859,-1.5656306 -25.8298043,-1.6007179 -25.8050249,-1.6352375 -25.7794187,-1.6691761 -25.7529565,-1.7025207 -25.7256095,-1.7352582 -25.6973484,-1.7673753 -25.668183,-1.7988184 -25.6383216,-1.8293444 -25.6077946,-1.8589291 -25.576596,-1.8875886 -25.5447193,-1.9153394 -25.5121584,-1.9421976 -25.4789071,-1.9681797 -25.4449591,-1.993302 -25.4103082,-2.0175808 -25.3749482,-2.0410323 -25.3388728,-2.0636729 -25.3020759,-2.085519 A1.25,1.25 240 0,1 -24.0520759,-2.085519 L-24.0520759,-2.085519 -24.0141883,-2.0629149 -23.977236,-2.0393981 -23.9411966,-2.0149657 -23.9060481,-1.989615 -23.8717682,-1.9633432 -23.8383348,-1.9361476 -23.8057256,-1.9080254 -23.7739184,-1.8789738 -23.7428911,-1.8489901 -23.7126214,-1.8180716 -23.6830872,-1.7862153 -23.6542662,-1.7534187 -23.6261363,-1.7196788 -23.598688,-1.6850095 -23.5720353,-1.6495969 -23.5461862,-1.6135132 -23.5211103,-1.5767827 -23.4967768,-1.5394298 -23.4731552,-1.5014789 -23.4502149,-1.4629543 -23.4279252,-1.4238805 -23.4062557,-1.3842818 -23.3851756,-1.3441827 -23.3646543,-1.3036074 -23.3446614,-1.2625805 -23.3251661,-1.2211262 -23.287546,-1.1370331 -23.2515507,-1.0515263 -23.2169807,-0.9649153 -23.1836214,-0.8774926 -23.1512384,-0.7895066 -23.0884642,-0.6128387 -23.0267831,-0.4368996 -22.9957667,-0.3498245 -22.9643205,-0.263677 -22.9322101,-0.1787057 -22.8992014,-0.095159 -22.8650598,-0.0132853 -22.8474909,0.0269465 -22.829551,0.0666668 -22.8112107,0.1058446 -22.7924407,0.1444488 -22.7732117,0.1824485 -22.7534945,0.2198124 -22.7332597,0.2565095 -22.7124781,0.2925089 -22.6911203,0.3277794 -22.6691571,0.3622899 -22.6691571,0.3622899 -22.1843955,0.3743931 -22.1843955,0.3743931 -22.1693954,0.3743841 -22.1544254,0.3736243 -22.1395133,0.3721163 -22.1246872,0.3698622 -22.1099862,0.3668671 -22.0954651,0.3631425 -22.0811519,0.3586971 -22.0670736,0.353539 -22.0532632,0.3476795 -22.0397854,0.3411475 -22.0266701,0.3339616 -22.0139402,0.3261377 -22.0016187,0.3176917 -21.9897286,0.3086394 -21.9782929,0.2989968 -21.9673345,0.2887796 -21.9568878,0.2780162 -21.9470082,0.2667648 -21.9377135,0.2550516 -21.9290189,0.2428998 -21.9209396,0.2303329 -21.9134909,0.2173743 -21.9066878,0.2040473 -21.9005457,0.1903753 -21.8950884,0.1764061 -21.8903413,0.1622084 -21.88631,0.1478105 -21.8829998,0.1332396 -21.880416,0.1185233 -21.8785639,0.1036887 -21.8774487,0.0887633 -21.8770759,0.0737744 -21.8770759,-1.2029873 A0.3,0.3 180 0,1 -21.5770759,-1.5029873 L-19.7770759,-1.5029873 A0.3,0.3 270 0,1 -19.4770759,-1.2029873 L-19.4770759,0.1377975 -19.4770759,0.1377975 -19.4767233,0.1524099 -19.4756688,0.1669637 -19.4739172,0.1814338 -19.471473,0.1957949 -19.4683411,0.2100218 -19.4645262,0.2240891 -19.4600329,0.2379718 -19.4548661,0.2516444 -19.4490448,0.2650507 -19.4425939,0.2781372 -19.435527,0.2908823 -19.4278579,0.3032641 -19.4196002,0.3152611 -19.4107677,0.3268512 -19.4013742,0.3380129 -19.3914332,0.3487244 -19.3809826,0.3589414 -19.3700678,0.3686213 -19.3587098,0.377749 -19.3469297,0.3863096 -19.3347485,0.3942881 -19.3221871,0.4016695 -19.3092667,0.4084388 -19.2960081,0.414581 -19.2824641,0.4200692 -19.2686937,0.424881 -19.2547222,0.4290107 -19.2405747,0.4324526 -19.2262766,0.4352012 -19.2118531,0.4372506 -19.1973295,0.4385953 -19.1827309,0.4392295 -19.1827309,0.4392295 -18.5630234,0.4506601 -18.254034,0.4561328 -17.9457056,0.4614476 -17.6381018,0.4666076 -17.3312861,0.4716158 -17.025322,0.476475 -16.7202732,0.4811883 -16.4162032,0.4857588 -16.1131755,0.4901892 -15.8112538,0.4944827 -15.5099805,0.498649 -15.2079102,0.5027101 -14.904985,0.5066681 -14.6012399,0.5105241 -14.2967096,0.5142791 -13.9914289,0.5179341 -13.6854327,0.5214902 -13.3787559,0.5249484 -13.0714332,0.5283096 -12.4549895,0.5347455 -11.8363805,0.5408059 -11.2158846,0.546499 -10.5937805,0.5518331 -9.9703469,0.5568163 -9.3458625,0.5614566 -9.3458625,0.5614566 -9.3309543,0.5611881 -9.3160887,0.5601708 -9.3012932,0.5584078 -9.2865951,0.5559017 -9.2720404,0.5526601 -9.2576768,0.5486949 -9.2435303,0.5440149 -9.2296272,0.5386289 -9.2160159,0.5325564 -9.2027499,0.525825 -9.1898512,0.5184512 -9.1773417,0.5104511 -9.1652432,0.5018409 -9.1535777,0.4926368 -9.142367,0.482855 -9.131633,0.4725119 -9.1214236,0.4616526 -9.1117777,0.4503236 -9.1027092,0.4385478 -9.0942321,0.4263485 -9.0863603,0.4137488 -9.0791077,0.4007718 -9.0724883,0.3874406 -9.066516,0.3737784 -9.061217,0.3598433 -9.0566093,0.34569 -9.0526974,0.3313451 -9.0494863,0.3168349 -9.0469805,0.3021858 -9.0451848,0.2874244 -9.0441039,0.272577 -9.0437425,0.2576702 -9.0437425,-1.2029873 A0.3,0.3 180 0,1 -8.7437425,-1.5029873 L-6.9437425,-1.5029873 A0.3,0.3 270 0,1 -6.6437425,-1.2029873 L-6.6437425,0.2749446 -6.6437425,0.2749446 -6.6433867,0.2897618 -6.6423208,0.3045363 -6.6405472,0.3192419 -6.6380682,0.3338523 -6.6348888,0.3483304 -6.6310191,0.3626295 -6.6264662,0.3767235 -6.6212371,0.3905869 -6.6153433,0.4041849 -6.6088103,0.4174597 -6.6016531,0.4303855 -6.5938854,0.44294 -6.5855209,0.4551003 -6.5765734,0.4668441 -6.5670566,0.4781487 -6.5569842,0.4889915 -6.5463814,0.4993391 -6.5353035,0.5091367 -6.5237748,0.5183654 -6.5118165,0.5270093 -6.4994503,0.5350526 -6.4866975,0.5424795 -6.4735795,0.549274 -6.4601179,0.5554204 -6.4463571,0.560894 -6.4323687,0.5656668 -6.4181801,0.5697322 -6.4038176,0.5730845 -6.3893075,0.5757178 -6.3746758,0.5776261 -6.3599488,0.5788037 -6.3451528,0.5792446 -6.3451528,0.5792446 -5.6510834,0.5823804 -4.9580911,0.5851734 -4.2665574,0.5876362 -3.576864,0.5897814 -3.2328265,0.5907388 -2.8893922,0.5916216 -2.5466086,0.5924312 -2.2045236,0.5931692 -1.8631847,0.5938372 -1.5226397,0.5944368 -1.1829363,0.5949696 -0.8441222,0.595437 -0.8441222,0.595437 -0.8292429,0.5950809 -0.8144307,0.593978 -0.799712,0.5921345 -0.7851136,0.5895563 -0.770662,0.5862494 -0.7563839,0.5822199 -0.7423058,0.5774738 -0.7284545,0.572017 -0.7148966,0.5658752 -0.7016865,0.5590768 -0.6888457,0.5516383 -0.6763959,0.5435761 -0.6643585,0.5349065 -0.6527551,0.5256461 -0.6416072,0.5158112 -0.630937,0.5054188 -0.6207964,0.49452 -0.6112179,0.4831557 -0.602215,0.4713491 -0.5938013,0.4591232 -0.5859902,0.4465011 -0.5787954,0.4335061 -0.5722302,0.4201611 -0.5663084,0.4064898 -0.5610566,0.3925531 -0.5564903,0.3784011 -0.552614,0.3640598 -0.5494324,0.3495556 -0.5469499,0.3349147 -0.545171,0.3201632 -0.5441004,0.3053273 -0.5437425,0.2904333 -0.5437425,-1.2029873 A0.3,0.3 180 0,1 -0.2437425,-1.5029873 L1.5562575,-1.5029873 A0.3,0.3 270 0,1 1.8562575,-1.2029873 L1.8562575,0.2917486 1.8562575,0.2917486 1.8566144,0.3066347 1.8576837,0.321478 1.859463,0.336252 1.86195,0.3509302 1.8651401,0.365477 1.869023,0.3798442 1.8735917,0.394005 1.8788391,0.4079337 1.8847552,0.4215987 1.8913148,0.4349407 1.8985016,0.4479313 1.906302,0.4605476 1.9147022,0.4727667 1.9236886,0.4845658 1.9332472,0.4959219 1.9433645,0.5068122 1.9540183,0.517206 1.9651524,0.5270463 1.9767402,0.5363118 1.9887601,0.5449864 2.0011905,0.5530538 2.0140098,0.5604978 2.0271963,0.5673024 2.0407285,0.5734513 2.0545644,0.5789207 2.0686289,0.5836808 2.0828932,0.5877246 2.0973306,0.5910463 2.1119147,0.5936398 2.1266189,0.5954994 2.1414166,0.5966189 2.1562813,0.5969926 2.1562813,0.5969926 2.7675306,0.5969125 3.3803693,0.5967688 3.9945492,0.5965591 4.6098227,0.5962811 5.2259417,0.5959322 5.8426583,0.5955099 7.0768928,0.5944357 8.3105429,0.5930388 8.9265291,0.5922132 9.5416254,0.5912996 10.155584,0.5902956 10.768157,0.5891985 11.3790964,0.5880062 11.9902399,0.5867115 11.9902399,0.5867115 12.0050983,0.5863038 12.0198872,0.5851502 12.0345802,0.5832569 12.0491508,0.5806301 12.0635726,0.5772757 12.077819,0.5732 12.0918637,0.5684089 12.1056794,0.562909 12.1191952,0.5567282 12.1323623,0.5498934 12.1451593,0.5424208 12.157565,0.5343271 12.1695579,0.5256286 12.1811168,0.5163418 12.1922203,0.5064832 12.2028458,0.4960705 12.21294,0.4851572 12.2224734,0.4737814 12.2314329,0.4619662 12.239805,0.4497345 12.2475766,0.4371096 12.2547343,0.4241145 12.2612648,0.4107721 12.2671545,0.3971063 12.2723767,0.3831793 12.276917,0.3690386 12.280771,0.3547104 12.2839343,0.3402206 12.2864023,0.3255953 12.2881707,0.3108605 12.2892351,0.2960422 12.2895908,0.2811665 12.2895908,-1.2029873 A0.3,0.3 180 0,1 12.5895908,-1.5029873 L14.3895908,-1.5029873 A0.3,0.3 270 0,1 14.6895908,-1.2029873 L14.6895908,0.2730929 14.6895908,0.2730929 14.6899487,0.2880177 14.6910207,0.3028994 14.6928044,0.3177116 14.6952977,0.3324275 14.698496,0.3470123 14.7023891,0.3614168 14.7069698,0.3756141 14.7122309,0.3895781 14.7181633,0.4032786 14.7247419,0.4166563 14.7319497,0.4296807 14.739773,0.4423289 14.748198,0.4545777 14.7572109,0.4664042 14.7667979,0.4777852 14.7769452,0.4886978 14.7876323,0.4991126 14.7988024,0.5089718 14.8104278,0.5182526 14.8224865,0.5269386 14.8349568,0.5350137 14.8478171,0.5424614 14.8610456,0.5492654 14.8746205,0.5554094 14.888501,0.5608701 14.9026105,0.5656167 14.9169193,0.5696422 14.9314004,0.5729405 14.9460273,0.5755058 14.9607731,0.5773321 14.9756111,0.5784135 14.9905144,0.5787441 14.9905144,0.5787441 15.8612203,0.5758809 15.8612203,0.5758809 15.8906036,0.5447102 15.9189242,0.5122829 15.9462228,0.4786241 15.9724829,0.4438399 15.9977111,0.4080242 16.0219564,0.3712193 16.0452676,0.3334677 16.0676936,0.2948117 16.0892834,0.2552938 16.1100857,0.2149564 16.1301495,0.1738419 16.1495237,0.1319927 16.168257,0.0894512 16.1863986,0.0462598 16.2039995,0.0024518 16.2211112,-0.0419456 16.2377812,-0.0868928 16.2540569,-0.1323502 16.285615,-0.2246368 16.3161647,-0.3184882 16.3460854,-0.4135873 16.3757563,-0.5096168 16.4055567,-0.6062595 16.4358659,-0.7031982 16.4670632,-0.8001158 16.4995279,-0.896695 16.5336393,-0.9926186 16.551431,-1.0402354 16.5697766,-1.0875694 16.5887235,-1.1345808 16.6083246,-1.181243 16.6286356,-1.2275343 16.6497065,-1.2734184 16.6715872,-1.3188591 16.6943276,-1.3638201 16.7179776,-1.4082651 16.7425873,-1.4521578 16.7682064,-1.4954619 16.794885,-1.5381412 16.8226729,-1.5801593 16.8516201,-1.62148 16.8817764,-1.6620669 16.9131193,-1.7017946 16.9453901,-1.7402892 16.9785761,-1.7775312 17.0126946,-1.8135409 17.0477629,-1.8483385 17.0837985,-1.8819444 17.1208188,-1.9143788 17.158841,-1.945662 17.1978826,-1.9758142 17.2379611,-2.0048558 17.2790936,-2.0328069 17.3212978,-2.0596879 17.3645908,-2.085519 A1.25,1.25 240 0,1 18.6145908,-2.085519 L18.6145908,-2.085519 18.6553449,-2.0611439 18.6950169,-2.0357103 18.7336343,-2.0092149 18.7712251,-1.9816543 18.8078167,-1.9530249 18.843437,-1.9233233 18.8781136,-1.8925461 18.9118743,-1.8606898 18.9447467,-1.827751 18.9767586,-1.7937261 19.0079376,-1.7586119 19.0383114,-1.7224047 19.0678954,-1.6851174 19.0965611,-1.6469634 19.1242978,-1.6080335 19.1511437,-1.568358 19.1771368,-1.5279674 19.2023155,-1.4868922 19.2267179,-1.4451627 19.2503823,-1.4028094 19.2733467,-1.3598628 19.2956494,-1.3163532 19.3173287,-1.2723111 19.3384227,-1.227767 19.3589695,-1.1827512 19.3790074,-1.1372942 19.4177069,-1.0451844 19.4547684,-0.9518279 19.4904648,-0.8575791 19.5250899,-0.7627451 19.5589377,-0.6676331 19.6254764,-0.4778044 19.6587551,-0.3837021 19.6924321,-0.2905508 19.726801,-0.1986578 19.7621558,-0.1083302 19.7988893,-0.019645 19.8181762,0.0246673 19.8381963,0.0689788 19.8589843,0.1131664 19.880575,0.1571072 19.9030032,0.2006784 19.9263038,0.243757 19.9505115,0.28622 19.9756612,0.3279446 20.0017877,0.3688079 20.0289319,0.4087002 20.057169,0.4475847 20.0865609,0.48539 20.1171658,0.5220369 20.1490423,0.5574458 20.1490423,0.5574458 20.4911839,0.5556223 20.4911839,0.5556223 20.506019,0.5551677 20.5207826,0.5539689 20.5354485,0.5520321 20.5499902,0.5493633 20.5643814,0.5459689 20.5785958,0.541855 20.5926071,0.5370276 20.6063874,0.5314938 20.619863,0.5252832 20.6329896,0.5184211 20.6457458,0.5109239 20.6581107,0.5028081 20.670063,0.4940902 20.6815815,0.4847866 20.6926451,0.4749137 20.7032306,0.46449 20.713284,0.4535704 20.7227781,0.442191 20.7316999,0.4303747 20.7400362,0.4181445 20.7477738,0.4055235 20.7548997,0.3925346 20.7614006,0.3792007 20.7672631,0.3655458 20.7724604,0.351633 20.7769789,0.3375079 20.7808143,0.3231967 20.7839621,0.308725 20.7864181,0.2941188 20.7881778,0.2794039 20.7892368,0.2646062 20.7895908,0.2497516 20.7895908,-1.2029873 A0.3,0.3 180 0,1 21.0895908,-1.5029873 L22.8895908,-1.5029873 A0.3,0.3 270 0,1 23.1895908,-1.2029873 L23.1895908,0.2309391 23.1895908,0.2309391 23.18995,0.2459095 23.191026,0.2608367 23.1928165,0.2756938 23.195319,0.290454 23.1985295,0.3050832 23.2024375,0.3195312 23.2070356,0.3337705 23.2123168,0.347775 23.2182725,0.3615156 23.2248778,0.3749333 23.232115,0.3879952 23.2399702,0.4006782 23.2484294,0.4129589 23.2574787,0.4248141 23.2671043,0.4362206 23.2772923,0.4471552 23.2880234,0.4575898 23.299241,0.467466 23.3109152,0.4767594 23.3230242,0.4854533 23.335546,0.4935315 23.3484586,0.5009774 23.3617402,0.5077745 23.3753688,0.5139064 23.3893049,0.5193502 23.4034699,0.5240745 23.4178332,0.5280718 23.4323678,0.5313363 23.4470466,0.533862 23.4618427,0.535643 23.4767289,0.5366734 23.4916783,0.5369473 23.4916783,0.5369473 23.6654701,0.5357043 23.8385928,0.5344469 24.0110477,0.5331752 24.1828365,0.5318891 24.3539605,0.5305885 24.5244214,0.5292734 24.6942207,0.5279437 24.8633597,0.5265993 25.0318401,0.5252402 25.1996633,0.5238663 25.3668308,0.5224776 25.5333442,0.521074 25.699205,0.5196553 25.8644145,0.5182217 26.0289745,0.5167729 26.1928863,0.5153089 26.3561514,0.5138298 26.5187714,0.5123353 26.6807478,0.5108255 26.842082,0.5093002 27.0027756,0.5077595 27.1628301,0.5062032 27.322247,0.5046313 27.4810277,0.5030438 27.6391738,0.5014405 27.7966868,0.4998213 27.9535682,0.4981864 28.1098195,0.4965355 28.2654422,0.4948686 28.4204378,0.4931857 28.5748078,0.4914866 28.7285537,0.4897714 28.881677,0.4880399 29.0341792,0.4862921 29.1860619,0.4845279 29.3373265,0.4827474 29.4879744,0.4809503 29.6380073,0.4791366 29.7874267,0.4773063 29.936234,0.4754594 30.0844307,0.4735957 30.2320183,0.4717152 30.3789984,0.4698178 30.5253725,0.4679034 30.671142,0.4659721 30.8163084,0.4640237 30.9608733,0.4620581 31.1048382,0.4600754 31.3909738,0.4560581 31.6747273,0.4519713 31.9561107,0.4478144 32.235136,0.443587 32.5118153,0.4392885 32.7861606,0.4349185 33.0581839,0.4304764 33.3278972,0.4259617 33.3278972,0.4259617 33.3426384,0.4253411 33.3573014,0.423984 33.3718602,0.4218968 33.3862892,0.4190858 33.4005625,0.4155573 33.4146543,0.4113176 33.4285388,0.4063731 33.4421837,0.400733 33.4555119,0.3944307 33.4684907,0.3874871 33.4810996,0.3799186 33.4933179,0.3717415 33.505125,0.362972 33.5165002,0.3536266 33.5274229,0.3437215 33.5378676,0.333278 33.5477798,0.3223537 33.5571385,0.3109788 33.5659311,0.2991761 33.574145,0.2869681 33.5817674,0.2743774 33.5887856,0.2614266 33.595187,0.2481384 33.600958,0.2345376 33.606072,0.2206886 33.6105178,0.2066323 33.6142911,0.1923941 33.6173878,0.1779993 33.6198037,0.1634732 33.6215345,0.1488411 33.622576,0.1341283 33.6229241,0.1193601 33.6229241,-1.2029873 A0.3,0.3 180 0,1 33.9229241,-1.5029873 L35.7229241,-1.5029873 A0.3,0.3 270 0,1 36.0229241,-1.2029873 L36.0229241,0.0603796 36.0229241,0.0603796 36.0232891,0.0755144 36.0243823,0.0906046 36.0262014,0.1056227 36.0287438,0.1205412 36.0320059,0.1353278 36.0359772,0.1499298 36.0406494,0.1643168 36.0460151,0.1784621 36.0520668,0.1923388 36.0587833,0.2058936 36.0661416,0.219082 36.0741274,0.2318802 36.0827261,0.2442643 36.0919234,0.2562105 36.1017048,0.2676948 36.1120558,0.2786934 36.1229605,0.2891809 36.1343647,0.2991006 36.1462304,0.3084201 36.1585348,0.3171225 36.1712553,0.325191 36.184369,0.3326087 36.1978533,0.3393589 36.2116853,0.3454245 36.2258292,0.3507842 36.2402015,0.3554048 36.2547674,0.3592779 36.2694989,0.3623976 36.2843681,0.3647584 36.2993469,0.3663544 36.3144073,0.36718 36.3295215,0.3672295 36.3295215,0.3672295 36.521686,0.3628642 36.7124913,0.3584478 36.9019436,0.35398 37.0900488,0.3494604 37.2768129,0.3448887 37.4622422,0.3402647 37.6463426,0.3355879 37.8291201,0.3308582 38.0105809,0.3260752 38.190731,0.3212385 38.3695764,0.3163479 38.5471232,0.3114031 38.7233775,0.3064037 38.8983453,0.3013494 39.0720327,0.29624 39.2444457,0.2910751 39.4155904,0.2858544 39.5854729,0.2805776 39.7540992,0.2752444 39.9214753,0.2698544 40.0876073,0.2644075 40.2525014,0.2589031 40.4161634,0.2533412 40.5785995,0.2477212 40.7398158,0.242043 40.8998183,0.2363062 41.0586131,0.2305105 41.2162062,0.2246556 41.3726036,0.2187411 41.5278115,0.2127669 41.6818359,0.2067325 41.8346828,0.2006376 41.8346828,0.2006376 41.849217,0.1996901 41.8636581,0.1980248 41.8779814,0.1956484 41.8921625,0.1925678 41.9061766,0.1887898 41.9199992,0.1843213 41.9336057,0.1791691 41.9469662,0.1733426 41.960008,0.166875 41.9726989,0.1597876 41.9850194,0.1520967 41.9969502,0.1438183 42.0084717,0.1349685 42.0195645,0.1255636 42.030209,0.1156196 42.0403731,0.1051666 42.0500095,0.0942579 42.0591048,0.0829169 42.067647,0.0711653 42.0756243,0.059025 42.0830246,0.0465177 42.0898361,0.0336654 42.0960469,0.0204897 42.1016429,0.0070178 42.1065988,-0.0066854 42.1109066,-0.0205868 42.1145623,-0.0346619 42.1175622,-0.0488866 42.1199022,-0.0632367 42.1215784,-0.077688 42.1225871,-0.0922162 42.1229241,-0.1067971 42.1229241,-1.2029873 A0.3,0.3 180 0,1 42.4229241,-1.5029873 L44.2229241,-1.5029873 A0.3,0.3 270 0,1 44.5229241,-1.2029873 L44.5229241,-0.2529728 44.5229241,-0.2529728 44.5233033,-0.2374767 44.5244389,-0.2220285 44.5263283,-0.2066573 44.5289687,-0.1913926 44.5323572,-0.1762645 44.5364834,-0.1613274 44.5413367,-0.1466207 44.5469089,-0.1321729 44.5531918,-0.1180124 44.5601741,-0.1041732 44.567825,-0.0907194 44.5761253,-0.0776834 44.585059,-0.0650904 44.5946103,-0.0529657 44.6047632,-0.0413346 44.6155019,-0.0302223 44.6268103,-0.019654 44.6386516,-0.0096722 44.6509646,-0.0003305 44.6637236,0.0083528 44.6769038,0.01636 44.6904803,0.0236738 44.7044284,0.0302766 44.7187231,0.0361509 44.733334,0.0412773 44.7481717,0.0456217 44.7631895,0.0491728 44.7783571,0.0519254 44.7936443,0.0538746 44.809021,0.0550153 44.8244567,0.0553425 44.8399214,0.0548513z"
       transform="matrix(1,0,0,-1,67.3437425,1.4970127)"
       fill="rgb(255,255,255)"
       stroke="rgb(0,0,0)"
       stroke-width="0.0010cm"
       stroke-linecap="round"
       stroke-linejoin="round"
       id="path68"
       style="fill:none;stroke:#000000;stroke-opacity:1;stroke-width:0.1;stroke-dasharray:none" /></g></svg>
