<?xml version="1.0" encoding="UTF-8" standalone="no"?>
<!-- Generator: Fusion 360, Shaper Origin Export Add-In, Version 1.8.0  -->

<svg
   shaper:fusionaddin="version:1.8.0"
   width="128cm"
   height="36cm"
   version="1.1"
   x="0cm"
   y="0cm"
   viewBox="0 0 128 36"
   enable-background="new 0 0 128 36"
   xml:space="preserve"
   id="svg1362"
   sodipodi:docname="corpus_7_Faces.svg"
   inkscape:version="1.2.2 (732a01da63, 2022-12-09)"
   xmlns:inkscape="http://www.inkscape.org/namespaces/inkscape"
   xmlns:sodipodi="http://sodipodi.sourceforge.net/DTD/sodipodi-0.dtd"
   xmlns="http://www.w3.org/2000/svg"
   xmlns:svg="http://www.w3.org/2000/svg"
   xmlns:shaper="http://www.shapertools.com/namespaces/shaper"><defs
     id="defs1366" /><sodipodi:namedview
     id="namedview1364"
     pagecolor="#505050"
     bordercolor="#eeeeee"
     borderopacity="1"
     inkscape:showpageshadow="0"
     inkscape:pageopacity="0"
     inkscape:pagecheckerboard="0"
     inkscape:deskcolor="#505050"
     inkscape:document-units="cm"
     showgrid="false"
     inkscape:zoom="0.27078451"
     inkscape:cx="2306.2619"
     inkscape:cy="681.35361"
     inkscape:window-width="1920"
     inkscape:window-height="991"
     inkscape:window-x="-9"
     inkscape:window-y="-9"
     inkscape:window-maximized="1"
     inkscape:current-layer="svg1362" /><g
     id="g1519"
     style="fill:none;stroke:#000000;stroke-opacity:1;stroke-width:0.1;stroke-dasharray:none"><path
       d="M59.5,-33.3 A1.4,1.4 270 0,1 60.9,-31.9 L60.9,1.3 A1.4,1.4 0 0,1 59.5,2.7 L-65.7,2.7 A1.4,1.4 90 0,1 -67.1,1.3 L-67.1,-31.9 A1.4,1.4 180 0,1 -65.7,-33.3 L59.5,-33.3z"
       transform="matrix(1,0,0,-1,67.1,2.7)"
       fill="rgb(0,0,0)"
       stroke-linecap="round"
       stroke-linejoin="round"
       id="path1294"
       style="fill:none;stroke:#000000;stroke-opacity:1;stroke-width:0.1;stroke-dasharray:none" /><path
       d="M-24.8433333,0.2 a0.41,0.41 0 1,1 0.82,0 a0.41,0.41 0 1,1 -0.82,0z"
       transform="matrix(1,0,0,-1,67.1,2.7)"
       fill="rgb(255,255,255)"
       stroke="rgb(0,0,0)"
       stroke-width="0.0010cm"
       stroke-linecap="round"
       stroke-linejoin="round"
       id="path1296"
       style="fill:none;stroke:#000000;stroke-opacity:1;stroke-width:0.1;stroke-dasharray:none" /><path
       d="M57.99,0.2 a0.41,0.41 0 1,1 0.82,0 a0.41,0.41 0 1,1 -0.82,0z"
       transform="matrix(1,0,0,-1,67.1,2.7)"
       fill="rgb(255,255,255)"
       stroke="rgb(0,0,0)"
       stroke-width="0.0010cm"
       stroke-linecap="round"
       stroke-linejoin="round"
       id="path1298"
       style="fill:none;stroke:#000000;stroke-opacity:1;stroke-width:0.1;stroke-dasharray:none" /><path
       d="M57.99,-30.8 a0.41,0.41 0 1,1 0.82,0 a0.41,0.41 0 1,1 -0.82,0z"
       transform="matrix(1,0,0,-1,67.1,2.7)"
       fill="rgb(255,255,255)"
       stroke="rgb(0,0,0)"
       stroke-width="0.0010cm"
       stroke-linecap="round"
       stroke-linejoin="round"
       id="path1300"
       style="fill:none;stroke:#000000;stroke-opacity:1;stroke-width:0.1;stroke-dasharray:none" /><path
       d="M-65.01,0.2 a0.41,0.41 0 1,1 0.82,0 a0.41,0.41 0 1,1 -0.82,0z"
       transform="matrix(1,0,0,-1,67.1,2.7)"
       fill="rgb(255,255,255)"
       stroke="rgb(0,0,0)"
       stroke-width="0.0010cm"
       stroke-linecap="round"
       stroke-linejoin="round"
       id="path1302"
       style="fill:none;stroke:#000000;stroke-opacity:1;stroke-width:0.1;stroke-dasharray:none" /><path
       d="M17.8233333,0.2 a0.41,0.41 0 1,1 0.82,0 a0.41,0.41 0 1,1 -0.82,0z"
       transform="matrix(1,0,0,-1,67.1,2.7)"
       fill="rgb(255,255,255)"
       stroke="rgb(0,0,0)"
       stroke-width="0.0010cm"
       stroke-linecap="round"
       stroke-linejoin="round"
       id="path1304"
       style="fill:none;stroke:#000000;stroke-opacity:1;stroke-width:0.1;stroke-dasharray:none" /><path
       d="M17.8233333,-30.8 a0.41,0.41 0 1,1 0.82,0 a0.41,0.41 0 1,1 -0.82,0z"
       transform="matrix(1,0,0,-1,67.1,2.7)"
       fill="rgb(255,255,255)"
       stroke="rgb(0,0,0)"
       stroke-width="0.0010cm"
       stroke-linecap="round"
       stroke-linejoin="round"
       id="path1306"
       style="fill:none;stroke:#000000;stroke-opacity:1;stroke-width:0.1;stroke-dasharray:none" /><path
       d="M-24.8433333,-30.8 a0.41,0.41 0 1,1 0.82,0 a0.41,0.41 0 1,1 -0.82,0z"
       transform="matrix(1,0,0,-1,67.1,2.7)"
       fill="rgb(255,255,255)"
       stroke="rgb(0,0,0)"
       stroke-width="0.0010cm"
       stroke-linecap="round"
       stroke-linejoin="round"
       id="path1308"
       style="fill:none;stroke:#000000;stroke-opacity:1;stroke-width:0.1;stroke-dasharray:none" /><path
       d="M-65.01,-30.8 a0.41,0.41 0 1,1 0.82,0 a0.41,0.41 0 1,1 -0.82,0z"
       transform="matrix(1,0,0,-1,67.1,2.7)"
       fill="rgb(255,255,255)"
       stroke="rgb(0,0,0)"
       stroke-width="0.0010cm"
       stroke-linecap="round"
       stroke-linejoin="round"
       id="path1310"
       style="fill:none;stroke:#000000;stroke-opacity:1;stroke-width:0.1;stroke-dasharray:none" /><path
       d="M55.925,1.1 a0.475,0.475 0 1,1 0.95,0 a0.475,0.475 0 1,1 -0.95,0z"
       transform="matrix(1,0,0,-1,67.1,2.7)"
       fill="rgb(255,255,255)"
       stroke="rgb(0,0,0)"
       stroke-width="0.0010cm"
       stroke-linecap="round"
       stroke-linejoin="round"
       id="path1312"
       style="fill:none;stroke:#000000;stroke-opacity:1;stroke-width:0.1;stroke-dasharray:none" /><path
       d="M13.2583333,1.1 a0.475,0.475 0 1,1 0.95,0 a0.475,0.475 0 1,1 -0.95,0z"
       transform="matrix(1,0,0,-1,67.1,2.7)"
       fill="rgb(255,255,255)"
       stroke="rgb(0,0,0)"
       stroke-width="0.0010cm"
       stroke-linecap="round"
       stroke-linejoin="round"
       id="path1314"
       style="fill:none;stroke:#000000;stroke-opacity:1;stroke-width:0.1;stroke-dasharray:none" /><path
       d="M-29.4083333,1.1 a0.475,0.475 0 1,1 0.95,0 a0.475,0.475 0 1,1 -0.95,0z"
       transform="matrix(1,0,0,-1,67.1,2.7)"
       fill="rgb(255,255,255)"
       stroke="rgb(0,0,0)"
       stroke-width="0.0010cm"
       stroke-linecap="round"
       stroke-linejoin="round"
       id="path1316"
       style="fill:none;stroke:#000000;stroke-opacity:1;stroke-width:0.1;stroke-dasharray:none" /><path
       d="M-63.575,-31.7 a0.475,0.475 0 1,1 0.95,0 a0.475,0.475 0 1,1 -0.95,0z"
       transform="matrix(1,0,0,-1,67.1,2.7)"
       fill="rgb(255,255,255)"
       stroke="rgb(0,0,0)"
       stroke-width="0.0010cm"
       stroke-linecap="round"
       stroke-linejoin="round"
       id="path1318"
       style="fill:none;stroke:#000000;stroke-opacity:1;stroke-width:0.1;stroke-dasharray:none" /><path
       d="M-20.9083333,-31.7 a0.475,0.475 0 1,1 0.95,0 a0.475,0.475 0 1,1 -0.95,0z"
       transform="matrix(1,0,0,-1,67.1,2.7)"
       fill="rgb(255,255,255)"
       stroke="rgb(0,0,0)"
       stroke-width="0.0010cm"
       stroke-linecap="round"
       stroke-linejoin="round"
       id="path1320"
       style="fill:none;stroke:#000000;stroke-opacity:1;stroke-width:0.1;stroke-dasharray:none" /><path
       d="M21.7583333,-31.7 a0.475,0.475 0 1,1 0.95,0 a0.475,0.475 0 1,1 -0.95,0z"
       transform="matrix(1,0,0,-1,67.1,2.7)"
       fill="rgb(255,255,255)"
       stroke="rgb(0,0,0)"
       stroke-width="0.0010cm"
       stroke-linecap="round"
       stroke-linejoin="round"
       id="path1322"
       style="fill:none;stroke:#000000;stroke-opacity:1;stroke-width:0.1;stroke-dasharray:none" /><path
       d="M55.925,-31.7 a0.475,0.475 0 1,1 0.95,0 a0.475,0.475 0 1,1 -0.95,0z"
       transform="matrix(1,0,0,-1,67.1,2.7)"
       fill="rgb(255,255,255)"
       stroke="rgb(0,0,0)"
       stroke-width="0.0010cm"
       stroke-linecap="round"
       stroke-linejoin="round"
       id="path1324"
       style="fill:none;stroke:#000000;stroke-opacity:1;stroke-width:0.1;stroke-dasharray:none" /><path
       d="M13.2583333,-31.7 a0.475,0.475 0 1,1 0.95,0 a0.475,0.475 0 1,1 -0.95,0z"
       transform="matrix(1,0,0,-1,67.1,2.7)"
       fill="rgb(255,255,255)"
       stroke="rgb(0,0,0)"
       stroke-width="0.0010cm"
       stroke-linecap="round"
       stroke-linejoin="round"
       id="path1326"
       style="fill:none;stroke:#000000;stroke-opacity:1;stroke-width:0.1;stroke-dasharray:none" /><path
       d="M-29.4083333,-31.7 a0.475,0.475 0 1,1 0.95,0 a0.475,0.475 0 1,1 -0.95,0z"
       transform="matrix(1,0,0,-1,67.1,2.7)"
       fill="rgb(255,255,255)"
       stroke="rgb(0,0,0)"
       stroke-width="0.0010cm"
       stroke-linecap="round"
       stroke-linejoin="round"
       id="path1328"
       style="fill:none;stroke:#000000;stroke-opacity:1;stroke-width:0.1;stroke-dasharray:none" /><path
       d="M-63.575,1.1 a0.475,0.475 0 1,1 0.95,0 a0.475,0.475 0 1,1 -0.95,0z"
       transform="matrix(1,0,0,-1,67.1,2.7)"
       fill="rgb(255,255,255)"
       stroke="rgb(0,0,0)"
       stroke-width="0.0010cm"
       stroke-linecap="round"
       stroke-linejoin="round"
       id="path1330"
       style="fill:none;stroke:#000000;stroke-opacity:1;stroke-width:0.1;stroke-dasharray:none" /><path
       d="M-20.9083333,1.1 a0.475,0.475 0 1,1 0.95,0 a0.475,0.475 0 1,1 -0.95,0z"
       transform="matrix(1,0,0,-1,67.1,2.7)"
       fill="rgb(255,255,255)"
       stroke="rgb(0,0,0)"
       stroke-width="0.0010cm"
       stroke-linecap="round"
       stroke-linejoin="round"
       id="path1332"
       style="fill:none;stroke:#000000;stroke-opacity:1;stroke-width:0.1;stroke-dasharray:none" /><path
       d="M21.7583333,1.1 a0.475,0.475 0 1,1 0.95,0 a0.475,0.475 0 1,1 -0.95,0z"
       transform="matrix(1,0,0,-1,67.1,2.7)"
       fill="rgb(255,255,255)"
       stroke="rgb(0,0,0)"
       stroke-width="0.0010cm"
       stroke-linecap="round"
       stroke-linejoin="round"
       id="path1334"
       style="fill:none;stroke:#000000;stroke-opacity:1;stroke-width:0.1;stroke-dasharray:none" /><path
       d="M43.0916667,1.1 a0.475,0.475 0 1,1 0.95,0 a0.475,0.475 0 1,1 -0.95,0z"
       transform="matrix(1,0,0,-1,67.1,2.7)"
       fill="rgb(255,255,255)"
       stroke="rgb(0,0,0)"
       stroke-width="0.0010cm"
       stroke-linecap="round"
       stroke-linejoin="round"
       id="path1336"
       style="fill:none;stroke:#000000;stroke-opacity:1;stroke-width:0.1;stroke-dasharray:none" /><path
       d="M0.425,1.1 a0.475,0.475 0 1,1 0.95,0 a0.475,0.475 0 1,1 -0.95,0z"
       transform="matrix(1,0,0,-1,67.1,2.7)"
       fill="rgb(255,255,255)"
       stroke="rgb(0,0,0)"
       stroke-width="0.0010cm"
       stroke-linecap="round"
       stroke-linejoin="round"
       id="path1338"
       style="fill:none;stroke:#000000;stroke-opacity:1;stroke-width:0.1;stroke-dasharray:none" /><path
       d="M-42.2416667,1.1 a0.475,0.475 0 1,1 0.95,0 a0.475,0.475 0 1,1 -0.95,0z"
       transform="matrix(1,0,0,-1,67.1,2.7)"
       fill="rgb(255,255,255)"
       stroke="rgb(0,0,0)"
       stroke-width="0.0010cm"
       stroke-linecap="round"
       stroke-linejoin="round"
       id="path1340"
       style="fill:none;stroke:#000000;stroke-opacity:1;stroke-width:0.1;stroke-dasharray:none" /><path
       d="M-50.7416667,-31.7 a0.475,0.475 0 1,1 0.95,0 a0.475,0.475 0 1,1 -0.95,0z"
       transform="matrix(1,0,0,-1,67.1,2.7)"
       fill="rgb(255,255,255)"
       stroke="rgb(0,0,0)"
       stroke-width="0.0010cm"
       stroke-linecap="round"
       stroke-linejoin="round"
       id="path1342"
       style="fill:none;stroke:#000000;stroke-opacity:1;stroke-width:0.1;stroke-dasharray:none" /><path
       d="M-8.075,-31.7 a0.475,0.475 0 1,1 0.95,0 a0.475,0.475 0 1,1 -0.95,0z"
       transform="matrix(1,0,0,-1,67.1,2.7)"
       fill="rgb(255,255,255)"
       stroke="rgb(0,0,0)"
       stroke-width="0.0010cm"
       stroke-linecap="round"
       stroke-linejoin="round"
       id="path1344"
       style="fill:none;stroke:#000000;stroke-opacity:1;stroke-width:0.1;stroke-dasharray:none" /><path
       d="M34.5916667,-31.7 a0.475,0.475 0 1,1 0.95,0 a0.475,0.475 0 1,1 -0.95,0z"
       transform="matrix(1,0,0,-1,67.1,2.7)"
       fill="rgb(255,255,255)"
       stroke="rgb(0,0,0)"
       stroke-width="0.0010cm"
       stroke-linecap="round"
       stroke-linejoin="round"
       id="path1346"
       style="fill:none;stroke:#000000;stroke-opacity:1;stroke-width:0.1;stroke-dasharray:none" /><path
       d="M43.0916667,-31.7 a0.475,0.475 0 1,1 0.95,0 a0.475,0.475 0 1,1 -0.95,0z"
       transform="matrix(1,0,0,-1,67.1,2.7)"
       fill="rgb(255,255,255)"
       stroke="rgb(0,0,0)"
       stroke-width="0.0010cm"
       stroke-linecap="round"
       stroke-linejoin="round"
       id="path1348"
       style="fill:none;stroke:#000000;stroke-opacity:1;stroke-width:0.1;stroke-dasharray:none" /><path
       d="M0.425,-31.7 a0.475,0.475 0 1,1 0.95,0 a0.475,0.475 0 1,1 -0.95,0z"
       transform="matrix(1,0,0,-1,67.1,2.7)"
       fill="rgb(255,255,255)"
       stroke="rgb(0,0,0)"
       stroke-width="0.0010cm"
       stroke-linecap="round"
       stroke-linejoin="round"
       id="path1350"
       style="fill:none;stroke:#000000;stroke-opacity:1;stroke-width:0.1;stroke-dasharray:none" /><path
       d="M-42.2416667,-31.7 a0.475,0.475 0 1,1 0.95,0 a0.475,0.475 0 1,1 -0.95,0z"
       transform="matrix(1,0,0,-1,67.1,2.7)"
       fill="rgb(255,255,255)"
       stroke="rgb(0,0,0)"
       stroke-width="0.0010cm"
       stroke-linecap="round"
       stroke-linejoin="round"
       id="path1352"
       style="fill:none;stroke:#000000;stroke-opacity:1;stroke-width:0.1;stroke-dasharray:none" /><path
       d="M-50.7416667,1.1 a0.475,0.475 0 1,1 0.95,0 a0.475,0.475 0 1,1 -0.95,0z"
       transform="matrix(1,0,0,-1,67.1,2.7)"
       fill="rgb(255,255,255)"
       stroke="rgb(0,0,0)"
       stroke-width="0.0010cm"
       stroke-linecap="round"
       stroke-linejoin="round"
       id="path1354"
       style="fill:none;stroke:#000000;stroke-opacity:1;stroke-width:0.1;stroke-dasharray:none" /><path
       d="M-8.075,1.1 a0.475,0.475 0 1,1 0.95,0 a0.475,0.475 0 1,1 -0.95,0z"
       transform="matrix(1,0,0,-1,67.1,2.7)"
       fill="rgb(255,255,255)"
       stroke="rgb(0,0,0)"
       stroke-width="0.0010cm"
       stroke-linecap="round"
       stroke-linejoin="round"
       id="path1356"
       style="fill:none;stroke:#000000;stroke-opacity:1;stroke-width:0.1;stroke-dasharray:none" /><path
       d="M34.5916667,1.1 a0.475,0.475 0 1,1 0.95,0 a0.475,0.475 0 1,1 -0.95,0z"
       transform="matrix(1,0,0,-1,67.1,2.7)"
       fill="rgb(255,255,255)"
       stroke="rgb(0,0,0)"
       stroke-width="0.0010cm"
       stroke-linecap="round"
       stroke-linejoin="round"
       id="path1358"
       style="fill:none;stroke:#000000;stroke-opacity:1;stroke-width:0.1;stroke-dasharray:none" /><path
       d="M44.7666667,-30.6 A0.3,0.3 0 0,1 44.4666667,-30.3 L42.6666667,-30.3 A0.3,0.3 90 0,1 42.3666667,-30.6 L42.3666667,-31.5138452 42.3666667,-31.5138452 42.3663305,-31.5284075 42.3653247,-31.5429173 42.3636532,-31.5573505 42.3613197,-31.571683 42.3583283,-31.5858905 42.3546827,-31.5999491 42.3503869,-31.6138345 42.3454448,-31.6275226 42.339864,-31.6409808 42.33367,-31.6541441 42.3268766,-31.6669854 42.3194959,-31.6794828 42.3115396,-31.6916147 42.3030196,-31.7033593 42.2939479,-31.7146948 42.2843362,-31.7255997 42.2741976,-31.7360509 42.2635783,-31.7459959 42.2525114,-31.7554037 42.2410162,-31.7642583 42.2291122,-31.7725434 42.2168186,-31.7802431 42.204155,-31.7873412 42.1911407,-31.7938217 42.177807,-31.7996633 42.1642265,-31.8048329 42.1504293,-31.8093209 42.1364398,-31.8131204 42.1222825,-31.8162246 42.107982,-31.8186265 42.0935626,-31.8203194 42.079049,-31.8212963 42.079049,-31.8212963 41.7346074,-31.8356064 41.3896875,-31.8493865 40.699683,-31.8754121 40.3552337,-31.8876857 40.0115766,-31.8994852 39.6690293,-31.9108245 39.3272918,-31.9217367 38.9845975,-31.9322963 38.6410147,-31.9425159 37.9520972,-31.9619645 37.2623664,-31.980142 36.5736494,-31.9971082 36.5736494,-31.9971082 36.5585222,-31.9970782 36.5434479,-31.9962706 36.5284544,-31.994691 36.5135699,-31.9923452 36.4988223,-31.9892388 36.4842398,-31.9853775 36.4698504,-31.9807671 36.4556893,-31.975416 36.4418403,-31.9693575 36.428339,-31.962613 36.4152082,-31.9551993 36.4024708,-31.9471333 36.3901496,-31.9384318 36.3782674,-31.9291119 36.366847,-31.9191902 36.3559273,-31.9086999 36.3455619,-31.8976976 36.3357667,-31.8862083 36.3265562,-31.874256 36.317945,-31.8618645 36.3099475,-31.849058 36.3025782,-31.8358601 36.2958517,-31.8222949 36.2897912,-31.8084082 36.2844178,-31.7942521 36.2797388,-31.7798537 36.2757617,-31.7652397 36.2724948,-31.7504408 36.2699487,-31.7355098 36.268127,-31.720479 36.2670322,-31.7053759 36.2666667,-31.6902281 36.2666667,-30.6 A0.3,0.3 0 0,1 35.9666667,-30.3 L34.1666667,-30.3 A0.3,0.3 90 0,1 33.8666667,-30.6 L33.8666667,-31.752776 33.8666667,-31.752776 33.8663191,-31.7675353 33.865279,-31.7822393 33.8635507,-31.7968628 33.8611384,-31.8113806 33.8580461,-31.8257672 33.8542782,-31.8399976 33.8498389,-31.8540465 33.8447322,-31.8678885 33.8389692,-31.8814832 33.8325766,-31.894766 33.8255679,-31.9077119 33.8179558,-31.9202985 33.8097529,-31.9325031 33.8009719,-31.9443032 33.7916254,-31.9556763 33.7817261,-31.9665996 33.7712943,-31.9770434 33.7603845,-31.9869501 33.7490225,-31.996298 33.737229,-32.0050709 33.7250244,-32.0132523 33.7124294,-32.0208261 33.6994646,-32.027776 33.6861506,-32.0340856 33.6725189,-32.0397345 33.6586466,-32.044689 33.6445667,-32.0489395 33.630305,-32.0524797 33.6158872,-32.0553034 33.601339,-32.0574042 33.5866862,-32.0587757 33.5719545,-32.0594116 33.5719545,-32.0594116 32.9565698,-32.0702007 32.3397962,-32.0804359 31.7224864,-32.0901367 31.1054929,-32.0993224 30.4896682,-32.1080127 30.1824607,-32.1121781 29.875865,-32.116227 29.5699879,-32.1201617 29.2649359,-32.1239847 28.6555949,-32.1313301 28.0437728,-32.1383328 27.4298775,-32.1450046 26.8144919,-32.1513554 26.1981992,-32.1573952 24.9652241,-32.1685805 24.3497078,-32.1737458 23.7356164,-32.1786394 23.7356164,-32.1786394 23.7206597,-32.178375 23.7057657,-32.1773533 23.6909616,-32.1755802 23.6762744,-32.1730614 23.6617312,-32.1698031 23.647359,-32.1658109 23.6331848,-32.1610908 23.6192397,-32.1556504 23.6056023,-32.1495211 23.5923119,-32.1427258 23.5793905,-32.1352809 23.5668601,-32.1272029 23.5547426,-32.1185082 23.54306,-32.1092135 23.5318344,-32.099335 23.5210958,-32.0888979 23.5109009,-32.0779603 23.5012686,-32.0665502 23.492213,-32.0546908 23.4837478,-32.0424054 23.475887,-32.0297172 23.4686446,-32.0166495 23.4620345,-32.0032256 23.4560747,-31.9894789 23.45079,-31.9754682 23.4461887,-31.9612224 23.442278,-31.9467675 23.4390654,-31.9321314 23.4365612,-31.9173642 23.4347695,-31.9025 23.4336928,-31.8875656 23.4333333,-31.8725879 23.4333333,-30.6 A0.3,0.3 0 0,1 23.1333333,-30.3 L21.3333333,-30.3 A0.3,0.3 90 0,1 21.0333333,-30.6 L21.0333333,-31.8932925 21.0333333,-31.8932925 21.0329797,-31.9081427 21.0319216,-31.9229362 21.0301634,-31.9376469 21.0277096,-31.9522491 21.0245645,-31.966717 21.0207324,-31.9810247 21.0162178,-31.9951463 21.011025,-32.0090561 21.0051674,-32.0227084 20.9986717,-32.0360402 20.9915516,-32.0490274 20.9838201,-32.0616471 20.9754903,-32.0738764 20.9665754,-32.0856922 20.9570885,-32.0970717 20.9470426,-32.1079918 20.9364644,-32.1184169 20.9254082,-32.1282918 20.9138972,-32.137598 20.9019525,-32.1463189 20.8895953,-32.1544382 20.8768468,-32.1619393 20.863728,-32.168806 20.8502601,-32.1750216 20.8364866,-32.1805613 20.8224817,-32.1853951 20.8082734,-32.1895158 20.7938881,-32.1929174 20.779352,-32.1955937 20.7646915,-32.1975385 20.7499329,-32.1987457 20.7351025,-32.199209 20.7351025,-32.199209 20.2192938,-32.2022426 20.2192938,-32.2022426 20.1963829,-32.1669611 20.1744428,-32.1310489 20.1534283,-32.0945763 20.1332938,-32.0576136 20.1139939,-32.0202308 20.0954797,-31.9824906 20.0775961,-31.9442188 20.0602527,-31.9053387 20.0434128,-31.8658813 20.0270398,-31.8258774 20.0110969,-31.7853579 19.9955476,-31.7443537 19.9654829,-31.6610145 19.9365526,-31.5761068 19.9084633,-31.4898774 19.8809218,-31.4025733 19.8263095,-31.2257288 19.7986521,-31.1366823 19.7703889,-31.0476117 19.7412403,-30.958806 19.7109052,-30.8704805 19.6790824,-30.7828504 19.6454706,-30.6961311 19.6278996,-30.6531803 19.6097685,-30.6105379 19.5910395,-30.5682309 19.571675,-30.526286 19.5516373,-30.4847304 19.5308888,-30.4435908 19.5093917,-30.4028942 19.4871086,-30.3626675 19.4640016,-30.3229376 19.440075,-30.2837981 19.4153404,-30.2453402 19.389764,-30.2075747 19.3633117,-30.1705124 19.3359497,-30.134164 19.3076441,-30.0985404 19.2783609,-30.0636523 19.2480663,-30.0295105 19.2167262,-29.9961258 19.1843754,-29.9635761 19.1512457,-29.9321061 19.1173546,-29.9017179 19.0826966,-29.8723899 19.0472661,-29.8441003 19.0110577,-29.8168273 18.9740657,-29.7905494 18.9362847,-29.7652447 18.8977091,-29.7408916 18.8583333,-29.7174682 A1.25,1.25 60 0,1 17.6083333,-29.7174682 L17.6083333,-29.7174682 17.5694555,-29.7406832 17.5315624,-29.76486 17.49463,-29.7900016 17.4586344,-29.816111 17.4235516,-29.8431912 17.3893575,-29.8712452 17.3560282,-29.9002759 17.3235396,-29.9302865 17.2918677,-29.9612798 17.2609885,-29.9932588 17.2308781,-30.0262266 17.2015124,-30.0601861 17.1728675,-30.0951403 17.1449704,-30.1310244 17.1179323,-30.167642 17.0917283,-30.2049565 17.0663252,-30.2429416 17.0416898,-30.281571 17.0177892,-30.3208182 16.9945902,-30.3606569 16.9720597,-30.4010607 16.9501646,-30.4420033 16.9288718,-30.4834582 16.9081483,-30.5253991 16.8879608,-30.5677997 16.8682764,-30.6106335 16.8302843,-30.6974954 16.7939191,-30.7857446 16.758974,-30.8750166 16.7252013,-30.9650294 16.6923475,-31.0555148 16.6283823,-31.2368304 16.5967638,-31.3271242 16.5650499,-31.4168178 16.532987,-31.5056428 16.5003216,-31.593331 16.4668001,-31.6796143 16.432169,-31.7642244 16.414358,-31.8058182 16.3961746,-31.8468931 16.3775869,-31.8874156 16.3585634,-31.9273522 16.3390722,-31.9666692 16.3190818,-32.0053334 16.2985604,-32.0433109 16.2774763,-32.0805685 16.2557978,-32.1170724 16.2334933,-32.1527893 16.2105309,-32.1876855 16.1868791,-32.2217276 16.1868791,-32.2217276 15.2344069,-32.2253654 15.2344069,-32.2253654 15.2194975,-32.2250421 15.2046532,-32.2239672 15.1899009,-32.2221466 15.1752672,-32.2195864 15.1607791,-32.2162923 15.1464632,-32.2122703 15.1323465,-32.2075264 15.1184588,-32.2020678 15.1048769,-32.1959251 15.0916416,-32.1891218 15.0787745,-32.1816742 15.0662975,-32.1735985 15.0542323,-32.1649112 15.0426007,-32.1556286 15.0314244,-32.145767 15.0207316,-32.1353495 15.0105792,-32.1244339 15.0009873,-32.1130494 14.9919698,-32.101219 14.9835404,-32.0889659 14.975713,-32.076313 14.9685015,-32.0632836 14.9619195,-32.0499005 14.9559841,-32.0361947 14.9507205,-32.0222253 14.9461377,-32.0080225 14.9422427,-31.9936122 14.9390428,-31.9790216 14.9365485,-31.9642999 14.9347638,-31.9494819 14.9336914,-31.9345942 14.9333333,-31.9196635 14.9333333,-30.6 A0.3,0.3 0 0,1 14.6333333,-30.3 L12.8333333,-30.3 A0.3,0.3 90 0,1 12.5333333,-30.6 L12.5333333,-31.9292083 12.5333333,-31.9292083 12.5329778,-31.9440811 12.5319143,-31.9588964 12.5301472,-31.9736285 12.527681,-31.9882511 12.5245201,-32.0027383 12.5206688,-32.0170642 12.5161318,-32.0312027 12.5109134,-32.0451278 12.5050278,-32.0587922 12.4985017,-32.0721335 12.4913489,-32.0851279 12.4835824,-32.0977525 12.4752156,-32.1099841 12.4662618,-32.1217996 12.4567343,-32.1331762 12.4466463,-32.1440906 12.4360267,-32.1545052 12.4249291,-32.1643662 12.4133762,-32.1736557 12.4013893,-32.1823573 12.3889897,-32.1904545 12.3761987,-32.1979308 12.3630377,-32.2047699 12.3495279,-32.2109553 12.3357173,-32.2164604 12.3216773,-32.221257 12.3074354,-32.2253386 12.2930179,-32.228699 12.2784514,-32.2313322 12.2637623,-32.233232 12.2489769,-32.2343923 12.2341219,-32.2348069 12.2341219,-32.2348069 9.7717079,-32.2405525 9.1566467,-32.2417385 8.542369,-32.2428306 7.9291581,-32.2438319 7.3171517,-32.2447457 6.7045642,-32.2455776 6.0909573,-32.2463306 4.8615589,-32.2476085 2.4001393,-32.2493086 2.4001393,-32.2493086 2.3852694,-32.2489404 2.3704663,-32.2478256 2.3557566,-32.2459702 2.3411668,-32.2433801 2.3267235,-32.2400612 2.3124533,-32.2360194 2.2983828,-32.2312607 2.2845411,-32.2257921 2.2710033,-32.2196434 2.2578113,-32.2128385 2.2449867,-32.2053935 2.2325511,-32.1973247 2.2205262,-32.1886482 2.2089336,-32.1793802 2.1977949,-32.169537 2.1871369,-32.1591399 2.1770159,-32.1482463 2.1674538,-32.1368866 2.1584642,-32.1250835 2.1500609,-32.1128601 2.1422577,-32.1002393 2.1350683,-32.0872438 2.1285065,-32.0738968 2.1225883,-32.0602268 2.1173394,-32.0462932 2.1127693,-32.0321274 2.1088852,-32.0177551 2.1056942,-32.0032032 2.1032065,-31.9885198 2.1014267,-31.9737407 2.1003571,-31.9588921 2.1,-31.9440008 2.1,-30.6 A0.3,0.3 0 0,1 1.8,-30.3 L0,-30.3 A0.3,0.3 90 0,1 -0.3,-30.6 L-0.3,-31.9447699 -0.3,-31.9447699 -0.3003571,-31.9596579 -0.3014253,-31.9744879 -0.3032002,-31.989234 -0.3056772,-32.0038698 -0.3088519,-32.0183694 -0.3127197,-32.0327066 -0.3172761,-32.0468552 -0.3225166,-32.0607891 -0.3284263,-32.0744592 -0.3349783,-32.0878041 -0.3421591,-32.1008002 -0.3499552,-32.1134242 -0.3583532,-32.1256532 -0.3673396,-32.1374639 -0.376901,-32.1488334 -0.3870239,-32.1597385 -0.3976776,-32.1701396 -0.408809,-32.1799846 -0.4203959,-32.189256 -0.4324168,-32.1979373 -0.4448501,-32.2060122 -0.4576745,-32.2134642 -0.4708685,-32.220277 -0.4844106,-32.226434 -0.4982495,-32.2319078 -0.5123161,-32.2366715 -0.5265833,-32.240719 -0.5410247,-32.244044 -0.5556136,-32.2466407 -0.5703235,-32.248503 -0.5851278,-32.2496247 -0.6,-32.25 -0.6,-32.25 -1.2871068,-32.2498978 -1.974788,-32.2495866 -3.3508741,-32.2483083 -4.7262593,-32.2461083 -6.1007947,-32.2429249 -6.1007947,-32.2429249 -6.1156207,-32.2425126 -6.1303785,-32.2413597 -6.1450417,-32.2394719 -6.159584,-32.2368553 -6.1739791,-32.2335157 -6.1882005,-32.229459 -6.2022219,-32.224691 -6.2160151,-32.2192185 -6.2295073,-32.2130704 -6.2426548,-32.2062708 -6.2554362,-32.1988358 -6.26783,-32.1907813 -6.2798147,-32.1821234 -6.2913688,-32.172878 -6.3024708,-32.1630612 -6.3130954,-32.1526928 -6.3231868,-32.1418289 -6.3327213,-32.1305014 -6.3416853,-32.1187331 -6.3500648,-32.1065467 -6.3578463,-32.0939649 -6.365016,-32.0810105 -6.3715601,-32.0677061 -6.3774633,-32.0540785 -6.3826999,-32.0401865 -6.3872593,-32.0260632 -6.3911345,-32.0117343 -6.3943183,-31.9972262 -6.3968005,-31.9825861 -6.3985764,-31.9678507 -6.3996437,-31.9530461 -6.4,-31.9381988 -6.4,-30.6 A0.3,0.3 0 0,1 -6.7,-30.3 L-8.5,-30.3 A0.3,0.3 90 0,1 -8.8,-30.6 L-8.8,-31.9278611 -8.8,-31.9278611 -8.8003595,-31.9427578 -8.8014351,-31.9575956 -8.803222,-31.9723483 -8.8057156,-31.9869896 -8.8089113,-32.0014931 -8.8128045,-32.0158325 -8.8173905,-32.0299815 -8.8226647,-32.0439138 -8.8286104,-32.0575772 -8.8352012,-32.0709118 -8.8424231,-32.0838946 -8.8502627,-32.0965023 -8.8587059,-32.1087118 -8.8677393,-32.1205001 -8.877349,-32.1318441 -8.8875212,-32.1427206 -8.8982206,-32.1530862 -8.9093968,-32.1628926 -8.921028,-32.1721231 -8.9330925,-32.1807616 -8.9455686,-32.1887916 -8.9584345,-32.1961971 -8.9716686,-32.2029615 -8.9852492,-32.2090688 -8.9991267,-32.2144922 -9.0132489,-32.2192103 -9.0275898,-32.2232142 -9.0421234,-32.2264951 -9.0568035,-32.2290409 -9.071583,-32.2308439 -9.0864343,-32.231901 -9.1013303,-32.2322093 -9.1013303,-32.2322093 -10.3333312,-32.2261623 -11.5664273,-32.219053 -12.7986766,-32.2108198 -13.4138767,-32.2062623 -14.028137,-32.2014006 -14.6412144,-32.196227 -15.2528664,-32.1907338 -15.8637583,-32.1849044 -16.4762487,-32.1787032 -17.0901738,-32.1721157 -17.7051994,-32.1651288 -18.3209912,-32.1577295 -18.9372149,-32.1499047 -18.9372149,-32.1499047 -18.9518969,-32.1493503 -18.9665065,-32.1480749 -18.9810179,-32.1460841 -18.9954056,-32.1433838 -19.0096439,-32.1399796 -19.0237071,-32.1358774 -19.0375695,-32.1310827 -19.0512053,-32.1256016 -19.0645501,-32.1194588 -19.0775545,-32.1126802 -19.0901973,-32.1052811 -19.1024574,-32.0972769 -19.1143135,-32.0886828 -19.1257444,-32.0795143 -19.1367288,-32.0697865 -19.147245,-32.0595155 -19.1572424,-32.0487499 -19.1666888,-32.0375291 -19.1755705,-32.0258753 -19.1838736,-32.0138104 -19.1915845,-32.0013565 -19.1986893,-31.9885358 -19.2051743,-31.9753703 -19.2110255,-31.9618828 -19.2162153,-31.9481354 -19.2207284,-31.9341761 -19.2245602,-31.9200304 -19.2277059,-31.9057238 -19.2301608,-31.8912818 -19.2319202,-31.8767299 -19.2329793,-31.8620937 -19.2333333,-31.8473985 -19.2333333,-30.6 A0.3,0.3 0 0,1 -19.5333333,-30.3 L-21.3333333,-30.3 A0.3,0.3 90 0,1 -21.6333333,-30.6 L-21.6333333,-31.8034436 -21.6333333,-31.8034436 -21.6337014,-31.8183896 -21.6348021,-31.8332737 -21.6366306,-31.8480689 -21.6391815,-31.8627483 -21.6424501,-31.8772849 -21.646431,-31.8916518 -21.6511194,-31.9058221 -21.65651,-31.9197686 -21.6625804,-31.9334276 -21.6693057,-31.9467474 -21.6766711,-31.9597047 -21.6846621,-31.9722765 -21.6932639,-31.9844393 -21.7024618,-31.9961701 -21.7122412,-32.0074456 -21.7225864,-32.0182417 -21.7334474,-32.0285034 -21.744785,-32.0381964 -21.7565767,-32.047305 -21.7688001,-32.055813 -21.7814324,-32.0637046 -21.7944514,-32.0709637 -21.8078344,-32.0775746 -21.8215561,-32.0835199 -21.8355539,-32.0887703 -21.8497899,-32.093312 -21.8642376,-32.0971364 -21.8788697,-32.1002349 -21.8936343,-32.1025958 -21.9084897,-32.1042132 -21.9234083,-32.1050846 -21.9383623,-32.1052074 -21.9383623,-32.1052074 -22.5128404,-32.095284 -22.5128404,-32.095284 -22.5318208,-32.0605343 -22.5501923,-32.0251491 -22.567987,-31.9891576 -22.5852373,-31.9525894 -22.6019754,-31.9154738 -22.6182338,-31.8778402 -22.6340446,-31.8397179 -22.6494402,-31.8011365 -22.6791149,-31.7227136 -22.7075164,-31.6428067 -22.7349036,-31.5616475 -22.7615474,-31.4794062 -22.7877089,-31.3962687 -22.8136445,-31.3124384 -22.8658639,-31.1435124 -22.8926605,-31.0588233 -22.920257,-30.9742546 -22.9489099,-30.8900095 -22.9788756,-30.8062914 -23.0104105,-30.7233035 -23.0437711,-30.6412492 -23.0612162,-30.6006357 -23.0792139,-30.5603317 -23.0977961,-30.520363 -23.1169848,-30.4807753 -23.1368048,-30.4416045 -23.1572886,-30.4028699 -23.1784687,-30.3645905 -23.2003775,-30.3267855 -23.2230476,-30.2894742 -23.2465113,-30.2526757 -23.2708012,-30.2164092 -23.2959497,-30.1806938 -23.3219893,-30.1455488 -23.3489524,-30.1109932 -23.3768716,-30.0770464 -23.405702,-30.0438141 -23.4352383,-30.0115536 -23.4654749,-29.9802663 -23.4964208,-29.9499366 -23.528085,-29.9205486 -23.5604765,-29.8920868 -23.5936042,-29.8645354 -23.6274771,-29.8378788 -23.6621042,-29.8121013 -23.6974944,-29.7871872 -23.7336567,-29.7631207 -23.7706,-29.7398863 -23.8083333,-29.7174682 A1.25,1.25 60 0,1 -25.0583333,-29.7174682 L-25.0583333,-29.7174682 -25.0937621,-29.7385602 -25.1283731,-29.7604488 -25.1621846,-29.7831363 -25.1952145,-29.806625 -25.2274811,-29.8309172 -25.2590024,-29.8560151 -25.2897965,-29.8819209 -25.3198815,-29.908637 -25.3492756,-29.9361655 -25.3779968,-29.9645088 -25.4060632,-29.993669 -25.4334929,-30.0236485 -25.4603041,-30.0544494 -25.4865148,-30.0860741 -25.5121294,-30.1185069 -25.5370455,-30.1515831 -25.5612587,-30.1852462 -25.5847938,-30.2194764 -25.6076759,-30.2542539 -25.62993,-30.2895587 -25.6515809,-30.3253709 -25.6726537,-30.3616707 -25.6931733,-30.3984381 -25.7131646,-30.4356533 -25.7326527,-30.4732964 -25.7516625,-30.5113475 -25.7883469,-30.5885942 -25.8234177,-30.6672342 -25.8570737,-30.7471068 -25.889478,-30.8279614 -25.9208032,-30.9095541 -25.9512403,-30.9916817 -25.9809802,-31.0741409 -26.039133,-31.2392412 -26.0967897,-31.4032292 -26.1259097,-31.4842979 -26.1554787,-31.5644789 -26.1856878,-31.6435689 -26.2167281,-31.7213646 -26.2487905,-31.7976629 -26.2820661,-31.8722604 -26.2992185,-31.9088578 -26.3167459,-31.9449539 -26.3346721,-31.9805231 -26.353021,-32.0155402 -26.353021,-32.0155402 -26.897621,-32.0021012 -27.441219,-31.9880913 -27.441219,-31.9880913 -27.455719,-31.9873574 -27.4701409,-31.985925 -27.4844599,-31.9837996 -27.4986511,-31.9809868 -27.5126899,-31.9774923 -27.5265514,-31.9733217 -27.5402109,-31.9684807 -27.5536436,-31.9629748 -27.5667966,-31.9568237 -27.5796137,-31.9500556 -27.5920741,-31.9426853 -27.604157,-31.9347273 -27.6158417,-31.9261964 -27.6271076,-31.9171072 -27.6379338,-31.9074743 -27.6482997,-31.8973124 -27.6581665,-31.8866568 -27.6674903,-31.8755569 -27.6762573,-31.8640345 -27.6844541,-31.8521108 -27.6920668,-31.8398075 -27.699082,-31.8271457 -27.7054861,-31.814147 -27.7112655,-31.8008327 -27.7163991,-31.7872457 -27.7208637,-31.7734503 -27.7246544,-31.7594725 -27.7277663,-31.7453371 -27.7301948,-31.7310692 -27.7319353,-31.7166935 -27.7329831,-31.7022351 -27.7333333,-31.6877189 -27.7333333,-30.6 A0.3,0.3 0 0,1 -28.0333333,-30.3 L-29.8333333,-30.3 A0.3,0.3 90 0,1 -30.1333333,-30.6 L-30.1333333,-31.5988935 -30.1333333,-31.5988935 -30.1337113,-31.6139494 -30.1348416,-31.6289405 -30.1367187,-31.6438388 -30.1393371,-31.6586166 -30.1426914,-31.673246 -30.146776,-31.6876991 -30.1515856,-31.7019482 -30.1571137,-31.7159637 -30.163333,-31.7296726 -30.1702201,-31.7430305 -30.1777594,-31.7560136 -30.1859352,-31.7685984 -30.194732,-31.7807611 -30.204134,-31.792478 -30.2141256,-31.8037256 -30.2246858,-31.8144748 -30.2357563,-31.8246661 -30.247306,-31.8342753 -30.2593115,-31.8432866 -30.2717494,-31.8516839 -30.2845961,-31.8594514 -30.2978283,-31.866573 -30.3114225,-31.8730328 -30.3253427,-31.87881 -30.3395248,-31.8838772 -30.3539389,-31.8882251 -30.3685577,-31.8918453 -30.3833515,-31.8947293 -30.3982632,-31.8968655 -30.4132555,-31.8982499 -30.4283,-31.8988804 -30.4433683,-31.8987547 -30.4433683,-31.8987547 -31.0639616,-31.877451 -31.686179,-31.8549881 -32.3093075,-31.8313271 -32.9326341,-31.8064289 -33.5554457,-31.7802543 -34.1770293,-31.7527645 -34.4871378,-31.7385141 -34.7966719,-31.7239203 -35.1055424,-31.7089781 -35.4136603,-31.6936827 -35.7209363,-31.6780291 -36.0272815,-31.6620126 -36.3326066,-31.6456281 -36.6368225,-31.628871 -36.9398402,-31.6117361 -37.2415703,-31.5942188 -37.5419239,-31.576314 -37.8412209,-31.5579925 -38.1420231,-31.5390844 -38.4446494,-31.5195448 -38.7489281,-31.4993574 -39.0546877,-31.4785059 -39.3617563,-31.4569741 -39.6699623,-31.4347456 -39.9791341,-31.4118042 -40.2890999,-31.3881335 -40.2890999,-31.3881335 -40.3033329,-31.3866777 -40.3174481,-31.3845286 -40.3314228,-31.3816943 -40.3452339,-31.3781826 -40.3588586,-31.3740014 -40.3722741,-31.3691586 -40.3854575,-31.3636621 -40.3983858,-31.3575198 -40.4109997,-31.3507604 -40.4232511,-31.3434149 -40.4351232,-31.3354998 -40.446599,-31.3270319 -40.4576618,-31.3180277 -40.4682945,-31.3085039 -40.4784804,-31.2984771 -40.4882026,-31.287964 -40.497426,-31.277004 -40.5061167,-31.2656441 -40.5142654,-31.2539056 -40.5218628,-31.2418095 -40.5288997,-31.2293771 -40.5353667,-31.2166293 -40.5412547,-31.2035873 -40.5465543,-31.1902721 -40.5512484,-31.17673 -40.5553245,-31.1630075 -40.5587801,-31.1491271 -40.5616128,-31.1351112 -40.5638203,-31.1209823 -40.5654,-31.106763 -40.5663496,-31.0924757 -40.5666667,-31.0781429 -40.5666667,-30.6 A0.3,0.3 0 0,1 -40.8666667,-30.3 L-42.6666667,-30.3 A0.3,0.3 90 0,1 -42.9666667,-30.6 L-42.9666667,-30.7893569 -42.9666667,-30.7893569 -42.9670307,-30.8058063 -42.968123,-30.8222076 -42.9699443,-30.8385307 -42.9724949,-30.8547454 -42.9757756,-30.8708218 -42.9797868,-30.8867297 -42.984529,-30.902439 -42.9900029,-30.9179197 -42.9962081,-30.9331396 -43.0031267,-30.9480295 -43.0107447,-30.9625427 -43.0190535,-30.9766469 -43.0280442,-30.99031 -43.0377082,-31.0034999 -43.0480367,-31.0161844 -43.0590211,-31.0283313 -43.0706473,-31.0399034 -43.082851,-31.0508195 -43.0955967,-31.0610391 -43.1088612,-31.0705348 -43.1226215,-31.0792792 -43.1368542,-31.087245 -43.1515361,-31.0944047 -43.1666417,-31.1007299 -43.1820815,-31.1061707 -43.1977953,-31.1106996 -43.2137493,-31.1143015 -43.229909,-31.1169613 -43.2461909,-31.1186601 -43.2625256,-31.1193903 -43.2788758,-31.119151 -43.2952044,-31.1179409 -43.2952044,-31.1179409 -43.4738857,-31.0991849 -43.651176,-31.0802282 -43.8270819,-31.0610697 -44.0016099,-31.041708 -44.1747666,-31.0221422 -44.3465585,-31.002371 -44.5169923,-30.9823933 -44.6860744,-30.9622079 -44.8538114,-30.9418136 -45.0202098,-30.9212093 -45.1852763,-30.9003938 -45.3490174,-30.879366 -45.5114397,-30.8581246 -45.6725496,-30.8366685 -45.8323538,-30.8149966 -45.9908588,-30.7931077 -46.1480712,-30.7710006 -46.3039976,-30.7486742 -46.4586444,-30.7261272 -46.6120183,-30.7033586 -46.7641257,-30.6803672 -46.9149734,-30.6571518 -47.0645678,-30.6337112 -47.2129154,-30.6100443 -47.3600229,-30.5861499 -47.5058968,-30.5620268 -47.6505436,-30.537674 -47.79397,-30.5130901 -47.9361824,-30.4882741 -48.0771875,-30.4632249 -48.2169917,-30.4379411 -48.3556017,-30.4124217 -48.493024,-30.3866655 -48.6292651,-30.3606714 -48.7643317,-30.3344381 -48.8982302,-30.3079645 -49.0309673,-30.2812495 -49.1625495,-30.2542918 -49.2929833,-30.2270904 -49.4222753,-30.199644 -49.5504321,-30.1719516 -49.6774602,-30.1440118 -49.8033662,-30.1158236 -49.9281566,-30.0873858 -50.051838,-30.0586973 -50.174417,-30.0297568 -50.2959,-30.0005632 -50.4162938,-29.9711153 -50.5356047,-29.9414121 -50.6538395,-29.9114522 -50.7710046,-29.8812346 -50.8871066,-29.8507581 -51.002152,-29.8200215 -51.1161475,-29.7890237 -51.2290996,-29.7577635 -51.3410147,-29.7262397 -51.4518996,-29.6944511 -51.5617607,-29.6623967 -51.6706046,-29.6300752 -51.7784379,-29.5974855 -51.8852671,-29.5646264 -51.9910987,-29.5314967 -52.0959394,-29.4980953 -52.1997957,-29.4644211 -52.3026742,-29.4304728 -52.4045813,-29.3962492 -52.5055237,-29.3617494 -52.605508,-29.3269719 -52.7045406,-29.2919158 -52.8026282,-29.2565798 -52.8997773,-29.2209628 -52.9959944,-29.1850636 -53.0912861,-29.148881 -53.185659,-29.1124139 -53.2791196,-29.0756612 -53.3716746,-29.0386215 -53.4633303,-29.0012939 -53.5540935,-28.9636771 -53.6439706,-28.92577 -53.7329682,-28.8875713 -53.821093,-28.84908 -53.9083513,-28.8102948 -53.9947987,-28.7711923 -54.0804848,-28.7317499 -54.165413,-28.6919654 -54.2495868,-28.6518367 -54.3330093,-28.6113615 -54.4156841,-28.5705378 -54.4976144,-28.5293634 -54.5788036,-28.4878362 -54.6592551,-28.445954 -54.7389722,-28.4037146 -54.8179582,-28.361116 -54.8962166,-28.3181559 -54.9737506,-28.2748322 -55.0505636,-28.2311428 -55.1266591,-28.1870855 -55.2020402,-28.1426581 -55.2767105,-28.0978586 -55.3506731,-28.0526847 -55.4239316,-28.0071343 -55.4964892,-27.9612053 -55.5683494,-27.9148955 -55.6395153,-27.8682028 -55.7099905,-27.8211249 -55.7797783,-27.7736599 -55.8488819,-27.7258054 -55.9173049,-27.6775594 -55.9850504,-27.6289197 -56.052122,-27.5798842 -56.1185228,-27.5304507 -56.1842564,-27.480617 -56.249326,-27.4303811 -56.3137349,-27.3797407 -56.3774867,-27.3286937 -56.4405845,-27.277238 -56.5030318,-27.2253714 -56.5648318,-27.1730917 -56.6259881,-27.1203969 -56.6865038,-27.0672848 -56.7463825,-27.0137531 -56.8056273,-26.9597998 -56.8642417,-26.9054227 -56.9222291,-26.8506197 -56.9795927,-26.7953886 -57.036336,-26.7397273 -57.0924623,-26.6836335 -57.1479723,-26.6271077 -57.2028283,-26.5701878 -57.2570203,-26.512888 -57.3105526,-26.4552091 -57.3634297,-26.3971517 -57.415656,-26.3387166 -57.467236,-26.2799045 -57.5181742,-26.2207162 -57.5684748,-26.1611523 -57.6181425,-26.1012136 -57.6671816,-26.0409009 -57.7155966,-25.9802147 -57.7633919,-25.919156 -57.8105719,-25.8577253 -57.8571412,-25.7959234 -57.903104,-25.7337511 -57.948465,-25.671209 -57.9932285,-25.608298 -58.0373989,-25.5450186 -58.0809807,-25.4813717 -58.1239784,-25.4173579 -58.1663963,-25.3529781 -58.2082389,-25.2882328 -58.2495107,-25.2231229 -58.2902161,-25.157649 -58.3303596,-25.091812 -58.3699455,-25.0256124 -58.4089783,-24.9590511 -58.4474625,-24.8921287 -58.4854025,-24.8248461 -58.5228027,-24.7572038 -58.5596677,-24.6892027 -58.5960017,-24.6208434 -58.6318093,-24.5521268 -58.6670948,-24.4830534 -58.7018629,-24.4136241 -58.7361178,-24.3438395 -58.769864,-24.2737004 -58.8031059,-24.2032076 -58.8358481,-24.1323616 -58.8680949,-24.0611634 -58.9311202,-23.9177127 -58.9922174,-23.7728614 -59.051432,-23.62659 -59.0804214,-23.5527255 -59.1090352,-23.4782843 -59.1372739,-23.4032622 -59.165138,-23.3276554 -59.192628,-23.2514598 -59.2197444,-23.1746715 -59.2464877,-23.0972863 -59.2728583,-23.0193003 -59.2988569,-22.9407096 -59.3244838,-22.8615101 -59.3497395,-22.7816978 -59.3746246,-22.7012687 -59.3991396,-22.6202188 -59.4232849,-22.5385441 -59.4470611,-22.4562407 -59.4704685,-22.3733045 -59.4935078,-22.2897315 -59.5161795,-22.2055177 -59.5384839,-22.1206592 -59.5604217,-22.0351518 -59.5819932,-21.9489917 -59.6031991,-21.8621748 -59.6240397,-21.7746972 -59.6445156,-21.6865547 -59.6646273,-21.5977435 -59.6843753,-21.5082595 -59.7037601,-21.4180987 -59.7227821,-21.3272572 -59.7414418,-21.2357309 -59.7597398,-21.1435158 -59.7776766,-21.0506079 -59.7952526,-20.9570033 -59.8124683,-20.8626979 -59.8293242,-20.7676877 -59.8458209,-20.6719688 -59.8619588,-20.5755371 -59.8777384,-20.4783886 -59.8931602,-20.3805193 -59.9082247,-20.2819253 -59.9229324,-20.1826025 -59.9372837,-20.082547 -59.9512793,-19.9817546 -59.9649195,-19.8802216 -59.9782049,-19.7779437 -59.9911359,-19.6749171 -60.0037131,-19.5711377 -60.015937,-19.4666016 -60.027808,-19.3613047 -60.0393266,-19.255243 -60.0504933,-19.1484126 -60.0613087,-19.0408094 -60.0717732,-18.9324294 -60.0818874,-18.8232687 -60.0916516,-18.7133233 -60.1010664,-18.602589 -60.1101324,-18.491062 -60.1188499,-18.3787383 -60.1272195,-18.2656138 -60.1352417,-18.1516845 -60.1429169,-18.0369465 -60.1502457,-17.9213958 -60.1572286,-17.8050282 -60.1638661,-17.6878399 -60.1701585,-17.5698269 -60.1761066,-17.4509851 -60.1817106,-17.3313106 -60.1869712,-17.2107993 -60.1918889,-17.0894472 -60.196464,-16.9672504 -60.2006972,-16.8442049 -60.2045888,-16.7203066 -60.2081395,-16.5955516 -60.2113497,-16.4699358 -60.2142198,-16.3434552 -60.2167505,-16.2161059 -60.2189421,-16.0878839 -60.2207952,-15.9587851 -60.2223102,-15.8288056 -60.2234877,-15.6979413 -60.2243282,-15.5661883 -60.2248321,-15.4335425 -60.225,-15.3 -60.225,-15.3 -60.2247875,-15.1496254 -60.2241496,-15.0003929 -60.2230856,-14.8522967 -60.2215946,-14.7053308 -60.2196759,-14.5594893 -60.2173288,-14.4147664 -60.2145525,-14.2711561 -60.2113463,-14.1286525 -60.2077094,-13.9872497 -60.2036411,-13.8469418 -60.1991406,-13.7077228 -60.1942072,-13.569587 -60.1888402,-13.4325283 -60.1830387,-13.2965409 -60.1768021,-13.1616188 -60.1701295,-13.0277562 -60.1630203,-12.8949471 -60.1554737,-12.7631856 -60.1474889,-12.6324659 -60.1390652,-12.502782 -60.1302019,-12.3741279 -60.1208981,-12.2464979 -60.1111532,-12.119886 -60.1009664,-11.9942862 -60.090337,-11.8696927 -60.0792641,-11.7460996 -60.0677471,-11.623501 -60.0557853,-11.5018908 -60.0433777,-11.3812634 -60.0305238,-11.2616126 -60.0172227,-11.1429327 -60.0034737,-11.0252177 -59.9892761,-10.9084618 -59.9746291,-10.7926589 -59.959532,-10.6778032 -59.943984,-10.5638888 -59.9279843,-10.4509098 -59.9115323,-10.3388602 -59.8946271,-10.2277342 -59.8772681,-10.1175259 -59.8594544,-10.0082293 -59.8411854,-9.8998385 -59.8224602,-9.7923477 -59.8032781,-9.6857509 -59.7836385,-9.5800422 -59.7635404,-9.4752157 -59.7429832,-9.3712655 -59.7219662,-9.2681857 -59.7004886,-9.1659704 -59.6785495,-9.0646136 -59.6561484,-8.9641096 -59.6332844,-8.8644522 -59.6099568,-8.7656358 -59.5861648,-8.6676542 -59.5619077,-8.5705017 -59.5371848,-8.4741724 -59.5119952,-8.3786602 -59.4863383,-8.2839594 -59.4602133,-8.190064 -59.4336194,-8.096968 -59.406556,-8.0046657 -59.3790221,-7.913151 -59.3510172,-7.8224181 -59.3225405,-7.732461 -59.2935911,-7.6432739 -59.2641684,-7.5548509 -59.2342665,-7.4671709 -59.2038612,-7.3801632 -59.1729473,-7.2938165 -59.1415218,-7.2081273 -59.1095818,-7.1230922 -59.0771247,-7.0387077 -59.0441474,-6.9549704 -59.0106471,-6.8718769 -58.976621,-6.7894236 -58.9420663,-6.7076071 -58.9069801,-6.6264241 -58.8713595,-6.5458709 -58.8352017,-6.4659442 -58.7985039,-6.3866406 -58.7612631,-6.3079564 -58.7234766,-6.2298884 -58.6851415,-6.1524331 -58.6462549,-6.0755869 -58.6068141,-5.9993465 -58.566816,-5.9237084 -58.526258,-5.8486692 -58.4851372,-5.7742253 -58.4434506,-5.7003733 -58.4011955,-5.6271099 -58.358369,-5.5544315 -58.3149683,-5.4823346 -58.2709904,-5.4108159 -58.2264327,-5.3398718 -58.1812921,-5.269499 -58.1355659,-5.1996939 -58.0892512,-5.1304531 -58.0423451,-5.0617732 -57.9948449,-4.9936507 -57.9467476,-4.9260822 -57.8980505,-4.8590641 -57.8487506,-4.7925931 -57.7988451,-4.7266657 -57.7483312,-4.6612784 -57.697206,-4.5964279 -57.6454667,-4.5321105 -57.5931104,-4.4683229 -57.5401343,-4.4050617 -57.4865354,-4.3423233 -57.4323111,-4.2801044 -57.3775,-4.2184508 -57.3221822,-4.1574522 -57.2663632,-4.0971056 -57.2100467,-4.0374056 -57.1532362,-3.9783468 -57.0959353,-3.919924 -57.0381477,-3.8621318 -56.9798769,-3.8049649 -56.9211267,-3.748418 -56.8619005,-3.6924856 -56.8022021,-3.6371626 -56.742035,-3.5824434 -56.6814029,-3.5283229 -56.6203093,-3.4747956 -56.5587578,-3.4218563 -56.4967522,-3.3694996 -56.434296,-3.3177202 -56.3713927,-3.2665126 -56.3080461,-3.2158717 -56.2442598,-3.1657921 -56.1800373,-3.1162684 -56.1153822,-3.0672953 -56.0502983,-3.0188674 -55.984789,-2.9709795 -55.918858,-2.9236262 -55.852509,-2.8768021 -55.7857455,-2.830502 -55.7185711,-2.7847205 -55.6509895,-2.7394522 -55.5830043,-2.6946918 -55.5146191,-2.6504341 -55.4458375,-2.6066736 -55.3766631,-2.563405 -55.3070995,-2.520623 -55.2371504,-2.4783223 -55.1668193,-2.4364974 -55.0250258,-2.3542542 -54.8817479,-2.2738507 -54.8094907,-2.2342864 -54.7365943,-2.1950161 -54.6630415,-2.156031 -54.5888281,-2.1173299 -54.5139496,-2.0789115 -54.4384018,-2.0407745 -54.3621805,-2.0029175 -54.2852812,-1.9653392 -54.2076998,-1.9280384 -54.1294318,-1.8910137 -54.0504731,-1.8542638 -53.9708193,-1.8177874 -53.8904661,-1.7815832 -53.8094092,-1.7456498 -53.7276443,-1.709986 -53.6451671,-1.6745904 -53.5619733,-1.6394618 -53.4780586,-1.6045988 -53.3934188,-1.57 -53.3080495,-1.5356643 -53.2219463,-1.5015903 -53.1351051,-1.4677766 -53.0475215,-1.434222 -52.9591912,-1.4009251 -52.87011,-1.3678846 -52.7802734,-1.3350993 -52.6896773,-1.3025678 -52.5983173,-1.2702888 -52.5061891,-1.2382609 -52.4132884,-1.2064829 -52.3196109,-1.1749535 -52.2251524,-1.1436713 -52.1299084,-1.1126351 -52.0338748,-1.0818435 -51.9370473,-1.0512951 -51.8394214,-1.0209888 -51.7409929,-0.9909232 -51.6417576,-0.9610969 -51.5417111,-0.9315087 -51.4408491,-0.9021572 -51.3391674,-0.8730412 -51.2366616,-0.8441592 -51.1333274,-0.8155101 -51.0291605,-0.7870925 -50.9241566,-0.7589051 -50.8183115,-0.7309465 -50.7116208,-0.7032155 -50.6040802,-0.6757108 -50.4956855,-0.6484309 -50.3864323,-0.6213747 -50.2763163,-0.5945409 -50.1653332,-0.567928 -50.0534788,-0.5415347 -49.9407487,-0.5153599 -49.8271386,-0.4894021 -49.7126639,-0.4636651 -49.5974892,-0.4381889 -49.4816584,-0.4129812 -49.3651789,-0.3880401 -49.2480581,-0.3633637 -49.1303033,-0.3389502 -49.0119221,-0.3147977 -48.8929218,-0.2909042 -48.7733098,-0.267268 -48.6530935,-0.2438872 -48.5322803,-0.2207599 -48.4108775,-0.1978842 -48.2888926,-0.1752583 -48.166333,-0.1528802 -48.0432061,-0.1307482 -47.9195193,-0.1088603 -47.7952799,-0.0872147 -47.5451732,-0.0446428 -47.2929452,-0.0030176 -47.038655,0.037676 -46.7823618,0.0774528 -46.5241247,0.1163279 -46.2640031,0.1543163 -46.002056,0.1914328 -45.7383426,0.2276924 -45.4729222,0.2631102 -45.2058538,0.2977011 -44.9371967,0.33148 -44.66701,0.364462 -44.3953529,0.3966619 -44.1222847,0.4280948 -43.8478644,0.4587756 -43.5721512,0.4887193 -43.2952044,0.5179409 -43.2952044,0.5179409 -43.2788847,0.5191506 -43.262568,0.5193911 -43.2462907,0.5186676 -43.2300891,0.5169855 -43.2139997,0.5143502 -43.1980587,0.510767 -43.1823129,0.5062447 -43.1668852,0.5008242 -43.1518245,0.4945357 -43.1371576,0.4874033 -43.1229117,0.4794514 -43.1091139,0.470704 -43.095791,0.4611856 -43.0829868,0.4509346 -43.0707766,0.4400267 -43.059178,0.4284975 -43.0482037,0.4163789 -43.0378665,0.403703 -43.0281793,0.3905017 -43.0191548,0.3768071 -43.0108079,0.362655 -43.0031691,0.3481155 -42.9962472,0.33323 -42.990045,0.3180303 -42.9845656,0.3025481 -42.9798117,0.2868154 -42.9757882,0.2708718 -42.9724998,0.2547681 -42.9699452,0.2385349 -42.9681227,0.2222021 -42.9670304,0.2057995 -42.9666667,0.1893569 -42.9666667,0 A0.3,0.3 180 0,1 -42.6666667,-0.3 L-40.8666667,-0.3 A0.3,0.3 270 0,1 -40.5666667,-0 L-40.5666667,0.4781429 -40.5666667,0.4781429 -40.5663496,0.4924749 -40.5654003,0.506759 -40.5638215,0.5209727 -40.561616,0.5350936 -40.5587865,0.5490991 -40.5553356,0.562967 -40.5512663,0.5766748 -40.5465812,0.5902 -40.5412835,0.6035192 -40.5353926,0.6165751 -40.5289252,0.6293292 -40.5218917,0.641761 -40.5143024,0.6538498 -40.5061676,0.6655748 -40.4974975,0.6769155 -40.4883025,0.6878511 -40.478593,0.698361 -40.4683883,0.7084157 -40.4577373,0.717963 -40.4466611,0.7269835 -40.4351777,0.7354614 -40.4233047,0.7433809 -40.4110601,0.7507262 -40.3984617,0.7574815 -40.3855297,0.7636299 -40.3723287,0.7691374 -40.3588976,0.7739884 -40.3452596,0.7781754 -40.3314377,0.7816908 -40.3174551,0.7845273 -40.3033348,0.7866774 -40.2890999,0.7881335 -40.2890999,0.7881335 -39.9791341,0.8118042 -39.6699623,0.8347456 -39.3617563,0.8569741 -39.0546877,0.8785059 -38.7489281,0.8993574 -38.4446494,0.9195448 -38.1420231,0.9390844 -37.8412209,0.9579925 -37.5419239,0.976314 -37.2415703,0.9942188 -36.9398402,1.0117361 -36.6368225,1.028871 -36.3326066,1.0456281 -36.0272815,1.0620126 -35.7209363,1.0780291 -35.4136603,1.0936827 -35.1055424,1.1089781 -34.7966719,1.1239203 -34.4871378,1.1385141 -34.1770293,1.1527645 -33.5554457,1.1802543 -32.9326341,1.2064289 -32.3093075,1.2313271 -31.686179,1.2549881 -31.0639616,1.277451 -30.4433683,1.2987547 -30.4433683,1.2987547 -30.4283082,1.2988805 -30.4132878,1.298252 -30.3983352,1.2968739 -30.3834783,1.2947505 -30.3687452,1.2918866 -30.3541639,1.2882867 -30.3397622,1.2839553 -30.3255702,1.2788977 -30.3116617,1.273139 -30.2980817,1.2667011 -30.2848546,1.2595987 -30.2720045,1.2518468 -30.2595554,1.2434602 -30.2475318,1.2344536 -30.2359576,1.2248421 -30.2248626,1.2146458 -30.2143083,1.2039209 -30.2043197,1.1926977 -30.1949135,1.180999 -30.1861064,1.1688478 -30.1779152,1.1562669 -30.1703565,1.1432793 -30.163447,1.1299078 -30.1572089,1.116188 -30.1516714,1.1021828 -30.146845,1.0879217 -30.1427389,1.0734318 -30.1393626,1.0587424 -30.1367294,1.0439104 -30.1348448,1.0289726 -30.1337117,1.0139576 -30.1333333,0.9988935 -30.1333333,0 A0.3,0.3 180 0,1 -29.8333333,-0.3 L-28.0333333,-0.3 A0.3,0.3 270 0,1 -27.7333333,0 L-27.7333333,1.0877189 -27.7333333,1.0877189 -27.7329831,1.1022346 -27.7319355,1.1166913 -27.7301955,1.1310643 -27.7277679,1.1453285 -27.7246576,1.1594592 -27.7208693,1.1734315 -27.7164079,1.1872204 -27.7112783,1.2008012 -27.7054973,1.2141229 -27.6990918,1.227127 -27.6920759,1.239792 -27.6844633,1.2520966 -27.6762681,1.2640196 -27.6675039,1.2755399 -27.6581847,1.2866361 -27.6483244,1.297287 -27.6379543,1.3074551 -27.6271245,1.3170928 -27.6158566,1.326185 -27.6041715,1.3347173 -27.59209,1.3426753 -27.5796332,1.3500447 -27.5668218,1.3568112 -27.5536769,1.3629602 -27.5402381,1.3684703 -27.5265717,1.3733151 -27.5127042,1.3774884 -27.4986605,1.3809847 -27.4844652,1.3837987 -27.4701433,1.3859247 -27.4557197,1.3873574 -27.441219,1.3880913 -27.441219,1.3880913 -26.8772174,1.4026153 -26.3121353,1.4165257 -26.3121353,1.4165257 -26.295157,1.381816 -26.2786667,1.3465607 -26.262636,1.3107844 -26.2470364,1.2745122 -26.2170168,1.200579 -26.1883802,1.1249598 -26.1608989,1.0478533 -26.1343455,0.9694581 -26.1084921,0.889973 -26.0831113,0.8095966 -26.0328605,0.6469772 -25.9818188,0.4833256 -25.9554264,0.4015765 -25.9281414,0.3201092 -25.8997302,0.2390968 -25.8699589,0.1587124 -25.838594,0.079129 -25.8054017,0.0005196 -25.7880473,-0.0383657 -25.7701484,-0.0769426 -25.7516758,-0.1151894 -25.7326004,-0.1530846 -25.7128928,-0.1906064 -25.6925308,-0.2277212 -25.6715239,-0.2643429 -25.6498503,-0.3004489 -25.6274823,-0.3360272 -25.6043924,-0.3710661 -25.5805528,-0.4055537 -25.5559359,-0.4394782 -25.530514,-0.4728279 -25.5042595,-0.5055909 -25.4771448,-0.5377553 -25.449142,-0.5693095 -25.4202497,-0.6002143 -25.3906675,-0.6302375 -25.3604383,-0.6593413 -25.3295566,-0.6875416 -25.2980168,-0.7148545 -25.2658131,-0.7412957 -25.2329399,-0.7668813 -25.1993915,-0.7916271 -25.1651623,-0.8155491 -25.1302467,-0.8386633 -25.0946389,-0.8609855 -25.0583333,-0.8825318 A1.25,1.25 240 0,1 -23.8083333,-0.8825318 L-23.8083333,-0.8825318 -23.7716074,-0.8606428 -23.7357601,-0.837897 -23.7007714,-0.8142918 -23.666621,-0.7898246 -23.6332888,-0.7644929 -23.6007544,-0.7382942 -23.5689979,-0.7112261 -23.5379989,-0.6832859 -23.5077372,-0.6544712 -23.4781928,-0.6247795 -23.4493453,-0.5942082 -23.4211746,-0.5627549 -23.3936605,-0.5304169 -23.3667829,-0.4971919 -23.3405977,-0.4631791 -23.31518,-0.428525 -23.2905025,-0.3932522 -23.2665372,-0.357383 -23.2432563,-0.3209396 -23.2206321,-0.283944 -23.1986365,-0.2464186 -23.1772419,-0.2083854 -23.1564204,-0.1698668 -23.1361441,-0.1308847 -23.1163851,-0.0914616 -23.0971158,-0.0516194 -23.0599343,0.0292332 -23.0243769,0.1114955 -22.9902372,0.1949504 -22.9573405,0.2792898 -22.9254761,0.3642824 -22.8944308,0.4497019 -22.8639914,0.5353221 -22.8040778,0.7062596 -22.7741773,0.7911245 -22.7440301,0.8752851 -22.7134231,0.9585153 -22.6821432,1.0405887 -22.6499772,1.1212791 -22.616712,1.2003604 -22.5996006,1.2392268 -22.5821344,1.2776062 -22.5642869,1.3154701 -22.5460313,1.3527903 -22.527341,1.3895386 -22.5081895,1.4256866 -22.48855,1.4612061 -22.4683959,1.4960687 -22.4683959,1.4960687 -21.9383623,1.5052074 -21.9383623,1.5052074 -21.9234171,1.5050849 -21.9085246,1.5042161 -21.8937119,1.5026062 -21.8790062,1.5002601 -21.8644347,1.4971832 -21.8500247,1.4933803 -21.8358033,1.4888567 -21.8217995,1.4836181 -21.8080858,1.4776909 -21.7947074,1.471098 -21.7816872,1.4638549 -21.7690483,1.4559766 -21.7568137,1.4474786 -21.7450062,1.4383761 -21.7336489,1.4286844 -21.722769,1.4184229 -21.7124255,1.4076476 -21.7026433,1.39639 -21.693438,1.3846728 -21.684825,1.372519 -21.6768195,1.3599512 -21.6694371,1.3469922 -21.662693,1.3336648 -21.6566059,1.3199993 -21.651204,1.3060578 -21.6464979,1.2918716 -21.6424958,1.2774672 -21.6392062,1.2628722 -21.6366409,1.2481392 -21.6348052,1.2333051 -21.6337018,1.2183974 -21.6333333,1.2034436 -21.6333333,0 A0.3,0.3 180 0,1 -21.3333333,-0.3 L-19.5333333,-0.3 A0.3,0.3 270 0,1 -19.2333333,0 L-19.2333333,1.2473985 -19.2333333,1.2473985 -19.2329792,1.2620938 -19.2319201,1.2767304 -19.2301607,1.2912828 -19.2277056,1.3057255 -19.2245595,1.320033 -19.2207273,1.3341798 -19.2162136,1.3481403 -19.211023,1.3618891 -19.205172,1.3753754 -19.1986874,1.3885395 -19.1915829,1.4013591 -19.1838725,1.4138121 -19.1755697,1.4258764 -19.1666883,1.4375298 -19.1572421,1.4487503 -19.1472447,1.4595158 -19.1367286,1.4697867 -19.1257444,1.4795142 -19.1143139,1.4886825 -19.1024585,1.4972762 -19.0901992,1.50528 -19.0775574,1.5126786 -19.0645543,1.5194568 -19.0512111,1.5255992 -19.0375743,1.531081 -19.0237106,1.5358762 -19.0096464,1.539979 -18.9954072,1.5433835 -18.9810188,1.546084 -18.9665069,1.5480748 -18.951897,1.5493503 -18.9372149,1.5499047 -18.9372149,1.5499047 -18.3209912,1.5577295 -17.7051994,1.5651288 -17.0901738,1.5721157 -16.4762487,1.5787032 -15.8637583,1.5849044 -15.2528664,1.5907338 -14.6412144,1.596227 -14.028137,1.6014006 -13.4138767,1.6062623 -12.7986766,1.6108198 -11.5664273,1.619053 -10.3333312,1.6261623 -9.1013303,1.6322093 -9.1013303,1.6322093 -9.0864441,1.6319015 -9.0716211,1.6308476 -9.056888,1.6290534 -9.0422716,1.6265245 -9.0277986,1.6232668 -9.0134957,1.6192858 -8.9993897,1.6145873 -8.9855094,1.6091779 -8.9719293,1.6030866 -8.9586923,1.5963369 -8.9458202,1.5889448 -8.9333351,1.5809262 -8.921259,1.5722971 -8.9096137,1.5630734 -8.8984213,1.5532711 -8.8877084,1.542911 -8.8775323,1.5320499 -8.8679156,1.5207188 -8.8588725,1.5089403 -8.8504171,1.4967375 -8.8425637,1.4841331 -8.8353263,1.47115 -8.8287191,1.4578111 -8.8227589,1.4441453 -8.8174718,1.4302128 -8.8128678,1.4160449 -8.8089543,1.4016677 -8.8057387,1.387108 -8.8032317,1.3724152 -8.8014379,1.3576253 -8.8003599,1.3427651 -8.8,1.3278611 -8.8,0 A0.3,0.3 180 0,1 -8.5,-0.3 L-6.7,-0.3 A0.3,0.3 270 0,1 -6.4,-0 L-6.4,1.3381988 -6.4,1.3381988 -6.3996436,1.3530486 -6.3985774,1.3678404 -6.396806,1.3825482 -6.3943338,1.3971459 -6.3911655,1.4116076 -6.3873055,1.4259073 -6.3827584,1.440019 -6.3775288,1.4539165 -6.3716318,1.4675508 -6.3650943,1.4808605 -6.3579298,1.4938222 -6.3501519,1.5064132 -6.3417741,1.5186104 -6.3328097,1.530391 -6.3232724,1.5417321 -6.3131755,1.5526107 -6.3025504,1.5629873 -6.2914493,1.5728103 -6.2798946,1.5820626 -6.2679076,1.5907281 -6.2555097,1.5987905 -6.2427224,1.6062337 -6.229567,1.6130413 -6.2160649,1.6191973 -6.2022669,1.6246744 -6.1882413,1.6294462 -6.1740149,1.6335064 -6.1596142,1.6368491 -6.1450654,1.6394683 -6.130395,1.641358 -6.1156293,1.6425122 -6.1007947,1.6429249 -6.1007947,1.6429249 -4.7262593,1.6461083 -3.3508741,1.6483083 -1.974788,1.6495866 -1.2871068,1.6498978 -0.6,1.65 -0.6,1.65 -0.5851365,1.6496252 -0.5703399,1.6485046 -0.5556369,1.6466443 -0.5410541,1.64405 -0.5266178,1.6407278 -0.5123548,1.6366836 -0.4982915,1.6319232 -0.4844569,1.6264537 -0.4709259,1.6203048 -0.4577405,1.6135004 -0.4449223,1.6060565 -0.4324929,1.5979894 -0.420474,1.5893153 -0.408887,1.5800502 -0.3977538,1.5702105 -0.3871008,1.5598173 -0.3769845,1.5489279 -0.3674266,1.5375726 -0.3584409,1.5257744 -0.3500413,1.5135562 -0.3422413,1.5009407 -0.3350549,1.4879509 -0.3284957,1.4746096 -0.3225799,1.4609456 -0.317333,1.4470181 -0.3127647,1.4328585 -0.308882,1.4184925 -0.3056921,1.4039468 -0.3032053,1.3892698 -0.3014262,1.374497 -0.3003569,1.3596549 -0.3,1.3447699 -0.3,0 A0.3,0.3 180 0,1 -0,-0.3 L1.8,-0.3 A0.3,0.3 270 0,1 2.1,0 L2.1,1.3440008 2.1,1.3440008 2.1003572,1.3588952 2.1014258,1.3737317 2.1032014,1.3884842 2.1056793,1.4031265 2.1088552,1.4176324 2.1127244,1.4319759 2.1172826,1.4461307 2.1225252,1.4600707 2.1284372,1.4737468 2.1349919,1.4870975 2.1421757,1.5000992 2.1499752,1.5127287 2.1583769,1.5249629 2.1673674,1.5367786 2.1769333,1.5481528 2.1870611,1.5590622 2.1977198,1.5694671 2.2088565,1.5793154 2.2204491,1.5885896 2.232476,1.5972732 2.2449157,1.60535 2.2577469,1.6128032 2.2709479,1.6196166 2.2844974,1.6257735 2.2983431,1.6312461 2.3124163,1.6360079 2.3266902,1.6400526 2.3411382,1.6433743 2.3557337,1.6459667 2.3704501,1.647824 2.3852608,1.64894 2.4001393,1.6493086 2.4001393,1.6493086 4.8615589,1.6476085 6.0909573,1.6463306 6.7045642,1.6455776 7.3171517,1.6447457 7.9291581,1.6438319 8.542369,1.6428306 9.1566467,1.6417385 9.7717079,1.6405525 12.2341219,1.6348069 12.2341219,1.6348069 12.2489684,1.6343927 12.2637458,1.6332337 12.2784277,1.6313359 12.2929876,1.6287053 12.3073991,1.6253481 12.3216358,1.6212701 12.3356712,1.6164775 12.3494766,1.6109772 12.3629771,1.6047995 12.3761308,1.5979683 12.3889164,1.5904998 12.4013123,1.5824102 12.4132973,1.5737159 12.4248498,1.5644332 12.4359485,1.5545782 12.4465671,1.5441721 12.4566498,1.5332721 12.4661747,1.5219089 12.4751282,1.5101053 12.4834969,1.4978841 12.4912671,1.4852683 12.4984253,1.4722806 12.504958,1.458944 12.5108495,1.4452864 12.5160748,1.4313665 12.520624,1.4172163 12.5244901,1.4028613 12.5276661,1.3883282 12.5301421,1.3736645 12.5319135,1.3589057 12.532978,1.3440782 12.5333333,1.3292083 12.5333333,0 A0.3,0.3 180 0,1 12.8333333,-0.3 L14.6333333,-0.3 A0.3,0.3 270 0,1 14.9333333,0 L14.9333333,1.3196635 14.9333333,1.3196635 14.933691,1.3345873 14.9347611,1.3494534 14.9365392,1.3642355 14.9390207,1.3789074 14.9422012,1.3934427 14.9460763,1.4078152 14.9506414,1.4219987 14.9558921,1.4359669 14.9618135,1.4496709 14.9683791,1.463049 14.9755752,1.4760774 14.9833883,1.4887328 14.9918052,1.5009918 15.0008125,1.5128311 15.0103968,1.5242276 15.0205446,1.5351578 15.0312249,1.5455819 15.0423849,1.5554474 15.0540021,1.5647365 15.0660549,1.5734327 15.078522,1.5815194 15.0913817,1.5889798 15.1046127,1.5957974 15.1181933,1.6019555 15.1320784,1.6074286 15.1462109,1.6121925 15.1605648,1.6162378 15.175114,1.6195555 15.1898134,1.6221336 15.2046138,1.6239633 15.2194874,1.6250416 15.2344069,1.6253654 15.2344069,1.6253654 16.2342131,1.621538 16.2342131,1.621538 16.2577027,1.5866072 16.2801971,1.5510006 16.3017431,1.514786 16.3223873,1.4780309 16.3421761,1.4408033 16.3611792,1.4031238 16.3795576,1.3648031 16.397366,1.3258405 16.4146419,1.2862688 16.4314229,1.2461205 16.4477464,1.2054284 16.4636501,1.164225 16.4943478,1.0804151 16.5238164,0.9949522 16.552356,0.9080974 16.5802669,0.820112 16.6078492,0.7312573 16.6354033,0.6417944 16.6915882,0.4622086 16.7208174,0.3726015 16.7512161,0.2834198 16.7830932,0.1948894 16.8167575,0.1072362 16.8343564,0.0638092 16.8525179,0.0206862 16.8712806,-0.0221045 16.8906832,-0.0645346 16.9107641,-0.106576 16.9315621,-0.1482004 16.9531158,-0.1893795 16.9754636,-0.2300851 16.9986201,-0.2702481 17.022575,-0.3097679 17.0473628,-0.3486288 17.0730195,-0.3868169 17.099581,-0.4243185 17.1270831,-0.4611197 17.1555618,-0.4972068 17.1850527,-0.532566 17.215592,-0.5671836 17.2472148,-0.6010451 17.2797587,-0.633942 17.3130776,-0.6657261 17.3471781,-0.6964192 17.3820669,-0.7260428 17.4177509,-0.7546184 17.4542368,-0.7821677 17.4915312,-0.808712 17.5296409,-0.8342731 17.5685727,-0.8588725 17.6083333,-0.8825318 A1.25,1.25 240 0,1 18.8583333,-0.8825318 L18.8583333,-0.8825318 18.89686,-0.8595336 18.9344196,-0.8355911 18.9710355,-0.8107014 19.0067311,-0.7848617 19.0415297,-0.7580689 19.0754546,-0.7303202 19.1085293,-0.7016128 19.140777,-0.6719435 19.1722212,-0.6413097 19.2028851,-0.6097083 19.2327921,-0.5771364 19.2619656,-0.5435911 19.290429,-0.5090696 19.3181709,-0.4736145 19.3450736,-0.4374255 19.371153,-0.4005487 19.3964414,-0.3630097 19.4209709,-0.3248343 19.4447738,-0.2860479 19.4678821,-0.2466764 19.4903282,-0.2067453 19.5121442,-0.1662802 19.5333623,-0.125307 19.5540147,-0.0838511 19.5741337,-0.0419383 19.5937513,0.0004058 19.6316115,0.0862852 19.6678459,0.1735653 19.7026568,0.2618965 19.7362806,0.3509948 19.768964,0.4405992 19.8324963,0.6202818 19.8952265,0.7988553 19.9269074,0.8870733 19.9591277,0.9742308 19.9921341,1.0600665 20.0261731,1.1443193 20.0436569,1.1857705 20.0614914,1.2267282 20.0797073,1.2671595 20.0983356,1.307032 20.117407,1.3463129 20.1369524,1.3849696 20.1570025,1.4229695 20.1775883,1.4602799 20.1987405,1.4968682 20.2204901,1.5327017 20.2428677,1.5677479 20.2659043,1.601974 20.2659043,1.601974 20.7351025,1.599209 20.7351025,1.599209 20.7499244,1.5987462 20.7646748,1.5975403 20.7793273,1.5955976 20.7938558,1.5929242 20.8082339,1.5895262 20.8224353,1.5854098 20.8364339,1.580581 20.850201,1.5750471 20.8636621,1.5688384 20.8767754,1.5619789 20.8895197,1.5544852 20.9018738,1.5463734 20.9138165,1.5376599 20.9253267,1.5283611 20.936383,1.5184932 20.94696,1.5080773 20.9570022,1.4971701 20.9664876,1.4858028 20.9754029,1.4739981 20.9837348,1.4617789 20.99147,1.4491679 20.9985952,1.436188 21.005097,1.422862 21.0109604,1.4092171 21.0161606,1.3953113 21.0206876,1.3811771 21.0245346,1.3668402 21.0276947,1.3523267 21.0301582,1.3376833 21.0319207,1.3229457 21.0329798,1.30814 21.0333333,1.2932925 21.0333333,0 A0.3,0.3 180 0,1 21.3333333,-0.3 L23.1333333,-0.3 A0.3,0.3 270 0,1 23.4333333,0 L23.4333333,1.2725879 23.4333333,1.2725879 23.4336925,1.2875589 23.4347668,1.302472 23.436552,1.3173009 23.4390436,1.332019 23.442237,1.3465998 23.4461279,1.361017 23.4507117,1.3752441 23.455984,1.3892546 23.4619298,1.4029991 23.4685225,1.4164159 23.4757486,1.429481 23.4835946,1.4421709 23.4920472,1.4544621 23.5010928,1.4663311 23.5107182,1.4777542 23.52091,1.488708 23.531636,1.4991514 23.5428436,1.5090321 23.5545103,1.5183325 23.5666147,1.5270357 23.579135,1.5351249 23.5920497,1.5425832 23.605337,1.5493936 23.6189754,1.5555394 23.6329169,1.5609939 23.6471058,1.5657335 23.6615158,1.569749 23.6761207,1.573031 23.690874,1.5755674 23.7057262,1.5773496 23.7206496,1.5783746 23.7356164,1.5786394 23.7356164,1.5786394 24.3497078,1.5737458 24.9652241,1.5685805 26.1981992,1.5573952 26.8144919,1.5513554 27.4298775,1.5450046 28.0437728,1.5383328 28.6555949,1.5313301 29.2649359,1.5239847 29.5699879,1.5201617 29.875865,1.516227 30.1824607,1.5121781 30.4896682,1.5080127 31.1054929,1.4993224 31.7224864,1.4901367 32.3397962,1.4804359 32.9565698,1.4702007 33.5719545,1.4594116 33.5719545,1.4594116 33.5866857,1.4587757 33.6013368,1.4574044 33.6158823,1.4553042 33.6302964,1.4524817 33.6445534,1.4489432 33.6586277,1.4446952 33.6724935,1.4397443 33.6861234,1.4340977 33.6994448,1.4277859 33.7124152,1.4208341 33.7250142,1.4132588 33.7372212,1.4050763 33.7490159,1.3963032 33.7603778,1.3869559 33.7712865,1.3770508 33.7817184,1.3666078 33.7916202,1.3556823 33.8009687,1.3443073 33.8097514,1.3325053 33.8179555,1.3202989 33.8255686,1.3077108 33.8325779,1.2947635 33.8389708,1.2814796 33.8447338,1.2678845 33.84984,1.2540433 33.854279,1.2399952 33.8580466,1.2257654 33.8611386,1.2113793 33.8635508,1.196862 33.865279,1.1822389 33.8663191,1.1675351 33.8666667,1.152776 33.8666667,0 A0.3,0.3 180 0,1 34.1666667,-0.3 L35.9666667,-0.3 A0.3,0.3 270 0,1 36.2666667,-0 L36.2666667,1.0902281 36.2666667,1.0902281 36.2670319,1.1053697 36.2681245,1.1204527 36.26994,1.1354499 36.272474,1.1503341 36.2757219,1.165078 36.2796793,1.1796544 36.2843418,1.194036 36.2897047,1.2081957 36.2957519,1.2220805 36.3024571,1.23563 36.3098068,1.2488197 36.3177873,1.2616252 36.3263851,1.2740221 36.3355867,1.285986 36.3453783,1.2974924 36.3557465,1.3085171 36.3666533,1.319013 36.3780486,1.328931 36.3899099,1.3382533 36.4022152,1.3469621 36.4149423,1.35504 36.428069,1.3624692 36.4415731,1.3692322 36.4554319,1.375311 36.4695855,1.3806745 36.4839855,1.3853031 36.4986049,1.3891871 36.5134164,1.392317 36.528367,1.3946795 36.5434086,1.3962674 36.5585123,1.3970779 36.5736494,1.3971082 36.5736494,1.3971082 37.2623664,1.380142 37.9520972,1.3619645 38.6410147,1.3425159 38.9845975,1.3322963 39.3272918,1.3217367 39.6690293,1.3108245 40.0115766,1.2994852 40.3552337,1.2876857 40.699683,1.2754121 41.3896875,1.2493865 41.7346074,1.2356064 42.079049,1.2212963 42.079049,1.2212963 42.0935619,1.2203194 42.1079792,1.2186269 42.1222765,1.2162258 42.1364294,1.213123 42.1504134,1.2093257 42.1642042,1.2048408 42.1777772,1.1996755 42.1911075,1.1938371 42.2041287,1.1873551 42.2167954,1.1802569 42.2290886,1.172559 42.2409894,1.164278 42.2524788,1.1554302 42.2635377,1.1460322 42.2741471,1.1361005 42.2842875,1.1256522 42.2939125,1.1147368 42.3029936,1.1033933 42.3115196,1.0916437 42.3194791,1.0795098 42.3268609,1.0670137 42.3336534,1.0541773 42.3398455,1.0410227 42.3454257,1.0275718 42.3503741,1.0138726 42.3546746,0.9999774 42.3583236,0.9859105 42.3613173,0.9716959 42.3636522,0.9573579 42.3653244,0.9429207 42.3663305,0.9284084 42.3666667,0.9138452 42.3666667,0 A0.3,0.3 180 0,1 42.6666667,-0.3 L44.4666667,-0.3 A0.3,0.3 270 0,1 44.7666667,-0 L44.7666667,0.7599989 44.7666667,0.7599989 44.7670469,0.7755187 44.7681844,0.7909777 44.7700745,0.8063469 44.7727128,0.8215971 44.7760946,0.8366992 44.7802153,0.8516242 44.7850702,0.8663428 44.7906548,0.8808259 44.7969486,0.8950107 44.8039271,0.9088417 44.8115761,0.9222925 44.8198815,0.9353368 44.8288292,0.9479482 44.838405,0.9601005 44.8485947,0.9717672 44.8593831,0.9829209 44.8707162,0.9934997 44.8825536,1.0034658 44.8948719,1.0127999 44.9076475,1.0214827 44.9208569,1.029495 44.9344765,1.0368174 44.9484827,1.0434306 44.9628406,1.0493109 44.9774752,1.0544237 44.992352,1.0587563 45.0074418,1.0622984 45.022713,1.0650395 45.0380982,1.0669658 45.0535531,1.0680724 45.0690467,1.0683575 45.0845481,1.0678189 45.0845481,1.0678189 45.2644204,1.0566457 45.4424975,1.0453154 45.6187903,1.0338261 45.7933099,1.0221763 45.9660674,1.0103641 46.1370738,0.9983879 46.3063402,0.9862459 46.4738776,0.9739364 46.6396971,0.9614578 46.8038098,0.9488082 46.9662267,0.935986 47.1269588,0.9229894 47.2860173,0.9098168 47.4434131,0.8964664 47.5991573,0.8829365 47.7532611,0.8692253 47.9057354,0.8553312 48.0565912,0.8412525 48.2058398,0.8269874 48.353492,0.8125342 48.499559,0.7978911 48.6440518,0.7830566 48.7869815,0.7680288 48.9283592,0.752806 49.0681958,0.7373866 49.2065025,0.7217688 49.3432903,0.7059508 49.4785702,0.689931 49.6123533,0.6737076 49.7446508,0.657279 49.8754735,0.6406434 50.0048326,0.6237991 50.1327392,0.6067444 50.2592043,0.5894775 50.3842389,0.5719967 50.5078541,0.5543004 50.630061,0.5363868 50.7508706,0.5182541 50.870294,0.4999008 50.9883422,0.481325 51.1050263,0.462525 51.2203573,0.4434991 51.3343464,0.4242456 51.4470045,0.4047629 51.5583427,0.385049 51.6683721,0.3651024 51.7771037,0.3449214 51.8845486,0.3245041 51.9907178,0.303849 52.0956224,0.2829542 52.1992735,0.261818 52.301682,0.2404388 52.4028592,0.2188149 52.5028159,0.1969444 52.6015633,0.1748257 52.6991125,0.1524571 52.7954744,0.1298368 52.8906602,0.1069631 52.9846809,0.0838344 53.0775475,0.0604488 53.1692712,0.0368048 53.2598629,0.0129005 53.3493337,-0.0112658 53.4376947,-0.0356957 53.524957,-0.0603911 53.6111315,-0.0853535 53.6962294,-0.1105848 53.7802617,-0.1360867 53.8632394,-0.1618608 53.9451737,-0.1879088 54.0260755,-0.2142326 54.105956,-0.2408338 54.1848261,-0.2677142 54.262697,-0.2948754 54.3395797,-0.3223191 54.4154852,-0.3500472 54.4904246,-0.3780612 54.564409,-0.406363 54.6374494,-0.4349543 54.7095569,-0.4638367 54.7807426,-0.4930119 54.8510213,-0.5224835 54.9204888,-0.5522899 54.9891863,-0.5824495 55.0571192,-0.6129654 55.1242929,-0.6438411 55.1907125,-0.6750798 55.2563835,-0.7066849 55.3213111,-0.7386597 55.3855007,-0.7710075 55.4489577,-0.8037315 55.5116872,-0.8368352 55.5736948,-0.8703219 55.6349856,-0.9041948 55.695565,-0.9384572 55.7554383,-0.9731126 55.8146109,-1.0081642 55.8730881,-1.0436153 55.9308752,-1.0794692 55.9879775,-1.1157293 56.0444004,-1.1523988 56.1001491,-1.1894811 56.155229,-1.2269796 56.2096454,-1.2648974 56.2634037,-1.303238 56.3165091,-1.3420046 56.3689671,-1.3812006 56.4207828,-1.4208293 56.4719617,-1.4608939 56.522509,-1.5013979 56.5724301,-1.5423445 56.6217304,-1.5837371 56.670415,-1.6255789 56.7184894,-1.6678733 56.7659589,-1.7106236 56.8128288,-1.7538331 56.8591044,-1.7975051 56.904791,-1.8416429 56.9499079,-1.8862627 56.9944772,-1.9313846 57.0385028,-1.9770134 57.0819889,-2.023154 57.1249395,-2.0698109 57.1673585,-2.116989 57.2092499,-2.1646929 57.250618,-2.2129274 57.2914665,-2.2616972 57.3317996,-2.3110071 57.3716213,-2.3608618 57.4109356,-2.4112659 57.4497465,-2.4622244 57.488058,-2.5137417 57.5258742,-2.5658228 57.5631992,-2.6184723 57.6000368,-2.6716949 57.6363911,-2.7254954 57.6722662,-2.7798785 57.7076661,-2.834849 57.7425948,-2.8904115 57.7770563,-2.9465708 57.8110546,-3.0033316 57.8445938,-3.0606987 57.8776779,-3.1186768 57.9103109,-3.1772705 57.9424969,-3.2364848 57.9742397,-3.2963241 58.0055436,-3.3567934 58.0364124,-3.4178973 58.0668503,-3.4796406 58.0968612,-3.5420279 58.1264491,-3.605064 58.1556182,-3.6687537 58.1843723,-3.7331017 58.2127217,-3.7981265 58.2406971,-3.8638967 58.2683038,-3.9304286 58.2955437,-3.9977306 58.3224186,-4.0658116 58.3489305,-4.1346802 58.3750812,-4.204345 58.4008727,-4.2748148 58.4263068,-4.3460982 58.4513855,-4.4182038 58.4761105,-4.4911405 58.5004838,-4.5649168 58.5245074,-4.6395414 58.548183,-4.7150231 58.5715125,-4.7913704 58.5944979,-4.8685921 58.6171411,-4.9466968 58.6394439,-5.0256932 58.6614082,-5.10559 58.6830359,-5.1863958 58.7043289,-5.2681194 58.7252891,-5.3507695 58.7459184,-5.4343546 58.7662187,-5.5188835 58.7861918,-5.6043648 58.8058397,-5.6908073 58.8251642,-5.7782195 58.8441672,-5.8666103 58.8628506,-5.9559882 58.8812164,-6.0463619 58.8992664,-6.1377401 58.9170024,-6.2301316 58.9344264,-6.3235449 58.9515403,-6.4179887 58.9683459,-6.5134717 58.9848452,-6.6100027 59.00104,-6.7075902 59.0169322,-6.8062429 59.0325238,-6.9059696 59.0478165,-7.0067789 59.0628124,-7.1086794 59.0775132,-7.21168 59.091919,-7.3157771 59.1060165,-7.4208783 59.1198047,-7.5269609 59.1332861,-7.6340232 59.1464633,-7.7420635 59.1593386,-7.85108 59.1719145,-7.9610711 59.1841935,-8.0720349 59.1961782,-8.1839698 59.2078709,-8.2968741 59.2192741,-8.410746 59.2303903,-8.5255838 59.2412219,-8.6413858 59.2517716,-8.7581503 59.2620416,-8.8758755 59.2720345,-8.9945597 59.2817528,-9.1142013 59.2911989,-9.2347984 59.3003754,-9.3563493 59.3092846,-9.4788524 59.317929,-9.6023059 59.3263112,-9.726708 59.3344336,-9.8520572 59.3422987,-9.9783515 59.3499089,-10.1055894 59.3572667,-10.2337691 59.3643746,-10.3628888 59.371235,-10.4929469 59.3778505,-10.6239416 59.3842235,-10.7558712 59.3903565,-10.888734 59.3962519,-11.0225282 59.4019123,-11.1572522 59.40734,-11.2929041 59.4125376,-11.4294824 59.4175076,-11.5669852 59.4222524,-11.7054109 59.4267744,-11.8447577 59.4310763,-11.9850239 59.4351603,-12.1262077 59.4390291,-12.2683075 59.442685,-12.4113215 59.4461306,-12.5552481 59.4493683,-12.7000854 59.4524006,-12.8458318 59.45523,-12.9924855 59.4578589,-13.1400448 59.4602898,-13.288508 59.4625252,-13.4378734 59.4645676,-13.5881392 59.4664194,-13.7393038 59.4680831,-13.8913653 59.4695611,-14.0443221 59.4708561,-14.1981725 59.4719703,-14.3529147 59.4729064,-14.5085471 59.4736667,-14.6650678 59.4742537,-14.8224751 59.47467,-14.9807674 59.4749179,-15.139943 59.475,-15.3 59.475,-15.3 59.4748719,-15.4968948 59.4744868,-15.6918085 59.4738438,-15.8847537 59.4729417,-16.0757429 59.4717796,-16.2647888 59.4703563,-16.4519038 59.4686709,-16.6371005 59.4667223,-16.8203916 59.4645094,-17.0017896 59.4620311,-17.1813069 59.4592866,-17.3589563 59.4562746,-17.5347502 59.4529942,-17.7087013 59.4494442,-17.8808221 59.4456238,-18.0511251 59.4415317,-18.2196229 59.437167,-18.3863281 59.4325287,-18.5512533 59.4276156,-18.714411 59.4224267,-18.8758137 59.416961,-19.0354741 59.4112174,-19.1934047 59.4051949,-19.3496181 59.3988924,-19.5041268 59.392309,-19.6569435 59.3854434,-19.8080805 59.3782948,-19.9575507 59.370862,-20.1053664 59.363144,-20.2515402 59.3551398,-20.3960848 59.3468483,-20.5390127 59.3382684,-20.6803364 59.3293992,-20.8200686 59.3202395,-20.9582217 59.3107883,-21.0948083 59.3010447,-21.2298411 59.2910074,-21.3633326 59.2806755,-21.4952952 59.270048,-21.6257417 59.2591237,-21.7546846 59.2479017,-21.8821364 59.2363809,-22.0081097 59.2245602,-22.132617 59.2124386,-22.255671 59.2000151,-22.3772841 59.1872886,-22.497469 59.174258,-22.6162382 59.1609224,-22.7336043 59.1472806,-22.8495799 59.1333316,-22.9641775 59.1190744,-23.0774096 59.1045079,-23.1892889 59.0896312,-23.2998279 59.074443,-23.4090391 59.0589424,-23.5169352 59.0431284,-23.6235287 59.0269998,-23.7288321 59.0105557,-23.8328581 58.993795,-23.9356191 58.9767167,-24.0371278 58.9593196,-24.1373968 58.9416028,-24.2364385 58.9235652,-24.3342655 58.9052058,-24.4308905 58.8865235,-24.526326 58.8675173,-24.6205844 58.8481861,-24.7136785 58.8285288,-24.8056208 58.8085445,-24.8964238 58.7882321,-24.9861001 58.7675905,-25.0746623 58.7466187,-25.1621229 58.7253156,-25.2484944 58.7036803,-25.3337896 58.6817116,-25.4180208 58.6594084,-25.5012008 58.6367699,-25.583342 58.6137948,-25.664457 58.5904723,-25.7445925 58.5667711,-25.8238576 58.5426867,-25.9022653 58.5182159,-25.979822 58.493356,-26.0565342 58.4681039,-26.1324084 58.4424568,-26.2074509 58.4164116,-26.2816684 58.3899656,-26.3550671 58.3631157,-26.4276537 58.3358591,-26.4994345 58.3081927,-26.570416 58.2801137,-26.6406047 58.2516191,-26.710007 58.2227061,-26.7786294 58.1933716,-26.8464784 58.1636127,-26.9135603 58.1334266,-26.9798818 58.1028102,-27.0454492 58.0717607,-27.110269 58.0402751,-27.1743476 58.0083506,-27.2376916 57.9759841,-27.3003073 57.9431727,-27.3622013 57.9099135,-27.42338 57.8762036,-27.4838499 57.84204,-27.5436173 57.8074199,-27.6026889 57.7723403,-27.661071 57.7367982,-27.7187701 57.7007907,-27.7757927 57.6643149,-27.8321451 57.6273679,-27.887834 57.5899467,-27.9428657 57.5520485,-27.9972468 57.5136702,-28.0509836 57.474809,-28.1040826 57.4354618,-28.1565503 57.3956259,-28.2083932 57.3552995,-28.2596159 57.3144976,-28.3101997 57.2732253,-28.3601426 57.2314825,-28.4094511 57.1892689,-28.4581313 57.1465841,-28.5061895 57.103428,-28.5536319 57.0598002,-28.600465 57.0157006,-28.6466948 56.9711288,-28.6923278 56.9260847,-28.7373701 56.8805678,-28.781828 56.8345781,-28.8257078 56.7881152,-28.8690158 56.7411789,-28.9117582 56.6937689,-28.9539413 56.6458849,-28.9955713 56.5975267,-29.0366546 56.5486941,-29.0771974 56.4993868,-29.117206 56.4496044,-29.1566866 56.3993469,-29.1956455 56.3486138,-29.234089 56.297405,-29.2720234 56.2457202,-29.3094548 56.1935591,-29.3463896 56.1409214,-29.3828341 56.087807,-29.4187945 56.0342156,-29.4542771 55.9801468,-29.4892881 55.9256005,-29.5238339 55.8705764,-29.5579206 55.8150742,-29.5915547 55.7590242,-29.6247836 55.702311,-29.6576779 55.6449266,-29.6902407 55.5868643,-29.7224743 55.5281177,-29.7543809 55.4686799,-29.7859629 55.4085446,-29.8172225 55.3477051,-29.848162 55.2861548,-29.8787836 55.2238872,-29.9090896 55.1608956,-29.9390824 55.0971735,-29.968764 55.0327142,-29.9981369 54.9675112,-30.0272034 54.9015579,-30.0559655 54.8348478,-30.0844258 54.7673742,-30.1125863 54.6991305,-30.1404494 54.6301101,-30.1680174 54.5603066,-30.1952925 54.4897132,-30.222277 54.4183234,-30.2489732 54.3461306,-30.2753834 54.2731283,-30.3015097 54.1993097,-30.3273545 54.1246684,-30.3529201 54.0491978,-30.3782087 53.9728913,-30.4032226 53.8957422,-30.4279641 53.8177441,-30.4524354 53.7388902,-30.4766388 53.6591741,-30.5005766 53.5785891,-30.5242511 53.4971287,-30.5476645 53.4147862,-30.5708191 53.3315551,-30.5937171 53.2474288,-30.6163609 53.1624007,-30.6387527 53.0764643,-30.6608948 52.9896205,-30.6827869 52.9018726,-30.7044285 52.8132168,-30.7258216 52.7236496,-30.7469681 52.6331672,-30.7678701 52.5417661,-30.7885294 52.4494427,-30.8089481 52.3561932,-30.829128 52.262014,-30.8490713 52.1669016,-30.8687797 52.0708522,-30.8882553 51.9738622,-30.9075001 51.8759281,-30.926516 51.7770461,-30.9453049 51.6772127,-30.9638688 51.5764241,-30.9822098 51.4746768,-31.0003297 51.3719671,-31.0182304 51.2682914,-31.0359141 51.163646,-31.0533826 51.0580273,-31.0706378 50.9514318,-31.0876819 50.8438556,-31.1045166 50.7352953,-31.121144 50.6257471,-31.1375661 50.5152074,-31.1537847 50.4036726,-31.1698019 50.2911391,-31.1856196 50.1776032,-31.2012398 50.0630613,-31.2166644 49.9475098,-31.2318955 49.8309449,-31.2469349 49.7133631,-31.2617846 49.5947608,-31.2764466 49.4751342,-31.2909228 49.3544798,-31.3052153 49.232794,-31.3193259 49.110073,-31.3332566 48.9863133,-31.3470095 48.8615112,-31.3605863 48.7356631,-31.3739892 48.6087654,-31.3872201 48.4808143,-31.4002809 48.3518064,-31.4131736 48.2217378,-31.4259001 48.0906051,-31.4384625 47.9584045,-31.4508627 47.8251325,-31.4631025 47.6907853,-31.4751841 47.5553595,-31.4871094 47.4188512,-31.4988802 47.2812569,-31.5104987 47.142573,-31.5219667 47.0027957,-31.5332862 46.8619216,-31.5444591 46.7199469,-31.5554875 46.576868,-31.5663733 46.4326812,-31.5771184 46.287383,-31.5877249 46.1409697,-31.5981946 45.9934376,-31.6085295 45.8447832,-31.6187317 45.6950028,-31.628803 45.5440927,-31.6387454 45.3920493,-31.6485609 45.2388689,-31.6582514 45.0845481,-31.6678189 45.0845481,-31.6678189 45.0690561,-31.6683574 45.0535907,-31.6680741 45.0381824,-31.6669741 45.0228616,-31.6650621 45.0076586,-31.6623432 44.992604,-31.6588223 44.977728,-31.6545044 44.9630787,-31.6494011 44.9487453,-31.6435464 44.9347583,-31.6369595 44.9211426,-31.6296581 44.9079233,-31.6216596 44.8951254,-31.6129815 44.8827739,-31.6036415 44.8708951,-31.5936582 44.8595517,-31.5830867 44.8487792,-31.571968 44.8385936,-31.5603276 44.829011,-31.5481908 44.8200475,-31.535583 44.8117192,-31.5225296 44.8040421,-31.5090559 44.7970364,-31.4951958 44.7907326,-31.4810137 44.7851417,-31.4665425 44.7802719,-31.4518109 44.7761317,-31.4368473 44.7727318,-31.4216923 44.7700824,-31.4064001 44.7681866,-31.3910008 44.7670471,-31.3755239 44.7666667,-31.3599989 44.7666667,-30.6z"
       transform="matrix(1,0,0,-1,67.1,2.7)"
       fill="rgb(255,255,255)"
       stroke="rgb(0,0,0)"
       stroke-width="0.0010cm"
       stroke-linecap="round"
       stroke-linejoin="round"
       id="path1360"
       style="fill:none;stroke:#000000;stroke-opacity:1;stroke-width:0.1;stroke-dasharray:none" /></g></svg>
