<?xml version="1.0" encoding="utf-8"?>
<!-- Generator: Fusion 360, Shaper Origin Export Add-In, Version 1.8.0  -->
<svg xmlns="http://www.w3.org/2000/svg" xmlns:xlink="http://www.w3.org/1999/xlink" xmlns:shaper="http://www.shapertools.com/namespaces/shaper" shaper:fusionaddin="version:1.8.0" width="121cm" height="36cm" version="1.1" x="0cm" y="0cm" viewBox="0 0 121 36" enable-background="new 0 0 121 36" xml:space="preserve"><path d="M-60.5558385,-34.1461602 A1.4,1.4 180 0,1 -59.1558385,-35.5461602 L59.0441615,-35.5461602 A1.4,1.4 270 0,1 60.4441615,-34.1461602 L60.4441615,-0.9461602 A1.4,1.4 0 0,1 59.0441615,0.4538398 L-59.1558385,0.4538398 A1.4,1.4 90 0,1 -60.5558385,-0.9461602 L-60.5558385,-34.1461602z" transform="matrix(1,0,0,-1,60.5558385,0.4538398)" fill="rgb(0,0,0)" stroke-linecap="round" stroke-linejoin="round" /><path d="M57.5491615,-2.0461602 a0.395,0.395 0 1,1 0.79,0 a0.395,0.395 0 1,1 -0.79,0z" transform="matrix(1,0,0,-1,60.5558385,0.4538398)" fill="rgb(255,255,255)" stroke="rgb(0,0,0)" stroke-width="0.0010cm" stroke-linecap="round" stroke-linejoin="round" /><path d="M19.7158282,-2.0461602 a0.395,0.395 0 1,1 0.79,0 a0.395,0.395 0 1,1 -0.79,0z" transform="matrix(1,0,0,-1,60.5558385,0.4538398)" fill="rgb(255,255,255)" stroke="rgb(0,0,0)" stroke-width="0.0010cm" stroke-linecap="round" stroke-linejoin="round" /><path d="M19.7158282,-33.0461602 a0.395,0.395 0 1,1 0.79,0 a0.395,0.395 0 1,1 -0.79,0z" transform="matrix(1,0,0,-1,60.5558385,0.4538398)" fill="rgb(255,255,255)" stroke="rgb(0,0,0)" stroke-width="0.0010cm" stroke-linecap="round" stroke-linejoin="round" /><path d="M-58.4508385,-2.0461602 a0.395,0.395 0 1,1 0.79,0 a0.395,0.395 0 1,1 -0.79,0z" transform="matrix(1,0,0,-1,60.5558385,0.4538398)" fill="rgb(255,255,255)" stroke="rgb(0,0,0)" stroke-width="0.0010cm" stroke-linecap="round" stroke-linejoin="round" /><path d="M-20.6175051,-33.0461602 a0.395,0.395 0 1,1 0.79,0 a0.395,0.395 0 1,1 -0.79,0z" transform="matrix(1,0,0,-1,60.5558385,0.4538398)" fill="rgb(255,255,255)" stroke="rgb(0,0,0)" stroke-width="0.0010cm" stroke-linecap="round" stroke-linejoin="round" /><path d="M57.5491615,-33.0461602 a0.395,0.395 0 1,1 0.79,0 a0.395,0.395 0 1,1 -0.79,0z" transform="matrix(1,0,0,-1,60.5558385,0.4538398)" fill="rgb(255,255,255)" stroke="rgb(0,0,0)" stroke-width="0.0010cm" stroke-linecap="round" stroke-linejoin="round" /><path d="M-20.6175051,-2.0461602 a0.395,0.395 0 1,1 0.79,0 a0.395,0.395 0 1,1 -0.79,0z" transform="matrix(1,0,0,-1,60.5558385,0.4538398)" fill="rgb(255,255,255)" stroke="rgb(0,0,0)" stroke-width="0.0010cm" stroke-linecap="round" stroke-linejoin="round" /><path d="M-58.4508385,-33.0461602 a0.395,0.395 0 1,1 0.79,0 a0.395,0.395 0 1,1 -0.79,0z" transform="matrix(1,0,0,-1,60.5558385,0.4538398)" fill="rgb(255,255,255)" stroke="rgb(0,0,0)" stroke-width="0.0010cm" stroke-linecap="round" stroke-linejoin="round" /><path d="M-43.984649,-34.1951306 L-43.984649,-34.1951306 -44.4011114,-34.1738407 -44.81757,-34.1513431 -44.81757,-34.1513431 -45.2040575,-34.1292999 -45.5891718,-34.1061336 -45.5891718,-34.1061336 -45.9079875,-34.0859818 -45.9079875,-34.0859818 -46.0588142,-34.0761241 -46.2083552,-34.0661372 -46.3566165,-34.0560194 -46.5036044,-34.045769 -46.6493249,-34.0353844 -46.7937843,-34.024864 -46.9369886,-34.0142062 -47.0789439,-34.0034092 -47.2196565,-33.9924715 -47.3591325,-33.9813915 -47.497378,-33.9701674 -47.6343991,-33.9587977 -47.770202,-33.9472807 -47.9047928,-33.9356148 -48.0381777,-33.9237983 -48.1703628,-33.9118297 -48.3013543,-33.8997072 -48.4311582,-33.8874292 -48.5597807,-33.8749942 -48.6872281,-33.8624004 -48.8135063,-33.8496462 -48.9386216,-33.83673 -49.06258,-33.8236502 -49.1853878,-33.8104051 -49.307051,-33.796993 -49.4275759,-33.7834124 -49.5469684,-33.7696616 -49.6652349,-33.7557389 -49.7823814,-33.7416428 -49.8984141,-33.7273716 -50.013339,-33.7129236 -50.1271624,-33.6982972 -50.2398904,-33.6834909 -50.3515291,-33.6685028 -50.4620847,-33.6533315 -50.5715632,-33.6379752 -50.679971,-33.6224324 -50.7873139,-33.6067013 -50.8935984,-33.5907805 -50.9988303,-33.5746681 -51.103016,-33.5583626 -51.2061615,-33.5418624 -51.308273,-33.5251657 -51.4093567,-33.5082711 -51.5094185,-33.4911768 -51.6084648,-33.4738812 -51.7065016,-33.4563826 -51.8035351,-33.4386795 -51.8995715,-33.4207701 -51.9946167,-33.4026529 -52.0886771,-33.3843262 -52.1817587,-33.3657884 -52.2738677,-33.3470379 -52.3650103,-33.3280729 -52.4551924,-33.3088919 -52.5444204,-33.2894933 -52.6327003,-33.2698753 -52.7200383,-33.2500364 -52.8064405,-33.2299748 -52.8919131,-33.2096891 -52.9764622,-33.1891775 -53.0600939,-33.1684385 -53.1428297,-33.1474671 -53.2246938,-33.1262579 -53.3056925,-33.1048085 -53.3858321,-33.083117 -53.4651189,-33.061181 -53.5435594,-33.0389985 -53.6211599,-33.0165673 -53.6979266,-32.9938851 -53.773866,-32.97095 -53.8489843,-32.9477596 -53.923288,-32.9243118 -53.9967834,-32.9006045 -54.0694768,-32.8766355 -54.1413745,-32.8524027 -54.2124829,-32.8279038 -54.2828084,-32.8031367 -54.3523572,-32.7780993 -54.4211358,-32.7527893 -54.4891505,-32.7272047 -54.5564075,-32.7013433 -54.6229133,-32.6752028 -54.6886742,-32.6487812 -54.7536966,-32.6220762 -54.8179867,-32.5950858 -54.8815509,-32.5678077 -54.9443956,-32.5402398 -55.0065272,-32.5123799 -55.0679518,-32.4842258 -55.128676,-32.4557755 -55.188706,-32.4270266 -55.2480482,-32.3979772 -55.3067089,-32.3686249 -55.3646945,-32.3389677 -55.4220112,-32.3090034 -55.4786656,-32.2787298 -55.5346638,-32.2481447 -55.5900122,-32.217246 -55.6447172,-32.1860316 -55.6987852,-32.1544992 -55.7522692,-32.1226179 -55.805292,-32.0903102 -55.8578597,-32.0575666 -55.9099727,-32.024381 -55.9616313,-31.9907475 -56.0128357,-31.95666 -56.0635863,-31.9221126 -56.1138833,-31.8870993 -56.1637271,-31.851614 -56.2131179,-31.8156508 -56.2620561,-31.7792038 -56.3105418,-31.7422668 -56.3585755,-31.704834 -56.4061574,-31.6668993 -56.4532879,-31.6284567 -56.4999671,-31.5895002 -56.5461954,-31.5500239 -56.5919731,-31.5100218 -56.6373005,-31.4694878 -56.6821778,-31.428416 -56.7266055,-31.3868003 -56.7705837,-31.3446348 -56.8141127,-31.3019136 -56.8571929,-31.2586305 -56.8998246,-31.2147797 -56.942008,-31.170355 -56.9837434,-31.1253506 -57.0250312,-31.0797604 -57.0658716,-31.0335785 -57.1062649,-30.9867988 -57.1462114,-30.9394153 -57.1857114,-30.8914221 -57.2247652,-30.8428133 -57.2633616,-30.7936004 -57.3014929,-30.7437924 -57.3391618,-30.693383 -57.3763713,-30.642366 -57.4131242,-30.5907353 -57.4494233,-30.5384846 -57.4852715,-30.4856077 -57.5206715,-30.4320984 -57.5556263,-30.3779506 -57.5901386,-30.3231579 -57.6242113,-30.2677142 -57.6578472,-30.2116133 -57.6910492,-30.1548489 -57.7238201,-30.0974149 -57.7561627,-30.0393051 -57.7880798,-29.9805132 -57.8195743,-29.9210331 -57.8506491,-29.8608585 -57.8813069,-29.7999833 -57.9115506,-29.7384011 -57.941383,-29.6761059 -57.970807,-29.6130914 -57.9998254,-29.5493514 -58.028441,-29.4848797 -58.0566567,-29.4196701 -58.0844753,-29.3537164 -58.1118996,-29.2870123 -58.1389325,-29.2195517 -58.1655768,-29.1513284 -58.1918353,-29.0823361 -58.2177108,-29.0125687 -58.2432063,-28.9420199 -58.2683245,-28.8706835 -58.2930683,-28.7985534 -58.3174405,-28.7256233 -58.3414439,-28.651887 -58.3650814,-28.5773383 -58.3883558,-28.501971 -58.41127,-28.4257789 -58.4338318,-28.348738 -58.4560739,-28.2707332 -58.4780025,-28.1917344 -58.4996185,-28.1117292 -58.5209231,-28.030705 -58.5419172,-27.9486494 -58.5626017,-27.86555 -58.5829778,-27.7813941 -58.6030465,-27.6961694 -58.6228087,-27.6098634 -58.6422654,-27.5224635 -58.6614177,-27.4339574 -58.6802666,-27.3443325 -58.698813,-27.2535763 -58.7170581,-27.1616764 -58.7350027,-27.0686204 -58.7526479,-26.9743956 -58.7699948,-26.8789896 -58.7870442,-26.78239 -58.8037974,-26.6845843 -58.8202551,-26.58556 -58.8364185,-26.4853045 -58.8522886,-26.3838056 -58.8678663,-26.2810505 -58.8831527,-26.177027 -58.8981488,-26.0717224 -58.9128556,-25.9651243 -58.927274,-25.8572203 -58.9414052,-25.7479979 -58.9552502,-25.6374445 -58.9688098,-25.5255477 -58.9820852,-25.412295 -58.9950774,-25.297674 -59.0077873,-25.1816721 -59.0202159,-25.0642769 -59.0323644,-24.9454759 -59.0442336,-24.8252567 -59.0558246,-24.7036066 -59.0671385,-24.5805133 -59.0781761,-24.4559643 -59.0889386,-24.3299471 -59.0994269,-24.2024493 -59.109642,-24.0734582 -59.119585,-23.9429615 -59.1292568,-23.8109467 -59.1386585,-23.6774013 -59.1477911,-23.5423129 -59.1566555,-23.4056688 -59.1652529,-23.2674568 -59.1735842,-23.1276642 -59.1816503,-22.9862786 -59.1894524,-22.8432876 -59.1969914,-22.6986786 -59.2042684,-22.5524391 -59.2112843,-22.4045568 -59.2180401,-22.255019 -59.224537,-22.1038134 -59.2307758,-21.9509274 -59.2367575,-21.7963486 -59.2424833,-21.6400645 -59.2479541,-21.4820626 -59.2531709,-21.3223304 -59.2581347,-21.1608554 -59.2628465,-20.9976253 -59.2673074,-20.8326274 -59.2715183,-20.6658493 -59.2754802,-20.4972786 -59.2791943,-20.3269027 -59.2826614,-20.1547092 -59.2858826,-19.9806855 -59.2888588,-19.8048193 -59.2915912,-19.627098 -59.2940807,-19.4475092 -59.2963283,-19.2660403 -59.298335,-19.082679 -59.3001019,-18.8974126 -59.3016299,-18.7102288 -59.30292,-18.521115 -59.3039734,-18.3300588 -59.3047909,-18.1370477 -59.3053735,-17.9420693 -59.3057224,-17.7451109 -59.3058385,-17.5461602 -59.3058385,-17.5461602 -59.3057303,-17.354017 -59.305405,-17.1637433 -59.304862,-16.9753278 -59.3041002,-16.788759 -59.3031189,-16.6040255 -59.3019171,-16.4211157 -59.3004941,-16.2400182 -59.298849,-16.0607216 -59.2969808,-15.8832144 -59.2948889,-15.7074851 -59.2925722,-15.5335222 -59.29003,-15.3613143 -59.2872614,-15.19085 -59.2842655,-15.0221178 -59.2810416,-14.8551061 -59.2775886,-14.6898036 -59.2739059,-14.5261988 -59.2699924,-14.3642802 -59.2658475,-14.2040364 -59.2614701,-14.0454558 -59.2568595,-13.8885271 -59.2520148,-13.7332388 -59.2469352,-13.5795794 -59.2416198,-13.4275374 -59.2360677,-13.2771014 -59.2302781,-13.1282599 -59.2242501,-12.9810015 -59.2179829,-12.8353147 -59.2114756,-12.691188 -59.2047274,-12.54861 -59.1977374,-12.4075692 -59.1905047,-12.2680541 -59.1830286,-12.1300534 -59.1753081,-11.9935554 -59.1673424,-11.8585488 -59.1591306,-11.7250221 -59.1506719,-11.5929639 -59.1419655,-11.4623626 -59.1330104,-11.3332068 -59.1238058,-11.2054851 -59.1143509,-11.0791859 -59.1046448,-10.9542979 -59.0946867,-10.8308095 -59.0844756,-10.7087094 -59.0740108,-10.5879859 -59.0632914,-10.4686278 -59.0523165,-10.3506234 -59.0410853,-10.2339614 -59.0295969,-10.1186303 -59.0178505,-10.0046186 -59.0058452,-9.8919148 -58.9935802,-9.7805076 -58.9810546,-9.6703854 -58.9682675,-9.5615367 -58.9552181,-9.4539502 -58.9419056,-9.3476143 -58.928329,-9.2425176 -58.9144876,-9.1386486 -58.9003804,-9.0359959 -58.8860067,-8.9345479 -58.8713655,-8.8342934 -58.8564561,-8.7352206 -58.8412775,-8.6373183 -58.8258289,-8.540575 -58.8101094,-8.4449791 -58.7941183,-8.3505192 -58.7778545,-8.2571839 -58.7613174,-8.1649617 -58.744506,-8.0738411 -58.7274194,-7.9838107 -58.7100569,-7.894859 -58.6924175,-7.8069746 -58.6745005,-7.7201459 -58.6563049,-7.6343616 -58.6378299,-7.5496101 -58.6190746,-7.46588 -58.6000382,-7.3831599 -58.5807199,-7.3014382 -58.5611187,-7.2207035 -58.5412339,-7.1409444 -58.5210645,-7.0621494 -58.5005954,-6.9842521 -58.4798066,-6.9071751 -58.4586957,-6.8309121 -58.4372604,-6.755457 -58.4154983,-6.6808035 -58.3934071,-6.6069458 -58.3709845,-6.5338775 -58.3482282,-6.4615925 -58.3251357,-6.3900849 -58.3017049,-6.3193483 -58.2779332,-6.2493768 -58.2538185,-6.1801642 -58.2293583,-6.1117044 -58.2045504,-6.0439912 -58.1793923,-5.9770186 -58.1538818,-5.9107804 -58.1280166,-5.8452705 -58.1017942,-5.7804828 -58.0752124,-5.7164111 -58.0482688,-5.6530494 -58.0209611,-5.5903915 -57.9932869,-5.5284313 -57.9652439,-5.4671627 -57.9368299,-5.4065795 -57.9080423,-5.3466757 -57.878879,-5.2874451 -57.8493376,-5.2288816 -57.8194157,-5.1709792 -57.7891109,-5.1137315 -57.7584211,-5.0571327 -57.7273438,-5.0011764 -57.6958767,-4.9458567 -57.6640175,-4.8911674 -57.6317637,-4.8371023 -57.5991132,-4.7836553 -57.5660635,-4.7308205 -57.5326124,-4.6785915 -57.4987574,-4.6269623 -57.464492,-4.5759209 -57.4297966,-4.5254396 -57.394667,-4.4755117 -57.3591004,-4.4261328 -57.3230941,-4.3772985 -57.2866454,-4.3290045 -57.2497514,-4.2812463 -57.2124096,-4.2340197 -57.1746171,-4.1873201 -57.1363712,-4.1411433 -57.0976692,-4.0954848 -57.0585084,-4.0503402 -57.018886,-4.0057053 -56.9787993,-3.9615755 -56.9382456,-3.9179465 -56.8972221,-3.874814 -56.8557261,-3.8321735 -56.8137549,-3.7900207 -56.7713057,-3.7483511 -56.7283758,-3.7071605 -56.6849625,-3.6664443 -56.6410631,-3.6261983 -56.5966747,-3.5864181 -56.5517947,-3.5470992 -56.5064204,-3.5082373 -56.460549,-3.469828 -56.4141778,-3.4318669 -56.367304,-3.3943496 -56.3199249,-3.3572718 -56.2720379,-3.3206291 -56.2236401,-3.2844171 -56.1747288,-3.2486314 -56.1253013,-3.2132676 -56.0753549,-3.1783213 -56.0248868,-3.1437882 -55.973894,-3.1096638 -55.9223242,-3.0759104 -55.8701337,-3.0424995 -55.8173165,-3.0094287 -55.7638662,-2.9766959 -55.7097766,-2.9442986 -55.6550416,-2.9122346 -55.599655,-2.8805014 -55.5436105,-2.8490969 -55.486902,-2.8180185 -55.4295232,-2.7872641 -55.3714679,-2.7568313 -55.3127299,-2.7267177 -55.2533031,-2.6969211 -55.1931811,-2.6674391 -55.1323579,-2.6382694 -55.0708271,-2.6094097 -55.0085827,-2.5808575 -54.9456183,-2.5526107 -54.8819278,-2.5246669 -54.817505,-2.4970237 -54.7523436,-2.4696789 -54.6864375,-2.4426301 -54.6197805,-2.4158749 -54.5523662,-2.3894111 -54.4841887,-2.3632363 -54.4152415,-2.3373482 -54.3455186,-2.3117445 -54.2750137,-2.2864229 -54.2037206,-2.2613809 -54.1316331,-2.2366163 -54.058745,-2.2121269 -53.9850501,-2.1879101 -53.9105422,-2.1639638 -53.835215,-2.1402855 -53.7590625,-2.116873 -53.6820783,-2.093724 -53.6042562,-2.070836 -53.5255901,-2.0482069 -53.4460738,-2.0258342 -53.365701,-2.0037156 -53.2844655,-1.9818488 -53.2022993,-1.9602107 -53.1191085,-1.938773 -53.0348744,-1.9175347 -52.9495785,-1.8964948 -52.8632022,-1.8756524 -52.7757271,-1.8550066 -52.6871348,-1.8345565 -52.5974066,-1.814301 -52.5065243,-1.7942394 -52.4144691,-1.7743706 -52.3212228,-1.7546937 -52.2267668,-1.7352079 -52.1310825,-1.7159121 -52.0341516,-1.6968056 -51.9359556,-1.6778872 -51.8364759,-1.6591561 -51.7356941,-1.6406114 -51.6335917,-1.6222522 -51.5301502,-1.6040775 -51.4253511,-1.5860863 -51.319176,-1.5682779 -51.2116063,-1.5506511 -51.1026236,-1.5332052 -50.9922094,-1.5159391 -50.8803452,-1.4988521 -50.7670125,-1.481943 -50.6521929,-1.465211 -50.5358678,-1.4486552 -50.4180189,-1.4322747 -50.2986275,-1.4160685 -50.1776752,-1.4000356 -50.0551435,-1.3841752 -49.931014,-1.3684864 -49.8052681,-1.3529682 -49.6778874,-1.3376196 -49.5488534,-1.3224398 -49.4181477,-1.3074278 -49.2857516,-1.2925827 -49.1516468,-1.2779036 -49.0158147,-1.2633895 -48.8782369,-1.2490396 -48.7388949,-1.2348528 -48.5977702,-1.2208283 -48.4548443,-1.2069651 -48.3100988,-1.1932623 -48.1635151,-1.179719 -48.0150748,-1.1663343 -47.8647594,-1.1531072 -47.7125503,-1.1400367 -47.5584292,-1.1271221 -47.4023776,-1.1143623 -47.2443769,-1.1017563 -47.0844086,-1.0893034 -46.9224544,-1.0770026 -46.7584956,-1.0648528 -46.5925139,-1.0528533 -46.4244907,-1.041003 -46.2544076,-1.0293011 -46.082246,-1.0177466 -45.9079875,-1.0063386 -45.9079875,-1.0063386 -45.5891718,-0.9861869 -45.5891718,-0.9861869 -45.2040575,-0.9630205 -44.81757,-0.9409773 -44.81757,-0.9409773 -44.4011114,-0.9184797 -43.984649,-0.8971898 -43.984649,-0.8971898 -43.5861732,-0.8778699 -43.1891718,-0.8595733 -43.1891718,-0.8595733 -42.9018371,-0.8468879 -42.9018371,-0.8468879 -42.7501256,-0.8403701 -42.5971698,-0.8339206 -42.4429628,-0.8275393 -42.2874979,-0.8212256 -42.1307682,-0.8149792 -41.9727669,-0.8087997 -41.8134871,-0.8026868 -41.652922,-0.7966401 -41.4910648,-0.7906592 -41.3279087,-0.7847437 -41.1634468,-0.7788933 -40.9976723,-0.7731076 -40.8305785,-0.7673863 -40.6621583,-0.7617289 -40.4924051,-0.7561351 -40.321312,-0.7506045 -40.1488722,-0.7451367 -39.9750788,-0.7397314 -39.7999251,-0.7343883 -39.6234041,-0.7291068 -39.4455091,-0.7238868 -39.2662332,-0.7187277 -39.0855697,-0.7136292 -38.9035116,-0.708591 -38.7200522,-0.7036126 -38.5351846,-0.6986938 -38.348902,-0.6938341 -38.1611976,-0.6890332 -37.9720645,-0.6842906 -37.781496,-0.6796061 -37.5894851,-0.6749792 -37.3960251,-0.6704096 -37.3960251,-0.6704096 -37.0891718,-0.6633459 -37.0891718,-0.6633459 -36.489647,-0.6501683 -35.8890987,-0.6377449 -35.2885869,-0.6260452 -34.6891718,-0.6150385 -34.6891718,-0.6150385 -34.3942544,-0.6098555 -34.3942544,-0.6098555 -34.1543539,-0.6057476 -33.9125442,-0.6017022 -33.6688161,-0.597719 -33.4231603,-0.5937975 -33.1755677,-0.5899374 -32.926029,-0.5861382 -32.6745349,-0.5823995 -32.4210764,-0.578721 -32.1656441,-0.5751021 -31.9082289,-0.5715425 -31.6488215,-0.5680418 -31.3874128,-0.5645995 -31.1239934,-0.5612153 -30.8585543,-0.5578887 -30.5910861,-0.5546194 -30.3215798,-0.5514069 -30.0500259,-0.5482508 -29.7764155,-0.5451507 -29.5007391,-0.5421062 -29.2229877,-0.5391168 -28.9431519,-0.5361823 -28.6612227,-0.5333021 -28.3771907,-0.5304758 -28.0910467,-0.5277031 -27.8027816,-0.5249835 -27.5123861,-0.5223167 -27.2198511,-0.5197021 -26.9251672,-0.5171394 -26.6283253,-0.5146282 -26.3293162,-0.5121681 -26.0281306,-0.5097587 -25.7247594,-0.5073995 -25.7247594,-0.5073995 -25.4225051,-0.5051149 -25.4225051,-0.5051149 -24.2224752,-0.4966638 -23.0225051,-0.4891316 -23.0225051,-0.4891316 -22.7241961,-0.4873916 -22.7241961,-0.4873916 -22.5535148,-0.4864187 -22.3822079,-0.4854586 -22.3822079,-0.4854586 -22.3503225,-0.5208565 -22.3197078,-0.5574942 -22.2903055,-0.5952926 -22.2620573,-0.6341725 -22.2349013,-0.6740632 -22.2087636,-0.7149257 -22.1836039,-0.7566494 -22.1593873,-0.7991114 -22.1360788,-0.8421888 -22.1136437,-0.8857585 -22.0920469,-0.9296977 -22.0712537,-0.9738834 -22.0512292,-1.0181927 -22.0319384,-1.0625027 -21.9951959,-1.1511901 -21.9598317,-1.2415258 -21.9254548,-1.333428 -21.8917712,-1.4265896 -21.8584869,-1.5207031 -21.7919398,-1.7105568 -21.758089,-1.8056825 -21.7234612,-1.9005309 -21.6877625,-1.9947949 -21.6506988,-2.088167 -21.6119971,-2.1802932 -21.5919581,-2.2257585 -21.5714101,-2.2707825 -21.550315,-2.3153348 -21.5286346,-2.3593851 -21.5063306,-2.4029027 -21.4833648,-2.4458574 -21.4596991,-2.4882186 -21.4352952,-2.5299559 -21.4101148,-2.5710389 -21.3841199,-2.6114371 -21.3572721,-2.6511201 -21.3295333,-2.6900573 -21.3008652,-2.7282185 -21.2712785,-2.7655131 -21.2409015,-2.8017274 -21.2097192,-2.8368485 -21.1777038,-2.8708798 -21.1448276,-2.9038248 -21.111063,-2.9356869 -21.0763822,-2.9664697 -21.0407575,-2.9961765 -21.0041611,-3.0248108 -20.9665654,-3.052376 -20.9279427,-3.0788757 -20.8882651,-3.1043132 -20.8475051,-3.128692 A1.25,1.25 240 0,1 -19.5975051,-3.128692 L-19.5975051,-3.128692 -19.5541794,-3.1028407 -19.5119488,-3.075941 -19.4707958,-3.0479729 -19.4307024,-3.0189164 -19.3916509,-2.9887516 -19.3536235,-2.9574586 -19.3166024,-2.9250173 -19.2805699,-2.8914078 -19.2455082,-2.8566102 -19.2113994,-2.8206044 -19.1782259,-2.7833705 -19.1459698,-2.7448886 -19.1146252,-2.7051544 -19.0844315,-2.6645105 -19.055451,-2.623132 -19.0276335,-2.5810556 -19.0009291,-2.5383186 -18.9752877,-2.4949578 -18.9506592,-2.4510102 -18.9269937,-2.4065129 -18.904241,-2.3615027 -18.8823512,-2.3160169 -18.8612743,-2.2700922 -18.84096,-2.2237658 -18.8213586,-2.1770746 -18.8024162,-2.1300465 -18.7840757,-2.0826984 -18.7662892,-2.0350688 -18.7321878,-1.9391231 -18.6997317,-1.8425252 -18.6685404,-1.7455908 -18.6382336,-1.6486358 -18.6084307,-1.551976 -18.5787516,-1.4559271 -18.5488157,-1.360805 -18.5182426,-1.2669254 -18.486652,-1.1746042 -18.4703563,-1.1291266 -18.4536635,-1.084157 -18.4365261,-1.0397349 -18.4188966,-0.9958998 -18.4007243,-0.9526827 -18.381958,-0.9101178 -18.3625485,-0.8682477 -18.3424469,-0.8271147 -18.3216042,-0.7867616 -18.2999712,-0.7472307 -18.2774989,-0.7085646 -18.2541384,-0.6708059 -18.2298405,-0.633997 -18.2045563,-0.5981805 -18.1782366,-0.5633989 -18.1508739,-0.529745 -18.122489,-0.4973298 -18.0930416,-0.4661786 -18.0930416,-0.4661786 -17.2234476,-0.4632494 -17.2234476,-0.4632494 -16.9225051,-0.4623031 -16.9225051,-0.4623031 -14.5225051,-0.455901 -14.5225051,-0.455901 -14.2231458,-0.455236 -14.2231458,-0.455236 -13.685057,-0.45411 -13.1456245,-0.4530683 -12.6050011,-0.4521086 -12.0633788,-0.4512289 -11.5209494,-0.4504273 -10.977905,-0.4497018 -9.8907389,-0.4484706 -8.8034162,-0.4475193 -7.7174726,-0.4468317 -7.1754979,-0.4465818 -6.6344438,-0.4463917 -6.0945023,-0.4462594 -5.5558654,-0.446183 -5.5558654,-0.446183 -5.2558385,-0.4461638 -5.0558385,-0.4461602 -5.0558385,-0.4461602 -3.9558581,-0.4464989 -2.8558385,-0.4475414 -2.8558385,-0.4475414 -2.5554056,-0.447954 -2.5554056,-0.447954 -2.2169706,-0.4484864 -1.877561,-0.4490936 -1.5372317,-0.4497776 -1.1960376,-0.4505402 -0.8540334,-0.4513834 -0.5112741,-0.4523091 -0.1678145,-0.4533192 0.1762906,-0.4544158 0.8662179,-0.4568757 1.558069,-0.4597044 2.251405,-0.4629171 2.9457874,-0.4665295 2.9457874,-0.4665295 3.2441615,-0.4682071 3.2441615,-0.4682071 4.4441523,-0.4757498 5.6441615,-0.484639 5.6441615,-0.484639 5.9466236,-0.4871041 5.9466236,-0.4871041 6.4977446,-0.4918392 7.0478295,-0.4968881 7.5966575,-0.5022579 8.1440076,-0.5079551 8.6896589,-0.5139866 9.2333905,-0.5203591 9.7749813,-0.5270796 10.044905,-0.5305723 10.3142106,-0.5341546 10.5828706,-0.5378272 10.8508574,-0.541591 11.1181432,-0.5454469 11.3847006,-0.5493957 11.9160113,-0.5575828 12.182455,-0.5618508 12.4498462,-0.5662456 12.7181336,-0.5707699 12.9872657,-0.5754263 13.2571912,-0.5802173 13.5278587,-0.5851455 13.7992169,-0.5902136 14.0712145,-0.5954241 14.6169221,-0.6062828 14.6169221,-0.6062828 14.9108282,-0.6123613 14.9108282,-0.6123613 15.5105925,-0.625285 16.1108328,-0.6389452 16.7110708,-0.6533675 17.3108282,-0.6685777 17.3108282,-0.6685777 17.6188455,-0.6767128 17.6188455,-0.6767128 18.1089024,-0.6901266 18.1089024,-0.6901266 18.1306084,-0.7246975 18.1517219,-0.760014 18.1722717,-0.7960453 18.1922869,-0.8327608 18.2117963,-0.8701298 18.2308289,-0.9081216 18.2494135,-0.9467056 18.2675791,-0.985851 18.2853546,-1.0255272 18.3027689,-1.0657034 18.3366297,-1.1474334 18.3693928,-1.2307956 18.4012896,-1.3155443 18.4325514,-1.4014343 18.4634096,-1.4882199 18.5248407,-1.6634964 18.5874336,-1.8394101 18.6197442,-1.9269922 18.6530393,-2.0139972 18.6875502,-2.1001795 18.7234858,-2.1852439 18.7610461,-2.2688935 18.7805108,-2.310127 18.8004722,-2.3509342 18.8209604,-2.3912911 18.8420058,-2.4311735 18.8636385,-2.4705575 18.8858887,-2.5094188 18.9087866,-2.5477335 18.9323625,-2.5854775 18.9566466,-2.6226267 18.981669,-2.6591571 19.00746,-2.6950445 19.0340499,-2.7302648 19.061423,-2.7647378 19.0894694,-2.7982846 19.1182022,-2.8308963 19.1476433,-2.8625757 19.1778145,-2.8933255 19.2087377,-2.9231484 19.240435,-2.9520472 19.2729282,-2.9800245 19.3062391,-3.0070832 19.3403898,-3.0332259 19.3754022,-3.0584554 19.4112981,-3.0827745 19.4480994,-3.1061857 19.4858282,-3.128692 A1.25,1.25 240 0,1 20.7358282,-3.128692 L20.7358282,-3.128692 20.7722965,-3.1070465 20.8080587,-3.0846191 20.8431208,-3.0613939 20.8774886,-3.0373547 20.911168,-3.0124855 20.9441649,-2.9867703 20.9764851,-2.9601931 21.0081345,-2.9327378 21.0391189,-2.9043884 21.0694444,-2.8751288 21.0991166,-2.8449431 21.1281004,-2.8138605 21.1561919,-2.782118 21.1833862,-2.7497623 21.2097115,-2.7168057 21.2351959,-2.6832606 21.2598675,-2.6491391 21.2837546,-2.6144538 21.3068851,-2.5792169 21.3292873,-2.5434406 21.3509893,-2.5071374 21.3720191,-2.4703196 21.3924015,-2.433006 21.4121292,-2.3952792 21.4312224,-2.3571781 21.4497105,-2.3187246 21.4676233,-2.2799407 21.4849901,-2.2408485 21.5182046,-2.1618272 21.5495905,-2.0818367 21.5793843,-2.0010532 21.6078226,-1.9196528 21.6351419,-1.8378116 21.6615788,-1.7557058 21.7127514,-1.5914049 21.7632148,-1.4282177 21.7887436,-1.3475807 21.8147767,-1.2678561 21.8415444,-1.1892466 21.8692776,-1.1119545 21.8982069,-1.0361826 21.9285628,-0.9621333 21.9443478,-0.925818 21.9605761,-0.8900094 21.9772763,-0.8547327 21.9944773,-0.8200133 21.9944773,-0.8200133 22.1378022,-0.8257197 22.2805119,-0.8314752 22.422608,-0.8372797 22.5640921,-0.8431334 22.704966,-0.8490365 22.8452313,-0.8549891 22.9848896,-0.8609913 23.1239425,-0.8670433 23.1239425,-0.8670433 23.4108282,-0.8797728 23.4108282,-0.8797728 23.8027582,-0.8977082 24.195139,-0.9163179 24.195139,-0.9163179 24.6213133,-0.9373028 25.0474553,-0.9591261 25.0474553,-0.9591261 25.4293785,-0.9794306 25.8108282,-1.0004441 25.8108282,-1.0004441 26.127991,-1.0184973 26.127991,-1.0184973 26.2916603,-1.0280267 26.4543646,-1.0376474 26.6161079,-1.0473596 26.7768937,-1.0571637 26.9367258,-1.06706 27.0956079,-1.0770487 27.2535439,-1.0871301 27.4105373,-1.0973046 27.566592,-1.1075723 27.7217117,-1.1179337 27.8759001,-1.128389 28.0291609,-1.1389384 28.1814979,-1.1495824 28.3329148,-1.1603211 28.4834153,-1.1711548 28.6330032,-1.1820839 28.7816822,-1.1931087 28.9294561,-1.2042294 29.0763285,-1.2154463 29.2223032,-1.2267597 29.367384,-1.2381699 29.5115745,-1.2496773 29.6548785,-1.261282 29.7972998,-1.2729844 29.938842,-1.2847847 30.079509,-1.2966833 30.2193044,-1.3086805 30.3582319,-1.3207765 30.4962953,-1.3329716 30.6334984,-1.3452662 30.7698449,-1.3576605 30.9053384,-1.3701547 31.0399828,-1.3827493 31.1737817,-1.3954445 31.3067389,-1.4082405 31.4388582,-1.4211377 31.5701432,-1.4341364 31.7005977,-1.4472368 31.8302255,-1.4604392 31.9590302,-1.473744 32.0870156,-1.4871514 32.2141854,-1.5006617 32.3405434,-1.5142753 32.4660933,-1.5279923 32.5908388,-1.5418131 32.7147837,-1.5557379 32.8379317,-1.5697672 32.9602864,-1.5839011 33.0818518,-1.5981399 33.2026314,-1.612484 33.3226291,-1.6269336 33.4418485,-1.6414891 33.5602934,-1.6561506 33.6779675,-1.6709186 33.7948746,-1.6857932 33.9110184,-1.7007749 34.0264025,-1.7158638 34.1410309,-1.7310603 34.2549071,-1.7463646 34.3680349,-1.7617771 34.4804181,-1.777298 34.5920604,-1.7929276 34.7029655,-1.8086663 34.8131372,-1.8245143 34.8131372,-1.8245143 35.0774949,-1.8634328 35.0774949,-1.8634328 35.3775385,-1.9091891 35.6781864,-1.9568148 35.97913,-2.0063667 36.2800611,-2.0579021 36.5806715,-2.1114778 36.8806528,-2.167151 37.0303112,-2.195792 37.1796967,-2.2249787 37.3287708,-2.2547183 37.4774949,-2.2850178 37.4774949,-2.2850178 37.6486934,-2.3207 37.8197202,-2.3572345 37.8197202,-2.3572345 37.9136689,-2.3776931 38.0069366,-2.3982833 38.0995276,-2.4190057 38.1914462,-2.4398605 38.282716,-2.4608525 38.3733938,-2.4819937 38.4634849,-2.5032857 38.552992,-2.5247292 38.7302634,-2.5680736 38.9052272,-2.6120329 39.0779027,-2.6566131 39.2483092,-2.7018203 39.4164658,-2.7476604 39.5823919,-2.7941394 39.7461068,-2.8412633 39.9076297,-2.8890381 40.0669798,-2.9374699 40.2241765,-2.9865645 40.379239,-3.0363281 40.5321866,-3.0867666 40.6830385,-3.1378859 40.831814,-3.1896922 40.9785324,-3.2421914 41.1232128,-3.2953895 41.2658747,-3.3492924 41.4065373,-3.4039063 41.5452198,-3.459237 41.6819414,-3.5152906 41.8167215,-3.5720731 41.9495794,-3.6295905 42.0805342,-3.6878488 42.2096053,-3.746854 42.3368119,-3.806612 42.4621733,-3.8671289 42.5857087,-3.9284106 42.7074375,-3.9904633 42.8273788,-4.0532928 42.945552,-4.1169052 43.0619767,-4.1813066 43.17704,-4.2467195 43.2910591,-4.3133498 43.4040215,-4.3812207 43.5159146,-4.4503551 43.6267256,-4.5207762 43.736442,-4.592507 43.8450511,-4.6655706 43.9525403,-4.7399901 44.0588969,-4.8157885 44.1641084,-4.892989 44.268162,-4.9716145 44.3710451,-5.0516882 44.4727451,-5.1332331 44.5732494,-5.2162723 44.6725452,-5.3008289 44.7706201,-5.386926 44.8674613,-5.4745865 44.9630562,-5.5638337 45.0573922,-5.6546905 45.1504566,-5.74718 45.2422368,-5.8413253 45.3327201,-5.9371495 45.4218939,-6.0346756 45.5097457,-6.1339268 45.5962053,-6.2348526 45.6810542,-6.337195 45.7642841,-6.4409421 45.8459083,-6.5461089 45.9259398,-6.6527105 46.0043921,-6.7607617 46.0812782,-6.8702776 46.1566115,-6.981273 46.230405,-7.093763 46.3026722,-7.2077624 46.3734261,-7.3232863 46.4426801,-7.4403497 46.5104473,-7.5589674 46.576741,-7.6791544 46.6415743,-7.8009258 46.7049606,-7.9242964 46.766913,-8.0492812 46.8274448,-8.1758952 46.8865692,-8.3041533 46.9442994,-8.4340705 47.0006486,-8.5656618 47.0556301,-8.6989421 47.1092571,-8.8339263 47.1615429,-8.9706295 47.2125005,-9.1090665 47.2621434,-9.2492524 47.3104847,-9.3912021 47.3575467,-9.5349617 47.3806247,-9.6076056 47.4034058,-9.6807783 47.4258903,-9.7544834 47.4480786,-9.828724 47.4699711,-9.9035037 47.491568,-9.9788257 47.5128698,-10.0546935 47.5338767,-10.1311103 47.5545891,-10.2080796 47.5750073,-10.2856047 47.5951317,-10.363689 47.6149626,-10.4423358 47.6345003,-10.5215486 47.6537453,-10.6013306 47.6726978,-10.6816853 47.6913582,-10.7626159 47.7097268,-10.844126 47.7278039,-10.9262187 47.74559,-11.0088976 47.7630853,-11.0921659 47.7802902,-11.176027 47.797205,-11.2604843 47.8138301,-11.3455412 47.8301658,-11.4312009 47.8462125,-11.517467 47.8619704,-11.6043427 47.87744,-11.6918314 47.8926215,-11.7799364 47.9075154,-11.8686612 47.9221219,-11.9580091 47.9364414,-12.0479834 47.9504742,-12.1385876 47.9642208,-12.2298249 47.9776813,-12.3216988 47.9908562,-12.4142127 48.0037458,-12.5073697 48.0163505,-12.6011735 48.0286705,-12.6956272 48.0407063,-12.7907343 48.0524581,-12.8864982 48.0639264,-12.9829221 48.0751114,-13.0800095 48.0860134,-13.1777637 48.0966329,-13.2761881 48.1069702,-13.3752861 48.1170256,-13.475061 48.1267995,-13.5755162 48.1362921,-13.676655 48.1455039,-13.7784808 48.1544352,-13.880997 48.1630863,-13.9842069 48.1714575,-14.0881139 48.1795493,-14.1927214 48.1873618,-14.2980327 48.1948956,-14.4040512 48.2021509,-14.5107802 48.2091281,-14.6182232 48.2158274,-14.7263835 48.2222494,-14.8352644 48.2283942,-14.9448693 48.2342622,-15.0552016 48.2398538,-15.1662646 48.2451694,-15.2780617 48.2502091,-15.3905963 48.2549735,-15.5038717 48.2594628,-15.6178913 48.2636774,-15.7326585 48.2676176,-15.8481766 48.2712838,-15.9644489 48.2746763,-16.081479 48.2777954,-16.19927 48.2806415,-16.3178254 48.2832149,-16.4371486 48.285516,-16.5572428 48.2875451,-16.6781115 48.2893025,-16.7997581 48.2907886,-16.9221858 48.2920038,-17.0453981 48.2929483,-17.1693984 48.2936225,-17.2941899 48.2940268,-17.419776 48.2941615,-17.5461602 48.2941615,-17.5461602 48.2938044,-17.7528029 48.2927264,-17.9579154 48.290918,-18.1614978 48.2883693,-18.3635504 48.2850708,-18.5640734 48.2810127,-18.7630671 48.2761853,-18.9605318 48.2705789,-19.1564676 48.2641838,-19.3508749 48.2569903,-19.5437539 48.2489888,-19.7351048 48.2401694,-19.9249278 48.2305226,-20.1132233 48.2200387,-20.2999914 48.2087078,-20.4852324 48.1965203,-20.6689466 48.1834666,-20.8511342 48.1695369,-21.0317955 48.1547216,-21.2109306 48.1390108,-21.3885399 48.122395,-21.5646235 48.1048644,-21.7391818 48.0864094,-21.912215 48.0670202,-22.0837233 48.0466871,-22.2537069 48.0254004,-22.4221662 48.0031505,-22.5891014 47.9799276,-22.7545126 47.9557221,-22.9184002 47.9305242,-23.0807644 47.9043243,-23.2416055 47.8771125,-23.4009236 47.8488794,-23.5587191 47.819615,-23.7149922 47.7893099,-23.8697431 47.7579541,-24.0229721 47.7255381,-24.1746794 47.6920522,-24.3248653 47.6574866,-24.47353 47.6218317,-24.6206738 47.5850777,-24.7662969 47.5472149,-24.9103995 47.5082338,-25.0529819 47.4681245,-25.1940444 47.4268773,-25.3335872 47.3844826,-25.4716105 47.3409306,-25.6081146 47.2962118,-25.7430998 47.2503162,-25.8765662 47.2032344,-26.0085141 47.1549565,-26.1389439 47.1054728,-26.2678556 47.0547738,-26.3952496 47.0028321,-26.5211725 46.9495069,-26.645958 46.8947499,-26.7696692 46.8385373,-26.8923021 46.7808454,-27.013853 46.7216502,-27.1343181 46.660928,-27.2536935 46.598655,-27.3719753 46.5348073,-27.4891599 46.4693611,-27.6052434 46.4022926,-27.7202219 46.3335779,-27.8340917 46.2631934,-27.9468489 46.191115,-28.0584897 46.1173191,-28.1690103 46.0417818,-28.2784069 45.9644793,-28.3866757 45.8853878,-28.4938128 45.8044834,-28.5998144 45.7217423,-28.7046767 45.6371408,-28.8083959 45.5506549,-28.9109682 45.462261,-29.0123898 45.371935,-29.1126568 45.2796534,-29.2117654 45.1853921,-29.3097118 45.089144,-29.4064773 44.991019,-29.5019436 44.891027,-29.5960955 44.7891496,-29.6889448 44.6853684,-29.7805028 44.5796648,-29.8707812 44.4720205,-29.9597916 44.362417,-30.0475456 44.2508359,-30.1340547 44.1372587,-30.2193304 44.021667,-30.3033845 43.9040423,-30.3862284 43.7843663,-30.4678737 43.6626204,-30.548332 43.6009655,-30.5881196 43.5387862,-30.6276148 43.4760802,-30.6668191 43.4128453,-30.7057338 43.3490791,-30.7443605 43.2847793,-30.7827005 43.2199435,-30.8207554 43.1545696,-30.8585265 43.0886552,-30.8960154 43.0221979,-30.9332234 42.9551955,-30.970152 42.8876457,-31.0068027 42.8195462,-31.0431769 42.7508946,-31.079276 42.6816887,-31.1151016 42.6119261,-31.1506549 42.5416046,-31.1859376 42.4707218,-31.220951 42.3992755,-31.2556966 42.3272633,-31.2901758 42.2546829,-31.3243901 42.181532,-31.3583409 42.1078084,-31.3920297 42.0335097,-31.4254579 41.9586335,-31.4586269 41.8831661,-31.4915437 41.8070398,-31.5242389 41.7302395,-31.5567176 41.6527593,-31.5889807 41.5745935,-31.6210289 41.4957364,-31.6528629 41.4161822,-31.6844834 41.3359251,-31.7158911 41.2549594,-31.7470869 41.1732793,-31.7780714 41.0908791,-31.8088453 41.0077531,-31.8394094 40.9238954,-31.8697644 40.8393003,-31.899911 40.7539621,-31.92985 40.667875,-31.9595821 40.5810333,-31.9891081 40.4934311,-32.0184285 40.4050629,-32.0475443 40.3159227,-32.076456 40.2260048,-32.1051645 40.1353036,-32.1336705 40.0438132,-32.1619747 39.9515278,-32.1900778 39.8584418,-32.2179805 39.7645494,-32.2456837 39.6698448,-32.2731879 39.5743223,-32.300494 39.477976,-32.3276026 39.3808004,-32.3545146 39.2827895,-32.3812306 39.1839377,-32.4077514 39.0842392,-32.4340776 38.9836883,-32.46021 38.8822791,-32.4861494 38.780006,-32.5118965 38.6768631,-32.537452 38.5728448,-32.5628166 38.4679453,-32.5879911 38.3621588,-32.6129762 38.2554795,-32.6377726 38.1479018,-32.662381 38.0394198,-32.6868022 37.9300279,-32.7110369 37.8197202,-32.7350859 37.8197202,-32.7350859 37.6486934,-32.7716204 37.4774949,-32.8073026 37.4774949,-32.8073026 37.3287708,-32.8376022 37.1796967,-32.8673418 37.0303112,-32.8965285 36.8806528,-32.9251694 36.5806715,-32.9808426 36.2800611,-33.0344184 35.97913,-33.0859537 35.6781864,-33.1355057 35.3775385,-33.1831313 35.0774949,-33.2288876 35.0774949,-33.2288876 34.8131372,-33.2678062 34.8131372,-33.2678062 34.7020856,-33.2837799 34.5903169,-33.2996387 34.477828,-33.3153828 34.3646156,-33.3310127 34.2506765,-33.3465288 34.1360077,-33.3619314 34.020606,-33.3772208 33.904468,-33.3923976 33.7875908,-33.4074619 33.6699711,-33.4224143 33.5516058,-33.437255 33.4324916,-33.4519844 33.3126254,-33.466603 33.1920041,-33.481111 33.0706244,-33.495509 32.9484832,-33.5097971 32.8255773,-33.5239758 32.7019035,-33.5380456 32.5774588,-33.5520066 32.4522398,-33.5658594 32.3262434,-33.5796043 32.1994665,-33.5932416 32.0719059,-33.6067717 31.9435584,-33.6201951 31.8144208,-33.633512 31.68449,-33.6467229 31.5537628,-33.6598281 31.422236,-33.672828 31.2899065,-33.6857229 31.156771,-33.6985133 31.0228264,-33.7111995 30.8880696,-33.7237818 30.7524973,-33.7362607 30.6161064,-33.7486366 30.4788937,-33.7609097 30.3408561,-33.7730805 30.2019904,-33.7851493 30.0622933,-33.7971165 29.9217618,-33.8089825 29.7803926,-33.8207477 29.6381826,-33.8324124 29.4951286,-33.8439769 29.3512274,-33.8554418 29.206476,-33.8668073 29.060871,-33.8780737 28.9144093,-33.8892416 28.7670878,-33.9003112 28.6189032,-33.911283 28.4698525,-33.9221572 28.3199324,-33.9329343 28.1691398,-33.9436147 28.0174714,-33.9541986 27.8649242,-33.9646866 27.7114949,-33.9750789 27.5571804,-33.9853759 27.4019774,-33.995578 27.2458829,-34.0056856 27.0888937,-34.015699 26.9310065,-34.0256187 26.7722183,-34.0354449 26.6125258,-34.0451781 26.4519259,-34.0548186 26.2904153,-34.0643668 26.127991,-34.0738231 26.127991,-34.0738231 25.8108282,-34.0918763 25.8108282,-34.0918763 25.4293785,-34.1128899 25.0474553,-34.1331943 25.0474553,-34.1331943 24.6213133,-34.1550176 24.195139,-34.1760025 24.195139,-34.1760025 23.8027582,-34.1946122 23.4108282,-34.2125476 23.4108282,-34.2125476 23.1239425,-34.2252772 23.1239425,-34.2252772 22.855068,-34.2369111 22.5840175,-34.2483566 22.3107804,-34.259615 22.0353459,-34.2706875 22.0353459,-34.2706875 22.0168094,-34.2356751 21.9987052,-34.2000995 21.9810092,-34.1639863 21.963697,-34.1273614 21.9301279,-34.0526791 21.8978044,-33.9762581 21.8665334,-33.8983044 21.8361213,-33.8190234 21.8063748,-33.738621 21.7771005,-33.657303 21.7191954,-33.4927425 21.6608589,-33.3269879 21.6310455,-33.2441771 21.6005442,-33.1616849 21.5691616,-33.079717 21.5367044,-32.9984792 21.5029951,-32.9182123 21.4678712,-32.8391767 21.4311319,-32.7615367 21.4120933,-32.7232904 21.3925751,-32.6854533 21.3725519,-32.6480457 21.3519986,-32.6110876 21.3308898,-32.5745992 21.3092004,-32.5386005 21.2869049,-32.5031118 21.2639783,-32.4681532 21.2403951,-32.4337448 21.2161301,-32.3999067 21.1911582,-32.366659 21.1654779,-32.3340519 21.1391935,-32.3022538 21.1123047,-32.2712863 21.0847932,-32.2411471 21.0566407,-32.2118339 21.0278288,-32.1833443 20.9983393,-32.1556762 20.9681538,-32.1288272 20.937254,-32.1027951 20.9056215,-32.0775776 20.8732381,-32.0531723 20.8400853,-32.029577 20.806145,-32.0067895 20.7713987,-31.9848074 20.7358282,-31.9636285 A1.25,1.25 60 0,1 19.4858282,-31.9636285 L19.4858282,-31.9636285 19.4470606,-31.9866793 19.4091289,-32.0105916 19.3720231,-32.0353824 19.3357335,-32.0610686 19.3002502,-32.0876671 19.2655633,-32.1151949 19.2316629,-32.1436687 19.1985393,-32.1731056 19.1661825,-32.2035225 19.1345828,-32.2349362 19.1037302,-32.2673638 19.0736148,-32.300822 19.0442799,-32.3352637 19.0159475,-32.3703959 18.9886132,-32.4061623 18.9622417,-32.4425417 18.9367977,-32.4795132 18.912246,-32.5170557 18.8885512,-32.5551481 18.8656781,-32.5937693 18.8435913,-32.6328983 18.8222557,-32.6725139 18.8016359,-32.7125952 18.7816966,-32.7531211 18.7624043,-32.7940667 18.7437368,-32.8353804 18.7256622,-32.8770289 18.7081457,-32.9189846 18.6746479,-33.0037072 18.6429653,-33.0893271 18.6128201,-33.1756234 18.583934,-33.262375 18.5560291,-33.3493609 18.5288273,-33.4363602 18.4754211,-33.6095147 18.4486606,-33.6952279 18.421491,-33.7800704 18.3936339,-33.8638233 18.3647983,-33.9463091 18.3346983,-34.0272987 18.3190863,-34.0671529 18.3030529,-34.1065376 18.2865629,-34.1454208 18.2695812,-34.1837708 18.2520726,-34.2215558 18.2340022,-34.2587439 18.2153347,-34.2953032 18.196035,-34.331202 18.176068,-34.3664083 18.1553986,-34.4008904 18.1553986,-34.4008904 17.6188455,-34.4156076 17.6188455,-34.4156076 17.3108282,-34.4237428 17.3108282,-34.4237428 16.7110708,-34.4389529 16.1108328,-34.4533752 15.5105925,-34.4670354 14.9108282,-34.4799592 14.9108282,-34.4799592 14.6169221,-34.4860377 14.6169221,-34.4860377 14.0713685,-34.4968933 13.7994634,-34.5021021 13.5282082,-34.5071684 13.2576542,-34.5120948 12.9878531,-34.5168838 12.7188564,-34.5215382 12.4507155,-34.5260603 12.183482,-34.530453 11.9172074,-34.5347187 11.3859134,-34.5429065 11.1192811,-34.5468567 10.8519216,-34.550714 10.5838625,-34.5544792 10.3151316,-34.5581532 10.0457564,-34.5617367 9.7757647,-34.5652306 9.234042,-34.5719532 8.6901848,-34.5783277 8.1444143,-34.5843608 7.5969517,-34.5900595 7.0480182,-34.5954305 6.4978351,-34.6004805 5.9466236,-34.6052163 5.9466236,-34.6052163 5.6441615,-34.6076814 5.6441615,-34.6076814 4.4441523,-34.6165707 3.2441615,-34.6241134 3.2441615,-34.6241134 2.9457874,-34.625791 2.9457874,-34.625791 2.2513468,-34.6294036 1.5579679,-34.6326165 0.86609,-34.6354452 0.1761525,-34.6379051 -0.1679512,-34.6390016 -0.5114051,-34.6400117 -0.8541542,-34.6409374 -1.1961436,-34.6417805 -1.5373183,-34.642543 -1.8776235,-34.6432269 -2.2170043,-34.6438341 -2.5554056,-34.6443664 -2.5554056,-34.6443664 -2.8558385,-34.644779 -2.8558385,-34.644779 -3.9558581,-34.6458215 -5.0558385,-34.6461602 -5.2558385,-34.6461566 -5.2558385,-34.6461566 -5.5558654,-34.6461375 -5.5558654,-34.6461375 -6.0945374,-34.646061 -6.6345085,-34.6459288 -7.1755869,-34.6457386 -7.7175807,-34.6454887 -8.8035473,-34.644801 -9.8908735,-34.6438497 -10.9780246,-34.6426185 -11.5210549,-34.641893 -12.0634659,-34.6410914 -12.6050657,-34.6402118 -13.1456626,-34.6392521 -13.6850646,-34.6382104 -14.2231458,-34.6370844 -14.2231458,-34.6370844 -14.5225051,-34.6364194 -14.5225051,-34.6364194 -16.9225051,-34.6300173 -16.9225051,-34.6300173 -17.2234476,-34.629071 -17.2234476,-34.629071 -18.0441729,-34.6263144 -18.0441729,-34.6263144 -18.074526,-34.5941623 -18.1037765,-34.5608663 -18.1319706,-34.5264842 -18.1591545,-34.4910739 -18.1853747,-34.4546928 -18.2107178,-34.417338 -18.235253,-34.3790174 -18.2590215,-34.3397754 -18.2820646,-34.2996565 -18.3044235,-34.2587051 -18.3261395,-34.2169656 -18.3472538,-34.1744825 -18.3678075,-34.1313003 -18.387842,-34.0874633 -18.4073985,-34.0430161 -18.4265186,-33.9980021 -18.4452481,-33.9524504 -18.4636287,-33.9063981 -18.4995026,-33.8129565 -18.5344594,-33.7180076 -18.5688183,-33.6218819 -18.6370186,-33.4274216 -18.6714983,-33.329748 -18.7066563,-33.2322192 -18.742812,-33.1351657 -18.7802843,-33.0389179 -18.819386,-32.9438209 -18.8396268,-32.8968519 -18.8603772,-32.8503265 -18.8816785,-32.8042777 -18.9035721,-32.7587385 -18.9260993,-32.7137418 -18.9493015,-32.6693206 -18.97322,-32.6255078 -18.9978963,-32.5823364 -19.0233716,-32.5398393 -19.0496873,-32.4980494 -19.0768847,-32.4569998 -19.1050053,-32.4167234 -19.1340904,-32.377253 -19.1641683,-32.3386379 -19.1951081,-32.3011118 -19.2268881,-32.2647391 -19.2595385,-32.2295161 -19.2930892,-32.1954391 -19.3275702,-32.1625043 -19.3630115,-32.1307079 -19.3994431,-32.1000463 -19.4368949,-32.0705157 -19.4753971,-32.0421123 -19.5149795,-32.0148325 -19.5556722,-31.9886724 -19.5975051,-31.9636285 A1.25,1.25 60 0,1 -20.8475051,-31.9636285 L-20.8475051,-31.9636285 -20.8902955,-31.9891498 -20.9320348,-32.0157045 -20.972739,-32.0433132 -21.0124238,-32.0719963 -21.051105,-32.1017744 -21.0887984,-32.1326679 -21.1255198,-32.1646975 -21.161285,-32.1978835 -21.1961098,-32.2322465 -21.2300101,-32.267807 -21.2630015,-32.3045855 -21.2951,-32.3426026 -21.3262317,-32.3817619 -21.3561539,-32.4217015 -21.3848951,-32.4623642 -21.4125034,-32.5037167 -21.439027,-32.5457258 -21.4645141,-32.5883581 -21.4890127,-32.6315804 -21.512571,-32.6753594 -21.5352371,-32.7196619 -21.5570591,-32.7644545 -21.5780853,-32.809704 -21.5983636,-32.8553772 -21.6179439,-32.9014463 -21.6368786,-32.9478956 -21.6552143,-32.9946872 -21.6729968,-33.0417818 -21.707086,-33.1367215 -21.7395134,-33.2323982 -21.7706463,-33.3284953 -21.800852,-33.4246965 -21.8599505,-33.6161451 -21.8895778,-33.7107595 -21.9197468,-33.8042122 -21.9508248,-33.8961865 -21.9668194,-33.9415205 -21.9831789,-33.9863661 -21.9999493,-34.030684 -22.0171797,-34.0744444 -22.0349236,-34.117626 -22.0532287,-34.160188 -22.0721427,-34.2020886 -22.0917133,-34.2432864 -22.111988,-34.2837397 -22.1330147,-34.3234069 -22.1548409,-34.3622465 -22.1775142,-34.4002169 -22.2010825,-34.4372764 -22.2255932,-34.4733836 -22.2510938,-34.5084964 -22.2775985,-34.5425299 -22.3051281,-34.5754185 -22.3337265,-34.6071306 -22.3337265,-34.6071306 -22.7241961,-34.6049288 -22.7241961,-34.6049288 -23.0225051,-34.6031889 -23.0225051,-34.6031889 -24.2224752,-34.5956567 -25.4225051,-34.5872055 -25.4225051,-34.5872055 -25.7247594,-34.584921 -25.7247594,-34.584921 -26.0084693,-34.582717 -26.2915525,-34.5804594 -26.5739891,-34.5781469 -26.8557593,-34.5757786 -27.1368434,-34.5733534 -27.4172213,-34.5708701 -27.6968734,-34.5683278 -27.9757797,-34.5657254 -28.2539205,-34.5630619 -28.5312759,-34.560336 -28.8078261,-34.5575469 -29.0835513,-34.5546934 -29.3584316,-34.5517744 -29.6324471,-34.548789 -29.9055782,-34.5457359 -30.1778048,-34.5426143 -30.4491073,-34.5394229 -30.7194657,-34.5361608 -30.9888603,-34.5328268 -31.2572711,-34.52942 -31.5246785,-34.5259392 -31.7910624,-34.5223834 -32.0564032,-34.5187515 -32.320681,-34.5150424 -32.5838759,-34.5112552 -32.8459681,-34.5073886 -33.1069378,-34.5034417 -33.3667651,-34.4994134 -33.6254303,-34.4953027 -33.8829134,-34.4911084 -34.1391948,-34.4868295 -34.3942544,-34.4824649 -34.3942544,-34.4824649 -34.6891718,-34.4772819 -34.6891718,-34.4772819 -35.2885869,-34.4662752 -35.8890987,-34.4545755 -36.489647,-34.4421522 -37.0891718,-34.4289745 -37.0891718,-34.4289745 -37.3960251,-34.4219109 -37.3960251,-34.4219109 -37.5842369,-34.4174656 -37.7715055,-34.4129542 -37.9578208,-34.4083764 -38.143173,-34.403732 -38.3275522,-34.3990205 -38.5109485,-34.3942418 -38.693352,-34.3893956 -38.8747529,-34.3844815 -39.0551411,-34.3794992 -39.2345069,-34.3744485 -39.4128403,-34.3693291 -39.5901314,-34.3641407 -39.7663704,-34.358883 -39.9415473,-34.3535557 -40.1156522,-34.3481585 -40.2886753,-34.3426912 -40.4606066,-34.3371534 -40.6314363,-34.3315448 -40.8011544,-34.3258651 -40.9697511,-34.3201142 -41.1372164,-34.3142916 -41.3035406,-34.3083971 -41.4687136,-34.3024304 -41.6327255,-34.2963912 -41.7955666,-34.2902791 -41.9572269,-34.2840941 -42.1176964,-34.2778356 -42.2769653,-34.2715035 -42.4350237,-34.2650974 -42.5918618,-34.2586171 -42.7474695,-34.2520622 -42.9018371,-34.2454326 -42.9018371,-34.2454326 -43.1891718,-34.2327472 -43.1891718,-34.2327472 -43.5861732,-34.2144506 -43.984649,-34.1951306z" transform="matrix(1,0,0,-1,60.5558385,0.4538398)" fill="rgb(255,255,255)" stroke="rgb(0,0,0)" stroke-width="0.0010cm" stroke-linecap="round" stroke-linejoin="round" /></svg>