<?xml version="1.0" encoding="UTF-8" standalone="no"?>
<!-- Generator: Fusion 360, Shaper Origin Export Add-In, Version 1.8.0  -->

<svg
   shaper:fusionaddin="version:1.8.0"
   width="128cm"
   height="36cm"
   version="1.1"
   x="0cm"
   y="0cm"
   viewBox="0 0 128 36"
   enable-background="new 0 0 128 36"
   xml:space="preserve"
   id="svg18695"
   sodipodi:docname="corpus_5_Faces.svg"
   inkscape:version="1.2.2 (732a01da63, 2022-12-09)"
   xmlns:inkscape="http://www.inkscape.org/namespaces/inkscape"
   xmlns:sodipodi="http://sodipodi.sourceforge.net/DTD/sodipodi-0.dtd"
   xmlns="http://www.w3.org/2000/svg"
   xmlns:svg="http://www.w3.org/2000/svg"
   xmlns:shaper="http://www.shapertools.com/namespaces/shaper"><defs
     id="defs18699" /><sodipodi:namedview
     id="namedview18697"
     pagecolor="#505050"
     bordercolor="#eeeeee"
     borderopacity="1"
     inkscape:showpageshadow="0"
     inkscape:pageopacity="0"
     inkscape:pagecheckerboard="0"
     inkscape:deskcolor="#505050"
     inkscape:document-units="cm"
     showgrid="false"
     inkscape:zoom="0.27078451"
     inkscape:cx="2306.2619"
     inkscape:cy="681.35361"
     inkscape:window-width="1920"
     inkscape:window-height="991"
     inkscape:window-x="-9"
     inkscape:window-y="-9"
     inkscape:window-maximized="1"
     inkscape:current-layer="svg18695" /><g
     id="g18828"
     style="fill:none;stroke:#000000;stroke-opacity:1;stroke-width:0.1;stroke-dasharray:none"><path
       d="M62.5095102,-0.3840812 A1.4,1.4 270 0,1 63.9095102,1.0159188 L63.9095102,34.2159188 A1.4,1.4 0 0,1 62.5095102,35.6159188 L-62.6904898,35.6159188 A1.4,1.4 90 0,1 -64.0904898,34.2159188 L-64.0904898,1.0159188 A1.4,1.4 180 0,1 -62.6904898,-0.3840812 L62.5095102,-0.3840812z"
       transform="matrix(1,0,0,-1,64.0904898,35.6159188)"
       fill="rgb(0,0,0)"
       stroke-linecap="round"
       stroke-linejoin="round"
       id="path18675"
       style="fill:none;stroke:#000000;stroke-opacity:1;stroke-width:0.1;stroke-dasharray:none" /><path
       d="M20.8328435,2.1159188 a0.41,0.41 0 1,1 0.82,0 a0.41,0.41 0 1,1 -0.82,0z"
       transform="matrix(1,0,0,-1,64.0904898,35.6159188)"
       fill="rgb(255,255,255)"
       stroke="rgb(0,0,0)"
       stroke-width="0.0010cm"
       stroke-linecap="round"
       stroke-linejoin="round"
       id="path18677"
       style="fill:none;stroke:#000000;stroke-opacity:1;stroke-width:0.1;stroke-dasharray:none" /><path
       d="M-62.0004898,2.1159188 a0.41,0.41 0 1,1 0.82,0 a0.41,0.41 0 1,1 -0.82,0z"
       transform="matrix(1,0,0,-1,64.0904898,35.6159188)"
       fill="rgb(255,255,255)"
       stroke="rgb(0,0,0)"
       stroke-width="0.0010cm"
       stroke-linecap="round"
       stroke-linejoin="round"
       id="path18679"
       style="fill:none;stroke:#000000;stroke-opacity:1;stroke-width:0.1;stroke-dasharray:none" /><path
       d="M-62.0004898,33.1159188 a0.41,0.41 0 1,1 0.82,0 a0.41,0.41 0 1,1 -0.82,0z"
       transform="matrix(1,0,0,-1,64.0904898,35.6159188)"
       fill="rgb(255,255,255)"
       stroke="rgb(0,0,0)"
       stroke-width="0.0010cm"
       stroke-linecap="round"
       stroke-linejoin="round"
       id="path18681"
       style="fill:none;stroke:#000000;stroke-opacity:1;stroke-width:0.1;stroke-dasharray:none" /><path
       d="M60.9995102,2.1159188 a0.41,0.41 0 1,1 0.82,0 a0.41,0.41 0 1,1 -0.82,0z"
       transform="matrix(1,0,0,-1,64.0904898,35.6159188)"
       fill="rgb(255,255,255)"
       stroke="rgb(0,0,0)"
       stroke-width="0.0010cm"
       stroke-linecap="round"
       stroke-linejoin="round"
       id="path18683"
       style="fill:none;stroke:#000000;stroke-opacity:1;stroke-width:0.1;stroke-dasharray:none" /><path
       d="M-21.8338232,2.1159188 a0.41,0.41 0 1,1 0.82,0 a0.41,0.41 0 1,1 -0.82,0z"
       transform="matrix(1,0,0,-1,64.0904898,35.6159188)"
       fill="rgb(255,255,255)"
       stroke="rgb(0,0,0)"
       stroke-width="0.0010cm"
       stroke-linecap="round"
       stroke-linejoin="round"
       id="path18685"
       style="fill:none;stroke:#000000;stroke-opacity:1;stroke-width:0.1;stroke-dasharray:none" /><path
       d="M-21.8338232,33.1159188 a0.41,0.41 0 1,1 0.82,0 a0.41,0.41 0 1,1 -0.82,0z"
       transform="matrix(1,0,0,-1,64.0904898,35.6159188)"
       fill="rgb(255,255,255)"
       stroke="rgb(0,0,0)"
       stroke-width="0.0010cm"
       stroke-linecap="round"
       stroke-linejoin="round"
       id="path18687"
       style="fill:none;stroke:#000000;stroke-opacity:1;stroke-width:0.1;stroke-dasharray:none" /><path
       d="M20.8328435,33.1159188 a0.41,0.41 0 1,1 0.82,0 a0.41,0.41 0 1,1 -0.82,0z"
       transform="matrix(1,0,0,-1,64.0904898,35.6159188)"
       fill="rgb(255,255,255)"
       stroke="rgb(0,0,0)"
       stroke-width="0.0010cm"
       stroke-linecap="round"
       stroke-linejoin="round"
       id="path18689"
       style="fill:none;stroke:#000000;stroke-opacity:1;stroke-width:0.1;stroke-dasharray:none" /><path
       d="M60.9995102,33.1159188 a0.41,0.41 0 1,1 0.82,0 a0.41,0.41 0 1,1 -0.82,0z"
       transform="matrix(1,0,0,-1,64.0904898,35.6159188)"
       fill="rgb(255,255,255)"
       stroke="rgb(0,0,0)"
       stroke-width="0.0010cm"
       stroke-linecap="round"
       stroke-linejoin="round"
       id="path18691"
       style="fill:none;stroke:#000000;stroke-opacity:1;stroke-width:0.1;stroke-dasharray:none" /><path
       d="M20.6178435,3.1984506 L20.6178435,3.1984506 20.5795333,3.1755858 20.5421792,3.1517876 20.5057584,3.1270529 20.4702479,3.101379 20.4356247,3.0747629 20.4018659,3.0472019 20.3689486,3.018693 20.3368497,2.9892334 20.3055463,2.9588202 20.2750155,2.9274506 20.2452343,2.8951218 20.2161797,2.8618307 20.1878289,2.8275747 20.1601847,2.7923849 20.1333661,2.7564593 20.1073642,2.7198515 20.0821472,2.6825868 20.0576835,2.6446903 20.0339416,2.6061873 20.0108897,2.567103 19.9884961,2.5274626 19.9667294,2.4872913 19.9455577,2.4466143 19.9249494,2.4054569 19.9048729,2.3638443 19.8852966,2.3218017 19.8475177,2.2365273 19.811364,2.1498462 19.7766349,2.0620955 19.743101,1.9735611 19.7105199,1.8845 19.6472464,1.7058254 19.5848749,1.5281268 19.5534213,1.4402858 19.5214661,1.3534596 19.4887667,1.2679051 19.4550808,1.1838791 19.4201658,1.1016387 19.4021717,1.0612684 19.3837795,1.0214408 19.3649588,0.982188 19.3456794,0.9435421 19.3259109,0.9055354 19.305623,0.8681998 19.2847855,0.8315675 19.263368,0.7956706 19.2413402,0.7605412 19.2186719,0.7262115 19.2186719,0.7262115 18.7924576,0.7103345 18.3659129,0.6950284 17.5127265,0.666076 17.086532,0.6524036 16.6609012,0.6392496 16.2360578,0.6266008 15.8122252,0.6144442 15.3896272,0.6027666 14.9684871,0.591555 14.5490286,0.5807962 14.1314752,0.5704771 13.7160504,0.5605846 13.5092061,0.5557943 13.3029778,0.5511057 13.0973935,0.5465172 12.892481,0.5420271 12.6882684,0.5376339 12.4847835,0.5333358 12.2820543,0.5291314 12.0800294,0.5250173 11.6748748,0.5169962 11.2675344,0.5092328 10.8581152,0.5017236 10.4467243,0.4944647 10.0334684,0.4874524 9.6184547,0.4806829 9.2017901,0.4741525 8.7835816,0.4678574 8.3639361,0.461794 7.9429606,0.4559583 7.5207621,0.4503467 7.0974476,0.4449555 6.673124,0.4397808 6.2478983,0.434819 5.8218775,0.4300662 5.3951686,0.4255188 4.9678784,0.4211729 4.1119825,0.4130709 3.2550456,0.4057301 2.3979234,0.3991205 1.5414717,0.3932122 0.6865463,0.3879751 0.2599234,0.3855989 -0.165997,0.3833793 -0.5911079,0.3813124 -1.0153024,0.3793946 -1.4384735,0.3776221 -1.8605142,0.3759911 -2.2813176,0.3744979 -2.7007766,0.3731388 -3.1187844,0.3719099 -3.5352339,0.3708076 -3.9500181,0.3698281 -4.3630301,0.3689676 -4.7741629,0.3682224 -5.1833096,0.3675887 -5.5903631,0.3670629 -5.9952166,0.366641 -6.3977629,0.3663194 -6.5981375,0.366195 -6.7978952,0.3660943 -6.9970227,0.3660168 -7.1955065,0.3659621 -7.3933334,0.3659295 -7.5904898,0.3659188 -7.5904898,0.3659188 -7.9472848,0.36593 -8.3047406,0.3659639 -9.0214193,0.3661023 -9.7400962,0.3663384 -10.4603416,0.3666767 -11.1817257,0.3671216 -11.9038188,0.3676777 -13.348413,0.369141 -14.0700545,0.3700573 -14.7906861,0.3711026 -15.5098778,0.3722813 -16.2272001,0.373598 -16.9423508,0.3750574 -17.3002178,0.3758447 -17.6588069,0.3766729 -18.377847,0.3784558 -19.0988619,0.3804138 -19.0988619,0.3804138 -19.1198748,0.3935488 -19.1404847,0.4071656 -19.1606982,0.421262 -19.1805219,0.4358358 -19.1999623,0.450885 -19.219026,0.4664074 -19.2560499,0.4988633 -19.2916461,0.5331866 -19.3258674,0.5693601 -19.3587146,0.6073067 -19.3899688,0.6466414 -19.4196599,0.6871935 -19.4478609,0.7288369 -19.4746445,0.7714455 -19.5000836,0.8148935 -19.5242509,0.8590546 -19.5472192,0.903803 -19.5690615,0.9490125 -19.5898557,0.9945691 -19.609847,1.0407596 -19.6291811,1.0877165 -19.6479174,1.1353889 -19.6661153,1.183726 -19.6838342,1.2326768 -19.7011335,1.2821905 -19.7347105,1.3827029 -19.7673216,1.4848563 -19.7994418,1.5882435 -19.831546,1.6924575 -19.8641094,1.7970912 -19.897607,1.9017376 -19.9325091,2.0059762 -19.9692588,2.1093201 -19.988476,2.1605426 -20.0083363,2.2114101 -20.0289007,2.2618809 -20.0502305,2.3119133 -20.0723867,2.3614658 -20.0954303,2.4104968 -20.1194226,2.4589646 -20.1444246,2.5068277 -20.1704975,2.5540443 -20.1977023,2.600573 -20.2261001,2.646372 -20.2557342,2.6913734 -20.2865335,2.7353576 -20.3185239,2.7782765 -20.3517566,2.8201215 -20.3862827,2.8608837 -20.4221533,2.9005544 -20.4594194,2.9391249 -20.4981052,2.976561 -20.5379186,3.0125587 -20.5787712,3.0470609 -20.6206687,3.0801049 -20.663617,3.1117284 -20.7076216,3.1419689 -20.7526884,3.1708638 -20.7988232,3.1984506 A1.25,1.25 60 0,1 -22.0488232,3.1984506 L-22.0488232,3.1984506 -22.0939205,3.1713752 -22.1376925,3.1429997 -22.1801769,3.1133193 -22.2214115,3.0823293 -22.2614339,3.050025 -22.3002818,3.0164017 -22.337993,2.9814547 -22.374605,2.9451794 -22.4101557,2.9075709 -22.4446827,2.8686247 -22.4782237,2.828336 -22.5107723,2.7867585 -22.5421719,2.7441708 -22.5724497,2.7006455 -22.6016575,2.6562237 -22.6298475,2.6109471 -22.6570715,2.564857 -22.6833816,2.5179948 -22.7088296,2.470402 -22.7334677,2.4221199 -22.7573478,2.37319 -22.7805218,2.3236537 -22.8030418,2.2735524 -22.8249597,2.2229275 -22.8463272,2.1718213 -22.8671808,2.1203125 -22.9075244,2.0163468 -22.9463814,1.9114692 -22.9841496,1.8061027 -23.0580119,1.5955944 -23.094902,1.4912985 -23.1322952,1.3882052 -23.1705896,1.2867374 -23.1901991,1.2367453 -23.2101831,1.1873181 -23.2305915,1.1385088 -23.2514738,1.0903702 -23.27288,1.0429551 -23.2948596,0.9963164 -23.317463,0.9505059 -23.3407473,0.9055592 -23.3647675,0.8615245 -23.3895759,0.8184565 -23.4152251,0.77641 -23.4417675,0.7354399 -23.4692558,0.6956008 -23.4977423,0.6569476 -23.5272796,0.6195351 -23.5579202,0.583418 -23.5897166,0.5486511 -23.6227213,0.5152893 -23.6569745,0.4833984 -23.6923778,0.4531568 -23.728929,0.4246263 -23.7666678,0.3978274 -23.7666678,0.3978274 -24.0579186,0.3992234 -24.3474709,0.4006507 -24.6353305,0.4021098 -24.9215031,0.4036008 -25.2059944,0.405124 -25.48881,0.4066796 -25.7699557,0.4082681 -26.0494371,0.4098895 -26.32726,0.4115442 -26.6034301,0.4132325 -26.8779531,0.4149545 -27.1508347,0.4167107 -27.4220806,0.4185012 -27.6916964,0.4203262 -27.9596879,0.4221862 -28.2260608,0.4240813 -28.4908208,0.4260118 -28.7539736,0.4279779 -29.0155249,0.42998 -29.2754804,0.4320183 -29.5338458,0.4340931 -29.7906268,0.4362046 -30.045829,0.4383531 -30.2994583,0.4405389 -30.5515203,0.4427622 -30.8020207,0.4450233 -31.0509653,0.4473224 -31.2983596,0.4496599 -31.5442094,0.452036 -31.7885205,0.4544509 -32.0312985,0.456905 -32.2725491,0.4593985 -32.512278,0.4619316 -32.750491,0.4645046 -32.9871936,0.4671179 -33.2223917,0.4697716 -33.456091,0.472466 -33.6882971,0.4752014 -33.9190157,0.477978 -34.1482525,0.4807962 -34.3760133,0.4836562 -34.6023037,0.4865582 -34.8271295,0.4895025 -35.0504963,0.4924894 -35.2724098,0.4955192 -35.4928759,0.4985921 -35.7119,0.5017083 -35.929488,0.5048682 -36.1456456,0.5080721 -36.3603784,0.5113201 -36.5736922,0.5146125 -36.7855927,0.5179497 -36.9960855,0.5213318 -37.2051763,0.5247592 -37.412871,0.5282321 -37.6191751,0.5317507 -37.8240944,0.5353154 -38.0276345,0.5389265 -38.2298013,0.542584 -38.4306003,0.5462885 -38.6300373,0.55004 -38.8281179,0.5538389 -39.024848,0.5576854 -39.2202331,0.5615799 -39.4142791,0.5655225 -39.6069915,0.5695135 -39.7983761,0.5735533 -39.9884386,0.577642 -40.1771847,0.5817799 -40.3646201,0.5859673 -40.5507505,0.5902046 -40.7355816,0.5944918 -40.9191191,0.5988293 -41.1013687,0.6032174 -41.2823361,0.6076563 -41.462027,0.6121463 -41.6404472,0.6166877 -41.8176022,0.6212807 -41.9934979,0.6259256 -42.1681399,0.6306227 -42.3415339,0.6353721 -42.5136856,0.6401743 -42.6846007,0.6450294 -42.854285,0.6499377 -43.0227441,0.6548996 -43.1899837,0.6599151 -43.3560096,0.6649847 -43.5208274,0.6701086 -43.6844428,0.6752871 -43.8468616,0.6805203 -44.0080894,0.6858086 -44.168132,0.6911523 -44.326995,0.6965516 -44.4846841,0.7020068 -44.6412051,0.7075181 -44.7965637,0.7130859 -44.9507655,0.7187103 -45.1038162,0.7243916 -45.2557216,0.7301302 -45.4064874,0.7359263 -45.5561192,0.7417801 -45.7046228,0.7476918 -45.8520039,0.7536619 -45.9982681,0.7596905 -46.1434212,0.765778 -46.2874688,0.7719244 -46.4304167,0.7781303 -46.5722707,0.7843957 -46.7130362,0.790721 -46.8527192,0.7971064 -46.9913252,0.8035523 -47.1288601,0.8100588 -47.2653294,0.8166262 -47.4007389,0.8232549 -47.5350942,0.829945 -47.6684012,0.8366968 -47.8006655,0.8435107 -47.9318927,0.8503867 -48.0620887,0.8573254 -48.191259,0.8643268 -48.3194095,0.8713913 -48.4465458,0.8785191 -48.5726735,0.8857105 -48.6977985,0.8929658 -48.8219264,0.9002851 -48.9450629,0.9076689 -49.0672137,0.9151174 -49.1883845,0.9226307 -49.308581,0.9302093 -49.427809,0.9378533 -49.546074,0.945563 -49.6633819,0.9533387 -49.7797383,0.9611806 -49.895149,0.9690891 -50.0096196,0.9770644 -50.1231558,0.9851067 -50.2357633,0.9932163 -50.3474479,1.0013935 -50.4582152,1.0096386 -50.568071,1.0179518 -50.6770208,1.0263333 -50.7850706,1.0347835 -50.8922259,1.0433026 -50.9984924,1.0518909 -51.1038759,1.0605486 -51.208382,1.0692761 -51.3120165,1.0780735 -51.414785,1.0869411 -51.5166933,1.0958793 -51.6177471,1.1048883 -51.717952,1.1139682 -51.8173137,1.1231195 -51.9158381,1.1323424 -52.0135307,1.1416371 -52.1103973,1.1510038 -52.2064435,1.160443 -52.3016752,1.1699548 -52.3960979,1.1795395 -52.4897173,1.1891974 -52.5825393,1.1989287 -52.6745694,1.2087337 -52.7658134,1.2186126 -52.8562771,1.2285658 -52.9459659,1.2385935 -53.0348858,1.2486959 -53.1230424,1.2588734 -53.2104414,1.2691262 -53.2970884,1.2794545 -53.3829893,1.2898587 -53.4681497,1.3003389 -53.5525752,1.3108955 -53.6362717,1.3215288 -53.7192448,1.3322389 -53.8015001,1.3430262 -53.8830435,1.3538909 -53.9638806,1.3648332 -54.0440171,1.3758536 -54.1234588,1.3869521 -54.2022112,1.3981292 -54.2802802,1.409385 -54.3576714,1.4207198 -54.4343905,1.4321339 -54.5104432,1.4436275 -54.5858353,1.455201 -54.6605724,1.4668545 -54.7346602,1.4785884 -54.8081045,1.4904029 -54.8809109,1.5022983 -54.9530851,1.5142748 -55.0246329,1.5263328 -55.0955599,1.5384724 -55.1658719,1.550694 -55.2355745,1.5629977 -55.3046735,1.575384 -55.4410832,1.6004049 -55.5751468,1.625759 -55.7069098,1.6514483 -55.8364179,1.6774749 -55.9637166,1.703841 -56.0888516,1.7305486 -56.2118685,1.7576001 -56.332813,1.7849973 -56.4517305,1.8127426 -56.5686668,1.8408379 -56.6836675,1.8692855 -56.7967781,1.8980875 -56.9081061,1.9272685 -57.0178521,1.9568941 -57.1260414,1.9869735 -57.232689,2.0175122 -57.3378102,2.0485157 -57.44142,2.0799896 -57.5435334,2.1119393 -57.6441656,2.1443705 -57.7433317,2.1772887 -57.8410468,2.2106994 -57.9373259,2.244608 -58.0321842,2.2790203 -58.1256367,2.3139417 -58.2176986,2.3493776 -58.3083849,2.3853338 -58.3977108,2.4218157 -58.4856912,2.4588288 -58.5723415,2.4963787 -58.6576765,2.5344708 -58.7417114,2.5731109 -58.8244614,2.6123043 -58.9059414,2.6520566 -58.9861667,2.6923734 -59.0651522,2.7332601 -59.1429131,2.7747224 -59.2194646,2.8167657 -59.2948216,2.8593956 -59.3689992,2.9026176 -59.4420126,2.9464373 -59.5138769,2.9908601 -59.5846072,3.0358917 -59.6542692,3.0815725 -59.7229933,3.1279935 -59.7907904,3.1751695 -59.8576664,3.2231114 -59.9236271,3.2718304 -59.9886785,3.3213377 -60.0528263,3.3716445 -60.1160763,3.4227618 -60.1784346,3.4747008 -60.2399068,3.5274727 -60.3004989,3.5810886 -60.3602167,3.6355597 -60.4190661,3.690897 -60.4770528,3.7471118 -60.5341829,3.8042152 -60.590462,3.8622183 -60.6458961,3.9211323 -60.7004911,3.9809684 -60.7542527,4.0417375 -60.8071869,4.103451 -60.8592994,4.16612 -60.9105961,4.2297555 -60.961083,4.2943688 -61.0107658,4.359971 -61.0596503,4.4265732 -61.1077425,4.4941867 -61.1550487,4.562823 -61.2015945,4.6325194 -61.2473963,4.7033036 -61.2924599,4.7751902 -61.3367909,4.8481941 -61.3803953,4.92233 -61.4232789,4.9976126 -61.4654473,5.0740568 -61.5069064,5.1516773 -61.5476621,5.2304888 -61.58772,5.3105062 -61.627086,5.3917442 -61.6657659,5.4742175 -61.7037655,5.5579409 -61.7410906,5.6429292 -61.7777469,5.7291972 -61.8137402,5.8167595 -61.8490765,5.905631 -61.8837613,5.9958265 -61.9178006,6.0873606 -61.9512001,6.1802482 -61.9839656,6.274504 -62.016103,6.3701428 -62.0476179,6.4671793 -62.0785163,6.5656283 -62.1088038,6.6655046 -62.1384864,6.766823 -62.1675697,6.8695981 -62.1960596,6.9738448 -62.223982,7.0796573 -62.2513788,7.1872076 -62.278253,7.2965266 -62.3046067,7.4076424 -62.3304421,7.5205827 -62.3557612,7.6353754 -62.3805662,7.7520482 -62.4048592,7.8706291 -62.4286423,7.9911458 -62.4519177,8.1136263 -62.4746875,8.2380982 -62.4969538,8.3645895 -62.5187187,8.4931279 -62.5399844,8.6237413 -62.560753,8.7564576 -62.5810265,8.8913046 -62.6008073,9.02831 -62.6200973,9.1675017 -62.6388986,9.3089077 -62.6572135,9.4525555 -62.6750441,9.5984733 -62.6923924,9.7466886 -62.7092606,9.8972294 -62.7175153,9.9733806 -62.7256508,10.0501236 -62.7336673,10.1274618 -62.7415651,10.2053988 -62.7493445,10.2839381 -62.7570057,10.363083 -62.764549,10.4428372 -62.7719747,10.5232041 -62.779283,10.6041871 -62.7864743,10.6857897 -62.7935486,10.7680155 -62.8005064,10.8508678 -62.8073479,10.9343502 -62.8140734,11.0184662 -62.820683,11.1032192 -62.8271772,11.1886127 -62.8335561,11.2746502 -62.83982,11.3613352 -62.8459693,11.4486711 -62.852004,11.5366614 -62.8579246,11.6253096 -62.8637313,11.7146192 -62.8694243,11.8045937 -62.875004,11.8952365 -62.8804705,11.9865511 -62.8858241,12.078541 -62.8910652,12.1712097 -62.896194,12.2645606 -62.9012107,12.3585973 -62.9061156,12.4533232 -62.910909,12.5487417 -62.9155911,12.6448565 -62.9201622,12.7416709 -62.9246226,12.8391884 -62.9289725,12.9374125 -62.9332123,13.0363467 -62.9373421,13.1359944 -62.9413622,13.2363592 -62.9452729,13.3374446 -62.9490745,13.4392539 -62.9527673,13.5417907 -62.9563514,13.6450584 -62.9598272,13.7490606 -62.9631949,13.8538007 -62.9664548,13.9592822 -62.9696072,14.0655085 -62.9726523,14.1724832 -62.9755904,14.2802098 -62.9784217,14.3886916 -62.9811466,14.4979323 -62.9837653,14.6079351 -62.986278,14.7187038 -62.988685,14.8302416 -62.9909866,14.9425522 -62.9931831,15.0556389 -62.9952747,15.1695053 -62.9972616,15.2841549 -62.9991442,15.399591 -63.0009228,15.5158173 -63.0025975,15.6328371 -63.0041686,15.7506539 -63.0056365,15.8692713 -63.0070013,15.9886928 -63.0082634,16.1089217 -63.009423,16.2299615 -63.0104803,16.3518158 -63.0114357,16.4744881 -63.0122894,16.5979817 -63.0130417,16.7223002 -63.0136928,16.8474471 -63.014243,16.9734258 -63.0146925,17.1002399 -63.0150418,17.2278927 -63.0152909,17.3563878 -63.0154401,17.4857287 -63.0154898,17.6159188 -63.0154898,17.6159188 -63.0154302,17.7584947 -63.015251,17.9000565 -63.0149519,18.0406086 -63.0145326,18.1801557 -63.0139926,18.3187022 -63.0133316,18.4562526 -63.0125493,18.5928114 -63.0116453,18.7283831 -63.0106191,18.8629723 -63.0094705,18.9965834 -63.0081991,19.129221 -63.0068045,19.2608895 -63.0052863,19.3915935 -63.0036443,19.5213374 -63.0018779,19.6501259 -62.9999869,19.7779633 -62.9979709,19.9048542 -62.9958295,20.0308031 -62.9935624,20.1558145 -62.9911691,20.2798929 -62.9886494,20.4030428 -62.9860029,20.5252687 -62.9832291,20.6465752 -62.9803278,20.7669667 -62.9772985,20.8864478 -62.974141,21.0050229 -62.9708548,21.1226966 -62.9674395,21.2394733 -62.9638949,21.3553576 -62.9602205,21.470354 -62.956416,21.5844669 -62.9524809,21.697701 -62.9484151,21.8100606 -62.944218,21.9215504 -62.9398893,22.0321747 -62.9354287,22.1419382 -62.9308357,22.2508453 -62.9261101,22.3589005 -62.9212514,22.4661084 -62.9162594,22.5724734 -62.9111335,22.6780001 -62.9058735,22.7826929 -62.900479,22.8865564 -62.8949496,22.9895951 -62.889285,23.0918134 -62.8834848,23.1932159 -62.8775486,23.2938072 -62.871476,23.3935916 -62.8652668,23.4925737 -62.8589205,23.590758 -62.8524368,23.6881491 -62.8458153,23.7847514 -62.8390557,23.8805694 -62.8321575,23.9756076 -62.8251204,24.0698706 -62.817944,24.1633629 -62.8106281,24.2560889 -62.8031721,24.3480532 -62.7955759,24.4392602 -62.7878389,24.5297145 -62.7799608,24.6194207 -62.7719412,24.7083831 -62.7637799,24.7966063 -62.7554764,24.8840948 -62.7470303,24.9708531 -62.7384413,25.0568858 -62.7297091,25.1421972 -62.7208332,25.2267921 -62.7118133,25.3106747 -62.7026491,25.3938497 -62.6933401,25.4763216 -62.683886,25.5580948 -62.6742865,25.6391738 -62.6645411,25.7195633 -62.6546495,25.7992676 -62.6446114,25.8782914 -62.6344264,25.956639 -62.624094,26.034315 -62.613614,26.1113239 -62.602986,26.1876703 -62.5922096,26.2633586 -62.5812845,26.3383932 -62.5702102,26.4127789 -62.5589865,26.4865199 -62.5476129,26.559621 -62.5360891,26.6320864 -62.5244147,26.7039209 -62.5125894,26.7751288 -62.5006128,26.8457147 -62.4884845,26.915683 -62.4762042,26.9850384 -62.4637714,27.0537853 -62.4511859,27.1219281 -62.4384473,27.1894715 -62.4255552,27.2564199 -62.4125092,27.3227778 -62.399309,27.3885497 -62.3859542,27.4537402 -62.3587793,27.5823947 -62.3309817,27.7087776 -62.3025584,27.8329246 -62.2735065,27.9548721 -62.243823,28.0746559 -62.2135052,28.1923121 -62.18255,28.3078769 -62.1509545,28.4213862 -62.1187092,28.5328984 -62.0857482,28.6426541 -62.0520483,28.7507248 -62.0176012,28.8571285 -61.9823988,28.9618833 -61.946433,29.0650072 -61.9096955,29.1665183 -61.8721781,29.2664347 -61.8338727,29.3647745 -61.794771,29.4615557 -61.754865,29.5567964 -61.7141463,29.6505147 -61.6726069,29.7427286 -61.6302384,29.8334562 -61.5870329,29.9227157 -61.5429819,30.010525 -61.4980774,30.0969022 -61.4523112,30.1818655 -61.4056751,30.2654328 -61.3581609,30.3476223 -61.3097605,30.428452 -61.2604655,30.5079401 -61.2102679,30.5861044 -61.1591594,30.6629633 -61.107132,30.7385346 -61.0541773,30.8128365 -61.0002872,30.8858871 -60.9454535,30.9577044 -60.8896732,31.0282989 -60.8329735,31.0976407 -60.7753585,31.1657387 -60.7168271,31.2326103 -60.6573784,31.2982729 -60.5970112,31.3627437 -60.5357243,31.4260401 -60.4735169,31.4881793 -60.4103876,31.5491786 -60.3463355,31.6090555 -60.2813595,31.6678272 -60.2154585,31.725511 -60.1486314,31.7821242 -60.0808772,31.8376841 -60.0121946,31.8922081 -59.9425827,31.9457135 -59.8720404,31.9982175 -59.8005665,32.0497375 -59.7281601,32.1002909 -59.6548199,32.1498948 -59.580545,32.1985667 -59.5053342,32.2463238 -59.4291865,32.2931835 -59.3520619,32.3391862 -59.2736895,32.384503 -59.1940021,32.4291702 -59.1129815,32.4731942 -59.0306091,32.5165812 -58.9468666,32.5593376 -58.8617356,32.6014697 -58.7751976,32.6429839 -58.6872342,32.6838863 -58.5978271,32.7241835 -58.5069578,32.7638816 -58.414608,32.802987 -58.3207591,32.841506 -58.2253929,32.8794449 -58.1284908,32.9168101 -58.0300345,32.9536079 -57.9300057,32.9898445 -57.8283857,33.0255264 -57.7251564,33.0606597 -57.6202992,33.0952509 -57.5137957,33.1293063 -57.4056276,33.1628321 -57.2957764,33.1958347 -57.1842237,33.2283205 -57.0709511,33.2602956 -56.9559403,33.2917665 -56.8391727,33.3227395 -56.72063,33.3532208 -56.6002569,33.3832271 -56.4779892,33.4127756 -56.3538054,33.4418706 -56.227684,33.4705168 -56.0996033,33.4987185 -55.9695418,33.5264803 -55.837478,33.5538066 -55.7033902,33.5807019 -55.567257,33.6071706 -55.4290566,33.6332173 -55.2887677,33.6588464 -55.1463686,33.6840623 -55.0018377,33.7088695 -54.8551535,33.7332726 -54.7062945,33.7572759 -54.555239,33.780884 -54.4019654,33.8041013 -54.2464524,33.8269322 -54.0886782,33.8493814 -53.9286213,33.8714531 -53.7662601,33.8931519 -53.6015731,33.9144823 -53.4345387,33.9354488 -53.3501345,33.9457969 -53.2651354,33.9560557 -53.1795386,33.9662258 -53.0933416,33.9763076 -53.0065415,33.9863018 -52.9191356,33.996209 -52.8311214,34.0060296 -52.7424961,34.0157642 -52.6532569,34.0254135 -52.5634013,34.0349779 -52.4729265,34.044458 -52.3818297,34.0538544 -52.2901084,34.0631676 -52.1977599,34.0723982 -52.1047813,34.0815468 -52.0111701,34.0906139 -51.9169235,34.0996 -51.8220388,34.1085057 -51.7265134,34.1173317 -51.6303446,34.1260784 -51.5335295,34.1347463 -51.4360657,34.1433362 -51.3379503,34.1518484 -51.2391807,34.1602837 -51.1397541,34.1686424 -51.0396679,34.1769253 -50.9389194,34.1851328 -50.8375059,34.1932656 -50.7354247,34.2013241 -50.632673,34.2093089 -50.5292483,34.2172206 -50.4251477,34.2250598 -50.3203687,34.232827 -50.2149085,34.2405227 -50.1087644,34.2481476 -50.0019337,34.2557021 -49.8944137,34.2631869 -49.7862018,34.2706025 -49.6772952,34.2779494 -49.5676912,34.2852283 -49.4573872,34.2924396 -49.3463804,34.299584 -49.2346682,34.306662 -49.1222478,34.3136741 -49.0091166,34.3206209 -48.8952718,34.327503 -48.7807109,34.3343209 -48.665431,34.3410753 -48.5494294,34.3477665 -48.4327036,34.3543953 -48.3152507,34.3609621 -48.1970682,34.3674676 -48.0781532,34.3739122 -47.9585031,34.3802966 -47.8381153,34.3866212 -47.7169869,34.3928867 -47.5951154,34.3990937 -47.472498,34.4052426 -47.349132,34.4113341 -47.2250147,34.4173686 -47.1001435,34.4233468 -46.9745156,34.4292692 -46.8480997,34.4351364 -46.7207836,34.4409494 -46.592559,34.4467082 -46.4634296,34.4524133 -46.3333987,34.4580649 -46.20247,34.4636632 -46.0706469,34.4692085 -45.937933,34.4747012 -45.8043317,34.4801414 -45.6698467,34.4855294 -45.5344813,34.4908655 -45.3982391,34.4961499 -45.2611237,34.501383 -45.1231386,34.506565 -44.9842872,34.5116962 -44.8445731,34.5167767 -44.7039997,34.521807 -44.5625707,34.5267872 -44.4202895,34.5317177 -44.2771596,34.5365986 -44.1331846,34.5414303 -43.988368,34.5462131 -43.8427132,34.5509471 -43.6962239,34.5556327 -43.5489034,34.5602701 -43.4007554,34.5648596 -43.2517833,34.5694015 -43.1019907,34.573896 -42.951381,34.5783435 -42.7999579,34.582744 -42.6477247,34.5870981 -42.494685,34.5914058 -42.3408424,34.5956675 -42.1862004,34.5998834 -42.0307624,34.6040538 -41.8745319,34.608179 -41.7175126,34.6122592 -41.5597079,34.6162947 -41.4011212,34.6202858 -41.2417563,34.6242328 -41.0816165,34.6281358 -40.9207053,34.6319952 -40.7590263,34.6358112 -40.596583,34.6395842 -40.433379,34.6433143 -40.2694176,34.6470019 -40.1047025,34.6506471 -39.9392372,34.6542504 -39.7730251,34.6578119 -39.6060698,34.6613319 -39.4383749,34.6648106 -39.2699437,34.6682484 -39.1007799,34.6716455 -38.9308869,34.6750022 -38.7602682,34.6783188 -38.5889275,34.6815954 -38.4168681,34.6848324 -38.2440937,34.6880301 -38.0706076,34.6911887 -37.8964135,34.6943084 -37.7215149,34.6973896 -37.5459152,34.7004326 -37.369618,34.7034375 -37.1926268,34.7064046 -37.0149451,34.7093343 -36.8365764,34.7122267 -36.6575243,34.7150822 -36.4777922,34.717901 -36.2973837,34.7206834 -36.1163023,34.7234296 -35.9345515,34.72614 -35.7521348,34.7288147 -35.5690557,34.7314541 -35.3853178,34.7340584 -35.2009245,34.7366279 -35.0158794,34.7391628 -34.830186,34.7416635 -34.6438478,34.7441302 -34.4568683,34.7465631 -34.2692511,34.7489625 -34.0809996,34.7513287 -33.8921174,34.753662 -33.7026079,34.7559625 -33.5124748,34.7582307 -33.3217214,34.7604668 -33.1303514,34.7626709 -32.9383682,34.7648435 -32.7457754,34.7669847 -32.5525764,34.7690948 -32.3587749,34.7711741 -31.9693779,34.7752414 -31.5776127,34.7791887 -31.1835074,34.783018 -30.7870899,34.7867316 -30.3883886,34.7903316 -29.9874315,34.7938201 -29.5842466,34.7971993 -29.1788622,34.8004713 -28.7713064,34.8036382 -28.3616072,34.8067021 -27.9497929,34.8096653 -27.5358914,34.8125298 -27.119931,34.8152978 -26.7019397,34.8179714 -26.2819458,34.8205527 -25.8599772,34.8230439 -25.4360621,34.8254472 -25.0102286,34.8277646 -24.5825049,34.8299983 -24.1529191,34.8321504 -23.7214993,34.8342232 -23.7214993,34.8342232 -23.68283,34.80761 -23.6457213,34.77939 -23.6101164,34.7496035 -23.5759587,34.7182911 -23.5431916,34.6854935 -23.5117583,34.651251 -23.4816022,34.6156043 -23.4526667,34.578594 -23.4249236,34.5403026 -23.3983509,34.5008352 -23.3728873,34.4602457 -23.3484711,34.4185879 -23.3250408,34.3759157 -23.3025346,34.3322828 -23.280891,34.2877429 -23.2600484,34.2423498 -23.239945,34.1961573 -23.2205194,34.1492191 -23.2017097,34.1015886 -23.1834476,34.0532957 -23.1656698,34.0043795 -23.1483169,33.9548911 -23.1146483,33.8544024 -23.0819668,33.7522384 -23.0497975,33.6488084 -23.0176655,33.5445213 -22.9850959,33.4397862 -22.9516137,33.3350121 -22.916744,33.2306082 -22.8800118,33.1269833 -22.8607989,33.0755909 -22.8409423,33.0245467 -22.8203826,32.9739018 -22.7990598,32.9237049 -22.7769064,32.8739787 -22.7538584,32.8247598 -22.7298534,32.7760913 -22.7048294,32.7280163 -22.6787239,32.6805777 -22.6514749,32.6338188 -22.6230199,32.5877825 -22.5932969,32.5425119 -22.5622434,32.49805 -22.5297973,32.4544399 -22.4959187,32.411752 -22.4608904,32.3704162 -22.4248001,32.3305478 -22.3876273,32.2921202 -22.3493517,32.2551068 -22.3099527,32.2194813 -22.2694099,32.185217 -22.2277028,32.1522875 -22.1848111,32.1206663 -22.1407142,32.0903268 -22.0953917,32.0612426 -22.0488232,32.033387 A1.25,1.25 240 0,1 -20.7988232,32.033387 L-20.7988232,32.033387 -20.7532292,32.0607724 -20.7089898,32.0894873 -20.6660662,32.1195365 -20.6244192,32.150925 -20.58401,32.1836574 -20.5447994,32.2177389 -20.5067487,32.253174 -20.4698187,32.2899679 -20.4339705,32.3281252 -20.3991652,32.3676508 -20.3653637,32.4085496 -20.3325941,32.4507372 -20.301005,32.493936 -20.2705553,32.5380875 -20.2411913,32.5831489 -20.2128591,32.6290772 -20.1855051,32.6758298 -20.1590755,32.7233638 -20.1335166,32.7716363 -20.1087746,32.8206046 -20.0847957,32.8702258 -20.0615263,32.9204571 -20.0389126,32.9712557 -20.0169008,33.0225787 -19.9954397,33.0743776 -19.9744937,33.1265642 -19.9339507,33.23186 -19.8948638,33.3380212 -19.8568216,33.4446103 -19.7822259,33.657322 -19.7448498,33.7625696 -19.706873,33.8664948 -19.6678841,33.9686603 -19.6478817,34.0189464 -19.6274719,34.0686284 -19.6066035,34.1176517 -19.585225,34.1659616 -19.563285,34.2135034 -19.5407321,34.2602223 -19.5175148,34.3060638 -19.49358,34.3509775 -19.4688705,34.3949195 -19.4433322,34.4378348 -19.4169111,34.479668 -19.3895531,34.5203636 -19.3612044,34.559866 -19.3318109,34.5981197 -19.3013188,34.6350692 -19.2696739,34.6706591 -19.2368223,34.7048337 -19.20271,34.7375377 -19.1672831,34.7687154 -19.1306332,34.7981981 -19.0929203,34.8258099 -19.0541157,34.8515504 -19.0541157,34.8515504 -18.3359492,34.8534902 -17.6197481,34.8552568 -17.2625725,34.8560775 -16.9061136,34.8568578 -16.1936959,34.8583043 -15.4791163,34.8596096 -14.7626937,34.8607782 -14.0448526,34.8618145 -13.3260175,34.862723 -11.8870631,34.8641741 -11.1677928,34.8647256 -10.4492264,34.865167 -9.7317884,34.8655025 -9.0159034,34.8657367 -8.3019957,34.865874 -7.945916,34.8659077 -7.5904898,34.8659188 -7.5904898,34.8659188 -7.3930571,34.865908 -7.1949492,34.8658754 -6.9961795,34.8658205 -6.7967615,34.8657427 -6.5967086,34.8656418 -6.3960344,34.865517 -5.9928757,34.8651944 -5.587393,34.8647713 -5.1796941,34.8642437 -4.7698866,34.8636079 -4.3580782,34.8628602 -3.9443767,34.8619968 -3.5288897,34.8610138 -3.111725,34.8599076 -2.6929902,34.8586743 -2.272793,34.8573102 -1.8512412,34.8558115 -1.4284423,34.8541743 -1.0045043,34.852395 -0.5795346,34.8504698 -0.1536411,34.8483949 0.2730686,34.8461664 0.7004868,34.8437807 1.5570177,34.8385222 2.4150901,34.8325894 3.2738425,34.8259519 4.1324131,34.8185795 4.9899405,34.810442 5.4180437,34.8060769 5.845563,34.8015092 6.2723906,34.7967351 6.698419,34.7917509 7.1235403,34.7865527 7.5476469,34.7811368 7.9706311,34.7754994 8.3923852,34.7696368 8.8128015,34.7635451 9.2317723,34.7572206 9.6491898,34.7506594 10.0649464,34.7438579 10.4789345,34.7368123 10.8910462,34.7295187 11.3011739,34.7219734 11.7092099,34.7141726 12.1150465,34.7061125 12.3173882,34.7019789 12.5204289,34.6977543 12.7242317,34.6934356 12.9287684,34.6890211 13.1340109,34.684509 13.3399311,34.6798979 13.5465006,34.6751859 13.7536913,34.6703715 14.1698238,34.6604286 14.5881029,34.6500561 15.0083033,34.6392406 15.4301995,34.627969 15.853566,34.6162279 16.2781774,34.6040042 16.7038081,34.5912847 17.1302328,34.578056 17.5572259,34.5643049 18.4120158,34.5351826 18.8393615,34.5197849 19.2663738,34.5038119 19.2663738,34.5038119 19.2880627,34.4695971 19.308993,34.4346076 19.3292015,34.3988763 19.3487251,34.362436 19.3676006,34.3253197 19.3858651,34.2875604 19.4035553,34.2491909 19.4207081,34.2102441 19.4373604,34.170753 19.4535492,34.1307505 19.4846833,34.0493428 19.5144059,33.9662831 19.5430213,33.8817797 19.5708258,33.7960455 19.5981097,33.7093145 19.6522769,33.5337978 19.6797409,33.4454799 19.7078456,33.3571009 19.7368813,33.2688947 19.7671384,33.1810953 19.7989072,33.0939365 19.832478,33.0076522 19.8500299,32.9649112 19.8681412,32.9224765 19.8868482,32.8803774 19.9061825,32.8386527 19.9261758,32.7973392 19.9468652,32.7564606 19.968288,32.7160402 19.9904816,32.6761017 20.0134831,32.6366684 20.0373299,32.5977641 20.0620591,32.559412 20.0877081,32.5216359 20.1143142,32.4844591 20.1419145,32.4479052 20.1705464,32.4119977 20.2001799,32.3768378 20.2305884,32.3427225 20.2617595,32.3096634 20.2937042,32.2776432 20.3264337,32.2466449 20.3599589,32.2166514 20.3942909,32.1876453 20.4294407,32.1596097 20.4654194,32.1325273 20.502238,32.106381 20.5399075,32.0811536 20.578439,32.056828 20.6178435,32.033387 A1.25,1.25 240 0,1 21.8678435,32.033387 L21.8678435,32.033387 21.9031942,32.0544311 21.9377308,32.0762682 21.9714712,32.0989007 22.0044335,32.1223308 22.0366357,32.1465608 22.0680957,32.1715928 22.0988315,32.1974292 22.1288612,32.2240721 22.1582026,32.2515239 22.1868737,32.2797867 22.2148927,32.3088628 22.2422773,32.3387544 22.2690457,32.3694638 22.2952157,32.4009933 22.3207938,32.4333299 22.3456791,32.4663117 22.3698636,32.4998785 22.3933722,32.5340108 22.4162297,32.5686885 22.4384608,32.6038921 22.4600904,32.6396018 22.4811433,32.6757978 22.5016442,32.7124603 22.521618,32.7495696 22.5410894,32.787106 22.5600832,32.8250496 22.5967374,32.9020798 22.6317788,32.980502 22.6654055,33.0601573 22.6977808,33.1408007 22.7290745,33.2221865 22.7594765,33.3041129 22.7891764,33.3863781 22.847229,33.5511169 22.9047505,33.714788 22.9337864,33.7957185 22.9632588,33.8757765 22.9933574,33.9547599 23.024272,34.0324671 23.0561923,34.1086961 23.0893081,34.1832451 23.1063736,34.2198264 23.1238092,34.2559121 23.1416384,34.2914767 23.1598852,34.3264952 23.1598852,34.3264952 23.424556,34.3120297 23.6869262,34.2973378 23.947008,34.2824181 24.2048136,34.2672692 24.4603555,34.2518899 24.7136459,34.2362786 24.964697,34.220434 25.2135213,34.2043547 25.460131,34.1880394 25.7045384,34.1714866 25.9467558,34.154695 26.1867956,34.1376632 26.4246699,34.1203897 26.6603911,34.1028734 26.8939716,34.0851126 27.1254236,34.0671061 27.3547594,34.0488526 27.5819913,34.0303505 27.8071317,34.0115985 28.0301927,33.9925952 28.2511868,33.9733393 28.4701263,33.9538294 28.6870233,33.9340641 28.9018903,33.9140419 29.1147395,33.8937616 29.3255832,33.8732217 29.5344338,33.8524209 29.7413035,33.8313578 29.9462046,33.810031 30.1491495,33.788439 30.3501504,33.7665806 30.5492196,33.7444544 30.7463695,33.7220589 30.9416123,33.6993928 31.1349604,33.6764547 31.326426,33.6532432 31.5160215,33.629757 31.7037591,33.6059946 31.8896511,33.5819547 32.0737099,33.5576358 32.2559478,33.5330367 32.436377,33.5081559 32.6150098,33.4829921 32.7918586,33.4575438 32.9669357,33.4318097 33.1402533,33.4057884 33.3118238,33.3794785 33.4816595,33.3528787 33.6497726,33.3259875 33.8161754,33.2988036 33.9808803,33.2713255 34.1438996,33.243552 34.3052456,33.2154816 34.4649305,33.1871129 34.6229667,33.1584446 34.7793665,33.1294753 34.9341421,33.1002035 35.0873059,33.070628 35.2388702,33.0407473 35.3888473,33.01056 35.5372494,32.9800649 35.6840889,32.9492604 35.8293781,32.9181452 35.9731293,32.8867179 36.1153547,32.8549772 36.2560668,32.8229216 36.3952777,32.7905498 36.5329998,32.7578604 36.6692454,32.7248519 36.8040268,32.6915232 36.9373563,32.6578726 37.0692461,32.623899 37.1997087,32.5896008 37.3287563,32.5549767 37.4564011,32.5200253 37.5826556,32.4847452 37.7075319,32.4491352 37.8310424,32.4131936 37.9531995,32.3769193 38.0740153,32.3403108 38.1935023,32.3033667 38.3116726,32.2660856 38.4285387,32.2284662 38.5441128,32.1905071 38.6584071,32.1522069 38.7714341,32.1135641 38.883206,32.0745776 38.9937351,32.0352457 39.1030337,31.9955672 39.2111142,31.9555408 39.3179887,31.9151649 39.4236697,31.8744382 39.5281694,31.8333594 39.6315001,31.791927 39.7336741,31.7501397 39.8347038,31.7079961 39.9346014,31.6654948 40.0334093,31.6226197 40.131237,31.5793195 40.2280977,31.5355871 40.3239963,31.4914195 40.4189377,31.4468136 40.5129269,31.4017665 40.6059688,31.3562749 40.6980684,31.310336 40.7892305,31.2639465 40.8794602,31.2171035 40.9687623,31.1698039 41.0571418,31.1220446 41.1446036,31.0738225 41.2311527,31.0251346 41.316794,30.9759779 41.4015325,30.9263493 41.4853731,30.8762457 41.5683207,30.825664 41.6503802,30.7746012 41.7315567,30.7230543 41.8118549,30.6710201 41.89128,30.6184956 41.9698368,30.5654778 42.0475302,30.5119636 42.1243652,30.4579499 42.2003468,30.4034337 42.2754798,30.3484119 42.3497692,30.2928814 42.42322,30.2368392 42.4958371,30.1802823 42.5676253,30.1232075 42.6385897,30.0656118 42.7087353,30.0074921 42.7780668,29.9488455 42.8465893,29.8896687 42.9143078,29.8299588 42.981227,29.7697127 43.0473521,29.7089274 43.1126879,29.6475997 43.1772393,29.5857266 43.2410114,29.5233051 43.3039912,29.4603486 43.3661358,29.3969012 43.4274486,29.3329663 43.4879359,29.2685446 43.5476041,29.2036369 43.6064593,29.1382441 43.6645078,29.072367 43.7217559,29.0060063 43.7782099,28.939163 43.833876,28.8718377 43.8887606,28.8040313 43.9428698,28.7357446 43.9962099,28.6669784 44.0487873,28.5977336 44.1006081,28.5280108 44.1516787,28.457811 44.2020053,28.387135 44.2515941,28.3159835 44.3004516,28.2443573 44.3485838,28.1722573 44.3959971,28.0996843 44.4426978,28.026639 44.4886922,27.9531224 44.5339864,27.8791351 44.5785868,27.8046781 44.6224996,27.729752 44.6657311,27.6543578 44.7082876,27.5784962 44.7501753,27.502168 44.7914006,27.425374 44.8319696,27.3481151 44.8718887,27.2703921 44.9111641,27.1922057 44.949802,27.1135568 44.9878088,27.0344462 45.0251908,26.9548746 45.0619541,26.8748429 45.0981051,26.794352 45.13365,26.7134025 45.1685951,26.6319954 45.202948,26.5501284 45.2367852,26.4676308 45.2701501,26.3843981 45.3030434,26.3004245 45.3354659,26.215704 45.3674185,26.1302308 45.3989019,26.043999 45.4299169,25.9570027 45.4604643,25.8692359 45.490545,25.7806929 45.5201597,25.6913677 45.5493091,25.6012543 45.5779942,25.510347 45.6062157,25.4186398 45.6339744,25.3261269 45.661271,25.2328022 45.6881065,25.1386601 45.7144815,25.0436944 45.7403969,24.9478994 45.7658534,24.8512692 45.790852,24.7537978 45.8153933,24.6554794 45.8394781,24.5563081 45.8631073,24.4562779 45.8862817,24.3553831 45.909002,24.2536176 45.9312691,24.1509756 45.9530837,24.0474513 45.9744466,23.9430386 45.9953586,23.8377318 46.0158206,23.7315248 46.0358333,23.6244119 46.0553975,23.5163872 46.0745141,23.4074447 46.0931837,23.2975785 46.1114072,23.1867828 46.1291855,23.0750516 46.1465192,22.9623791 46.1634092,22.8487594 46.1798564,22.7341865 46.1958614,22.6186546 46.211425,22.5021579 46.2265482,22.3846903 46.2412316,22.266246 46.2554761,22.1468191 46.2692824,22.0264037 46.2826514,21.9049939 46.2955839,21.7825839 46.3080806,21.6591677 46.3201423,21.5347394 46.3317699,21.4092931 46.3429642,21.282823 46.3537258,21.1553232 46.3640557,21.0267877 46.3739546,20.8972107 46.3834233,20.7665862 46.3924627,20.6349085 46.4010734,20.5021715 46.4092564,20.3683694 46.4170124,20.2334962 46.4243421,20.0975462 46.4312465,19.9605134 46.4377262,19.8223919 46.4437821,19.6831758 46.4494151,19.5428593 46.4546257,19.4014364 46.459415,19.2589012 46.4637836,19.1152478 46.4677324,18.9704704 46.4712622,18.824563 46.4743737,18.6775198 46.4770677,18.5293349 46.4793451,18.3800024 46.4812067,18.2295163 46.4826531,18.0778708 46.4836854,17.9250599 46.4843041,17.7710779 46.4845102,17.6159188 46.4845102,17.6159188 46.4842732,17.4497507 46.4835618,17.2849303 46.482375,17.1214503 46.4807117,16.9593036 46.4785711,16.7984831 46.4759522,16.6389816 46.4728541,16.480792 46.4692758,16.3239071 46.4652164,16.1683198 46.460675,16.014023 46.4556505,15.8610095 46.450142,15.7092721 46.4441486,15.5588037 46.4376694,15.4095972 46.4307033,15.2616454 46.4232495,15.1149411 46.415307,14.9694773 46.4068749,14.8252468 46.3979521,14.6822424 46.3885378,14.5404571 46.378631,14.3998835 46.3682308,14.2605147 46.3573362,14.1223434 46.3459463,13.9853626 46.33406,13.849565 46.3216766,13.7149436 46.308795,13.5814911 46.2954142,13.4492004 46.2815334,13.3180645 46.2671516,13.1880761 46.2522678,13.0592281 46.2368811,12.9315133 46.2209905,12.8049247 46.2045952,12.679455 46.1876941,12.5550971 46.1702862,12.431844 46.1523708,12.3096883 46.1339467,12.188623 46.1150131,12.068641 46.0955691,11.9497351 46.0756135,11.8318981 46.0551456,11.7151229 46.0341644,11.5994024 46.0126689,11.4847294 45.9906582,11.3710968 45.9681313,11.2584974 45.9450873,11.1469241 45.9215252,11.0363697 45.8974441,10.9268271 45.872843,10.8182892 45.8477211,10.7107487 45.8220772,10.6041986 45.7959106,10.4986317 45.7692203,10.3940409 45.7420052,10.290419 45.7142645,10.1877589 45.6859972,10.0860534 45.6572024,9.9852954 45.627879,9.8854778 45.5980263,9.7865933 45.5676432,9.6886349 45.5367287,9.5915954 45.505282,9.4954677 45.473302,9.4002446 45.4407879,9.3059189 45.4077387,9.2124836 45.3741534,9.1199315 45.3400311,9.0282554 45.3053708,8.9374481 45.270105,8.8473346 45.2341469,8.7577096 45.1974875,8.6685748 45.1601184,8.5799326 45.1220308,8.4917854 45.083216,8.4041354 45.0436655,8.316985 45.0033706,8.2303365 44.9623226,8.1441922 44.9205129,8.0585545 44.8779329,7.9734257 44.8345738,7.888808 44.7904271,7.8047039 44.7454841,7.7211157 44.6997362,7.6380456 44.6531746,7.555496 44.6057908,7.4734692 44.5575762,7.3919676 44.508522,7.3109934 44.4586196,7.2305491 44.4078604,7.1506368 44.3562357,7.071259 44.3037368,6.992418 44.2503552,6.914116 44.1960822,6.8363555 44.1409091,6.7591387 44.0848273,6.6824679 44.0278281,6.6063455 43.9699029,6.5307739 43.9110431,6.4557553 43.8512399,6.381292 43.7904848,6.3073864 43.7287691,6.2340408 43.6660841,6.1612576 43.6024213,6.089039 43.5377719,6.0173873 43.4721273,5.946305 43.4054788,5.8757943 43.3379276,5.8059695 43.2696941,5.7370514 43.2007918,5.6690376 43.1312284,5.601919 43.0610114,5.5356867 42.9901485,5.4703318 42.9186472,5.4058454 42.8465152,5.3422185 42.7737599,5.2794422 42.700389,5.2175076 42.6264101,5.1564057 42.5518308,5.0961275 42.4766585,5.0366643 42.400901,4.978007 42.3245658,4.9201466 42.2476604,4.8630744 42.1701925,4.8067812 42.0921697,4.7512583 42.0135995,4.6964966 41.9344895,4.6424872 41.8548474,4.5892213 41.7746806,4.5366897 41.6939967,4.4848838 41.6128035,4.4337944 41.5311083,4.3834127 41.4489189,4.3337297 41.3662428,4.2847365 41.2830875,4.2364241 41.1994608,4.1887837 41.1153701,4.1418063 41.030823,4.0954829 40.9458271,4.0498047 40.8603901,4.0047626 40.7745194,3.9603478 40.6882227,3.9165514 40.6012763,3.8732481 40.5134413,3.8303148 40.4247107,3.7877494 40.3350774,3.7455502 40.2445344,3.7037151 40.1530744,3.6622422 40.0606905,3.6211295 39.9673756,3.5803752 39.8731226,3.5399772 39.7779244,3.4999337 39.6817739,3.4602427 39.584664,3.4209023 39.4865877,3.3819104 39.3875378,3.3432653 39.2875074,3.3049649 39.1864893,3.2670073 39.0844764,3.2293906 38.9814616,3.1921128 38.8774379,3.155172 38.7723982,3.1185662 38.6663354,3.0822935 38.5592424,3.0463521 38.4511121,3.0107398 38.3419375,2.9754549 38.2317115,2.9404953 38.1204269,2.9058591 38.0080768,2.8715444 37.894654,2.8375492 37.7801514,2.8038716 37.664562,2.7705097 37.5478786,2.7374615 37.4300943,2.7047251 37.3112018,2.6722985 37.1911942,2.6401798 37.0700644,2.6083671 36.9478052,2.5768584 36.8244096,2.5456518 36.6998705,2.5147454 36.5741808,2.4841371 36.4473334,2.4538252 36.3193213,2.4238075 36.1901374,2.3940823 36.0597745,2.3646474 35.9282257,2.3355012 35.7954838,2.3066414 35.6615417,2.2780663 35.5263924,2.2497739 35.3900288,2.2217623 35.2524438,2.1940295 35.1136303,2.1665735 34.9735801,2.1393924 34.8322223,2.1124758 34.6895113,2.0858176 34.5454397,2.0594167 34.3999996,2.0332719 34.2531834,2.007382 34.1049834,1.981746 33.9553919,1.9563627 33.8044011,1.931231 33.6520034,1.9063497 33.498191,1.8817177 33.3429564,1.8573338 33.1862917,1.833197 33.0281892,1.8093061 32.8686413,1.7856599 32.7076403,1.7622574 32.5451784,1.7390973 32.381248,1.7161786 32.2158414,1.6935001 32.0489508,1.6710607 31.8805686,1.6488592 31.710687,1.6268946 31.5392983,1.6051656 31.366395,1.5836711 31.1919691,1.5624101 31.0160132,1.5413813 30.8385193,1.5205837 30.6594799,1.500016 30.4788873,1.4796772 30.2967337,1.4595661 30.1130114,1.4396817 29.9277128,1.4200226 29.7408301,1.4005879 29.5523557,1.3813764 29.3622818,1.3623869 29.1706007,1.3436184 28.9773048,1.3250696 28.7823863,1.3067395 28.5858375,1.2886268 28.3876508,1.2707306 28.1878184,1.2530495 27.9863326,1.2355826 27.7831858,1.2183286 27.5783702,1.2012865 27.3718781,1.1844551 27.1637018,1.1678332 26.9538336,1.1514197 26.7422659,1.1352136 26.5289909,1.1192136 26.3140009,1.1034186 26.0972882,1.0878275 25.8788451,1.0724391 25.658664,1.0572523 25.436737,1.042266 25.2130566,1.0274791 24.987615,1.0128904 24.7604045,0.9984987 24.5314174,0.984303 24.300646,0.970302 24.0680826,0.9564948 23.8337195,0.94288 23.5975491,0.9294567 23.3595635,0.9162236 23.1197551,0.9031796 23.1197551,0.9031796 23.1027767,0.9380657 23.0862883,0.9734926 23.0702616,1.0094342 23.054668,1.0458639 23.0246668,1.120083 22.9960576,1.1959394 22.9686129,1.2732228 22.9421057,1.3517227 22.9163086,1.4312286 22.8909943,1.5115302 22.8409013,1.673711 22.7899762,1.8368489 22.7636227,1.9183466 22.7363667,1.9995655 22.7079767,2.0803325 22.6782214,2.160474 22.6468693,2.2398169 22.613689,2.3181876 22.596341,2.3569542 22.5784492,2.3954128 22.5599847,2.4335418 22.5409184,2.4713193 22.5212216,2.5087237 22.5008904,2.5456889 22.4799171,2.5821632 22.4582742,2.6181341 22.4359338,2.6535891 22.4128684,2.6885156 22.3890501,2.7229012 22.3644514,2.7567332 22.3390444,2.7899992 22.3128016,2.8226867 22.2856951,2.854783 22.2576974,2.8862758 22.2288506,2.9170795 22.1993498,2.9469737 22.1692032,2.9759581 22.1384049,3.0040485 22.1069489,3.0312603 22.0748293,3.0576091 22.0420402,3.0831104 22.0085756,3.1077799 21.9744295,3.1316331 21.9395961,3.1546856 21.9040695,3.1769529 21.8678435,3.1984506 A1.25,1.25 60 0,1 20.6178435,3.1984506z"
       transform="matrix(1,0,0,-1,64.0904898,35.6159188)"
       fill="rgb(255,255,255)"
       stroke="rgb(0,0,0)"
       stroke-width="0.0010cm"
       stroke-linecap="round"
       stroke-linejoin="round"
       id="path18693"
       style="fill:none;stroke:#000000;stroke-opacity:1;stroke-width:0.1;stroke-dasharray:none" /></g></svg>
