<?xml version="1.0" encoding="utf-8"?>
<!-- Generator: Fusion 360, Shaper Origin Export Add-In, Version 1.8.0  -->
<svg xmlns="http://www.w3.org/2000/svg" xmlns:xlink="http://www.w3.org/1999/xlink" xmlns:shaper="http://www.shapertools.com/namespaces/shaper" shaper:fusionaddin="version:1.8.0" width="121cm" height="36cm" version="1.1" x="0cm" y="0cm" viewBox="0 0 121 36" enable-background="new 0 0 121 36" xml:space="preserve"><path d="M59.7039297,26.1839485 L59.7039297,28.1839485 60.0039297,28.1839485 60.0039297,33.9839485 A1.4,1.4 0 0,1 58.6039297,35.3839485 L-59.5960703,35.3839485 A1.4,1.4 90 0,1 -60.9960703,33.9839485 L-60.9960703,0.7839485 A1.4,1.4 180 0,1 -59.5960703,-0.6160515 L58.6039297,-0.6160515 A1.4,1.4 270 0,1 60.0039297,0.7839485 L60.0039297,6.5839485 59.7039297,6.5839485 59.7039297,8.5839485 43.0039297,8.5839485 A1,1 270 0,0 42.0039297,9.5839485 L42.0039297,25.1839485 A1,1 180 0,0 43.0039297,26.1839485 L59.7039297,26.1839485z" transform="matrix(1,0,0,-1,60.9960703,35.3839485)" fill="rgb(0,0,0)" stroke-linecap="round" stroke-linejoin="round" /><path d="M20.5811245,2.7529622 L20.5811245,2.7529622 20.5485607,2.7830799 20.5151518,2.8122121 20.4808737,2.840362 20.4457021,2.8675324 20.4096128,2.8937265 20.3725816,2.9189471 20.3345842,2.9431974 20.2955964,2.9664802 A1.25,1.25 60 0,1 19.0455964,2.9664802 L19.0455964,2.9664802 18.9956241,2.9365103 18.9470477,2.9050934 18.8998455,2.8721933 18.8539959,2.8377736 18.8094775,2.8017979 18.7662684,2.7642301 18.7243472,2.7250337 18.6836923,2.6841725 18.644282,2.6416101 18.6061236,2.5973449 18.5695717,2.5518389 18.5346784,2.5052818 18.5013673,2.4577198 18.4695621,2.409199 18.4391865,2.3597656 18.4101643,2.3094655 18.4101643,2.3094655 18.150124,2.2612185 17.8918229,2.2142643 17.6353491,2.1685833 17.380791,2.1241558 17.1282367,2.0809623 17.0027386,2.059822 16.8777745,2.0389829 16.7533554,2.0184424 16.6294925,1.9981981 16.5061966,1.9782475 16.383479,1.9585881 16.2613504,1.9392176 16.1398221,1.9201334 16.018905,1.9013331 15.8986101,1.8828142 15.7789485,1.8645743 15.6599312,1.8466109 15.5415693,1.8289215 15.4238737,1.8115037 15.3068555,1.7943551 15.1905256,1.7774732 15.0748953,1.7608554 14.9599754,1.7444994 14.8457769,1.7284028 14.732311,1.712563 14.6195886,1.6969775 14.5076208,1.681644 14.3964186,1.66656 14.285993,1.6517229 14.1763551,1.6371304 14.0675158,1.62278 13.9594863,1.6086693 13.8522774,1.5947957 13.7459004,1.5811569 13.6403661,1.5677503 13.5356856,1.5545735 13.4318699,1.541624 13.3289301,1.5288994 13.2268772,1.5163973 13.1257222,1.5041151 13.0254762,1.4920505 12.9261501,1.4802008 12.827755,1.4685638 12.7303019,1.4571369 12.6338019,1.4459177 12.538266,1.4349038 12.4433367,1.4240516 12.2530955,1.4025829 12.0622879,1.3814208 11.8709101,1.3605632 11.6789587,1.3400084 11.48643,1.3197544 11.2933204,1.2997994 11.0996264,1.2801415 10.9053443,1.2607787 10.7104706,1.2417092 10.5150016,1.2229311 10.3189339,1.2044425 10.1222637,1.1862415 9.9249874,1.1683262 9.7271016,1.1506948 9.5286026,1.1333453 9.3294868,1.1162758 9.1297506,1.0994845 8.9293905,1.0829695 8.7284028,1.0667289 8.5267839,1.0507607 8.3245303,1.0350631 8.1216383,1.0196343 7.9181044,1.0044722 7.713925,0.9895751 7.5090964,0.974941 7.3036152,0.960568 7.0974776,0.9464543 6.8906802,0.932598 6.6832193,0.9189971 6.4750912,0.9056498 6.2662926,0.8925542 6.0568196,0.8797084 5.8466688,0.8671105 5.6358366,0.8547586 5.4243193,0.8426509 5.2121133,0.8307854 4.9992152,0.8191602 4.7856212,0.8077735 4.5713279,0.7966234 4.3563315,0.7857079 4.1406285,0.7750252 3.9242154,0.7645734 3.7070884,0.7543506 3.4892441,0.7443549 3.2706789,0.7345844 3.0513891,0.7250373 2.8313711,0.7157116 2.6106214,0.7066054 2.3891364,0.6977169 2.1669124,0.6890442 1.9439459,0.6805854 1.7202334,0.6723385 1.4957711,0.6643017 1.2705555,0.6564732 1.0445831,0.6488509 0.8178501,0.6414331 0.5903531,0.6342178 0.3620885,0.6272032 0.1330526,0.6203873 -0.0967582,0.6137682 -0.3273474,0.6073442 -0.5587186,0.6011132 -0.7908754,0.5950734 -1.0238215,0.5892229 -1.2575604,0.5835598 -1.4920956,0.5780822 -1.7274309,0.5727883 -1.9635697,0.5676761 -2.2005157,0.5627437 -2.4382725,0.5579893 -2.6768436,0.553411 -2.9162327,0.5490068 -3.1564434,0.5447749 -3.3974791,0.5407134 -3.6393436,0.5368204 -3.8820405,0.533094 -4.1255732,0.5295324 -4.3699454,0.5261335 -4.6151608,0.5228957 -4.8612228,0.5198168 -5.1081351,0.5168951 -5.3559013,0.5141287 -5.6045249,0.5115157 -5.8540096,0.5090541 -6.104359,0.5067422 -6.3555766,0.5045779 -6.607666,0.5025595 -6.8606308,0.5006849 -7.1144747,0.4989525 -7.3692012,0.4973601 -7.6248139,0.495906 -7.8813164,0.4945883 -8.1387123,0.4934051 -8.3970051,0.4923544 -8.6561985,0.4914344 -8.9162961,0.4906432 -9.1773015,0.4899789 -9.4392182,0.4894397 -9.7020498,0.4890235 -9.9658,0.4887286 -10.2304723,0.4885531 -10.4960703,0.488495 -10.4960703,0.488495 -10.7691801,0.4885403 -11.041099,0.4886767 -11.3118315,0.4889047 -11.5813821,0.4892249 -11.8497553,0.489638 -12.1169556,0.4901444 -12.3829876,0.4907447 -12.6478556,0.4914396 -12.9115643,0.4922296 -13.1741181,0.4931153 -13.4355216,0.4940973 -13.6957793,0.4951762 -13.9548956,0.4963525 -14.2128751,0.4976268 -14.4697223,0.4989997 -14.7254417,0.5004718 -14.9800377,0.5020437 -15.233515,0.5037159 -15.485878,0.505489 -15.7371313,0.5073636 -15.9872792,0.5093404 -16.2363264,0.5114198 -16.4842774,0.5136024 -16.7311366,0.5158889 -16.9769086,0.5182798 -17.2215979,0.5207756 -17.4652089,0.5233771 -17.7077463,0.5260847 -17.9492144,0.528899 -18.1896179,0.5318207 -18.4289611,0.5348502 -18.6672487,0.5379882 -18.6672487,0.5379882 -18.6887007,0.5726544 -18.7095665,0.6080417 -18.7298754,0.6441197 -18.749657,0.6808579 -18.7689436,0.7182319 -18.7877658,0.7562152 -18.8061521,0.7947775 -18.824131,0.8338884 -18.8417311,0.8735176 -18.8589808,0.9136348 -18.8925429,0.995212 -18.9250455,1.0783774 -18.9567165,1.1628885 -18.9877839,1.2485028 -19.0184757,1.3349778 -19.0796446,1.5095395 -19.1420469,1.6846336 -19.1742806,1.7717739 -19.2075067,1.8583198 -19.2419532,1.9440286 -19.2778225,2.0286026 -19.3153166,2.1117613 -19.3347473,2.1527505 -19.3546736,2.1933147 -19.3751252,2.23343 -19.3961319,2.2730728 -19.4177234,2.3122193 -19.4399297,2.3508458 -19.4627804,2.3889285 -19.4863054,2.4264437 -19.5105344,2.4633677 -19.5354973,2.4996768 -19.5612237,2.5353472 -19.5877436,2.5703551 -19.6150324,2.6046104 -19.6429862,2.6379439 -19.6716211,2.6703514 -19.7009587,2.7018354 -19.7310207,2.7323988 -19.7618285,2.762044 -19.7934039,2.790774 -19.8257684,2.8185913 -19.8589437,2.8454986 -19.8929512,2.8714987 -19.9278127,2.8965942 -19.9635498,2.9207879 -20.000184,2.9440823 -20.037737,2.9664802 A1.25,1.25 60 0,1 -21.287737,2.9664802 L-21.287737,2.9664802 -21.3252088,2.944222 -21.3618746,2.9211763 -21.397745,2.8973297 -21.4328305,2.8726684 -21.4671418,2.8471789 -21.5006895,2.8208474 -21.5334844,2.7936604 -21.5655369,2.7656043 -21.5968579,2.7366652 -21.6274578,2.7068298 -21.6573473,2.6760842 -21.6865371,2.6444148 -21.7150378,2.6118081 -21.74286,2.5782504 -21.7699071,2.5438688 -21.7960211,2.5089082 -21.8212312,2.4733947 -21.8455694,2.4373506 -21.869068,2.4007985 -21.8917592,2.3637606 -21.9136752,2.3262592 -21.9348481,2.2883169 -21.9553101,2.249956 -21.9750934,2.2111987 -21.9942301,2.1720676 -22.0127525,2.132585 -22.0306928,2.0927733 -22.0480831,2.0526548 -22.0813532,1.971548 -22.1128227,1.8894278 -22.1427369,1.8065046 -22.1713414,1.7229891 -22.1988817,1.6390917 -22.2256031,1.555023 -22.2775713,1.3872141 -22.303309,1.303895 -22.3292098,1.2212469 -22.355519,1.1394803 -22.3824822,1.0588057 -22.4103448,0.9794338 -22.4393523,0.9015751 -22.4697593,0.8254168 -22.4855736,0.7880212 -22.5018375,0.7511174 -22.5185825,0.7147328 -22.5358403,0.6788951 -22.5536423,0.6436318 -22.5720201,0.6089706 -22.5720201,0.6089706 -22.7708727,0.6136932 -22.968933,0.6185176 -23.1662042,0.6234443 -23.3626897,0.6284738 -23.5583929,0.6336067 -23.7533171,0.6388434 -23.9474655,0.6441844 -24.1408415,0.6496303 -24.3334485,0.6551816 -24.5252898,0.6608386 -24.7163686,0.6666021 -24.9066884,0.6724723 -25.0962524,0.67845 -25.2850639,0.6845355 -25.4731264,0.6907293 -25.6604431,0.697032 -25.8470173,0.7034441 -26.0328524,0.709966 -26.2179517,0.7165984 -26.4023185,0.7233415 -26.5859562,0.7301961 -26.7688681,0.7371626 -26.9510574,0.7442414 -27.1325276,0.7514331 -27.3132819,0.7587382 -27.4933237,0.7661572 -27.6726563,0.7736905 -27.8512831,0.7813388 -28.0292073,0.7891025 -28.2064323,0.7969821 -28.3829614,0.804978 -28.5587979,0.8130909 -28.7339452,0.8213212 -28.9084065,0.8296694 -29.0821853,0.838136 -29.2552848,0.8467216 -29.4277084,0.8554265 -29.5994593,0.8642514 -29.770541,0.8731967 -29.9409567,0.8822629 -30.1107098,0.8914506 -30.2798036,0.9007601 -30.4482413,0.9101922 -30.6160265,0.9197471 -30.7831623,0.9294255 -30.9496521,0.9392279 -31.1154992,0.9491547 -31.2807069,0.9592064 -31.4452787,0.9693836 -31.6092177,0.9796868 -31.7725273,0.9901164 -31.9352109,1.000673 -32.0972718,1.011357 -32.2587133,1.022169 -32.4195387,1.0331095 -32.5797513,1.0441789 -32.7393545,1.0553778 -32.8983517,1.0667067 -33.056746,1.0781661 -33.2145409,1.0897564 -33.3717397,1.1014782 -33.5283457,1.1133321 -33.6843623,1.1253184 -33.8397927,1.1374377 -34.1489083,1.1620773 -34.4557193,1.1872549 -34.7602523,1.2129745 -35.0625338,1.2392402 -35.3625905,1.2660559 -35.6604489,1.2934258 -35.9561357,1.3213537 -36.1036742,1.3355754 -36.252952,1.3501568 -36.4040949,1.3651202 -36.557069,1.3804731 -36.7118401,1.3962228 -36.8683745,1.4123771 -37.0266382,1.4289432 -37.1865971,1.4459287 -37.3482175,1.4633411 -37.5114653,1.4811878 -37.6763065,1.4994763 -37.8427074,1.5182142 -38.0106338,1.5374089 -38.1800518,1.5570678 -38.3509276,1.5771984 -38.5232271,1.5978084 -38.6969164,1.618905 -38.8719617,1.6404958 -39.0483288,1.6625883 -39.2259839,1.6851899 -39.4048931,1.7083082 -39.5850223,1.7319506 -39.7663377,1.7561246 -39.9488053,1.7808377 -40.1323911,1.8060973 -40.3170612,1.831911 -40.5027818,1.8582862 -40.6895187,1.8852303 -40.8772381,1.912751 -41.065906,1.9408557 -41.2554885,1.9695518 -41.4459517,1.9988468 -41.6372615,2.0287482 -41.8293841,2.0592635 -42.0222855,2.0904002 -42.2159317,2.1221657 -42.4102889,2.1545675 -42.605323,2.1876132 -42.8010002,2.2213102 -42.9972864,2.2556659 -43.1941477,2.2906879 -43.3915503,2.3263836 -43.58946,2.3627605 -43.7878431,2.3998261 -43.9866655,2.4375879 -44.1858933,2.4760534 -44.3854926,2.51523 -44.5854294,2.5551252 -44.7856698,2.5957465 -44.9861798,2.6371014 -45.1869255,2.6791973 -45.3878729,2.7220418 -45.5889881,2.7656423 -45.7902371,2.8100063 -45.991586,2.8551413 -46.1930009,2.9010548 -46.3944478,2.9477542 -46.5958927,2.9952471 -46.7973018,3.0435408 -46.9986411,3.092643 -47.1998765,3.142561 -47.4009743,3.1933023 -47.6019004,3.2448745 -47.8026208,3.297285 -48.0031018,3.3505413 -48.2033092,3.4046508 -48.4032092,3.4596212 -48.6027677,3.5154597 -48.801951,3.572174 -49.0014802,3.6299941 -49.2023621,3.6892531 -49.4044701,3.7499619 -49.6076679,3.8121287 -49.8118194,3.8757617 -50.0167884,3.9408692 -50.2224387,4.0074594 -50.4286341,4.0755406 -50.6352383,4.1451209 -50.8421152,4.2162085 -51.0491286,4.2888118 -51.2561424,4.3629389 -51.4630202,4.438598 -51.6696259,4.5157975 -51.8758233,4.5945454 -52.0814763,4.67485 -52.2864485,4.7567196 -52.4906039,4.8401624 -52.6938062,4.9251866 -52.8959192,5.0118003 -53.0968067,5.100012 -53.2963326,5.1898297 -53.4943606,5.2812617 -53.6907545,5.3743162 -53.7882962,5.4214545 -53.8853782,5.4690015 -53.9819836,5.5169582 -54.0780954,5.5653258 -54.1736965,5.6141051 -54.26877,5.6632972 -54.3632987,5.7129032 -54.4572657,5.7629241 -54.5506539,5.8133609 -54.6434464,5.8642146 -54.735626,5.9154863 -54.8271758,5.967177 -54.9180787,6.0192877 -55.0083178,6.0718195 -55.0978759,6.1247733 -55.1865115,6.1780125 -55.2737286,6.2312326 -55.3595241,6.2844216 -55.4439131,6.3375783 -55.526911,6.3907016 -55.6085328,6.4437902 -55.6887937,6.4968432 -55.767709,6.5498594 -55.8452937,6.6028375 -55.921563,6.6557765 -55.9965322,6.7086753 -56.0702164,6.7615327 -56.1426307,6.8143476 -56.2137904,6.8671188 -56.2837106,6.9198451 -56.3524065,6.9725256 -56.4198933,7.0251589 -56.4861861,7.0777441 -56.5513001,7.1302798 -56.6152505,7.1827651 -56.6780524,7.2351988 -56.7397211,7.2875797 -56.8002717,7.3399067 -56.8597194,7.3921786 -56.9180793,7.4443944 -56.9753667,7.4965528 -57.0315967,7.5486528 -57.0867844,7.6006932 -57.1409451,7.6526728 -57.1940939,7.7045906 -57.246246,7.7564454 -57.2974166,7.8082361 -57.3476209,7.8599615 -57.3968739,7.9116204 -57.445191,7.9632118 -57.4925872,8.0147345 -57.5390777,8.0661874 -57.584803,8.1177134 -57.6299032,8.1694671 -57.6743826,8.2214532 -57.7182453,8.2736761 -57.7614957,8.3261404 -57.8041381,8.3788505 -57.8461765,8.4318109 -57.8876154,8.4850262 -57.9284589,8.5385008 -57.9687114,8.5922394 -58.0083769,8.6462463 -58.0474599,8.7005261 -58.0859645,8.7550834 -58.123895,8.8099225 -58.1612556,8.8650481 -58.1980505,8.9204646 -58.2342841,8.9761765 -58.2699606,9.0321884 -58.3050842,9.0885047 -58.3396592,9.14513 -58.3736897,9.2020688 -58.4071801,9.2593256 -58.4401347,9.3169049 -58.4725576,9.3748111 -58.504453,9.4330489 -58.5358254,9.4916227 -58.5666788,9.550537 -58.5970175,9.6097964 -58.6268459,9.6694053 -58.6561681,9.7293683 -58.6849883,9.7896898 -58.7133109,9.8503744 -58.7411401,9.9114266 -58.76848,9.9728509 -58.7953351,10.0346517 -58.8217094,10.0968337 -58.8476074,10.1594013 -58.8730331,10.2223591 -58.8979909,10.2857114 -58.922485,10.3494629 -58.9465196,10.4136181 -58.9700991,10.4781814 -58.9932275,10.5431574 -59.0159156,10.6085688 -59.03819,10.6744872 -59.0600555,10.7409263 -59.0815152,10.8078935 -59.102572,10.8753964 -59.1232288,10.9434427 -59.1434885,11.0120399 -59.1633541,11.0811956 -59.1828283,11.1509173 -59.2019143,11.2212127 -59.2206148,11.2920893 -59.2389328,11.3635547 -59.2568712,11.4356165 -59.2744329,11.5082823 -59.2916208,11.5815596 -59.3084379,11.655456 -59.3248871,11.7299791 -59.3409713,11.8051364 -59.3566933,11.8809357 -59.3720562,11.9573843 -59.3870628,12.03449 -59.4017161,12.1122603 -59.4160189,12.1907027 -59.4299742,12.2698249 -59.4435849,12.3496344 -59.456854,12.4301388 -59.4697842,12.5113458 -59.4823786,12.5932627 -59.4946401,12.6758973 -59.5065715,12.7592572 -59.5181758,12.8433498 -59.529456,12.9281829 -59.5404148,13.0137638 -59.5510553,13.1001004 -59.5613804,13.1872 -59.5713929,13.2750703 -59.5810958,13.3637189 -59.590492,13.4531534 -59.5995845,13.5433813 -59.608376,13.6344102 -59.6168697,13.7262477 -59.6250683,13.8189014 -59.6329748,13.9123788 -59.6405921,14.0066876 -59.6479231,14.1018352 -59.6549707,14.1978294 -59.6617379,14.2946776 -59.6682275,14.3923874 -59.6744425,14.4909665 -59.6803859,14.5904224 -59.6860604,14.6907627 -59.6914691,14.7919949 -59.6966148,14.8941266 -59.7015005,14.9971655 -59.706129,15.1011191 -59.7105033,15.2059949 -59.7146264,15.3118006 -59.7185011,15.4185438 -59.7221303,15.5262319 -59.7255169,15.6348727 -59.728664,15.7444736 -59.7315743,15.8550422 -59.7342508,15.9665862 -59.7366965,16.0791131 -59.7389142,16.1926305 -59.7409068,16.307146 -59.7426773,16.4226671 -59.7442286,16.5392014 -59.7455636,16.6567565 -59.7466852,16.77534 -59.7475964,16.8949595 -59.7483,17.0156225 -59.7487989,17.1373366 -59.7490962,17.2601094 -59.7491946,17.3839485 -59.7491946,17.3839485 -59.749108,17.4993318 -59.7488471,17.6136988 -59.7484103,17.7270572 -59.7477959,17.8394148 -59.7470023,17.9507793 -59.7460278,18.0611585 -59.7448708,18.1705603 -59.7435297,18.2789922 -59.7420027,18.3864623 -59.7402882,18.4929781 -59.7383847,18.5985475 -59.7362904,18.7031783 -59.7340036,18.8068782 -59.7315229,18.909655 -59.7288464,19.0115165 -59.7259725,19.1124704 -59.7228997,19.2125245 -59.7196262,19.3116867 -59.7161505,19.4099646 -59.7124708,19.507366 -59.7085855,19.6038987 -59.7044929,19.6995706 -59.7001915,19.7943893 -59.6956796,19.8883626 -59.6909554,19.9814983 -59.6860175,20.0738042 -59.6808641,20.165288 -59.6754935,20.2559576 -59.6699042,20.3458206 -59.6640945,20.4348849 -59.6580626,20.5231583 -59.6518071,20.6106485 -59.6453263,20.6973632 -59.6386184,20.7833103 -59.6316818,20.8684975 -59.624515,20.9529327 -59.6171162,21.0366235 -59.6094838,21.1195777 -59.6016162,21.2018032 -59.5935116,21.2833077 -59.5851686,21.3640989 -59.5765853,21.4441847 -59.5677602,21.5235728 -59.5586916,21.6022709 -59.5493779,21.6802869 -59.5398174,21.7576286 -59.5300084,21.8343036 -59.5199494,21.9103199 -59.5096387,21.9856851 -59.4990746,22.0604069 -59.4882555,22.1344933 -59.4771797,22.207952 -59.4658456,22.2807907 -59.4542516,22.3530172 -59.4423959,22.4246393 -59.430277,22.4956647 -59.4178931,22.5661013 -59.4052427,22.6359568 -59.3923242,22.7052389 -59.3791357,22.7739555 -59.3656758,22.8421144 -59.3519427,22.9097232 -59.3235939,23.0435773 -59.2940064,23.1758227 -59.263151,23.3064877 -59.2309982,23.4356002 -59.1975186,23.5631886 -59.1626829,23.6892809 -59.1264615,23.8139053 -59.0888252,23.9370899 -59.0497444,24.0588628 -59.0091899,24.1792523 -58.9671322,24.2982864 -58.923542,24.4159933 -58.8783897,24.5324012 -58.8316461,24.6475381 -58.7832817,24.7614323 -58.733267,24.8741119 -58.6815729,24.985605 -58.6281697,25.0959397 -58.5730281,25.2051443 -58.5161188,25.3132468 -58.4574123,25.4202754 -58.3968792,25.5262583 -58.3344901,25.6312235 -58.2702157,25.7351993 -58.2040264,25.8382138 -58.1701676,25.8894242 -58.135711,25.9405598 -58.1006469,25.9916234 -58.0649669,26.0426154 -58.0286629,26.0935365 -57.9917264,26.144387 -57.9541493,26.1951677 -57.9159233,26.2458788 -57.87704,26.2965211 -57.8374912,26.347095 -57.7972686,26.3976011 -57.756364,26.4480398 -57.714769,26.4984117 -57.6724753,26.5487173 -57.6294748,26.5989572 -57.5857591,26.6491318 -57.5413199,26.6992417 -57.4961489,26.7492874 -57.4502379,26.7992694 -57.4035786,26.8491884 -57.3561627,26.8990446 -57.3079819,26.9488388 -57.259028,26.9985714 -57.2092926,27.048243 -57.1587675,27.097854 -57.1074444,27.1474051 -57.055315,27.1968966 -57.002371,27.2463293 -56.9486042,27.2957034 -56.8940063,27.3450197 -56.838569,27.3942786 -56.7822839,27.4434806 -56.7251429,27.4926263 -56.6671377,27.5417162 -56.6082599,27.5907508 -56.5485014,27.6397306 -56.4878537,27.6886562 -56.4263087,27.7375281 -56.363858,27.7863468 -56.3004933,27.8351128 -56.2362065,27.8838266 -56.1709891,27.9324889 -56.104833,27.9811 -56.0377299,28.0296606 -55.9697097,28.078143 -55.9010139,28.126369 -55.8316934,28.1743077 -55.7617566,28.2219597 -55.6912121,28.2693256 -55.6200687,28.316406 -55.5483347,28.3632015 -55.4760188,28.4097127 -55.4031296,28.4559403 -55.3296756,28.5018847 -55.2556655,28.5475467 -55.1811077,28.5929269 -55.106011,28.6380257 -55.0303838,28.6828439 -54.8775724,28.7716407 -54.7227422,28.8593221 -54.5659618,28.9458929 -54.4072999,29.031358 -54.246825,29.1157221 -54.0846058,29.1989902 -53.9207109,29.281167 -53.755209,29.3622573 -53.5881687,29.442266 -53.4196586,29.521198 -53.2497473,29.5990579 -53.0785034,29.6758508 -52.9059956,29.7515814 -52.7322926,29.8262545 -52.5574629,29.8998749 -52.3815752,29.9724476 -52.204698,30.0439773 -52.0269001,30.1144688 -51.84825,30.183927 -51.6688164,30.2523567 -51.4886679,30.3197628 -51.3078731,30.38615 -51.1265007,30.4515232 -50.9446193,30.5158872 -50.7622975,30.5792469 -50.5796039,30.641607 -50.3966072,30.7029725 -50.2133759,30.7633481 -50.0299788,30.8227386 -49.8464844,30.881149 -49.6629615,30.938584 -49.4794785,30.9950484 -49.2961041,31.0505471 -49.112907,31.105085 -48.9299558,31.1586667 -48.7473191,31.2112972 -48.5650655,31.2629814 -48.3832637,31.3137239 -48.2019822,31.3635297 -48.0212898,31.4124036 -47.841255,31.4603504 -47.6619465,31.5073749 -47.4834329,31.553482 -47.3057829,31.5986765 -47.129065,31.6429633 -46.9533478,31.6863471 -46.7787001,31.7288327 -46.6045854,31.7705729 -46.4301484,31.8117889 -46.2553898,31.8524863 -46.0803183,31.8926689 -45.7292709,31.971505 -45.377075,32.0483275 -45.0237994,32.1231668 -44.6695128,32.1960532 -44.3142842,32.2670169 -43.9581822,32.3360883 -43.6012757,32.4032977 -43.2436335,32.4686754 -42.8853243,32.5322517 -42.526417,32.5940571 -42.1669804,32.6541217 -41.8070833,32.7124759 -41.4467944,32.76915 -41.0861826,32.8241743 -40.7253166,32.8775792 -40.3642653,32.9293949 -40.0030974,32.9796518 -39.6418818,33.0283803 -39.2806873,33.0756105 -38.9195826,33.1213728 -38.5586365,33.1656977 -38.1979179,33.2086152 -37.8374955,33.2501559 -37.4774382,33.29035 -37.1178147,33.3292277 -36.7586939,33.3668195 -36.4000024,33.4031691 -36.2199682,33.4209683 -36.0391404,33.4385503 -35.8575147,33.4559163 -35.6750867,33.4730671 -35.491852,33.4900038 -35.3078063,33.5067274 -35.122945,33.5232389 -34.9372639,33.5395393 -34.7507586,33.5556296 -34.5634246,33.5715107 -34.3752576,33.5871838 -34.1862532,33.6026497 -33.996407,33.6179095 -33.8057146,33.6329642 -33.6141716,33.6478148 -33.4217736,33.6624622 -33.2285163,33.6769075 -33.0343952,33.6911517 -32.839406,33.7051958 -32.6435443,33.7190407 -32.4468056,33.7326875 -32.2491857,33.7461372 -32.05068,33.7593907 -31.8512843,33.7724491 -31.6509941,33.7853134 -31.449805,33.7979845 -31.2477127,33.8104635 -31.0447128,33.8227514 -30.8408008,33.8348491 -30.6359725,33.8467576 -30.4302233,33.858478 -30.2235489,33.8700113 -30.015945,33.8813584 -29.8074071,33.8925204 -29.5979308,33.9034983 -29.3875118,33.9142929 -29.1761456,33.9249055 -28.9638279,33.9353368 -28.7505543,33.945588 -28.5363204,33.9556601 -28.3211218,33.965554 -28.1049541,33.9752707 -27.887813,33.9848113 -27.669694,33.9941767 -27.4505927,34.003368 -27.2305048,34.012386 -27.0094259,34.021232 -26.7873516,34.0299067 -26.5642775,34.0384113 -26.3401992,34.0467467 -26.1151123,34.0549139 -25.8890124,34.062914 -25.6618952,34.0707479 -25.4337562,34.0784166 -25.2045911,34.0859211 -24.9743955,34.0932624 -24.7431649,34.1004416 -24.5108951,34.1074596 -24.2775815,34.1143174 -24.0432199,34.121016 -23.8078058,34.1275564 -23.5713349,34.1339396 -23.3338027,34.1401667 -23.0952049,34.1462385 -22.855537,34.1521562 -22.6147947,34.1579207 -22.6147947,34.1579207 -22.5951402,34.1229442 -22.5759834,34.0873549 -22.5572973,34.051181 -22.5390539,34.0144472 -22.5212212,33.9771703 -22.5037732,33.9393767 -22.4699274,33.8623497 -22.4373097,33.783586 -22.4057133,33.7033051 -22.3749314,33.621727 -22.3447572,33.5390714 -22.314984,33.4555579 -22.285405,33.3714064 -22.2260024,33.2020682 -22.1957652,33.1173209 -22.1648951,33.0328146 -22.1331852,32.948769 -22.1004288,32.8654037 -22.0664244,32.7829505 -22.0310041,32.7017079 -21.9939614,32.6218714 -21.9747642,32.5825342 -21.9550804,32.5436131 -21.9348829,32.5051295 -21.9141449,32.4671051 -21.8928392,32.4295612 -21.8709388,32.3925196 -21.8484168,32.3560015 -21.8252461,32.3200287 -21.8013998,32.2846226 -21.7768508,32.2498047 -21.7515721,32.2155965 -21.7255407,32.1820246 -21.698849,32.1492531 -21.671531,32.1173506 -21.6435672,32.0863147 -21.614938,32.056143 -21.5856237,32.026833 -21.5556048,31.9983822 -21.5248617,31.9707882 -21.4933748,31.9440487 -21.4611246,31.9181611 -21.4280913,31.8931229 -21.3942556,31.8689319 -21.3595976,31.8455855 -21.324098,31.8230812 -21.287737,31.8014167 A1.25,1.25 240 0,1 -20.037737,31.8014167 L-20.037737,31.8014167 -19.999423,31.8241899 -19.9618484,31.8478539 -19.9250095,31.8724299 -19.8889026,31.8979389 -19.8535241,31.924402 -19.8188702,31.9518402 -19.7849374,31.9802746 -19.7517218,32.0097261 -19.7192199,32.040216 -19.6875532,32.0716367 -19.6568796,32.1038109 -19.627171,32.1367311 -19.5983976,32.1703914 -19.5705299,32.2047855 -19.5435381,32.2399074 -19.5173928,32.2757509 -19.4920641,32.31231 -19.4675231,32.3495776 -19.4438037,32.3874435 -19.4209156,32.4258176 -19.3988241,32.4646759 -19.3774945,32.5039945 -19.3568919,32.5437494 -19.3369815,32.5839166 -19.3177286,32.6244721 -19.2990984,32.6653919 -19.281056,32.7066522 -19.2635668,32.7482289 -19.2301085,32.8322355 -19.1984453,32.9172202 -19.1682988,33.002991 -19.1393909,33.0893555 -19.1114657,33.176051 -19.0842652,33.2628099 -19.0309564,33.4355911 -19.0043075,33.5211498 -18.9773016,33.6058449 -18.9496683,33.6894446 -18.9211374,33.7717172 -18.8914383,33.852431 -18.8760662,33.8921308 -18.8603006,33.931354 -18.8441079,33.9700716 -18.8274541,34.0082547 -18.8102834,34.0459219 -18.7924248,34.0833184 -18.7738141,34.1204242 -18.7544095,34.1571686 -18.7341689,34.1934812 -18.7130505,34.2292914 -18.7130505,34.2292914 -18.4722217,34.2324863 -18.230399,34.2355691 -17.9875788,34.2385405 -17.7437576,34.2414013 -17.498932,34.244152 -17.2530983,34.2467935 -17.0062531,34.2493264 -16.7583928,34.2517514 -16.509514,34.2540692 -16.259613,34.2562805 -16.0086864,34.258386 -15.7567306,34.2603865 -15.5037422,34.2622825 -15.2497176,34.2640749 -14.9946532,34.2657642 -14.7385456,34.2673513 -14.4813913,34.2688368 -14.2231867,34.2702213 -13.9639282,34.2715057 -13.7036125,34.2726905 -13.4422359,34.2737766 -13.1797949,34.2747646 -12.9162861,34.2756551 -12.6517058,34.2764489 -12.3860506,34.2771468 -12.119317,34.2777493 -11.8515013,34.2782572 -11.5826002,34.2786712 -11.3126101,34.278992 -11.0415274,34.2792202 -10.7693486,34.2793567 -10.4960703,34.279402 -10.4960703,34.279402 -10.2053927,34.279332 -9.9161778,34.2791209 -9.6284162,34.278767 -9.3420983,34.2782685 -9.0572149,34.2776238 -8.7737566,34.2768311 -8.491714,34.2758887 -8.2110776,34.2747949 -7.9318381,34.2735481 -7.6539861,34.2721464 -7.3775121,34.2705882 -7.1024069,34.2688717 -6.828661,34.2669953 -6.5562649,34.2649572 -6.2852094,34.2627557 -6.0154851,34.2603892 -5.7470824,34.2578558 -5.4799921,34.2551539 -5.2142047,34.2522818 -4.9497109,34.2492377 -4.6865013,34.24602 -4.4245664,34.2426269 -4.1638968,34.2390567 -3.9044833,34.2353077 -3.6463163,34.2313782 -3.3893865,34.2272665 -3.1336845,34.2229709 -2.8792009,34.2184896 -2.6259263,34.2138209 -2.3738513,34.2089632 -2.1229666,34.2039147 -1.8732626,34.1986736 -1.6247301,34.1932384 -1.3773597,34.1876072 -1.1311419,34.1817784 -0.8860673,34.1757503 -0.6421266,34.1695211 -0.3993104,34.1630891 -0.1576092,34.1564526 0.0829863,34.1496099 0.3224855,34.1425594 0.5608978,34.1352991 0.7982326,34.1278276 1.0344994,34.120143 1.2697074,34.1122436 1.5038661,34.1041277 1.7369848,34.0957937 1.9690731,34.0872397 2.2001402,34.0784641 2.4301955,34.0694652 2.6592486,34.0602413 2.8873086,34.0507906 3.1143851,34.0411114 3.3404874,34.031202 3.565625,34.0210608 3.7898072,34.0106859 4.0130434,34.0000758 4.235343,33.9892286 4.4567154,33.9781426 4.67717,33.9668162 4.8967161,33.9552476 5.1153633,33.9434352 5.3331208,33.9313771 5.5499981,33.9190717 5.7660046,33.9065173 5.9811496,33.8937122 6.1954426,33.8806546 6.4088929,33.8673429 6.62151,33.8537753 6.8333031,33.8399501 7.0442819,33.8258656 7.2544555,33.8115201 7.4638334,33.7969118 7.672425,33.7820392 7.8802398,33.7669003 8.087287,33.7514937 8.2935761,33.7358174 8.4991165,33.7198699 8.7039175,33.7036493 8.9079887,33.687154 9.1113392,33.6703823 9.3139787,33.6533325 9.5159164,33.6360028 9.7171617,33.6183916 9.917724,33.600497 10.1176128,33.5823175 10.3168374,33.5638513 10.5154072,33.5450967 10.9109228,33.5066833 11.3064008,33.4668232 11.702231,33.4254366 12.0983522,33.3824896 12.4947026,33.3379484 12.8912209,33.2917791 13.2878457,33.2439481 13.6845153,33.1944213 14.0811684,33.143165 14.4777435,33.0901454 14.874179,33.0353286 15.2704136,32.9786808 15.6663857,32.9201681 16.0620339,32.8597568 16.4572967,32.7974129 16.8521126,32.7331027 17.2464201,32.6667923 17.6401578,32.5984479 18.0332642,32.5280357 18.4256778,32.4555218 18.4256778,32.4555218 18.4549512,32.4049471 18.48535,32.3553215 18.516942,32.3066987 18.5497947,32.2591324 18.5839758,32.2126766 18.6195147,32.1674319 18.6562275,32.123731 18.6941201,32.0816239 18.7332415,32.0411047 18.7736404,32.0021671 18.8153657,31.9648052 18.8584662,31.9290127 18.9029907,31.8947838 18.948988,31.8621122 18.9965069,31.8309918 19.0455964,31.8014167 A1.25,1.25 240 0,1 20.2955964,31.8014167 L20.2955964,31.8014167 20.3347016,31.8246741 20.3729944,31.848833 20.4104822,31.8739133 20.4471719,31.8999348 20.483071,31.9269174 20.5181864,31.9548811 20.5525255,31.9838456 20.5860955,32.013831 20.5860955,32.013831 20.8158696,31.9623479 21.0452441,31.9100351 21.2742056,31.8568837 21.5027407,31.8028851 21.730836,31.7480304 21.9584781,31.6923108 22.1856538,31.6357175 22.4123496,31.5782418 22.6386637,31.5198458 22.8657307,31.4602134 23.0937778,31.3992523 23.3227133,31.3369515 23.5524455,31.2733003 23.7828828,31.2082881 24.0139334,31.141904 24.2455056,31.0741372 24.4775079,31.0049771 24.7098486,30.9344128 24.9424359,30.8624336 25.1751781,30.7890288 25.4079837,30.7141875 25.640761,30.6378991 25.8734182,30.5601528 26.1058637,30.4809378 26.3380058,30.4002433 26.5697528,30.3180586 26.8010131,30.234373 27.031695,30.1491757 27.2617069,30.0624559 27.4909569,29.9742029 27.7193535,29.884406 27.9468051,29.7930542 28.1732198,29.700137 28.3985061,29.6056436 28.6225723,29.5095631 28.8453266,29.4118849 29.0666775,29.3125982 29.2865332,29.2116922 29.5048021,29.1091561 29.7213925,29.0049793 29.8290296,28.9522722 29.9362127,28.8991509 30.0429303,28.845614 30.149171,28.7916602 30.2549234,28.7372882 30.3601759,28.6824965 30.4649171,28.6272839 30.5691355,28.5716489 30.6728197,28.5155904 30.7759582,28.4591068 30.8785396,28.4021969 30.9805524,28.3448594 31.0819852,28.2870928 31.182646,28.2290029 31.281929,28.1709496 31.3797982,28.112964 31.4762671,28.0550481 31.5713492,27.9972041 31.665058,27.9394341 31.757407,27.8817403 31.8484097,27.8241246 31.9380795,27.7665893 32.0264301,27.7091365 32.1134748,27.6517682 32.1992272,27.5944865 32.2837008,27.5372936 32.3669091,27.4801916 32.4488655,27.4231826 32.5295836,27.3662687 32.6090769,27.309452 32.6873589,27.2527346 32.764443,27.1961187 32.8403428,27.1396063 32.9150718,27.0831995 32.9886434,27.0269005 33.0610712,26.9707114 33.1323686,26.9146342 33.2025492,26.8586712 33.2716264,26.8028243 33.3396139,26.7470958 33.4065249,26.6914876 33.4723731,26.636002 33.537172,26.580641 33.600935,26.5254068 33.6636756,26.4703014 33.7254074,26.415327 33.7861438,26.3604857 33.8458984,26.3057796 33.9046846,26.2512107 33.9625159,26.1967813 34.0194059,26.1424934 34.075368,26.0883491 34.1304158,26.0343505 34.1845626,25.9804998 34.2378221,25.926799 34.2902077,25.8732503 34.3417329,25.8198558 34.3924113,25.7666175 34.4422563,25.7135377 34.4912814,25.6606183 34.5875513,25.5545283 34.6819633,25.4475077 34.7745204,25.3395355 34.8652254,25.2305913 34.9540808,25.1206546 35.0410891,25.0097052 35.1262532,24.8977227 35.2095754,24.7846865 35.2910585,24.6705764 35.3707051,24.5553719 35.4485177,24.4390527 35.524499,24.3215984 35.5986515,24.2029885 35.6709779,24.0832027 35.7414808,23.9622206 35.8101629,23.8400218 35.8770266,23.7165859 35.9420746,23.5918925 36.0053095,23.4659213 36.066734,23.3386518 36.1263506,23.2100636 36.1841619,23.0801364 36.2401706,22.9488497 36.2943793,22.8161832 36.3467889,22.682122 36.3973743,22.5467549 36.4461387,22.4100984 36.4930989,22.2721248 36.5382716,22.1328067 36.5816738,21.9921165 36.6233221,21.8500267 36.6632333,21.7065097 36.7014244,21.5615382 36.737912,21.4150844 36.772713,21.2671208 36.8058441,21.11762 36.8373222,20.9665544 36.8671641,20.8138965 36.8953865,20.6596187 36.9220063,20.5036935 36.9470402,20.3460934 36.970505,20.1867909 36.9924177,20.0257583 37.0127948,19.8629682 37.0316533,19.698393 37.0490099,19.5320053 37.0648815,19.3637774 37.0792848,19.1936819 37.0922367,19.0216912 37.0981736,18.9349766 37.1037539,18.8477778 37.1089797,18.7600914 37.1138532,18.6719141 37.1183764,18.5832423 37.1225514,18.4940726 37.1263804,18.4044016 37.1298654,18.3142258 37.1330085,18.2235418 37.1358118,18.1323462 37.1382775,18.0406355 37.1404076,17.9484062 37.1422043,17.8556549 37.1436695,17.7623782 37.1448055,17.6685727 37.1456144,17.5742349 37.1460981,17.4793613 37.1462589,17.3839485 37.1462589,17.3839485 37.1460875,17.2849215 37.1455705,17.1863854 37.1434848,16.9907737 37.1399713,16.797089 37.1349992,16.6053071 37.1285381,16.4154037 37.1205572,16.2273545 37.111026,16.0411352 37.1056694,15.9487042 37.0999138,15.8567216 37.0937553,15.7651843 37.08719,15.6740894 37.0802143,15.5834337 37.0728241,15.4932143 37.0650158,15.403428 37.0567854,15.314072 37.0481291,15.225143 37.0390432,15.1366382 37.0295238,15.0485544 37.019567,14.9608887 37.0091691,14.873638 36.9983261,14.7867992 36.9870344,14.7003694 36.97529,14.6143454 36.9630892,14.5287243 36.950428,14.443503 36.9373027,14.3586786 36.9237095,14.2742478 36.9096445,14.1902078 36.8951038,14.1065555 36.8800838,14.0232878 36.8645804,13.9404017 36.84859,13.8578942 36.8321087,13.7757622 36.8151326,13.6940028 36.7976578,13.6126122 36.7611259,13.4506602 36.7420435,13.3700474 36.7224081,13.289676 36.702213,13.2095457 36.6814517,13.129656 36.6601176,13.0500064 36.6382041,12.9705967 36.6157047,12.8914262 36.5926127,12.8124947 36.5689216,12.7338015 36.5446248,12.6553464 36.5197158,12.5771289 36.4941879,12.4991484 36.4680346,12.4214047 36.4412492,12.3438973 36.4138253,12.2666256 36.3857562,12.1895894 36.3570354,12.1127881 36.3276563,12.0362213 36.2976122,11.9598886 36.2668967,11.8837895 36.2355031,11.8079236 36.2034249,11.7322905 36.1706555,11.6568898 36.1371882,11.5817209 36.1030166,11.5067835 36.068134,11.4320771 36.0325339,11.3576013 35.9962097,11.2833557 35.9591548,11.2093398 35.9213627,11.1355531 35.8828267,11.0619953 35.8435402,10.9886659 35.8034706,10.9155123 35.762586,10.8424886 35.7208762,10.7695946 35.6783312,10.6968299 35.6349408,10.6241942 35.590695,10.5516871 35.5455835,10.4793083 35.4995963,10.4070576 35.4527233,10.3349346 35.4049543,10.262939 35.3562792,10.1910705 35.306688,10.1193287 35.2561704,10.0477134 35.2047164,9.9762241 35.1523159,9.9048607 35.0989586,9.8336228 35.0446347,9.76251 34.9893338,9.6915221 34.9330459,9.6206587 34.8757608,9.5499195 34.8174685,9.4793042 34.7581588,9.4088124 34.6978217,9.338444 34.6364469,9.2681985 34.5740244,9.1980755 34.5105441,9.1280749 34.4459958,9.0581963 34.3803695,8.9884394 34.3136549,8.9188038 34.245842,8.8492892 34.1769207,8.7798953 34.1068809,8.7106218 34.0357124,8.6414685 33.9634051,8.5724348 33.8899489,8.5035206 33.8153337,8.4347256 33.7395493,8.3660493 33.6625857,8.2974915 33.5844327,8.2290519 33.5050803,8.1607301 33.4245182,8.0925259 33.3427364,8.0244389 33.2597936,7.9565271 33.1760581,7.8891022 33.0915993,7.8222088 33.0064333,7.7558454 32.9205757,7.6900103 32.8340427,7.6247019 32.7468499,7.5599186 32.6590134,7.4956589 32.570549,7.4319211 32.4814726,7.3687035 32.3918001,7.3060047 32.3015473,7.243823 32.2107303,7.1821568 32.1193648,7.1210045 32.0274668,7.0603645 31.9350521,7.0002351 31.8421366,6.9406148 31.7487363,6.881502 31.6548669,6.8228951 31.5605445,6.7647925 31.4657849,6.7071925 31.370604,6.6500936 31.2750176,6.5934941 31.1790417,6.5373925 31.0826922,6.4817871 30.9859849,6.4266764 30.7915606,6.3179324 30.5958959,6.2111478 30.399118,6.1063096 30.2013541,6.0034052 30.0027311,5.9024215 29.8033763,5.8033458 29.6034168,5.7061653 29.4029796,5.6108671 29.202192,5.5174384 29.001181,5.4258663 28.8000737,5.3361381 28.5989973,5.2482408 28.3980788,5.1621617 28.1974455,5.077888 27.9972244,4.9954067 27.7975427,4.914705 27.5985274,4.8357702 27.4003057,4.7585894 27.2030047,4.6831497 27.0067516,4.6094384 26.8116734,4.5374425 26.6178973,4.4671493 26.4255504,4.3985459 26.2347597,4.3316195 26.1399878,4.2987812 26.0456526,4.2663573 25.95177,4.2343462 25.8583559,4.2027463 25.7654263,4.1715561 25.672997,4.1407739 25.5810839,4.1103981 25.4897028,4.0804271 25.3988698,4.0508593 25.3086006,4.0216931 25.2189112,3.9929269 25.1298174,3.9645591 25.0413351,3.9365881 24.9534803,3.9090123 24.7784932,3.8546673 24.6033455,3.8010375 24.4280541,3.7481161 24.2526416,3.695898 24.0771307,3.6443783 23.901544,3.5935521 23.7259041,3.5434142 23.5502337,3.4939598 23.3745555,3.4451837 23.1988922,3.3970811 23.0232663,3.349647 22.8477005,3.3028763 22.6722175,3.2567641 22.49684,3.2113054 22.3215905,3.1664952 22.1464918,3.1223285 21.9715665,3.0788002 21.7968372,3.0359055 21.6223266,2.9936394 21.4480574,2.9519968 21.2740522,2.9109727 21.1003336,2.8705622 20.9269244,2.8307603 20.7538471,2.791562 20.5811245,2.7529622z" transform="matrix(1,0,0,-1,60.9960703,35.3839485)" fill="rgb(255,255,255)" stroke="rgb(0,0,0)" stroke-width="0.0010cm" stroke-linecap="round" stroke-linejoin="round" /><path d="M49.0289297,27.3052688 a0.475,0.475 0 1,1 0.95,0 a0.475,0.475 0 1,1 -0.95,0z" transform="matrix(1,0,0,-1,60.9960703,35.3839485)" fill="rgb(255,255,255)" stroke="rgb(0,0,0)" stroke-width="0.0010cm" stroke-linecap="round" stroke-linejoin="round" /><path d="M57.0289297,27.3052688 a0.475,0.475 0 1,1 0.95,0 a0.475,0.475 0 1,1 -0.95,0z" transform="matrix(1,0,0,-1,60.9960703,35.3839485)" fill="rgb(255,255,255)" stroke="rgb(0,0,0)" stroke-width="0.0010cm" stroke-linecap="round" stroke-linejoin="round" /><path d="M41.0289297,26.6839485 a0.475,0.475 0 1,1 0.95,0 a0.475,0.475 0 1,1 -0.95,0z" transform="matrix(1,0,0,-1,60.9960703,35.3839485)" fill="rgb(255,255,255)" stroke="rgb(0,0,0)" stroke-width="0.0010cm" stroke-linecap="round" stroke-linejoin="round" /><path d="M57.0289297,7.4626281 a0.475,0.475 0 1,1 0.95,0 a0.475,0.475 0 1,1 -0.95,0z" transform="matrix(1,0,0,-1,60.9960703,35.3839485)" fill="rgb(255,255,255)" stroke="rgb(0,0,0)" stroke-width="0.0010cm" stroke-linecap="round" stroke-linejoin="round" /><path d="M40.4076094,21.3839485 a0.475,0.475 0 1,1 0.95,0 a0.475,0.475 0 1,1 -0.95,0z" transform="matrix(1,0,0,-1,60.9960703,35.3839485)" fill="rgb(255,255,255)" stroke="rgb(0,0,0)" stroke-width="0.0010cm" stroke-linecap="round" stroke-linejoin="round" /><path d="M40.4076094,13.3839485 a0.475,0.475 0 1,1 0.95,0 a0.475,0.475 0 1,1 -0.95,0z" transform="matrix(1,0,0,-1,60.9960703,35.3839485)" fill="rgb(255,255,255)" stroke="rgb(0,0,0)" stroke-width="0.0010cm" stroke-linecap="round" stroke-linejoin="round" /><path d="M49.0289297,7.4626281 a0.475,0.475 0 1,1 0.95,0 a0.475,0.475 0 1,1 -0.95,0z" transform="matrix(1,0,0,-1,60.9960703,35.3839485)" fill="rgb(255,255,255)" stroke="rgb(0,0,0)" stroke-width="0.0010cm" stroke-linecap="round" stroke-linejoin="round" /><path d="M41.0289297,8.0839485 a0.475,0.475 0 1,1 0.95,0 a0.475,0.475 0 1,1 -0.95,0z" transform="matrix(1,0,0,-1,60.9960703,35.3839485)" fill="rgb(255,255,255)" stroke="rgb(0,0,0)" stroke-width="0.0010cm" stroke-linecap="round" stroke-linejoin="round" /><path d="M57.1089297,32.8839485 a0.395,0.395 0 1,1 0.79,0 a0.395,0.395 0 1,1 -0.79,0z" transform="matrix(1,0,0,-1,60.9960703,35.3839485)" fill="rgb(255,255,255)" stroke="rgb(0,0,0)" stroke-width="0.0010cm" stroke-linecap="round" stroke-linejoin="round" /><path d="M19.2755964,32.8839485 a0.395,0.395 0 1,1 0.79,0 a0.395,0.395 0 1,1 -0.79,0z" transform="matrix(1,0,0,-1,60.9960703,35.3839485)" fill="rgb(255,255,255)" stroke="rgb(0,0,0)" stroke-width="0.0010cm" stroke-linecap="round" stroke-linejoin="round" /><path d="M19.2755964,1.8839485 a0.395,0.395 0 1,1 0.79,0 a0.395,0.395 0 1,1 -0.79,0z" transform="matrix(1,0,0,-1,60.9960703,35.3839485)" fill="rgb(255,255,255)" stroke="rgb(0,0,0)" stroke-width="0.0010cm" stroke-linecap="round" stroke-linejoin="round" /><path d="M-58.8910703,32.8839485 a0.395,0.395 0 1,1 0.79,0 a0.395,0.395 0 1,1 -0.79,0z" transform="matrix(1,0,0,-1,60.9960703,35.3839485)" fill="rgb(255,255,255)" stroke="rgb(0,0,0)" stroke-width="0.0010cm" stroke-linecap="round" stroke-linejoin="round" /><path d="M-21.057737,1.8839485 a0.395,0.395 0 1,1 0.79,0 a0.395,0.395 0 1,1 -0.79,0z" transform="matrix(1,0,0,-1,60.9960703,35.3839485)" fill="rgb(255,255,255)" stroke="rgb(0,0,0)" stroke-width="0.0010cm" stroke-linecap="round" stroke-linejoin="round" /><path d="M57.1089297,1.8839485 a0.395,0.395 0 1,1 0.79,0 a0.395,0.395 0 1,1 -0.79,0z" transform="matrix(1,0,0,-1,60.9960703,35.3839485)" fill="rgb(255,255,255)" stroke="rgb(0,0,0)" stroke-width="0.0010cm" stroke-linecap="round" stroke-linejoin="round" /><path d="M-21.057737,32.8839485 a0.395,0.395 0 1,1 0.79,0 a0.395,0.395 0 1,1 -0.79,0z" transform="matrix(1,0,0,-1,60.9960703,35.3839485)" fill="rgb(255,255,255)" stroke="rgb(0,0,0)" stroke-width="0.0010cm" stroke-linecap="round" stroke-linejoin="round" /><path d="M-58.8910703,1.8839485 a0.395,0.395 0 1,1 0.79,0 a0.395,0.395 0 1,1 -0.79,0z" transform="matrix(1,0,0,-1,60.9960703,35.3839485)" fill="rgb(255,255,255)" stroke="rgb(0,0,0)" stroke-width="0.0010cm" stroke-linecap="round" stroke-linejoin="round" /></svg>