<?xml version="1.0" encoding="UTF-8" standalone="no"?>
<!-- Generator: Fusion 360, Shaper Origin Export Add-In, Version 1.8.0  -->

<svg
   shaper:fusionaddin="version:1.8.0"
   width="128cm"
   height="36cm"
   version="1.1"
   x="0cm"
   y="0cm"
   viewBox="0 0 128 36"
   enable-background="new 0 0 128 36"
   xml:space="preserve"
   id="svg15994"
   sodipodi:docname="corpus_2_Faces.svg"
   inkscape:version="1.2.2 (732a01da63, 2022-12-09)"
   xmlns:inkscape="http://www.inkscape.org/namespaces/inkscape"
   xmlns:sodipodi="http://sodipodi.sourceforge.net/DTD/sodipodi-0.dtd"
   xmlns="http://www.w3.org/2000/svg"
   xmlns:svg="http://www.w3.org/2000/svg"
   xmlns:shaper="http://www.shapertools.com/namespaces/shaper"><defs
     id="defs15998" /><sodipodi:namedview
     id="namedview15996"
     pagecolor="#505050"
     bordercolor="#eeeeee"
     borderopacity="1"
     inkscape:showpageshadow="0"
     inkscape:pageopacity="0"
     inkscape:pagecheckerboard="0"
     inkscape:deskcolor="#505050"
     inkscape:document-units="cm"
     showgrid="false"
     inkscape:zoom="0.27078451"
     inkscape:cx="2306.2619"
     inkscape:cy="681.35361"
     inkscape:window-width="1920"
     inkscape:window-height="991"
     inkscape:window-x="-9"
     inkscape:window-y="-9"
     inkscape:window-maximized="1"
     inkscape:current-layer="svg15994" /><g
     id="g16135"
     style="fill:none;stroke:#000000;stroke-opacity:1;stroke-width:0.1;stroke-dasharray:none"><path
       d="M-63.2883602,28.1945951 L-63.2883602,26.1945951 -46.5883602,26.1945951 A1,1 90 0,0 -45.5883602,25.1945951 L-45.5883602,9.5945951 A1,1 0 0,0 -46.5883602,8.5945951 L-63.2883602,8.5945951 -63.2883602,6.5945951 -63.5883602,6.5945951 -63.5883602,0.7945951 A1.4,1.4 180 0,1 -62.1883602,-0.6054049 L63.0116398,-0.6054049 A1.4,1.4 270 0,1 64.4116398,0.7945951 L64.4116398,33.9945951 A1.4,1.4 0 0,1 63.0116398,35.3945951 L-62.1883602,35.3945951 A1.4,1.4 90 0,1 -63.5883602,33.9945951 L-63.5883602,28.1945951 -63.2883602,28.1945951z"
       transform="matrix(1,0,0,-1,63.5883602,35.3945951)"
       fill="rgb(0,0,0)"
       stroke-linecap="round"
       stroke-linejoin="round"
       id="path15958"
       style="fill:none;stroke:#000000;stroke-opacity:1;stroke-width:0.1;stroke-dasharray:none" /><path
       d="M-21.3316935,32.8945951 a0.41,0.41 0 1,1 0.82,0 a0.41,0.41 0 1,1 -0.82,0z"
       transform="matrix(1,0,0,-1,63.5883602,35.3945951)"
       fill="rgb(255,255,255)"
       stroke="rgb(0,0,0)"
       stroke-width="0.0010cm"
       stroke-linecap="round"
       stroke-linejoin="round"
       id="path15960"
       style="fill:none;stroke:#000000;stroke-opacity:1;stroke-width:0.1;stroke-dasharray:none" /><path
       d="M61.5016398,32.8945951 a0.41,0.41 0 1,1 0.82,0 a0.41,0.41 0 1,1 -0.82,0z"
       transform="matrix(1,0,0,-1,63.5883602,35.3945951)"
       fill="rgb(255,255,255)"
       stroke="rgb(0,0,0)"
       stroke-width="0.0010cm"
       stroke-linecap="round"
       stroke-linejoin="round"
       id="path15962"
       style="fill:none;stroke:#000000;stroke-opacity:1;stroke-width:0.1;stroke-dasharray:none" /><path
       d="M61.5016398,1.8945951 a0.41,0.41 0 1,1 0.82,0 a0.41,0.41 0 1,1 -0.82,0z"
       transform="matrix(1,0,0,-1,63.5883602,35.3945951)"
       fill="rgb(255,255,255)"
       stroke="rgb(0,0,0)"
       stroke-width="0.0010cm"
       stroke-linecap="round"
       stroke-linejoin="round"
       id="path15964"
       style="fill:none;stroke:#000000;stroke-opacity:1;stroke-width:0.1;stroke-dasharray:none" /><path
       d="M-61.4983602,32.8945951 a0.41,0.41 0 1,1 0.82,0 a0.41,0.41 0 1,1 -0.82,0z"
       transform="matrix(1,0,0,-1,63.5883602,35.3945951)"
       fill="rgb(255,255,255)"
       stroke="rgb(0,0,0)"
       stroke-width="0.0010cm"
       stroke-linecap="round"
       stroke-linejoin="round"
       id="path15966"
       style="fill:none;stroke:#000000;stroke-opacity:1;stroke-width:0.1;stroke-dasharray:none" /><path
       d="M21.3349732,32.8945951 a0.41,0.41 0 1,1 0.82,0 a0.41,0.41 0 1,1 -0.82,0z"
       transform="matrix(1,0,0,-1,63.5883602,35.3945951)"
       fill="rgb(255,255,255)"
       stroke="rgb(0,0,0)"
       stroke-width="0.0010cm"
       stroke-linecap="round"
       stroke-linejoin="round"
       id="path15968"
       style="fill:none;stroke:#000000;stroke-opacity:1;stroke-width:0.1;stroke-dasharray:none" /><path
       d="M21.3349732,1.8945951 a0.41,0.41 0 1,1 0.82,0 a0.41,0.41 0 1,1 -0.82,0z"
       transform="matrix(1,0,0,-1,63.5883602,35.3945951)"
       fill="rgb(255,255,255)"
       stroke="rgb(0,0,0)"
       stroke-width="0.0010cm"
       stroke-linecap="round"
       stroke-linejoin="round"
       id="path15970"
       style="fill:none;stroke:#000000;stroke-opacity:1;stroke-width:0.1;stroke-dasharray:none" /><path
       d="M-21.3316935,1.8945951 a0.41,0.41 0 1,1 0.82,0 a0.41,0.41 0 1,1 -0.82,0z"
       transform="matrix(1,0,0,-1,63.5883602,35.3945951)"
       fill="rgb(255,255,255)"
       stroke="rgb(0,0,0)"
       stroke-width="0.0010cm"
       stroke-linecap="round"
       stroke-linejoin="round"
       id="path15972"
       style="fill:none;stroke:#000000;stroke-opacity:1;stroke-width:0.1;stroke-dasharray:none" /><path
       d="M-61.4983602,1.8945951 a0.41,0.41 0 1,1 0.82,0 a0.41,0.41 0 1,1 -0.82,0z"
       transform="matrix(1,0,0,-1,63.5883602,35.3945951)"
       fill="rgb(255,255,255)"
       stroke="rgb(0,0,0)"
       stroke-width="0.0010cm"
       stroke-linecap="round"
       stroke-linejoin="round"
       id="path15974"
       style="fill:none;stroke:#000000;stroke-opacity:1;stroke-width:0.1;stroke-dasharray:none" /><path
       d="M-44.9420398,21.3945951 a0.475,0.475 0 1,1 0.95,0 a0.475,0.475 0 1,1 -0.95,0z"
       transform="matrix(1,0,0,-1,63.5883602,35.3945951)"
       fill="rgb(255,255,255)"
       stroke="rgb(0,0,0)"
       stroke-width="0.0010cm"
       stroke-linecap="round"
       stroke-linejoin="round"
       id="path15976"
       style="fill:none;stroke:#000000;stroke-opacity:1;stroke-width:0.1;stroke-dasharray:none" /><path
       d="M-44.9420398,13.3945951 a0.475,0.475 0 1,1 0.95,0 a0.475,0.475 0 1,1 -0.95,0z"
       transform="matrix(1,0,0,-1,63.5883602,35.3945951)"
       fill="rgb(255,255,255)"
       stroke="rgb(0,0,0)"
       stroke-width="0.0010cm"
       stroke-linecap="round"
       stroke-linejoin="round"
       id="path15978"
       style="fill:none;stroke:#000000;stroke-opacity:1;stroke-width:0.1;stroke-dasharray:none" /><path
       d="M-61.5633602,7.4732747 a0.475,0.475 0 1,1 0.95,0 a0.475,0.475 0 1,1 -0.95,0z"
       transform="matrix(1,0,0,-1,63.5883602,35.3945951)"
       fill="rgb(255,255,255)"
       stroke="rgb(0,0,0)"
       stroke-width="0.0010cm"
       stroke-linecap="round"
       stroke-linejoin="round"
       id="path15980"
       style="fill:none;stroke:#000000;stroke-opacity:1;stroke-width:0.1;stroke-dasharray:none" /><path
       d="M-53.5633602,27.3159154 a0.475,0.475 0 1,1 0.95,0 a0.475,0.475 0 1,1 -0.95,0z"
       transform="matrix(1,0,0,-1,63.5883602,35.3945951)"
       fill="rgb(255,255,255)"
       stroke="rgb(0,0,0)"
       stroke-width="0.0010cm"
       stroke-linecap="round"
       stroke-linejoin="round"
       id="path15982"
       style="fill:none;stroke:#000000;stroke-opacity:1;stroke-width:0.1;stroke-dasharray:none" /><path
       d="M-53.5633602,7.4732747 a0.475,0.475 0 1,1 0.95,0 a0.475,0.475 0 1,1 -0.95,0z"
       transform="matrix(1,0,0,-1,63.5883602,35.3945951)"
       fill="rgb(255,255,255)"
       stroke="rgb(0,0,0)"
       stroke-width="0.0010cm"
       stroke-linecap="round"
       stroke-linejoin="round"
       id="path15984"
       style="fill:none;stroke:#000000;stroke-opacity:1;stroke-width:0.1;stroke-dasharray:none" /><path
       d="M-45.5633602,26.6945951 a0.475,0.475 0 1,1 0.95,0 a0.475,0.475 0 1,1 -0.95,0z"
       transform="matrix(1,0,0,-1,63.5883602,35.3945951)"
       fill="rgb(255,255,255)"
       stroke="rgb(0,0,0)"
       stroke-width="0.0010cm"
       stroke-linecap="round"
       stroke-linejoin="round"
       id="path15986"
       style="fill:none;stroke:#000000;stroke-opacity:1;stroke-width:0.1;stroke-dasharray:none" /><path
       d="M-61.5633602,27.3159154 a0.475,0.475 0 1,1 0.95,0 a0.475,0.475 0 1,1 -0.95,0z"
       transform="matrix(1,0,0,-1,63.5883602,35.3945951)"
       fill="rgb(255,255,255)"
       stroke="rgb(0,0,0)"
       stroke-width="0.0010cm"
       stroke-linecap="round"
       stroke-linejoin="round"
       id="path15988"
       style="fill:none;stroke:#000000;stroke-opacity:1;stroke-width:0.1;stroke-dasharray:none" /><path
       d="M-45.5633602,8.0945951 a0.475,0.475 0 1,1 0.95,0 a0.475,0.475 0 1,1 -0.95,0z"
       transform="matrix(1,0,0,-1,63.5883602,35.3945951)"
       fill="rgb(255,255,255)"
       stroke="rgb(0,0,0)"
       stroke-width="0.0010cm"
       stroke-linecap="round"
       stroke-linejoin="round"
       id="path15990"
       style="fill:none;stroke:#000000;stroke-opacity:1;stroke-width:0.1;stroke-dasharray:none" /><path
       d="M-21.5466935,2.9771268 L-21.5466935,2.9771268 -21.5799957,2.9573375 -21.6125755,2.9368455 -21.6444479,2.9156487 -21.6756278,2.8937455 -21.7061303,2.8711338 -21.7359704,2.8478118 -21.7651631,2.8237777 -21.7937234,2.7990296 -21.8216662,2.7735655 -21.8490067,2.7473838 -21.8757597,2.7204824 -21.9019404,2.6928595 -21.9275636,2.6645132 -21.9526445,2.6354417 -21.9771979,2.6056432 -22.0012232,2.5751361 -22.0012232,2.5751361 -22.1547655,2.6049603 -22.3072882,2.6349147 -22.4587938,2.6649968 -22.6092854,2.695204 -22.7587655,2.7255334 -22.907237,2.7559826 -23.0547028,2.7865488 -23.2011655,2.8172294 -23.3466279,2.8480217 -23.4910929,2.8789231 -23.6345633,2.9099308 -23.7770417,2.9410424 -23.918531,2.972255 -24.059034,3.0035661 -24.1985535,3.034973 -24.3370921,3.0664729 -24.4746529,3.0980634 -24.6112384,3.1297417 -24.7468515,3.1615051 -24.881495,3.1933511 -25.0151717,3.2252768 -25.1478843,3.2572798 -25.2796356,3.2893573 -25.4104285,3.3215067 -25.5402656,3.3537253 -25.6691499,3.3860105 -25.7970839,3.4183595 -25.9240707,3.4507699 -26.0501129,3.4832388 -26.1752132,3.5157636 -26.2993746,3.5483418 -26.4225998,3.5809705 -26.5448915,3.6136473 -26.6662526,3.6463693 -26.7866858,3.679134 -26.906194,3.7119387 -27.0247798,3.7447807 -27.1424462,3.7776574 -27.2591958,3.8105662 -27.3750314,3.8435043 -27.4899559,3.8764691 -27.603972,3.909458 -27.7170825,3.9424683 -27.8292903,3.9754973 -27.9405979,4.0085424 -28.0510084,4.041601 -28.1605244,4.0746703 -28.2691487,4.1077478 -28.3768841,4.1408307 -28.4837334,4.1739164 -28.5896994,4.2070023 -28.6947848,4.2400857 -28.7989925,4.2731639 -28.9023252,4.3062343 -29.0047857,4.3392942 -29.1063768,4.3723409 -29.2071013,4.4053719 -29.306962,4.4383845 -29.4059616,4.4713759 -29.5041029,4.5043436 -29.6013888,4.5372849 -29.6978219,4.5701971 -29.7934052,4.6030775 -29.8882054,4.6359458 -30.0782304,4.7026086 -30.2694305,4.7707577 -30.4616962,4.8404063 -30.6549179,4.9115677 -30.8489862,4.9842549 -31.0437914,5.0584814 -31.2392242,5.1342602 -31.4351749,5.2116047 -31.631534,5.2905279 -31.828192,5.3710432 -32.0250394,5.4531638 -32.2219667,5.5369028 -32.4188642,5.6222735 -32.6156226,5.7092892 -32.8121322,5.7979629 -33.0082836,5.8883081 -33.2039672,5.9803378 -33.3990735,6.0740653 -33.5934929,6.1695038 -33.787116,6.2666665 -33.9798332,6.3655667 -34.1715349,6.4662176 -34.3621118,6.5686323 -34.5514541,6.6728241 -34.7394525,6.7788063 -34.9259974,6.886592 -35.0186905,6.9411653 -35.1109792,6.9961945 -35.2028497,7.0516811 -35.2942884,7.1076269 -35.3852816,7.1640335 -35.4758155,7.2209026 -35.5658766,7.2782357 -35.655451,7.3360346 -35.7445252,7.3943009 -35.8330854,7.4530363 -35.9211179,7.5122424 -36.0086091,7.5719209 -36.0955452,7.6320733 -36.1819125,7.6927015 -36.2676975,7.7538069 -36.3528863,7.8153914 -36.4374653,7.8774565 -36.5214207,7.9400038 -36.604739,8.0030351 -36.6874064,8.066552 -36.7694093,8.1305561 -36.8507338,8.1950491 -36.9313664,8.2600326 -37.0112934,8.3255084 -37.090501,8.3914779 -37.1689647,8.4579332 -37.2464047,8.5246309 -37.3227099,8.5914659 -37.3978891,8.6584396 -37.4719513,8.725553 -37.5449053,8.7928072 -37.6167602,8.8602035 -37.6875248,8.9277429 -37.757208,8.9954267 -37.8258187,9.063256 -37.8933658,9.1312318 -37.9598583,9.1993555 -38.0253051,9.2676281 -38.089715,9.3360508 -38.153097,9.4046247 -38.21546,9.4733509 -38.2768129,9.5422307 -38.3371646,9.6112652 -38.396524,9.6804556 -38.4549001,9.7498029 -38.5123017,9.8193083 -38.5687377,9.888973 -38.6242171,9.9587982 -38.6787488,10.0287849 -38.7323416,10.0989344 -38.7850046,10.1692478 -38.8367465,10.2397262 -38.8875764,10.3103708 -38.9375031,10.3811828 -38.9865355,10.4521632 -39.0346826,10.5233133 -39.0819532,10.5946341 -39.1283563,10.6661269 -39.1739008,10.7377928 -39.2185955,10.8096329 -39.2624495,10.8816485 -39.3054716,10.9538406 -39.3476706,11.0262103 -39.3890557,11.0987589 -39.4296355,11.1714876 -39.4694191,11.2443973 -39.5084154,11.3174894 -39.5466332,11.3907649 -39.5840884,11.4642441 -39.6207958,11.5379483 -39.6567624,11.6118776 -39.6919948,11.6860318 -39.7264998,11.7604109 -39.7602842,11.8350151 -39.7933548,11.9098441 -39.8257184,11.9848981 -39.8573817,12.0601771 -39.8883514,12.1356809 -39.9186345,12.2114096 -39.9482376,12.2873633 -39.9771676,12.3635417 -40.0054311,12.4399451 -40.033035,12.5165733 -40.0599861,12.5934263 -40.0862911,12.6705042 -40.1119568,12.7478069 -40.1369899,12.8253343 -40.1613973,12.9030866 -40.1851858,12.9810636 -40.208362,13.0592654 -40.2309328,13.137692 -40.2529049,13.2163432 -40.2742852,13.2952193 -40.2950804,13.37432 -40.3152972,13.4536454 -40.3349424,13.5331955 -40.3540229,13.6129703 -40.3725454,13.6929698 -40.4079434,13.8536426 -40.4248368,13.9343347 -40.4412263,14.015376 -40.4571195,14.0967855 -40.4725203,14.1785661 -40.4874322,14.2607209 -40.5018592,14.3432528 -40.515805,14.4261646 -40.5292734,14.5094593 -40.542268,14.5931398 -40.5547928,14.6772091 -40.5668513,14.7616701 -40.5784475,14.8465257 -40.5895851,14.9317788 -40.6002677,15.0174324 -40.6104993,15.1034895 -40.6202835,15.1899529 -40.6296242,15.2768255 -40.638525,15.3641104 -40.6469898,15.4518104 -40.6550224,15.5399284 -40.6626264,15.6284675 -40.6698056,15.7174304 -40.6829049,15.8966398 -40.6943503,16.0775801 -40.7041719,16.2602747 -40.7123999,16.444747 -40.7190644,16.6310205 -40.7241955,16.8191186 -40.7278233,17.0090648 -40.7299779,17.2008824 -40.7306894,17.3945951 -40.7306894,17.3945951 -40.730491,17.4968435 -40.7298941,17.5984687 -40.728896,17.699475 -40.7274938,17.7998667 -40.725685,17.8996481 -40.7234667,17.9988235 -40.7208363,18.0973972 -40.7177911,18.1953735 -40.7143282,18.2927567 -40.7104451,18.3895511 -40.7061389,18.4857611 -40.701407,18.5813908 -40.6962466,18.6764447 -40.6906551,18.7709271 -40.6846296,18.8648422 -40.6781675,18.9581943 -40.6712661,19.0509878 -40.6639225,19.1432269 -40.6561342,19.234916 -40.6478984,19.3260593 -40.6392124,19.4166612 -40.6300734,19.506726 -40.6204787,19.5962579 -40.6104256,19.6852614 -40.5999114,19.7737406 -40.5889334,19.8616999 -40.5774889,19.9491436 -40.565575,20.036076 -40.5531892,20.1225014 -40.5403286,20.208424 -40.5269906,20.2938483 -40.5131724,20.3787786 -40.4988714,20.463219 -40.4840848,20.5471739 -40.4688098,20.6306477 -40.4530438,20.7136446 -40.436784,20.796169 -40.4200278,20.8782251 -40.4027723,20.9598172 -40.3850149,21.0409497 -40.3667529,21.1216268 -40.3479835,21.2018529 -40.328704,21.2816323 -40.3089117,21.3609692 -40.2886039,21.439868 -40.2677778,21.5183329 -40.2464308,21.5963684 -40.22456,21.6739786 -40.2021629,21.7511679 -40.1792366,21.8279406 -40.1557785,21.904301 -40.1317858,21.9802535 -40.1072558,22.0558022 -40.0821857,22.1309515 -40.056573,22.2057057 -40.0304148,22.2800692 -40.0037084,22.3540461 -39.9764511,22.427641 -39.9486402,22.5008579 -39.9202753,22.5736936 -39.8913674,22.6461122 -39.8619178,22.7181112 -39.8319262,22.789694 -39.8013922,22.8608639 -39.7703157,22.9316243 -39.7386961,23.0019786 -39.7065333,23.0719302 -39.6738269,23.1414823 -39.6405765,23.2106383 -39.6067819,23.2794017 -39.5724427,23.3477757 -39.5375587,23.4157638 -39.5021294,23.4833693 -39.4661546,23.5505955 -39.4296339,23.6174459 -39.392567,23.6839237 -39.3549537,23.7500324 -39.3167935,23.8157752 -39.2780862,23.8811557 -39.2388314,23.946177 -39.1990288,24.0108427 -39.1586781,24.075156 -39.117779,24.1391203 -39.0763311,24.2027389 -39.0343342,24.2660153 -38.9917878,24.3289528 -38.9486918,24.3915547 -38.9050456,24.4538245 -38.8608492,24.5157654 -38.816102,24.5773809 -38.7708039,24.6386742 -38.7249544,24.6996488 -38.6785533,24.7603081 -38.6316002,24.8206553 -38.5840948,24.8806938 -38.5360368,24.9404271 -38.4874258,24.9998584 -38.4382616,25.0589912 -38.3885439,25.1178287 -38.3382722,25.1763744 -38.2874463,25.2346316 -38.2360659,25.2926037 -38.1841306,25.350294 -38.1316401,25.4077058 -38.0784384,25.4650152 -38.0243254,25.5224338 -37.9692867,25.5799603 -37.9133084,25.6375929 -37.8563765,25.6953298 -37.798477,25.7531689 -37.739596,25.8111086 -37.6797196,25.8691468 -37.6188338,25.9272818 -37.5569246,25.9855116 -37.4939781,26.0438345 -37.4299804,26.1022485 -37.3649175,26.1607517 -37.2987754,26.2193423 -37.2315402,26.2780185 -37.163198,26.3367783 -37.0937348,26.3956199 -37.0231366,26.4545414 -36.9513896,26.513541 -36.8784797,26.5726168 -36.804393,26.6317669 -36.7291156,26.6909894 -36.6526334,26.7502825 -36.5749327,26.8096443 -36.4959993,26.869073 -36.4158194,26.9285666 -36.334379,26.9881234 -36.2516642,27.0477414 -36.167661,27.1074187 -36.0823555,27.1671536 -35.9957336,27.2269441 -35.9077816,27.2867883 -35.8184853,27.3466845 -35.7278309,27.4066307 -35.6358044,27.466625 -35.5423919,27.5266657 -35.4475795,27.5867508 -35.351353,27.6468784 -35.2536987,27.7070467 -35.1546026,27.7672538 -35.0540507,27.8274979 -34.952029,27.8877771 -34.8485237,27.9480895 -34.7436413,28.008363 -34.6380053,28.0682321 -34.5317183,28.1276459 -34.4247942,28.1866057 -34.3172471,28.245113 -34.2090908,28.3031691 -34.1003392,28.3607755 -33.9910063,28.4179337 -33.8811061,28.4746449 -33.7706524,28.5309106 -33.6596591,28.5867323 -33.5481403,28.6421113 -33.4361098,28.6970491 -33.3235816,28.751547 -33.2105695,28.8056066 -33.0970876,28.8592291 -32.9831497,28.9124161 -32.8687698,28.9651688 -32.7539619,29.0174888 -32.5231173,29.1208362 -32.2907276,29.2224695 -32.0569041,29.3223999 -31.8217582,29.4206389 -31.5854015,29.5171976 -31.3479452,29.6120875 -31.109501,29.7053198 -30.8701801,29.7969057 -30.630094,29.8868567 -30.3893542,29.975184 -30.1480721,30.061899 -29.9063592,30.1470128 -29.6643268,30.2305369 -29.4220864,30.3124825 -29.1797494,30.3928609 -28.9374274,30.4716834 -28.6952316,30.5489614 -28.4532735,30.6247061 -28.2116647,30.6989289 -27.9705164,30.7716409 -27.7299402,30.8428537 -27.4900474,30.9125783 -27.2509496,30.9808262 -27.0127581,31.0476087 -26.7755844,31.112937 -26.5395399,31.1768225 -26.3047361,31.2392764 -26.0705008,31.3005154 -25.8356881,31.3608633 -25.6003009,31.4203314 -25.3643551,31.4789275 -25.1278663,31.5366596 -24.8908503,31.5935353 -24.6533229,31.6495627 -24.4152998,31.7047494 -24.1767968,31.7591035 -23.9378296,31.8126326 -23.6984141,31.8653448 -23.4585659,31.9172477 -23.2183009,31.9683493 -22.9776347,32.0186574 -22.7365832,32.0681798 -22.4951621,32.1169245 -22.2533871,32.1648992 -22.0112741,32.2121118 -22.0112741,32.2121118 -21.9869204,32.1821058 -21.9618292,32.1526036 -21.9359787,32.1236151 -21.909406,32.095211 -21.8822777,32.0675798 -21.8546016,32.0407229 -21.8263732,32.0146282 -21.7975878,31.9892834 -21.7682407,31.9646765 -21.7383272,31.9407952 -21.7078428,31.9176273 -21.6767828,31.8951607 -21.6451425,31.8733832 -21.6129173,31.8522825 -21.5801025,31.8318467 -21.5466935,31.8120633 A1.25,1.25 240 0,1 -20.2966935,31.8120633 L-20.2966935,31.8120633 -20.2668193,31.8297627 -20.2375263,31.8480262 -20.2088039,31.8668552 -20.1806411,31.886251 -20.1530273,31.9062149 -20.1259516,31.9267484 -20.0994032,31.9478527 -20.0733714,31.9695292 -20.0478453,31.9917792 -20.0228141,32.0146041 -19.9982671,32.0380052 -19.9741934,32.0619839 -19.9505823,32.0865416 -19.9274229,32.1116794 -19.9047046,32.1373989 -19.8824164,32.1637013 -19.8605475,32.1905881 -19.8391131,32.2180268 -19.8181851,32.2459018 -19.7977553,32.2741929 -19.7778089,32.3028881 -19.758331,32.3319756 -19.7207207,32.3912798 -19.6848052,32.4520106 -19.650465,32.514073 -19.6175808,32.5773719 -19.5860333,32.6418123 -19.5860333,32.6418123 -19.176122,32.707141 -18.7658083,32.7705501 -18.3551648,32.832071 -17.9442646,32.8917354 -17.5331803,32.9495747 -17.121985,33.0056206 -16.7107514,33.0599044 -16.2995523,33.1124577 -15.8884607,33.1633121 -15.4775494,33.212499 -15.0668912,33.26005 -14.656559,33.3059967 -14.2466256,33.3503705 -13.8371639,33.3932029 -13.4282467,33.4345255 -13.0193344,33.4744291 -12.8140558,33.4939375 -12.6081488,33.5131597 -12.4016074,33.5320976 -12.1944255,33.5507529 -11.9865972,33.5691272 -11.7781163,33.5872224 -11.568977,33.6050402 -11.3591732,33.6225822 -11.1486989,33.6398503 -10.9375481,33.6568461 -10.7257148,33.6735714 -10.5131929,33.6900279 -10.2999765,33.7062174 -10.0860596,33.7221415 -9.8714361,33.7378021 -9.6561,33.7532008 -9.4400454,33.7683394 -9.2232662,33.7832196 -9.0057564,33.7978431 -8.78751,33.8122117 -8.568521,33.8263271 -8.3487834,33.8401911 -8.1282911,33.8538053 -7.9070382,33.8671715 -7.6850187,33.8802914 -7.4622265,33.8931669 -7.2386557,33.9057995 -7.0143002,33.918191 -6.789154,33.9303432 -6.5632111,33.9422577 -6.3364656,33.9539364 -6.1089113,33.965381 -5.8805423,33.9765931 -5.6513526,33.9875745 -5.4213361,33.998327 -5.1904869,34.0088523 -4.958799,34.0191521 -4.7262663,34.0292281 -4.4928828,34.0390821 -4.2586426,34.0487158 -4.0235395,34.058131 -3.7875677,34.0673293 -3.5507211,34.0763125 -3.3129936,34.0850823 -3.0743793,34.0936406 -2.8348722,34.1019889 -2.5944663,34.110129 -2.3531555,34.1180627 -2.1109339,34.1257917 -1.8677953,34.1333177 -1.623734,34.1406425 -1.3787437,34.1477677 -1.1328185,34.1546952 -0.8859524,34.1614266 -0.6381395,34.1679638 -0.3893736,34.1743083 -0.1396487,34.1804619 0.111041,34.1864265 0.3627018,34.1922036 0.6153394,34.1977951 0.8689601,34.2032027 1.1235697,34.2084281 1.3791743,34.213473 1.6357799,34.2183392 1.8933925,34.2230283 2.1520181,34.2275422 2.4116627,34.2318826 2.6723323,34.2360512 2.934033,34.2400496 3.1967707,34.2438798 3.4605515,34.2475433 3.7253814,34.251042 3.9912663,34.2543775 4.2582123,34.2575516 4.5262254,34.260566 4.7953115,34.2634224 5.0654768,34.2661227 5.3367272,34.2686684 5.6090688,34.2710614 5.8825075,34.2733034 6.1570493,34.2753961 6.4327002,34.2773412 6.7094664,34.2791405 6.9873537,34.2807957 7.2663682,34.2823085 7.5465158,34.2836807 7.8278027,34.2849139 8.1102348,34.28601 8.3938181,34.2869707 8.6785586,34.2877977 8.9644623,34.2884927 9.2515353,34.2890574 9.5397835,34.2894936 9.829213,34.2898031 10.1198298,34.2899875 10.4116398,34.2900486 10.4116398,34.2900486 10.7255743,34.2899966 11.0381305,34.2898402 11.3493135,34.2895784 11.6591287,34.2892104 11.9675814,34.2887353 12.2746766,34.2881523 12.5804198,34.2874605 12.8848161,34.286659 13.1878708,34.285747 13.4895891,34.2847235 13.7899764,34.2835879 14.0890377,34.282339 14.3867784,34.2809762 14.6832038,34.2794985 14.978319,34.2779051 15.2721293,34.2761951 15.5646399,34.2743677 15.8558562,34.2724219 16.1457833,34.270357 16.4344265,34.268172 16.7217911,34.2658661 17.0078822,34.2634384 17.2927052,34.2608881 17.5762653,34.2582142 17.8585676,34.255416 18.1396176,34.2524926 18.4194204,34.249443 18.6979812,34.2462665 18.9753053,34.2429622 19.251398,34.2395291 19.5262645,34.2359665 19.79991,34.2322735 19.79991,34.2322735 19.8208341,34.1963521 19.8408901,34.1599429 19.8601194,34.1231171 19.8785635,34.0859459 19.8962637,34.0485004 19.9132742,34.0108227 19.9297656,33.9726684 19.9458065,33.9339895 19.9614303,33.8948147 19.9766704,33.8551724 20.0061331,33.7746004 20.0344623,33.6925027 20.0619251,33.6091083 20.0887891,33.5246464 20.1153215,33.4393462 20.1684615,33.2671468 20.1956037,33.1807061 20.223484,33.0943433 20.2523658,33.0082992 20.282494,32.92286 20.3141389,32.8382278 20.3475758,32.75459 20.3650522,32.7132025 20.3830798,32.672134 20.4016929,32.6314077 20.420926,32.5910471 20.4408134,32.5510756 20.4613896,32.5115168 20.482689,32.4723939 20.5047459,32.4337304 20.5275947,32.3955498 20.5512699,32.3578754 20.5757907,32.3207531 20.6011014,32.284329 20.6272168,32.2486299 20.6541657,32.2136606 20.6819768,32.1794261 20.7106789,32.1459313 20.7403008,32.1131811 20.7708712,32.0811805 20.8024188,32.0499345 20.8348467,32.0195627 20.8679823,31.9902243 20.9018273,31.9618998 20.9363848,31.9345682 20.971658,31.9082082 21.0076502,31.8827989 21.0443647,31.858319 21.0818046,31.8347475 21.1199732,31.8120633 A1.25,1.25 240 0,1 22.3699732,31.8120633 L22.3699732,31.8120633 22.4062271,31.833662 22.4416248,31.8560955 22.4761856,31.8793661 22.5099291,31.9034762 22.5428745,31.9284284 22.5750413,31.954225 22.6064489,31.9808684 22.6371167,32.0083611 22.6670642,32.0367054 22.6963108,32.0659038 22.7248758,32.0959588 22.7527787,32.1268726 22.7800389,32.1586478 22.8066758,32.1912868 22.832661,32.2247288 22.8578987,32.2588064 22.8824097,32.2934912 22.9062208,32.3287618 22.9293589,32.3645969 22.9518506,32.4009751 22.9737228,32.4378752 22.9950022,32.4752757 23.0157156,32.5131554 23.0358897,32.551493 23.0555513,32.590267 23.0747273,32.6294563 23.1117291,32.708995 23.1471092,32.7899385 23.1810738,32.8720968 23.2137891,32.9551747 23.2454537,33.0389399 23.2762725,33.1231748 23.3064505,33.2076614 23.3657038,33.3765192 23.395189,33.4604547 23.4248531,33.5437709 23.4549011,33.6262501 23.4855379,33.7076744 23.5169685,33.7878262 23.5493978,33.8664876 23.5830308,33.9434408 23.6003627,33.9812088 23.6180723,34.0184681 23.6361856,34.0551919 23.6547335,34.0913632 23.6737448,34.1269588 23.693246,34.1619507 23.693246,34.1619507 23.918527,34.1567462 24.1429244,34.1514234 24.3664418,34.1459817 24.5890828,34.1404202 24.810851,34.1347382 25.03175,34.128935 25.2517834,34.1230098 25.4709549,34.1169618 25.689268,34.1107904 25.9067264,34.1044946 26.1233336,34.0980739 26.3390933,34.0915274 26.554009,34.0848543 26.7680845,34.078054 26.9813232,34.0711257 27.1937288,34.0640686 27.4053049,34.0568819 27.6160551,34.049565 27.825983,34.042117 28.0350923,34.0345372 28.2433865,34.0268248 28.4508692,34.0189792 28.657544,34.0109995 28.8634146,34.002885 29.0684846,33.9946349 29.2727576,33.9862485 29.4762371,33.977725 29.6789268,33.9690637 29.8808303,33.9602638 30.0819511,33.9513245 30.282293,33.9422452 30.4818595,33.9330251 30.6806543,33.9236633 30.8786808,33.9141592 31.0759428,33.904512 31.2724438,33.8947209 31.4681875,33.8847852 31.6631774,33.8747042 31.8574172,33.864477 32.0509105,33.8541029 32.2436608,33.8435813 32.4356719,33.8329112 32.6269472,33.822092 32.8174905,33.8111229 33.0073052,33.8000032 33.1963951,33.7887321 33.3847637,33.7773088 33.5724146,33.7657327 33.7593514,33.7540028 33.9455779,33.7421186 34.1310974,33.7300792 34.3159138,33.7178838 34.5000305,33.7055318 34.6834511,33.6930224 34.8661794,33.6803548 35.0482188,33.6675283 35.2295731,33.654542 35.4102458,33.6413954 35.5902404,33.6280875 35.7695608,33.6146177 35.9482103,33.6009851 36.1261927,33.5871892 36.3035115,33.573229 36.4801703,33.5591038 36.6561729,33.5448129 36.8315227,33.5303556 37.0062233,33.515731 37.1802785,33.5009385 37.3536918,33.4859772 37.5264667,33.4708464 37.698607,33.4555454 37.8701161,33.4400734 38.0409978,33.4244296 38.2112556,33.4086134 38.5509854,33.3763608 38.8912004,33.3431236 39.2318865,33.308877 39.5729915,33.2735999 39.9144632,33.2372709 40.2562494,33.1998689 40.5982979,33.1613725 40.9405567,33.1217607 41.2829735,33.081012 41.6254961,33.0391054 41.9680725,32.9960196 42.3106503,32.9517333 42.6531775,32.9062253 42.9956019,32.8594744 43.3378713,32.8114593 43.6799336,32.7621588 44.0217365,32.7115517 44.3632279,32.6596167 44.7043556,32.6063326 45.0450675,32.5516781 45.3853114,32.4956321 45.7250351,32.4381733 46.0641865,32.3792804 46.4027134,32.3189323 46.7405635,32.2571077 47.0776848,32.1937853 47.4140251,32.1289439 47.7495322,32.0625623 48.084154,31.9946193 48.4178381,31.9250936 48.7505326,31.853964 49.0821853,31.7812092 49.2476046,31.7442157 49.3306171,31.7254714 49.4144669,31.7064147 49.4991387,31.6870442 49.584616,31.6673588 49.6708821,31.6473577 49.7579203,31.6270396 49.8457142,31.6064038 49.9342469,31.585449 50.023502,31.5641743 50.1134626,31.5425787 50.2041123,31.5206612 50.2954344,31.4984207 50.3874122,31.4758563 50.4800291,31.4529669 50.5732685,31.4297515 50.6671137,31.406209 50.7615482,31.3823385 50.8565552,31.358139 50.9521181,31.3336094 51.0482203,31.3087488 51.1448452,31.283556 51.2419761,31.2580301 51.4376895,31.2059749 51.6352274,31.1525751 51.8344567,31.0978224 52.0352444,31.0417088 52.2374573,30.9842262 52.4409624,30.9253663 52.6456266,30.8651211 52.8513168,30.8034824 53.0579,30.7404422 53.265243,30.6759921 53.4732128,30.6101243 53.6816763,30.5428304 53.8905005,30.4741024 54.0995522,30.4039321 54.3086984,30.3323114 54.517806,30.2592321 54.7267419,30.1846862 54.9353731,30.1086655 55.1435664,30.0311619 55.3511887,29.9521671 55.5581071,29.8716732 55.7641884,29.7896719 55.9692996,29.7061552 56.1733075,29.6211148 56.3760791,29.5345427 56.5774813,29.4464307 56.7773811,29.3567708 56.9756453,29.2655546 57.0741225,29.2193605 57.1721409,29.1727742 57.2696838,29.1257949 57.3667347,29.0784214 57.4632769,29.0306528 57.5592938,28.9824881 57.6547687,28.9339261 57.749685,28.884966 57.8440261,28.8356067 57.9377753,28.7858472 58.030916,28.7356864 58.1234316,28.6851234 58.2153053,28.6341571 58.3065207,28.5827865 58.397061,28.5310106 58.4869097,28.4788284 58.57605,28.4262389 58.6644654,28.373241 58.7521392,28.3198338 58.8390548,28.2660161 58.9251955,28.2117871 59.0105448,28.1571456 59.0950859,28.1020907 59.1788022,28.0466213 59.2616772,27.9907365 59.3436942,27.9344352 59.4248364,27.8777164 59.5049826,27.8206596 59.5838297,27.7634945 59.6613719,27.706234 59.7376226,27.6488768 59.8125949,27.5914212 59.8863023,27.533866 59.9587579,27.4762094 60.0299751,27.4184502 60.0999672,27.3605869 60.1687475,27.3026179 60.2363293,27.2445419 60.3027258,27.1863572 60.3679503,27.1280626 60.4320162,27.0696565 60.4949368,27.0111374 60.5567252,26.952504 60.6173949,26.8937546 60.6769591,26.8348879 60.7354311,26.7759024 60.7928243,26.7167966 60.8491518,26.657569 60.904427,26.5982183 60.9586632,26.5387428 61.0118737,26.4791412 61.0640717,26.419412 61.1152706,26.3595538 61.1654837,26.2995649 61.2147242,26.2394441 61.2630054,26.1791898 61.3103407,26.1188005 61.3567433,26.0582748 61.4022265,25.9976113 61.4468037,25.9368084 61.490488,25.8758647 61.5332929,25.8147788 61.5752315,25.753549 61.6163172,25.6921741 61.656609,25.6305827 61.6961994,25.568643 61.7350967,25.5063464 61.7733072,25.4436867 61.8108373,25.3806578 61.8476932,25.3172537 61.8838813,25.2534682 61.919408,25.1892954 61.9542796,25.1247292 61.9885023,25.0597634 62.0220826,24.994392 62.0550267,24.9286089 62.0873411,24.862408 62.119032,24.7957833 62.1501057,24.7287287 62.1805687,24.6612381 62.2104272,24.5933055 62.2396875,24.5249247 62.2683561,24.4560897 62.2964392,24.3867944 62.3239431,24.3170327 62.3508743,24.2467986 62.377239,24.176086 62.4030435,24.1048888 62.4282943,24.0332009 62.4529975,23.9610162 62.4771597,23.8883288 62.500787,23.8151324 62.5238859,23.7414211 62.5464626,23.6671887 62.5685236,23.5924292 62.590075,23.5171365 62.6111233,23.4413046 62.6316748,23.3649272 62.6517359,23.2879985 62.6713128,23.2105122 62.6904119,23.1324624 62.7090395,23.0538429 62.727202,22.9746477 62.7449057,22.8948706 62.7621569,22.8145057 62.7789693,22.73351 62.7953762,22.6517322 62.8113831,22.5691452 62.826993,22.485736 62.8422086,22.4014912 62.8570328,22.3163977 62.8714684,22.2304423 62.8855183,22.1436117 62.8991852,22.0558927 62.9124719,21.9672722 62.9253814,21.8777368 62.9379163,21.7872735 62.9500796,21.6958691 62.9618741,21.6035102 62.9733025,21.5101837 62.9843677,21.4158764 62.9950726,21.3205751 63.0054199,21.2242666 63.0154124,21.1269377 63.0250531,21.0285751 63.0343446,20.9291657 63.0432899,20.8286962 63.0518918,20.7271534 63.060153,20.6245242 63.0680765,20.5207954 63.0756649,20.4159536 63.0829213,20.3099858 63.0898482,20.2028787 63.0964487,20.0946191 63.1027255,19.9851938 63.1086814,19.8745895 63.1143193,19.7627932 63.1196419,19.6497915 63.1246522,19.5355713 63.1293528,19.4201194 63.1337468,19.3034225 63.1378367,19.1854674 63.1416256,19.066241 63.1451162,18.9457301 63.1483113,18.8239213 63.1512138,18.7008016 63.1538265,18.5763577 63.1561521,18.4505764 63.1581936,18.3234445 63.1599537,18.1949488 63.1614353,18.0650761 63.1626412,17.9338132 63.1635742,17.8011468 63.1642372,17.6670638 63.1646329,17.531551 63.1647641,17.3945951 63.1647641,17.3945951 63.1646775,17.2834538 63.1644164,17.1732157 63.1639792,17.0638748 63.163364,16.9554249 63.1625692,16.84786 63.161593,16.7411741 63.1604337,16.6353611 63.1590895,16.5304151 63.1575587,16.4263298 63.1558395,16.3230994 63.1539303,16.2207177 63.1518293,16.1191787 63.1495346,16.0184764 63.1470447,15.9186047 63.1443577,15.8195575 63.141472,15.7213289 63.1383857,15.6239128 63.1350972,15.5273031 63.1316047,15.4314938 63.1279064,15.3364788 63.1240007,15.2422521 63.1198858,15.1488077 63.1155598,15.0561395 63.1110213,14.9642415 63.1062682,14.8731075 63.101299,14.7827317 63.0961119,14.6931078 63.0907052,14.60423 63.085077,14.516092 63.0792258,14.428688 63.0731496,14.3420118 63.0668469,14.2560574 63.0603158,14.1708188 63.0535546,14.0862899 63.0465616,14.0024646 63.0393351,13.9193369 63.0318732,13.8369009 63.0241743,13.7551503 63.0162366,13.6740792 63.0080585,13.5936816 62.999638,13.5139514 62.9909736,13.4348825 62.9820634,13.3564689 62.9729057,13.2787045 62.9634989,13.2015834 62.9538411,13.1250994 62.9439306,13.0492466 62.9337656,12.9740188 62.9233445,12.89941 62.9126655,12.8254143 62.9017268,12.7520254 62.8905268,12.6792375 62.8790636,12.6070444 62.8673356,12.5354401 62.855341,12.4644186 62.843078,12.3939737 62.8305449,12.3240996 62.81774,12.25479 62.8046616,12.1860391 62.7913078,12.1178406 62.7776771,12.0501887 62.7637675,11.9830772 62.7351051,11.8504513 62.7053068,11.7199146 62.6743585,11.5914187 62.6422465,11.4649153 62.6089567,11.3403561 62.5744753,11.2176926 62.5387884,11.0968765 62.501882,10.9778594 62.4637423,10.8605931 62.4243553,10.745029 62.3837071,10.6311188 62.3417697,10.5187776 62.2984519,10.4077702 62.2537229,10.2980416 62.2075631,10.1895669 62.1599526,10.0823208 62.1108717,9.9762783 62.0603005,9.8714143 62.0082195,9.7677035 61.9546087,9.665121 61.8994484,9.5636415 61.8427188,9.46324 61.7844002,9.3638914 61.7244728,9.2655705 61.6629168,9.1682522 61.5997125,9.0719114 61.5348401,8.9765229 61.4682798,8.8820618 61.4000119,8.7885028 61.3300165,8.6958208 61.258274,8.6039907 61.1847645,8.5129874 61.1094684,8.4227857 61.0323657,8.3333606 60.9534368,8.244687 60.8726252,8.1566999 60.8313254,8.1127638 60.7893598,8.0688021 60.746719,8.0248149 60.7033938,7.9808026 60.6593747,7.9367655 60.6146524,7.8927039 60.5692176,7.848618 60.5230609,7.8045082 60.4761731,7.7603748 60.4285447,7.7162181 60.3801664,7.6720384 60.331029,7.627836 60.2811229,7.5836111 60.230439,7.5393642 60.1789678,7.4950954 60.1267001,7.4508051 60.0736264,7.4064936 60.0197375,7.3621612 59.9650241,7.3178082 59.9094766,7.2734348 59.8530859,7.2290414 59.7958426,7.1846284 59.7377374,7.1401959 59.6787609,7.0957443 59.6189037,7.0512739 59.5581566,7.006785 59.4965101,6.9622779 59.4339551,6.9177528 59.370482,6.8732102 59.3060816,6.8286502 59.2407446,6.7840733 59.1744615,6.7394796 59.1072231,6.6948695 59.0390201,6.6502434 58.969843,6.6056014 58.8996825,6.5609439 58.8285294,6.5162712 58.7563742,6.4715836 58.6832076,6.4268813 58.6090203,6.3821648 58.533803,6.3374343 58.4575463,6.2926901 58.3802925,6.2479636 58.3022261,6.203369 58.2233663,6.1589173 58.1437153,6.1146089 58.0632754,6.0704443 57.9820488,6.0264242 57.9000378,5.9825489 57.8172445,5.938819 57.7336712,5.8952351 57.6493202,5.8517977 57.5641936,5.8085072 57.4782937,5.7653641 57.3916227,5.7223691 57.3041828,5.6795227 57.2159764,5.6368252 57.1270055,5.5942773 57.0372725,5.5518795 56.9467796,5.5096323 56.855529,5.4675362 56.7635229,5.4255918 56.6707636,5.3837995 56.5772532,5.3421598 56.4829941,5.3006734 56.3879884,5.2593406 56.2922385,5.2181621 56.1957464,5.1771383 56.0985145,5.1362698 56.000545,5.0955571 55.9018401,5.0550006 55.802402,5.014601 55.702233,4.9743587 55.6013352,4.9342742 55.4997111,4.8943482 55.3973626,4.854581 55.2942922,4.8149732 55.190502,4.7755253 55.0859942,4.7362379 54.9807712,4.6971114 54.874835,4.6581464 54.768188,4.6193434 54.6608323,4.5807029 54.5527703,4.5422255 54.4440041,4.5039116 54.3345359,4.4657617 54.2243681,4.4277765 54.1135028,4.3899563 54.0019422,4.3523018 53.8896886,4.3148134 53.7767443,4.2774917 53.6631114,4.2403371 53.5487922,4.2033503 53.4337889,4.1665316 53.3181037,4.1298817 53.2017389,4.093401 53.0846967,4.0570901 52.9669793,4.0209495 52.848589,3.9849797 52.729528,3.9491812 52.6097985,3.9135546 52.4894028,3.8781003 52.368343,3.8428188 52.2466215,3.8077108 52.1242404,3.7727767 52.001202,3.738017 51.7535117,3.6691184 51.505086,3.6014211 51.2561583,3.5349599 51.0067925,3.4697225 50.7570523,3.4056966 50.5070015,3.3428699 50.2567041,3.2812301 50.0062239,3.220765 49.7556247,3.1614621 49.5049703,3.1033092 49.2543246,3.046294 49.0037514,2.9904043 48.7533145,2.9356276 48.5030778,2.8819517 48.2531052,2.8293644 48.0034604,2.7778532 47.7542073,2.727406 47.5054097,2.6780104 47.2571315,2.629654 47.0094364,2.5823247 46.7623885,2.5360101 46.5160514,2.4906979 46.270489,2.4463758 46.0257651,2.4030316 45.7819436,2.3606528 45.5390884,2.3192272 45.2972632,2.2787426 45.0565319,2.2391866 44.8169583,2.2005469 44.5786063,2.1628112 44.3415396,2.1259672 44.1058222,2.0900026 43.8715179,2.0549052 43.6386905,2.0206625 43.4074039,1.9872624 43.1777218,1.9546925 42.9497081,1.9229405 42.7234267,1.8919941 42.4989414,1.8618411 42.276316,1.832469 42.0556143,1.8038657 41.8369003,1.7760188 41.6202377,1.7489161 41.4056903,1.7225451 41.1933221,1.6968937 40.9831968,1.6719495 40.8789952,1.6597387 40.7753783,1.6477002 40.672354,1.6358323 40.5699304,1.6241335 40.4681154,1.6126023 40.3669169,1.6012372 40.2663431,1.5900365 40.1664018,1.5789988 40.067101,1.5681226 39.9684487,1.5574063 39.870453,1.5468483 39.7731217,1.5364471 39.6764628,1.5262012 39.5804844,1.516109 39.4851944,1.5061691 39.3906007,1.4963798 39.2967115,1.4867397 39.2035346,1.4772471 39.111078,1.4679006 39.0193497,1.4586987 38.9283577,1.4496397 38.8381099,1.4407221 38.7486145,1.4319445 38.6598792,1.4233052 38.5719121,1.4148028 38.4847212,1.4064357 38.3983145,1.3982023 38.3127,1.3901011 38.2278855,1.3821306 38.1438791,1.3742893 37.9770537,1.3588774 37.8096677,1.3436346 37.6416427,1.3285536 37.4729754,1.3136336 37.3036625,1.2988742 37.1337008,1.2842746 36.9630869,1.2698342 36.7918175,1.2555524 36.6198893,1.2414284 36.447299,1.2274618 36.2740433,1.2136518 36.100119,1.1999978 35.9255227,1.1864991 35.750251,1.1731551 35.5743008,1.1599653 35.3976687,1.1469288 35.2203515,1.1340451 35.0423457,1.1213136 34.8636481,1.1087336 34.6842555,1.0963045 34.5041645,1.0840255 34.3233717,1.0718962 34.141874,1.0599158 33.959668,1.0480837 33.7767505,1.0363993 33.593118,1.0248618 33.4087673,1.0134708 33.2236951,1.0022255 33.0378982,0.9911253 32.8513732,0.9801695 32.6641167,0.9693575 32.4761256,0.9586887 32.2873965,0.9481625 32.0979261,0.9377781 31.9077111,0.927535 31.7167482,0.9174325 31.5250341,0.9074699 31.3325655,0.8976467 31.1393391,0.8879621 30.9453516,0.8784156 30.7505997,0.8690065 30.5550802,0.8597342 30.3587896,0.8505979 30.1617248,0.8415972 29.9638823,0.8327312 29.7652589,0.8239995 29.5658514,0.8154013 29.3656564,0.806936 29.1646705,0.798603 28.9628906,0.7904017 28.7603132,0.7823313 28.5569352,0.7743912 28.3527531,0.7665809 28.1477638,0.7588996 27.9419638,0.7513468 27.73535,0.7439217 27.527919,0.7366238 27.3196674,0.7294523 27.1105921,0.7224068 26.9006896,0.7154864 26.6899568,0.7086906 26.4783902,0.7020188 26.2659867,0.6954702 26.0527428,0.6890443 25.8386554,0.6827404 25.623721,0.6765579 25.4079364,0.6704961 25.1912983,0.6645544 24.9738035,0.6587321 24.7554485,0.6530287 24.5362301,0.6474434 24.316145,0.6419756 24.0951899,0.6366247 23.8733615,0.63139 23.6506565,0.626271 23.6506565,0.626271 23.6324428,0.6609525 23.6147958,0.6962274 23.5976841,0.7320683 23.5810764,0.7684479 23.5649415,0.8053387 23.5492482,0.8427134 23.51906,0.9188076 23.4902419,0.9965754 23.4625407,1.0758331 23.4357135,1.1563713 23.4095171,1.2379807 23.3837084,1.3204518 23.3580445,1.4035754 23.3061784,1.5709426 23.2794901,1.6547674 23.2519742,1.7384072 23.2233876,1.8216528 23.1934873,1.9042947 23.1620302,1.9861235 23.1287733,2.06693 23.1113908,2.1068954 23.0934597,2.1465525 23.0749481,2.1858795 23.0558242,2.2248543 23.0360561,2.2634548 23.0156119,2.3016589 22.9944597,2.3394448 22.9725678,2.3767902 22.9499043,2.4136732 22.9264372,2.4500718 22.9021348,2.4859638 22.8769651,2.5213274 22.8508964,2.5561403 22.8238995,2.5903772 22.7961312,2.6237958 22.7676886,2.6562688 22.7385613,2.6878098 22.7087387,2.7184324 22.6782104,2.74815 22.646966,2.7769763 22.614995,2.8049248 22.5822869,2.8320092 22.5488312,2.8582429 22.5146175,2.8836395 22.4796353,2.9082127 22.4438742,2.9319759 22.4073236,2.9549427 22.3699732,2.9771268 A1.25,1.25 60 0,1 21.1199732,2.9771268 L21.1199732,2.9771268 21.0825494,2.9548085 21.0460381,2.9315998 21.0104179,2.9074983 20.9756673,2.8825012 20.941765,2.8566059 20.9086897,2.8298096 20.8764199,2.8021098 20.8449342,2.7735037 20.8142114,2.7439887 20.7842299,2.7135622 20.7549685,2.6822215 20.7264057,2.6499638 20.6985202,2.6167866 20.671294,2.5826918 20.6448258,2.5478397 20.6191471,2.5123287 20.5942283,2.476182 20.5700399,2.4394233 20.5465526,2.402076 20.5237368,2.3641636 20.501563,2.3257096 20.4800018,2.2867375 20.4590237,2.2472707 20.4385992,2.2073328 20.4186988,2.1669472 20.3992931,2.1261374 20.3618477,2.0433393 20.3260272,1.9591263 20.2916287,1.873768 20.2584547,1.787565 20.2262796,1.7007575 20.1640235,1.5262885 20.1030555,1.3522811 20.0724904,1.2660504 20.0415705,1.180655 20.0100701,1.096335 19.9777636,1.0133302 19.9444254,0.9318808 19.9098298,0.8522267 19.89199,0.8131479 19.8737513,0.7746079 19.8550854,0.7366368 19.8359642,0.6992644 19.8163576,0.6625175 19.7962332,0.6264196 19.7755619,0.5910007 19.7543146,0.556291 19.7543146,0.556291 19.4820115,0.5526404 19.2084891,0.5491184 18.9337425,0.5457243 18.657767,0.5424572 18.3805574,0.5393164 18.1021091,0.5363009 17.8224171,0.5334098 17.5414766,0.5306425 17.2592826,0.527998 16.9758302,0.5254755 16.6911147,0.5230741 16.405131,0.520793 16.1178744,0.5186314 15.8293399,0.5165885 15.5395227,0.5146633 15.2484178,0.512855 14.9560205,0.5111629 14.6623257,0.509586 14.3673287,0.5081236 14.0710245,0.5067747 13.7734083,0.5055385 13.4744752,0.5044143 13.1742203,0.5034011 12.8726387,0.5024982 12.5697256,0.5017046 12.265476,0.5010196 11.9598851,0.5004422 11.652948,0.4999718 11.3446598,0.4996073 11.0350156,0.499348 10.7240106,0.499193 10.4116398,0.4991416 10.4116398,0.4991416 10.106943,0.4992095 9.80368,0.4994144 9.5018426,0.4997578 9.2014229,0.5002414 8.9024128,0.5008666 8.6048041,0.5016352 8.3085889,0.5025486 8.013759,0.5036086 7.7203063,0.5048166 7.4282228,0.5061743 7.1375005,0.5076832 6.8481311,0.509345 6.5601067,0.5111612 6.2734192,0.5131334 5.9880605,0.5152633 5.7040226,0.5175523 5.4212972,0.5200022 5.1398765,0.5226144 4.8597522,0.5253906 4.5809164,0.5283324 4.303361,0.5314413 4.0270778,0.534719 3.7520588,0.538167 3.4782959,0.541787 3.2057811,0.5455804 2.9345062,0.549549 2.6644632,0.5536942 2.3956441,0.5580178 2.1280407,0.5625212 1.8616449,0.5672061 1.5964488,0.572074 1.3324442,0.5771266 1.069623,0.5823655 0.8079772,0.5877921 0.5474987,0.5934082 0.2881793,0.5992153 0.0300112,0.6052149 -0.227014,0.6114088 -0.4829041,0.6177985 -0.7376673,0.6243855 -0.9913117,0.6311714 -1.2438453,0.6381579 -1.4952762,0.6453466 -1.7456126,0.652739 -1.9948624,0.6603367 -2.2430337,0.6681413 -2.4901346,0.6761544 -2.7361733,0.6843776 -2.9811577,0.6928124 -3.225096,0.7014606 -3.4679962,0.7103236 -3.7098663,0.719403 -3.9507146,0.7287005 -4.190549,0.7382176 -4.4293776,0.7479559 -4.6672086,0.7579171 -4.9040499,0.7681026 -5.1399096,0.7785141 -5.3747959,0.7891533 -5.6087168,0.8000215 -5.8416803,0.8111206 -6.0736947,0.822452 -6.3047678,0.8340173 -6.5349079,0.8458181 -6.7641229,0.8578561 -6.992421,0.8701328 -7.2198102,0.8826498 -7.4462986,0.8954087 -7.6718943,0.908411 -7.8966054,0.9216585 -8.1204399,0.9351525 -8.3434059,0.9488949 -8.5655115,0.9628871 -8.7867648,0.9771307 -9.0071738,0.9916273 -9.2267466,1.0063785 -9.4454913,1.021386 -9.663416,1.0366512 -9.8805287,1.0521758 -10.0968375,1.0679614 -10.3123505,1.0840096 -10.5270758,1.1003219 -10.7410214,1.1168999 -10.9541955,1.1337453 -11.166606,1.1508596 -11.3782611,1.1682444 -11.5891689,1.1859013 -11.7993374,1.2038319 -12.0087746,1.2220378 -12.2174888,1.2405206 -12.4254879,1.2592818 -12.63278,1.2783231 -12.8393732,1.297646 -13.0452756,1.3172521 -13.2504952,1.3371431 -13.4550402,1.3573205 -13.6589186,1.3777859 -13.8621385,1.3985408 -14.0647079,1.419587 -14.2666349,1.4409259 -14.4679276,1.4625592 -14.6685942,1.4844885 -14.8686425,1.5067153 -15.0680809,1.5292412 -15.2669172,1.5520679 -15.4651596,1.5751969 -15.6628162,1.5986297 -15.859895,1.6223681 -16.0563865,1.6464115 -16.2518775,1.6707101 -16.446193,1.6952405 -16.639336,1.72 -16.8313095,1.7449861 -17.0221163,1.7701962 -17.2117595,1.7956276 -17.4002421,1.8212779 -17.587567,1.8471443 -17.7737372,1.8732244 -17.9587557,1.8995154 -18.1426254,1.9260149 -18.3253494,1.9527202 -18.5069305,1.9796287 -18.6873718,2.0067378 -18.8666762,2.034045 -19.0448467,2.0615477 -19.2218863,2.0892432 -19.3977979,2.117129 -19.5725846,2.1452025 -19.5725846,2.1452025 -19.6029953,2.2090618 -19.6350483,2.2718955 -19.6688795,2.3336177 -19.7046252,2.3941426 -19.7232585,2.4239293 -19.7424214,2.4533844 -19.762131,2.4824972 -19.7824042,2.5112571 -19.8032581,2.5396532 -19.8247097,2.5676748 -19.846776,2.5953112 -19.8694581,2.622533 -19.8926197,2.6491594 -19.9162299,2.6751541 -19.9402937,2.7005248 -19.9648161,2.7252794 -19.9898022,2.7494257 -20.015257,2.7729715 -20.0411855,2.7959247 -20.0675929,2.8182931 -20.0944841,2.8400845 -20.1218642,2.8613068 -20.1497382,2.8819677 -20.1781112,2.9020752 -20.2069882,2.921637 -20.2363742,2.940661 -20.2662743,2.959155 -20.2966935,2.9771268 A1.25,1.25 60 0,1 -21.5466935,2.9771268z"
       transform="matrix(1,0,0,-1,63.5883602,35.3945951)"
       fill="rgb(255,255,255)"
       stroke="rgb(0,0,0)"
       stroke-width="0.0010cm"
       stroke-linecap="round"
       stroke-linejoin="round"
       id="path15992"
       style="fill:none;stroke:#000000;stroke-opacity:1;stroke-width:0.1;stroke-dasharray:none" /></g></svg>
