<?xml version="1.0" encoding="UTF-8" standalone="no"?>
<!-- Generator: Fusion 360, Shaper Origin Export Add-In, Version 1.8.0  -->

<svg
   shaper:fusionaddin="version:1.8.0"
   width="128cm"
   height="36cm"
   version="1.1"
   x="0cm"
   y="0cm"
   viewBox="0 0 128 36"
   enable-background="new 0 0 128 36"
   xml:space="preserve"
   id="svg17800"
   sodipodi:docname="corpus_4_Faces.svg"
   inkscape:version="1.2.2 (732a01da63, 2022-12-09)"
   xmlns:inkscape="http://www.inkscape.org/namespaces/inkscape"
   xmlns:sodipodi="http://sodipodi.sourceforge.net/DTD/sodipodi-0.dtd"
   xmlns="http://www.w3.org/2000/svg"
   xmlns:svg="http://www.w3.org/2000/svg"
   xmlns:shaper="http://www.shapertools.com/namespaces/shaper"><defs
     id="defs17804" /><sodipodi:namedview
     id="namedview17802"
     pagecolor="#505050"
     bordercolor="#eeeeee"
     borderopacity="1"
     inkscape:showpageshadow="0"
     inkscape:pageopacity="0"
     inkscape:pagecheckerboard="0"
     inkscape:deskcolor="#505050"
     inkscape:document-units="cm"
     showgrid="false"
     inkscape:zoom="0.27078451"
     inkscape:cx="2306.2619"
     inkscape:cy="681.35361"
     inkscape:window-width="1920"
     inkscape:window-height="991"
     inkscape:window-x="-9"
     inkscape:window-y="-9"
     inkscape:window-maximized="1"
     inkscape:current-layer="svg17800" /><g
     id="g17933"
     style="fill:none;stroke:#000000;stroke-opacity:1;stroke-width:0.1;stroke-dasharray:none"><path
       d="M63.8470761,1.0802118 L63.8470761,34.2802118 A1.4,1.4 0 0,1 62.4470761,35.6802118 L-62.7529239,35.6802118 A1.4,1.4 90 0,1 -64.1529239,34.2802118 L-64.1529239,1.0802118 A1.4,1.4 180 0,1 -62.7529239,-0.3197882 L62.4470761,-0.3197882 A1.4,1.4 270 0,1 63.8470761,1.0802118z"
       transform="matrix(1,0,0,-1,64.1529239,35.6802118)"
       fill="rgb(0,0,0)"
       stroke-linecap="round"
       stroke-linejoin="round"
       id="path17780"
       style="fill:none;stroke:#000000;stroke-opacity:1;stroke-width:0.1;stroke-dasharray:none" /><path
       d="M20.5554094,3.2627436 L20.5554094,3.2627436 20.5180271,3.2404508 20.4815553,3.2172697 20.4459725,3.1931977 20.4112576,3.1682322 20.3773891,3.1423704 20.3443458,3.1156098 20.3121064,3.0879476 20.2806496,3.0593812 20.2499541,3.0299081 20.2199984,2.9995254 20.1907615,2.9682306 20.1622219,2.9360209 20.1343583,2.9028939 20.1071524,2.8688505 20.0807008,2.8340485 20.0550374,2.7985885 20.0301328,2.7624939 20.0059575,2.7257882 19.9824823,2.6884948 19.9596777,2.650637 19.9375144,2.6122383 19.915963,2.5733221 19.8949941,2.5339118 19.8745783,2.4940308 19.8546863,2.4537025 19.8352886,2.4129503 19.7978589,2.3302679 19.762054,2.2461708 19.7276719,2.160928 19.6945173,2.0748436 19.6623654,1.9881562 19.6001697,1.813926 19.5392847,1.640145 19.5087714,1.5540191 19.4779108,1.4687209 19.4464779,1.3844888 19.4142479,1.3015613 19.3809957,1.2201768 19.3464963,1.1405738 19.3287086,1.1015149 19.3105248,1.0629908 19.2919166,1.0250312 19.2728561,0.9876661 19.253315,0.9509252 19.2332653,0.9148383 19.2126788,0.8794352 19.1915274,0.8447457 19.1915274,0.8447457 19.058856,0.83692 18.9252935,0.829142 18.7908311,0.8214116 18.6554599,0.8137289 18.5191709,0.806094 18.381955,0.7985068 18.243803,0.7909673 18.1047053,0.7834756 17.9646526,0.7760318 17.8236351,0.7686357 17.6816432,0.7612876 17.5386669,0.7539874 17.3946961,0.7467351 17.2497207,0.7395308 17.1037304,0.7323746 16.9567146,0.7252664 16.8086629,0.7182065 16.6595644,0.7111947 16.5094081,0.7042312 16.3581832,0.6973161 16.2058782,0.6904494 16.0524819,0.6836311 15.8979828,0.6768614 15.742369,0.6701404 15.5856288,0.6634681 15.42775,0.6568446 15.2687206,0.65027 15.108528,0.6437444 14.9471597,0.6372679 14.784603,0.6308406 14.6208449,0.6244626 14.4558723,0.618134 14.2896718,0.611855 14.12223,0.6056256 13.953533,0.599446 13.783567,0.5933164 13.6123179,0.5872367 13.4397712,0.5812073 13.2659124,0.5752282 13.0907268,0.5692995 12.9141993,0.5634215 12.7363147,0.5575943 12.5570575,0.551818 12.376412,0.5460929 12.1943623,0.540419 12.0108921,0.5347965 11.825985,0.5292257 11.6396243,0.5237068 11.451793,0.5182399 11.2624739,0.5128251 11.0716495,0.5074628 10.879302,0.5021532 10.6854134,0.4968964 10.4899653,0.4916926 10.2929389,0.4865421 10.0943155,0.4814452 9.8940757,0.476402 9.6922,0.4714129 9.4886685,0.466478 9.283461,0.4615976 9.0765569,0.456772 8.8679354,0.4520014 8.6575752,0.4472862 8.4454547,0.4426266 8.2315521,0.4380229 8.015845,0.4334754 7.7983108,0.4289844 7.5789263,0.4245502 7.3576682,0.4201731 7.1345125,0.4158536 6.909435,0.4115918 6.6824111,0.4073882 6.4534155,0.4032431 6.2224229,0.3991569 5.9894072,0.3951299 5.754342,0.3911625 5.5172003,0.3872551 5.2779548,0.3834081 5.0365776,0.3796219 4.7930404,0.375897 4.5473144,0.3722336 4.29937,0.3686324 4.0491775,0.3650937 3.7967063,0.3616179 3.5419255,0.3582056 3.2848035,0.3548572 3.0253082,0.3515732 2.8946603,0.3499555 2.7634067,0.348354 2.6315433,0.346769 2.4990658,0.3452003 2.3659699,0.3436482 2.2322514,0.3421126 2.0979059,0.3405935 1.962929,0.3390912 1.8273163,0.3376057 1.6910633,0.3361369 1.5541655,0.3346851 1.4166184,0.3332502 1.2784173,0.3318323 1.1395577,0.3304315 1.0000347,0.3290479 0.8598438,0.3276816 0.7189801,0.3263326 0.5774388,0.325001 0.4352151,0.3236869 0.2923039,0.3223903 0.1487005,0.3211114 0.0043997,0.3198502 -0.1406035,0.3186067 -0.2863143,0.3173812 -0.4327376,0.3161736 -0.5798789,0.314984 -0.7277432,0.3138126 -0.876336,0.3126594 -1.0256626,0.3115245 -1.1757284,0.3104079 -1.3265389,0.3093099 -1.4780996,0.3082304 -1.630416,0.3071695 -1.7834939,0.3061274 -1.9373388,0.3051041 -2.0919566,0.3040997 -2.247353,0.3031143 -2.4035339,0.3021481 -2.5605052,0.301201 -2.7182729,0.3002733 -2.8768431,0.299365 -3.0362218,0.2984761 -3.1964152,0.2976069 -3.3574295,0.2967574 -3.5192711,0.2959277 -3.6819462,0.2951179 -3.8454613,0.2943281 -4.0098229,0.2935584 -4.1750376,0.292809 -4.3411119,0.2920799 -4.5080525,0.2913713 -4.6758662,0.2906832 -4.8445599,0.2900158 -5.0141404,0.2893692 -5.1846147,0.2887435 -5.3559898,0.2881388 -5.528273,0.2875552 -5.7014713,0.2869929 -5.8755921,0.286452 -6.0506426,0.2859326 -6.2266304,0.2854348 -6.403563,0.2849588 -6.5814478,0.2845046 -6.7602927,0.2840724 -6.9401053,0.2836624 -7.1208935,0.2832746 -7.3026652,0.2829093 -7.4854285,0.2825665 -7.6691913,0.2822463 -7.853962,0.2819489 -8.0397487,0.2816745 -8.2265599,0.2814232 -8.414404,0.2811951 -8.6032895,0.2809904 -8.7932252,0.2808092 -8.9842196,0.2806516 -9.1762818,0.2805179 -9.3694205,0.2804081 -9.5636449,0.2803225 -9.7589641,0.2802611 -9.9553873,0.2802242 -10.1529239,0.2802118 -10.1529239,0.2802118 -10.3067367,0.2802141 -10.4597856,0.280221 -10.6120763,0.2802323 -10.7636144,0.2802482 -10.9144055,0.2802685 -11.0644551,0.2802933 -11.2137686,0.2803225 -11.3623515,0.2803561 -11.510209,0.280394 -11.6573466,0.2804362 -11.8037693,0.2804828 -11.9494825,0.2805336 -12.0944913,0.2805887 -12.2388007,0.280648 -12.3824158,0.2807115 -12.5253416,0.2807791 -12.6675831,0.2808509 -12.8091451,0.2809268 -12.9500326,0.2810068 -13.0902502,0.2810909 -13.2298029,0.281179 -13.3686952,0.2812711 -13.5069319,0.2813672 -13.6445176,0.2814673 -13.781457,0.2815714 -13.9177544,0.2816793 -14.0534145,0.2817912 -14.1884416,0.2819069 -14.3228403,0.2820265 -14.4566148,0.2821499 -14.5897696,0.2822772 -14.7223089,0.2824082 -14.8542369,0.282543 -14.985558,0.2826815 -15.2463957,0.2829697 -15.504855,0.2832726 -15.7609683,0.28359 -16.0147673,0.2839218 -16.2662833,0.2842679 -16.5155469,0.284628 -16.7625882,0.285002 -17.0074368,0.2853898 -17.2501218,0.2857911 -17.4906716,0.286206 -17.7291144,0.2866341 -17.9654777,0.2870754 -18.1997885,0.2875298 -18.4320735,0.2879971 -18.6623588,0.2884771 -18.6623588,0.2884771 -18.7202291,0.2952493 -18.7776162,0.3042665 -18.8060974,0.3096621 -18.8344206,0.3156732 -18.8625732,0.3223177 -18.8905427,0.3296138 -18.9183168,0.3375795 -18.945883,0.3462328 -18.9732289,0.3555918 -19.000342,0.3656746 -19.0272098,0.3764992 -19.0538199,0.3880837 -19.0801599,0.4004462 -19.1062174,0.4136046 -19.1318872,0.4275233 -19.1569927,0.4421059 -19.1815399,0.4573465 -19.2055392,0.4732419 -19.2290011,0.4897885 -19.2519361,0.506983 -19.2743545,0.5248219 -19.2962668,0.5433019 -19.3176835,0.5624195 -19.338615,0.5821714 -19.3590717,0.6025541 -19.3790641,0.6235642 -19.3986026,0.6451984 -19.417665,0.6674157 -19.4361744,0.6900993 -19.45414,0.7132189 -19.4715763,0.7367494 -19.4884977,0.7606659 -19.5208531,0.8095572 -19.5513217,0.8596932 -19.5800187,0.9108745 -19.6070593,0.9629015 -19.6325589,1.0155746 -19.6566555,1.0687466 -19.6797203,1.1228522 -19.7019231,1.1779725 -19.723358,1.234027 -19.744119,1.2909351 -19.7643001,1.3486162 -19.7839953,1.4069898 -19.8032986,1.4659754 -19.8411055,1.5854602 -19.878473,1.706426 -19.916153,1.8282287 -19.9548976,1.9502236 -19.9954538,2.0717521 -20.0166308,2.1320994 -20.0385315,2.1920664 -20.0612524,2.2515873 -20.0848905,2.3105963 -20.1095423,2.3690273 -20.1353048,2.4268146 -20.1622745,2.4838923 -20.1905484,2.5401944 -20.220223,2.5956551 -20.2513951,2.6502085 -20.2841615,2.7037887 -20.3186,2.7563019 -20.3546287,2.8074443 -20.392288,2.8571376 -20.4316587,2.905368 -20.4728216,2.9521216 -20.4941005,2.9749402 -20.5158578,2.9973844 -20.5381035,3.0194525 -20.5608198,3.0411164 -20.5838989,3.0622713 -20.6073301,3.0829131 -20.6311145,3.1030493 -20.6552533,3.1226871 -20.6797476,3.1418342 -20.7045986,3.1604978 -20.7553749,3.1964046 -20.8075915,3.2304667 -20.8612573,3.2627436 A1.25,1.25 60 0,1 -22.1112573,3.2627436 L-22.1112573,3.2627436 -22.1371117,3.2474792 -22.1625307,3.2317936 -22.2120908,3.199155 -22.2599932,3.1648209 -22.3062937,3.1287845 -22.351048,3.0910387 -22.3943119,3.0515765 -22.4361412,3.0103911 -22.4765916,2.9674756 -22.5157188,2.9228228 -22.5535786,2.876426 -22.5900641,2.8285001 -22.6250621,2.7793317 -22.6586491,2.7289822 -22.6909021,2.6775128 -22.7218979,2.6249849 -22.7517135,2.5714596 -22.7804256,2.5169981 -22.8081112,2.4616619 -22.8348472,2.405512 -22.8607103,2.3486098 -22.8857775,2.2910165 -22.9101249,2.232795 -22.9338088,2.174057 -22.9568944,2.1149 -23.0015646,1.9956412 -23.0447239,1.875644 -23.086961,1.7555338 -23.1288644,1.635936 -23.1710226,1.5174758 -23.2140241,1.4007789 -23.236025,1.343287 -23.2584575,1.2864704 -23.2813951,1.2304073 -23.3049113,1.1751759 -23.3290798,1.1208542 -23.3539741,1.0675206 -23.3796681,1.0152521 -23.4062452,0.9641053 -23.433786,0.9141513 -23.4623684,0.8654713 -23.4920699,0.8181463 -23.5229682,0.7722572 -23.5551409,0.7278851 -23.5886656,0.6851111 -23.6236201,0.644016 -23.6600819,0.604681 -23.6789024,0.5856988 -23.6981288,0.5671869 -23.7177616,0.5491641 -23.7377606,0.5316826 -23.758126,0.5147533 -23.778865,0.4983798 -23.799985,0.482566 -23.8214934,0.4673156 -23.8433975,0.4526325 -23.8657046,0.4385204 -23.888422,0.4249831 -23.9115572,0.4120244 -23.935117,0.3996483 -23.9589971,0.3879118 -23.9831092,0.3768503 -24.0074495,0.3664526 -24.0320146,0.3567076 -24.0568006,0.3476042 -24.081804,0.3391315 -24.1070212,0.3312781 -24.1324485,0.3240331 -24.1580822,0.3173854 -24.1839188,0.3113239 -24.2099546,0.3058374 -24.2099546,0.3058374 -24.4457179,0.3068584 -24.6791628,0.3078955 -24.9103231,0.3089485 -25.1392323,0.3100173 -25.365923,0.3111017 -25.5904273,0.3122015 -25.8127767,0.3133166 -26.0330019,0.3144469 -26.2511334,0.3155922 -26.4672008,0.3167523 -26.6812332,0.3179271 -26.8932592,0.3191165 -27.1033069,0.3203202 -27.3114038,0.3215383 -27.5175769,0.3227705 -27.7218529,0.3240168 -27.9242577,0.3252769 -28.1248169,0.3265508 -28.3235555,0.3278383 -28.5204984,0.3291394 -28.7156696,0.3304539 -28.909093,0.3317817 -29.1007919,0.3331226 -29.2907893,0.3344766 -29.4791076,0.3358436 -29.6657691,0.3372235 -29.8507955,0.3386161 -30.0342081,0.3400213 -30.2160279,0.3414391 -30.3962757,0.3428693 -30.5749716,0.3443119 -30.7521356,0.3457668 -30.9277873,0.3472338 -31.101946,0.3487129 -31.2746306,0.3502039 -31.4458598,0.3517069 -31.6156517,0.3532217 -31.7840245,0.3547482 -31.9509958,0.3562864 -32.1165831,0.3578361 -32.2808034,0.3593973 -32.4436736,0.36097 -32.6052103,0.3625539 -32.7654297,0.3641491 -32.9243479,0.3657555 -33.0819806,0.367373 -33.2383434,0.3690016 -33.3934516,0.3706411 -33.5473201,0.3722915 -33.6999638,0.3739528 -33.8513972,0.3756248 -34.0016345,0.3773076 -34.15069,0.379001 -34.2985775,0.3807049 -34.4453106,0.3824194 -34.5909028,0.3841444 -34.7353674,0.3858798 -34.8787173,0.3876255 -35.0209654,0.3893815 -35.1621243,0.3911477 -35.3022065,0.3929241 -35.4412243,0.3947107 -35.5791897,0.3965073 -35.7161145,0.398314 -35.8520106,0.4001307 -35.9868894,0.4019572 -36.1207624,0.4037937 -36.2536406,0.40564 -36.3855351,0.4074961 -36.5164569,0.4093619 -36.6464165,0.4112375 -36.7754247,0.4131226 -36.9034916,0.4150174 -37.0306277,0.4169218 -37.1568429,0.4188357 -37.2821474,0.4207591 -37.4065507,0.422692 -37.5300627,0.4246343 -37.6526928,0.4265859 -37.7744505,0.4285469 -37.8953451,0.4305172 -38.0153855,0.4324968 -38.1345809,0.4344856 -38.2529401,0.4364836 -38.3704719,0.4384907 -38.487185,0.4405071 -38.6030877,0.4425325 -38.7181886,0.4445669 -38.8324958,0.4466105 -38.9460176,0.448663 -39.058762,0.4507245 -39.170737,0.452795 -39.2819504,0.4548744 -39.3924099,0.4569627 -39.5021231,0.4590599 -39.6110976,0.4611659 -39.7193408,0.4632807 -39.82686,0.4654044 -39.9336624,0.4675368 -40.0397552,0.4696779 -40.1451454,0.4718278 -40.2498399,0.4739864 -40.3538457,0.4761536 -40.4571694,0.4783296 -40.5598177,0.4805141 -40.6617972,0.4827073 -40.7631145,0.484909 -40.8637758,0.4871194 -40.9637877,0.4893383 -41.0631562,0.4915657 -41.1618877,0.4938017 -41.2599881,0.4960461 -41.3574636,0.4982991 -41.45432,0.5005605 -41.5505632,0.5028303 -41.6461989,0.5051086 -41.8356711,0.5096905 -42.0227814,0.5143059 -42.2075735,0.5189548 -42.3900902,0.523637 -42.5703731,0.5283524 -42.7484629,0.533101 -42.9243993,0.5378827 -43.098221,0.5426973 -43.2699657,0.5475449 -43.4396705,0.5524253 -43.6073712,0.5573385 -43.7731031,0.5622845 -43.9369006,0.567263 -44.0987972,0.5722743 -44.2588257,0.577318 -44.4170182,0.5823944 -44.5734059,0.5875032 -44.7280196,0.5926446 -44.8808891,0.5978183 -45.0320436,0.6030246 -45.1815118,0.6082632 -45.3293216,0.6135343 -45.4755004,0.6188378 -45.6200748,0.6241737 -45.7630712,0.629542 -45.9045151,0.6349427 -46.0444315,0.6403759 -46.1828449,0.6458415 -46.3197794,0.6513396 -46.4552583,0.6568702 -46.5893048,0.6624333 -46.7219413,0.6680289 -46.8531898,0.6736571 -46.983072,0.679318 -47.1116089,0.6850115 -47.2388212,0.6907377 -47.3647293,0.6964967 -47.4893529,0.7022885 -47.6127116,0.7081132 -47.7348244,0.7139708 -47.8557099,0.7198613 -47.9753866,0.7257849 -48.0938723,0.7317417 -48.2111847,0.7377316 -48.3273409,0.7437548 -48.442358,0.7498114 -48.5562524,0.7559013 -48.6690405,0.7620248 -48.7807382,0.7681819 -48.8913612,0.7743727 -49.0009247,0.7805973 -49.1094439,0.7868557 -49.2169335,0.7931481 -49.3234079,0.7994746 -49.4288815,0.8058353 -49.5333682,0.8122303 -49.6368816,0.8186597 -49.7394353,0.8251236 -49.8410423,0.8316222 -49.9417157,0.8381555 -50.0414682,0.8447237 -50.1403122,0.8513269 -50.2382601,0.8579652 -50.3353238,0.8646388 -50.4315151,0.8713478 -50.5268458,0.8780924 -50.6213272,0.8848726 -50.7149705,0.8916886 -50.8077867,0.8985407 -50.8997867,0.9054288 -50.990981,0.9123532 -51.0813802,0.919314 -51.1709944,0.9263114 -51.2598338,0.9333455 -51.3479082,0.9404165 -51.4352275,0.9475245 -51.5218012,0.9546698 -51.6076387,0.9618525 -51.6927492,0.9690728 -51.777142,0.9763308 -51.8608258,0.9836268 -51.9438096,0.9909608 -52.026102,0.9983331 -52.1077114,1.0057439 -52.1886463,1.0131934 -52.268915,1.0206818 -52.3485254,1.0282092 -52.4274856,1.0357758 -52.5058034,1.0433819 -52.5834866,1.0510277 -52.6605426,1.0587133 -52.7369791,1.066439 -52.8128032,1.074205 -52.8880224,1.0820115 -53.036674,1.0977469 -53.1829894,1.113647 -53.3270226,1.1297136 -53.4688258,1.1459486 -53.6084496,1.1623539 -53.7459432,1.1789315 -53.8813541,1.1956834 -54.0147286,1.2126117 -54.1461115,1.2297186 -54.2755463,1.2470062 -54.4030753,1.2644767 -54.5287394,1.2821325 -54.6525785,1.2999759 -54.7746313,1.3180092 -54.8949354,1.336235 -55.0135272,1.3546558 -55.1304424,1.3732741 -55.2457153,1.3920925 -55.3593796,1.4111139 -55.4714679,1.4303408 -55.582012,1.4497762 -55.6910426,1.469423 -55.7985898,1.489284 -55.904683,1.5093623 -56.0093504,1.5296611 -56.1126199,1.5501834 -56.2145184,1.5709325 -56.3150721,1.5919118 -56.4143067,1.6131245 -56.5122471,1.6345743 -56.6089175,1.6562645 -56.7043415,1.6781989 -56.7985423,1.7003811 -56.8915424,1.722815 -56.9833635,1.7455045 -57.0740271,1.7684534 -57.163554,1.7916659 -57.2519644,1.8151462 -57.3392783,1.8388985 -57.4255148,1.8629272 -57.510693,1.8872367 -57.594831,1.9118316 -57.677947,1.9367166 -57.7600583,1.9618964 -57.8411822,1.9873761 -57.9213352,2.0131605 -58.0005336,2.0392549 -58.0787934,2.0656645 -58.1561301,2.0923947 -58.2325589,2.119451 -58.3080945,2.1468392 -58.3827514,2.1745649 -58.4565437,2.2026342 -58.5294853,2.2310531 -58.6015896,2.2598279 -58.6728698,2.288965 -58.7433387,2.318471 -58.813009,2.3483525 -58.8818929,2.3786165 -58.9500024,2.4092701 -59.0173492,2.4403205 -59.0839449,2.4717751 -59.1498006,2.5036417 -59.2149273,2.5359281 -59.2793357,2.5686422 -59.3430362,2.6017924 -59.4060391,2.6353872 -59.4683544,2.6694353 -59.5299919,2.7039455 -59.5909612,2.7389272 -59.6512714,2.7743897 -59.7109319,2.8103427 -59.7699515,2.8467962 -59.8283389,2.8837605 -59.8861027,2.9212461 -59.9432511,2.9592638 -59.9997925,2.9978248 -60.0557346,3.0369404 -60.1110852,3.0766226 -60.165852,3.1168833 -60.2200425,3.1577352 -60.2736637,3.199191 -60.3267228,3.241264 -60.3792268,3.2839677 -60.4311823,3.3273163 -60.482596,3.3713242 -60.5334742,3.4160062 -60.5838234,3.4613778 -60.6336494,3.5074547 -60.6829585,3.5542533 -60.7317562,3.6017903 -60.7800485,3.6500833 -60.8278406,3.69915 -60.8751381,3.749009 -60.9219461,3.7996793 -60.9682698,3.8511807 -61.0141141,3.9035335 -61.0594839,3.9567588 -61.1043837,4.0108783 -61.1488182,4.0659145 -61.1927917,4.1218906 -61.2363085,4.1788306 -61.2793727,4.2367595 -61.3219884,4.2957029 -61.3641593,4.3556875 -61.4058892,4.4167408 -61.4471817,4.4788915 -61.4880403,4.5421691 -61.5284682,4.6066043 -61.5684686,4.6722289 -61.6080446,4.7390759 -61.6471991,4.8071796 -61.6859348,4.8765754 -61.7242543,4.9473001 -61.7621601,5.0193922 -61.7996546,5.0928914 -61.8367399,5.167839 -61.8734181,5.244278 -61.909691,5.3222531 -61.9455603,5.4018108 -61.9810277,5.4829996 -62.0160945,5.5658699 -62.050762,5.6504741 -62.0850312,5.7368671 -62.118903,5.8251058 -62.1523782,5.9152499 -62.1854572,6.0073613 -62.2181405,6.1015051 -62.250428,6.1977489 -62.2823199,6.2961634 -62.3138157,6.3968228 -62.3449151,6.4998044 -62.3603159,6.5521912 -62.3756172,6.6051892 -62.390819,6.6588092 -62.4059212,6.7130621 -62.4209234,6.7679592 -62.4358257,6.823512 -62.4506278,6.8797322 -62.4653294,6.936632 -62.4799304,6.9942236 -62.4944304,7.0525198 -62.5088294,7.1115335 -62.5231269,7.171278 -62.5373226,7.231767 -62.5514163,7.2930143 -62.5654076,7.3550344 -62.5792962,7.4178419 -62.5930816,7.4814518 -62.6067635,7.5458796 -62.6203414,7.6111412 -62.6338149,7.6772527 -62.6471835,7.7442309 -62.6604467,7.8120929 -62.673604,7.8808562 -62.6866549,7.9505389 -62.6995987,8.0211595 -62.7124349,8.092737 -62.7251629,8.1652911 -62.737782,8.2388416 -62.7502914,8.3134094 -62.7626906,8.3890156 -62.7749787,8.4656819 -62.7871549,8.5434309 -62.7992185,8.6222856 -62.8111685,8.7022697 -62.8230042,8.7834075 -62.8347246,8.8657242 -62.8463286,8.9492457 -62.8578154,9.0339985 -62.8691839,9.12001 -62.8804329,9.2073085 -62.8915614,9.2959229 -62.9025682,9.3858832 -62.913452,9.4772204 -62.9242117,9.5699661 -62.9348458,9.6641532 -62.945353,9.7598155 -62.9557318,9.8569878 -62.9659809,9.9557063 -62.9760985,10.056008 -62.9860833,10.1579312 -62.9959333,10.2615157 -63.005647,10.3668022 -63.0152226,10.473833 -63.0246581,10.5826518 -63.0339515,10.6933037 -63.043101,10.8058355 -63.0521043,10.9202952 -63.0609593,11.0367329 -63.0696637,11.1552003 -63.0782151,11.2757508 -63.0866111,11.3984397 -63.0948491,11.5233246 -63.1029264,11.6504647 -63.1108403,11.7799218 -63.1147351,11.845539 -63.1185878,11.9117595 -63.1223983,11.9785918 -63.126166,12.0460443 -63.1298907,12.1141257 -63.1335718,12.1828447 -63.1372089,12.2522105 -63.1408018,12.3222322 -63.1443498,12.392919 -63.1478526,12.4642806 -63.1513098,12.5363266 -63.1547208,12.609067 -63.1580853,12.6825117 -63.1614026,12.7566711 -63.1646725,12.8315556 -63.1678943,12.9071759 -63.1710675,12.983543 -63.1741917,13.0606679 -63.1772663,13.1385619 -63.1802907,13.2172367 -63.1832645,13.2967039 -63.186187,13.3769757 -63.1890577,13.4580642 -63.191876,13.5399821 -63.1946412,13.622742 -63.1973529,13.7063571 -63.2000103,13.7908407 -63.2026128,13.8762063 -63.2051598,13.9624678 -63.2076505,14.0496395 -63.2100844,14.1377357 -63.2124607,14.2267712 -63.2147786,14.3167612 -63.2170375,14.4077211 -63.2192367,14.4996665 -63.2213753,14.5926137 -63.2234525,14.6865791 -63.2254676,14.7815795 -63.2274198,14.877632 -63.2293081,14.9747543 -63.2311319,15.0729642 -63.2328901,15.1722803 -63.2345818,15.2727211 -63.2362063,15.3743061 -63.2377624,15.4770547 -63.2392494,15.5809872 -63.2406661,15.686124 -63.2420115,15.7924863 -63.2432847,15.9000955 -63.2444846,16.0089738 -63.24561,16.1191436 -63.24666,16.2306282 -63.2476332,16.3434511 -63.2485287,16.4576366 -63.2493451,16.5732095 -63.2500813,16.6901953 -63.2507359,16.80862 -63.2513078,16.9285103 -63.2517956,17.0498936 -63.2521978,17.1727979 -63.2525133,17.297252 -63.2527404,17.4232854 -63.2528778,17.5509284 -63.2529239,17.6802118 -63.2529239,17.6802118 -63.2528778,17.8095076 -63.2527404,17.9371625 -63.2525132,18.0632075 -63.2521977,18.187673 -63.2517954,18.3105884 -63.2513075,18.4319825 -63.2507355,18.5518834 -63.2500807,18.6703183 -63.2493444,18.7873141 -63.2485279,18.9028968 -63.2476323,19.0170919 -63.2466588,19.1299241 -63.2456087,19.2414177 -63.244483,19.3515963 -63.2432829,19.4604832 -63.2420095,19.5681009 -63.2406638,19.6744714 -63.2392469,19.7796162 -63.2377597,19.8835565 -63.2362032,19.9863128 -63.2345785,20.0879052 -63.2328864,20.1883533 -63.2311279,20.2876764 -63.2293039,20.3858933 -63.2274152,20.4830223 -63.2254627,20.5790814 -63.2234472,20.6740882 -63.2213696,20.7680599 -63.2192307,20.8610132 -63.2170312,20.9529647 -63.2147718,21.0439304 -63.2124535,21.1339261 -63.2100768,21.2229672 -63.2076425,21.3110688 -63.2051514,21.3982457 -63.2026039,21.4845124 -63.200001,21.5698831 -63.1973431,21.6543716 -63.194631,21.7379915 -63.1918653,21.8207562 -63.1890465,21.9026786 -63.1861754,21.9837717 -63.1832524,22.0640478 -63.1802781,22.1435193 -63.1772532,22.2221982 -63.1741781,22.3000963 -63.1710534,22.3772252 -63.1678796,22.4535961 -63.1646573,22.5292203 -63.1613869,22.6041085 -63.158069,22.6782715 -63.154704,22.7517197 -63.1512924,22.8244635 -63.1478347,22.8965129 -63.1443313,22.9678778 -63.1407827,23.0385678 -63.1371893,23.1085926 -63.1335515,23.1779614 -63.1298698,23.2466835 -63.1261446,23.3147677 -63.1223762,23.3822231 -63.1185652,23.4490581 -63.1147117,23.5152814 -63.1108164,23.5809012 -63.1029012,23.7103633 -63.0948226,23.8375083 -63.0865833,23.9623977 -63.078186,24.0850911 -63.0696332,24.2056457 -63.0609274,24.324117 -63.0520711,24.4405585 -63.0430663,24.5550218 -63.0339154,24.6675569 -63.0246205,24.778212 -63.0151835,24.8870339 -63.0056065,24.9940676 -62.9958913,25.0993569 -62.9860397,25.2029439 -62.9760534,25.3048696 -62.9659342,25.4051736 -62.9556835,25.5038942 -62.9453031,25.6010686 -62.9347943,25.6967329 -62.9241585,25.7909218 -62.9133972,25.8836692 -62.9025117,25.975008 -62.8915032,26.0649698 -62.880373,26.1535857 -62.8691223,26.2408854 -62.8577521,26.3268982 -62.8462636,26.4116521 -62.8346577,26.4951746 -62.8229356,26.5774923 -62.8110981,26.6586311 -62.7991462,26.7386159 -62.7870808,26.8174714 -62.7749027,26.895221 -62.7626128,26.971888 -62.7502117,27.0474948 -62.7377004,27.122063 -62.7250794,27.195614 -62.7123495,27.2681684 -62.6995113,27.3397463 -62.6865655,27.4103672 -62.6735126,27.4800501 -62.6603533,27.5488136 -62.6470881,27.6166757 -62.6337174,27.683654 -62.6202419,27.7497656 -62.6066619,27.8150271 -62.592978,27.8794549 -62.5791904,27.9430648 -62.5652998,28.0058721 -62.5513063,28.067892 -62.5372105,28.1291392 -62.5230126,28.189628 -62.5087129,28.2493722 -62.4943117,28.3083857 -62.4798094,28.3666816 -62.4652062,28.4242729 -62.4505023,28.4811723 -62.435698,28.5373921 -62.4207935,28.5929445 -62.4057889,28.6478411 -62.3906844,28.7020936 -62.3754803,28.7557131 -62.3601766,28.8087106 -62.3447734,28.8610969 -62.3136693,28.9640773 -62.2821685,29.0647355 -62.2502717,29.1631489 -62.2179791,29.2593913 -62.1852908,29.3535337 -62.1522066,29.4456438 -62.1187261,29.5357863 -62.084849,29.6240236 -62.0505743,29.710415 -62.0159014,29.7950176 -61.980829,29.8778863 -61.9453559,29.9590734 -61.9094808,30.0386295 -61.8732021,30.1166029 -61.836518,30.1930401 -61.7994267,30.267986 -61.7619261,30.3414834 -61.724014,30.4135736 -61.6856882,30.4842966 -61.6469461,30.5536906 -61.6077852,30.6217924 -61.5682026,30.6886376 -61.5281955,30.7542603 -61.4877608,30.8186937 -61.4468953,30.8819694 -61.4055958,30.9441182 -61.3638588,31.0051697 -61.3216806,31.0651524 -61.2790576,31.1240939 -61.235986,31.1820209 -61.1924616,31.2389591 -61.1484804,31.2949333 -61.1040381,31.3499676 -61.0591304,31.4040852 -61.0137526,31.4573086 -60.9679001,31.5096596 -60.9215681,31.5611591 -60.8747516,31.6118276 -60.8274455,31.6616847 -60.7796446,31.7107495 -60.7313436,31.7590406 -60.6825368,31.8065758 -60.6332186,31.8533726 -60.5833832,31.8994476 -60.5330246,31.9448174 -60.4821368,31.9894976 -60.4307133,32.0335037 -60.3787479,32.0768504 -60.3262338,32.1195524 -60.2731644,32.1616236 -60.2195327,32.2030776 -60.1653317,32.2439277 -60.1105541,32.2841867 -60.0551924,32.3238671 -59.9992391,32.362981 -59.9426865,32.4015402 -59.8855264,32.4395562 -59.8277509,32.47704 -59.7693515,32.5140026 -59.7103197,32.5504544 -59.6506469,32.5864057 -59.590324,32.6218666 -59.529342,32.6568465 -59.4676914,32.6913551 -59.4053628,32.7254015 -59.3423464,32.7589946 -59.278632,32.7921432 -59.2142096,32.8248557 -59.1490687,32.8571404 -59.0831984,32.8890053 -59.016588,32.9204584 -58.9492261,32.9515072 -58.8811012,32.9821592 -58.8122017,33.0124216 -58.7425155,33.0423015 -58.6720303,33.0718059 -58.6007336,33.1009414 -58.5286125,33.1297147 -58.4556537,33.1581321 -58.3818439,33.1861998 -58.3071691,33.213924 -58.2316154,33.2413106 -58.1551681,33.2683655 -58.0778125,33.2950942 -57.9995334,33.3215023 -57.9203153,33.3475952 -57.8401423,33.3733781 -57.7589981,33.3988563 -57.6768659,33.4240347 -57.5937287,33.4489182 -57.5095689,33.4735116 -57.4243687,33.4978197 -57.3381096,33.5218469 -57.2507727,33.5455978 -57.1623387,33.5690766 -57.0727878,33.5922877 -56.9820998,33.6152352 -56.8902536,33.6379233 -56.7972281,33.6603558 -56.7030012,33.6825366 -56.6075505,33.7044696 -56.5108529,33.7261584 -56.4128848,33.7476068 -56.3136218,33.7688182 -56.213039,33.789796 -56.1111109,33.8105438 -56.0078111,33.8310648 -55.9031127,33.8513621 -55.7969879,33.8714391 -55.6894083,33.8912988 -55.5803445,33.9109442 -55.4697667,33.9303783 -55.3576437,33.9496039 -55.243944,33.9686239 -55.1286348,33.987441 -55.0116826,34.006058 -54.8930528,34.0244774 -54.7727099,34.0427019 -54.6506173,34.0607339 -54.5267375,34.078576 -54.4010316,34.0962304 -54.27346,34.1136997 -54.1439814,34.1309859 -54.0125537,34.1480915 -53.8791333,34.1650185 -53.7436753,34.1817691 -53.6061335,34.1983454 -53.4664602,34.2147494 -53.3246063,34.2309831 -53.180521,34.2470484 -53.0341522,34.2629472 -52.8854459,34.2786813 -52.8101989,34.2864871 -52.7343464,34.2942525 -52.6578813,34.3019775 -52.5807963,34.3096625 -52.5030837,34.3173076 -52.4247362,34.3249131 -52.3457458,34.3324791 -52.2661048,34.3400058 -52.1858052,34.3474935 -52.1048388,34.3549423 -52.0231976,34.3623525 -51.940873,34.3697241 -51.8578565,34.3770575 -51.7741395,34.3843528 -51.6897132,34.3916102 -51.6045686,34.3988298 -51.5186966,34.4060118 -51.4320879,34.4131564 -51.3447332,34.4202638 -51.2566227,34.4273342 -51.1677469,34.4343676 -51.0780957,34.4413643 -50.987659,34.4483245 -50.8964267,34.4552482 -50.8043881,34.4621356 -50.7115328,34.468987 -50.6178498,34.4758024 -50.5233281,34.4825819 -50.4279566,34.4893258 -50.3317238,34.4960341 -50.234618,34.502707 -50.1366275,34.5093447 -50.0377402,34.5159472 -49.9379439,34.5225147 -49.8372259,34.5290473 -49.7355736,34.5355452 -49.6329741,34.5420084 -49.529414,34.5484371 -49.4248801,34.5548314 -49.3193585,34.5611914 -49.2128353,34.5675172 -49.1052962,34.5738089 -48.9967268,34.5800667 -48.8871122,34.5862905 -48.7764375,34.5924806 -48.6646871,34.598637 -48.5518456,34.6047597 -48.4378969,34.610849 -48.3228247,34.6169048 -48.2066124,34.6229273 -48.0892432,34.6289165 -47.9706997,34.6348725 -47.8509643,34.6407954 -47.7300191,34.6466852 -47.6078457,34.652542 -47.4844254,34.6583659 -47.3597391,34.664157 -47.2337674,34.6699152 -47.1064903,34.6756407 -46.9778877,34.6813334 -46.8479386,34.6869935 -46.7166221,34.692621 -46.5839165,34.6982158 -46.4497997,34.7037781 -46.3142492,34.7093079 -46.177242,34.7148052 -46.0387546,34.72027 -45.8987629,34.7257024 -45.7572425,34.7311023 -45.6141682,34.7364698 -45.4695145,34.7418049 -45.3232551,34.7471075 -45.1753632,34.7523778 -45.0258114,34.7576156 -44.8745719,34.762821 -44.7216158,34.7679939 -44.566914,34.7731344 -44.4104365,34.7782423 -44.2521526,34.7833178 -44.0920311,34.7883607 -43.9300397,34.793371 -43.7661457,34.7983487 -43.6003154,34.8032937 -43.4325145,34.808206 -43.2627077,34.8130855 -43.0908589,34.8179321 -42.9169312,34.8227458 -42.7408867,34.8275266 -42.5626868,34.8322742 -42.3822915,34.8369887 -42.1996604,34.8416699 -42.0147515,34.8463178 -41.8275222,34.8509321 -41.6379286,34.855513 -41.5422312,34.8577908 -41.4459258,34.8600601 -41.3490065,34.862321 -41.2514676,34.8645734 -41.153303,34.8668173 -41.0545068,34.8690528 -40.9550728,34.8712797 -40.8549948,34.873498 -40.7542667,34.8757078 -40.652882,34.8779091 -40.5508343,34.8801017 -40.4481171,34.8822857 -40.3447238,34.8844611 -40.2406478,34.8866278 -40.1358822,34.8887858 -40.0304203,34.8909351 -39.924255,34.8930757 -39.8173792,34.8952075 -39.709786,34.8973306 -39.601468,34.8994448 -39.4924179,34.9015503 -39.3826282,34.9036469 -39.2720915,34.9057346 -39.1608,34.9078134 -39.0487461,34.9098832 -38.9359219,34.9119442 -38.8223195,34.9139961 -38.7079308,34.916039 -38.5927475,34.9180729 -38.4767615,34.9200977 -38.3599643,34.9221133 -38.2423473,34.9241199 -38.123902,34.9261172 -38.0046196,34.9281054 -37.8844912,34.9300843 -37.7635077,34.932054 -37.64166,34.9340143 -37.5189389,34.9359653 -37.3953349,34.9379069 -37.2708385,34.9398391 -37.14544,34.9417618 -37.0191296,34.9436751 -36.8918973,34.9455788 -36.763733,34.9474729 -36.6346264,34.9493574 -36.5045672,34.9512322 -36.3735447,34.9530973 -36.2415482,34.9549527 -36.1085668,34.9567983 -35.9745896,34.958634 -35.8396052,34.9604598 -35.7036024,34.9622758 -35.5665694,34.9640817 -35.4284947,34.9658776 -35.2893663,34.9676634 -35.1491721,34.969439 -35.0078999,34.9712045 -34.8655371,34.9729597 -34.7220711,34.9747047 -34.5774891,34.9764392 -34.431778,34.9781634 -34.2849246,34.9798771 -34.1369152,34.9815802 -33.9877364,34.9832728 -33.8373742,34.9849547 -33.6858144,34.9866259 -33.5330428,34.9882863 -33.3790447,34.9899359 -33.2238053,34.9915745 -33.0673096,34.9932022 -32.9095423,34.9948189 -32.7504879,34.9964244 -32.5901305,34.9980187 -32.428454,34.9996017 -32.2654423,35.0011734 -32.1010786,35.0027337 -31.9353461,35.0042825 -31.7682276,35.0058197 -31.5997058,35.0073453 -31.4297628,35.0088591 -31.2583807,35.0103611 -31.0855411,35.0118512 -30.9112253,35.0133293 -30.7354144,35.0147953 -30.558089,35.0162491 -30.3792296,35.0176907 -30.1988162,35.0191199 -30.0168284,35.0205366 -29.8332456,35.0219408 -29.6480467,35.0233323 -29.4612103,35.0247111 -29.2727146,35.026077 -29.0825375,35.0274299 -28.8906563,35.0287697 -28.6970481,35.0300963 -28.5016894,35.0314096 -28.3045565,35.0327096 -28.105625,35.0339959 -27.9048703,35.0352686 -27.7022673,35.0365275 -27.4977902,35.0377725 -27.291413,35.0390035 -27.0831091,35.0402203 -26.8728514,35.0414228 -26.6606123,35.0426109 -26.4463637,35.0437844 -26.2300769,35.0449432 -26.0117228,35.0460871 -25.7912716,35.047216 -25.5686929,35.0483298 -25.3439559,35.0494283 -25.1170289,35.0505112 -24.8878798,35.0515786 -24.656476,35.0526302 -24.4227839,35.0536658 -24.1867695,35.0546853 -24.1867695,35.0546853 -24.1341183,35.0438608 -24.0822744,35.0309025 -24.0566701,35.0235933 -24.0312854,35.0157147 -24.0061264,35.0072548 -23.9811989,34.9982016 -23.9565089,34.9885432 -23.9320624,34.9782675 -23.9078653,34.9673627 -23.8839236,34.9558168 -23.8602432,34.9436177 -23.8368301,34.9307536 -23.8136902,34.9172124 -23.7908295,34.9029823 -23.7683247,34.8881004 -23.7463368,34.8726786 -23.7248618,34.8567288 -23.7038889,34.8402587 -23.6834076,34.8232758 -23.6634072,34.8057879 -23.643877,34.7878026 -23.6248063,34.7693274 -23.6061846,34.75037 -23.5880011,34.730938 -23.5702452,34.7110392 -23.5529062,34.690681 -23.5194365,34.6486171 -23.4875346,34.6048491 -23.4571689,34.559534 -23.4282484,34.5127553 -23.4006803,34.4645939 -23.3743719,34.4151307 -23.3492305,34.3644465 -23.3251634,34.3126224 -23.3020777,34.2597392 -23.2798807,34.2058779 -23.2584785,34.1511153 -23.2377689,34.0954954 -23.2176598,34.0390874 -23.1980621,33.9819682 -23.1788862,33.9242148 -23.160043,33.8659041 -23.1229969,33.7479186 -23.086209,33.6286274 -23.0489645,33.5086461 -23.0105489,33.3885901 -22.9702472,33.2690752 -22.9491657,33.2097131 -22.9273448,33.150717 -22.9046949,33.0921639 -22.8811269,33.0341309 -22.8565494,32.9766884 -22.8308617,32.9198733 -22.8039687,32.8637456 -22.7757767,32.8083699 -22.7461919,32.7538112 -22.7151208,32.7001343 -22.6824697,32.6474038 -22.6481448,32.5956847 -22.6120525,32.5450417 -22.5740991,32.4955397 -22.534427,32.447518 -22.4933635,32.4014276 -22.4508829,32.3572351 -22.4069545,32.3149008 -22.3615476,32.2743846 -22.3146313,32.2356467 -22.2661749,32.1986472 -22.2161476,32.1633462 -22.1645187,32.1297038 -22.1112573,32.0976801 A1.25,1.25 240 0,1 -20.8612573,32.0976801 L-20.8612573,32.0976801 -20.8345018,32.1134888 -20.8082125,32.129749 -20.7823817,32.1464616 -20.7570017,32.1636276 -20.7320647,32.1812479 -20.7075629,32.1993235 -20.6834888,32.2178553 -20.6598344,32.2368444 -20.6365922,32.2562916 -20.6137543,32.276198 -20.5913131,32.2965645 -20.5692607,32.317392 -20.5262919,32.3604342 -20.4847859,32.4053322 -20.4446809,32.4520938 -20.4059332,32.5007029 -20.3687423,32.5507961 -20.3331137,32.6021951 -20.2989623,32.654832 -20.2662027,32.7086389 -20.2347496,32.7635478 -20.2045178,32.8194909 -20.1754221,32.8764 -20.1473771,32.9342075 -20.1202976,32.9928452 -20.0940984,33.0522452 -20.0686941,33.1123397 -20.0440144,33.1730246 -20.0199936,33.234178 -19.9965501,33.2957132 -19.9510687,33.4195815 -19.9069177,33.5439353 -19.8634446,33.6680806 -19.8199965,33.791323 -19.775921,33.9129684 -19.753444,33.9729753 -19.7305654,34.0323226 -19.7072036,34.0909236 -19.683277,34.1486915 -19.6587041,34.2055395 -19.6334034,34.2613808 -19.6072931,34.3161287 -19.5802917,34.3696964 -19.5523152,34.4220035 -19.5232736,34.4729774 -19.4930812,34.5225309 -19.4616523,34.5705757 -19.4289014,34.6170238 -19.3947427,34.6617871 -19.3590906,34.7047777 -19.3406777,34.7255806 -19.3218595,34.7459073 -19.302625,34.7657468 -19.2829637,34.785088 -19.2628648,34.8039199 -19.2423176,34.8222316 -19.2213152,34.8400089 -19.199928,34.8571771 -19.1781815,34.8737087 -19.15607,34.8896038 -19.1335873,34.9048625 -19.1107278,34.9194851 -19.0874853,34.9334715 -19.063854,34.9468219 -19.0398279,34.9595364 -19.0154012,34.9716152 -18.9905679,34.9830585 -18.9653232,34.9938657 -18.9397887,35.0039881 -18.9140563,35.0134028 -18.8881339,35.0221251 -18.8620293,35.0301701 -18.8357503,35.0375532 -18.8093048,35.0442895 -18.7827007,35.0503943 -18.7559458,35.0558828 -18.729048,35.0607702 -18.702015,35.0650717 -18.6475753,35.0719779 -18.6475753,35.0719779 -18.417628,35.0724562 -18.1856874,35.0729217 -17.9517276,35.0733744 -17.715722,35.0738141 -17.4776438,35.0742406 -17.2374654,35.0746539 -16.9951591,35.0750538 -16.7506963,35.0754401 -16.5040483,35.0758127 -16.2551856,35.0761715 -16.0040782,35.0765162 -15.7506956,35.0768468 -15.4950069,35.077163 -15.2369803,35.0774647 -14.9765837,35.0777518 -14.8454865,35.0778898 -14.7137844,35.0780241 -14.5814732,35.0781546 -14.4485488,35.0782813 -14.3150068,35.0784043 -14.1808429,35.0785234 -14.0460529,35.0786387 -13.9106322,35.0787501 -13.7745766,35.0788577 -13.6378814,35.0789613 -13.5005421,35.079061 -13.3625543,35.0791567 -13.2239133,35.0792485 -13.0846144,35.0793363 -12.944653,35.07942 -12.8040244,35.0794997 -12.6627237,35.0795753 -12.5207461,35.0796468 -12.3780868,35.0797142 -12.2347407,35.0797775 -12.0907031,35.0798365 -11.9459688,35.0798914 -11.8005328,35.079942 -11.6543899,35.0799883 -11.507535,35.0800304 -11.359963,35.0800682 -11.2116684,35.0801016 -11.0626461,35.0801307 -10.9128906,35.0801554 -10.7623965,35.0801756 -10.6111583,35.0801914 -10.4591706,35.0802028 -10.3064277,35.0802096 -10.1529239,35.0802118 -10.1529239,35.0802118 -9.954842,35.0801994 -9.7578796,35.0801623 -9.5620273,35.0801006 -9.3672758,35.0800145 -9.1736158,35.0799041 -8.9810383,35.0797696 -8.7895343,35.0796112 -8.5990948,35.079429 -8.409711,35.0792232 -8.2213742,35.0789938 -8.0340758,35.0787412 -7.8478073,35.0784652 -7.6625602,35.0781663 -7.4783262,35.0778444 -7.2950971,35.0774997 -7.1128646,35.0771323 -6.9316208,35.0767425 -6.7513575,35.0763303 -6.572067,35.0758958 -6.3937414,35.0754392 -6.216373,35.0749606 -6.0399542,35.0744601 -5.8644773,35.0739379 -5.6899349,35.0733941 -5.5163195,35.0728288 -5.3436239,35.0722421 -5.1718408,35.0716342 -5.0009631,35.0710051 -4.8309835,35.0703551 -4.6618951,35.0696841 -4.493691,35.0689924 -4.3263642,35.06828 -4.159908,35.0675471 -3.9943156,35.0667937 -3.8295803,35.06602 -3.6656956,35.065226 -3.5026548,35.0644119 -3.3404516,35.0635779 -3.1790796,35.0627239 -3.0185323,35.0618501 -2.8588036,35.0609566 -2.6998872,35.0600435 -2.541777,35.0591109 -2.3844668,35.0581589 -2.2279508,35.0571877 -2.0722228,35.0561972 -1.9172771,35.0551876 -1.7631077,35.0541589 -1.6097089,35.0531114 -1.457075,35.052045 -1.3052002,35.0509599 -1.154079,35.0498562 -1.0037059,35.0487338 -0.8540752,35.047593 -0.7051816,35.0464339 -0.5570196,35.0452564 -0.4095839,35.0440607 -0.2628693,35.0428469 -0.1168705,35.0416151 0.0284178,35.0403653 0.1730006,35.0390976 0.3168831,35.0378121 0.4600703,35.0365089 0.6025671,35.035188 0.7443786,35.0338496 0.8855096,35.0324937 1.0259649,35.0311204 1.1657495,35.0297298 1.304868,35.0283219 1.4433251,35.0268968 1.5811256,35.0254546 1.718274,35.0239954 1.854775,35.0225192 1.9906331,35.0210261 2.1258527,35.0195161 2.2604383,35.0179894 2.3943944,35.016446 2.5277254,35.014886 2.6604355,35.0133094 2.792529,35.0117164 2.9240102,35.0101069 3.0548833,35.008481 3.314822,35.0051805 3.572378,35.0018152 3.8275836,34.9983858 4.0804705,34.9948926 4.3310701,34.9913361 4.5794128,34.9877169 4.8255289,34.9840353 5.0694478,34.9802917 5.3111986,34.9764867 5.5508098,34.9726205 5.7883095,34.9686937 6.0237252,34.9647066 6.2570838,34.9606597 6.4884122,34.9565532 6.7177362,34.9523876 6.9450817,34.9481632 7.1704739,34.9438804 7.3939376,34.9395395 7.6154972,34.9351409 7.8351766,34.9306849 8.0529995,34.9261718 8.2689891,34.9216019 8.4831681,34.9169756 8.695559,34.9122931 8.9061838,34.9075547 9.1150643,34.9027608 9.3222217,34.8979115 9.5276771,34.8930072 9.731451,34.8880482 9.9335639,34.8830346 10.1340356,34.8779668 10.332886,34.872845 10.5301342,34.8676693 10.7257994,34.8624402 10.9199003,34.8571577 11.1124553,34.8518222 11.3034826,34.8464337 11.4930001,34.8409926 11.6810254,34.8354991 11.8675757,34.8299532 12.0526681,34.8243553 12.2363195,34.8187055 12.4185463,34.813004 12.5993648,34.807251 12.7787911,34.8014466 12.9568409,34.795591 13.1335297,34.7896844 13.308873,34.783727 13.4828857,34.7777188 13.6555827,34.77166 13.8269786,34.7655509 13.997088,34.7593914 14.1659248,34.7531818 14.3335033,34.7469221 14.499837,34.7406125 14.6649397,34.7342532 14.8288247,34.7278442 14.9915052,34.7213856 15.1529942,34.7148776 15.3133045,34.7083203 15.4724487,34.7017137 15.6304393,34.695058 15.7872886,34.6883532 15.9430086,34.6815994 16.0976113,34.6747967 16.2511084,34.6679453 16.4035115,34.6610451 16.554832,34.6540962 16.7050813,34.6470988 16.8542703,34.6400528 17.0024101,34.6329584 17.1495115,34.6258155 17.2955851,34.6186244 17.4406414,34.6113849 17.5846908,34.6040971 17.7277435,34.5967612 17.8698095,34.5893771 18.010899,34.5819448 18.1510215,34.5744645 18.2901869,34.5669361 18.4284046,34.5593596 18.5656841,34.5517352 18.7020347,34.5440627 18.8374655,34.5363423 18.9719857,34.5285739 19.105604,34.5207576 19.2383294,34.5128934 19.2383294,34.5128934 19.2583146,34.4783485 19.2776344,34.4431169 19.2963229,34.4072289 19.3144144,34.3707151 19.3319429,34.3336059 19.3489424,34.2959318 19.3654471,34.2577232 19.3814912,34.2190105 19.4123337,34.1401952 19.4417427,34.0597293 19.4699966,33.9778304 19.4973762,33.8946794 19.5241509,33.8104921 19.5505897,33.7254854 19.6035356,33.5538808 19.630581,33.4677165 19.6583666,33.3815999 19.6871617,33.2957477 19.7172352,33.2103769 19.7488562,33.1257041 19.7822937,33.0419461 19.7997778,33.0004779 19.8178169,32.9593197 19.8364429,32.9185023 19.8556829,32.8780657 19.8755704,32.8380334 19.8961401,32.7984273 19.9174264,32.7592691 19.939464,32.7205807 19.9622873,32.6823838 19.9859309,32.6447003 20.0104293,32.6075518 20.0358171,32.5709602 20.0621288,32.5349473 20.0893989,32.4995349 20.1176619,32.4647448 20.146804,32.4307672 20.176664,32.3978045 20.2072518,32.3658412 20.2385776,32.3348615 20.2706517,32.3048494 20.3034842,32.275789 20.3370855,32.2476645 20.3714658,32.2204599 20.4066352,32.1941594 20.4426041,32.1687471 20.4793826,32.144207 20.5169809,32.1205233 20.5554094,32.0976801 A1.25,1.25 240 0,1 21.8054094,32.0976801 L21.8054094,32.0976801 21.8384506,32.1173098 21.8707806,32.1376311 21.9024141,32.158646 21.9333658,32.1803562 21.9636502,32.2027636 21.9932822,32.22587 22.0222762,32.2496772 22.050647,32.274187 22.0784092,32.2994013 22.1055774,32.3253219 22.1321663,32.3519506 22.1581906,32.3792893 22.1836649,32.4073397 22.2086038,32.4361037 22.233022,32.4655831 22.2569258,32.495769 22.2802272,32.5265226 22.3029148,32.5577886 22.3250086,32.589551 22.346529,32.6217937 22.3674962,32.6545006 22.3879302,32.6876556 22.4078514,32.7212425 22.4272799,32.7552454 22.4647397,32.8244345 22.5004712,32.8950941 22.534636,32.9670954 22.5673957,33.0403097 22.5989118,33.1146082 22.6293212,33.1898013 22.6587558,33.2656753 22.6873703,33.3420658 22.7427573,33.4957381 22.796719,33.6495026 22.8504922,33.8020435 22.8776946,33.877444 22.9053136,33.9520451 22.933504,34.0256824 22.9624202,34.0981915 22.9922169,34.1694079 23.0230486,34.2391671 23.0230486,34.2391671 23.2043557,34.2232193 23.3838158,34.2071312 23.5614559,34.1909026 23.7373025,34.174533 23.9113816,34.1580219 24.0837184,34.1413688 24.254338,34.1245734 24.4232648,34.107635 24.5905228,34.0905531 24.7561354,34.0733272 24.9201258,34.0559567 25.0825164,34.038441 25.2433296,34.0207795 25.402587,34.0029717 25.5603101,33.9850167 25.7165196,33.9669141 25.8712363,33.948663 26.0244803,33.9302628 26.1762714,33.9117128 26.3266289,33.8930122 26.4755721,33.8741603 26.6231196,33.8551563 26.7692897,33.8359993 26.9141006,33.8166887 27.0575699,33.7972234 27.1997151,33.7776027 27.3405533,33.7578258 27.4801012,33.7378916 27.6183752,33.7177993 27.7553917,33.6975479 27.8911665,33.6771365 28.0257152,33.6565642 28.1590532,33.6358298 28.2911956,33.6149325 28.4221571,33.593871 28.5519523,33.5726445 28.6805956,33.5512519 28.8081009,33.5296919 28.9344821,33.5079635 29.0597529,33.4860656 29.1839264,33.463997 29.3070159,33.4417564 29.4290343,33.4193428 29.5499942,33.3967548 29.669908,33.3739912 29.7887881,33.3510508 29.9066465,33.3279322 30.023495,33.3046341 30.1393453,33.2811552 30.2542088,33.2574941 30.3680969,33.2336494 30.4810205,33.2096197 30.5929906,33.1854035 30.7040179,33.1609995 30.8141129,33.136406 30.923286,33.1116217 31.0315475,33.0866449 31.1389072,33.0614741 31.2453752,33.0361076 31.350961,33.010544 31.4556744,32.9847815 31.5595245,32.9588184 31.6625208,32.9326531 31.7646723,32.9062838 31.8659879,32.8797088 31.9664765,32.8529263 32.0661467,32.8259345 32.1650071,32.7987315 32.263066,32.7713155 32.3603318,32.7436846 32.4568124,32.7158368 32.552516,32.6877702 32.6474504,32.6594827 32.7416233,32.6309724 32.8350424,32.6022372 32.9277152,32.573275 33.019649,32.5440836 33.1108512,32.514661 33.2013288,32.4850048 33.291089,32.455113 33.3801386,32.4249831 33.4684845,32.394613 33.5561334,32.3640003 33.6430919,32.3331425 33.7293664,32.3020374 33.8149635,32.2706824 33.8998893,32.239075 33.9841502,32.2072127 34.0677522,32.175093 34.1507012,32.1427131 34.2330033,32.1100706 34.3146643,32.0771626 34.3956897,32.0439864 34.4760854,32.0105393 34.5558569,31.9768183 34.6350095,31.9428207 34.7135487,31.9085435 34.7914798,31.8739837 34.8688079,31.8391383 34.9455382,31.8040043 35.0216757,31.7685784 35.0972254,31.7328576 35.1721921,31.6968387 35.2465806,31.6605182 35.3203957,31.623893 35.393642,31.5869596 35.466324,31.5497146 35.5384463,31.5121545 35.6100132,31.4742757 35.681029,31.4360746 35.7514982,31.3975476 35.8214248,31.3586908 35.8908129,31.3195006 35.9596667,31.279973 36.0279901,31.2401041 36.095787,31.1998899 36.1630613,31.1593263 36.2298167,31.1184093 36.296057,31.0771345 36.3617859,31.0354978 36.4270068,30.9934947 36.4917233,30.9511209 36.555939,30.9083719 36.619657,30.8652429 36.6828809,30.8217295 36.7456138,30.7778269 36.807859,30.7335302 36.8696195,30.6888345 36.9308986,30.6437348 36.9916991,30.5982261 37.0520241,30.5523031 37.1118764,30.5059606 37.1712589,30.4591932 37.2301744,30.4119955 37.2886256,30.3643619 37.3466151,30.3162868 37.4041456,30.2677643 37.4612196,30.2187887 37.5178396,30.1693538 37.574008,30.1194538 37.6297273,30.0690822 37.6849996,30.018233 37.7398273,29.9668995 37.7942126,29.9150752 37.8481577,29.8627536 37.9016645,29.8099277 37.9547352,29.7565906 38.0073718,29.7027354 38.059576,29.6483547 38.1113499,29.5934412 38.1626953,29.5379875 38.2136137,29.481986 38.2641071,29.4254288 38.314177,29.3683081 38.3638249,29.3106157 38.4130525,29.2523435 38.4618612,29.1934829 38.5102523,29.1340256 38.5582273,29.0739626 38.6057875,29.0132851 38.652934,28.9519841 38.6996681,28.8900502 38.7459908,28.8274739 38.7919034,28.7642456 38.8374066,28.7003554 38.8825016,28.6357932 38.9271891,28.5705489 38.97147,28.5046118 39.0153451,28.4379713 39.058815,28.3706164 39.1018805,28.302536 39.144542,28.2337186 39.1868001,28.1641527 39.2286552,28.0938262 39.2701077,28.0227271 39.311158,27.9508429 39.3518063,27.8781609 39.3920527,27.8046682 39.4318974,27.7303514 39.4713405,27.655197 39.5103819,27.5791912 39.5490215,27.5023197 39.5872591,27.4245682 39.6250945,27.3459217 39.6625275,27.266365 39.6995576,27.1858828 39.7361843,27.1044591 39.7724071,27.0220777 39.8082253,26.938722 39.8436384,26.8543749 39.8786454,26.769019 39.9132456,26.6826366 39.9474379,26.5952093 39.9812213,26.5067186 40.0145947,26.4171452 40.0475568,26.3264695 40.0801064,26.2346714 40.112242,26.1417305 40.1439621,26.0476255 40.1752651,25.9523349 40.2061492,25.8558365 40.2366128,25.7581075 40.2666537,25.6591248 40.2962701,25.5588643 40.3254597,25.4573016 40.3542203,25.3544116 40.3825495,25.2501683 40.4104448,25.1445455 40.4379036,25.0375158 40.4649231,24.9290514 40.4915004,24.8191237 40.5176326,24.7077032 40.5433163,24.5947598 40.5685485,24.4802623 40.5933254,24.3641789 40.6176437,24.2464769 40.6414995,24.1271225 40.6648888,24.0060811 40.6878077,23.8833171 40.7102518,23.7587938 40.7322166,23.6324737 40.7536976,23.504318 40.77469,23.3742867 40.7951887,23.2423388 40.8151886,23.1084321 40.8346841,22.972523 40.8536698,22.8345666 40.8721396,22.694517 40.8900876,22.5523263 40.9075074,22.4079457 40.9243924,22.2613246 40.9407358,22.1124108 40.9487022,22.0370774 40.9565305,21.9611506 40.9642197,21.8846233 40.971769,21.8074885 40.9791774,21.729739 40.9864439,21.6513674 40.9935674,21.5723663 41.000547,21.4927281 41.0073816,21.4124452 41.0140701,21.3315098 41.0206115,21.2499138 41.0270047,21.1676494 41.0332485,21.0847082 41.0393417,21.0010819 41.0452833,20.9167622 41.051072,20.8317402 41.0567066,20.7460075 41.0621858,20.6595549 41.0675085,20.5723735 41.0726733,20.4844541 41.0776789,20.3957874 41.0825239,20.3063638 41.087207,20.2161736 41.0917269,20.125207 41.096082,20.0334541 41.100271,19.9409045 41.1042924,19.847548 41.1081446,19.7533741 41.1118262,19.6583719 41.1153355,19.5625307 41.1186711,19.4658392 41.1218312,19.3682862 41.1248142,19.2698602 41.1276184,19.1705494 41.1302422,19.070342 41.1326836,18.9692258 41.1349411,18.8671884 41.1370126,18.7642174 41.1388964,18.6602997 41.1405906,18.5554225 41.1420932,18.4495725 41.1434023,18.342736 41.1445158,18.2348993 41.1454316,18.1260484 41.1461477,18.0161689 41.146662,17.9052462 41.1469722,17.7932656 41.1470761,17.6802118 41.1470761,17.6802118 41.146972,17.5670757 41.1466614,17.4550142 41.1461464,17.3440122 41.1454292,17.2340549 41.144512,17.1251276 41.1433969,17.017216 41.142086,16.910306 41.1405812,16.8043838 41.1388846,16.6994358 41.1369981,16.5954487 41.1349236,16.4924094 41.132663,16.3903051 41.130218,16.2891233 41.1275906,16.1888514 41.1247824,16.0894773 41.1217952,15.9909892 41.1186306,15.8933752 41.1152904,15.7966239 41.1117761,15.7007239 41.1080894,15.6056641 41.1042318,15.5114335 41.1002048,15.4180214 41.09601,15.3254173 41.0916488,15.2336108 41.0871227,15.1425916 41.0824331,15.0523498 41.0775814,14.9628755 41.0725689,14.8741589 41.0673971,14.7861906 41.0620671,14.6989613 41.0565804,14.6124616 41.0509381,14.5266825 41.0451415,14.4416152 41.0391918,14.3572508 41.0330903,14.2735807 41.026838,14.1905964 41.0204362,14.1082897 41.0138859,14.0266523 41.0071884,13.9456761 41.0003446,13.8653531 40.9933556,13.7856757 40.9862225,13.706636 40.9789462,13.6282265 40.9715279,13.5504397 40.9639685,13.4732683 40.9562689,13.3967051 40.9484302,13.320743 40.9404532,13.245375 40.924088,13.0963938 40.9071806,12.9497076 40.8897378,12.8052642 40.871766,12.6630131 40.8532718,12.522905 40.8342612,12.3848924 40.81474,12.248929 40.794714,12.1149699 40.7741884,11.9829715 40.7531686,11.8528915 40.7316595,11.7246888 40.7096661,11.5983234 40.6871928,11.4737565 40.6642442,11.3509504 40.6408245,11.2298685 40.6169378,11.110475 40.592588,10.9927352 40.567779,10.8766155 40.5425143,10.7620831 40.5167973,10.6491059 40.4906315,10.537653 40.4640199,10.427694 40.4369656,10.3191996 40.4094715,10.212141 40.3815402,10.1064903 40.3531746,10.0022202 40.324377,9.8993044 40.2951499,9.7977169 40.2654954,9.6974326 40.2354159,9.598427 40.2049132,9.5006761 40.1739893,9.4041565 40.1426461,9.3088457 40.1108852,9.2147213 40.0787083,9.1217617 40.0461169,9.0299458 40.0131123,8.939253 39.979696,8.8496632 39.9458691,8.7611567 39.9116327,8.6737145 39.8769879,8.5873177 39.8419358,8.5019482 39.806477,8.417588 39.7706124,8.3342198 39.7343428,8.2518265 39.6976687,8.1703916 39.6605907,8.0898986 39.6231092,8.0103318 39.5852247,7.9316756 39.5469374,7.8539149 39.5082476,7.7770348 39.4691554,7.7010208 39.4296609,7.6258587 39.3897642,7.5515346 39.3494651,7.4780351 39.3087637,7.4053467 39.2676596,7.3334565 39.2261526,7.2623518 39.1842425,7.1920202 39.1419288,7.1224494 39.099211,7.0536276 39.0560887,6.9855432 39.0125612,6.9181846 38.968628,6.8515407 38.9242883,6.7856006 38.8795414,6.7203535 38.8343863,6.655789 38.7888223,6.5918967 38.7428484,6.5286666 38.6964635,6.4660888 38.6496667,6.4041536 38.6024567,6.3428516 38.5548324,6.2821735 38.5067926,6.2221101 38.4583359,6.1626526 38.409461,6.1037921 38.3601664,6.0455202 38.3104508,5.9878284 38.2603125,5.9307084 38.2097499,5.8741522 38.1587615,5.8181519 38.1073455,5.7626996 38.0555001,5.7077878 38.0032236,5.653409 37.9505141,5.5995557 37.8973696,5.5462209 37.8437881,5.4933974 37.7897677,5.4410783 37.7353061,5.3892569 37.6804013,5.3379263 37.6250511,5.2870801 37.5692531,5.2367119 37.5130051,5.1868152 37.4563046,5.137384 37.3991492,5.088412 37.3415365,5.0398934 37.2834638,4.9918223 37.2249286,4.9441929 37.1659281,4.8969995 37.1064597,4.8502365 37.0465205,4.8038986 36.9861077,4.7579803 36.9252184,4.7124764 36.8638496,4.6673817 36.8019983,4.622691 36.7396614,4.5783995 36.6768357,4.5345021 36.613518,4.4909941 36.5497051,4.4478707 36.4853936,4.4051272 36.4205801,4.3627591 36.3552611,4.3207619 36.2894331,4.2791311 36.2230925,4.2378623 36.1562357,4.1969514 36.0888588,4.156394 36.0209582,4.1161861 35.95253,4.0763236 35.8835701,4.0368024 35.8140747,3.9976188 35.7440396,3.9587687 35.6734608,3.9202483 35.6023339,3.8820541 35.5306547,3.8441822 35.458419,3.806629 35.3856221,3.769391 35.3122596,3.7324648 35.238327,3.6958467 35.1638196,3.6595335 35.0887326,3.6235219 35.0130613,3.5878085 34.9368007,3.5523901 34.8599459,3.5172636 34.7824918,3.4824258 34.7044332,3.4478737 34.625765,3.4136042 34.5464819,3.3796144 34.4665784,3.3459013 34.3860491,3.3124621 34.3048884,3.2792939 34.2230907,3.246394 34.1406501,3.2137595 34.057561,3.1813879 33.9738172,3.1492763 33.8894128,3.1174224 33.8043417,3.0858233 33.7185976,3.0544767 33.6321742,3.02338 33.5450651,2.9925308 33.4572638,2.9619266 33.3687635,2.9315651 33.2795577,2.9014439 33.1896393,2.8715608 33.0990015,2.8419134 33.0076372,2.8124996 32.9155393,2.7833172 32.8227003,2.7543639 32.7291129,2.7256377 32.6347696,2.6971364 32.5396626,2.668858 32.4437843,2.6408006 32.3471267,2.612962 32.2496818,2.5853403 32.1514414,2.5579336 32.0523972,2.53074 31.9525408,2.5037576 31.8518637,2.4769845 31.750357,2.4504191 31.6480121,2.4240594 31.5448198,2.3979037 31.4407711,2.3719503 31.3358566,2.3461975 31.2300669,2.3206436 31.1233925,2.2952871 31.0158235,2.2701261 30.9073501,2.2451593 30.7979622,2.2203849 30.6876495,2.1958015 30.5764016,2.1714076 30.4642079,2.1472016 30.3510577,2.1231821 30.23694,2.0993477 30.1218437,2.0756969 30.0057575,2.0522284 29.8886698,2.0289408 29.770569,2.0058327 29.6514431,1.9829028 29.53128,1.9601499 29.4100675,1.9375726 29.287793,1.9151697 29.1644437,1.89294 29.0400068,1.8708822 28.914469,1.8489952 28.7878169,1.8272779 28.6600368,1.805729 28.5311149,1.7843474 28.4010371,1.7631321 28.2697889,1.742082 28.1373558,1.721196 28.0037229,1.7004731 27.8688749,1.6799122 27.7327965,1.6595124 27.595472,1.6392727 27.4568853,1.6191921 27.3170203,1.5992697 27.1758603,1.5795046 27.0333884,1.5598958 26.8895876,1.5404426 26.7444402,1.5211441 26.5979286,1.5019993 26.4500344,1.4830076 26.3007394,1.464168 26.1500246,1.4454799 25.9978708,1.4269424 25.8442585,1.4085549 25.6891679,1.3903166 25.5325786,1.3722268 25.37447,1.3542848 25.2148209,1.3364899 25.05361,1.3188416 24.8908154,1.3013391 24.7264146,1.283982 24.5603851,1.2667695 24.3927037,1.2497012 24.2233466,1.2327764 24.0522897,1.2159948 23.8795086,1.1993556 23.7049782,1.1828585 23.5286728,1.1665031 23.3505664,1.1502887 23.1706323,1.1342151 22.9888435,1.1182817 22.9888435,1.1182817 22.9609327,1.1877331 22.9342258,1.2586042 22.9085381,1.3307237 22.8836848,1.4039202 22.8594812,1.4780225 22.8357426,1.5528592 22.7889194,1.7040627 22.7417087,1.8563482 22.7174856,1.9325483 22.6925992,2.0085983 22.6668611,2.0843569 22.6400825,2.1596828 22.6120749,2.2344349 22.5826498,2.3084717 22.5516186,2.381652 22.5187927,2.4538347 22.5016478,2.4895077 22.4839835,2.5248783 22.4657762,2.5599289 22.4470115,2.5946252 22.4276948,2.6289016 22.4078055,2.6627441 22.387321,2.6961425 22.3662187,2.7290866 22.3444762,2.7615661 22.3220707,2.7935709 22.2989798,2.8250908 22.2751809,2.8561155 22.2506513,2.8866348 22.2253686,2.9166386 22.1993101,2.9461166 22.1724871,2.9750231 22.1450769,3.0031528 22.1171048,3.0304851 22.0885658,3.0570328 22.0594552,3.0828085 22.029768,3.1078248 21.9994995,3.1320945 21.9686449,3.1556303 21.9371992,3.1784448 21.9051576,3.2005506 21.8725154,3.2219606 21.8392676,3.2426874 21.8054094,3.2627436 A1.25,1.25 60 0,1 20.5554094,3.2627436z"
       transform="matrix(1,0,0,-1,64.1529239,35.6802118)"
       fill="rgb(255,255,255)"
       stroke="rgb(0,0,0)"
       stroke-width="0.0010cm"
       stroke-linecap="round"
       stroke-linejoin="round"
       id="path17782"
       style="fill:none;stroke:#000000;stroke-opacity:1;stroke-width:0.1;stroke-dasharray:none" /><path
       d="M60.9370761,33.1802118 a0.41,0.41 0 1,1 0.82,0 a0.41,0.41 0 1,1 -0.82,0z"
       transform="matrix(1,0,0,-1,64.1529239,35.6802118)"
       fill="rgb(255,255,255)"
       stroke="rgb(0,0,0)"
       stroke-width="0.0010cm"
       stroke-linecap="round"
       stroke-linejoin="round"
       id="path17784"
       style="fill:none;stroke:#000000;stroke-opacity:1;stroke-width:0.1;stroke-dasharray:none" /><path
       d="M20.7704094,33.1802118 a0.41,0.41 0 1,1 0.82,0 a0.41,0.41 0 1,1 -0.82,0z"
       transform="matrix(1,0,0,-1,64.1529239,35.6802118)"
       fill="rgb(255,255,255)"
       stroke="rgb(0,0,0)"
       stroke-width="0.0010cm"
       stroke-linecap="round"
       stroke-linejoin="round"
       id="path17786"
       style="fill:none;stroke:#000000;stroke-opacity:1;stroke-width:0.1;stroke-dasharray:none" /><path
       d="M-21.8962573,33.1802118 a0.41,0.41 0 1,1 0.82,0 a0.41,0.41 0 1,1 -0.82,0z"
       transform="matrix(1,0,0,-1,64.1529239,35.6802118)"
       fill="rgb(255,255,255)"
       stroke="rgb(0,0,0)"
       stroke-width="0.0010cm"
       stroke-linecap="round"
       stroke-linejoin="round"
       id="path17788"
       style="fill:none;stroke:#000000;stroke-opacity:1;stroke-width:0.1;stroke-dasharray:none" /><path
       d="M-21.8962573,2.1802118 a0.41,0.41 0 1,1 0.82,0 a0.41,0.41 0 1,1 -0.82,0z"
       transform="matrix(1,0,0,-1,64.1529239,35.6802118)"
       fill="rgb(255,255,255)"
       stroke="rgb(0,0,0)"
       stroke-width="0.0010cm"
       stroke-linecap="round"
       stroke-linejoin="round"
       id="path17790"
       style="fill:none;stroke:#000000;stroke-opacity:1;stroke-width:0.1;stroke-dasharray:none" /><path
       d="M60.9370761,2.1802118 a0.41,0.41 0 1,1 0.82,0 a0.41,0.41 0 1,1 -0.82,0z"
       transform="matrix(1,0,0,-1,64.1529239,35.6802118)"
       fill="rgb(255,255,255)"
       stroke="rgb(0,0,0)"
       stroke-width="0.0010cm"
       stroke-linecap="round"
       stroke-linejoin="round"
       id="path17792"
       style="fill:none;stroke:#000000;stroke-opacity:1;stroke-width:0.1;stroke-dasharray:none" /><path
       d="M-62.0629239,33.1802118 a0.41,0.41 0 1,1 0.82,0 a0.41,0.41 0 1,1 -0.82,0z"
       transform="matrix(1,0,0,-1,64.1529239,35.6802118)"
       fill="rgb(255,255,255)"
       stroke="rgb(0,0,0)"
       stroke-width="0.0010cm"
       stroke-linecap="round"
       stroke-linejoin="round"
       id="path17794"
       style="fill:none;stroke:#000000;stroke-opacity:1;stroke-width:0.1;stroke-dasharray:none" /><path
       d="M-62.0629239,2.1802118 a0.41,0.41 0 1,1 0.82,0 a0.41,0.41 0 1,1 -0.82,0z"
       transform="matrix(1,0,0,-1,64.1529239,35.6802118)"
       fill="rgb(255,255,255)"
       stroke="rgb(0,0,0)"
       stroke-width="0.0010cm"
       stroke-linecap="round"
       stroke-linejoin="round"
       id="path17796"
       style="fill:none;stroke:#000000;stroke-opacity:1;stroke-width:0.1;stroke-dasharray:none" /><path
       d="M20.7704094,2.1802118 a0.41,0.41 0 1,1 0.82,0 a0.41,0.41 0 1,1 -0.82,0z"
       transform="matrix(1,0,0,-1,64.1529239,35.6802118)"
       fill="rgb(255,255,255)"
       stroke="rgb(0,0,0)"
       stroke-width="0.0010cm"
       stroke-linecap="round"
       stroke-linejoin="round"
       id="path17798"
       style="fill:none;stroke:#000000;stroke-opacity:1;stroke-width:0.1;stroke-dasharray:none" /></g></svg>
