<?xml version="1.0" encoding="utf-8"?>
<!-- Generator: Fusion 360, Shaper Origin Export Add-In, Version 1.8.0  -->
<svg xmlns="http://www.w3.org/2000/svg" xmlns:xlink="http://www.w3.org/1999/xlink" xmlns:shaper="http://www.shapertools.com/namespaces/shaper" shaper:fusionaddin="version:1.8.0" width="121cm" height="36cm" version="1.1" x="0cm" y="0cm" viewBox="0 0 121 36" enable-background="new 0 0 121 36" xml:space="preserve"><path d="M-63.8437425,-0.0970127 A1.4,1.4 180 0,1 -62.4437425,-1.4970127 L55.7562575,-1.4970127 A1.4,1.4 270 0,1 57.1562575,-0.0970127 L57.1562575,33.1029873 A1.4,1.4 0 0,1 55.7562575,34.5029873 L-62.4437425,34.5029873 A1.4,1.4 90 0,1 -63.8437425,33.1029873 L-63.8437425,-0.0970127z" transform="matrix(1,0,0,-1,63.8437425,34.5029873)" fill="rgb(0,0,0)" stroke-linecap="round" stroke-linejoin="round" /><path d="M41.8895908,31.5029873 A0.3,0.3 270 0,1 42.1895908,31.8029873 L42.1895908,32.5407902 42.1895908,32.5407902 42.1899739,32.5563866 42.1911213,32.5719343 42.1930301,32.5874033 42.1956977,32.6027641 42.199121,32.6179864 42.2032902,32.6330168 42.2081938,32.6478123 42.2138235,32.6623441 42.2201705,32.6765833 42.2272252,32.6904987 42.2349577,32.7040265 42.2433457,32.7171288 42.2523728,32.7297797 42.2620228,32.7419538 42.2722792,32.7536252 42.2831257,32.7647684 42.294546,32.7753576 42.3065078,32.7853545 42.3189456,32.7947012 42.3318312,32.8033774 42.3451392,32.8113657 42.3588442,32.8186483 42.3729208,32.8252076 42.3873435,32.8310259 42.4020827,32.836084 42.4170489,32.8403482 42.4321909,32.8438061 42.447478,32.8464527 42.4628792,32.8482834 42.4783637,32.8492934 42.4939006,32.8494777 42.509459,32.8488318 42.509459,32.8488318 42.6656778,32.8380409 42.8203692,32.8271122 42.973543,32.8160443 43.125209,32.8048361 43.2753768,32.7934864 43.4240563,32.7819938 43.571257,32.7703572 43.7169887,32.7585753 43.8612611,32.7466469 44.0040841,32.7345707 44.1454672,32.7223455 44.2854202,32.7099701 44.4239528,32.6974433 44.5610747,32.6847637 44.6967958,32.6719302 44.8311256,32.6589415 44.9640739,32.6457964 45.0956504,32.6324937 45.2258649,32.619032 45.354727,32.6054103 45.4822466,32.5916271 45.6084332,32.5776814 45.7332966,32.5635719 45.8568466,32.5492972 45.9790929,32.5348563 46.1000452,32.5202478 46.2197131,32.5054705 46.3381065,32.4905232 46.4552351,32.4754047 46.5711085,32.4601137 46.6857365,32.4446489 46.7991288,32.4290091 46.9112952,32.4131932 47.0222453,32.3971998 47.1319888,32.3810277 47.2405356,32.3646758 47.3478953,32.3481426 47.4540776,32.3314271 47.5590923,32.314528 47.662949,32.2974439 47.7656576,32.2801738 47.8672276,32.2627164 47.9676689,32.2450704 48.0669912,32.2272345 48.1652041,32.2092076 48.2623175,32.1909885 48.3583409,32.1725758 48.4532842,32.1539683 48.5471571,32.1351649 48.6399692,32.1161642 48.7317303,32.0969651 48.8224502,32.0775662 48.9121385,32.0579664 49.000805,32.0381645 49.0884593,32.0181591 49.1751113,31.997949 49.2607706,31.9775331 49.3454469,31.95691 49.42915,31.9360786 49.5118896,31.9150376 49.5936753,31.8937857 49.674526,31.8723195 49.7545223,31.8506183 49.8336861,31.8286761 49.9120235,31.8064908 49.9895402,31.78406 50.0662424,31.7613819 50.1421358,31.7384541 50.2172265,31.7152746 50.2915204,31.6918412 50.3650233,31.6681519 50.4377414,31.6442044 50.5096804,31.6199966 50.5808463,31.5955265 50.6512452,31.5707918 50.7208828,31.5457905 50.7897652,31.5205204 50.8578982,31.4949793 50.9252879,31.4691652 50.9919401,31.4430759 51.0578608,31.4167092 51.1230559,31.3900631 51.1875314,31.3631354 51.2512932,31.335924 51.3143473,31.3084267 51.3766995,31.2806415 51.4383559,31.252566 51.4993222,31.2241984 51.5596046,31.1955363 51.6192089,31.1665777 51.6781411,31.1373205 51.7364071,31.1077624 51.7940128,31.0779014 51.8509642,31.0477354 51.9072672,31.0172622 51.9629278,30.9864796 52.0179518,30.9553856 52.0723453,30.923978 52.1261142,30.8922546 52.1792643,30.8602134 52.2318153,30.8278436 52.2838778,30.7950743 52.3354758,30.7618859 52.3866102,30.7282731 52.4372819,30.6942305 52.487492,30.6597528 52.5372414,30.6248347 52.5865311,30.5894708 52.635362,30.5536557 52.6837351,30.5173841 52.7316513,30.4806507 52.7791117,30.4434501 52.8261171,30.4057769 52.8726686,30.3676259 52.9187671,30.3289916 52.9644135,30.2898687 53.0096089,30.2502519 53.0543542,30.2101359 53.0986504,30.1695152 53.1424984,30.1283845 53.1858991,30.0867386 53.2288536,30.0445719 53.2713629,30.0018793 53.3134278,29.9586553 53.3550493,29.9148946 53.3962285,29.8705919 53.4369662,29.8257417 53.4772634,29.7803388 53.5171212,29.7343778 53.5565404,29.6878534 53.595522,29.6407602 53.634067,29.5930929 53.6721763,29.544846 53.709851,29.4960144 53.7470887,29.4465986 53.7838867,29.3966023 53.8202474,29.3460197 53.8561733,29.2948447 53.891667,29.2430713 53.9267311,29.1906937 53.9613679,29.1377058 53.9955803,29.0841016 54.0293706,29.0298752 54.0627414,28.9750206 54.0956952,28.9195319 54.1282347,28.8634029 54.1603623,28.8066278 54.1920806,28.7492006 54.2233921,28.6911154 54.2542995,28.632366 54.2848051,28.5729467 54.3149117,28.5128513 54.3446217,28.4520739 54.3739376,28.3906085 54.4028621,28.3284493 54.4313976,28.2655901 54.4595468,28.202025 54.4873121,28.137748 54.5146961,28.0727532 54.5417013,28.0070345 54.5683304,27.9405861 54.5945858,27.8734019 54.62047,27.8054759 54.6459857,27.7368022 54.6711354,27.6673748 54.6959216,27.5971878 54.7203469,27.526235 54.7444138,27.4545107 54.7681249,27.3820087 54.7914826,27.3087232 54.8144896,27.2346481 54.8371485,27.1597775 54.8594616,27.0841053 54.8814317,27.0076257 54.9030612,26.9303326 54.9243562,26.8522067 54.9453452,26.7731399 54.9660347,26.6931004 54.9864255,26.6120767 55.0065185,26.5300572 55.0263146,26.4470304 55.0458148,26.3629846 55.06502,26.2779083 55.0839309,26.1917899 55.1025487,26.1046179 55.1208741,26.0163807 55.1389081,25.9270668 55.1566516,25.8366645 55.1741055,25.7451623 55.1912707,25.6525487 55.2081481,25.5588121 55.2247385,25.4639408 55.241043,25.3679234 55.2570624,25.2707483 55.2727977,25.1724039 55.2882496,25.0728786 55.3034192,24.972161 55.3183074,24.8702393 55.332915,24.7671021 55.3472429,24.6627378 55.3612922,24.5571347 55.3750635,24.4502815 55.388558,24.3421664 55.4017764,24.232778 55.4147198,24.1221046 55.4273889,24.0101347 55.4397847,23.8968567 55.4519081,23.7822591 55.4637601,23.6663303 55.4753414,23.5490587 55.4866531,23.4304327 55.497696,23.3104409 55.508471,23.1890716 55.5189791,23.0663132 55.5292212,22.9421543 55.539198,22.8165832 55.5489107,22.6895883 55.55836,22.5611582 55.5675469,22.4312812 55.5764723,22.2999457 55.585137,22.1671403 55.5935421,22.0328533 55.6016883,21.8970732 55.6095767,21.7597884 55.617208,21.6209873 55.6245833,21.4806584 55.6317034,21.3387901 55.6385692,21.1953709 55.6451817,21.0503891 55.6515417,20.9038332 55.6576502,20.7556917 55.663508,20.605953 55.669116,20.4546055 55.6744753,20.3016376 55.6795866,20.1470379 55.6844509,19.9907946 55.689069,19.8328963 55.693442,19.6733314 55.6975706,19.5120883 55.7014559,19.3491555 55.7050987,19.1845213 55.7084998,19.0181743 55.7116603,18.8501028 55.7145811,18.6802954 55.7172629,18.5087403 55.7197069,18.3354262 55.7219137,18.1603413 55.7238844,17.9834741 55.7256199,17.8048131 55.727121,17.6243467 55.7283887,17.4420634 55.7294239,17.2579515 55.7302274,17.0719995 55.7308003,16.8841958 55.7311433,16.694529 55.7312575,16.5029873 55.7312575,16.5029873 55.7311861,16.3489529 55.7309702,16.1956192 55.7306073,16.0429901 55.7300949,15.8910699 55.7294306,15.7398626 55.7286119,15.5893724 55.7276362,15.4396033 55.7265011,15.2905595 55.725204,15.1422452 55.7237425,14.9946644 55.7221142,14.8478213 55.7203164,14.7017199 55.7183468,14.5563645 55.7162028,14.411759 55.7138819,14.2679078 55.7113817,14.1248147 55.7086996,13.9824841 55.7058332,13.84092 55.70278,13.7001265 55.6995375,13.5601077 55.6961031,13.4208678 55.6924745,13.2824109 55.688649,13.1447411 55.6846243,13.0078625 55.6803978,12.8717793 55.6759671,12.7364955 55.6713296,12.6020154 55.6664829,12.4683429 55.6614244,12.3354822 55.6561518,12.2034376 55.6506624,12.0722129 55.6449538,11.9418125 55.6390235,11.8122404 55.6328691,11.6835007 55.6264879,11.5555976 55.6198776,11.4285351 55.6130357,11.3023174 55.6059596,11.1769487 55.5986469,11.0524329 55.591095,10.9287744 55.5833016,10.8059771 55.575264,10.6840452 55.5669798,10.5629828 55.5584466,10.442794 55.5496618,10.323483 55.5406229,10.2050539 55.5313274,10.0875107 55.5217729,9.9708577 55.5119569,9.8550989 55.5018768,9.7402385 55.4915302,9.6262806 55.4809146,9.5132292 55.4700275,9.4010886 55.4588664,9.2898628 55.4474289,9.1795559 55.4357123,9.0701722 55.4237143,8.9617156 55.4114324,8.8541904 55.398864,8.7476006 55.3860067,8.6419504 55.3728579,8.5372438 55.3594153,8.4334851 55.3456762,8.3306782 55.3316402,8.2288383 55.3173221,8.1280574 55.3027238,8.0283489 55.2878435,7.9297041 55.2726793,7.8321149 55.2572294,7.7355728 55.2414918,7.6400694 55.2254649,7.5455964 55.2091466,7.4521452 55.1925353,7.3597076 55.1756289,7.2682752 55.1584257,7.1778395 55.1409238,7.0883922 55.1231213,6.9999248 55.1050165,6.9124291 55.0866074,6.8258965 55.0678922,6.7403187 55.0488691,6.6556874 55.0295361,6.5719941 55.0098916,6.4892304 54.9899335,6.4073879 54.96966,6.3264583 54.9490694,6.2464331 54.9281597,6.1673041 54.9069291,6.0890627 54.8853757,6.0117005 54.8634977,5.9352093 54.8412933,5.8595806 54.8187606,5.784806 54.7958977,5.7108771 54.7727027,5.6377855 54.7491739,5.5655229 54.7253094,5.4940808 54.7011073,5.4234509 54.6765659,5.3536248 54.6516831,5.284594 54.6264572,5.2163502 54.6008863,5.148885 54.5749686,5.08219 54.5487023,5.0162568 54.5220854,4.9510771 54.4951161,4.8866423 54.4677926,4.8229442 54.440113,4.7599744 54.4120577,4.6976874 54.383604,4.6360371 54.3547479,4.5750186 54.3254857,4.5146276 54.2958135,4.4548595 54.2657274,4.3957096 54.2352236,4.3371735 54.2042982,4.2792466 54.1729473,4.2219243 54.141167,4.1652022 54.1089536,4.1090755 54.0763032,4.0535399 54.0432118,3.9985906 54.0096757,3.9442233 53.975691,3.8904332 53.9412537,3.8372159 53.9063601,3.7845669 53.8710063,3.7324814 53.8351885,3.6809551 53.7989027,3.6299834 53.762145,3.5795616 53.7249118,3.5296853 53.687199,3.4803498 53.6490028,3.4315507 53.6103194,3.3832833 53.5711449,3.3355432 53.5314755,3.2883258 53.4913072,3.2416264 53.4506362,3.1954406 53.4094587,3.1497639 53.3677707,3.1045916 53.3255685,3.0599191 53.2828482,3.0157421 53.2396059,2.9720558 53.1958377,2.9288557 53.1515363,2.8861343 53.1066727,2.8438658 53.0612369,2.8020429 53.0152239,2.7606624 52.9686284,2.7197211 52.9214451,2.6792158 52.8736691,2.6391434 52.8252949,2.5995008 52.7763176,2.5602847 52.7267318,2.521492 52.6765325,2.4831196 52.6257143,2.4451642 52.5742722,2.4076227 52.5222009,2.370492 52.4694953,2.3337688 52.4161502,2.29745 52.3621603,2.2615325 52.3075206,2.2260131 52.2522258,2.1908885 52.1962708,2.1561558 52.1396503,2.1218116 52.0823591,2.0878528 52.0243922,2.0542763 51.9657443,2.0210789 51.9064101,1.9882574 51.8463847,1.9558087 51.7856626,1.9237295 51.7242389,1.8920169 51.6621082,1.8606674 51.5992654,1.8296781 51.5357053,1.7990458 51.4714228,1.7687672 51.4064126,1.7388392 51.3406696,1.7092586 51.2741885,1.6800224 51.2069643,1.6511273 51.1389916,1.6225701 51.0702279,1.5943325 51.0005859,1.5663802 50.9300528,1.5387104 50.8586183,1.5113214 50.786272,1.4842115 50.7130034,1.4573792 50.6388023,1.4308226 50.5636584,1.4045402 50.4875611,1.3785302 50.4105002,1.3527909 50.3324654,1.3273208 50.2534462,1.302118 50.1734323,1.277181 50.0924133,1.252508 50.0103789,1.2280974 49.9273187,1.2039475 49.8432223,1.1800566 49.7580795,1.1564231 49.6718797,1.1330452 49.5846128,1.1099213 49.4962682,1.0870497 49.4068357,1.0644287 49.3163049,1.0420567 49.2246655,1.0199319 49.1319069,0.9980528 49.038019,0.9764175 48.9429914,0.9550245 48.8468136,0.9338721 48.7494754,0.9129585 48.6509663,0.8922821 48.551276,0.8718413 48.4503942,0.8516343 48.3483105,0.8316595 48.2450145,0.8119151 48.1404958,0.7923996 48.0347442,0.7731112 47.9277492,0.7540483 47.8195004,0.7352091 47.7099876,0.7165921 47.5992004,0.6981955 47.4871284,0.6800176 47.3737612,0.6620568 47.2590885,0.6443114 47.1430999,0.6267796 47.0257851,0.60946 46.9071336,0.5923506 46.7871352,0.57545 46.6657795,0.5587563 46.5430561,0.542268 46.4189547,0.5259833 46.2934648,0.5099006 46.1665762,0.4940182 46.0382785,0.4783344 45.9085613,0.4628475 45.7774142,0.4475558 45.644827,0.4324578 45.5107892,0.4175516 45.3752904,0.4028357 45.2383204,0.3883083 45.0998687,0.3739677 44.959925,0.3598124 44.818479,0.3458405 44.6755202,0.3320505 44.5310383,0.3184407 44.385023,0.3050093 44.2374639,0.2917547 44.0883506,0.2786752 43.9376727,0.2657692 43.78542,0.2530349 43.6315821,0.2404707 43.4761485,0.2280749 43.3191089,0.2158458 43.1604531,0.2037818 43.0001705,0.1918812 42.8382509,0.1801423 42.6746838,0.1685633 42.509459,0.1571427 42.509459,0.1571427 42.4938913,0.1564967 42.4783263,0.1566827 42.4627955,0.1576989 42.4473302,0.1595434 42.4319743,0.162212 42.4167975,0.1656909 42.4018325,0.1699692 42.3871089,0.1750364 42.37266,0.1808806 42.3585609,0.1874677 42.3448504,0.1947722 42.3315523,0.2027746 42.3186903,0.2114551 42.3062883,0.2207941 42.29437,0.230772 42.2829592,0.2413691 42.2720949,0.2525491 42.2618331,0.2642483 42.2521897,0.2764382 42.243179,0.2890922 42.2348151,0.3021834 42.2271124,0.3156852 42.2200851,0.3295708 42.2137473,0.3438135 42.2081234,0.3583585 42.2032343,0.3731415 42.1990847,0.3881329 42.1956792,0.4033032 42.1930224,0.4186229 42.1911191,0.4340627 42.1899736,0.449593 42.1895908,0.4651843 42.1895908,1.2029873 A0.3,0.3 0 0,1 41.8895908,1.5029873 L40.0895908,1.5029873 A0.3,0.3 90 0,1 39.7895908,1.2029873 L39.7895908,0.2962705 39.7895908,0.2962705 39.7892563,0.2817331 39.7882552,0.2672459 39.7865911,0.252833 39.7842676,0.2385184 39.7812883,0.2243261 39.7776567,0.2102801 39.7733764,0.1964045 39.7684511,0.1827234 39.7628975,0.1692908 39.7567346,0.156152 39.7499733,0.1433288 39.742625,0.1308431 39.7347007,0.1187169 39.7262117,0.106972 39.717169,0.0956304 39.7075838,0.084714 39.6974851,0.0742623 39.6869182,0.0643242 39.6759022,0.0549164 39.6644561,0.0460555 39.6525985,0.0377581 39.6403483,0.0300406 39.6277243,0.0229196 39.6147452,0.0164116 39.6014566,0.0105442 39.5879241,0.005347 39.5741726,0.0008274 39.5602263,-0.0030076 39.5461094,-0.0061508 39.5318462,-0.008595 39.5174609,-0.0103331 39.5029778,-0.011358 39.5029778,-0.011358 39.1584334,-0.0268263 38.8133485,-0.0416844 38.4680868,-0.0559494 38.1230118,-0.0696385 37.778487,-0.0827687 37.4348762,-0.0953572 37.0925427,-0.1074211 36.7510603,-0.1190035 36.4084696,-0.1301921 36.0648861,-0.1410004 35.720566,-0.1514372 35.3757653,-0.1615112 34.6857461,-0.1806057 34.3410397,-0.1896437 33.9968768,-0.1983539 33.9968768,-0.1983539 33.9817277,-0.198339 33.9666113,-0.1975423 33.9515565,-0.1959666 33.9365922,-0.1936147 33.9217664,-0.190494 33.9071327,-0.1866174 33.8927182,-0.1819948 33.8785503,-0.1766358 33.8646768,-0.1705599 33.8511584,-0.1637983 33.8380178,-0.1563692 33.8252772,-0.1482902 33.8129589,-0.139579 33.8010851,-0.1302533 33.7896779,-0.1203309 33.7787597,-0.1098295 33.7683806,-0.0987982 33.7585788,-0.0872844 33.7493678,-0.0753125 33.7407613,-0.0629068 33.7327727,-0.050092 33.7254157,-0.0368924 33.7187039,-0.0233325 33.7126508,-0.0094369 33.7072827,0.0047339 33.7026158,0.019127 33.6986546,0.0337151 33.6954036,0.048471 33.6928672,0.0633673 33.69105,0.0783767 33.6899563,0.093472 33.6895908,0.1086259 33.6895908,1.2029873 A0.3,0.3 0 0,1 33.3895908,1.5029873 L31.5895908,1.5029873 A0.3,0.3 90 0,1 31.2895908,1.2029873 L31.2895908,0.0438051 31.2895908,0.0438051 31.2892435,0.0290486 31.2882043,0.0143474 31.2864775,-0.0002734 31.2840673,-0.0147884 31.2809777,-0.0291726 31.277213,-0.0434005 31.2727775,-0.0574471 31.2676752,-0.071287 31.2619166,-0.0848809 31.2555285,-0.0981641 31.2485243,-0.111111 31.2409167,-0.1236993 31.2327182,-0.1359062 31.2239414,-0.1477092 31.214599,-0.1590857 31.2047033,-0.1700131 31.1942778,-0.1804586 31.1833755,-0.1903664 31.1720199,-0.199717 31.1602314,-0.2084938 31.1480305,-0.2166804 31.1354376,-0.2242603 31.1224731,-0.231217 31.1091573,-0.2375341 31.0955329,-0.2431863 31.0816722,-0.2481432 31.0676028,-0.2523974 31.0533503,-0.2559423 31.0389405,-0.2587716 31.024399,-0.2608786 31.0097514,-0.2622569 30.9950234,-0.2629 30.9950234,-0.2629 30.452485,-0.2726934 29.9089532,-0.2820152 28.8214992,-0.2993066 28.2788717,-0.3073074 27.7378404,-0.3148989 27.4681256,-0.3185462 27.1990526,-0.3220969 26.6616846,-0.3289349 26.1223903,-0.3354724 25.5814134,-0.34172 25.0392037,-0.3476859 24.4962108,-0.3533782 23.4096746,-0.3639741 22.8670307,-0.368894 22.3254026,-0.3735727 22.3254026,-0.3735727 22.3104278,-0.3733174 22.2954961,-0.372301 22.2806352,-0.3705263 22.265873,-0.3679966 22.2512588,-0.3647201 22.2368395,-0.3607091 22.2226413,-0.3559731 22.2086905,-0.3505212 22.1950427,-0.344377 22.1817461,-0.3375672 22.1688226,-0.3301089 22.1562936,-0.3220188 22.1441809,-0.3133139 22.1325062,-0.3040111 22.1212909,-0.2941273 22.1105577,-0.2836803 22.100359,-0.2727221 22.090727,-0.2612941 22.0816753,-0.2494199 22.0732172,-0.237123 22.0653661,-0.224427 22.0581353,-0.2113554 22.0515384,-0.1979319 22.0455888,-0.1841804 22.0403132,-0.1701627 22.0357265,-0.1559281 22.0318333,-0.1415033 22.0286379,-0.1269147 22.0261448,-0.1121888 22.0243585,-0.097352 22.0232835,-0.0824309 22.0229241,-0.067452 22.0229241,1.2029873 A0.3,0.3 0 0,1 21.7229241,1.5029873 L19.9229241,1.5029873 A0.3,0.3 90 0,1 19.6229241,1.2029873 L19.6229241,-0.0897779 19.6229241,-0.0897779 19.6225708,-0.1046229 19.6215124,-0.1194262 19.6197512,-0.1341614 19.6172892,-0.1488025 19.6141312,-0.1633139 19.6102867,-0.1776489 19.6057626,-0.1917813 19.6005657,-0.2056858 19.5947059,-0.2193294 19.588208,-0.2326545 19.5810871,-0.2456338 19.5733564,-0.2582445 19.5650292,-0.2704639 19.5561188,-0.2822692 19.5466384,-0.2936374 19.5366013,-0.3045459 19.5260296,-0.3149635 19.5149785,-0.3248334 19.5034737,-0.3341347 19.4915362,-0.3428509 19.4791873,-0.3509659 19.4664481,-0.3584632 19.4533397,-0.3653265 19.4398834,-0.3715394 19.4261209,-0.3770778 19.4121268,-0.3819114 19.3979296,-0.3860328 19.3835555,-0.3894361 19.3690307,-0.392115 19.3543816,-0.3940634 19.3396344,-0.3952751 19.3248153,-0.395744 19.3248153,-0.395744 18.8552958,-0.3986986 18.8552958,-0.3986986 18.8322681,-0.3644699 18.8098988,-0.3294217 18.7881572,-0.2935866 18.7670124,-0.2569973 18.7464338,-0.2196863 18.7263903,-0.1816862 18.7068513,-0.1430298 18.6877859,-0.1037496 18.6691633,-0.0638782 18.6509527,-0.0234483 18.6331232,0.0175075 18.6156441,0.0589565 18.5816135,0.1432039 18.5486146,0.2290328 18.5164006,0.3161823 18.4847252,0.4043913 18.4220036,0.5829439 18.3584777,0.7626026 18.3257967,0.8521942 18.292175,0.9412793 18.2573661,1.0295969 18.2211335,1.116863 18.1832752,1.2027283 18.1636586,1.2450654 18.1435406,1.2869712 18.1228892,1.3284201 18.1016722,1.3693864 18.0798574,1.4098446 18.0574125,1.4497689 18.0343055,1.4891337 18.010504,1.5279135 17.985976,1.5660824 17.9606893,1.603615 17.9346117,1.6404855 17.9077109,1.6766683 17.8799713,1.7121173 17.8515106,1.7466326 17.8223398,1.7801719 17.7924357,1.8127381 17.7617749,1.8443341 17.730334,1.8749628 17.6980898,1.9046271 17.6650188,1.93333 17.6310977,1.9610743 17.5963032,1.9878629 17.5606119,2.0136988 17.5240006,2.0385848 17.4864458,2.0625239 17.4479241,2.085519 A1.25,1.25 60 0,1 16.1979241,2.085519 L16.1979241,2.085519 16.1581404,2.0618456 16.1191872,2.0372314 16.0810577,2.0116549 16.0437451,1.9850944 16.0072426,1.9575286 15.9715434,1.9289358 15.9366407,1.8992944 15.9025277,1.868583 15.8691975,1.8367799 15.8366435,1.8038637 15.805004,1.7699738 15.7744498,1.7353273 15.744946,1.6999394 15.7164567,1.6638239 15.6889458,1.6269948 15.6623773,1.5894662 15.6367153,1.5512519 15.6119238,1.5123659 15.5879668,1.4728222 15.5648089,1.4326358 15.5424575,1.3919018 15.5209007,1.3506941 15.5000999,1.309041 15.4800166,1.2669707 15.4606119,1.2245118 15.4418473,1.1816924 15.4236841,1.1385409 15.4060837,1.0950856 15.3724163,1.007377 15.340536,0.9187932 15.3101335,0.8295608 15.2808995,0.7399063 15.2246999,0.560238 15.1971346,0.4707405 15.1695399,0.3818617 15.141615,0.2938622 15.1130595,0.207002 15.0835725,0.1215417 15.0528536,0.0377414 15.0369381,-0.0034549 15.0206019,-0.0441386 15.0038074,-0.084277 14.986517,-0.1238378 14.968693,-0.1627883 14.950298,-0.201096 14.9312794,-0.2387575 14.9114774,-0.2759598 14.8908202,-0.3126871 14.8692613,-0.3488722 14.846754,-0.3844474 14.8232518,-0.4193453 14.8232518,-0.4193453 13.8240353,-0.423318 13.8240353,-0.423318 13.8091141,-0.422996 13.7942387,-0.4219193 13.7794365,-0.4200909 13.7647351,-0.417514 13.750184,-0.4141972 13.7358282,-0.4101525 13.7216937,-0.4053891 13.7078068,-0.3999162 13.6942243,-0.3937582 13.6809915,-0.3869404 13.66813,-0.3794797 13.6556613,-0.3713925 13.6436068,-0.3626957 13.6319881,-0.3534058 13.6208268,-0.3435394 13.6101451,-0.3331143 13.599996,-0.3221829 13.5904106,-0.3107852 13.5814022,-0.2989445 13.5729844,-0.2866841 13.5651703,-0.2740273 13.5579735,-0.2609974 13.5514072,-0.2476177 13.5454851,-0.233912 13.5402339,-0.2199422 13.5356683,-0.2057571 13.5317929,-0.1913828 13.5286121,-0.1768458 13.5261303,-0.1621723 13.5243521,-0.1473884 13.5232819,-0.1325206 13.5229241,-0.117595 13.5229241,1.2029873 A0.3,0.3 0 0,1 13.2229241,1.5029873 L11.4229241,1.5029873 A0.3,0.3 90 0,1 11.1229241,1.2029873 L11.1229241,-0.1273791 11.1229241,-0.1273791 11.1225688,-0.1422489 11.1215044,-0.1570764 11.1197331,-0.1718352 11.1172573,-0.1864989 11.1140814,-0.201032 11.1102155,-0.2153869 11.1056667,-0.2295372 11.1004417,-0.2434572 11.0945504,-0.2571149 11.088018,-0.2704516 11.0808602,-0.2834394 11.0730904,-0.2960554 11.0647221,-0.3082768 11.055769,-0.3200807 11.0462445,-0.3314442 11.0361622,-0.3423445 11.0255439,-0.3527509 11.0144456,-0.3626062 11.0028935,-0.3718894 10.9909089,-0.380584 10.9785133,-0.388674 10.9657281,-0.3961429 10.9525746,-0.4029746 10.9390744,-0.4091528 10.9252692,-0.4146535 10.911234,-0.4194466 10.8969975,-0.423525 10.8825862,-0.4268827 10.8680264,-0.4295137 10.8533447,-0.431412 10.8385674,-0.4325714 10.823721,-0.4329861 10.823721,-0.4329861 8.6535016,-0.4381329 8.1114648,-0.4392045 7.5700681,-0.440195 7.029528,-0.441107 6.4899755,-0.441943 5.9500198,-0.4427078 5.409231,-0.4434038 4.3258264,-0.4445964 2.1564153,-0.4462309 2.1564153,-0.4462309 2.1415359,-0.4458632 2.1267243,-0.444748 2.112007,-0.4428914 2.0974106,-0.4402995 2.0829617,-0.4369783 2.0686869,-0.4329339 2.0546127,-0.4281724 2.0407662,-0.4226999 2.0272157,-0.4165429 2.0140138,-0.4097295 2.0011818,-0.4022761 1.9887412,-0.3941992 1.9767135,-0.3855152 1.9651202,-0.3762406 1.9539827,-0.3663919 1.9433234,-0.3559865 1.9331949,-0.3450765 1.9236285,-0.3337017 1.9146374,-0.3218853 1.9062353,-0.3096504 1.8984354,-0.2970202 1.8912512,-0.2840177 1.8846961,-0.2706663 1.8787838,-0.2569894 1.8735409,-0.2430486 1.8689825,-0.2288929 1.8651131,-0.2145486 1.8619371,-0.2000418 1.859459,-0.1853987 1.8576834,-0.1706453 1.8566147,-0.155808 1.8562575,-0.1409127 1.8562575,1.2029873 A0.3,0.3 0 0,1 1.5562575,1.5029873 L-0.2437425,1.5029873 A0.3,0.3 90 0,1 -0.5437425,1.2029873 L-0.5437425,-0.1417824 -0.5437425,-0.1417824 -0.5440995,-0.1566673 -0.5451687,-0.1715095 -0.5469479,-0.1862823 -0.5494346,-0.2009593 -0.5526245,-0.215505 -0.5565072,-0.229871 -0.5610755,-0.2440306 -0.5663224,-0.2579582 -0.5722382,-0.2716222 -0.5787974,-0.2849634 -0.5859838,-0.2979533 -0.5937837,-0.3105687 -0.6021834,-0.322787 -0.611169,-0.3345852 -0.6207269,-0.3459405 -0.6308432,-0.3568299 -0.6414962,-0.3672231 -0.6526295,-0.3770629 -0.6642164,-0.3863279 -0.6762354,-0.3950021 -0.6886647,-0.4030692 -0.7014829,-0.4105131 -0.7146684,-0.4173175 -0.7281994,-0.4234664 -0.742034,-0.4289359 -0.7560973,-0.4336963 -0.7703603,-0.4377405 -0.7847966,-0.4410627 -0.7993794,-0.443657 -0.8140824,-0.4455173 -0.828879,-0.4466379 -0.8437425,-0.4470127 -0.8437425,-0.4470127 -1.5307837,-0.4468974 -2.2184847,-0.4465456 -3.5947308,-0.4450983 -4.9702093,-0.4426022 -5.6571546,-0.4409389 -6.3446474,-0.4389825 -6.3446474,-0.4389825 -6.3594768,-0.4385647 -6.3742371,-0.437406 -6.3889021,-0.4355126 -6.4034453,-0.4328903 -6.4178405,-0.4295452 -6.4320612,-0.4254832 -6.4460811,-0.4207103 -6.4598735,-0.4152327 -6.47337,-0.4090769 -6.48652,-0.40227 -6.4993022,-0.3948282 -6.5116951,-0.3867675 -6.5236774,-0.3781042 -6.5352277,-0.3688546 -6.5463245,-0.3590346 -6.5569457,-0.3486614 -6.5670389,-0.3377865 -6.576573,-0.3264494 -6.5855342,-0.314673 -6.5939093,-0.3024802 -6.6016847,-0.2898939 -6.6088469,-0.2769369 -6.6153824,-0.2636321 -6.6212776,-0.2500029 -6.6265058,-0.2361103 -6.6310515,-0.2220038 -6.6349104,-0.2077094 -6.6380779,-0.1932529 -6.6405493,-0.1786605 -6.6423203,-0.163958 -6.6433862,-0.1491716 -6.6437425,-0.1343271 -6.6437425,1.2029873 A0.3,0.3 0 0,1 -6.9437425,1.5029873 L-8.7437425,1.5029873 A0.3,0.3 90 0,1 -9.0437425,1.2029873 L-9.0437425,-0.1225275 -9.0437425,-0.1225275 -9.0441028,-0.1374342 -9.0451822,-0.1522971 -9.046978,-0.1670894 -9.049488,-0.1817845 -9.0527073,-0.1963462 -9.0566254,-0.210725 -9.0612345,-0.2248941 -9.0665275,-0.2388273 -9.0724942,-0.2524933 -9.0791084,-0.2658319 -9.0863532,-0.278814 -9.0942144,-0.2914168 -9.1026779,-0.3036174 -9.1117294,-0.3153929 -9.1213547,-0.3267205 -9.1315395,-0.3375774 -9.142261,-0.3479327 -9.153462,-0.3577295 -9.1651158,-0.3669472 -9.1772003,-0.3755697 -9.1896935,-0.3835812 -9.2025734,-0.3909657 -9.2158179,-0.3977075 -9.2294051,-0.4037904 -9.243292,-0.4091911 -9.2574042,-0.4138805 -9.2717128,-0.4178523 -9.2861911,-0.4211007 -9.3008124,-0.4236201 -9.3155498,-0.4254047 -9.3303766,-0.4264489 -9.3452661,-0.426747 -9.3452661,-0.426747 -10.4314951,-0.4206979 -11.5183996,-0.4136954 -12.6044638,-0.405688 -13.1467071,-0.4012914 -13.6881719,-0.3966241 -14.2286688,-0.3916799 -14.7680083,-0.3864523 -15.3064651,-0.3809299 -15.846111,-0.3750811 -16.3869976,-0.3688919 -16.9288646,-0.3623514 -18.014499,-0.3481738 -18.014499,-0.3481738 -18.0291718,-0.3476099 -18.0437721,-0.3463261 -18.0582743,-0.344328 -18.0726527,-0.3416214 -18.0868817,-0.338212 -18.1009358,-0.3341055 -18.1147892,-0.3293075 -18.1284158,-0.323824 -18.1417487,-0.3176812 -18.1547419,-0.3109035 -18.167374,-0.3035063 -18.179624,-0.2955048 -18.1914706,-0.2869142 -18.2028926,-0.2777498 -18.2138688,-0.2680268 -18.2243773,-0.2577611 -18.2343675,-0.2470015 -18.2438071,-0.2357874 -18.2526823,-0.2241408 -18.2609795,-0.2120838 -18.2686848,-0.1996384 -18.2757846,-0.1868268 -18.2822651,-0.1736709 -18.2881124,-0.1601931 -18.2932997,-0.146453 -18.2978107,-0.1325013 -18.3016406,-0.1183635 -18.3047847,-0.1040652 -18.3072384,-0.0896317 -18.3089968,-0.0750885 -18.3100553,-0.0604612 -18.3104092,-0.0457752 -18.3104092,1.2029873 A0.3,0.3 0 0,1 -18.6104092,1.5029873 L-20.4104092,1.5029873 A0.3,0.3 90 0,1 -20.7104092,1.2029873 L-20.7104092,0.0009017 -20.7104092,0.0009017 -20.7107784,-0.0140589 -20.711884,-0.0289731 -20.7137234,-0.0438135 -20.7162937,-0.0585525 -20.7195898,-0.0731531 -20.7235997,-0.0875624 -20.7283148,-0.1017526 -20.7337269,-0.1156974 -20.7398253,-0.1293655 -20.7465816,-0.1426945 -20.7539771,-0.1556541 -20.7619962,-0.1682213 -20.7706236,-0.1803734 -20.7798436,-0.1920876 -20.7896409,-0.2033411 -20.7999999,-0.2141112 -20.8108954,-0.2243664 -20.8222683,-0.2340507 -20.8340912,-0.2431447 -20.8463412,-0.2516332 -20.858995,-0.2595009 -20.8720298,-0.2667325 -20.8854223,-0.2733129 -20.8991495,-0.2792269 -20.9131663,-0.2844513 -20.9273999,-0.2889602 -20.9418215,-0.2927477 -20.9564039,-0.2958087 -20.9711196,-0.2981383 -20.9859416,-0.2997314 -21.0008424,-0.3005828 -21.0157949,-0.3006876 -21.0157949,-0.3006876 -21.546775,-0.2908747 -21.546775,-0.2908747 -21.5668757,-0.2560043 -21.5864645,-0.22048 -21.6055679,-0.1843302 -21.6242127,-0.1475829 -21.6424252,-0.1102665 -21.6602322,-0.072409 -21.6947354,0.0048162 -21.7279348,0.083867 -21.7600431,0.1645178 -21.7912725,0.246543 -21.8218356,0.3297169 -21.851945,0.4138141 -21.881813,0.4986087 -21.9416752,0.6693883 -21.9720943,0.754922 -22.003122,0.8402508 -22.0349709,0.9251491 -22.0678535,1.0093912 -22.1019797,1.0927459 -22.1375233,1.174906 -22.1746909,1.2556566 -22.1939531,1.2954481 -22.2137045,1.334821 -22.233973,1.3737529 -22.2547862,1.412222 -22.2761719,1.450206 -22.298158,1.4876829 -22.3207721,1.5246305 -22.3440419,1.5610267 -22.3679954,1.5968494 -22.3926601,1.6320765 -22.4180639,1.6666858 -22.4442339,1.7006545 -22.471093,1.7338339 -22.4985875,1.7661281 -22.5267375,1.7975395 -22.5555631,1.8280707 -22.5850845,1.857724 -22.6153219,1.8865021 -22.6462953,1.9144075 -22.6780248,1.9414427 -22.7105307,1.9676101 -22.743833,1.9929123 -22.7779519,2.0173518 -22.8129074,2.040931 -22.8487198,2.0636526 -22.8854092,2.085519 A1.25,1.25 60 0,1 -24.1354092,2.085519 L-24.1354092,2.085519 -24.1715735,2.0640589 -24.2070497,2.0418263 -24.2418432,2.018805 -24.2759591,1.9949792 -24.3094028,1.9703328 -24.3421795,1.9448499 -24.3742946,1.9185144 -24.4057533,1.8913104 -24.436561,1.8632219 -24.4667228,1.8342329 -24.4962441,1.8043274 -24.5250474,1.7735806 -24.5529557,1.7422036 -24.5799879,1.7102159 -24.6061712,1.6776284 -24.6315326,1.644452 -24.6560992,1.6106977 -24.6798982,1.5763763 -24.7029567,1.5414989 -24.7253017,1.5060764 -24.7469604,1.4701196 -24.7679598,1.4336395 -24.7883074,1.3966836 -24.8079967,1.3593332 -24.8270559,1.3216107 -24.8455141,1.2835373 -24.8634,1.2451345 -24.8807425,1.2064236 -24.9139134,1.1281626 -24.9452579,1.0489249 -24.9750073,0.9688813 -25.003393,0.8882021 -25.0306461,0.8070581 -25.0569979,0.7256199 -25.107923,0.5625432 -25.1579717,0.4004937 -25.1832105,0.3203999 -25.2088918,0.2411856 -25.2352404,0.1630443 -25.262481,0.0861695 -25.2908385,0.0107547 -25.3205376,-0.0630064 -25.3359605,-0.0992063 -25.3518031,-0.1349203 -25.3680936,-0.1701241 -25.3848599,-0.2047935 -25.3848599,-0.2047935 -25.9525911,-0.1894921 -26.5190867,-0.1734722 -26.5190867,-0.1734722 -26.533556,-0.1727027 -26.5479472,-0.1712379 -26.5622357,-0.1690832 -26.5763967,-0.1662439 -26.5904056,-0.1627256 -26.6042377,-0.1585337 -26.6178684,-0.1536737 -26.6312708,-0.1481519 -26.6443783,-0.1419949 -26.6571531,-0.1352237 -26.6695743,-0.1278525 -26.6816211,-0.1198955 -26.6932726,-0.1113671 -26.704508,-0.1022814 -26.7153065,-0.0926527 -26.7256464,-0.0824961 -26.7354776,-0.0718595 -26.7447694,-0.0607795 -26.7535079,-0.0492775 -26.7616793,-0.0373743 -26.7692698,-0.0250912 -26.7762655,-0.0124491 -26.7826526,0.0005308 -26.7884171,0.0138272 -26.7935319,0.0273812 -26.7979805,0.0411425 -26.801758,0.0550864 -26.8048595,0.0691881 -26.8072802,0.083423 -26.8090153,0.0977661 -26.8100599,0.1121929 -26.8104092,0.1266785 -26.8104092,1.2029873 A0.3,0.3 0 0,1 -27.1104092,1.5029873 L-28.9104092,1.5029873 A0.3,0.3 90 0,1 -29.2104092,1.2029873 L-29.2104092,0.2253689 -29.2104092,0.2253689 -29.2107894,0.2102689 -29.2119281,0.1952183 -29.2138219,0.1802457 -29.2164679,0.1653798 -29.2198607,0.150657 -29.2239868,0.1361352 -29.2288364,0.1218442 -29.2344002,0.1078113 -29.2406679,0.0940655 -29.2476107,0.0806689 -29.2552054,0.0676593 -29.2634349,0.0550597 -29.2722824,0.0428933 -29.2817309,0.0311828 -29.2917634,0.0199515 -29.3023632,0.0092222 -29.3135058,-0.0009756 -29.3251296,-0.0105855 -29.3372034,-0.0195861 -29.3497029,-0.0279627 -29.3626037,-0.0357003 -29.3758813,-0.0427842 -29.3895114,-0.0491995 -29.4034695,-0.0549312 -29.4177112,-0.059958 -29.4321613,-0.0642546 -29.4467896,-0.0678155 -29.4615678,-0.0706364 -29.4764677,-0.0727128 -29.4914611,-0.0740401 -29.5065198,-0.0746139 -29.5216154,-0.0744298 -29.5216154,-0.0744298 -30.0697279,-0.0534474 -30.6189829,-0.0313996 -31.1688156,-0.0082533 -31.7186615,0.0160247 -32.267956,0.0414675 -32.8161343,0.0681083 -33.362632,0.0959801 -33.6350741,0.110388 -33.9068843,0.1251162 -34.177992,0.1401686 -34.4483266,0.1555495 -34.7178176,0.1712631 -34.9863943,0.1873134 -35.2539863,0.2037046 -35.5205229,0.2204409 -35.7859334,0.2375263 -36.0501475,0.2549651 -36.314279,0.2728399 -36.5800093,0.2912794 -36.8472209,0.3102988 -37.1157778,0.3299121 -37.3855438,0.350133 -37.656383,0.3709757 -37.9281593,0.3924539 -38.2007367,0.4145816 -38.2007367,0.4145816 -38.2149829,0.4161104 -38.2291097,0.4183387 -38.243094,0.4212584 -38.2569126,0.4248619 -38.2705426,0.4291411 -38.2839608,0.4340883 -38.2971443,0.4396955 -38.3100483,0.4459436 -38.3226122,0.452799 -38.3348176,0.460245 -38.346647,0.4682654 -38.3580829,0.4768438 -38.3691077,0.485964 -38.3797041,0.4956097 -38.3898467,0.5057564 -38.3994877,0.5163502 -38.4086135,0.5273663 -38.4172142,0.5387838 -38.4252801,0.5505819 -38.4328016,0.5627398 -38.4397689,0.5752367 -38.4461723,0.5880518 -38.452002,0.6011642 -38.4572399,0.6145296 -38.4618702,0.6280966 -38.4658906,0.6418431 -38.4692987,0.6557467 -38.4720924,0.6697855 -38.4742692,0.683937 -38.4758269,0.6981793 -38.4767632,0.71249 -38.4770759,0.726847 -38.4770759,1.2029873 A0.3,0.3 0 0,1 -38.7770759,1.5029873 L-40.5770759,1.5029873 A0.3,0.3 90 0,1 -40.8770759,1.2029873 L-40.8770759,1.0404574 -40.8770759,1.0404574 -40.8774311,1.0237511 -40.8784989,1.0070811 -40.8802828,0.9904771 -40.882786,0.9739687 -40.8860119,0.9575855 -40.8899639,0.9413572 -40.8946416,0.9253257 -40.9000415,0.909537 -40.9061626,0.8940239 -40.9130039,0.8788194 -40.9205646,0.8639564 -40.9288435,0.849468 -40.9378203,0.8354171 -40.9474721,0.8218598 -40.9577873,0.8088308 -40.9687543,0.7963645 -40.9803617,0.7844956 -40.9925977,0.7732587 -41.0054509,0.7626882 -41.018871,0.752847 -41.0327859,0.7438019 -41.0471677,0.7355799 -41.0619887,0.728208 -41.0772214,0.721713 -41.0928381,0.7161217 -41.1088017,0.7114636 -41.1249808,0.7077863 -41.1413114,0.7051038 -41.1577552,0.7034217 -41.1742741,0.7027456 -41.1908297,0.7030809 -41.2073838,0.7044333 -41.2073838,0.7044333 -41.4704218,0.7344923 -41.7320615,0.7652795 -41.9922527,0.7968097 -42.2509453,0.8290978 -42.5080892,0.8621588 -42.7636344,0.8960074 -43.0175308,0.9306587 -43.2697283,0.9661274 -43.5201768,1.0024286 -43.7688263,1.0395769 -44.0156267,1.0775875 -44.2605278,1.1164751 -44.5034797,1.1562546 -44.7444322,1.196941 -44.9833352,1.2385491 -45.2201387,1.2810938 -45.4547926,1.32459 -45.5712978,1.3466995 -45.6872468,1.3690525 -45.8026334,1.3916509 -45.9174513,1.4144964 -46.0316942,1.437591 -46.1453559,1.4609364 -46.2584301,1.4845347 -46.3709106,1.5083875 -46.4827911,1.5324969 -46.5940653,1.5568645 -46.704727,1.5814924 -46.8147672,1.6063817 -46.9240438,1.6314995 -47.0324825,1.6568278 -47.1400873,1.6823678 -47.2468623,1.7081207 -47.3528115,1.7340879 -47.457939,1.7602706 -47.5622489,1.78667 -47.6657452,1.8132874 -47.7684321,1.8401241 -47.8703135,1.8671813 -47.9713936,1.8944603 -48.0716765,1.9219623 -48.1711661,1.9496885 -48.2698666,1.9776404 -48.367782,2.005819 -48.4649164,2.0342256 -48.5612739,2.0628616 -48.6568586,2.0917281 -48.7516744,2.1208265 -48.8457255,2.1501579 -48.939016,2.1797237 -49.0315499,2.209525 -49.1233313,2.2395632 -49.2143642,2.2698395 -49.3046527,2.3003552 -49.394201,2.3311115 -49.483013,2.3621096 -49.5710928,2.3933509 -49.6584446,2.4248366 -49.7450723,2.4565679 -49.83098,2.4885461 -49.9161719,2.5207724 -50.0006519,2.5532482 -50.0844242,2.5859746 -50.1674928,2.618953 -50.2498618,2.6521845 -50.3315353,2.6856705 -50.4125172,2.7194121 -50.4928118,2.7534107 -50.572423,2.7876675 -50.651355,2.8221838 -50.7296117,2.8569608 -50.8071974,2.8919997 -50.8841159,2.9273019 -50.9603715,2.9628686 -51.0359682,2.998701 -51.11091,3.0348004 -51.185201,3.071168 -51.2588453,3.1078052 -51.3318469,3.1447132 -51.40421,3.1818931 -51.4759386,3.2193464 -51.5470367,3.2570741 -51.6175085,3.2950777 -51.6873579,3.3333583 -51.7566445,3.3719489 -51.8941045,3.4504032 -52.0301018,3.530611 -52.1646127,3.6126121 -52.2976131,3.6964459 -52.3635396,3.7390625 -52.4290795,3.782152 -52.4942299,3.8257196 -52.5589879,3.86977 -52.6233504,3.9143083 -52.6873145,3.9593394 -52.7508772,4.0048682 -52.8140355,4.0508998 -52.8767865,4.097439 -52.9391272,4.1444907 -53.0010545,4.19206 -53.0625656,4.2401518 -53.1236574,4.288771 -53.184327,4.3379225 -53.2445714,4.3876113 -53.3043876,4.4378424 -53.3637727,4.4886207 -53.4227236,4.5399512 -53.4812374,4.5918387 -53.5393111,4.6442883 -53.5969417,4.6973048 -53.6541263,4.7508933 -53.7108619,4.8050586 -53.7671454,4.8598058 -53.822974,4.9151397 -53.8783447,4.9710653 -53.9332544,5.0275876 -53.9877002,5.0847114 -54.0416792,5.1424418 -54.0951883,5.2007837 -54.1482245,5.259742 -54.200785,5.3193217 -54.2528318,5.379484 -54.3042931,5.4401427 -54.3551694,5.5012984 -54.4054634,5.5629541 -54.4551779,5.6251131 -54.5043157,5.6877786 -54.5528796,5.7509539 -54.6008721,5.814642 -54.6482962,5.8788463 -54.6951546,5.94357 -54.74145,6.0088162 -54.7871852,6.0745882 -54.8323629,6.1408891 -54.876986,6.2077223 -54.921057,6.2750908 -54.9645789,6.3429979 -55.0075543,6.4114468 -55.049986,6.4804408 -55.0918767,6.549983 -55.1332293,6.6200766 -55.1740464,6.6907249 -55.2143309,6.761931 -55.2540854,6.8336982 -55.2933127,6.9060296 -55.3320157,6.9789286 -55.3701969,7.0523982 -55.4078592,7.1264418 -55.4450054,7.2010624 -55.4816382,7.2762634 -55.5177603,7.3520479 -55.5533745,7.4284191 -55.5884836,7.5053803 -55.6230903,7.5829346 -55.6571973,7.6610853 -55.6908074,7.7398356 -55.7239235,7.8191887 -55.7565481,7.8991477 -55.7886841,7.979716 -55.8203342,8.0608967 -55.8515013,8.1426929 -55.8821879,8.2251081 -55.912397,8.3081452 -55.9421311,8.3918076 -55.9713932,8.4760985 -56.0001859,8.561021 -56.0285196,8.6466033 -56.0564179,8.7329235 -56.0838829,8.819992 -56.1109154,8.9078144 -56.1375159,8.9963964 -56.1636849,9.0857435 -56.1894231,9.1758614 -56.2147311,9.2667557 -56.2396094,9.3584321 -56.2640587,9.4508962 -56.2880796,9.5441536 -56.3116727,9.6382099 -56.3348385,9.7330708 -56.3575777,9.8287418 -56.3798909,9.9252287 -56.4017786,10.022537 -56.4232415,10.1206724 -56.4442802,10.2196405 -56.4648952,10.3194469 -56.4850872,10.4200973 -56.5048567,10.5215972 -56.5242044,10.6239523 -56.5431309,10.7271683 -56.5616367,10.8312507 -56.5797225,10.9362053 -56.5973888,11.0420375 -56.6146363,11.1487531 -56.6314655,11.2563576 -56.6478771,11.3648567 -56.6638716,11.4742561 -56.6794497,11.5845613 -56.694612,11.6957779 -56.7093589,11.8079117 -56.7236912,11.9209682 -56.7376095,12.0349531 -56.7511143,12.1498719 -56.7642063,12.2657304 -56.7768859,12.3825341 -56.789154,12.5002886 -56.8010109,12.6189997 -56.8124574,12.7386728 -56.8234941,12.8593137 -56.8341214,12.980928 -56.8443401,13.1035213 -56.8541508,13.2270992 -56.8635539,13.3516674 -56.8725502,13.4772314 -56.8811403,13.6037969 -56.8893246,13.7313696 -56.8971039,13.8599551 -56.9044787,13.9895589 -56.9114496,14.1201868 -56.9180173,14.2518443 -56.9241822,14.384537 -56.9299451,14.5182707 -56.9353065,14.6530509 -56.940267,14.7888832 -56.9448273,14.9257733 -56.9489878,15.0637268 -56.9527493,15.2027494 -56.9561123,15.3428466 -56.9590774,15.4840241 -56.9616452,15.6262875 -56.9638163,15.7696425 -56.9655914,15.9140946 -56.9669709,16.0596495 -56.9679555,16.2063128 -56.9685459,16.3540902 -56.9687425,16.5029873 -56.9687425,16.5029873 -56.9685863,16.6358761 -56.9681172,16.7678749 -56.9673348,16.8989876 -56.9662387,17.0292183 -56.9648283,17.1585709 -56.9631033,17.2870494 -56.9610631,17.4146579 -56.9587073,17.5414003 -56.9560354,17.6672807 -56.953047,17.7923029 -56.9497416,17.916471 -56.9461187,18.0397891 -56.9421779,18.1622611 -56.9379186,18.2838909 -56.9333406,18.4046827 -56.9284431,18.5246403 -56.9232259,18.6437678 -56.9176885,18.7620692 -56.9118303,18.8795485 -56.9056509,18.9962096 -56.8991498,19.1120566 -56.8923267,19.2270934 -56.885181,19.3413242 -56.8777122,19.4547527 -56.8699199,19.5673831 -56.8618037,19.6792193 -56.853363,19.7902654 -56.8445974,19.9005253 -56.8355064,20.010003 -56.8260896,20.1187025 -56.8163465,20.2266279 -56.8062767,20.333783 -56.7958796,20.440172 -56.7851549,20.5457988 -56.774102,20.6506673 -56.7627204,20.7547816 -56.7510098,20.8581458 -56.7389697,20.9607637 -56.7265995,21.0626394 -56.7138988,21.1637768 -56.7008672,21.26418 -56.6875043,21.363853 -56.6738094,21.4627997 -56.6597822,21.5610242 -56.6454222,21.6585304 -56.630729,21.7553224 -56.615702,21.8514041 -56.6003408,21.9467795 -56.584645,22.0414527 -56.568614,22.1354275 -56.5522475,22.2287081 -56.5355449,22.3212984 -56.5185058,22.4132024 -56.5011297,22.5044241 -56.4834162,22.5949675 -56.4653648,22.6848366 -56.446975,22.7740354 -56.4282464,22.8625679 -56.4091784,22.950438 -56.3897707,23.0376498 -56.3700228,23.1242073 -56.3499342,23.2101145 -56.3295044,23.2953753 -56.308733,23.3799937 -56.2876195,23.4639738 -56.2661635,23.5473196 -56.2443644,23.6300349 -56.2222219,23.712124 -56.1997354,23.7935906 -56.1769045,23.8744389 -56.1537287,23.9546728 -56.1302076,24.0342963 -56.1063407,24.1133134 -56.0821275,24.1917281 -56.0575676,24.2695444 -56.0326605,24.3467663 -56.0074058,24.4233978 -55.9818029,24.4994428 -55.9558514,24.5749055 -55.9295509,24.6497897 -55.9029008,24.7240995 -55.8759008,24.7978389 -55.8485503,24.8710118 -55.8208064,24.9437309 -55.763951,25.0882506 -55.7052394,25.2315378 -55.6446332,25.37358 -55.5820943,25.5143649 -55.5175844,25.6538801 -55.4845783,25.7231576 -55.4510651,25.7921131 -55.4170401,25.860745 -55.3824984,25.9290518 -55.3474352,25.9970318 -55.3118458,26.0646836 -55.2757254,26.1320055 -55.2390692,26.1989962 -55.2018724,26.2656539 -55.1641303,26.3319772 -55.125838,26.3979645 -55.0869908,26.4636142 -55.0475838,26.5289249 -55.0076124,26.593895 -54.9670718,26.6585229 -54.925957,26.722807 -54.8842634,26.7867459 -54.8419863,26.850338 -54.7991207,26.9135817 -54.7556619,26.9764755 -54.7116052,27.0390178 -54.6669457,27.1012072 -54.6216786,27.163042 -54.5757993,27.2245207 -54.5293029,27.2856417 -54.4821846,27.3464036 -54.4344396,27.4068047 -54.3860632,27.4668436 -54.3370506,27.5265186 -54.287397,27.5858283 -54.2370976,27.644771 -54.1861476,27.7033452 -54.1345422,27.7615495 -54.0822768,27.8193822 -54.029349,27.8768391 -53.9758311,27.9338447 -53.9217552,27.990367 -53.8671189,28.0464093 -53.8119198,28.1019745 -53.7561553,28.157066 -53.699823,28.2116868 -53.6429205,28.2658401 -53.5854451,28.3195291 -53.5273945,28.3727568 -53.4687662,28.4255265 -53.4095576,28.4778412 -53.3497664,28.5297042 -53.2893901,28.5811186 -53.2284261,28.6320875 -53.166872,28.6826141 -53.1047254,28.7327015 -53.0419837,28.7823529 -52.9786444,28.8315714 -52.9147052,28.8803601 -52.8501635,28.9287223 -52.7850168,28.9766611 -52.7192627,29.0241796 -52.6528987,29.0712809 -52.5859223,29.1179682 -52.518331,29.1642448 -52.4501224,29.2101136 -52.381294,29.2555779 -52.3118433,29.3006408 -52.2417678,29.3453054 -52.1710652,29.3895749 -52.0997327,29.4334525 -52.0277681,29.4769413 -51.9551689,29.5200445 -51.8819325,29.5627651 -51.8080564,29.6051064 -51.7335383,29.6470715 -51.6583756,29.6886635 -51.5825659,29.7298856 -51.5061066,29.7707409 -51.4289954,29.8112327 -51.3512296,29.8513639 -51.272807,29.8911379 -51.1937249,29.9305577 -51.1139809,29.9696264 -51.0335725,30.0083473 -50.9524632,30.0467384 -50.8705616,30.0848403 -50.7878573,30.122656 -50.7043444,30.1601866 -50.6200168,30.1974334 -50.5348686,30.2343973 -50.4488938,30.2710795 -50.3620865,30.3074811 -50.2744405,30.3436033 -50.1859501,30.3794472 -50.096609,30.4150138 -50.0064115,30.4503044 -49.9153515,30.4853201 -49.823423,30.5200619 -49.7306201,30.554531 -49.6369367,30.5887285 -49.5423669,30.6226556 -49.4469047,30.6563133 -49.3505441,30.6897028 -49.2532791,30.7228251 -49.1551038,30.7556816 -49.0560122,30.7882731 -48.9559982,30.820601 -48.855056,30.8526662 -48.7531795,30.8844699 -48.6503627,30.9160133 -48.5465997,30.9472975 -48.4418844,30.9783235 -48.3362109,31.0090925 -48.2295733,31.0396057 -48.1219655,31.0698641 -48.0133815,31.0998689 -47.9038154,31.1296212 -47.7932612,31.1591221 -47.6817129,31.1883727 -47.5691645,31.2173742 -47.45561,31.2461277 -47.3410435,31.2746343 -47.2254589,31.3028951 -47.1088504,31.3309113 -46.9912119,31.358684 -46.8725373,31.3862142 -46.7528209,31.4135032 -46.6320565,31.440552 -46.5102381,31.4673618 -46.3873599,31.4939337 -46.2634158,31.5202687 -46.1383998,31.5463682 -46.012306,31.572233 -45.8851283,31.5978645 -45.7568609,31.6232636 -45.6274976,31.6484316 -45.4970326,31.6733695 -45.3654598,31.6980785 -45.2327732,31.7225597 -45.0989669,31.7468142 -44.964035,31.7708431 -44.8279713,31.7946476 -44.69077,31.8182288 -44.552425,31.8415877 -44.4129304,31.8647256 -44.2722802,31.8876436 -44.1304683,31.9103427 -43.9874889,31.9328241 -43.843336,31.9550889 -43.6980034,31.9771383 -43.5514854,31.9989733 -43.4037759,32.0205951 -43.2548688,32.0420048 -43.1047583,32.0632036 -42.9534383,32.0841925 -42.8009029,32.1049726 -42.6471461,32.1255452 -42.4921619,32.1459113 -42.3359443,32.166072 -42.1784873,32.1860285 -42.019785,32.2057818 -41.8598313,32.2253332 -41.6986203,32.2446837 -41.5361461,32.2638345 -41.3724026,32.2827866 -41.2073838,32.3015412 -41.2073838,32.3015412 -41.190822,32.302894 -41.1742325,32.3032284 -41.1576545,32.3025455 -41.1411269,32.3008461 -41.1247287,32.2981389 -41.1085484,32.2944452 -41.0926212,32.2897821 -41.0769823,32.2841669 -41.0617019,32.2776333 -41.0468697,32.2702358 -41.0325097,32.2620053 -41.0186447,32.2529724 -41.0052973,32.2431676 -40.9924902,32.2326216 -40.9802462,32.2213648 -40.9686104,32.2094531 -40.9576383,32.196966 -40.9473376,32.1839386 -40.9377151,32.1704051 -40.9287773,32.1563997 -40.9205308,32.1419565 -40.9129825,32.1271098 -40.9061389,32.1118936 -40.900014,32.0963637 -40.8946186,32.08058 -40.8899502,32.0645726 -40.8860065,32.0483717 -40.8827852,32.0320074 -40.8802838,32.0155097 -40.8785,31.9989087 -40.8774315,31.9822345 -40.8770759,31.9655172 -40.8770759,31.8029873 A0.3,0.3 180 0,1 -40.5770759,31.5029873 L-38.7770759,31.5029873 A0.3,0.3 270 0,1 -38.4770759,31.8029873 L-38.4770759,32.2791276 -38.4770759,32.2791276 -38.4767632,32.2934851 -38.4758266,32.307799 -38.4742679,32.322047 -38.4720892,32.3362068 -38.4692923,32.3502563 -38.4658792,32.3641732 -38.4618519,32.3779352 -38.4572123,32.3915201 -38.451971,32.4048846 -38.4461448,32.4179811 -38.4397423,32.4307884 -38.432772,32.4432852 -38.4252426,32.4554502 -38.4171625,32.4672623 -38.4085403,32.4787001 -38.3993846,32.4897424 -38.3897251,32.5003454 -38.3795992,32.5104651 -38.3690232,32.5200842 -38.3580137,32.5291857 -38.3465869,32.5377524 -38.3347593,32.5457672 -38.3225472,32.553213 -38.3099671,32.5600726 -38.2970636,32.5663157 -38.2838998,32.5719105 -38.2704989,32.5768484 -38.2568837,32.581121 -38.2430771,32.5847202 -38.2291018,32.5876374 -38.2149807,32.5898644 -38.2007367,32.5913929 -38.2007367,32.5913929 -37.9281593,32.6135207 -37.656383,32.6349989 -37.3855438,32.6558415 -37.1157778,32.6760625 -36.8472209,32.6956757 -36.5800093,32.7146951 -36.314279,32.7331347 -36.0501475,32.7510095 -35.7859334,32.7684482 -35.5205229,32.7855337 -35.2539863,32.8022699 -34.9863943,32.8186611 -34.7178176,32.8347115 -34.4483266,32.850425 -34.177992,32.8658059 -33.9068843,32.8808584 -33.6350741,32.8955865 -33.362632,32.9099944 -32.8161343,32.9378663 -32.267956,32.964507 -31.7186615,32.9899499 -31.1688156,33.0142279 -30.6189829,33.0373742 -30.0697279,33.059422 -29.5216154,33.0804043 -29.5216154,33.0804043 -29.5065117,33.0805884 -29.4914291,33.0800127 -29.4763963,33.0786793 -29.4614419,33.0765903 -29.4466028,33.0737496 -29.431937,33.0701685 -29.417475,33.0658558 -29.4032442,33.0608197 -29.389274,33.0550694 -29.3756277,33.0486314 -29.3623437,33.0415276 -29.3494459,33.033774 -29.3369577,33.0253867 -29.3249029,33.0163818 -29.313305,33.0067753 -29.3021877,32.9965833 -29.2915812,32.9858289 -29.2815443,32.9745718 -29.2720994,32.9628423 -29.2632622,32.9506641 -29.2550485,32.938061 -29.247474,32.925057 -29.2405545,32.9116758 -29.2343058,32.8979413 -29.2287508,32.8838972 -29.2239178,32.8696175 -29.2198132,32.8551324 -29.2164425,32.8404698 -29.2138112,32.8256578 -29.2119249,32.8107244 -29.210789,32.7956976 -29.2104092,32.7806056 -29.2104092,31.8029873 A0.3,0.3 180 0,1 -28.9104092,31.5029873 L-27.1104092,31.5029873 A0.3,0.3 270 0,1 -26.8104092,31.8029873 L-26.8104092,32.8792961 -26.8104092,32.8792961 -26.8100599,32.8937824 -26.8090151,32.9082111 -26.8072794,32.9225576 -26.8048575,32.9367969 -26.801754,32.9509043 -26.7979737,32.964855 -26.7935211,32.9786242 -26.7884016,32.9921855 -26.7826391,33.0054728 -26.7762537,33.0184461 -26.7692589,33.0310842 -26.7616682,33.0433659 -26.7534951,33.0552697 -26.7447532,33.0667744 -26.7354558,33.0778587 -26.7256172,33.0885008 -26.7152822,33.09865 -26.7044879,33.1082729 -26.6932551,33.1173551 -26.6816041,33.1258819 -26.6695557,33.1338387 -26.6571305,33.141211 -26.644349,33.1479841 -26.6312319,33.1541435 -26.6178365,33.1596605 -26.604214,33.1645161 -26.5903888,33.1687048 -26.5763858,33.1722209 -26.5622295,33.1750588 -26.5479444,33.1772128 -26.5335553,33.1786773 -26.5190867,33.1794468 -26.5190867,33.1794468 -25.9728176,33.1949078 -25.4254016,33.2096997 -25.4254016,33.2096997 -25.4072336,33.1746803 -25.3894789,33.1391194 -25.3721141,33.1030421 -25.3551156,33.0664735 -25.3221228,32.9919626 -25.2903119,32.9157877 -25.259494,32.8381495 -25.2294805,32.759249 -25.2000825,32.6792868 -25.1711112,32.5984639 -25.1136939,32.4350392 -25.0557185,32.2705815 -25.0260496,32.1884674 -24.9956749,32.1066975 -24.9644055,32.0254727 -24.9320528,31.9449938 -24.898449,31.8655078 -24.8634303,31.7872551 -24.8267998,31.7103934 -24.8078184,31.6725334 -24.78836,31.6350801 -24.7683999,31.5980532 -24.7479136,31.5614723 -24.7268762,31.5253571 -24.7052633,31.4897272 -24.68305,31.4546023 -24.6602117,31.4200021 -24.6367239,31.3859461 -24.6125617,31.3524541 -24.5877005,31.3195457 -24.562151,31.2872841 -24.5360126,31.2558288 -24.5092777,31.2251906 -24.4819282,31.1953672 -24.4539463,31.1663566 -24.4253141,31.1381563 -24.3960137,31.1107643 -24.3660272,31.0841782 -24.3353368,31.0583959 -24.3039245,31.033415 -24.2717725,31.0092335 -24.2388628,30.985849 -24.2051777,30.9632593 -24.1706991,30.9414622 -24.1354092,30.9204555 A1.25,1.25 240 0,1 -22.8854092,30.9204555 L-22.8854092,30.9204555 -22.847729,30.9428411 -22.8108339,30.9660424 -22.7747152,30.9900752 -22.7393641,31.0149554 -22.7047718,31.0406986 -22.6709296,31.0673208 -22.6378289,31.0948376 -22.6054608,31.1232649 -22.5738166,31.1526185 -22.5428877,31.1829141 -22.5126651,31.2141675 -22.4831403,31.2463946 -22.4543315,31.2795791 -22.4264521,31.3134515 -22.399524,31.3479326 -22.3735149,31.3830036 -22.3483925,31.4186459 -22.3241245,31.4548408 -22.3006787,31.4915695 -22.2780228,31.5288133 -22.2561246,31.5665537 -22.2349517,31.6047718 -22.214472,31.643449 -22.1946532,31.6825666 -22.1754631,31.7221054 -22.1568823,31.7620188 -22.1388861,31.8022667 -22.1214425,31.8428239 -22.0880853,31.9247652 -22.0565547,32.0076408 -22.0265951,32.0912487 -21.9979504,32.1753871 -21.9703649,32.259854 -21.9435827,32.3444475 -21.8914049,32.5132067 -21.8654976,32.5969686 -21.8393702,32.6800494 -21.8127669,32.7622473 -21.7854232,32.8433915 -21.7570715,32.9232973 -21.7274543,33.0017293 -21.7120908,33.0403189 -21.6963143,33.0784518 -21.6800928,33.1160984 -21.6633941,33.1532294 -21.6461859,33.1898153 -21.6284361,33.2258265 -21.6101125,33.2612338 -21.591183,33.2960076 -21.591183,33.2960076 -21.0157949,33.3066622 -21.0157949,33.3066622 -21.0008336,33.3065571 -20.9859069,33.3057031 -20.9710425,33.3041027 -20.9562683,33.3017584 -20.9416252,33.2986759 -20.927166,33.294867 -20.9129179,33.2903402 -20.8989074,33.2851041 -20.8851718,33.2791719 -20.871774,33.2725733 -20.85874,33.2653254 -20.8460924,33.2574442 -20.8338538,33.2489456 -20.8220467,33.2398457 -20.8106938,33.2301603 -20.7998177,33.2199054 -20.7894566,33.2091141 -20.7796617,33.1978422 -20.7704488,33.186114 -20.7618327,33.1739527 -20.753828,33.1613816 -20.7464497,33.1484238 -20.7397124,33.1351028 -20.733631,33.1214416 -20.7282301,33.1074914 -20.7235327,33.0933168 -20.719544,33.0789449 -20.716269,33.0644028 -20.713713,33.0497176 -20.7118809,33.0349162 -20.710778,33.0200256 -20.7104092,33.0050728 -20.7104092,31.8029873 A0.3,0.3 180 0,1 -20.4104092,31.5029873 L-18.6104092,31.5029873 A0.3,0.3 270 0,1 -18.3104092,31.8029873 L-18.3104092,33.0517497 -18.3104092,33.0517497 -18.3100553,33.0664357 -18.3089968,33.0810628 -18.3072385,33.0956056 -18.304785,33.1100386 -18.301641,33.1243363 -18.2978114,33.1384733 -18.2933009,33.1524242 -18.2881141,33.1661634 -18.2822667,33.179642 -18.2757859,33.1927989 -18.2686858,33.2056114 -18.26098,33.2180575 -18.2526825,33.2301151 -18.2438069,33.2417622 -18.2343669,33.2529768 -18.2243763,33.2637367 -18.2138678,33.2740022 -18.2028916,33.2837252 -18.1914694,33.2928897 -18.1796222,33.3014806 -18.1673714,33.3094825 -18.154738,33.3168802 -18.1417433,33.3236584 -18.1284085,33.3298017 -18.1147832,33.3352843 -18.1009313,33.3400814 -18.0868786,33.3441874 -18.0726506,33.3475964 -18.0582731,33.3503028 -18.0437716,33.3523007 -18.0291717,33.3535845 -18.014499,33.3541484 -18.014499,33.3541484 -16.9288646,33.368326 -16.3869976,33.3748664 -15.846111,33.3810556 -15.3064651,33.3869045 -14.7680083,33.3924268 -14.2286688,33.3976545 -13.6881719,33.4025987 -13.1467071,33.4072659 -12.6044638,33.4116626 -11.5183996,33.41967 -10.4314951,33.4266725 -9.3452661,33.4327215 -9.3452661,33.4327215 -9.3303669,33.432423 -9.3155119,33.4313756 -9.3007283,33.4295823 -9.2860436,33.427046 -9.2715046,33.4237746 -9.257158,33.41978 -9.2430297,33.415071 -9.2291458,33.4096564 -9.2155576,33.4035574 -9.2023156,33.3968007 -9.1894416,33.3894027 -9.1769573,33.3813796 -9.1648845,33.3727477 -9.1532449,33.3635233 -9.1420603,33.3537226 -9.1313525,33.343362 -9.1211712,33.3324894 -9.1115528,33.3211487 -9.102511,33.3093631 -9.0940595,33.2971557 -9.0862122,33.2845496 -9.0789829,33.2715679 -9.0723853,33.2582338 -9.0664332,33.2445704 -9.0611531,33.2306371 -9.0565619,33.2164868 -9.0526642,33.2021457 -9.0494648,33.1876403 -9.0469683,33.1729969 -9.0451793,33.1582418 -9.0441025,33.1434014 -9.0437425,33.128502 -9.0437425,31.8029873 A0.3,0.3 180 0,1 -8.7437425,31.5029873 L-6.9437425,31.5029873 A0.3,0.3 270 0,1 -6.6437425,31.8029873 L-6.6437425,33.1403016 -6.6437425,33.1403016 -6.6433863,33.1551437 -6.6423193,33.169943 -6.6405438,33.1846732 -6.6380622,33.1993081 -6.6348793,33.2138111 -6.6310052,33.2281348 -6.626447,33.242253 -6.6212118,33.2561401 -6.6153104,33.2697626 -6.6087684,33.2830619 -6.601601,33.2960115 -6.5938221,33.3085886 -6.5854453,33.3207705 -6.5764844,33.3325346 -6.5669531,33.3438582 -6.5568651,33.3547186 -6.5462444,33.3650836 -6.5351468,33.3748972 -6.5235973,33.3841398 -6.5116173,33.3927954 -6.4992284,33.4008481 -6.486452,33.4082819 -6.4733098,33.4150808 -6.459823,33.4212288 -6.4460355,33.4267017 -6.4320199,33.4314706 -6.4178043,33.4355291 -6.403415,33.4388711 -6.3888783,33.4414908 -6.3742206,33.4433823 -6.3594682,33.4445397 -6.3446474,33.4449571 -6.3446474,33.4449571 -5.6571546,33.4469134 -4.9702093,33.4485768 -3.5947308,33.4510729 -2.2184847,33.4525201 -1.5307837,33.4528719 -0.8437425,33.4529873 -0.8437425,33.4529873 -0.8288703,33.452612 -0.814066,33.4514902 -0.7993561,33.449628 -0.7847672,33.4470313 -0.7703258,33.4437062 -0.7560586,33.4396588 -0.741992,33.4348951 -0.728153,33.4294213 -0.7146109,33.4232642 -0.701417,33.4164515 -0.6885926,33.4089994 -0.6761592,33.4009245 -0.6641383,33.3922432 -0.6525515,33.3829718 -0.64142,33.3731268 -0.6307664,33.3627256 -0.6206434,33.3518205 -0.611082,33.3404511 -0.6020956,33.3286403 -0.5936977,33.3164113 -0.5859016,33.3037873 -0.5787208,33.2907912 -0.5721688,33.2774463 -0.5662591,33.2637761 -0.5610186,33.2498422 -0.5564622,33.2356936 -0.5525944,33.2213565 -0.5494197,33.2068569 -0.5469427,33.192221 -0.5451678,33.177475 -0.5440996,33.1626449 -0.5437425,33.1477569 -0.5437425,31.8029873 A0.3,0.3 180 0,1 -0.2437425,31.5029873 L1.5562575,31.5029873 A0.3,0.3 270 0,1 1.8562575,31.8029873 L1.8562575,33.1468873 1.8562575,33.1468873 1.8566146,33.1617795 1.8576842,33.1766289 1.8594641,33.1914089 1.8619519,33.206093 1.865143,33.2206458 1.8690274,33.235019 1.8735977,33.2491856 1.8788469,33.26312 1.8847653,33.2767907 1.8913275,33.2901386 1.8985173,33.3031348 1.906321,33.3157564 1.9147247,33.3279805 1.9237148,33.3397841 1.9332775,33.3511445 1.9433991,33.3620386 1.9540578,33.3724362 1.9651972,33.3822799 1.9767906,33.3915483 1.9888163,33.4002251 2.0012527,33.4082942 2.0140781,33.4157393 2.027271,33.4225443 2.0408097,33.4286929 2.0546524,33.4341614 2.0687238,33.4389199 2.082995,33.4429614 2.0974392,33.4462798 2.1120299,33.4488694 2.1267405,33.4507241 2.1415445,33.4518381 2.1564153,33.4522055 2.1564153,33.4522055 4.3258264,33.4505709 5.409231,33.4493783 5.9500198,33.4486823 6.4899755,33.4479176 7.029528,33.4470815 7.5700681,33.4461695 8.1114648,33.445179 8.6535016,33.4441075 10.823721,33.4389606 10.823721,33.4389606 10.8385759,33.4385455 10.8533611,33.4373848 10.8680502,33.4354846 10.8826166,33.432851 10.8970339,33.4294901 10.9112756,33.4254081 10.9253154,33.420611 10.9391258,33.4151053 10.9526353,33.4089195 10.965796,33.40208 10.9785866,33.3946032 10.9909858,33.3865056 11.0029724,33.3778036 11.0145249,33.3685137 11.0256222,33.3586524 11.0362414,33.3482375 11.046329,33.3373228 11.0558561,33.325946 11.0648095,33.3141302 11.0731759,33.3018984 11.080942,33.2892736 11.0880945,33.276279 11.0946202,33.2629376 11.1005055,33.2492731 11.1057236,33.235348 11.1102604,33.2212095 11.1141114,33.2068836 11.1172721,33.1923963 11.1197382,33.1777737 11.1215052,33.1630417 11.1225687,33.1482263 11.1229241,33.1333536 11.1229241,31.8029873 A0.3,0.3 180 0,1 11.4229241,31.5029873 L13.2229241,31.5029873 A0.3,0.3 270 0,1 13.5229241,31.8029873 L13.5229241,33.1235695 13.5229241,33.1235695 13.5232822,33.138502 13.5243548,33.1533914 13.5261396,33.1682111 13.5286342,33.1829345 13.5318343,33.1975268 13.5357297,33.2119388 13.540313,33.2261432 13.5455771,33.2401142 13.5515131,33.2538217 13.5580958,33.2672064 13.5653082,33.2802374 13.5731364,33.2928918 13.5815668,33.3051463 13.5905854,33.316978 13.6001784,33.3283637 13.6103321,33.3392804 13.6210261,33.349699 13.6322039,33.3595616 13.6438371,33.368845 13.655904,33.377533 13.6683827,33.3856091 13.6812515,33.393057 13.6944886,33.3998605 13.7080722,33.406003 13.7219619,33.4114614 13.7360806,33.4162049 13.7503984,33.4202262 13.7648884,33.4235194 13.7795239,33.4260785 13.7942781,33.4278977 13.8091242,33.428971 13.8240353,33.4292925 13.8240353,33.4292925 14.7758962,33.4255174 14.7758962,33.4255174 14.7995736,33.3914833 14.8225602,33.3565937 14.8448878,33.320882 14.8665882,33.2843819 14.887693,33.2471269 14.908234,33.2091506 14.928243,33.1704866 14.9477515,33.1311684 14.9667915,33.0912295 14.9853946,33.0507036 15.0035926,33.0096242 15.0214171,32.9680249 15.0560729,32.8834008 15.0896158,32.7970997 15.1222997,32.7093901 15.1543784,32.6205407 15.1861059,32.5308199 15.2177359,32.4404962 15.281719,32.2591141 15.3145798,32.1685928 15.3483587,32.0785426 15.3833093,31.9892322 15.4196799,31.9009433 15.4576774,31.814041 15.4773646,31.7711871 15.4975548,31.7287665 15.5182813,31.6868057 15.5395771,31.645331 15.5614754,31.6043688 15.5840093,31.5639456 15.6072121,31.5240877 15.6311167,31.4848215 15.6557563,31.4461735 15.6811641,31.40817 15.7073733,31.3708375 15.7344168,31.3342023 15.7623202,31.2983006 15.7909726,31.2633286 15.8203461,31.2293521 15.8504649,31.196368 15.8813528,31.1643734 15.913034,31.1333654 15.9455325,31.1033408 15.9788723,31.0742968 16.0130774,31.0462302 16.0481719,31.0191382 16.0841797,30.9930177 16.1211251,30.9678658 16.1590319,30.9436794 16.1979241,30.9204555 A1.25,1.25 240 0,1 17.4479241,30.9204555 L17.4479241,30.9204555 17.4872966,30.9438768 17.5258688,30.9682276 17.5636464,30.9935297 17.600635,31.0198047 17.6368399,31.0470743 17.6722669,31.0753603 17.7069214,31.1046843 17.740809,31.135068 17.7739353,31.1665332 17.8062839,31.1990788 17.8376235,31.232461 17.8679175,31.2665999 17.8971999,31.3014848 17.9255044,31.3371046 17.9528652,31.3734487 17.979316,31.4105062 18.0048909,31.4482663 18.0296237,31.4867182 18.0535484,31.5258511 18.076655,31.5655766 18.0989379,31.6057989 18.1204347,31.6464911 18.141183,31.6876262 18.1612205,31.7291774 18.1805849,31.7711177 18.1993138,31.8134201 18.2174447,31.8560579 18.2350155,31.899004 18.2686268,31.9857138 18.300449,32.0733342 18.330783,32.1616498 18.3599302,32.2504453 18.3881916,32.3395055 18.4158472,32.4285439 18.4704538,32.6053717 18.4979911,32.6926675 18.5260753,32.778889 18.5549995,32.8637895 18.5850568,32.9471221 18.600602,32.9881233 18.6165405,33.0286401 18.6329088,33.0686416 18.6497436,33.1080969 18.6670816,33.1469752 18.6849594,33.1852456 18.7034647,33.2229793 18.7227541,33.2603544 18.7428772,33.2973102 18.7638796,33.3337763 18.7858065,33.3696828 18.8087034,33.4049594 18.8087034,33.4049594 19.3248153,33.4017186 19.3248153,33.4017186 19.3396429,33.4012492 19.3543984,33.4000361 19.3690555,33.3980856 19.383588,33.3954038 19.3979695,33.3919969 19.4121738,33.387871 19.4261746,33.3830323 19.4399435,33.377488 19.4534063,33.3712683 19.4665198,33.3643979 19.4792632,33.3568932 19.4916151,33.3487708 19.5035545,33.3400471 19.5150603,33.3307384 19.5261114,33.3208613 19.5366843,33.3104345 19.5467248,33.2995132 19.5562066,33.288133 19.5651165,33.2763167 19.5734416,33.2640874 19.5811686,33.2514678 19.5882846,33.2384811 19.5947763,33.2251502 19.6006303,33.211499 19.6058198,33.1975909 19.6103315,33.183471 19.6141611,33.1691653 19.6173041,33.1546995 19.6197563,33.1400996 19.6215133,33.1253912 19.6225707,33.1106002 19.6229241,33.0957524 19.6229241,31.8029873 A0.3,0.3 180 0,1 19.9229241,31.5029873 L21.7229241,31.5029873 A0.3,0.3 270 0,1 22.0229241,31.8029873 L22.0229241,33.0734265 22.0229241,33.0734265 22.0232838,33.0884121 22.0243612,33.1033544 22.0261539,33.1182264 22.0286596,33.1330013 22.0318742,33.1476451 22.0357873,33.1621076 22.0403914,33.1763608 22.0456793,33.1903786 22.0516428,33.2041324 22.0582573,33.2175634 22.0655045,33.2306378 22.0733705,33.2433322 22.0818413,33.2556233 22.090903,33.267488 22.1005416,33.2789028 22.1107432,33.2898444 22.1214891,33.3002853 22.1327227,33.310167 22.1444135,33.3194643 22.1565394,33.3281606 22.1690785,33.3362396 22.1820087,33.3436845 22.1953081,33.350479 22.2089547,33.3566066 22.2229093,33.3620444 22.2370929,33.366761 22.2514744,33.3707486 22.2660268,33.3740015 22.2807229,33.3765136 22.2955357,33.3782793 22.3104379,33.3792924 22.3254026,33.3795472 22.3254026,33.3795472 22.8670307,33.3748686 23.4096746,33.3699487 24.4962108,33.3593527 25.0392037,33.3536605 25.5814134,33.3476946 26.1223903,33.3414469 26.6616846,33.3349095 27.1990526,33.3280715 27.4681256,33.3245207 27.7378404,33.3208735 28.2788717,33.3132819 28.8214992,33.3052812 29.9089532,33.2879898 30.452485,33.278668 30.9950234,33.2688746 30.9950234,33.2688746 31.0097519,33.2682314 31.0244012,33.2668529 31.0389456,33.2647452 31.0533594,33.2619148 31.0676168,33.258368 31.0816921,33.2541112 31.0955595,33.2491506 31.1091858,33.243496 31.1224938,33.2371811 31.1354525,33.2302264 31.1480414,33.2226481 31.1602397,33.2144625 31.1720271,33.2056859 31.1833828,33.1963346 31.1942864,33.1864249 31.2047119,33.1759787 31.2146048,33.1650536 31.2239451,33.1536792 31.2327201,33.1418781 31.2409173,33.1296729 31.248524,33.1170862 31.2555275,33.1041404 31.2619154,33.0908583 31.267674,33.0772646 31.2727766,33.0634241 31.2772125,33.049377 31.2809773,33.0351486 31.2840671,33.020764 31.2864774,33.0062486 31.2882043,32.9916276 31.2892435,32.9769261 31.2895908,32.9621695 31.2895908,31.8029873 A0.3,0.3 180 0,1 31.5895908,31.5029873 L33.3895908,31.5029873 A0.3,0.3 270 0,1 33.6895908,31.8029873 L33.6895908,32.8973486 33.6895908,32.8973486 33.6899566,32.9125087 33.6910525,32.927624 33.6928759,32.9426669 33.6954243,32.9576097 33.6986943,32.9724205 33.7026751,32.9870463 33.7073585,33.0014561 33.712737,33.0156231 33.7188032,33.0295204 33.7255366,33.0430965 33.7329134,33.0563047 33.7409191,33.0691209 33.7495392,33.0815211 33.758759,33.0934814 33.7685642,33.1049779 33.7789402,33.1159864 33.7898712,33.1264821 33.801304,33.1364086 33.813199,33.1457323 33.8255335,33.1544362 33.8382844,33.1625033 33.8514289,33.1699167 33.8649442,33.1766596 33.8788074,33.1827151 33.8929831,33.1880617 33.9073872,33.1926663 33.9219841,33.1965201 33.9367458,33.1996175 33.951644,33.2019526 33.9666507,33.20352 33.9817377,33.2043138 33.9968768,33.2043284 33.9968768,33.2043284 34.3410397,33.1956183 34.6857461,33.1865802 35.3757653,33.1674857 35.720566,33.1574118 36.0648861,33.146975 36.4084696,33.1361667 36.7510603,33.1249781 37.0925427,33.1133957 37.4348762,33.1013318 37.778487,33.0887433 38.1230118,33.075613 38.4680868,33.061924 38.8133485,33.047659 39.1584334,33.0328009 39.5029778,33.0173326 39.5029778,33.0173326 39.5174617,33.0163076 39.5318493,33.0145691 39.5461162,33.012124 39.560238,33.0089792 39.5741905,33.0051418 39.5879493,33.0006185 39.6014901,32.9954165 39.6147823,32.9895455 39.6277538,32.9830392 39.6403744,32.9759183 39.6526249,32.9681989 39.664486,32.9598969 39.6759386,32.9510285 39.6869635,32.9416098 39.6975413,32.9316567 39.7076376,32.9212023 39.7172082,32.9102975 39.7262405,32.8989647 39.734723,32.8872254 39.7426437,32.8751012 39.7499911,32.8626139 39.7567532,32.849785 39.7629185,32.8366361 39.7684728,32.8231951 39.773391,32.8095265 39.7776659,32.7956621 39.7812936,32.7816257 39.7842704,32.7674414 39.7865923,32.7531331 39.7882556,32.7387248 39.7892564,32.7242404 39.7895908,32.709704 39.7895908,31.8029873 A0.3,0.3 180 0,1 40.0895908,31.5029873 L41.8895908,31.5029873z" transform="matrix(1,0,0,-1,63.8437425,34.5029873)" fill="rgb(255,255,255)" stroke="rgb(0,0,0)" stroke-width="0.0010cm" stroke-linecap="round" stroke-linejoin="round" /><path d="M32.0145908,0.1029873 a0.475,0.475 0 1,1 0.95,0 a0.475,0.475 0 1,1 -0.95,0z" transform="matrix(1,0,0,-1,63.8437425,34.5029873)" fill="rgb(255,255,255)" stroke="rgb(0,0,0)" stroke-width="0.0010cm" stroke-linecap="round" stroke-linejoin="round" /><path d="M-8.3187425,0.1029873 a0.475,0.475 0 1,1 0.95,0 a0.475,0.475 0 1,1 -0.95,0z" transform="matrix(1,0,0,-1,63.8437425,34.5029873)" fill="rgb(255,255,255)" stroke="rgb(0,0,0)" stroke-width="0.0010cm" stroke-linecap="round" stroke-linejoin="round" /><path d="M-48.6520759,0.1029873 a0.475,0.475 0 1,1 0.95,0 a0.475,0.475 0 1,1 -0.95,0z" transform="matrix(1,0,0,-1,63.8437425,34.5029873)" fill="rgb(255,255,255)" stroke="rgb(0,0,0)" stroke-width="0.0010cm" stroke-linecap="round" stroke-linejoin="round" /><path d="M-40.1520759,32.9029873 a0.475,0.475 0 1,1 0.95,0 a0.475,0.475 0 1,1 -0.95,0z" transform="matrix(1,0,0,-1,63.8437425,34.5029873)" fill="rgb(255,255,255)" stroke="rgb(0,0,0)" stroke-width="0.0010cm" stroke-linecap="round" stroke-linejoin="round" /><path d="M0.1812575,32.9029873 a0.475,0.475 0 1,1 0.95,0 a0.475,0.475 0 1,1 -0.95,0z" transform="matrix(1,0,0,-1,63.8437425,34.5029873)" fill="rgb(255,255,255)" stroke="rgb(0,0,0)" stroke-width="0.0010cm" stroke-linecap="round" stroke-linejoin="round" /><path d="M40.5145908,32.9029873 a0.475,0.475 0 1,1 0.95,0 a0.475,0.475 0 1,1 -0.95,0z" transform="matrix(1,0,0,-1,63.8437425,34.5029873)" fill="rgb(255,255,255)" stroke="rgb(0,0,0)" stroke-width="0.0010cm" stroke-linecap="round" stroke-linejoin="round" /><path d="M32.0145908,32.9029873 a0.475,0.475 0 1,1 0.95,0 a0.475,0.475 0 1,1 -0.95,0z" transform="matrix(1,0,0,-1,63.8437425,34.5029873)" fill="rgb(255,255,255)" stroke="rgb(0,0,0)" stroke-width="0.0010cm" stroke-linecap="round" stroke-linejoin="round" /><path d="M-8.3187425,32.9029873 a0.475,0.475 0 1,1 0.95,0 a0.475,0.475 0 1,1 -0.95,0z" transform="matrix(1,0,0,-1,63.8437425,34.5029873)" fill="rgb(255,255,255)" stroke="rgb(0,0,0)" stroke-width="0.0010cm" stroke-linecap="round" stroke-linejoin="round" /><path d="M-48.6520759,32.9029873 a0.475,0.475 0 1,1 0.95,0 a0.475,0.475 0 1,1 -0.95,0z" transform="matrix(1,0,0,-1,63.8437425,34.5029873)" fill="rgb(255,255,255)" stroke="rgb(0,0,0)" stroke-width="0.0010cm" stroke-linecap="round" stroke-linejoin="round" /><path d="M-40.1520759,0.1029873 a0.475,0.475 0 1,1 0.95,0 a0.475,0.475 0 1,1 -0.95,0z" transform="matrix(1,0,0,-1,63.8437425,34.5029873)" fill="rgb(255,255,255)" stroke="rgb(0,0,0)" stroke-width="0.0010cm" stroke-linecap="round" stroke-linejoin="round" /><path d="M0.1812575,0.1029873 a0.475,0.475 0 1,1 0.95,0 a0.475,0.475 0 1,1 -0.95,0z" transform="matrix(1,0,0,-1,63.8437425,34.5029873)" fill="rgb(255,255,255)" stroke="rgb(0,0,0)" stroke-width="0.0010cm" stroke-linecap="round" stroke-linejoin="round" /><path d="M40.5145908,0.1029873 a0.475,0.475 0 1,1 0.95,0 a0.475,0.475 0 1,1 -0.95,0z" transform="matrix(1,0,0,-1,63.8437425,34.5029873)" fill="rgb(255,255,255)" stroke="rgb(0,0,0)" stroke-width="0.0010cm" stroke-linecap="round" stroke-linejoin="round" /><path d="M20.3479241,0.1029873 a0.475,0.475 0 1,1 0.95,0 a0.475,0.475 0 1,1 -0.95,0z" transform="matrix(1,0,0,-1,63.8437425,34.5029873)" fill="rgb(255,255,255)" stroke="rgb(0,0,0)" stroke-width="0.0010cm" stroke-linecap="round" stroke-linejoin="round" /><path d="M-19.9854092,0.1029873 a0.475,0.475 0 1,1 0.95,0 a0.475,0.475 0 1,1 -0.95,0z" transform="matrix(1,0,0,-1,63.8437425,34.5029873)" fill="rgb(255,255,255)" stroke="rgb(0,0,0)" stroke-width="0.0010cm" stroke-linecap="round" stroke-linejoin="round" /><path d="M-60.3187425,0.1029873 a0.475,0.475 0 1,1 0.95,0 a0.475,0.475 0 1,1 -0.95,0z" transform="matrix(1,0,0,-1,63.8437425,34.5029873)" fill="rgb(255,255,255)" stroke="rgb(0,0,0)" stroke-width="0.0010cm" stroke-linecap="round" stroke-linejoin="round" /><path d="M-28.4854092,32.9029873 a0.475,0.475 0 1,1 0.95,0 a0.475,0.475 0 1,1 -0.95,0z" transform="matrix(1,0,0,-1,63.8437425,34.5029873)" fill="rgb(255,255,255)" stroke="rgb(0,0,0)" stroke-width="0.0010cm" stroke-linecap="round" stroke-linejoin="round" /><path d="M11.8479241,32.9029873 a0.475,0.475 0 1,1 0.95,0 a0.475,0.475 0 1,1 -0.95,0z" transform="matrix(1,0,0,-1,63.8437425,34.5029873)" fill="rgb(255,255,255)" stroke="rgb(0,0,0)" stroke-width="0.0010cm" stroke-linecap="round" stroke-linejoin="round" /><path d="M52.1812575,32.9029873 a0.475,0.475 0 1,1 0.95,0 a0.475,0.475 0 1,1 -0.95,0z" transform="matrix(1,0,0,-1,63.8437425,34.5029873)" fill="rgb(255,255,255)" stroke="rgb(0,0,0)" stroke-width="0.0010cm" stroke-linecap="round" stroke-linejoin="round" /><path d="M20.3479241,32.9029873 a0.475,0.475 0 1,1 0.95,0 a0.475,0.475 0 1,1 -0.95,0z" transform="matrix(1,0,0,-1,63.8437425,34.5029873)" fill="rgb(255,255,255)" stroke="rgb(0,0,0)" stroke-width="0.0010cm" stroke-linecap="round" stroke-linejoin="round" /><path d="M-19.9854092,32.9029873 a0.475,0.475 0 1,1 0.95,0 a0.475,0.475 0 1,1 -0.95,0z" transform="matrix(1,0,0,-1,63.8437425,34.5029873)" fill="rgb(255,255,255)" stroke="rgb(0,0,0)" stroke-width="0.0010cm" stroke-linecap="round" stroke-linejoin="round" /><path d="M-60.3187425,32.9029873 a0.475,0.475 0 1,1 0.95,0 a0.475,0.475 0 1,1 -0.95,0z" transform="matrix(1,0,0,-1,63.8437425,34.5029873)" fill="rgb(255,255,255)" stroke="rgb(0,0,0)" stroke-width="0.0010cm" stroke-linecap="round" stroke-linejoin="round" /><path d="M-28.4854092,0.1029873 a0.475,0.475 0 1,1 0.95,0 a0.475,0.475 0 1,1 -0.95,0z" transform="matrix(1,0,0,-1,63.8437425,34.5029873)" fill="rgb(255,255,255)" stroke="rgb(0,0,0)" stroke-width="0.0010cm" stroke-linecap="round" stroke-linejoin="round" /><path d="M11.8479241,0.1029873 a0.475,0.475 0 1,1 0.95,0 a0.475,0.475 0 1,1 -0.95,0z" transform="matrix(1,0,0,-1,63.8437425,34.5029873)" fill="rgb(255,255,255)" stroke="rgb(0,0,0)" stroke-width="0.0010cm" stroke-linecap="round" stroke-linejoin="round" /><path d="M52.1812575,0.1029873 a0.475,0.475 0 1,1 0.95,0 a0.475,0.475 0 1,1 -0.95,0z" transform="matrix(1,0,0,-1,63.8437425,34.5029873)" fill="rgb(255,255,255)" stroke="rgb(0,0,0)" stroke-width="0.0010cm" stroke-linecap="round" stroke-linejoin="round" /><path d="M-61.7387425,1.0029873 a0.395,0.395 0 1,1 0.79,0 a0.395,0.395 0 1,1 -0.79,0z" transform="matrix(1,0,0,-1,63.8437425,34.5029873)" fill="rgb(255,255,255)" stroke="rgb(0,0,0)" stroke-width="0.0010cm" stroke-linecap="round" stroke-linejoin="round" /><path d="M-23.9054092,1.0029873 a0.395,0.395 0 1,1 0.79,0 a0.395,0.395 0 1,1 -0.79,0z" transform="matrix(1,0,0,-1,63.8437425,34.5029873)" fill="rgb(255,255,255)" stroke="rgb(0,0,0)" stroke-width="0.0010cm" stroke-linecap="round" stroke-linejoin="round" /><path d="M-23.9054092,32.0029873 a0.395,0.395 0 1,1 0.79,0 a0.395,0.395 0 1,1 -0.79,0z" transform="matrix(1,0,0,-1,63.8437425,34.5029873)" fill="rgb(255,255,255)" stroke="rgb(0,0,0)" stroke-width="0.0010cm" stroke-linecap="round" stroke-linejoin="round" /><path d="M54.2612575,1.0029873 a0.395,0.395 0 1,1 0.79,0 a0.395,0.395 0 1,1 -0.79,0z" transform="matrix(1,0,0,-1,63.8437425,34.5029873)" fill="rgb(255,255,255)" stroke="rgb(0,0,0)" stroke-width="0.0010cm" stroke-linecap="round" stroke-linejoin="round" /><path d="M16.4279241,32.0029873 a0.395,0.395 0 1,1 0.79,0 a0.395,0.395 0 1,1 -0.79,0z" transform="matrix(1,0,0,-1,63.8437425,34.5029873)" fill="rgb(255,255,255)" stroke="rgb(0,0,0)" stroke-width="0.0010cm" stroke-linecap="round" stroke-linejoin="round" /><path d="M-61.7387425,32.0029873 a0.395,0.395 0 1,1 0.79,0 a0.395,0.395 0 1,1 -0.79,0z" transform="matrix(1,0,0,-1,63.8437425,34.5029873)" fill="rgb(255,255,255)" stroke="rgb(0,0,0)" stroke-width="0.0010cm" stroke-linecap="round" stroke-linejoin="round" /><path d="M16.4279241,1.0029873 a0.395,0.395 0 1,1 0.79,0 a0.395,0.395 0 1,1 -0.79,0z" transform="matrix(1,0,0,-1,63.8437425,34.5029873)" fill="rgb(255,255,255)" stroke="rgb(0,0,0)" stroke-width="0.0010cm" stroke-linecap="round" stroke-linejoin="round" /><path d="M54.2612575,32.0029873 a0.395,0.395 0 1,1 0.79,0 a0.395,0.395 0 1,1 -0.79,0z" transform="matrix(1,0,0,-1,63.8437425,34.5029873)" fill="rgb(255,255,255)" stroke="rgb(0,0,0)" stroke-width="0.0010cm" stroke-linecap="round" stroke-linejoin="round" /></svg>