<?xml version="1.0" encoding="UTF-8" standalone="no"?>
<!-- Generator: Fusion 360, Shaper Origin Export Add-In, Version 1.8.0  -->

<svg
   shaper:fusionaddin="version:1.8.0"
   width="128cm"
   height="36cm"
   version="1.1"
   x="0cm"
   y="0cm"
   viewBox="0 0 128 36"
   enable-background="new 0 0 128 36"
   xml:space="preserve"
   id="svg16905"
   sodipodi:docname="corpus_3_Faces.svg"
   inkscape:version="1.2.2 (732a01da63, 2022-12-09)"
   xmlns:inkscape="http://www.inkscape.org/namespaces/inkscape"
   xmlns:sodipodi="http://sodipodi.sourceforge.net/DTD/sodipodi-0.dtd"
   xmlns="http://www.w3.org/2000/svg"
   xmlns:svg="http://www.w3.org/2000/svg"
   xmlns:shaper="http://www.shapertools.com/namespaces/shaper"><defs
     id="defs16909" /><sodipodi:namedview
     id="namedview16907"
     pagecolor="#505050"
     bordercolor="#eeeeee"
     borderopacity="1"
     inkscape:showpageshadow="0"
     inkscape:pageopacity="0"
     inkscape:pagecheckerboard="0"
     inkscape:deskcolor="#505050"
     inkscape:document-units="cm"
     showgrid="false"
     inkscape:zoom="0.27078451"
     inkscape:cx="2306.2619"
     inkscape:cy="681.35361"
     inkscape:window-width="1920"
     inkscape:window-height="991"
     inkscape:window-x="-9"
     inkscape:window-y="-9"
     inkscape:window-maximized="1"
     inkscape:current-layer="svg16905" /><g
     id="g17038"
     style="fill:none;stroke:#000000;stroke-opacity:1;stroke-width:0.1;stroke-dasharray:none"><path
       d="M-62.8695641,35.6254109 A1.4,1.4 90 0,1 -64.2695641,34.2254109 L-64.2695641,1.0254109 A1.4,1.4 180 0,1 -62.8695641,-0.3745891 L62.3304359,-0.3745891 A1.4,1.4 270 0,1 63.7304359,1.0254109 L63.7304359,6.8254109 63.4304359,6.8254109 63.4304359,8.8254109 62.6304359,8.8254109 62.6304359,6.8254109 46.7304359,6.8254109 A3,3 270 0,0 43.7304359,9.8254109 L43.7304359,25.4254109 A3,3 180 0,0 46.7304359,28.4254109 L62.6304359,28.4254109 62.6304359,26.4254109 63.4304359,26.4254109 63.4304359,28.4254109 63.7304359,28.4254109 63.7304359,34.2254109 A1.4,1.4 0 0,1 62.3304359,35.6254109 L-62.8695641,35.6254109z"
       transform="matrix(1,0,0,-1,64.2695641,35.6254109)"
       fill="rgb(0,0,0)"
       stroke-linecap="round"
       stroke-linejoin="round"
       id="path16885"
       style="fill:none;stroke:#000000;stroke-opacity:1;stroke-width:0.1;stroke-dasharray:none" /><path
       d="M20.6537692,2.1254109 a0.41,0.41 0 1,1 0.82,0 a0.41,0.41 0 1,1 -0.82,0z"
       transform="matrix(1,0,0,-1,64.2695641,35.6254109)"
       fill="rgb(255,255,255)"
       stroke="rgb(0,0,0)"
       stroke-width="0.0010cm"
       stroke-linecap="round"
       stroke-linejoin="round"
       id="path16887"
       style="fill:none;stroke:#000000;stroke-opacity:1;stroke-width:0.1;stroke-dasharray:none" /><path
       d="M-62.1795641,2.1254109 a0.41,0.41 0 1,1 0.82,0 a0.41,0.41 0 1,1 -0.82,0z"
       transform="matrix(1,0,0,-1,64.2695641,35.6254109)"
       fill="rgb(255,255,255)"
       stroke="rgb(0,0,0)"
       stroke-width="0.0010cm"
       stroke-linecap="round"
       stroke-linejoin="round"
       id="path16889"
       style="fill:none;stroke:#000000;stroke-opacity:1;stroke-width:0.1;stroke-dasharray:none" /><path
       d="M-62.1795641,33.1254109 a0.41,0.41 0 1,1 0.82,0 a0.41,0.41 0 1,1 -0.82,0z"
       transform="matrix(1,0,0,-1,64.2695641,35.6254109)"
       fill="rgb(255,255,255)"
       stroke="rgb(0,0,0)"
       stroke-width="0.0010cm"
       stroke-linecap="round"
       stroke-linejoin="round"
       id="path16891"
       style="fill:none;stroke:#000000;stroke-opacity:1;stroke-width:0.1;stroke-dasharray:none" /><path
       d="M60.8204359,2.1254109 a0.41,0.41 0 1,1 0.82,0 a0.41,0.41 0 1,1 -0.82,0z"
       transform="matrix(1,0,0,-1,64.2695641,35.6254109)"
       fill="rgb(255,255,255)"
       stroke="rgb(0,0,0)"
       stroke-width="0.0010cm"
       stroke-linecap="round"
       stroke-linejoin="round"
       id="path16893"
       style="fill:none;stroke:#000000;stroke-opacity:1;stroke-width:0.1;stroke-dasharray:none" /><path
       d="M-22.0128974,2.1254109 a0.41,0.41 0 1,1 0.82,0 a0.41,0.41 0 1,1 -0.82,0z"
       transform="matrix(1,0,0,-1,64.2695641,35.6254109)"
       fill="rgb(255,255,255)"
       stroke="rgb(0,0,0)"
       stroke-width="0.0010cm"
       stroke-linecap="round"
       stroke-linejoin="round"
       id="path16895"
       style="fill:none;stroke:#000000;stroke-opacity:1;stroke-width:0.1;stroke-dasharray:none" /><path
       d="M-22.0128974,33.1254109 a0.41,0.41 0 1,1 0.82,0 a0.41,0.41 0 1,1 -0.82,0z"
       transform="matrix(1,0,0,-1,64.2695641,35.6254109)"
       fill="rgb(255,255,255)"
       stroke="rgb(0,0,0)"
       stroke-width="0.0010cm"
       stroke-linecap="round"
       stroke-linejoin="round"
       id="path16897"
       style="fill:none;stroke:#000000;stroke-opacity:1;stroke-width:0.1;stroke-dasharray:none" /><path
       d="M20.6537692,33.1254109 a0.41,0.41 0 1,1 0.82,0 a0.41,0.41 0 1,1 -0.82,0z"
       transform="matrix(1,0,0,-1,64.2695641,35.6254109)"
       fill="rgb(255,255,255)"
       stroke="rgb(0,0,0)"
       stroke-width="0.0010cm"
       stroke-linecap="round"
       stroke-linejoin="round"
       id="path16899"
       style="fill:none;stroke:#000000;stroke-opacity:1;stroke-width:0.1;stroke-dasharray:none" /><path
       d="M60.8204359,33.1254109 a0.41,0.41 0 1,1 0.82,0 a0.41,0.41 0 1,1 -0.82,0z"
       transform="matrix(1,0,0,-1,64.2695641,35.6254109)"
       fill="rgb(255,255,255)"
       stroke="rgb(0,0,0)"
       stroke-width="0.0010cm"
       stroke-linecap="round"
       stroke-linejoin="round"
       id="path16901"
       style="fill:none;stroke:#000000;stroke-opacity:1;stroke-width:0.1;stroke-dasharray:none" /><path
       d="M-23.9216885,34.8571351 L-23.9216885,34.8571351 -23.8819374,34.8312288 -23.8437109,34.8036103 -23.807043,34.774378 -23.7718756,34.7435736 -23.7381506,34.7112385 -23.70581,34.6774143 -23.6747956,34.6421426 -23.6450494,34.605465 -23.6165207,34.5674336 -23.5892008,34.5281683 -23.5630365,34.4877377 -23.5379647,34.446197 -23.5139222,34.4036013 -23.4908458,34.3600057 -23.4686725,34.3154653 -23.4473389,34.2700352 -23.4267819,34.2237707 -23.4069384,34.1767267 -23.3877452,34.1289584 -23.3691356,34.080509 -23.3510406,34.0314077 -23.3333992,33.9817061 -23.2992335,33.8807118 -23.2661516,33.7779452 -23.2336666,33.6738259 -23.2012917,33.568773 -23.16854,33.4632059 -23.1349247,33.3575439 -23.0999589,33.2522065 -23.0631558,33.1476128 -23.0439131,33.0957259 -23.0240284,33.0441822 -23.003441,32.9930341 -22.9820898,32.9423334 -22.9599068,32.8921075 -22.9368253,32.8423897 -22.9127815,32.7932243 -22.8877115,32.7446553 -22.8615516,32.6967269 -22.8342379,32.6494832 -22.8057067,32.6029684 -22.775894,32.5572265 -22.7447362,32.5123019 -22.7121693,32.4682385 -22.6781406,32.4250941 -22.6429138,32.3832848 -22.606609,32.3429695 -22.5692052,32.3041211 -22.5306816,32.2667123 -22.491017,32.2307161 -22.4501906,32.1961051 -22.4081815,32.1628523 -22.3649685,32.1309305 -22.3205308,32.1003125 -22.2748475,32.0709711 -22.2278974,32.0428791 A1.25,1.25 240 0,1 -20.9778974,32.0428791 L-20.9778974,32.0428791 -20.9307348,32.0712456 -20.8850217,32.1010362 -20.8407149,32.1322565 -20.7977712,32.1649118 -20.7561474,32.1990074 -20.7158003,32.2345488 -20.6766867,32.2715413 -20.6387633,32.3099904 -20.6019871,32.3499013 -20.5663146,32.3912796 -20.5317038,32.4341293 -20.4982788,32.4782267 -20.4661075,32.5233713 -20.4351306,32.5695154 -20.4052883,32.6166116 -20.3765211,32.6646125 -20.3487694,32.7134706 -20.3219737,32.7631383 -20.2960744,32.8135683 -20.2710118,32.8647131 -20.2467265,32.9165252 -20.2231588,32.9689571 -20.2002492,33.0219613 -20.177939,33.075488 -20.156187,33.1294451 -20.1349419,33.1837585 -20.0937448,33.2932118 -20.0538917,33.4033627 -20.0149267,33.5137263 -19.9763937,33.6238175 -19.9378368,33.7331512 -19.8987999,33.8412426 -19.8588271,33.9476064 -19.8383472,33.9999889 -19.8174624,34.0517576 -19.7961155,34.102852 -19.7742497,34.1532113 -19.7518078,34.202775 -19.728733,34.2514824 -19.7049682,34.2992729 -19.6804559,34.3460872 -19.6551333,34.3918774 -19.6289395,34.436585 -19.6018147,34.4801486 -19.5736991,34.5225065 -19.5445329,34.5635973 -19.5142561,34.6033593 -19.482809,34.6417312 -19.4501317,34.6786513 -19.4161644,34.7140581 -19.3808472,34.7478901 -19.3441203,34.7800857 -19.3061023,34.810446 -19.2669437,34.8388013 -19.2266117,34.8651524 -19.1850731,34.8895001 -19.142295,34.9118452 -19.142295,34.9118452 -18.0313286,34.9202722 -17.4763876,34.9239574 -16.922142,34.9273054 -15.8157978,34.9330394 -15.2618533,34.9354562 -14.7072043,34.9375858 -13.5966236,34.9410141 -12.4857163,34.9433863 -11.3761429,34.9447643 -10.8223754,34.9450998 -10.2695641,34.9452099 -10.2695641,34.9452099 -9.2731304,34.9447063 -8.2757765,34.9431347 -7.2782321,34.940404 -6.281227,34.9364229 -5.2854909,34.9311003 -4.7883268,34.9279074 -4.2917535,34.924345 -3.7958624,34.9204016 -3.3007447,34.9160658 -2.8064915,34.9113262 -2.3131941,34.9061714 -1.8209437,34.9005901 -1.3298315,34.8945708 -0.8399487,34.8881022 -0.3513866,34.8811728 0.1357637,34.8737712 0.6214109,34.8658861 1.1054638,34.857506 1.5878311,34.8486196 2.0684218,34.8392154 2.5471444,34.829282 3.0239079,34.8188081 3.498621,34.8077822 3.9711925,34.796193 4.4415312,34.7840291 4.6758347,34.777728 4.9095458,34.771279 5.1426531,34.7646806 5.3751452,34.7579314 5.6070107,34.7510299 5.8382381,34.7439748 6.0688161,34.7367646 6.2987333,34.7293979 6.5279782,34.7218733 6.7565396,34.7141892 6.9844059,34.7063445 7.2115657,34.6983375 7.4380077,34.6901668 7.6637205,34.6818312 7.8886927,34.673329 8.1129128,34.6646589 8.3363694,34.6558195 8.5590512,34.6468093 8.7809468,34.637627 9.0020447,34.628271 9.2223335,34.61874 9.4418019,34.6090326 9.6604384,34.5991473 9.8782317,34.5890826 10.0951703,34.5788373 10.3112428,34.5684098 10.5264379,34.5577987 10.7407441,34.5470026 10.95415,34.53602 11.1666443,34.5248496 11.3782154,34.51349 11.5888948,34.5019375 11.7997104,34.4901393 12.0110882,34.4780684 12.4354403,34.4530872 12.8617714,34.42695 13.289902,34.3996133 13.7196525,34.3710332 14.1508432,34.3411662 14.5832947,34.3099685 15.0168272,34.2773964 15.4512611,34.2434063 15.886417,34.2079543 16.3221152,34.1709969 16.758176,34.1324903 17.1944199,34.0923908 17.6306673,34.0506547 18.0667386,34.0072383 18.5024542,33.962098 18.9376345,33.9151899 19.3720999,33.8664705 19.3720999,33.8664705 19.3926211,33.802815 19.4128612,33.7386162 19.4529706,33.6089694 19.4933732,33.4782915 19.5350138,33.3473437 19.5565938,33.2820064 19.5788376,33.2168872 19.6018635,33.1520811 19.6257895,33.0876832 19.6507337,33.0237889 19.6768144,32.9604931 19.7041495,32.8978911 19.7328495,32.8360938 19.7630205,32.775214 19.7947833,32.7153288 19.8282592,32.6565147 19.8635696,32.5988482 19.9008356,32.5424058 19.9202399,32.5146676 19.9401786,32.4872641 19.9606668,32.4602049 19.9817197,32.4334995 20.0033523,32.4071577 20.0254777,32.3813059 20.0480165,32.356042 20.0709734,32.3313589 20.0943526,32.3072497 20.1181589,32.2837075 20.1423965,32.2607251 20.1670701,32.2382957 20.1921841,32.2164123 20.2177429,32.1950678 20.2437512,32.1742554 20.2702134,32.153968 20.2971339,32.1341987 20.3245173,32.1149405 20.352368,32.0961864 20.3806906,32.0779295 20.4094895,32.0601627 20.4387692,32.0428791 A1.25,1.25 240 0,1 21.6887692,32.0428791 L21.6887692,32.0428791 21.7338355,32.0699351 21.7775783,32.0982894 21.8200353,32.1279468 21.8612441,32.1589119 21.9012422,32.1911895 21.9400674,32.2247842 21.9777573,32.2597008 22.0143494,32.2959438 22.0498814,32.3335181 22.084391,32.3724282 22.1179156,32.4126789 22.1504502,32.4542182 22.1818379,32.4967677 22.2121048,32.540254 22.2413029,32.5846359 22.2694838,32.6298718 22.2966997,32.6759206 22.3230022,32.7227408 22.3484433,32.7702912 22.3730748,32.8185305 22.3969487,32.8674172 22.4201168,32.9169102 22.4426309,32.9669679 22.4645429,33.0175492 22.4859045,33.0686119 22.5067522,33.1200786 22.5470825,33.2239629 22.5859237,33.3287631 22.6236732,33.4340566 22.6236732,33.4340566 22.8740446,33.3951861 23.1254694,33.3552534 23.3778674,33.3142395 23.6311582,33.2721257 23.8852615,33.2288932 24.140097,33.1845234 24.3955844,33.1389974 24.6516433,33.0922965 24.9081935,33.044402 25.1651547,32.995295 25.4224465,32.9449568 25.6799886,32.8933688 25.9377007,32.840512 26.1955025,32.7863677 26.4533137,32.7309173 26.711054,32.6741419 26.968643,32.6160228 27.2260005,32.5565412 27.4830462,32.4956784 27.7396996,32.4334156 27.9958806,32.3697341 28.2515087,32.3046151 28.5065037,32.2380398 28.7607853,32.1699895 29.0142732,32.1004455 29.266887,32.0293889 29.5185465,31.9568011 29.7691713,31.8826632 30.018681,31.8069566 30.2669955,31.7296624 30.5140344,31.6507619 30.7597173,31.5702363 31.003964,31.4880669 31.2466941,31.404235 31.4878274,31.3187217 31.6077701,31.2753287 31.7272835,31.2315084 31.8463575,31.1872583 31.9649821,31.1425762 32.0831473,31.0974597 32.2008429,31.0519064 32.3180591,31.0059141 32.4347856,30.9594803 32.5510126,30.9126027 32.6667299,30.865279 32.7819275,30.8175069 32.8965954,30.769284 33.0107236,30.7206078 33.1243019,30.6714762 33.2373204,30.6218868 33.349769,30.5718372 33.4616377,30.521325 33.5729164,30.4703479 33.6835952,30.4189037 33.7936638,30.3669898 33.9031125,30.3146041 34.011931,30.2617441 34.1201093,30.2084075 34.2276375,30.154592 34.3345054,30.1002951 34.4407031,30.0455147 34.5462204,29.9902482 34.6510474,29.9344935 34.755174,29.878248 34.8585902,29.8215096 34.9612859,29.7642758 35.0632206,29.7065619 35.1639822,29.6486016 35.2634518,29.5904695 35.3616399,29.5321672 35.4585565,29.4736959 35.5542119,29.4150573 35.6486163,29.3562528 35.74178,29.2972839 35.8337132,29.238152 35.924426,29.1788586 36.0139288,29.1194052 36.1022318,29.0597932 36.1893451,29.0000242 36.2752791,28.9400995 36.3600439,28.8800207 36.4436497,28.8197892 36.5261069,28.7594065 36.6074255,28.698874 36.6876159,28.6381933 36.7666883,28.5773658 36.8446529,28.516393 36.9215199,28.4552763 36.9972995,28.3940172 37.072002,28.3326172 37.1456377,28.2710777 37.2182166,28.2094003 37.2897491,28.1475863 37.3602454,28.0856373 37.4297157,28.0235548 37.4981702,27.9613401 37.5656192,27.8989948 37.6320729,27.8365203 37.6975415,27.7739182 37.7620353,27.7111898 37.8255644,27.6483366 37.8881391,27.5853602 37.9497696,27.5222619 38.0104662,27.4590433 38.070239,27.3957059 38.1290984,27.332251 38.1870545,27.2686802 38.2441175,27.2049949 38.3002977,27.1411966 38.3556053,27.0772868 38.4100506,27.0132669 38.4636437,26.9491384 38.5163954,26.8849022 38.5683961,26.8204549 38.6197101,26.7557199 38.6703416,26.6906958 38.7202948,26.6253817 38.7695739,26.5597762 38.8181831,26.4938784 38.8661265,26.4276869 38.9134084,26.3612008 38.9600329,26.2944187 39.0060042,26.2273395 39.0513265,26.1599622 39.0960039,26.0922855 39.1400407,26.0243083 39.183441,25.9560294 39.2262091,25.8874477 39.2683491,25.818562 39.3098651,25.7493711 39.3507615,25.679874 39.3910423,25.6100694 39.4307117,25.5399562 39.4697739,25.4695333 39.5082332,25.3987994 39.5460937,25.3277535 39.5833595,25.2563944 39.6200349,25.1847209 39.6561241,25.1127318 39.6916311,25.040426 39.7265603,24.9678025 39.7609158,24.8948599 39.7947018,24.8215971 39.8279224,24.7480131 39.8605819,24.6741065 39.8926844,24.5998764 39.9242341,24.5253215 39.9552352,24.4504406 39.9856919,24.3752327 40.0156084,24.2996965 40.0449888,24.223831 40.0738374,24.1476349 40.1021582,24.071107 40.1299556,23.9942464 40.1572337,23.9170517 40.1839966,23.8395218 40.2102486,23.7616556 40.2359939,23.6834519 40.2612365,23.6049096 40.2859808,23.5260275 40.3102388,23.4467789 40.334049,23.3670487 40.3574171,23.286819 40.3803445,23.2060854 40.4028327,23.1248433 40.424883,23.0430884 40.446497,22.9608162 40.4676759,22.878022 40.4884214,22.7947015 40.5087348,22.7108502 40.5286175,22.6264635 40.548071,22.5415371 40.5670967,22.4560663 40.5856961,22.3700467 40.6038706,22.2834738 40.6216216,22.1963432 40.6389505,22.1086504 40.6558588,22.0203907 40.672348,21.9315599 40.6884194,21.8421534 40.7040745,21.7521666 40.7193147,21.6615951 40.7341415,21.5704345 40.7485563,21.4786802 40.7625605,21.3863278 40.7761556,21.2933727 40.789343,21.1998104 40.8021241,21.1056366 40.8145004,21.0108466 40.8264733,20.9154361 40.8380442,20.8194005 40.8492146,20.7227353 40.8599859,20.6254361 40.8703595,20.5274983 40.8803369,20.4289174 40.8899195,20.3296891 40.8991088,20.2298088 40.9079061,20.1292719 40.916313,20.0280741 40.9243308,19.9262108 40.9319609,19.8236776 40.9392049,19.7204699 40.9460642,19.6165833 40.9525401,19.5120132 40.9586341,19.4067553 40.9643477,19.300805 40.9696823,19.1941577 40.9746393,19.0868091 40.9792201,18.9787547 40.9834262,18.8699899 40.9872591,18.7605103 40.9907201,18.6503113 40.9938107,18.5393885 40.9965324,18.4277375 40.9988865,18.3153537 41.0008745,18.2022325 41.0024978,18.0883697 41.0037579,17.9737606 41.0046562,17.8584007 41.0051941,17.7422857 41.0053731,17.6254109 41.0053731,17.6254109 41.0051836,17.5051596 41.0046139,17.3856908 41.0036622,17.267 41.0023267,17.1490826 41.0006057,17.0319341 40.9984974,16.9155502 40.9959999,16.7999262 40.9931115,16.6850578 40.9898304,16.5709404 40.9861548,16.4575695 40.9820829,16.3449407 40.977613,16.2330494 40.9727433,16.1218912 40.9674719,16.0114617 40.9617971,15.9017562 40.9557171,15.7927704 40.9492301,15.6844997 40.9423343,15.5769396 40.935028,15.4700858 40.9273094,15.3639336 40.9191766,15.2584786 40.9106279,15.1537163 40.9016615,15.0496423 40.8922756,14.946252 40.8824684,14.8435409 40.8722382,14.7415046 40.8615831,14.6401386 40.8505014,14.5394384 40.8389912,14.4393996 40.8270509,14.3400175 40.8146786,14.2412878 40.8018725,14.1432059 40.7886309,14.0457675 40.7749519,13.9489679 40.7608337,13.8528027 40.7462747,13.7572674 40.7312729,13.6623575 40.7158267,13.5680686 40.6999342,13.4743961 40.6835936,13.3813357 40.6668032,13.2888827 40.6495611,13.1970327 40.6318656,13.1057812 40.6137149,13.0151237 40.5951073,12.9250558 40.5760408,12.8355729 40.5565138,12.7466707 40.5365244,12.6583445 40.5160709,12.5705899 40.4951515,12.4834024 40.4737644,12.3967775 40.4519078,12.3107108 40.4295799,12.2251978 40.4067789,12.1402339 40.3835031,12.0558147 40.3597507,11.9719357 40.3355198,11.8885924 40.3108087,11.8057804 40.2856156,11.7234951 40.2599388,11.641732 40.2337764,11.5604868 40.2071266,11.4797548 40.1799877,11.3995316 40.1523579,11.3198127 40.1242354,11.2405937 40.0956184,11.16187 40.0665051,11.0836372 40.0368841,11.0058676 40.006738,10.9285218 39.9760638,10.8515966 39.9448586,10.7750894 39.9131194,10.6989978 39.8808435,10.623319 39.8480279,10.5480507 39.8146699,10.4731901 39.7807664,10.3987347 39.7463148,10.324682 39.711312,10.2510294 39.6757553,10.1777742 39.6396417,10.104914 39.6029684,10.0324461 39.5657325,9.960368 39.5279312,9.8886771 39.4895616,9.8173708 39.4506208,9.7464466 39.4111059,9.6759019 39.3710141,9.6057341 39.3303426,9.5359406 39.2890884,9.4665189 39.2472487,9.3974664 39.2048205,9.3287805 39.1618012,9.2604587 39.1181877,9.1924983 39.0739772,9.1248969 39.0291669,9.0576518 38.9837538,8.9907604 38.9377352,8.9242203 38.891108,8.8580287 38.8438696,8.7921832 38.796017,8.7266812 38.7475473,8.6615201 38.6984576,8.5966973 38.6487452,8.5322102 38.5984071,8.4680564 38.5474404,8.4042331 38.4958424,8.3407379 38.4436101,8.2775681 38.3907406,8.2147213 38.3372311,8.1521947 38.2830788,8.0899859 38.2282807,8.0280923 38.172834,7.9665112 38.1167359,7.9052402 38.0599109,7.8441978 38.0022099,7.7832294 37.9436181,7.7223329 37.8841247,7.6615099 37.8237184,7.6007622 37.7623883,7.5400917 37.7001234,7.4795002 37.6369125,7.4189893 37.5727447,7.358561 37.5076089,7.298217 37.441494,7.237959 37.3743891,7.177789 37.3062831,7.1177085 37.2371649,7.0577196 37.1670235,6.9978238 37.0958478,6.9380231 37.0236269,6.8783191 36.9503497,6.8187138 36.876005,6.7592088 36.800582,6.699806 36.7240696,6.6405071 36.6464566,6.581314 36.5677322,6.5222283 36.4878851,6.463252 36.4069045,6.4043868 36.3247792,6.3456345 36.2414982,6.2869968 36.1570505,6.2284756 36.071425,6.1700726 35.9846107,6.1117896 35.8965965,6.0536285 35.8073715,5.995591 35.7169245,5.9376788 35.6252445,5.8798938 35.5323205,5.8222378 35.4381415,5.7647125 35.3426963,5.7073197 35.2459741,5.6500613 35.1479636,5.592939 35.0486539,5.5359545 34.9480355,5.4791107 34.8464461,5.4226036 34.7441537,5.3665798 34.6411678,5.311037 34.5374982,5.2559728 34.4331545,5.2013851 34.3281463,5.1472715 34.2224833,5.0936298 34.1161751,5.0404578 34.0092314,4.9877531 33.9016618,4.9355136 33.793476,4.883737 33.6846836,4.8324209 33.5752942,4.7815632 33.4653175,4.7311616 33.3547631,4.6812138 33.2436407,4.6317175 33.1319599,4.5826706 33.0197304,4.5340707 32.9069618,4.4859156 32.7936638,4.438203 32.6798459,4.3909306 32.5655179,4.3440963 32.4506894,4.2976977 32.33537,4.2517325 32.2195694,4.2061986 32.1032972,4.1610937 31.986563,4.1164154 31.8693766,4.0721616 31.7517475,4.0283299 31.6336854,3.9849182 31.3963007,3.8993454 31.1572997,3.8154251 30.9167596,3.7331393 30.6747575,3.6524699 30.4313706,3.5733987 30.1866759,3.4959077 29.9407507,3.4199788 29.6936721,3.3455939 29.4455173,3.272735 29.1963634,3.2013839 28.9462875,3.1315226 28.6953669,3.063133 28.4436786,2.996197 28.1912998,2.9306964 27.9383077,2.8666134 27.6847795,2.8039296 27.4307922,2.7426272 27.176423,2.6826879 26.9217491,2.6240936 26.6668477,2.5668265 26.4117958,2.5108682 26.1566707,2.4562007 25.9015494,2.4028061 25.6465092,2.3506661 25.3916272,2.2997626 25.1369805,2.2500777 24.8826463,2.2015932 24.6287017,2.1542911 24.375224,2.1081531 24.1222902,2.0631614 23.8699775,2.0192977 23.618363,1.976544 23.367524,1.9348823 23.1175375,1.8942943 22.8684807,1.8547621 22.6204308,1.8162676 22.6204308,1.8162676 22.5870972,1.9200615 22.552338,2.0234311 22.5156754,2.1260185 22.4964811,2.1769071 22.4766317,2.2274659 22.4560676,2.2776504 22.4347291,2.3274157 22.4125563,2.3767172 22.3894896,2.42551 22.3654693,2.4737496 22.3404361,2.5213903 22.3143745,2.5683106 22.2872563,2.6144281 22.2590245,2.6597169 22.2296219,2.7041513 22.1989913,2.7477053 22.1670756,2.7903532 22.1338176,2.832069 22.0991602,2.8728271 22.063054,2.9125932 22.0257603,2.9510257 21.9874218,2.9879793 21.9480264,3.0234861 21.9075616,3.0575782 21.8660152,3.0902878 21.8233751,3.1216469 21.7796289,3.1516877 21.7347643,3.1804422 21.6887692,3.2079426 A1.25,1.25 60 0,1 20.4387692,3.2079426 L20.4387692,3.2079426 20.410205,3.1910387 20.3821723,3.1736194 20.3546615,3.1556838 20.3276632,3.1372306 20.3011681,3.1182587 20.2751668,3.0987668 20.2496497,3.0787539 20.2246074,3.0582186 20.2000307,3.0371599 20.1759099,3.0155766 20.1522357,2.9934675 20.1289988,2.9708315 20.1061895,2.9476672 20.0837986,2.9239737 20.0618166,2.8997497 20.0402341,2.874994 20.0190416,2.8497055 19.9982298,2.8238829 19.9778286,2.7975772 19.9578928,2.7708811 19.9193686,2.7163631 19.8825542,2.6604132 19.8473456,2.6031142 19.8136391,2.5445488 19.7813305,2.4847999 19.750316,2.4239503 19.7204916,2.3620828 19.6917535,2.2992803 19.6639975,2.2356255 19.6371217,2.1712054 19.6110498,2.1061718 19.5856909,2.0406494 19.5367137,1.9085606 19.4893933,1.7757831 19.4429327,1.6431609 19.396535,1.5115379 19.3731106,1.4463649 19.3494032,1.3817582 19.3494032,1.3817582 18.9152444,1.3331728 18.4803853,1.286394 18.0450051,1.2413783 17.609283,1.1980819 17.173398,1.1564613 16.7375294,1.1164728 16.3018563,1.0780729 15.8665579,1.0412178 15.4318133,1.005864 14.9978018,0.9719678 14.5647024,0.9394856 14.1326944,0.9083738 13.7019568,0.8785887 13.2726689,0.8500867 12.8450099,0.8228242 12.4191588,0.7967576 11.9952949,0.7718432 11.7841641,0.7598044 11.5735973,0.7480373 11.3630152,0.736508 11.1515111,0.7251694 10.9390863,0.7140199 10.7257522,0.7030578 10.5115202,0.6922818 10.2964017,0.6816905 10.0804082,0.6712825 9.863551,0.6610563 9.6458414,0.6510105 9.427291,0.6411437 9.2079111,0.6314544 8.987713,0.6219413 8.7667083,0.6126029 8.5449082,0.6034378 8.3223242,0.5944446 8.0989677,0.5856218 7.87485,0.576968 7.6499826,0.5684819 7.4243769,0.5601619 7.1980443,0.5520067 6.970996,0.5440148 6.7432437,0.5361849 6.5147986,0.5285154 6.2856721,0.521005 6.0558757,0.5136523 5.8254207,0.5064558 5.5943186,0.499414 5.3625807,0.4925257 5.1302184,0.4857893 4.8972431,0.4792035 4.6636663,0.4727668 4.4294992,0.4664777 3.9594402,0.454337 3.4871571,0.44277 3.0127413,0.4317653 2.5362837,0.4213116 2.0578757,0.4113974 1.5776084,0.4020113 1.0955729,0.3931421 0.6118604,0.3847783 0.1265622,0.3769085 -0.3602308,0.3695214 -0.8484272,0.3626055 -1.3379358,0.3561496 -1.8286657,0.3501421 -2.3205255,0.3445718 -2.8134241,0.3394273 -3.3072703,0.3346971 -3.801973,0.33037 -4.297441,0.3264344 -4.7935831,0.3228791 -5.2903081,0.3196927 -6.2851425,0.3143808 -7.2812146,0.3104078 -8.2777951,0.3076827 -9.2741547,0.3061144 -10.2695641,0.3056119 -10.2695641,0.3056119 -10.8249268,0.305723 -11.3812606,0.3060616 -11.9383549,0.3066356 -12.4959991,0.3074527 -13.6120943,0.309848 -14.727861,0.3133102 -15.2850947,0.3154611 -15.8416143,0.3179022 -16.953075,0.3236946 -17.5098918,0.3270773 -18.0674162,0.3308011 -19.1835701,0.3393176 -19.1835701,0.3393176 -19.2068173,0.3505904 -19.229838,0.3624925 -19.2524962,0.3749623 -19.2747084,0.3879519 -19.296482,0.4014588 -19.3178242,0.4154807 -19.3387423,0.4300152 -19.3592437,0.4450599 -19.3793355,0.4606125 -19.3990251,0.4766705 -19.4183197,0.4932316 -19.4372266,0.5102935 -19.4557531,0.5278537 -19.4739065,0.5459099 -19.4916941,0.5644596 -19.5091231,0.5835006 -19.5428473,0.6229438 -19.5748598,0.663825 -19.6052178,0.7059806 -19.6340017,0.7492714 -19.6612918,0.7935585 -19.6871685,0.8387026 -19.7117123,0.8845646 -19.7350034,0.9310054 -19.7571223,0.9778859 -19.7782068,1.0251996 -19.7985363,1.0733206 -19.8181952,1.1222333 -19.837249,1.1718817 -19.8557633,1.2222094 -19.8738036,1.2731605 -19.8914355,1.3246787 -19.9257361,1.4291917 -19.9591896,1.5352992 -19.9923202,1.6425517 -20.0256525,1.7505001 -20.0597107,1.8586949 -20.0950193,1.9666869 -20.1320792,2.0739628 -20.1514226,2.1271797 -20.1713982,2.1800544 -20.1920734,2.2325412 -20.2135159,2.2845941 -20.2357929,2.3361671 -20.2589719,2.3872142 -20.2831204,2.4376897 -20.3083059,2.4875475 -20.3345958,2.5367416 -20.3620576,2.5852262 -20.3907587,2.6329553 -20.4207665,2.679883 -20.452058,2.7258345 -20.484598,2.7706523 -20.518443,2.8143269 -20.5536493,2.8568484 -20.5902734,2.8982072 -20.6283716,2.9383936 -20.6679976,2.9773954 -20.7089111,3.0149401 -20.7509334,3.0508793 -20.7940707,3.0852545 -20.8383295,3.118107 -20.8837159,3.1494783 -20.9302365,3.1794097 -20.9778974,3.2079426 A1.25,1.25 60 0,1 -22.2278974,3.2079426 L-22.2278974,3.2079426 -22.2733482,3.1806467 -22.3174528,3.1520298 -22.3602499,3.122087 -22.401778,3.0908136 -22.4420758,3.0582047 -22.4811819,3.0242557 -22.5191348,2.9889615 -22.5559733,2.9523175 -22.5917359,2.9143188 -22.6264611,2.8749606 -22.6601877,2.8342381 -22.6928942,2.7922262 -22.7244289,2.7492039 -22.7548293,2.7052332 -22.7841485,2.6603565 -22.8124399,2.6146163 -22.8397566,2.568055 -22.866152,2.520715 -22.8916791,2.4726386 -22.9163913,2.4238684 -22.9403417,2.3744467 -22.9635837,2.3244159 -22.9861704,2.2738184 -23.0081551,2.2226967 -23.0295892,2.1710972 -23.0505085,2.1191061 -23.0909931,2.0141943 -23.1300124,1.908404 -23.1679739,1.8021682 -23.2423535,1.5900925 -23.2795868,1.4851187 -23.3173924,1.3814317 -23.3561779,1.2794646 -23.3760655,1.2292614 -23.396351,1.1796505 -23.4170851,1.1306861 -23.438319,1.0824224 -23.4601035,1.0349134 -23.4824896,0.9882133 -23.5055305,0.9423705 -23.529286,0.8974217 -23.5538101,0.8534215 -23.5791568,0.8104261 -23.6053797,0.7684916 -23.6325327,0.727674 -23.6606695,0.6880296 -23.6898438,0.6496143 -23.7201096,0.6124842 -23.7515204,0.5766956 -23.7841301,0.5423044 -23.8179924,0.5093668 -23.8530901,0.478001 -23.8893362,0.4483602 -23.9267684,0.420468 -23.9654274,0.3943456 -23.9654274,0.3943456 -24.3128229,0.3996933 -24.6579445,0.4052111 -25.0008038,0.4109006 -25.3414119,0.4167633 -25.6797803,0.4228006 -26.0159201,0.4290142 -26.3498428,0.4354054 -26.6815597,0.4419758 -27.011082,0.4487269 -27.3384212,0.4556601 -27.6635884,0.4627771 -27.9865951,0.4700793 -28.3074525,0.4775682 -28.626172,0.4852453 -28.9427649,0.4931121 -29.2572425,0.5011701 -29.5696161,0.5094209 -29.8798971,0.5178659 -30.1880967,0.5265066 -30.4942262,0.5353446 -30.7982971,0.5443813 -31.1003206,0.5536183 -31.400308,0.563057 -31.6982707,0.572699 -31.9942199,0.5825457 -32.288167,0.5925987 -32.5801233,0.6028595 -32.8701002,0.6133295 -33.1581088,0.6240103 -33.4441607,0.6349034 -33.728267,0.6460103 -34.0104391,0.6573325 -34.2906883,0.6688715 -34.5690259,0.6806288 -34.8454633,0.6926059 -35.1200117,0.7048043 -35.3926825,0.7172255 -35.663487,0.7298711 -35.9324366,0.7427425 -36.1995424,0.7558412 -36.4648159,0.7691687 -36.7282684,0.7827266 -36.9899112,0.7965163 -37.2497556,0.8105393 -37.5078129,0.8247973 -37.7640945,0.8392915 -38.0186116,0.8540237 -38.2713756,0.8689951 -38.5223978,0.8842075 -38.7716895,0.8996622 -39.019262,0.9153609 -39.2651267,0.9313049 -39.5092949,0.9474958 -39.7517779,0.963935 -39.9925869,0.9806242 -40.2317334,0.9975648 -40.4692286,1.0147583 -40.7050839,1.0322062 -40.9393105,1.04991 -41.1719199,1.0678712 -41.4029233,1.0860913 -41.6323319,1.1045719 -41.8601573,1.1233144 -42.0864106,1.1423204 -42.3111032,1.1615912 -42.5342464,1.1811286 -42.7558515,1.2009339 -42.9759299,1.2210086 -43.1944928,1.2413543 -43.4115516,1.2619724 -43.6271176,1.2828646 -43.841202,1.3040322 -44.0538164,1.3254768 -44.2649718,1.3471998 -44.4746798,1.3692029 -44.6829515,1.3914874 -44.8897983,1.4140549 -45.0952315,1.436907 -45.2992625,1.460045 -45.5019025,1.4834705 -45.7031629,1.5071851 -45.903055,1.5311902 -46.1015901,1.5554873 -46.2987796,1.5800779 -46.4946346,1.6049635 -46.6891667,1.6301457 -46.882387,1.655626 -47.0743069,1.6814057 -47.2649377,1.7074865 -47.4542908,1.7338699 -47.6423774,1.7605574 -47.8292089,1.7875504 -48.0147966,1.8148504 -48.1991518,1.8424591 -48.3822858,1.8703778 -48.5642099,1.8986081 -48.7449355,1.9271514 -48.9244739,1.9560094 -49.1028364,1.9851835 -49.2800343,2.0146751 -49.4560789,2.0444859 -49.6309816,2.0746172 -49.8047537,2.1050707 -49.977966,2.1359518 -50.1514267,2.1674176 -50.3251036,2.1994743 -50.4989564,2.2321265 -50.672945,2.2653788 -50.8470295,2.2992359 -51.0211697,2.3337025 -51.1953254,2.3687831 -51.3694566,2.4044825 -51.5435233,2.4408052 -51.7174853,2.477756 -51.8913025,2.5153395 -52.0649348,2.5535603 -52.2383422,2.5924231 -52.4114845,2.6319326 -52.5843216,2.6720933 -52.7568135,2.71291 -52.9289201,2.7543873 -53.1006012,2.7965298 -53.2718168,2.8393423 -53.4425268,2.8828292 -53.6126911,2.9269954 -53.7822695,2.9718454 -53.9512221,3.0173839 -54.1195086,3.0636155 -54.2870891,3.1105449 -54.4539234,3.1581768 -54.6199714,3.2065158 -54.7851931,3.2555665 -54.9495483,3.3053336 -55.1129969,3.3558217 -55.2754989,3.4070356 -55.4370141,3.4589798 -55.5975025,3.511659 -55.756924,3.5650778 -55.9152384,3.619241 -56.0724058,3.6741531 -56.2283859,3.7298187 -56.3831387,3.7862427 -56.5366241,3.8434295 -56.688802,3.9013839 -56.8396324,3.9601105 -56.989075,4.0196139 -57.1370899,4.0798989 -57.2836369,4.1409699 -57.428676,4.2028318 -57.572167,4.2654892 -57.7140699,4.3289466 -57.8543445,4.3932088 -57.9929508,4.4582804 -58.1298486,4.524166 -58.264998,4.5908704 -58.3983587,4.6583981 -58.5298907,4.7267538 -58.6595539,4.7959421 -58.7873082,4.8659678 -58.9131136,4.9368354 -59.0369298,5.0085496 -59.1587169,5.0811151 -59.2784086,5.154519 -59.3373083,5.1914352 -59.3955254,5.2284575 -59.4530648,5.2655869 -59.5099318,5.3028245 -59.5661314,5.3401713 -59.6216689,5.3776282 -59.6765492,5.4151962 -59.7307776,5.4528763 -59.7843591,5.4906694 -59.837299,5.5285767 -59.8896022,5.5665991 -59.941274,5.6047376 -59.9923194,5.6429931 -60.0427437,5.6813666 -60.0925518,5.7198592 -60.141749,5.7584719 -60.1903404,5.7972055 -60.2383311,5.8360612 -60.2857261,5.8750399 -60.3325308,5.9141426 -60.4243891,5.992724 -60.5139472,6.0718132 -60.601246,6.1514183 -60.6863264,6.2315471 -60.7692295,6.3122075 -60.8499964,6.3934076 -60.928668,6.4751552 -61.0052852,6.5574583 -61.0798892,6.6403247 -61.1525209,6.7237624 -61.2232214,6.8077794 -61.2920315,6.8923835 -61.3589924,6.9775828 -61.4242411,7.0635145 -61.4880352,7.1505046 -61.5504014,7.2385906 -61.611356,7.3277969 -61.6709157,7.4181479 -61.7290968,7.5096679 -61.7859158,7.6023815 -61.8413892,7.6963128 -61.8955334,7.7914864 -61.9483649,7.8879267 -61.9999003,7.9856579 -62.0501558,8.0847046 -62.0991481,8.185091 -62.1468935,8.2868417 -62.1934086,8.3899809 -62.2387098,8.494533 -62.2828136,8.6005226 -62.3257363,8.7079738 -62.3674946,8.8169112 -62.4081049,8.9273591 -62.4475836,9.0393419 -62.4859472,9.1528839 -62.5232121,9.2680097 -62.5593949,9.3847435 -62.594512,9.5031098 -62.6285799,9.6231329 -62.6616333,9.7449048 -62.6937642,9.8687527 -62.7249894,9.9947589 -62.7402646,10.0585867 -62.7553161,10.1229726 -62.7701447,10.1879225 -62.7847515,10.2534428 -62.7991371,10.3195394 -62.8133027,10.3862186 -62.8272491,10.4534865 -62.8409771,10.5213492 -62.8544877,10.5898129 -62.8677818,10.6588837 -62.8808603,10.7285678 -62.893724,10.7988712 -62.906374,10.8698002 -62.918811,10.9413608 -62.9310361,11.0135593 -62.94305,11.0864016 -62.9548537,11.1598941 -62.9664482,11.2340428 -62.9778342,11.3088538 -62.9890128,11.3843333 -62.9999847,11.4604875 -63.010751,11.5373225 -63.0213124,11.6148443 -63.03167,11.6930592 -63.0418246,11.7719733 -63.0517771,11.8515928 -63.0615285,11.9319237 -63.0710795,12.0129722 -63.0804312,12.0947444 -63.0895844,12.1772466 -63.09854,12.2604847 -63.107299,12.3444651 -63.1158622,12.4291937 -63.1242305,12.5146768 -63.1324048,12.6009205 -63.1403861,12.6879308 -63.1481753,12.7757141 -63.1557731,12.8642763 -63.1631807,12.9536237 -63.1703987,13.0437624 -63.1774282,13.1346984 -63.1842701,13.226438 -63.1909252,13.3189873 -63.1973944,13.4123525 -63.2036788,13.5065396 -63.209779,13.6015548 -63.2156962,13.6974043 -63.2214311,13.7940941 -63.2269846,13.8916305 -63.2323577,13.9900196 -63.2375513,14.0892674 -63.2425663,14.1893802 -63.2474035,14.2903641 -63.2520639,14.3922252 -63.2565484,14.4949696 -63.2608579,14.5986036 -63.2649932,14.7031331 -63.2689553,14.8085645 -63.2727451,14.9149038 -63.2763635,15.0221571 -63.2798114,15.1303306 -63.2830897,15.2394305 -63.2861992,15.3494628 -63.289141,15.4604337 -63.2919158,15.5723494 -63.2945247,15.6852159 -63.2969684,15.7990395 -63.2992479,15.9138263 -63.3013642,16.0295823 -63.3033181,16.1463138 -63.3051104,16.2640269 -63.3067422,16.3827277 -63.3082143,16.5024224 -63.3095276,16.623117 -63.310683,16.7448178 -63.3116814,16.8675309 -63.3125238,16.9912624 -63.313211,17.1160184 -63.3137439,17.2418051 -63.3141234,17.3686287 -63.3143504,17.4964952 -63.3144259,17.6254109 -63.3144259,17.6254109 -63.314302,17.7903602 -63.3139289,17.9536112 -63.3133046,18.1151764 -63.3124271,18.2750682 -63.3112943,18.4332991 -63.3099043,18.5898815 -63.308255,18.744828 -63.3063443,18.8981509 -63.3041703,19.0498627 -63.3017309,19.1999758 -63.2990242,19.3485028 -63.296048,19.4954561 -63.2928003,19.6408481 -63.2892792,19.7846913 -63.2854826,19.9269982 -63.2814085,20.0677811 -63.2770548,20.2070526 -63.2724196,20.3448251 -63.2675007,20.4811111 -63.2622963,20.615923 -63.2568042,20.7492733 -63.2510224,20.8811745 -63.244949,21.0116389 -63.2385818,21.1406791 -63.2319189,21.2683075 -63.2249583,21.3945366 -63.2176978,21.5193787 -63.2101355,21.6428465 -63.2022694,21.7649523 -63.1940974,21.8857086 -63.1856176,22.0051278 -63.1768278,22.1232224 -63.1677261,22.2400049 -63.1583104,22.3554876 -63.1485788,22.4696832 -63.1385291,22.582604 -63.1281594,22.6942624 -63.1174677,22.804671 -63.1064518,22.9138422 -63.0951099,23.0217884 -63.0834398,23.1285222 -63.0714396,23.2340559 -63.0591072,23.338402 -63.0464405,23.441573 -63.0334377,23.5435813 -63.0200966,23.6444394 -63.0064152,23.7441598 -62.9923915,23.8427548 -62.9780235,23.940237 -62.9633091,24.0366188 -62.9482463,24.1319127 -62.9328332,24.226131 -62.9170676,24.3192864 -62.9009475,24.4113912 -62.884471,24.5024579 -62.867636,24.5924989 -62.8504405,24.6815268 -62.8328824,24.7695539 -62.8149597,24.8565927 -62.7966705,24.9426556 -62.7780126,25.0277552 -62.7589841,25.1119039 -62.7395829,25.1951142 -62.719807,25.2773984 -62.6996543,25.358769 -62.679123,25.4392386 -62.6582108,25.5188195 -62.6369159,25.5975243 -62.6152362,25.6753653 -62.5931696,25.7523551 -62.5707141,25.828506 -62.5478678,25.9038306 -62.5246285,25.9783413 -62.5009943,26.0520505 -62.4769462,26.1250215 -62.4524431,26.1973759 -62.4274784,26.2691238 -62.4020468,26.3402712 -62.3761432,26.4108239 -62.3497623,26.4807879 -62.3228989,26.5501691 -62.2955477,26.6189733 -62.2677037,26.6872064 -62.2393615,26.7548744 -62.210516,26.8219832 -62.1811619,26.8885386 -62.151294,26.9545466 -62.1209071,27.020013 -62.089996,27.0849438 -62.0585554,27.1493448 -62.0265802,27.213222 -61.9940652,27.2765813 -61.961005,27.3394285 -61.9273946,27.4017695 -61.8932286,27.4636104 -61.8585019,27.5249568 -61.8232093,27.5858149 -61.7873455,27.6461904 -61.7509053,27.7060892 -61.7138835,27.7655173 -61.6762749,27.8244806 -61.6380743,27.8829849 -61.5992764,27.9410362 -61.5598761,27.9986403 -61.5198681,28.0558032 -61.4792473,28.1125308 -61.4380083,28.1688289 -61.396146,28.2247035 -61.3536551,28.2801604 -61.3105305,28.3352056 -61.2667669,28.389845 -61.2223592,28.4440844 -61.177302,28.4979298 -61.1315902,28.551387 -61.0851465,28.6045433 -61.0378719,28.6575019 -60.989754,28.7102647 -60.9407802,28.7628331 -60.8909382,28.8152086 -60.8402153,28.8673928 -60.7885993,28.9193871 -60.7360776,28.9711932 -60.6826379,29.0228124 -60.6282676,29.0742463 -60.5729544,29.1254964 -60.5166857,29.1765643 -60.4594492,29.2274514 -60.4012323,29.2781592 -60.3420227,29.3286892 -60.2818079,29.3790431 -60.2205755,29.4292221 -60.158313,29.479228 -60.0950079,29.5290622 -60.0306479,29.5787261 -59.9652204,29.6282214 -59.898713,29.6775495 -59.8311134,29.7267119 -59.762409,29.7757102 -59.6925874,29.8245458 -59.6216361,29.8732203 -59.5495427,29.9217351 -59.4762948,29.9700918 -59.4018799,30.018292 -59.3262856,30.066337 -59.2494994,30.1142284 -59.1715089,30.1619678 -59.0925733,30.2093902 -59.0130016,30.256315 -58.9328166,30.3027439 -58.8520408,30.3486792 -58.7706968,30.394123 -58.6888072,30.4390772 -58.6063945,30.483544 -58.5234812,30.5275256 -58.44009,30.5710239 -58.3562434,30.6140411 -58.271964,30.6565793 -58.1872743,30.6986406 -58.0167544,30.7813408 -57.8448643,30.8621583 -57.6717844,30.9411101 -57.4976952,31.0182128 -57.3227774,31.0934832 -57.1472113,31.166938 -56.9711776,31.238594 -56.7948567,31.3084679 -56.6184291,31.3765764 -56.4420755,31.4429364 -56.2659762,31.5075646 -56.0903118,31.5704777 -55.9152629,31.6316925 -55.7410099,31.6912256 -55.5677333,31.749094 -55.3956138,31.8053143 -55.2248317,31.8599032 -55.0555677,31.9128775 -54.8880021,31.9642541 -54.8049127,31.9893484 -54.7223157,32.0140495 -54.5584384,32.0623533 -54.3942633,32.1098276 -54.2292948,32.1566322 -54.0635573,32.2027727 -53.8970755,32.2482548 -53.7298738,32.2930839 -53.5619766,32.3372658 -53.3934085,32.3808059 -53.224194,32.4237099 -53.0543576,32.4659834 -52.8839238,32.5076319 -52.7129171,32.5486611 -52.5413619,32.5890764 -52.3692829,32.6288836 -52.1967044,32.6680882 -52.023651,32.7066957 -51.8501472,32.7447118 -51.6762175,32.7821421 -51.5018864,32.8189921 -51.3271783,32.8552675 -51.1521179,32.8909738 -50.9767295,32.9261165 -50.8010377,32.9607014 -50.625067,32.994734 -50.4488419,33.0282198 -50.0957265,33.0935736 -49.7418874,33.1568075 -49.3875207,33.2179663 -49.0328223,33.2770946 -48.6779883,33.3342371 -48.3232147,33.3894386 -47.9686974,33.4427436 -47.6146325,33.494197 -47.2612159,33.5438434 -46.9086437,33.5917276 -46.5571119,33.6378942 -46.2068165,33.6823879 -45.8579534,33.7252534 -45.5107186,33.7665354 -45.3377732,33.7865966 -45.1653083,33.8062787 -44.9933485,33.8255873 -44.8219183,33.8445279 -44.4800925,33.8813942 -44.3083001,33.8994743 -44.1356654,33.9173478 -43.9621904,33.9350159 -43.7878768,33.9524799 -43.6127265,33.9697409 -43.4367412,33.9868002 -43.259923,34.003659 -43.0822736,34.0203185 -42.9037948,34.03678 -42.7244885,34.0530447 -42.5443566,34.0691138 -42.3634009,34.0849885 -42.1816232,34.10067 -41.9990254,34.1161597 -41.8156093,34.1314585 -41.6313767,34.1465679 -41.4463296,34.1614891 -41.2604697,34.1762232 -41.0737989,34.1907714 -40.8863191,34.2051351 -40.698032,34.2193154 -40.5089396,34.2333135 -40.3190436,34.2471306 -40.128346,34.2607681 -39.9368485,34.2742271 -39.744553,34.2875088 -39.5514614,34.3006144 -39.3575755,34.3135452 -39.1628971,34.3263025 -38.9674281,34.3388873 -38.7711703,34.351301 -38.5741256,34.3635447 -38.3762958,34.3756197 -38.1776827,34.3875272 -37.9782883,34.3992684 -37.7781143,34.4108446 -37.5771626,34.422257 -37.375435,34.4335068 -37.1729334,34.4445951 -36.9696596,34.4555233 -36.7656155,34.4662926 -36.5608029,34.4769041 -36.3552237,34.4873592 -36.1488797,34.4976589 -35.9417727,34.5078047 -35.7339045,34.5177975 -35.5252772,34.5276388 -35.3158924,34.5373297 -35.105752,34.5468714 -34.8948578,34.5562652 -34.6832118,34.5655122 -34.4708157,34.5746138 -34.2576715,34.5835711 -34.0437808,34.5923853 -33.8291457,34.6010577 -33.6137679,34.6095894 -33.3976492,34.6179818 -33.1807916,34.626236 -32.9631968,34.6343533 -32.7448667,34.6423348 -32.5258032,34.6501819 -32.3060081,34.6578956 -32.0854832,34.6654773 -31.8642303,34.6729282 -31.6422514,34.6802495 -31.4195483,34.6874423 -31.1961228,34.694508 -30.9719767,34.7014478 -30.747112,34.7082628 -30.5215304,34.7149543 -30.2952337,34.7215235 -30.0682239,34.7279717 -29.8405028,34.7343 -29.6120722,34.7405097 -29.382934,34.746602 -29.1530899,34.7525782 -28.922542,34.7584394 -28.6912919,34.7641868 -28.4593416,34.7698218 -28.2266928,34.7753455 -27.9933475,34.7807591 -27.7593074,34.7860639 -27.5245745,34.791261 -27.2891505,34.7963518 -27.0530374,34.8013374 -26.8162368,34.806219 -26.5787508,34.8109979 -26.3405811,34.8156753 -26.1017296,34.8202524 -25.8621982,34.8247304 -25.6219885,34.8291106 -25.3811026,34.8333942 -25.1395423,34.8375824 -24.8973094,34.8416764 -24.6544057,34.8456774 -24.4108331,34.8495867 -24.1665934,34.8534055 -23.9216885,34.8571351z"
       transform="matrix(1,0,0,-1,64.2695641,35.6254109)"
       fill="rgb(255,255,255)"
       stroke="rgb(0,0,0)"
       stroke-width="0.0010cm"
       stroke-linecap="round"
       stroke-linejoin="round"
       id="path16903"
       style="fill:none;stroke:#000000;stroke-opacity:1;stroke-width:0.1;stroke-dasharray:none" /></g></svg>
