<?xml version="1.0" encoding="utf-8"?>
<!-- Generator: Fusion 360, Shaper Origin Export Add-In, Version 1.8.0  -->
<svg xmlns="http://www.w3.org/2000/svg" xmlns:xlink="http://www.w3.org/1999/xlink" xmlns:shaper="http://www.shapertools.com/namespaces/shaper" shaper:fusionaddin="version:1.8.0" width="121cm" height="36cm" version="1.1" x="0cm" y="0cm" viewBox="0 0 121 36" enable-background="new 0 0 121 36" xml:space="preserve"><path d="M60.3187584,6.8766955 L60.0187584,6.8766955 60.0187584,8.8766955 59.2187584,8.8766955 59.2187584,6.8766955 43.3187584,6.8766955 A3,3 270 0,0 40.3187584,9.8766955 L40.3187584,25.4766955 A3,3 180 0,0 43.3187584,28.4766955 L59.2187584,28.4766955 59.2187584,26.4766955 60.0187584,26.4766955 60.0187584,28.4766955 60.3187584,28.4766955 60.3187584,34.2766955 A1.4,1.4 0 0,1 58.9187584,35.6766955 L-59.2812416,35.6766955 A1.4,1.4 90 0,1 -60.6812416,34.2766955 L-60.6812416,1.0766955 A1.4,1.4 180 0,1 -59.2812416,-0.3233045 L58.9187584,-0.3233045 A1.4,1.4 270 0,1 60.3187584,1.0766955 L60.3187584,6.8766955z" transform="matrix(1,0,0,-1,60.6812416,35.6766955)" fill="rgb(0,0,0)" stroke-linecap="round" stroke-linejoin="round" /><path d="M18.0313717,34.4541336 L18.0313717,34.4541336 18.0510813,34.4192134 18.0702987,34.3836622 18.0890499,34.3475076 18.1073608,34.3107773 18.1252575,34.2734986 18.1427659,34.2356992 18.176722,34.1586485 18.2094367,34.0798457 18.241118,33.9995111 18.2719737,33.9178653 18.3022117,33.8351287 18.3320398,33.7515218 18.361666,33.6672651 18.4211435,33.4976839 18.4514107,33.4128004 18.4823073,33.3281489 18.5140411,33.2439498 18.54682,33.1604237 18.5808471,33.0778018 18.6162905,32.9963873 18.6533566,32.9163796 18.672566,32.8769573 18.6922626,32.8379516 18.7124734,32.799384 18.7332256,32.7612763 18.7545464,32.7236501 18.7764629,32.686527 18.7990022,32.6499285 18.8221916,32.6138764 18.8460581,32.5783923 18.8706289,32.5434978 18.8959312,32.5092146 18.9219888,32.4755682 18.948712,32.4427204 18.9760631,32.4107447 19.0040619,32.3796385 19.032728,32.3493996 19.0620812,32.3200253 19.0921411,32.2915133 19.1229274,32.263861 19.1544598,32.2370662 19.186758,32.2111262 19.2198417,32.1860386 19.2537306,32.1618011 19.2884443,32.138411 19.3240026,32.1158661 19.3604251,32.0941638 A1.25,1.25 240 0,1 20.6104251,32.0941638 L20.6104251,32.0941638 20.6427216,32.1132721 20.6744651,32.1329908 20.7056596,32.153331 20.7363092,32.1743038 20.766418,32.1959203 20.79599,32.2181916 20.8250293,32.2411288 20.85354,32.264743 20.8815261,32.2890453 20.9089917,32.3140468 20.9359409,32.3397586 20.9623777,32.3661918 20.988306,32.3933574 21.0136094,32.4211301 21.0381971,32.4493886 21.0620886,32.4781244 21.0853035,32.5073289 21.1078613,32.5369936 21.1297813,32.56711 21.1510831,32.5976696 21.1717861,32.6286637 21.1919098,32.660084 21.2114738,32.6919218 21.2304974,32.7241687 21.2490001,32.7568161 21.266998,32.7898488 21.3014674,32.856852 21.3340219,32.9249741 21.3648249,32.9940931 21.3940405,33.0640871 21.4218321,33.1348342 21.4483637,33.2062125 21.4737989,33.2781001 21.4983015,33.3503749 21.5220353,33.4229152 21.5678512,33.5683043 21.6125557,33.7132893 21.6574128,33.8567378 21.680291,33.927516 21.7036816,33.9974766 21.7277442,34.0664794 21.7526383,34.1343842 21.7526383,34.1343842 21.9074605,34.1179688 22.0607848,34.1014172 22.212632,34.084729 22.3630223,34.0679035 22.5119756,34.0509403 22.6595116,34.0338389 22.8056492,34.0165986 22.9504075,33.9992189 23.0938047,33.9816991 23.2358592,33.9640387 23.3765886,33.9462371 23.5160104,33.9282935 23.6541418,33.9102073 23.7909997,33.8919779 23.9266006,33.8736044 24.0609608,33.8550863 24.1940962,33.8364226 24.3260224,33.8176128 24.456755,33.798656 24.5863089,33.7795515 24.7146992,33.7602983 24.8419403,33.7408957 24.9680467,33.7213429 25.0930324,33.701639 25.2169113,33.681783 25.339697,33.6617742 25.4614029,33.6416115 25.5820421,33.6212941 25.7016276,33.6008209 25.8201721,33.5801911 25.937688,33.5594035 26.0541877,33.5384573 26.1696833,33.5173514 26.2841865,33.4960846 26.3977091,33.4746561 26.5102626,33.4530645 26.6218582,33.431309 26.732507,33.4093882 26.8422201,33.3873012 26.951008,33.3650466 27.0588814,33.3426234 27.1658506,33.3200303 27.271926,33.297266 27.3771174,33.2743294 27.4814349,33.2512191 27.5848881,33.2279338 27.6874867,33.2044723 27.78924,33.1808332 27.8901573,33.1570152 27.9902477,33.1330167 28.0895202,33.1088365 28.1879837,33.0844732 28.2856468,33.0599252 28.3825181,33.035191 28.4786059,33.0102693 28.5739187,32.9851584 28.6684644,32.9598568 28.7622512,32.934363 28.855287,32.9086753 28.9475795,32.8827921 29.0391364,32.8567117 29.1299652,32.8304326 29.2200733,32.8039529 29.309468,32.777271 29.3981566,32.750385 29.486146,32.7232933 29.5734433,32.6959939 29.6600554,32.6684851 29.7459889,32.640765 29.8312505,32.6128317 29.9158467,32.5846832 29.9997841,32.5563176 30.0830689,32.5277329 30.1657074,32.4989271 30.2477058,32.4698981 30.32907,32.4406439 30.4098061,32.4111623 30.48992,32.3814511 30.5694173,32.3515083 30.6483039,32.3213315 30.7265853,32.2909185 30.804267,32.2602671 30.8813545,32.2293748 30.9578531,32.1982395 31.0337681,32.1668585 31.1091046,32.1352296 31.1838678,32.1033502 31.2580628,32.0712178 31.3316943,32.0388299 31.4047674,32.0061839 31.4772868,31.9732772 31.5492573,31.940107 31.6206835,31.9066706 31.6915699,31.8729654 31.8317416,31.804737 31.9698075,31.7353988 32.1058017,31.664927 32.2397573,31.5932972 32.3717064,31.5204841 32.5016797,31.4464616 32.6297074,31.3712028 32.7558184,31.2946798 32.8800408,31.2168639 33.0024016,31.1377253 33.1229271,31.0572334 33.2416425,30.9753564 33.3585723,30.8920614 33.4737401,30.8073145 33.5871685,30.7210806 33.6988795,30.6333234 33.8088939,30.5440053 33.9172322,30.4530873 34.0239137,30.3605292 34.1289571,30.2662892 34.2323801,30.1703242 34.3341999,30.0725894 34.3845136,30.0230438 34.4344327,29.9730383 34.4839588,29.9225667 34.533094,29.8716229 34.5818401,29.8202005 34.6301987,29.7682932 34.6781717,29.7158944 34.7257607,29.6629974 34.7729674,29.6095956 34.8197933,29.555682 34.8662399,29.5012496 34.9123088,29.4462911 34.9580014,29.3907994 35.003319,29.3347669 35.0482631,29.2781861 35.0928349,29.2210493 35.1370356,29.1633485 35.1808665,29.1050758 35.2243288,29.0462229 35.2674234,28.9867814 35.3101515,28.926743 35.352514,28.8660988 35.394512,28.8048401 35.4361463,28.7429577 35.4774178,28.6804426 35.5183272,28.6172852 35.5588754,28.5534759 35.5990631,28.4890051 35.6388908,28.4238626 35.6783591,28.3580383 35.7174687,28.2915218 35.7562201,28.2243025 35.7946135,28.1563695 35.8326495,28.0877117 35.8703284,28.0183178 35.9076504,27.9481763 35.9446158,27.8772754 35.9812247,27.805603 36.0174772,27.7331468 36.0533734,27.6598943 36.0889132,27.5858325 36.1240966,27.5109484 36.1589235,27.4352286 36.1933936,27.3586592 36.2275066,27.2812264 36.2612624,27.2029157 36.2946604,27.1237125 36.3277003,27.0436019 36.3603815,26.9625684 36.3927034,26.8805963 36.4246653,26.7976697 36.4562666,26.7137722 36.4875064,26.6288869 36.5183839,26.5429965 36.5488981,26.4560837 36.579048,26.3681302 36.6088325,26.2791178 36.6382504,26.1890274 36.6673004,26.0978398 36.6959812,26.0055351 36.7242914,25.9120931 36.7522294,25.8174929 36.7797937,25.7217133 36.8069825,25.6247324 36.833794,25.5265278 36.8602264,25.4270767 36.8862777,25.3263555 36.9119457,25.22434 36.9372283,25.1210055 36.9621233,25.0163267 36.9866281,24.9102774 37.0107402,24.8028311 37.0344571,24.6939602 37.057776,24.5836367 37.080694,24.4718316 37.1032081,24.3585153 37.1253152,24.2436572 37.1470121,24.1272262 37.1682952,24.00919 37.1891612,23.8895155 37.2096063,23.768169 37.2296266,23.6451153 37.2492183,23.5203187 37.2683771,23.3937422 37.2870988,23.2653479 37.3053788,23.1350968 37.3232126,23.0029486 37.3405952,22.8688619 37.3575218,22.7327944 37.3739869,22.594702 37.3899854,22.4545397 37.4055114,22.312261 37.4205592,22.167818 37.4351228,22.0211613 37.4491958,21.8722402 37.4627717,21.721002 37.4693711,21.6444973 37.4758437,21.5673929 37.4821886,21.4896818 37.4884049,21.4113569 37.4944916,21.332411 37.5004479,21.2528366 37.5062727,21.1726263 37.5119651,21.0917726 37.5175241,21.0102676 37.5229487,20.9281035 37.5282378,20.8452724 37.5333905,20.7617661 37.5384056,20.6775765 37.543282,20.5926951 37.5480188,20.5071134 37.5526146,20.4208229 37.5570684,20.3338147 37.561379,20.2460798 37.5655451,20.1576092 37.5695657,20.0683937 37.5734394,19.9784238 37.577165,19.88769 37.5807411,19.7961826 37.5841666,19.7038918 37.5874399,19.6108073 37.5905599,19.5169192 37.593525,19.4222168 37.5963339,19.3266898 37.5989851,19.2303272 37.6014771,19.1331182 37.6038085,19.0350515 37.6059777,18.936116 37.6079832,18.8362999 37.6098233,18.7355917 37.6114965,18.6339792 37.613001,18.5314504 37.6143353,18.4279928 37.6154976,18.3235939 37.6164861,18.2182408 37.6172991,18.1119204 37.6179346,18.0046193 37.618391,17.8963241 37.6186662,17.7870208 37.6187584,17.6766955 37.6187584,17.6766955 37.6186664,17.5664527 37.6183916,17.4572305 37.6179359,17.3490147 37.6173012,17.2417917 37.6164895,17.1355479 37.6155024,17.03027 37.6143419,16.9259449 37.6130096,16.8225598 37.6115072,16.7201022 37.6098365,16.6185596 37.6079991,16.5179199 37.6059965,16.4181712 37.6038305,16.3193018 37.6015025,16.2213001 37.5990141,16.1241549 37.5963667,16.0278549 37.5935619,15.9323893 37.590601,15.8377474 37.5874856,15.7439185 37.5842169,15.6508924 37.5807964,15.5586587 37.5772253,15.4672075 37.5735051,15.376529 37.5696369,15.2866133 37.565622,15.197451 37.5614618,15.1090327 37.5571573,15.0213493 37.5527098,14.9343915 37.5481204,14.8481505 37.5433904,14.7626176 37.5385208,14.677784 37.5335127,14.5936414 37.5283672,14.5101813 37.5230855,14.4273956 37.5176685,14.3452761 37.5121172,14.2638148 37.5064327,14.1830041 37.500616,14.1028361 37.494668,14.0233032 37.4885897,13.9443981 37.4823821,13.8661133 37.4760459,13.7884416 37.4695823,13.7113759 37.4629919,13.6349091 37.4494347,13.4837451 37.435381,13.3348954 37.4208373,13.1883077 37.40581,13.0439314 37.3903051,12.901717 37.3743284,12.7616168 37.3578855,12.6235844 37.3409819,12.4875747 37.3236227,12.3535439 37.3058129,12.2214497 37.2875575,12.0912506 37.2688609,11.9629065 37.2497278,11.8363786 37.2301623,11.7116288 37.2101687,11.5886203 37.1897509,11.4673173 37.1689127,11.347685 37.1476579,11.2296894 37.1259899,11.1132975 37.1039121,10.9984772 37.0814279,10.8851973 37.0585402,10.7734273 37.0352522,10.6631377 37.0115667,10.5542995 36.9874864,10.4468846 36.963014,10.3408657 36.9381519,10.2362161 36.9129027,10.1329098 36.8872685,10.0309214 36.8612516,9.9302262 36.834854,9.8308002 36.8080778,9.7326198 36.7809249,9.6356622 36.7533969,9.5399049 36.7254957,9.4453262 36.6972229,9.3519049 36.6685799,9.25962 36.6395681,9.1684514 36.610189,9.0783793 36.5804438,8.9893844 36.5503337,8.9014478 36.5198598,8.814551 36.4890231,8.7286761 36.4578246,8.6438055 36.426265,8.5599221 36.3943454,8.477009 36.3620663,8.3950499 36.3294284,8.3140287 36.2964323,8.2339298 36.2630786,8.1547378 36.2293677,8.0764377 36.1952999,7.999015 36.1608757,7.9224553 36.1260953,7.8467445 36.0909588,7.7718691 36.0554664,7.6978155 36.0196182,7.6245707 35.9834142,7.5521217 35.9468544,7.4804562 35.9099386,7.4095617 35.8726667,7.3394262 35.8350386,7.2700379 35.7970538,7.2013854 35.7587122,7.1334572 35.7200132,7.0662423 35.6809566,6.99973 35.6415417,6.9339095 35.6017681,6.8687705 35.5616351,6.8043028 35.5211422,6.7404963 35.4802886,6.6773414 35.4390736,6.6148284 35.3974964,6.552948 35.3555561,6.4916909 35.3132518,6.4310481 35.2705826,6.3710107 35.2275475,6.3115701 35.1841454,6.2527177 35.1403753,6.1944452 35.096236,6.1367445 35.0517263,6.0796075 35.006845,6.0230263 34.9615908,5.9669932 34.9159623,5.9115006 34.8699582,5.856541 34.823577,5.8021073 34.7768173,5.7481922 34.7296775,5.6947887 34.682156,5.6418899 34.6342513,5.589489 34.5859616,5.5375795 34.5372853,5.4861546 34.4882205,5.4352082 34.4387656,5.3847338 34.3889185,5.3347253 34.3386774,5.2851766 34.2370054,5.1874351 34.1337333,5.0914628 34.0288441,4.997215 33.9223201,4.9046485 33.8141427,4.8137215 33.7042925,4.7243939 33.5927495,4.6366268 33.4794926,4.5503825 33.3645,4.4656248 33.2477493,4.3823186 33.1292168,4.3004299 33.0088784,4.2199259 32.8867087,4.1407749 32.7626817,4.0629463 32.6367705,3.9864102 32.508947,3.911138 32.3791824,3.8371018 32.2474469,3.7642746 32.1137095,3.6926305 31.9779386,3.6221441 31.840101,3.5527909 31.700163,3.4845474 31.6293954,3.4508345 31.5580894,3.4173904 31.4862405,3.3842124 31.4138441,3.3512978 31.3408954,3.3186439 31.2673897,3.286248 31.193322,3.2541076 31.1186876,3.2222201 31.0434814,3.190583 30.9676982,3.1591938 30.891333,3.1280502 30.8143805,3.0971496 30.7368353,3.0664898 30.6586921,3.0360684 30.5799454,3.0058831 30.5005895,2.9759317 30.4206188,2.9462119 30.3400276,2.9167217 30.2588099,2.8874587 30.17696,2.858421 30.0944717,2.8296063 30.0113389,2.8010128 29.9275554,2.7726383 29.8431148,2.7444808 29.7580109,2.7165385 29.672237,2.6888093 29.5857865,2.6612914 29.4986527,2.6339828 29.4108288,2.6068819 29.3223079,2.5799867 29.2330828,2.5532954 29.1431465,2.5268063 29.0524917,2.5005177 28.961111,2.4744279 28.8689969,2.4485352 28.7761417,2.4228379 28.6825379,2.3973344 28.5881773,2.3720231 28.4930522,2.3469025 28.3971544,2.321971 28.3004756,2.297227 28.2030074,2.2726691 28.1047414,2.2482958 28.0056689,2.2241056 27.9057811,2.2000971 27.8050691,2.1762689 27.7035238,2.1526197 27.6011359,2.1291479 27.4978961,2.1058524 27.393795,2.0827318 27.2888227,2.0597848 27.1829694,2.0370101 27.0762253,2.0144064 26.9685799,1.9919726 26.8600232,1.9697075 26.7505444,1.9476097 26.640133,1.9256783 26.5287781,1.9039119 26.4164686,1.8823095 26.3031932,1.86087 26.1889407,1.8395923 26.0736993,1.8184753 25.9574573,1.797518 25.8402026,1.7767193 25.721923,1.7560782 25.6026061,1.7355937 25.4822393,1.7152649 25.3608096,1.6950908 25.238304,1.6750704 25.1147092,1.6552028 24.9900117,1.6354872 24.8641976,1.6159227 24.7372529,1.5965083 24.6091634,1.5772432 24.4799146,1.5581267 24.3494915,1.5391579 24.2178793,1.5203359 24.0850626,1.5016601 23.9510258,1.4831296 23.815753,1.4647438 23.6792281,1.4465019 23.5414346,1.4284031 23.4023557,1.4104469 23.2619744,1.3926325 23.1202733,1.3749593 22.9772347,1.3574266 22.8328407,1.3400339 22.6870727,1.3227805 22.5399121,1.3056658 22.3913399,1.2886893 22.2413366,1.2718504 22.0898824,1.2551486 21.9369571,1.2385834 21.7825403,1.2221542 21.7825403,1.2221542 21.7545388,1.290651 21.7272759,1.3602569 21.7006176,1.4308294 21.6744298,1.5022259 21.6229294,1.6469205 21.5717024,1.7932001 21.5196765,1.939924 21.4930288,2.0130961 21.4657792,2.0859516 21.4377937,2.1583479 21.4089382,2.2301423 21.379093,2.3011608 21.3481474,2.3712196 21.3159619,2.4402055 21.2823965,2.508007 21.2473111,2.5745125 21.2105656,2.6396103 21.1915266,2.6715965 21.17202,2.703189 21.1520284,2.7343737 21.1315342,2.7651368 21.11052,2.7954643 21.0889682,2.8253422 21.0668613,2.8547566 21.0441936,2.8836787 21.0210476,2.9119768 20.9974323,2.939624 20.9733349,2.9666218 20.9487428,2.992972 20.9236432,3.018676 20.8980235,3.0437354 20.8718709,3.0681519 20.8451728,3.091927 20.8179165,3.1150622 20.7900893,3.1375593 20.7616784,3.1594196 20.7326712,3.180645 20.7030549,3.2012368 20.672817,3.2211968 20.6419446,3.2405264 20.6104251,3.2592273 A1.25,1.25 60 0,1 19.3604251,3.2592273 L19.3604251,3.2592273 19.3230283,3.2370148 19.2864106,3.214003 19.2505633,3.1901767 19.2154772,3.1655208 19.1811435,3.1400203 19.1475531,3.1136601 19.1146972,3.0864253 19.0825668,3.0583006 19.0511529,3.0292711 19.0204465,2.9993216 18.9904388,2.9684372 18.9611207,2.9366028 18.9324835,2.9038034 18.9046748,2.8702197 18.8778123,2.8360372 18.8518642,2.801275 18.8267988,2.7659523 18.8025844,2.7300881 18.7791895,2.6937017 18.7565823,2.6568121 18.7347311,2.6194386 18.7136043,2.5816001 18.6931701,2.5433159 18.6733971,2.504605 18.6542533,2.4654867 18.6357083,2.4259821 18.6177411,2.3861358 18.6003239,2.3459788 18.5670142,2.2648316 18.5355305,2.1827391 18.5056235,2.0998998 18.4770445,2.016512 18.4495443,1.9327743 18.4228741,1.8488851 18.3710275,1.6814461 18.3453532,1.5982931 18.3195129,1.5157825 18.2932576,1.4341128 18.2663383,1.3534815 18.2384943,1.2740506 18.2094681,1.196018 18.1790087,1.1196109 18.1631631,1.0820879 18.1468651,1.0450565 18.1300832,1.0085451 18.1127861,0.972582 18.0949424,0.9371957 18.0765207,0.9024146 18.0765207,0.9024146 17.9519481,0.8937398 17.8265092,0.8851185 17.700195,0.8765507 17.5729966,0.8680365 17.4449049,0.8595758 17.3159108,0.8511686 17.186005,0.8428148 17.0551779,0.8345146 16.9234201,0.826268 16.7907217,0.8180748 16.657073,0.8099352 16.522464,0.8018492 16.3868844,0.7938167 16.2503241,0.7858379 16.1127727,0.7779127 15.9742194,0.7700412 15.8346537,0.7622234 15.6940646,0.7544593 15.5524411,0.7467491 15.409772,0.7390928 15.2660459,0.7314903 15.1212513,0.7239418 14.9753765,0.7164474 14.8284095,0.7090071 14.6803384,0.7016209 14.531151,0.694289 14.3808347,0.6870115 14.229377,0.6797884 14.0767651,0.6726198 13.9229861,0.6655058 13.7680266,0.6584465 13.6118735,0.651442 13.4545129,0.6444925 13.2959313,0.637598 13.1361145,0.6307587 12.9750483,0.6239747 12.8127183,0.6172461 12.6491098,0.610573 12.4842079,0.6039557 12.3179974,0.5973941 12.1504631,0.5908886 11.9815892,0.5844393 11.8113599,0.5780462 11.6397591,0.5717097 11.4667704,0.5654298 11.2923771,0.5592067 11.1165624,0.5530407 10.9393091,0.5469319 10.7605996,0.5408805 10.5804163,0.5348868 10.3987411,0.5289509 10.2155556,0.523073 10.0308413,0.5172535 9.8445791,0.5114924 9.6567498,0.5057901 9.4673338,0.5001468 9.2763112,0.4945628 9.0836617,0.4890383 8.8893648,0.4835735 8.6933994,0.4781689 8.4957442,0.4728245 8.2963777,0.4675408 8.0952776,0.462318 7.8924217,0.4571565 7.687787,0.4520565 7.4813504,0.4470184 7.2730882,0.4420425 7.0629764,0.4371292 6.8509905,0.4322787 6.6371055,0.4274915 6.4212962,0.4227679 6.2035367,0.4181084 5.9838008,0.4135132 5.7620616,0.4089828 5.5382921,0.4045177 5.3124643,0.4001181 5.0845502,0.3957846 4.8545209,0.3915175 4.6223471,0.3873174 4.387999,0.3831847 4.1514462,0.3791198 3.9126577,0.3751233 3.671602,0.3711957 3.4282469,0.3673374 3.1825596,0.3635489 2.9345068,0.3598309 2.8095827,0.3579985 2.6840544,0.3561838 2.5579175,0.3543871 2.4311677,0.3526083 2.3038005,0.3508475 2.1758114,0.3491048 2.0471959,0.3473803 1.9179494,0.345674 1.7880672,0.343986 1.6575449,0.3423164 1.5263775,0.3406653 1.3945604,0.3390328 1.2620888,0.3374189 1.1289578,0.3358237 0.9951625,0.3342472 0.8606979,0.3326897 0.7255592,0.3311511 0.5897412,0.3296316 0.4532388,0.3281311 0.3160469,0.3266499 0.1781602,0.325188 0.0395737,0.3237455 -0.0997182,0.3223225 -0.2397207,0.320919 -0.3804392,0.3195352 -0.5218793,0.3181711 -0.6640464,0.3168269 -0.8069461,0.3155026 -0.9505841,0.3141983 -1.094966,0.3129142 -1.2400977,0.3116504 -1.3859849,0.3104068 -1.5326335,0.3091837 -1.6800494,0.3079811 -1.8282387,0.3067992 -1.9772074,0.305638 -2.1269616,0.3044976 -2.2775075,0.3033782 -2.4288514,0.3022798 -2.5809996,0.3012027 -2.7339585,0.3001468 -2.8877345,0.2991123 -3.0423342,0.2980993 -3.1977642,0.2971079 -3.3540311,0.2961383 -3.5111417,0.2951906 -3.6691027,0.2942648 -3.8279212,0.2933611 -3.9876039,0.2924796 -4.148158,0.2916205 -4.3095905,0.2907838 -4.4719088,0.2899697 -4.6351199,0.2891784 -4.7992313,0.2884099 -4.9642504,0.2876644 -5.1301847,0.286942 -5.2970419,0.2862429 -5.4648295,0.2855671 -5.6335553,0.2849149 -5.8032272,0.2842863 -5.9738532,0.2836816 -6.1454412,0.2831007 -6.3179994,0.282544 -6.491536,0.2820116 -6.6660593,0.2815035 -6.8415777,0.2810199 -7.0180996,0.2805611 -7.1956337,0.2801271 -7.3741887,0.2797181 -7.5537733,0.2793342 -7.7343964,0.2789757 -7.9160671,0.2786426 -8.0987944,0.2783352 -8.2825875,0.2780537 -8.4674557,0.2777981 -8.6534084,0.2775686 -8.8404553,0.2773655 -9.0286058,0.2771888 -9.2178699,0.2770389 -9.4082572,0.2769158 -9.5997779,0.2768197 -9.792442,0.2767508 -9.9862598,0.2767094 -10.1812416,0.2766955 -10.1812416,0.2766955 -10.4418245,0.2767031 -10.7000651,0.2767256 -10.9559946,0.2767629 -11.2096439,0.2768148 -11.4610435,0.2768812 -11.7102231,0.2769618 -11.9572119,0.2770566 -12.2020387,0.2771653 -12.4447317,0.2772879 -12.6853188,0.2774241 -12.9238272,0.2775738 -13.1602837,0.2777369 -13.3947147,0.2779131 -13.627146,0.2781024 -13.8576032,0.2783047 -14.0861113,0.2785197 -14.3126949,0.2787474 -14.5373782,0.2789876 -14.760185,0.2792401 -14.9811386,0.279505 -15.2002622,0.2797819 -15.4175783,0.2800709 -15.6331092,0.2803717 -15.8468768,0.2806842 -16.0589027,0.2810085 -16.269208,0.2813442 -16.4778136,0.2816913 -16.68474,0.2820498 -16.8900073,0.2824194 -17.0936355,0.2828001 -17.2956441,0.2831917 -17.4960524,0.2835942 -17.4960524,0.2835942 -17.5507595,0.2899906 -17.6049896,0.2986571 -17.6319051,0.3038806 -17.6586765,0.3097185 -17.6852955,0.3161863 -17.7117539,0.3232996 -17.7380434,0.3310741 -17.7641558,0.3395253 -17.7900828,0.3486688 -17.815816,0.3585203 -17.8412966,0.3690731 -17.8663731,0.38027 -17.8910414,0.3921073 -17.9153072,0.4045853 -17.9391765,0.4177044 -17.962655,0.4314651 -17.9857486,0.4458677 -18.0084632,0.4609125 -18.0308046,0.4765999 -18.0527786,0.4929303 -18.0743911,0.5099041 -18.0956395,0.5275143 -18.1164442,0.5456829 -18.1367931,0.5643802 -18.1566971,0.5835949 -18.1761669,0.603316 -18.1952134,0.6235323 -18.2138475,0.6442328 -18.2320799,0.6654062 -18.2499214,0.6870415 -18.2844754,0.7316532 -18.3175958,0.777979 -18.3493695,0.8259298 -18.3798829,0.8754167 -18.4092227,0.9263507 -18.4374755,0.9786432 -18.4647319,1.0322195 -18.4910774,1.086999 -18.5165944,1.1428939 -18.5413655,1.1998166 -18.5654733,1.257679 -18.5890002,1.3163936 -18.6120287,1.3758724 -18.6346415,1.4360278 -18.6789497,1.5580169 -18.722585,1.6816586 -18.7662076,1.8062507 -18.8104776,1.9310908 -18.8560553,2.0554767 -18.8795409,2.1172799 -18.9036009,2.1787061 -18.9283179,2.2396677 -18.9537608,2.3000463 -18.9799981,2.3597305 -19.0071162,2.4186515 -19.0352013,2.4767405 -19.0643397,2.5339288 -19.0946175,2.5901477 -19.1261211,2.6453285 -19.1589368,2.6994024 -19.1931507,2.7523007 -19.2288492,2.8039547 -19.2661185,2.8542957 -19.3049629,2.9031553 -19.3451776,2.9501589 -19.3868023,2.9952843 -19.4298994,3.0385393 -19.4520198,3.0594679 -19.4745317,3.0799317 -19.497443,3.0999319 -19.5207615,3.1194693 -19.5444951,3.138545 -19.5686515,3.1571598 -19.5932386,3.1753149 -19.6182643,3.1930111 -19.6437362,3.2102495 -19.6696623,3.227031 -19.6960504,3.2433566 -19.7229082,3.2592273 A1.25,1.25 60 0,1 -20.9729082,3.2592273 L-20.9729082,3.2592273 -21.0262826,3.2271329 -21.0780155,3.193414 -21.1281382,3.1580308 -21.1766819,3.1209432 -21.2236777,3.0821112 -21.2691568,3.041495 -21.3131504,2.9990544 -21.3556895,2.9547496 -21.3968055,2.9085406 -21.4365252,2.8603927 -21.4745267,2.8107506 -21.51066,2.7599644 -21.5450193,2.7080997 -21.577699,2.655222 -21.6087933,2.601397 -21.6383966,2.5466901 -21.6666032,2.491167 -21.6935074,2.4348933 -21.7192035,2.3779345 -21.743787,2.3203519 -21.76736,2.2621831 -21.7900142,2.2034983 -21.8118398,2.1443744 -21.8329266,2.0848888 -21.8732435,1.9651406 -21.9116842,1.8448706 -21.948968,1.724696 -21.9858144,1.6052337 -22.0229427,1.4871009 -22.0418373,1.4287259 -22.0610721,1.3709146 -22.0807371,1.3137442 -22.1009221,1.2572918 -22.121717,1.2016346 -22.1432138,1.1468437 -22.1655146,1.0929648 -22.1887143,1.0400738 -22.212906,0.9882521 -22.2381831,0.937581 -22.2646388,0.8881418 -22.2923665,0.8400158 -22.3214593,0.7932842 -22.3520107,0.7480285 -22.3841117,0.7043327 -22.4177875,0.6623621 -22.4352309,0.6420592 -22.4530922,0.622221 -22.4713818,0.6028551 -22.4901104,0.5839687 -22.5092886,0.5655694 -22.528927,0.5476645 -22.5490362,0.5302614 -22.5696268,0.5133676 -22.5907093,0.4969904 -22.6122943,0.4811373 -22.6343926,0.4658157 -22.6570057,0.4510386 -22.6799675,0.4369194 -22.7032069,0.4234905 -22.7267177,0.4107397 -22.7504938,0.3986549 -22.7745289,0.3872239 -22.7988169,0.3764346 -22.8233515,0.3662748 -22.8481266,0.3567324 -22.8731361,0.3477952 -22.8983736,0.3394511 -22.9238332,0.3316879 -22.9495084,0.3244934 -23.0014815,0.3117623 -23.0542434,0.3011604 -23.0542434,0.3011604 -23.2772629,0.3021637 -23.4980741,0.3031833 -23.7167097,0.3042191 -23.9332018,0.3052708 -24.1475816,0.3063385 -24.3598798,0.3074217 -24.5701267,0.3085205 -24.7783518,0.3096347 -24.9845841,0.310764 -25.1888521,0.3119084 -25.3911837,0.3130676 -25.5916062,0.3142417 -25.7901465,0.3154303 -25.9868311,0.3166334 -26.1816857,0.3178508 -26.3747358,0.3190825 -26.5660063,0.3203282 -26.7555217,0.3215879 -26.943306,0.3228613 -27.1293828,0.3241485 -27.3137753,0.3254492 -27.4965062,0.3267634 -27.6775979,0.328091 -27.8570723,0.3294317 -28.0349509,0.3307856 -28.2112549,0.3321525 -28.3860052,0.3335322 -28.5592221,0.3349248 -28.7309258,0.3363301 -28.9011359,0.3377479 -29.0698718,0.3391782 -29.2371526,0.340621 -29.402997,0.342076 -29.5674235,0.3435432 -29.7304501,0.3450226 -29.8920945,0.3465139 -30.0523744,0.3480172 -30.2113068,0.3495324 -30.3689086,0.3510593 -30.5251966,0.3525979 -30.680187,0.3541481 -30.8338959,0.3557098 -30.9863392,0.357283 -31.1375323,0.3588675 -31.2874906,0.3604633 -31.4362291,0.3620704 -31.5837626,0.3636886 -31.7301058,0.3653178 -31.8752729,0.3669581 -32.019278,0.3686093 -32.162135,0.3702713 -32.3038576,0.3719442 -32.4444593,0.3736278 -32.5839531,0.3753221 -32.7223523,0.377027 -32.8596695,0.3787424 -32.9959175,0.3804683 -33.1311086,0.3822047 -33.2652551,0.3839515 -33.398369,0.3857085 -33.5304621,0.3874759 -33.6615463,0.3892534 -33.7916329,0.3910411 -33.9207333,0.3928389 -34.0488586,0.3946468 -34.1760199,0.3964647 -34.302228,0.3982925 -34.4274934,0.4001302 -34.5518269,0.4019778 -34.6752385,0.4038353 -34.7977387,0.4057025 -34.9193374,0.4075794 -35.0400445,0.409466 -35.1598699,0.4113622 -35.278823,0.413268 -35.3969133,0.4151834 -35.5141503,0.4171083 -35.6305431,0.4190427 -35.7461008,0.4209866 -35.8608322,0.4229398 -35.9747464,0.4249024 -36.0878518,0.4268743 -36.2001571,0.4288555 -36.3116708,0.430846 -36.4224012,0.4328457 -36.5323564,0.4348546 -36.6415446,0.4368726 -36.7499737,0.4388998 -36.8576517,0.440936 -36.9645862,0.4429814 -37.0707851,0.4450357 -37.1762557,0.4470991 -37.2810056,0.4491715 -37.385042,0.4512527 -37.4883724,0.453343 -37.5910037,0.4554421 -37.6929432,0.45755 -37.7941976,0.4596669 -37.8947739,0.4617925 -37.9946789,0.4639269 -38.0939192,0.4660701 -38.1925015,0.4682221 -38.2904323,0.4703827 -38.3877179,0.4725521 -38.4843648,0.4747301 -38.5803791,0.4769168 -38.6757671,0.4791121 -38.7705349,0.4813161 -38.8646884,0.4835286 -38.9582336,0.4857498 -39.1435226,0.4902177 -39.3264477,0.4947196 -39.507054,0.4992556 -39.685385,0.5038253 -39.8614835,0.5084288 -40.0353909,0.5130659 -40.2071478,0.5177364 -40.3767937,0.5224403 -40.5443673,0.5271774 -40.7099062,0.5319478 -40.873447,0.5367512 -41.0350258,0.5415877 -41.1946774,0.5464571 -41.352436,0.5513594 -41.5083351,0.5562946 -41.6624072,0.5612625 -41.8146841,0.5662631 -41.965197,0.5712964 -42.1139761,0.5763624 -42.2610513,0.5814609 -42.4064515,0.586592 -42.5502051,0.5917556 -42.6923398,0.5969518 -42.8328826,0.6021805 -42.9718602,0.6074417 -43.1092984,0.6127353 -43.2452225,0.6180615 -43.3796573,0.6234201 -43.5126272,0.6288112 -43.6441557,0.6342348 -43.7742662,0.639691 -43.9029814,0.6451796 -44.0303234,0.6507009 -44.1563141,0.6562547 -44.2809747,0.6618411 -44.4043261,0.6674601 -44.5263888,0.6731119 -44.6471827,0.6787963 -44.7667275,0.6845135 -44.8850422,0.6902635 -45.0021458,0.6960464 -45.1180566,0.7018622 -45.2327927,0.707711 -45.3463718,0.7135927 -45.4588111,0.7195076 -45.5701277,0.7254557 -45.6803381,0.731437 -45.7894588,0.7374515 -45.8975057,0.7434995 -46.0044945,0.749581 -46.1104406,0.755696 -46.215359,0.7618446 -46.3192646,0.7680269 -46.4221718,0.7742431 -46.524095,0.7804932 -46.625048,0.7867772 -46.7250445,0.7930954 -46.824098,0.7994479 -46.9222217,0.8058346 -47.0194285,0.8122558 -47.1157312,0.8187115 -47.2111422,0.8252019 -47.3056737,0.8317271 -47.3993377,0.8382871 -47.4921461,0.8448823 -47.5841105,0.8515125 -47.6752421,0.8581781 -47.7655523,0.864879 -47.8550519,0.8716156 -47.9437517,0.8783878 -48.0316624,0.8851959 -48.1187943,0.8920399 -48.2051576,0.8989201 -48.2907624,0.9058366 -48.3756185,0.9127895 -48.4597357,0.919779 -48.5431234,0.9268052 -48.625791,0.9338683 -48.7077478,0.9409686 -48.7890027,0.948106 -48.8695646,0.9552809 -48.9494423,0.9624933 -49.0286445,0.9697435 -49.1071794,0.9770317 -49.1850555,0.9843579 -49.2622809,0.9917225 -49.3388636,0.9991255 -49.4148116,1.0065672 -49.4901325,1.0140478 -49.5648342,1.0215674 -49.638924,1.0291264 -49.7852977,1.0443628 -49.9293113,1.0597586 -50.0710208,1.0753157 -50.2104804,1.0910357 -50.3477425,1.1069203 -50.4828579,1.1229715 -50.615876,1.139191 -50.7468444,1.1555809 -50.8758095,1.1721431 -51.0028161,1.1888796 -51.127908,1.2057924 -51.2511272,1.2228838 -51.3725149,1.2401559 -51.4921108,1.2576109 -51.6099536,1.2752512 -51.7260808,1.293079 -51.8405289,1.3110967 -51.9533334,1.3293069 -52.0645286,1.347712 -52.174148,1.3663146 -52.2822241,1.3851174 -52.3887884,1.4041229 -52.4938719,1.4233341 -52.5975042,1.4427536 -52.6997146,1.4623845 -52.8005313,1.4822295 -52.8999819,1.5022919 -52.9980931,1.5225746 -53.094891,1.5430808 -53.1904011,1.5638137 -53.284648,1.5847768 -53.3776559,1.6059732 -53.4694481,1.6274066 -53.5600476,1.6490804 -53.6494767,1.6709983 -53.7377569,1.693164 -53.8249095,1.7155813 -53.9109551,1.738254 -53.9959138,1.7611862 -54.0798051,1.7843819 -54.1626482,1.8078453 -54.2444617,1.8315806 -54.3252639,1.8555922 -54.4050723,1.8798846 -54.4839044,1.9044622 -54.5617769,1.9293299 -54.6387065,1.9544924 -54.7147091,1.9799545 -54.7898005,2.0057214 -54.8639959,2.0317982 -54.9373104,2.05819 -55.0097585,2.0849024 -55.0813545,2.1119408 -55.1521123,2.1393109 -55.2220456,2.1670186 -55.2911675,2.1950697 -55.3594912,2.2234703 -55.4270291,2.2522267 -55.4937939,2.2813453 -55.5597974,2.3108327 -55.6250517,2.3406955 -55.6895681,2.3709408 -55.7533581,2.4015754 -55.8164326,2.4326069 -55.8788024,2.4640424 -55.9404781,2.4958898 -56.0014699,2.5281569 -56.0617879,2.5608517 -56.121442,2.5939824 -56.1804418,2.6275576 -56.2387967,2.6615859 -56.2965158,2.6960764 -56.3536082,2.7310381 -56.4100826,2.7664806 -56.4659477,2.8024135 -56.5212117,2.8388469 -56.5758829,2.8757909 -56.6299693,2.913256 -56.6834787,2.9512532 -56.7364189,2.9897935 -56.7887972,3.0288885 -56.840621,3.0685498 -56.8918973,3.1087897 -56.9426333,3.1496205 -56.9928356,3.1910553 -57.042511,3.233107 -57.091666,3.2757895 -57.1403068,3.3191168 -57.1884397,3.3631032 -57.2360706,3.4077637 -57.2832056,3.4531137 -57.3298504,3.4991689 -57.3760105,3.5459457 -57.4216914,3.5934609 -57.4668985,3.641732 -57.511637,3.6907767 -57.5559118,3.7406137 -57.5997279,3.791262 -57.6430902,3.8427413 -57.6860032,3.8950719 -57.7284715,3.948275 -57.7704995,4.0023723 -57.8120914,4.0573863 -57.8532514,4.1133401 -57.8939835,4.1702579 -57.9342916,4.2281646 -57.9741794,4.2870857 -58.0136505,4.3470481 -58.0527085,4.4080793 -58.0913567,4.4702079 -58.1295984,4.5334634 -58.1674366,4.5978766 -58.2048744,4.6634794 -58.2419146,4.7303046 -58.27856,4.7983866 -58.3148131,4.8677608 -58.3506765,4.9384642 -58.3861524,5.0105351 -58.421243,5.0840133 -58.4559504,5.1589402 -58.4902765,5.2353586 -58.5242231,5.3133135 -58.5577917,5.3928513 -58.590984,5.4740205 -58.6238011,5.5568716 -58.6562444,5.641457 -58.6883147,5.7278316 -58.7200129,5.8160524 -58.7513398,5.9061791 -58.7822957,5.9982738 -58.8128811,6.0924014 -58.8430961,6.1886297 -58.8729406,6.2870295 -58.9024144,6.3876749 -58.9315171,6.4906434 -58.945929,6.5430239 -58.9602479,6.596016 -58.9744735,6.6496303 -58.9886059,6.7038778 -59.0026448,6.7587697 -59.0165901,6.8143176 -59.0304416,6.8705332 -59.0441991,6.9274287 -59.0578624,6.9850163 -59.0714313,7.0433089 -59.0849055,7.1023193 -59.0982847,7.1620609 -59.1115688,7.2225473 -59.1247573,7.2837925 -59.13785,7.3458108 -59.1508465,7.4086169 -59.1637465,7.4722259 -59.1765496,7.5366533 -59.1892554,7.6019149 -59.2018634,7.6680269 -59.2143734,7.7350061 -59.2267847,7.8028696 -59.2390969,7.871635 -59.2513095,7.9413203 -59.2634219,8.0119442 -59.2754336,8.0835255 -59.287344,8.1560841 -59.2991526,8.2296398 -59.3108585,8.3042134 -59.3224612,8.3798261 -59.3339601,8.4564998 -59.3453542,8.5342569 -59.3566429,8.6131205 -59.3678255,8.6931143 -59.378901,8.7742627 -59.3898685,8.856591 -59.4007273,8.9401249 -59.4114764,9.0248911 -59.4221147,9.1109171 -59.4326413,9.1982311 -59.4430551,9.2868621 -59.4533551,9.3768403 -59.46354,9.4681964 -59.4736087,9.5609623 -59.48356,9.655171 -59.4933925,9.7508561 -59.5031049,9.8480528 -59.5126959,9.946797 -59.522164,10.047126 -59.5315077,10.1490782 -59.5407255,10.2526932 -59.5498156,10.3580119 -59.5587765,10.4650769 -59.5676063,10.5739316 -59.5763033,10.6846215 -59.5848655,10.7971932 -59.5932911,10.9116951 -59.6015778,11.0281771 -59.6097237,11.1466912 -59.6177264,11.2672908 -59.6255837,11.3900314 -59.6332932,11.5149706 -59.6408524,11.6421678 -59.6482586,11.7716848 -59.6519036,11.8373331 -59.6555093,11.9035855 -59.6590754,11.9704505 -59.6626015,12.0379365 -59.6660872,12.1060521 -59.6695323,12.1748064 -59.6729362,12.2442082 -59.6762987,12.3142668 -59.6796193,12.3849914 -59.6828975,12.4563918 -59.686133,12.5284775 -59.6893254,12.6012585 -59.6924742,12.6747449 -59.6955789,12.7489469 -59.6986392,12.8238752 -59.7016545,12.8995403 -59.7046244,12.9759532 -59.7075483,13.0531251 -59.7104259,13.1310673 -59.7132565,13.2097913 -59.7160398,13.2893091 -59.7187751,13.3696326 -59.7214618,13.4507741 -59.7240996,13.5327462 -59.7266877,13.6155618 -59.7292257,13.6992339 -59.7317129,13.7837757 -59.7341488,13.8692011 -59.7365326,13.9555238 -59.7388639,14.0427582 -59.741142,14.1309186 -59.7433661,14.2200199 -59.7455357,14.3100773 -59.74765,14.4011062 -59.7497084,14.4931224 -59.7517101,14.5861421 -59.7536544,14.6801817 -59.7555405,14.7752581 -59.7573678,14.8713885 -59.7591353,14.9685906 -59.7608424,15.0668824 -59.7624881,15.1662822 -59.7640717,15.266809 -59.7655923,15.3684819 -59.7670489,15.4713208 -59.7684408,15.5753457 -59.7697669,15.6805772 -59.7710263,15.7870366 -59.7722181,15.8947453 -59.7733413,16.0037256 -59.7743948,16.114 -59.7753777,16.2255917 -59.7762888,16.3385245 -59.777127,16.4528227 -59.7778913,16.5685111 -59.7785804,16.6856154 -59.7791933,16.8041615 -59.7797286,16.9241764 -59.7801852,17.0456874 -59.7805618,17.1687228 -59.7808571,17.2933113 -59.7810698,17.4194826 -59.7811984,17.5472669 -59.7812416,17.6766955 -59.7812416,17.6766955 -59.7811984,17.8061113 -59.7810698,17.9338833 -59.7808572,18.0600424 -59.780562,18.1846191 -59.7801854,18.307643 -59.7797289,18.4291428 -59.7791937,18.5491467 -59.7785809,18.6676822 -59.7778919,18.784776 -59.7771278,18.9004543 -59.7762897,19.0147426 -59.7753788,19.1276657 -59.7743961,19.239248 -59.7733428,19.3495132 -59.7722198,19.4584845 -59.7710283,19.5661845 -59.7697691,19.6726354 -59.7684432,19.7778586 -59.7670516,19.8818754 -59.7655952,19.9847063 -59.7640749,20.0863715 -59.7624917,20.1868907 -59.7608462,20.2862832 -59.7591395,20.3845678 -59.7573722,20.4817629 -59.7555453,20.5778865 -59.7536595,20.6729562 -59.7517155,20.7669893 -59.7497142,20.8600026 -59.7476562,20.9520125 -59.7455422,21.0430354 -59.7433731,21.1330868 -59.7411493,21.2221824 -59.7388717,21.3103372 -59.7365408,21.397566 -59.7341574,21.4838834 -59.731722,21.5693035 -59.7292352,21.6538402 -59.7266977,21.7375073 -59.72411,21.820318 -59.7214727,21.9022853 -59.7187863,21.9834222 -59.7160515,22.0637412 -59.7132688,22.1432545 -59.7104386,22.2219742 -59.7075616,22.2999121 -59.7046381,22.3770799 -59.7016687,22.4534888 -59.6986539,22.52915 -59.6955942,22.6040744 -59.69249,22.6782727 -59.6893417,22.7517554 -59.6861499,22.8245328 -59.6829149,22.8966151 -59.6796372,22.968012 -59.6763173,23.0387334 -59.6729554,23.1087887 -59.669552,23.1781873 -59.6661075,23.2469385 -59.6626223,23.3150511 -59.6590968,23.3825342 -59.6555313,23.4493962 -59.6519262,23.5156459 -59.6482819,23.5812915 -59.6408769,23.7108032 -59.633319,23.8379954 -59.6256107,23.9629298 -59.6177547,24.0856659 -59.6097533,24.2062612 -59.6016088,24.3247711 -59.5933234,24.4412493 -59.5848992,24.5557475 -59.5763384,24.6683157 -59.5676428,24.7790022 -59.5588144,24.8878538 -59.549855,24.9949157 -59.5407663,25.1002317 -59.5315501,25.203844 -59.5222079,25.3057936 -59.5127413,25.4061202 -59.5031518,25.5048622 -59.4934409,25.6020567 -59.48361,25.6977399 -59.4736603,25.7919466 -59.4635932,25.8847108 -59.4534099,25.9760652 -59.4431116,26.0660418 -59.4326995,26.1546714 -59.4221745,26.241984 -59.4115379,26.3280087 -59.4007905,26.4127738 -59.3899335,26.4963066 -59.3789676,26.5786339 -59.3678939,26.6597814 -59.3567131,26.7397743 -59.3454262,26.8186371 -59.3340338,26.8963935 -59.3225368,26.9730665 -59.3109359,27.0486787 -59.2992318,27.1232518 -59.2874252,27.1968071 -59.2755166,27.2693652 -59.2635068,27.3409462 -59.2513963,27.4115698 -59.2391856,27.4812549 -59.2268754,27.5500201 -59.214466,27.6178835 -59.2019581,27.6848626 -59.189352,27.7509746 -59.1766482,27.8162361 -59.1638472,27.8806635 -59.1509492,27.9442726 -59.1379547,28.0070789 -59.1248641,28.0690974 -59.1116777,28.1303427 -59.0983958,28.1908294 -59.0850187,28.2505712 -59.0715466,28.3095819 -59.0579799,28.3678748 -59.0443188,28.4254628 -59.0305635,28.4823587 -59.0167142,28.5385747 -59.0027711,28.594123 -58.9887344,28.6490154 -58.9746043,28.7032633 -58.9603809,28.7568781 -58.9460643,28.8098707 -58.9316547,28.8622519 -58.9025567,28.9652215 -58.8730877,29.0658681 -58.843248,29.1642692 -58.8130379,29.2604989 -58.7824574,29.3546279 -58.7515065,29.446724 -58.7201848,29.5368523 -58.6884917,29.6250747 -58.6564267,29.7114509 -58.6239888,29.796038 -58.5911771,29.8788907 -58.5579903,29.9600616 -58.5244273,30.0396012 -58.4904864,30.1175578 -58.456166,30.1939781 -58.4214645,30.2689068 -58.3863798,30.3423868 -58.3509099,30.4144596 -58.3150527,30.4851649 -58.2788058,30.554541 -58.2421667,30.6226249 -58.2051329,30.689452 -58.1677016,30.7550567 -58.1298699,30.8194718 -58.091635,30.8827293 -58.0529936,30.9448598 -58.0139425,31.005893 -57.9744784,31.0658573 -57.9345978,31.1247804 -57.8942969,31.182689 -57.8535722,31.2396087 -57.8124197,31.2955646 -57.7708353,31.3505805 -57.7288151,31.4046797 -57.6863546,31.4578848 -57.6434495,31.5102174 -57.6000953,31.5616986 -57.5562874,31.6123488 -57.5120209,31.6621877 -57.467291,31.7112344 -57.4220925,31.7595074 -57.3764203,31.8070245 -57.3302691,31.8538033 -57.2836334,31.8998604 -57.2365076,31.9452122 -57.188886,31.9898746 -57.1407626,32.033863 -57.0921314,32.0771921 -57.0429863,32.1198764 -56.9933209,32.1619301 -56.9431287,32.2033667 -56.8924031,32.2441994 -56.8411372,32.2844411 -56.7893241,32.3241042 -56.7369567,32.363201 -56.6840276,32.4017431 -56.6305294,32.4397421 -56.5764544,32.4772091 -56.5217949,32.5141548 -56.4665427,32.55059 -56.4106897,32.5865247 -56.3542276,32.6219689 -56.2971477,32.6569324 -56.2394412,32.6914246 -56.1810993,32.7254547 -56.1221127,32.7590316 -56.062472,32.792164 -56.0021676,32.8248605 -55.9411896,32.8571292 -55.8795281,32.8889783 -55.8171727,32.9204156 -55.7541129,32.9514486 -55.6903378,32.982085 -55.6258366,33.0123319 -55.5605979,33.0421964 -55.4946101,33.0716854 -55.4278615,33.1008056 -55.3603399,33.1295636 -55.2920329,33.1579659 -55.222928,33.1860186 -55.1530121,33.2137278 -55.082272,33.2410995 -55.010694,33.2681395 -54.9382643,33.2948534 -54.8649686,33.3212468 -54.7907923,33.3473251 -54.7157204,33.3730935 -54.6397376,33.3985572 -54.5628284,33.4237212 -54.4849765,33.4485904 -54.4061655,33.4731696 -54.3263786,33.4974635 -54.2455985,33.5214766 -54.1638074,33.5452134 -54.0809872,33.5686782 -53.9971192,33.5918754 -53.9121844,33.6148091 -53.8261632,33.6374833 -53.7390354,33.659902 -53.6507806,33.6820692 -53.5613775,33.7039885 -53.4708045,33.7256638 -53.3790393,33.7470986 -53.2860591,33.7682965 -53.1918404,33.7892609 -53.0963593,33.8099953 -52.9995908,33.8305029 -52.9015098,33.8507871 -52.8020901,33.8708508 -52.7013049,33.8906973 -52.5991268,33.9103295 -52.4955274,33.9297505 -52.3904777,33.948963 -52.2839479,33.9679699 -52.1759071,33.9867741 -52.0663239,34.005378 -51.9551657,34.0237845 -51.8423991,34.0419961 -51.7279897,34.0600152 -51.6119022,34.0778444 -51.4941,34.095486 -51.3745458,34.1129424 -51.2532008,34.1302158 -51.1300253,34.1473086 -51.0049782,34.1642228 -50.8780174,34.1809606 -50.7490994,34.1975242 -50.6181792,34.2139154 -50.4852107,34.2301363 -50.350146,34.2461888 -50.2129359,34.2620748 -50.0735298,34.2777962 -49.931875,34.2933546 -49.7879176,34.3087518 -49.6416017,34.3239896 -49.5675413,34.3315492 -49.4928695,34.3390695 -49.4175788,34.3465508 -49.3416614,34.3539932 -49.2651097,34.3613969 -49.1879158,34.3687621 -49.1100716,34.3760891 -49.031569,34.3833779 -48.9523997,34.3906288 -48.8725552,34.3978419 -48.7920269,34.4050174 -48.7108062,34.4121556 -48.6288841,34.4192565 -48.5462516,34.4263203 -48.4628995,34.4333473 -48.3788184,34.4403374 -48.2939989,34.447291 -48.2084313,34.4542082 -48.1221056,34.4610891 -48.0350119,34.4679338 -47.94714,34.4747426 -47.8584795,34.4815155 -47.7690198,34.4882528 -47.6787501,34.4949544 -47.5876595,34.5016207 -47.4957368,34.5082517 -47.4029706,34.5148475 -47.3093495,34.5214083 -47.2148615,34.5279342 -47.1194947,34.5344253 -47.0232369,34.5408817 -46.9260756,34.5473036 -46.8279981,34.5536911 -46.7289915,34.5600442 -46.6290426,34.5663632 -46.5281379,34.572648 -46.4262639,34.5788988 -46.3234065,34.5851157 -46.2195516,34.5912988 -46.1146845,34.5974482 -46.0087907,34.6035639 -45.9018549,34.6096461 -45.7938619,34.6156948 -45.6847959,34.6217102 -45.5746411,34.6276922 -45.463381,34.633641 -45.3509991,34.6395567 -45.2374784,34.6454392 -45.1228016,34.6512888 -45.006951,34.6571053 -44.8899086,34.662889 -44.7716561,34.6686398 -44.6521746,34.6743578 -44.531445,34.6800431 -44.4094478,34.6856956 -44.2861628,34.6913154 -44.1615698,34.6969027 -44.0356479,34.7024573 -43.9083759,34.7079793 -43.7797319,34.7134688 -43.6496937,34.7189258 -43.5182388,34.7243503 -43.3853439,34.7297422 -43.2509852,34.7351017 -43.1151387,34.7404287 -42.9777794,34.7457232 -42.8388822,34.7509853 -42.6984211,34.7562148 -42.5563696,34.7614119 -42.4127008,34.7665764 -42.2673869,34.7717084 -42.1203995,34.7768079 -41.9717098,34.7818747 -41.8212881,34.786909 -41.6691039,34.7919105 -41.5151264,34.7968794 -41.3593236,34.8018155 -41.2016631,34.8067187 -41.0421114,34.8115891 -40.8806346,34.8164266 -40.7171976,34.821231 -40.5517646,34.8260024 -40.3842989,34.8307405 -40.2147629,34.8354455 -40.0431182,34.840117 -39.8693252,34.8447551 -39.6933434,34.8493596 -39.5151313,34.8539304 -39.3346465,34.8584674 -39.1518451,34.8629705 -38.9666825,34.8674395 -38.8732014,34.8696612 -38.7791127,34.8718743 -38.6844104,34.8740788 -38.5890886,34.8762747 -38.4931411,34.878462 -38.3965617,34.8806406 -38.2993443,34.8828105 -38.2014825,34.8849718 -38.1029698,34.8871243 -38.0037999,34.8892681 -37.903966,34.8914031 -37.8034615,34.8935293 -37.7022797,34.8956468 -37.6004137,34.8977553 -37.4978565,34.8998551 -37.3946011,34.9019459 -37.2906404,34.9040278 -37.1859671,34.9061008 -37.0805739,34.9081648 -36.9744533,34.9102197 -36.8675979,34.9122657 -36.7599999,34.9143026 -36.6516516,34.9163304 -36.5425451,34.9183491 -36.4326725,34.9203587 -36.3220257,34.922359 -36.2105965,34.9243502 -36.0983766,34.926332 -35.9853575,34.9283046 -35.8715307,34.9302679 -35.7568875,34.9322218 -35.6414191,34.9341663 -35.5251166,34.9361014 -35.407971,34.938027 -35.289973,34.9399431 -35.1711133,34.9418497 -35.0513825,34.9437466 -34.9307709,34.945634 -34.8092689,34.9475116 -34.6868666,34.9493795 -34.5635538,34.9512377 -34.4393205,34.953086 -34.3141563,34.9549245 -34.1880507,34.9567531 -34.0609931,34.9585718 -33.9329726,34.9603804 -33.8039784,34.962179 -33.6739992,34.9639675 -33.5430237,34.9657458 -33.4110406,34.967514 -33.278038,34.9692719 -33.1440042,34.9710194 -33.0089271,34.9727566 -32.8727946,34.9744834 -32.7355942,34.9761997 -32.5973134,34.9779054 -32.4579392,34.9796006 -32.3174588,34.981285 -32.175859,34.9829588 -32.0331262,34.9846217 -31.8892469,34.9862738 -31.7442072,34.9879149 -31.5979931,34.9895451 -31.4505902,34.9911642 -31.3019839,34.9927722 -31.1521596,34.9943689 -31.0011022,34.9959544 -30.8487965,34.9975285 -30.6952268,34.9990912 -30.5403774,35.0006424 -30.3842323,35.0021819 -30.2267752,35.0037098 -30.0679895,35.005226 -29.9078582,35.0067303 -29.7463643,35.0082227 -29.5834903,35.0097031 -29.4192184,35.0111714 -29.2535307,35.0126275 -29.0864086,35.0140713 -28.9178336,35.0155027 -28.7477866,35.0169216 -28.5762483,35.018328 -28.403199,35.0197217 -28.2286186,35.0211026 -28.0524868,35.0224706 -27.8747828,35.0238256 -27.6954855,35.0251676 -27.5145734,35.0264963 -27.3320245,35.0278117 -27.1478167,35.0291136 -26.9619271,35.030402 -26.7743327,35.0316767 -26.5850099,35.0329377 -26.3939348,35.0341846 -26.2010829,35.0354176 -26.0064294,35.0366363 -25.8099489,35.0378408 -25.6116155,35.0390307 -25.4114031,35.0402061 -25.2092847,35.0413668 -25.005233,35.0425125 -24.7992202,35.0436433 -24.5912179,35.0447588 -24.3811972,35.0458591 -24.1691285,35.0469438 -23.9549818,35.0480129 -23.7387264,35.0490662 -23.520331,35.0501035 -23.2997637,35.0511247 -23.076992,35.0521295 -23.076992,35.0521295 -23.0508937,35.0467553 -23.0249906,35.0408064 -22.9992866,35.0342716 -22.9737856,35.0271396 -22.9484915,35.0193989 -22.9234079,35.0110383 -22.8985389,35.0020465 -22.8738883,34.9924121 -22.8494599,34.9821239 -22.8252576,34.9711704 -22.8012852,34.9595405 -22.777627,34.9472662 -22.7543925,34.934406 -22.7315751,34.920964 -22.7091675,34.9069435 -22.6871626,34.8923483 -22.665553,34.8771818 -22.6443316,34.8614477 -22.6234909,34.8451495 -22.6030239,34.8282907 -22.5829231,34.810875 -22.5631877,34.7929118 -22.5438599,34.7744548 -22.524941,34.7555241 -22.4882906,34.7162824 -22.4531586,34.675268 -22.4194669,34.6325622 -22.3871377,34.5882463 -22.3560927,34.5424018 -22.326254,34.4951099 -22.2975437,34.446452 -22.2698836,34.3965093 -22.2431958,34.3453633 -22.2173993,34.2930863 -22.1924104,34.2397353 -22.1681548,34.1853876 -22.1445586,34.1301217 -22.1215477,34.0740163 -22.0990483,34.0171498 -22.0769864,33.9596009 -22.0338795,33.8427702 -21.9916354,33.7241526 -21.9496628,33.6043766 -21.90737,33.4840708 -21.8641658,33.3638638 -21.8194585,33.2443842 -21.7963564,33.1851135 -21.7726567,33.1262604 -21.7482934,33.0679208 -21.7232102,33.0102088 -21.6973311,32.9531882 -21.6705787,32.8969204 -21.6428757,32.8414672 -21.614145,32.78689 -21.5843093,32.7332503 -21.5532912,32.6806098 -21.5210136,32.62903 -21.4873992,32.5785725 -21.4523707,32.5292987 -21.4158509,32.4812704 -21.3779476,32.4347684 -21.3387735,32.3900164 -21.2982725,32.3470075 -21.2563887,32.3057346 -21.213066,32.2661908 -21.1682484,32.2283691 -21.1218799,32.1922626 -21.0739044,32.1578641 -21.0242658,32.1251669 -20.9988054,32.109454 -20.9729082,32.0941638 A1.25,1.25 240 0,1 -19.7229082,32.0941638 L-19.7229082,32.0941638 -19.6689764,32.1266074 -19.6165182,32.1608478 -19.5655234,32.1969444 -19.5405716,32.2157074 -19.5159816,32.2349567 -19.4917524,32.2546998 -19.4678824,32.2749441 -19.4443706,32.295697 -19.4212155,32.316966 -19.3984172,32.3387572 -19.3760681,32.3609823 -19.3542172,32.3835833 -19.332854,32.4065581 -19.2915489,32.4536203 -19.2520693,32.5021518 -19.2143315,32.5521352 -19.1782519,32.6035534 -19.143759,32.6563696 -19.1109214,32.7103031 -19.0796898,32.765214 -19.049966,32.8210346 -19.0216517,32.8776974 -18.9946488,32.9351345 -18.9688592,32.9932784 -18.9441845,33.0520613 -18.9205267,33.1114156 -18.8977876,33.1712736 -18.8758688,33.2315677 -18.8546723,33.2922302 -18.8140576,33.4143765 -18.7752155,33.536979 -18.7373964,33.6593444 -18.6998371,33.7808186 -18.6617742,33.9007473 -18.6423154,33.9599277 -18.6224445,34.0184764 -18.602066,34.0763117 -18.5810847,34.1333517 -18.5594049,34.1895146 -18.5369315,34.2447188 -18.5135689,34.2988823 -18.4891555,34.3520625 -18.463319,34.4046886 -18.4359146,34.4566245 -18.406825,34.5076719 -18.3759329,34.5576323 -18.3597742,34.582143 -18.3431209,34.6063075 -18.3259584,34.630101 -18.308272,34.6534989 -18.290047,34.6764762 -18.2712687,34.6990082 -18.2519337,34.7210581 -18.2321301,34.7425009 -18.2118717,34.7633069 -18.1911484,34.7834732 -18.16995,34.8029971 -18.1482665,34.8218759 -18.1260878,34.8401069 -18.1034037,34.8576872 -18.0802042,34.8746142 -18.0564792,34.8908852 -18.0322185,34.9064973 -18.0074121,34.9214478 -17.9820498,34.935734 -17.9561342,34.9493466 -17.9298608,34.9621846 -17.9033097,34.9742287 -17.876494,34.9854971 -17.8494266,34.9960083 -17.8221205,35.0057807 -17.7945887,35.0148327 -17.7668441,35.0231825 -17.7388997,35.0308486 -17.7107685,35.0378494 -17.6824634,35.0442032 -17.6539975,35.0499284 -17.6253838,35.0550434 -17.5677646,35.0635163 -17.5097096,35.0697689 -17.5097096,35.0697689 -17.3089801,35.070173 -17.1066447,35.0705662 -16.902684,35.0709484 -16.6970783,35.0713194 -16.4898077,35.0716793 -16.2808519,35.0720278 -16.0701902,35.0723649 -15.8578018,35.0726904 -15.6436652,35.0730042 -15.4277589,35.0733063 -15.2100608,35.0735964 -14.9905485,35.0738745 -14.7691992,35.0741404 -14.5459898,35.074394 -14.3208968,35.0746351 -14.0938963,35.0748637 -13.8649638,35.0750796 -13.6340747,35.0752827 -13.4012037,35.0754728 -13.1663253,35.0756498 -12.9294133,35.0758135 -12.6904413,35.0759639 -12.4493823,35.0761006 -12.2062088,35.0762237 -11.9608929,35.0763329 -11.7134062,35.0764281 -11.4637197,35.0765091 -11.2118041,35.0765757 -10.9576292,35.0766279 -10.7011646,35.0766653 -10.4423793,35.0766879 -10.1812416,35.0766955 -10.1812416,35.0766955 -9.9868115,35.0766817 -9.7935388,35.0766405 -9.6014133,35.076572 -9.4104248,35.0764765 -9.2205633,35.0763541 -9.031819,35.076205 -8.844182,35.0760293 -8.6576426,35.0758273 -8.4721913,35.0755992 -8.2878187,35.075345 -8.1045153,35.075065 -7.922272,35.0747593 -7.7410797,35.0744281 -7.5609293,35.0740715 -7.3818119,35.0736898 -7.2037186,35.0732831 -7.0266408,35.0728515 -6.8505699,35.0723951 -6.6754973,35.0719142 -6.5014146,35.071409 -6.3283134,35.0708794 -6.1561856,35.0703257 -5.985023,35.0697481 -5.8148175,35.0691467 -5.6455611,35.0685215 -5.4772461,35.0678728 -5.3098646,35.0672008 -5.1434088,35.0665054 -4.9778712,35.0657869 -4.8132443,35.0650455 -4.6495205,35.0642811 -4.4866926,35.0634941 -4.3247532,35.0626844 -4.1636951,35.0618523 -4.0035112,35.0609977 -3.8441944,35.060121 -3.6857377,35.0592222 -3.5281343,35.0583014 -3.3713772,35.0573587 -3.2154598,35.0563942 -3.0603753,35.0554082 -2.9061172,35.0544006 -2.7526788,35.0533716 -2.6000537,35.0523214 -2.4482355,35.0512499 -2.2972179,35.0501574 -2.1469946,35.0490439 -1.9975593,35.0479096 -1.8489059,35.0467546 -1.7010283,35.0455789 -1.5539206,35.0443827 -1.4075767,35.043166 -1.2619908,35.041929 -1.1171569,35.0406718 -0.9730695,35.0393944 -0.8297227,35.038097 -0.6871108,35.0367797 -0.5452283,35.0354425 -0.4040697,35.0340856 -0.2636293,35.032709 -0.1239019,35.0313129 0.0151179,35.0298973 0.1534356,35.0284623 0.2910563,35.027008 0.4279853,35.0255345 0.5642278,35.0240419 0.6997887,35.0225303 0.8346734,35.0209997 0.9688866,35.0194502 1.1024334,35.017882 1.2353188,35.0162951 1.3675475,35.0146895 1.4991244,35.0130654 1.6300543,35.0114228 1.7603419,35.0097619 1.8899918,35.0080826 2.0190088,35.0063852 2.1473973,35.0046695 2.2751619,35.0029358 2.4023072,35.0011841 2.5288376,34.9994144 2.6547575,34.9976269 2.7800713,34.9958216 2.9047832,34.9939985 3.1524189,34.9902996 3.3976983,34.9865305 3.6406547,34.9826919 3.8813206,34.9787843 4.119728,34.9748082 4.3559082,34.970764 4.589892,34.9666523 4.8217097,34.9624735 5.0513909,34.9582281 5.2789647,34.9539166 5.5044597,34.9495393 5.7279041,34.9450967 5.9493253,34.9405892 6.1687505,34.9360172 6.3862062,34.9313811 6.6017187,34.9266813 6.8153134,34.9219182 7.0270158,34.9170922 7.2368505,34.9122035 7.4448418,34.9072526 7.6510137,34.9022398 7.8553898,34.8971653 8.057993,34.8920297 8.2588461,34.886833 8.4579714,34.8815758 8.6553908,34.8762581 8.851126,34.8708805 9.045198,34.865443 9.2376278,34.8599461 9.4284358,34.8543899 9.6176423,34.8487748 9.8052669,34.8431009 9.9913293,34.8373686 10.1758485,34.831578 10.3588435,34.8257294 10.5403328,34.8198231 10.7203346,34.8138592 10.898867,34.8078379 11.0759475,34.8017595 11.2515935,34.7956242 11.4258222,34.7894321 11.5986503,34.7831834 11.7700946,34.7768784 11.9401711,34.7705171 12.1088961,34.7640999 12.2762852,34.7576267 12.4423541,34.7510978 12.607118,34.7445134 12.770592,34.7378735 12.9327909,34.7311784 13.0937295,34.7244281 13.2534219,34.7176228 13.4118824,34.7107626 13.569125,34.7038476 13.7251634,34.6968781 13.8800111,34.6898539 14.0336815,34.6827754 14.1861876,34.6756425 14.3375424,34.6684553 14.4877586,34.6612141 14.6368488,34.6539187 14.7848254,34.6465694 14.9317006,34.6391662 15.0774862,34.6317092 15.2221942,34.6241984 15.3658363,34.616634 15.5084238,34.6090159 15.6499682,34.6013442 15.7904806,34.593619 15.929972,34.5858404 16.0684532,34.5780083 16.2059349,34.5701228 16.3424276,34.562184 16.4779418,34.5541919 16.6124877,34.5461464 16.7460753,34.5380477 16.8787147,34.5298958 17.0104156,34.5216906 17.1411877,34.5134322 17.2710405,34.5051206 17.3999836,34.4967558 17.5280261,34.4883378 17.6551771,34.4798666 17.7814459,34.4713421 17.9068411,34.4627645 18.0313717,34.4541336z" transform="matrix(1,0,0,-1,60.6812416,35.6766955)" fill="rgb(255,255,255)" stroke="rgb(0,0,0)" stroke-width="0.0010cm" stroke-linecap="round" stroke-linejoin="round" /><path d="M57.4237584,33.1766955 a0.395,0.395 0 1,1 0.79,0 a0.395,0.395 0 1,1 -0.79,0z" transform="matrix(1,0,0,-1,60.6812416,35.6766955)" fill="rgb(255,255,255)" stroke="rgb(0,0,0)" stroke-width="0.0010cm" stroke-linecap="round" stroke-linejoin="round" /><path d="M19.5904251,33.1766955 a0.395,0.395 0 1,1 0.79,0 a0.395,0.395 0 1,1 -0.79,0z" transform="matrix(1,0,0,-1,60.6812416,35.6766955)" fill="rgb(255,255,255)" stroke="rgb(0,0,0)" stroke-width="0.0010cm" stroke-linecap="round" stroke-linejoin="round" /><path d="M19.5904251,2.1766955 a0.395,0.395 0 1,1 0.79,0 a0.395,0.395 0 1,1 -0.79,0z" transform="matrix(1,0,0,-1,60.6812416,35.6766955)" fill="rgb(255,255,255)" stroke="rgb(0,0,0)" stroke-width="0.0010cm" stroke-linecap="round" stroke-linejoin="round" /><path d="M-58.5762416,33.1766955 a0.395,0.395 0 1,1 0.79,0 a0.395,0.395 0 1,1 -0.79,0z" transform="matrix(1,0,0,-1,60.6812416,35.6766955)" fill="rgb(255,255,255)" stroke="rgb(0,0,0)" stroke-width="0.0010cm" stroke-linecap="round" stroke-linejoin="round" /><path d="M-20.7429082,2.1766955 a0.395,0.395 0 1,1 0.79,0 a0.395,0.395 0 1,1 -0.79,0z" transform="matrix(1,0,0,-1,60.6812416,35.6766955)" fill="rgb(255,255,255)" stroke="rgb(0,0,0)" stroke-width="0.0010cm" stroke-linecap="round" stroke-linejoin="round" /><path d="M57.4237584,2.1766955 a0.395,0.395 0 1,1 0.79,0 a0.395,0.395 0 1,1 -0.79,0z" transform="matrix(1,0,0,-1,60.6812416,35.6766955)" fill="rgb(255,255,255)" stroke="rgb(0,0,0)" stroke-width="0.0010cm" stroke-linecap="round" stroke-linejoin="round" /><path d="M-20.7429082,33.1766955 a0.395,0.395 0 1,1 0.79,0 a0.395,0.395 0 1,1 -0.79,0z" transform="matrix(1,0,0,-1,60.6812416,35.6766955)" fill="rgb(255,255,255)" stroke="rgb(0,0,0)" stroke-width="0.0010cm" stroke-linecap="round" stroke-linejoin="round" /><path d="M-58.5762416,2.1766955 a0.395,0.395 0 1,1 0.79,0 a0.395,0.395 0 1,1 -0.79,0z" transform="matrix(1,0,0,-1,60.6812416,35.6766955)" fill="rgb(255,255,255)" stroke="rgb(0,0,0)" stroke-width="0.0010cm" stroke-linecap="round" stroke-linejoin="round" /></svg>