<?xml version="1.0" encoding="UTF-8" standalone="no"?>
<!-- Generator: Fusion 360, Shaper Origin Export Add-In, Version 1.8.0  -->

<svg
   shaper:fusionaddin="version:1.8.0"
   width="128cm"
   height="36cm"
   version="1.1"
   x="0cm"
   y="0cm"
   viewBox="0 0 128 36"
   enable-background="new 0 0 128 36"
   xml:space="preserve"
   id="svg15067"
   sodipodi:docname="corpus_1_Faces.svg"
   inkscape:version="1.2.2 (732a01da63, 2022-12-09)"
   xmlns:inkscape="http://www.inkscape.org/namespaces/inkscape"
   xmlns:sodipodi="http://sodipodi.sourceforge.net/DTD/sodipodi-0.dtd"
   xmlns="http://www.w3.org/2000/svg"
   xmlns:svg="http://www.w3.org/2000/svg"
   xmlns:shaper="http://www.shapertools.com/namespaces/shaper"><defs
     id="defs15071" /><sodipodi:namedview
     id="namedview15069"
     pagecolor="#505050"
     bordercolor="#eeeeee"
     borderopacity="1"
     inkscape:showpageshadow="0"
     inkscape:pageopacity="0"
     inkscape:pagecheckerboard="0"
     inkscape:deskcolor="#505050"
     inkscape:document-units="cm"
     showgrid="false"
     inkscape:zoom="0.27078451"
     inkscape:cx="2306.2619"
     inkscape:cy="976.79149"
     inkscape:window-width="1920"
     inkscape:window-height="991"
     inkscape:window-x="-9"
     inkscape:window-y="-9"
     inkscape:window-maximized="1"
     inkscape:current-layer="svg15067" /><g
     id="g15208"
     style="fill:none;stroke:#000000;stroke-opacity:1;stroke-width:0.1;stroke-dasharray:none"><path
       d="M62.5368406,-23.8817068 L45.8368406,-23.8817068 A1,1 270 0,0 44.8368406,-22.8817068 L44.8368406,-7.2817068 A1,1 180 0,0 45.8368406,-6.2817068 L62.5368406,-6.2817068 62.5368406,-4.2817068 62.8368406,-4.2817068 62.8368406,1.5182932 A1.4,1.4 0 0,1 61.4368406,2.9182932 L-63.7631594,2.9182932 A1.4,1.4 90 0,1 -65.1631594,1.5182932 L-65.1631594,-31.6817068 A1.4,1.4 180 0,1 -63.7631594,-33.0817068 L61.4368406,-33.0817068 A1.4,1.4 270 0,1 62.8368406,-31.6817068 L62.8368406,-25.8817068 62.5368406,-25.8817068 62.5368406,-23.8817068z"
       transform="matrix(1,0,0,-1,65.1631594,2.9182932)"
       fill="rgb(0,0,0)"
       stroke-linecap="round"
       stroke-linejoin="round"
       id="path15031"
       style="fill:none;stroke:#000000;stroke-opacity:1;stroke-width:0.1;stroke-dasharray:none" /><path
       d="M19.760174,-30.5817068 a0.41,0.41 0 1,1 0.82,0 a0.41,0.41 0 1,1 -0.82,0z"
       transform="matrix(1,0,0,-1,65.1631594,2.9182932)"
       fill="rgb(255,255,255)"
       stroke="rgb(0,0,0)"
       stroke-width="0.0010cm"
       stroke-linecap="round"
       stroke-linejoin="round"
       id="path15033"
       style="fill:none;stroke:#000000;stroke-opacity:1;stroke-width:0.1;stroke-dasharray:none" /><path
       d="M-63.0731594,-30.5817068 a0.41,0.41 0 1,1 0.82,0 a0.41,0.41 0 1,1 -0.82,0z"
       transform="matrix(1,0,0,-1,65.1631594,2.9182932)"
       fill="rgb(255,255,255)"
       stroke="rgb(0,0,0)"
       stroke-width="0.0010cm"
       stroke-linecap="round"
       stroke-linejoin="round"
       id="path15035"
       style="fill:none;stroke:#000000;stroke-opacity:1;stroke-width:0.1;stroke-dasharray:none" /><path
       d="M-63.0731594,0.4182932 a0.41,0.41 0 1,1 0.82,0 a0.41,0.41 0 1,1 -0.82,0z"
       transform="matrix(1,0,0,-1,65.1631594,2.9182932)"
       fill="rgb(255,255,255)"
       stroke="rgb(0,0,0)"
       stroke-width="0.0010cm"
       stroke-linecap="round"
       stroke-linejoin="round"
       id="path15037"
       style="fill:none;stroke:#000000;stroke-opacity:1;stroke-width:0.1;stroke-dasharray:none" /><path
       d="M59.9268406,-30.5817068 a0.41,0.41 0 1,1 0.82,0 a0.41,0.41 0 1,1 -0.82,0z"
       transform="matrix(1,0,0,-1,65.1631594,2.9182932)"
       fill="rgb(255,255,255)"
       stroke="rgb(0,0,0)"
       stroke-width="0.0010cm"
       stroke-linecap="round"
       stroke-linejoin="round"
       id="path15039"
       style="fill:none;stroke:#000000;stroke-opacity:1;stroke-width:0.1;stroke-dasharray:none" /><path
       d="M-22.9064927,-30.5817068 a0.41,0.41 0 1,1 0.82,0 a0.41,0.41 0 1,1 -0.82,0z"
       transform="matrix(1,0,0,-1,65.1631594,2.9182932)"
       fill="rgb(255,255,255)"
       stroke="rgb(0,0,0)"
       stroke-width="0.0010cm"
       stroke-linecap="round"
       stroke-linejoin="round"
       id="path15041"
       style="fill:none;stroke:#000000;stroke-opacity:1;stroke-width:0.1;stroke-dasharray:none" /><path
       d="M-22.9064927,0.4182932 a0.41,0.41 0 1,1 0.82,0 a0.41,0.41 0 1,1 -0.82,0z"
       transform="matrix(1,0,0,-1,65.1631594,2.9182932)"
       fill="rgb(255,255,255)"
       stroke="rgb(0,0,0)"
       stroke-width="0.0010cm"
       stroke-linecap="round"
       stroke-linejoin="round"
       id="path15043"
       style="fill:none;stroke:#000000;stroke-opacity:1;stroke-width:0.1;stroke-dasharray:none" /><path
       d="M19.760174,0.4182932 a0.41,0.41 0 1,1 0.82,0 a0.41,0.41 0 1,1 -0.82,0z"
       transform="matrix(1,0,0,-1,65.1631594,2.9182932)"
       fill="rgb(255,255,255)"
       stroke="rgb(0,0,0)"
       stroke-width="0.0010cm"
       stroke-linecap="round"
       stroke-linejoin="round"
       id="path15045"
       style="fill:none;stroke:#000000;stroke-opacity:1;stroke-width:0.1;stroke-dasharray:none" /><path
       d="M59.9268406,0.4182932 a0.41,0.41 0 1,1 0.82,0 a0.41,0.41 0 1,1 -0.82,0z"
       transform="matrix(1,0,0,-1,65.1631594,2.9182932)"
       fill="rgb(255,255,255)"
       stroke="rgb(0,0,0)"
       stroke-width="0.0010cm"
       stroke-linecap="round"
       stroke-linejoin="round"
       id="path15047"
       style="fill:none;stroke:#000000;stroke-opacity:1;stroke-width:0.1;stroke-dasharray:none" /><path
       d="M38.6368406,-15.0817068 L38.6368406,-15.0817068 38.6360781,-15.137243 38.6337803,-15.1931085 38.6299316,-15.2493022 38.6245166,-15.3058229 38.6175197,-15.3626693 38.6089256,-15.41984 38.598719,-15.4773337 38.5868845,-15.5351488 38.573407,-15.5932837 38.5582713,-15.6517369 38.5414623,-15.7105064 38.5229651,-15.7695907 38.5027647,-15.8289877 38.4808463,-15.8886956 38.4571952,-15.9487123 38.4317969,-16.0090357 38.4046367,-16.0696636 38.3757004,-16.1305937 38.3449737,-16.1918238 38.3124424,-16.2533513 38.2780925,-16.3151738 38.2419101,-16.3772886 38.2038817,-16.4396931 38.1639935,-16.5023846 38.1222321,-16.5653602 38.0785845,-16.628617 38.0330374,-16.692152 37.9855779,-16.755962 37.9361934,-16.820044 37.8848714,-16.8843946 37.8315994,-16.9490105 37.7763655,-17.0138882 37.7191576,-17.0790243 37.6599641,-17.1444152 37.5987735,-17.2100571 37.5355745,-17.2759463 37.4703562,-17.3420789 37.4031078,-17.408451 37.3338188,-17.4750584 37.2624788,-17.5418972 37.1890779,-17.6089631 37.1136064,-17.6762518 37.0360548,-17.7437589 36.9564139,-17.8114799 36.8746749,-17.8794103 36.7908291,-17.9475454 36.7048682,-18.0158806 36.6167843,-18.084411 36.5265696,-18.1531318 36.4342169,-18.2220378 36.3397191,-18.2911242 36.2430695,-18.3603857 36.1442617,-18.4298171 36.0432898,-18.4994131 35.9401481,-18.5691683 35.8348311,-18.6390773 35.7273342,-18.7091344 35.6176525,-18.7793342 35.505782,-18.8496708 35.3917188,-18.9201386 35.2754595,-18.9907315 35.157001,-19.0614438 35.0363406,-19.1322693 34.9134761,-19.2032021 34.7884057,-19.274236 34.6611279,-19.3453647 34.5316417,-19.4165821 34.3999464,-19.4878816 34.2660419,-19.5592569 34.1299284,-19.6307016 33.9916066,-19.702209 33.8510776,-19.7737727 33.7083429,-19.8453858 33.5634045,-19.9170416 33.4162649,-19.9887335 33.2669269,-20.0604545 33.1153938,-20.1321978 32.9616695,-20.2039564 32.8057581,-20.2757233 32.6476644,-20.3474915 32.4873936,-20.4192539 32.3249512,-20.4910034 32.1603434,-20.5627328 31.9935767,-20.6344349 31.8246582,-20.7061024 31.6535953,-20.7777281 31.480396,-20.8493047 31.3050688,-20.9208247 31.1276225,-20.9922808 30.9480665,-21.0636657 30.7664108,-21.1349719 30.5826655,-21.2061918 30.3968416,-21.2773182 30.2089502,-21.3483435 30.0190032,-21.4192601 29.8270126,-21.4900606 29.6329912,-21.5607375 29.4369522,-21.6312832 29.238909,-21.7016901 29.0388759,-21.7719508 28.8368671,-21.8420577 28.6328979,-21.9120033 28.4269835,-21.98178 28.2191399,-22.0513803 28.0093833,-22.1207968 27.7977305,-22.1900218 27.5841988,-22.259048 27.3688057,-22.3278678 27.1515693,-22.3964739 26.9325082,-22.4648587 26.7116411,-22.5330149 26.4889875,-22.6009352 26.264567,-22.6686121 26.0383999,-22.7360385 25.8105065,-22.803207 25.580908,-22.8701103 25.3496255,-22.9367414 25.1166807,-23.0030931 24.8820958,-23.0691583 24.6458932,-23.1349298 24.4080956,-23.2004009 24.1687263,-23.2655644 23.9278086,-23.3304135 23.6853664,-23.3949415 23.4414239,-23.4591414 23.1960055,-23.5230067 22.9491361,-23.5865307 22.7008406,-23.6497068 22.4511446,-23.7125285 22.2000736,-23.7749895 21.9476537,-23.8370833 21.693911,-23.8988037 21.438872,-23.9601445 21.1825635,-24.0210996 20.9250124,-24.0816629 20.666246,-24.1418286 20.4062916,-24.2015907 20.145177,-24.2609435 19.8829299,-24.3198813 19.6195784,-24.3783985 19.3551508,-24.4364897 19.0896754,-24.4941495 18.8231807,-24.5513725 18.5556956,-24.6081536 18.2872489,-24.6644877 18.0178695,-24.7203697 17.7475866,-24.7757948 17.4764294,-24.8307582 17.2044272,-24.8852553 16.9316095,-24.9392814 16.6580057,-24.9928321 16.3836455,-25.045903 16.1085585,-25.0984899 15.8327743,-25.1505888 15.5563228,-25.2021954 15.2792336,-25.2533061 15.0015365,-25.3039169 14.7232614,-25.3540242 14.444438,-25.4036244 14.1650961,-25.4527142 13.8852656,-25.5012901 13.604976,-25.549349 13.3242571,-25.5968878 13.0431386,-25.6439035 12.7616501,-25.6903932 12.479821,-25.7363543 12.1976808,-25.7817841 11.9152589,-25.8266802 11.3496868,-25.9148616 10.7833374,-26.000881 10.2164416,-26.0847227 9.6492279,-26.1663731 9.0819223,-26.2458201 8.5147482,-26.3230539 7.9479259,-26.3980664 7.3816723,-26.4708511 7.0988257,-26.5064066 6.816201,-26.5414037 6.5338245,-26.5758421 6.2517219,-26.6097215 5.969919,-26.643042 5.688441,-26.6758036 5.4073132,-26.7080064 5.1265602,-26.7396507 4.8462068,-26.7707369 4.5662772,-26.8012654 4.2867954,-26.8312369 4.0077851,-26.8606519 3.7292698,-26.8895113 3.4512727,-26.9178158 3.1738165,-26.9455666 2.8969239,-26.9727647 2.620617,-26.9994111 2.3449177,-27.0255072 2.0698478,-27.0510543 1.7954285,-27.0760539 1.5216807,-27.1005074 1.2486251,-27.1244165 0.9762821,-27.1477828 0.7046716,-27.1706082 0.4338134,-27.1928945 0.1637267,-27.2146436 -0.1055694,-27.2358576 -0.3740563,-27.2565386 -0.6417156,-27.2766887 -0.9085293,-27.2963102 -1.1744797,-27.3154054 -1.4395496,-27.3339767 -1.7037219,-27.3520266 -1.9669801,-27.3695575 -2.2293078,-27.3865722 -2.490689,-27.4030732 -2.7511082,-27.4190633 -3.01055,-27.4345453 -3.2689996,-27.4495219 -3.5264423,-27.4639962 -3.782864,-27.4779711 -4.0382506,-27.4914495 -4.2925887,-27.5044346 -4.545865,-27.5169295 -4.7980666,-27.5289373 -5.0491809,-27.5404613 -5.2991958,-27.5515047 -5.5480994,-27.5620708 -5.79588,-27.572163 -6.0425266,-27.5817846 -6.2880281,-27.5909392 -6.5323741,-27.5996301 -6.7755543,-27.607861 -7.0175587,-27.6156352 -7.2583779,-27.6229564 -7.4980024,-27.6298283 -7.7364234,-27.6362544 -7.9736322,-27.6422384 -8.2096205,-27.647784 -8.4443802,-27.6528949 -8.6779037,-27.6575749 -8.9101834,-27.6618278 -9.1412124,-27.6656573 -9.3709838,-27.6690673 -9.5994911,-27.6720616 -9.826728,-27.674644 -10.0526886,-27.6768184 -10.2773673,-27.6785887 -10.5007587,-27.6799587 -10.7228576,-27.6809325 -10.9436594,-27.6815139 -11.1631594,-27.6817068 -11.1631594,-27.6817068 -11.422955,-27.681514 -11.6835856,-27.6809338 -11.9450416,-27.679963 -12.2073133,-27.6785988 -12.4703908,-27.6768381 -12.7342639,-27.6746782 -12.9989223,-27.672116 -13.2643554,-27.6691487 -13.5305525,-27.6657734 -13.7975027,-27.6619873 -14.0651948,-27.6577875 -14.3336174,-27.6531713 -14.6027589,-27.6481359 -14.8726077,-27.6426786 -15.1431518,-27.6367966 -15.4143789,-27.6304873 -15.6862767,-27.623748 -15.9588326,-27.616576 -16.2320339,-27.6089688 -16.5058675,-27.6009238 -16.7803203,-27.5924384 -17.0553789,-27.5835102 -17.3310296,-27.5741367 -17.6072588,-27.5643155 -17.8840523,-27.5540441 -18.161396,-27.5433203 -18.4392756,-27.5321416 -18.7176764,-27.5205058 -18.9965836,-27.5084106 -19.2759822,-27.4958539 -19.5558572,-27.4828335 -19.8361931,-27.4693473 -20.1169743,-27.4553931 -20.3981852,-27.440969 -20.6798097,-27.426073 -20.9618317,-27.4107031 -21.244235,-27.3948574 -21.527003,-27.3785342 -22.0935662,-27.3444477 -22.6613859,-27.3084299 -23.2303236,-27.2704678 -23.800238,-27.2305494 -24.3709855,-27.1886633 -24.9424194,-27.1447994 -25.5143909,-27.0989482 -26.0867486,-27.0511013 -26.6593387,-27.0012513 -27.2320053,-26.9493917 -27.8045903,-26.8955171 -28.3769338,-26.8396233 -28.9488737,-26.7817068 -29.5202463,-26.7217656 -30.0908862,-26.6597985 -30.6606267,-26.5958056 -31.2292993,-26.5297881 -31.5131823,-26.4960208 -31.7967347,-26.4617483 -32.0799352,-26.4269711 -32.3627623,-26.3916898 -32.6451946,-26.3559049 -32.9272106,-26.3196173 -33.2087886,-26.2828275 -33.4899071,-26.2455366 -33.7705445,-26.2077454 -34.050679,-26.1694549 -34.330289,-26.1306662 -34.6093529,-26.0913805 -34.8878487,-26.051599 -35.1657549,-26.011323 -35.4430496,-25.9705538 -35.7197111,-25.929293 -35.9957177,-25.8875421 -36.2710477,-25.8453026 -36.5456793,-25.8025763 -36.8195908,-25.759365 -37.0927607,-25.7156704 -37.3651672,-25.6714945 -37.6367887,-25.6268393 -37.9076038,-25.5817068 -38.1775909,-25.5360993 -38.4467286,-25.4900188 -38.7149954,-25.4434678 -38.9823701,-25.3964485 -39.2488313,-25.3489635 -39.514358,-25.3010153 -39.778929,-25.2526063 -40.0425232,-25.2037394 -40.3051199,-25.1544172 -40.566698,-25.1046426 -40.827237,-25.0544184 -41.0867162,-25.0037476 -41.3451151,-24.9526333 -41.6024133,-24.9010784 -41.8585905,-24.8490863 -42.1136267,-24.7966601 -42.3675017,-24.7438031 -42.6201958,-24.6905187 -42.8716891,-24.6368104 -43.1219623,-24.5826817 -43.3709957,-24.528136 -43.6187702,-24.4731772 -43.8652667,-24.4178088 -44.1104662,-24.3620347 -44.35435,-24.3058586 -44.5968994,-24.2492845 -44.8380962,-24.1923164 -45.0779221,-24.1349581 -45.3163591,-24.0772139 -45.5533893,-24.0190878 -45.7889952,-23.960584 -46.0231594,-23.9017068 -46.2558645,-23.8424605 -46.4870938,-23.7828493 -46.7168302,-23.7228778 -46.9450574,-23.6625504 -47.171759,-23.6018716 -47.396919,-23.5408459 -47.6205213,-23.4794779 -47.8425505,-23.4177724 -48.0629911,-23.355734 -48.281828,-23.2933674 -48.4990463,-23.2306774 -48.7146314,-23.167669 -48.9285689,-23.1043469 -49.1408446,-23.040716 -49.3514447,-22.9767814 -49.5603556,-22.9125479 -49.767564,-22.8480207 -49.9730568,-22.7832048 -50.1768211,-22.7181052 -50.3788445,-22.6527272 -50.5791147,-22.5870759 -50.7776198,-22.5211564 -50.9743481,-22.4549739 -51.1692882,-22.3885338 -51.3624289,-22.3218413 -51.5537594,-22.2549016 -51.7432692,-22.1877202 -51.9309481,-22.1203023 -52.1167861,-22.0526533 -52.3007735,-21.9847785 -52.4829009,-21.9166835 -52.6631594,-21.8483735 -52.84154,-21.779854 -53.0180344,-21.7111305 -53.1926344,-21.6422083 -53.365332,-21.5730931 -53.5361198,-21.5037902 -53.7049904,-21.4343051 -53.8719368,-21.3646433 -54.0369525,-21.2948103 -54.2000309,-21.2248116 -54.3611662,-21.1546527 -54.5203524,-21.084339 -54.6775841,-21.0138762 -54.8328562,-20.9432697 -54.9861638,-20.872525 -55.1375024,-20.8016476 -55.2868676,-20.730643 -55.4342555,-20.6595166 -55.5796626,-20.588274 -55.7230853,-20.5169205 -55.8645207,-20.4454618 -56.003966,-20.3739031 -56.1414186,-20.30225 -56.2768765,-20.2305078 -56.4103377,-20.158682 -56.5418007,-20.0867779 -56.6712641,-20.0148009 -56.7987269,-19.9427564 -56.9241884,-19.8706497 -57.0476481,-19.7984862 -57.1691059,-19.726271 -57.2885619,-19.6540094 -57.4060165,-19.5817068 -57.5214704,-19.5093683 -57.6349244,-19.4369991 -57.7463799,-19.3646044 -57.8558382,-19.2921893 -57.9633013,-19.219759 -58.068771,-19.1473184 -58.1722497,-19.0748727 -58.2737398,-19.0024269 -58.3732443,-18.9299859 -58.4707661,-18.8575547 -58.5663086,-18.7851382 -58.6598753,-18.7127413 -58.75147,-18.6403688 -58.8410967,-18.5680256 -58.9287598,-18.4957164 -59.0144637,-18.4234459 -59.0982132,-18.3512189 -59.1800133,-18.27904 -59.2598692,-18.2069137 -59.3377862,-18.1348447 -59.4137702,-18.0628376 -59.4878269,-17.9908967 -59.5599623,-17.9190265 -59.6301829,-17.8472314 -59.6984951,-17.7755159 -59.7649057,-17.7038841 -59.8294214,-17.6323404 -59.8920494,-17.560889 -59.9527971,-17.489534 -60.0116719,-17.4182796 -60.0686814,-17.3471299 -60.1238335,-17.2760888 -60.1771363,-17.2051605 -60.228598,-17.1343487 -60.2782268,-17.0636575 -60.3260314,-16.9930906 -60.3720206,-16.9226519 -60.416203,-16.852345 -60.4585878,-16.7821737 -60.4991842,-16.7121416 -60.5380015,-16.6422523 -60.5750491,-16.5725093 -60.6103367,-16.5029162 -60.643874,-16.4334763 -60.675671,-16.3641931 -60.7057376,-16.2950699 -60.7340839,-16.22611 -60.7607204,-16.1573166 -60.7856572,-16.0886928 -60.8089051,-16.0202419 -60.8304745,-15.9519669 -60.8503763,-15.8838709 -60.8686212,-15.8159567 -60.8852202,-15.7482274 -60.9001844,-15.6806858 -60.9135248,-15.6133347 -60.9252528,-15.5461769 -60.9353795,-15.4792152 -60.9439165,-15.4124521 -60.9508752,-15.3458903 -60.9562672,-15.2795324 -60.960104,-15.2133809 -60.9623975,-15.1474382 -60.9631594,-15.0817068 -60.9631594,-15.0817068 -60.9623975,-15.0159754 -60.960104,-14.9500327 -60.9562672,-14.8838812 -60.9508752,-14.8175233 -60.9439165,-14.7509615 -60.9353795,-14.6841984 -60.9252528,-14.6172367 -60.9135248,-14.5500789 -60.9001844,-14.4827278 -60.8852202,-14.4151862 -60.8686212,-14.3474569 -60.8503763,-14.2795427 -60.8304745,-14.2114467 -60.8089051,-14.1431717 -60.7856572,-14.0747208 -60.7607204,-14.0060971 -60.7340839,-13.9373036 -60.7057376,-13.8683437 -60.675671,-13.7992205 -60.643874,-13.7299373 -60.6103367,-13.6604974 -60.5750491,-13.5909043 -60.5380015,-13.5211613 -60.4991842,-13.451272 -60.4585878,-13.3812399 -60.416203,-13.3110686 -60.3720206,-13.2407617 -60.3260314,-13.170323 -60.2782268,-13.0997561 -60.228598,-13.0290649 -60.1771363,-12.9582531 -60.1238335,-12.8873248 -60.0686814,-12.8162838 -60.0116719,-12.745134 -59.9527971,-12.6738796 -59.8920494,-12.6025247 -59.8294214,-12.5310732 -59.7649057,-12.4595295 -59.6984951,-12.3878977 -59.6301829,-12.3161822 -59.5599623,-12.2443871 -59.4878269,-12.172517 -59.4137702,-12.1005761 -59.3377862,-12.0285689 -59.2598692,-11.9564999 -59.1800133,-11.8843737 -59.0982132,-11.8121947 -59.0144637,-11.7399677 -58.9287598,-11.6676972 -58.8410967,-11.595388 -58.75147,-11.5230448 -58.6598753,-11.4506723 -58.5663086,-11.3782754 -58.4707661,-11.3058589 -58.3732443,-11.2334277 -58.2737398,-11.1609868 -58.1722497,-11.0885409 -58.068771,-11.0160952 -57.9633013,-10.9436546 -57.8558382,-10.8712243 -57.7463799,-10.7988092 -57.6349244,-10.7264145 -57.5214704,-10.6540453 -57.4060165,-10.5817068 -57.2885619,-10.5094042 -57.1691059,-10.4371427 -57.0476481,-10.3649275 -56.9241884,-10.2927639 -56.7987269,-10.2206572 -56.6712641,-10.1486127 -56.5418007,-10.0766357 -56.4103377,-10.0047316 -56.2768765,-9.9329058 -56.1414186,-9.8611636 -56.003966,-9.7895105 -55.8645207,-9.7179518 -55.7230853,-9.6464931 -55.5796626,-9.5751396 -55.4342555,-9.503897 -55.2868676,-9.4327706 -55.1375024,-9.361766 -54.9861638,-9.2908886 -54.8328562,-9.2201439 -54.6775841,-9.1495374 -54.5203524,-9.0790746 -54.3611662,-9.008761 -54.2000309,-8.9386021 -54.0369525,-8.8686034 -53.8719368,-8.7987704 -53.7049904,-8.7291086 -53.5361198,-8.6596235 -53.365332,-8.5903205 -53.1926344,-8.5212053 -53.0180344,-8.4522831 -52.84154,-8.3835596 -52.6631594,-8.3150401 -52.4829009,-8.2467302 -52.3007735,-8.1786351 -52.1167861,-8.1107603 -51.9309481,-8.0431113 -51.7432692,-7.9756934 -51.5537594,-7.908512 -51.3624289,-7.8415723 -51.1692882,-7.7748798 -50.9743481,-7.7084397 -50.7776198,-7.6422573 -50.5791147,-7.5763378 -50.3788445,-7.5106864 -50.1768211,-7.4453084 -49.9730568,-7.3802088 -49.767564,-7.3153929 -49.5603556,-7.2508657 -49.3514447,-7.1866322 -49.1408446,-7.1226976 -48.9285689,-7.0590667 -48.7146314,-6.9957446 -48.4990463,-6.9327362 -48.281828,-6.8700462 -48.0629911,-6.8076797 -47.8425505,-6.7456412 -47.6205213,-6.6839357 -47.396919,-6.6225678 -47.171759,-6.5615421 -46.9450574,-6.5008632 -46.7168302,-6.4405358 -46.4870938,-6.3805643 -46.2558645,-6.3209532 -46.0231594,-6.2617068 -45.7889952,-6.2028296 -45.5533893,-6.1443258 -45.3163591,-6.0861997 -45.0779221,-6.0284555 -44.8380962,-5.9710973 -44.5968994,-5.9141291 -44.35435,-5.857555 -44.1104662,-5.8013789 -43.8652667,-5.7456048 -43.6187702,-5.6902364 -43.3709957,-5.6352776 -43.1219623,-5.580732 -42.8716891,-5.5266032 -42.6201958,-5.4728949 -42.3675017,-5.4196105 -42.1136267,-5.3667535 -41.8585905,-5.3143273 -41.6024133,-5.2623352 -41.3451151,-5.2107804 -41.0867162,-5.159666 -40.827237,-5.1089952 -40.566698,-5.058771 -40.3051199,-5.0089964 -40.0425232,-4.9596742 -39.778929,-4.9108073 -39.514358,-4.8623984 -39.2488313,-4.8144501 -38.9823701,-4.7669651 -38.7149954,-4.7199458 -38.4467286,-4.6733948 -38.1775909,-4.6273144 -37.9076038,-4.5817068 -37.6367887,-4.5365744 -37.3651672,-4.4919191 -37.0927607,-4.4477433 -36.8195908,-4.4040487 -36.5456793,-4.3608373 -36.2710477,-4.318111 -35.9957177,-4.2758715 -35.7197111,-4.2341206 -35.4430496,-4.1928598 -35.1657549,-4.1520906 -34.8878487,-4.1118146 -34.6093529,-4.0720331 -34.330289,-4.0327474 -34.050679,-3.9939587 -33.7705445,-3.9556682 -33.4899071,-3.917877 -33.2087886,-3.8805861 -32.9272106,-3.8437964 -32.6451946,-3.8075087 -32.3627623,-3.7717238 -32.0799352,-3.7364425 -31.7967347,-3.7016653 -31.5131823,-3.6673928 -31.2292993,-3.6336255 -30.6606267,-3.567608 -30.0908862,-3.5036151 -29.5202463,-3.441648 -28.9488737,-3.3817068 -28.3769338,-3.3237904 -27.8045903,-3.2678965 -27.2320053,-3.2140219 -26.6593387,-3.1621624 -26.0867486,-3.1123123 -25.5143909,-3.0644654 -24.9424194,-3.0186142 -24.3709855,-2.9747503 -23.800238,-2.9328642 -23.2303236,-2.8929458 -22.6613859,-2.8549837 -22.0935662,-2.8189659 -21.527003,-2.7848794 -21.244235,-2.7685562 -20.9618317,-2.7527105 -20.6798097,-2.7373406 -20.3981852,-2.7224446 -20.1169743,-2.7080205 -19.8361931,-2.6940664 -19.5558572,-2.6805801 -19.2759822,-2.6675597 -18.9965836,-2.655003 -18.7176764,-2.6429079 -18.4392756,-2.6312721 -18.161396,-2.6200934 -17.8840523,-2.6093695 -17.6072588,-2.5990981 -17.3310296,-2.5892769 -17.0553789,-2.5799034 -16.7803203,-2.5709752 -16.5058675,-2.5624898 -16.2320339,-2.5544448 -15.9588326,-2.5468376 -15.6862767,-2.5396657 -15.4143789,-2.5329263 -15.1431518,-2.526617 -14.8726077,-2.520735 -14.6027589,-2.5152777 -14.3336174,-2.5102423 -14.0651948,-2.5056261 -13.7975027,-2.5014264 -13.5305525,-2.4976402 -13.2643554,-2.4942649 -12.9989223,-2.4912976 -12.7342639,-2.4887354 -12.4703908,-2.4865755 -12.2073133,-2.4848149 -11.9450416,-2.4834506 -11.6835856,-2.4824798 -11.422955,-2.4818996 -11.1631594,-2.4817068 -11.1631594,-2.4817068 -10.9436594,-2.4818997 -10.7228576,-2.4824811 -10.5007587,-2.4834549 -10.2773673,-2.4848249 -10.0526886,-2.4865952 -9.826728,-2.4887696 -9.5994911,-2.491352 -9.3709838,-2.4943463 -9.1412124,-2.4977563 -8.9101834,-2.5015858 -8.6779037,-2.5058387 -8.4443802,-2.5105187 -8.2096205,-2.5156296 -7.9736322,-2.5211753 -7.7364234,-2.5271593 -7.4980024,-2.5335853 -7.2583779,-2.5404572 -7.0175587,-2.5477784 -6.7755543,-2.5555527 -6.5323741,-2.5637835 -6.2880281,-2.5724744 -6.0425266,-2.581629 -5.79588,-2.5912506 -5.5480994,-2.6013428 -5.2991958,-2.611909 -5.0491809,-2.6229523 -4.7980666,-2.6344763 -4.545865,-2.6464841 -4.2925887,-2.658979 -4.0382506,-2.6719641 -3.782864,-2.6854425 -3.5264423,-2.6994174 -3.2689996,-2.7138917 -3.01055,-2.7288683 -2.7511082,-2.7443503 -2.490689,-2.7603404 -2.2293078,-2.7768414 -1.9669801,-2.7938561 -1.7037219,-2.811387 -1.4395496,-2.8294369 -1.1744797,-2.8480082 -0.9085293,-2.8671034 -0.6417156,-2.8867249 -0.3740563,-2.906875 -0.1055694,-2.927556 0.1637267,-2.94877 0.4338134,-2.9705191 0.7046716,-2.9928054 0.9762821,-3.0156308 1.2486251,-3.0389971 1.5216807,-3.0629062 1.7954285,-3.0873597 2.0698478,-3.1123593 2.3449177,-3.1379064 2.620617,-3.1640025 2.8969239,-3.190649 3.1738165,-3.217847 3.4512727,-3.2455978 3.7292698,-3.2739024 4.0077851,-3.3027617 4.2867954,-3.3321767 4.5662772,-3.3621482 4.8462068,-3.3926767 5.1265602,-3.4237629 5.4073132,-3.4554072 5.688441,-3.48761 5.969919,-3.5203716 6.2517219,-3.5536921 6.5338245,-3.5875715 6.816201,-3.6220099 7.0988257,-3.657007 7.3816723,-3.6925625 7.9479259,-3.7653473 8.5147482,-3.8403597 9.0819223,-3.9175935 9.6492279,-3.9970405 10.2164416,-4.0786909 10.7833374,-4.1625326 11.3496868,-4.248552 11.9152589,-4.3367334 12.1976808,-4.3816295 12.479821,-4.4270593 12.7616501,-4.4730204 13.0431386,-4.5195101 13.3242571,-4.5665258 13.604976,-4.6140646 13.8852656,-4.6621235 14.1650961,-4.7106994 14.444438,-4.7597892 14.7232614,-4.8093894 15.0015365,-4.8594967 15.2792336,-4.9101075 15.5563228,-4.9612182 15.8327743,-5.0128249 16.1085585,-5.0649237 16.3836455,-5.1175106 16.6580057,-5.1705816 16.9316095,-5.2241323 17.2044272,-5.2781584 17.4764294,-5.3326554 17.7475866,-5.3876188 18.0178695,-5.4430439 18.2872489,-5.498926 18.5556956,-5.55526 18.8231807,-5.6120411 19.0896754,-5.6692641 19.3551508,-5.7269239 19.6195784,-5.7850151 19.8829299,-5.8435323 20.145177,-5.9024702 20.4062916,-5.961823 20.666246,-6.0215851 20.9250124,-6.0817507 21.1825635,-6.1423141 21.438872,-6.2032691 21.693911,-6.2646099 21.9476537,-6.3263303 22.2000736,-6.3884241 22.4511446,-6.4508851 22.7008406,-6.5137068 22.9491361,-6.5768829 23.1960055,-6.6404069 23.4414239,-6.7042722 23.6853664,-6.7684721 23.9278086,-6.8330001 24.1687263,-6.8978492 24.4080956,-6.9630127 24.6458932,-7.0284838 24.8820958,-7.0942554 25.1166807,-7.1603205 25.3496255,-7.2266722 25.580908,-7.2933033 25.8105065,-7.3602067 26.0383999,-7.4273751 26.264567,-7.4948015 26.4889875,-7.5624784 26.7116411,-7.6303987 26.9325082,-7.6985549 27.1515693,-7.7669398 27.3688057,-7.8355458 27.5841988,-7.9043656 27.7977305,-7.9733918 28.0093833,-8.0426168 28.2191399,-8.1120333 28.4269835,-8.1816336 28.6328979,-8.2514103 28.8368671,-8.3213559 29.0388759,-8.3914628 29.238909,-8.4617235 29.4369522,-8.5321305 29.6329912,-8.6026761 29.8270126,-8.673353 30.0190032,-8.7441535 30.2089502,-8.8150701 30.3968416,-8.8860954 30.5826655,-8.9572218 30.7664108,-9.0284418 30.9480665,-9.0997479 31.1276225,-9.1711328 31.3050688,-9.2425889 31.480396,-9.314109 31.6535953,-9.3856855 31.8246582,-9.4573112 31.9935767,-9.5289787 32.1603434,-9.6006808 32.3249512,-9.6724102 32.4873936,-9.7441597 32.6476644,-9.8159221 32.8057581,-9.8876903 32.9616695,-9.9594572 33.1153938,-10.0312158 33.2669269,-10.1029591 33.4162649,-10.1746801 33.5634045,-10.246372 33.7083429,-10.3180279 33.8510776,-10.389641 33.9916066,-10.4612046 34.1299284,-10.532712 34.2660419,-10.6041567 34.3999464,-10.675532 34.5316417,-10.7468316 34.6611279,-10.8180489 34.7884057,-10.8891776 34.9134761,-10.9602115 35.0363406,-11.0311443 35.157001,-11.1019698 35.2754595,-11.1726821 35.3917188,-11.2432751 35.505782,-11.3137428 35.6176525,-11.3840794 35.7273342,-11.4542792 35.8348311,-11.5243363 35.9401481,-11.5942453 36.0432898,-11.6640006 36.1442617,-11.7335966 36.2430695,-11.803028 36.3397191,-11.8722894 36.4342169,-11.9413758 36.5265696,-12.0102819 36.6167843,-12.0790026 36.7048682,-12.147533 36.7908291,-12.2158682 36.8746749,-12.2840033 36.9564139,-12.3519337 37.0360548,-12.4196548 37.1136064,-12.4871618 37.1890779,-12.5544505 37.2624788,-12.6215164 37.3338188,-12.6883552 37.4031078,-12.7549627 37.4703562,-12.8213347 37.5355745,-12.8874673 37.5987735,-12.9533565 37.6599641,-13.0189984 37.7191576,-13.0843893 37.7763655,-13.1495254 37.8315994,-13.2144031 37.8848714,-13.279019 37.9361934,-13.3433696 37.9855779,-13.4074516 38.0330374,-13.4712616 38.0785845,-13.5347966 38.1222321,-13.5980534 38.1639935,-13.661029 38.2038817,-13.7237205 38.2419101,-13.786125 38.2780925,-13.8482399 38.3124424,-13.9100623 38.3449737,-13.9715899 38.3757004,-14.0328199 38.4046367,-14.09375 38.4317969,-14.1543779 38.4571952,-14.2147013 38.4808463,-14.274718 38.5027647,-14.3344259 38.5229651,-14.3938229 38.5414623,-14.4529072 38.5582713,-14.5116768 38.573407,-14.5701299 38.5868845,-14.6282648 38.598719,-14.6860799 38.6089256,-14.7435736 38.6175197,-14.8007443 38.6245166,-14.8575907 38.6299316,-14.9141115 38.6337803,-14.9703052 38.6360781,-15.0261707 38.6368406,-15.0817068z"
       transform="matrix(1,0,0,-1,65.1631594,2.9182932)"
       fill="rgb(255,255,255)"
       stroke="rgb(0,0,0)"
       stroke-width="0.0010cm"
       stroke-linecap="round"
       stroke-linejoin="round"
       id="path15049"
       style="fill:none;stroke:#000000;stroke-opacity:1;stroke-width:0.1;stroke-dasharray:none" /><path
       d="M43.2405203,-19.0817068 a0.475,0.475 0 1,1 0.95,0 a0.475,0.475 0 1,1 -0.95,0z"
       transform="matrix(1,0,0,-1,65.1631594,2.9182932)"
       fill="rgb(255,255,255)"
       stroke="rgb(0,0,0)"
       stroke-width="0.0010cm"
       stroke-linecap="round"
       stroke-linejoin="round"
       id="path15051"
       style="fill:none;stroke:#000000;stroke-opacity:1;stroke-width:0.1;stroke-dasharray:none" /><path
       d="M43.2405203,-11.0817068 a0.475,0.475 0 1,1 0.95,0 a0.475,0.475 0 1,1 -0.95,0z"
       transform="matrix(1,0,0,-1,65.1631594,2.9182932)"
       fill="rgb(255,255,255)"
       stroke="rgb(0,0,0)"
       stroke-width="0.0010cm"
       stroke-linecap="round"
       stroke-linejoin="round"
       id="path15053"
       style="fill:none;stroke:#000000;stroke-opacity:1;stroke-width:0.1;stroke-dasharray:none" /><path
       d="M59.8618406,-5.1603865 a0.475,0.475 0 1,1 0.95,0 a0.475,0.475 0 1,1 -0.95,0z"
       transform="matrix(1,0,0,-1,65.1631594,2.9182932)"
       fill="rgb(255,255,255)"
       stroke="rgb(0,0,0)"
       stroke-width="0.0010cm"
       stroke-linecap="round"
       stroke-linejoin="round"
       id="path15055"
       style="fill:none;stroke:#000000;stroke-opacity:1;stroke-width:0.1;stroke-dasharray:none" /><path
       d="M51.8618406,-25.0030272 a0.475,0.475 0 1,1 0.95,0 a0.475,0.475 0 1,1 -0.95,0z"
       transform="matrix(1,0,0,-1,65.1631594,2.9182932)"
       fill="rgb(255,255,255)"
       stroke="rgb(0,0,0)"
       stroke-width="0.0010cm"
       stroke-linecap="round"
       stroke-linejoin="round"
       id="path15057"
       style="fill:none;stroke:#000000;stroke-opacity:1;stroke-width:0.1;stroke-dasharray:none" /><path
       d="M51.8618406,-5.1603865 a0.475,0.475 0 1,1 0.95,0 a0.475,0.475 0 1,1 -0.95,0z"
       transform="matrix(1,0,0,-1,65.1631594,2.9182932)"
       fill="rgb(255,255,255)"
       stroke="rgb(0,0,0)"
       stroke-width="0.0010cm"
       stroke-linecap="round"
       stroke-linejoin="round"
       id="path15059"
       style="fill:none;stroke:#000000;stroke-opacity:1;stroke-width:0.1;stroke-dasharray:none" /><path
       d="M43.8618406,-24.3817068 a0.475,0.475 0 1,1 0.95,0 a0.475,0.475 0 1,1 -0.95,0z"
       transform="matrix(1,0,0,-1,65.1631594,2.9182932)"
       fill="rgb(255,255,255)"
       stroke="rgb(0,0,0)"
       stroke-width="0.0010cm"
       stroke-linecap="round"
       stroke-linejoin="round"
       id="path15061"
       style="fill:none;stroke:#000000;stroke-opacity:1;stroke-width:0.1;stroke-dasharray:none" /><path
       d="M59.8618406,-25.0030272 a0.475,0.475 0 1,1 0.95,0 a0.475,0.475 0 1,1 -0.95,0z"
       transform="matrix(1,0,0,-1,65.1631594,2.9182932)"
       fill="rgb(255,255,255)"
       stroke="rgb(0,0,0)"
       stroke-width="0.0010cm"
       stroke-linecap="round"
       stroke-linejoin="round"
       id="path15063"
       style="fill:none;stroke:#000000;stroke-opacity:1;stroke-width:0.1;stroke-dasharray:none" /><path
       d="M43.8618406,-5.7817068 a0.475,0.475 0 1,1 0.95,0 a0.475,0.475 0 1,1 -0.95,0z"
       transform="matrix(1,0,0,-1,65.1631594,2.9182932)"
       fill="rgb(255,255,255)"
       stroke="rgb(0,0,0)"
       stroke-width="0.0010cm"
       stroke-linecap="round"
       stroke-linejoin="round"
       id="path15065"
       style="fill:none;stroke:#000000;stroke-opacity:1;stroke-width:0.1;stroke-dasharray:none" /></g></svg>
