<?xml version="1.0" encoding="utf-8"?>
<!-- Generator: Fusion 360, Shaper Origin Export Add-In, Version 1.8.0  -->
<svg xmlns="http://www.w3.org/2000/svg" xmlns:xlink="http://www.w3.org/1999/xlink" xmlns:shaper="http://www.shapertools.com/namespaces/shaper" shaper:fusionaddin="version:1.8.0" width="121cm" height="36cm" version="1.1" x="0cm" y="0cm" viewBox="0 0 121 36" enable-background="new 0 0 121 36" xml:space="preserve"><path d="M-59.8775292,-8.8188912 L-43.1775292,-8.8188912 A1,1 90 0,0 -42.1775292,-9.8188912 L-42.1775292,-25.4188912 A1,1 0 0,0 -43.1775292,-26.4188912 L-59.8775292,-26.4188912 -59.8775292,-28.4188912 -60.1775292,-28.4188912 -60.1775292,-34.2188912 A1.4,1.4 180 0,1 -58.7775292,-35.6188912 L59.4224708,-35.6188912 A1.4,1.4 270 0,1 60.8224708,-34.2188912 L60.8224708,-1.0188912 A1.4,1.4 0 0,1 59.4224708,0.3811088 L-58.7775292,0.3811088 A1.4,1.4 90 0,1 -60.1775292,-1.0188912 L-60.1775292,-6.8188912 -59.8775292,-6.8188912 -59.8775292,-8.8188912z" transform="matrix(1,0,0,-1,60.1775292,0.3811088)" fill="rgb(0,0,0)" stroke-linecap="round" stroke-linejoin="round" /><path d="M57.9274708,-2.1188912 a0.395,0.395 0 1,1 0.79,0 a0.395,0.395 0 1,1 -0.79,0z" transform="matrix(1,0,0,-1,60.1775292,0.3811088)" fill="rgb(255,255,255)" stroke="rgb(0,0,0)" stroke-width="0.0010cm" stroke-linecap="round" stroke-linejoin="round" /><path d="M20.0941375,-33.1188912 a0.395,0.395 0 1,1 0.79,0 a0.395,0.395 0 1,1 -0.79,0z" transform="matrix(1,0,0,-1,60.1775292,0.3811088)" fill="rgb(255,255,255)" stroke="rgb(0,0,0)" stroke-width="0.0010cm" stroke-linecap="round" stroke-linejoin="round" /><path d="M-58.0725292,-2.1188912 a0.395,0.395 0 1,1 0.79,0 a0.395,0.395 0 1,1 -0.79,0z" transform="matrix(1,0,0,-1,60.1775292,0.3811088)" fill="rgb(255,255,255)" stroke="rgb(0,0,0)" stroke-width="0.0010cm" stroke-linecap="round" stroke-linejoin="round" /><path d="M20.0941375,-2.1188912 a0.395,0.395 0 1,1 0.79,0 a0.395,0.395 0 1,1 -0.79,0z" transform="matrix(1,0,0,-1,60.1775292,0.3811088)" fill="rgb(255,255,255)" stroke="rgb(0,0,0)" stroke-width="0.0010cm" stroke-linecap="round" stroke-linejoin="round" /><path d="M57.9274708,-33.1188912 a0.395,0.395 0 1,1 0.79,0 a0.395,0.395 0 1,1 -0.79,0z" transform="matrix(1,0,0,-1,60.1775292,0.3811088)" fill="rgb(255,255,255)" stroke="rgb(0,0,0)" stroke-width="0.0010cm" stroke-linecap="round" stroke-linejoin="round" /><path d="M-20.2391958,-2.1188912 a0.395,0.395 0 1,1 0.79,0 a0.395,0.395 0 1,1 -0.79,0z" transform="matrix(1,0,0,-1,60.1775292,0.3811088)" fill="rgb(255,255,255)" stroke="rgb(0,0,0)" stroke-width="0.0010cm" stroke-linecap="round" stroke-linejoin="round" /><path d="M-20.2391958,-33.1188912 a0.395,0.395 0 1,1 0.79,0 a0.395,0.395 0 1,1 -0.79,0z" transform="matrix(1,0,0,-1,60.1775292,0.3811088)" fill="rgb(255,255,255)" stroke="rgb(0,0,0)" stroke-width="0.0010cm" stroke-linecap="round" stroke-linejoin="round" /><path d="M-58.0725292,-33.1188912 a0.395,0.395 0 1,1 0.79,0 a0.395,0.395 0 1,1 -0.79,0z" transform="matrix(1,0,0,-1,60.1775292,0.3811088)" fill="rgb(255,255,255)" stroke="rgb(0,0,0)" stroke-width="0.0010cm" stroke-linecap="round" stroke-linejoin="round" /><path d="M21.1141375,-3.201423 L21.1141375,-3.201423 21.1612208,-3.1732483 21.2070287,-3.143818 21.2515825,-3.1131047 21.2949034,-3.0810811 21.3370126,-3.04772 21.3779316,-3.012994 21.4176814,-2.9768759 21.4562836,-2.9393383 21.4937592,-2.9003541 21.5301296,-2.8598959 21.565416,-2.8179364 21.5995008,-2.7746321 21.6321173,-2.7304042 21.6633179,-2.6853119 21.6931672,-2.6394001 21.7217295,-2.5927136 21.7490691,-2.545297 21.7752504,-2.4971951 21.8003379,-2.4484528 21.8243958,-2.3991148 21.8474886,-2.3492258 21.8696806,-2.2988306 21.8910392,-2.2479638 21.9116332,-2.1966528 21.9315242,-2.1449495 21.9507736,-2.0929067 21.9875931,-1.9880131 22.0225828,-1.882393 22.0562336,-1.7764678 22.0890367,-1.6706586 22.1214831,-1.5653866 22.1540638,-1.4610732 22.18727,-1.3581396 22.204261,-1.3073218 22.2215926,-1.2570068 22.239326,-1.2072475 22.2575228,-1.1580963 22.2762442,-1.1096056 22.2955594,-1.0618065 22.3155354,-1.0147421 22.3362361,-0.9684679 22.357725,-0.9230393 22.3800659,-0.8785119 22.4033224,-0.8349411 22.4275582,-0.7923825 22.452837,-0.7508916 22.4792224,-0.7105239 22.5067781,-0.6713348 22.5355547,-0.6333973 22.5655552,-0.596837 22.596831,-0.5617038 22.6294398,-0.5280381 22.6634397,-0.4958804 22.6988883,-0.4652712 22.7358436,-0.4362509 22.7743634,-0.40886 22.8143863,-0.3832115 22.8143863,-0.3832115 23.0447726,-0.3868585 23.2745097,-0.390594 23.5035961,-0.3944192 23.7320304,-0.3983353 23.9598112,-0.4023435 24.1869369,-0.4064449 24.4134062,-0.4106409 24.6392175,-0.4149324 24.8643694,-0.4193208 25.0888605,-0.4238072 25.3126893,-0.4283928 25.5358544,-0.4330788 25.7583542,-0.4378663 25.9801874,-0.4427566 26.2013525,-0.4477508 26.421848,-0.4528501 26.6416724,-0.4580557 26.8608244,-0.4633688 27.0793024,-0.4687906 27.2971051,-0.4743222 27.5142309,-0.4799649 27.7306784,-0.4857197 27.9464461,-0.491588 28.1615326,-0.4975708 28.3759365,-0.5036694 28.5896562,-0.509885 28.8026903,-0.5162187 29.0150374,-0.5226717 29.226696,-0.5292452 29.4376647,-0.5359404 29.6479419,-0.5427585 29.8575264,-0.5497006 30.0664164,-0.556768 30.2746108,-0.5639618 30.4821079,-0.5712831 30.6889063,-0.5787333 30.8950046,-0.5863135 31.1004013,-0.5940248 31.305095,-0.6018685 31.5090841,-0.6098456 31.7123673,-0.6179575 31.9149431,-0.6262053 32.1168101,-0.6345902 32.3179667,-0.6431133 32.5184115,-0.6517759 32.7181431,-0.6605791 32.91716,-0.6695241 33.1154608,-0.6786121 33.313044,-0.6878443 33.5099081,-0.6972218 33.7060518,-0.7067459 33.9014734,-0.7164178 34.0961717,-0.7262385 34.2901451,-0.7362093 34.4833921,-0.7463315 34.6759114,-0.7566061 34.8677014,-0.7670343 35.0587607,-0.7776174 35.2490879,-0.7883565 35.4386815,-0.7992528 35.62754,-0.8103075 35.8156621,-0.8215217 36.0030461,-0.8328968 36.1896907,-0.8444337 36.3755945,-0.8561338 36.5607559,-0.8679982 36.7451735,-0.880028 36.9288459,-0.8922246 37.1117715,-0.904589 37.293949,-0.9171224 37.4753769,-0.9298261 37.6560538,-0.9427012 37.8359781,-0.9557488 38.0151484,-0.9689703 38.1935633,-0.9823667 38.3712214,-0.9959393 38.548121,-1.0096891 38.7242609,-1.0236175 38.8996395,-1.0377256 39.0742555,-1.0520146 39.2481072,-1.0664856 39.4211933,-1.0811399 39.5935124,-1.0959786 39.7650629,-1.111003 39.9358435,-1.1262141 40.1058526,-1.1416132 40.2750888,-1.1572015 40.4435507,-1.1729801 40.6112367,-1.1889503 40.7781455,-1.2051132 40.9442756,-1.2214699 41.1096255,-1.2380218 41.2741938,-1.25477 41.437979,-1.2717156 41.6009797,-1.2888598 41.7631944,-1.3062038 41.9246216,-1.3237489 42.0852599,-1.3414962 42.4052424,-1.3777212 42.7268163,-1.4153195 43.0501333,-1.4543695 43.3750192,-1.4949146 43.7013,-1.5369982 44.0288014,-1.5806637 44.3573494,-1.6259547 44.6867697,-1.6729146 45.0168883,-1.7215868 45.3475309,-1.7720147 45.6785235,-1.8242418 46.0096919,-1.8783115 46.3408619,-1.9342673 46.6718594,-1.9921526 47.0025103,-2.0520109 47.3326404,-2.1138856 47.6620755,-2.1778201 47.9906416,-2.2438579 48.1545443,-2.2776792 48.3181644,-2.3120425 48.4814802,-2.3469533 48.6444699,-2.3824172 48.8071117,-2.4184394 48.9693838,-2.4550255 49.1312646,-2.4921808 49.2927321,-2.5299109 49.4537647,-2.568221 49.6143406,-2.6071167 49.774438,-2.6466034 49.9340351,-2.6866865 50.0931102,-2.7273715 50.2516415,-2.7686637 50.4096073,-2.8105686 50.5669857,-2.8530917 50.723755,-2.8962383 50.8798934,-2.9400139 51.0353792,-2.984424 51.1901907,-3.0294739 51.3443059,-3.0751691 51.4977032,-3.121515 51.6510039,-3.1687161 51.7284442,-3.1929036 51.8064522,-3.2175071 51.8850046,-3.2425289 51.9640776,-3.2679709 52.043648,-3.2938353 52.1236921,-3.3201243 52.2041865,-3.3468398 52.2851076,-3.3739841 52.4481362,-3.4295674 52.6125898,-3.4868909 52.7782805,-3.5459717 52.9450201,-3.6068264 53.1126208,-3.6694722 53.2808945,-3.7339257 53.4496533,-3.800204 53.618709,-3.868324 53.7878737,-3.9383024 53.9569594,-4.0101562 54.1257781,-4.0839023 54.2941417,-4.1595576 54.4618623,-4.237139 54.6287519,-4.3166634 54.7946224,-4.3981475 54.9592859,-4.4816085 55.0411062,-4.5240855 55.1225543,-4.567063 55.2036066,-4.6105432 55.2842396,-4.6545281 55.3644299,-4.6990199 55.4441539,-4.7440206 55.5233881,-4.7895324 55.602109,-4.8355574 55.6802932,-4.8820977 55.7579171,-4.9291553 55.8349573,-4.9767326 55.911314,-5.0247817 55.986543,-5.0730204 56.0605865,-5.1214051 56.133457,-5.169937 56.2051671,-5.2186173 56.2757294,-5.2674473 56.3451563,-5.3164282 56.4134604,-5.3655611 56.4806542,-5.4148474 56.5467503,-5.4642883 56.6117612,-5.5138851 56.6756994,-5.5636389 56.7385775,-5.6135509 56.8004079,-5.6636225 56.8612034,-5.7138549 56.9209763,-5.7642492 56.9797392,-5.8148068 57.0375046,-5.8655288 57.0942851,-5.9164165 57.1500933,-5.9674711 57.2049416,-6.0186939 57.2588426,-6.0700861 57.3118088,-6.121649 57.3638528,-6.1733836 57.414987,-6.2252914 57.4652241,-6.2773735 57.5145766,-6.3296312 57.5630569,-6.3820657 57.6106777,-6.4346782 57.6574515,-6.48747 57.7033907,-6.5404423 57.748508,-6.5935963 57.7928396,-6.6469618 57.8365152,-6.7006872 57.8795573,-6.7547984 57.9219709,-6.8093015 57.9637613,-6.8642025 58.0049337,-6.9195072 58.0454933,-6.9752216 58.0854453,-7.0313517 58.1247949,-7.0879035 58.1635472,-7.1448828 58.2017076,-7.2022958 58.2392811,-7.2601482 58.2762731,-7.3184462 58.3126886,-7.3771955 58.3485329,-7.4364023 58.3838113,-7.4960724 58.4185288,-7.5562118 58.4526907,-7.6168265 58.4863022,-7.6779224 58.5193686,-7.7395055 58.5518949,-7.8015817 58.5838864,-7.8641571 58.6153484,-7.9272375 58.6462859,-7.9908289 58.6767042,-8.0549372 58.7066086,-8.1195685 58.7360042,-8.1847287 58.7648961,-8.2504237 58.7932897,-8.3166596 58.8211901,-8.3834422 58.8486025,-8.4507775 58.8755321,-8.5186714 58.9019842,-8.5871301 58.9279638,-8.6561593 58.9534763,-8.725765 58.9785268,-8.7959533 59.0031205,-8.86673 59.0272626,-8.9381012 59.0509584,-9.0100727 59.0742129,-9.0826505 59.0970315,-9.1558407 59.1194335,-9.2296971 59.1414585,-9.3043521 59.1631105,-9.3798246 59.1843912,-9.4561272 59.2053028,-9.5332727 59.2258471,-9.6112738 59.246026,-9.6901433 59.2658415,-9.7698937 59.2852956,-9.8505379 59.3043901,-9.9320886 59.3231271,-10.0145586 59.3415084,-10.0979604 59.3595359,-10.1823068 59.3772117,-10.2676107 59.3945377,-10.3538846 59.4115158,-10.4411413 59.4281479,-10.5293935 59.444436,-10.618654 59.460382,-10.7089354 59.4759878,-10.8002506 59.4912555,-10.8926121 59.5061869,-10.9860327 59.520784,-11.0805252 59.5350486,-11.1761023 59.5489829,-11.2727766 59.5625886,-11.370561 59.5758677,-11.469468 59.5888223,-11.5695105 59.6014541,-11.6707012 59.6137652,-11.7730528 59.6257574,-11.876578 59.6374328,-11.9812894 59.6487932,-12.0872 59.6598406,-12.1943223 59.670577,-12.3026691 59.6810042,-12.4122531 59.6911243,-12.523087 59.7009391,-12.6351836 59.7104506,-12.7485555 59.7196608,-12.8632156 59.7285715,-12.9791764 59.7371847,-13.0964508 59.7455023,-13.2150514 59.7535264,-13.3349909 59.7612587,-13.4562822 59.7687014,-13.5789379 59.7758562,-13.7029707 59.7827252,-13.8283934 59.7893102,-13.9552186 59.7956133,-14.0834591 59.8016363,-14.2131276 59.8073812,-14.3442369 59.81285,-14.4767996 59.8180445,-14.6108285 59.8229667,-14.7463363 59.8276186,-14.8833356 59.8320021,-15.0218394 59.8361191,-15.1618601 59.8399716,-15.3034107 59.8435614,-15.4465037 59.8468906,-15.5911519 59.8499611,-15.7373681 59.8527748,-15.885165 59.8553337,-16.0345552 59.8576397,-16.1855515 59.8596947,-16.3381666 59.8615007,-16.4924132 59.8630595,-16.6483041 59.8643733,-16.805852 59.8654438,-16.9650696 59.8662731,-17.1259695 59.866863,-17.2885647 59.8672155,-17.4528676 59.8673326,-17.6188912 59.8673326,-17.6188912 59.8672589,-17.7505674 59.8670373,-17.8811559 59.8666668,-18.010663 59.8661464,-18.1390952 59.8654754,-18.2664588 59.8646527,-18.3927602 59.8636775,-18.5180059 59.8625489,-18.6422023 59.8612659,-18.7653557 59.8598276,-18.8874726 59.8582332,-19.0085594 59.8564817,-19.1286224 59.8545721,-19.2476682 59.8525037,-19.365703 59.8502754,-19.4827333 59.8478864,-19.5987655 59.8453357,-19.713806 59.8426225,-19.8278612 59.8397458,-19.9409376 59.8367047,-20.0530414 59.8334983,-20.1641791 59.8301257,-20.2743572 59.8265859,-20.383582 59.8228782,-20.4918599 59.8190014,-20.5991974 59.8149549,-20.7056008 59.8107375,-20.8110766 59.8063485,-20.9156311 59.8017868,-21.0192707 59.7970517,-21.1220019 59.7921421,-21.2238311 59.7870573,-21.3247646 59.7817961,-21.4248089 59.7763578,-21.5239704 59.7707415,-21.6222554 59.7649461,-21.7196705 59.7589709,-21.8162219 59.7528149,-21.9119161 59.7464771,-22.0067595 59.7399567,-22.1007585 59.7332528,-22.1939195 59.7263644,-22.2862489 59.7192907,-22.3777532 59.7120307,-22.4684386 59.7045835,-22.5583117 59.6969482,-22.6473788 59.6891239,-22.7356464 59.6811096,-22.8231207 59.6729045,-22.9098083 59.6645077,-22.9957156 59.6559182,-23.0808489 59.6471352,-23.1652146 59.6381576,-23.2488193 59.6289847,-23.3316691 59.6196155,-23.4137707 59.610049,-23.4951303 59.6002844,-23.5757544 59.5903208,-23.6556493 59.5801572,-23.7348216 59.5697927,-23.8132775 59.5592264,-23.8910235 59.5484575,-23.9680661 59.537485,-24.0444115 59.5263079,-24.1200662 59.5149254,-24.1950367 59.5033366,-24.2693292 59.4915405,-24.3429503 59.4795362,-24.4159063 59.4673229,-24.4882036 59.4548996,-24.5598487 59.4422654,-24.6308479 59.4294194,-24.7012076 59.4163606,-24.7709343 59.4030882,-24.8400343 59.3896013,-24.9085141 59.3758989,-24.97638 59.3619801,-25.0436385 59.3478441,-25.110296 59.3334898,-25.1763588 59.3189165,-25.2418334 59.3041231,-25.3067262 59.2891088,-25.3710436 59.2738726,-25.4347919 59.2584137,-25.4979777 59.226824,-25.622687 59.1943321,-25.7452231 59.1608664,-25.8658641 59.1263584,-25.9848332 59.090791,-26.1021555 59.0541471,-26.2178561 59.0164096,-26.3319599 58.9775614,-26.4444921 58.9375852,-26.5554777 58.8964641,-26.6649417 58.8541808,-26.7729092 58.8107183,-26.8794052 58.7660595,-26.9844548 58.7201871,-27.088083 58.6730841,-27.1903149 58.6247333,-27.2911754 58.5751176,-27.3906897 58.52422,-27.4888828 58.4720232,-27.5857797 58.4185102,-27.6814055 58.3636638,-27.7757853 58.3074668,-27.868944 58.2499023,-27.9609067 58.190953,-28.0516985 58.1306018,-28.1413444 58.0688316,-28.2298694 58.0056253,-28.3172987 57.9409657,-28.4036571 57.8746741,-28.4891759 57.8064737,-28.5741773 57.7363162,-28.6586703 57.6641554,-28.742661 57.5899453,-28.8261552 57.5136398,-28.9091588 57.4351928,-28.9916778 57.3545582,-29.0737181 57.27169,-29.1552857 57.186542,-29.2363864 57.0990681,-29.3170261 57.0544446,-29.357175 57.0092224,-29.3972109 56.9633956,-29.4371346 56.9169586,-29.4769467 56.8699056,-29.516648 56.8222308,-29.5562393 56.7739284,-29.5957212 56.7249927,-29.6350947 56.675418,-29.6743603 56.6251985,-29.7135188 56.5743283,-29.752571 56.5228018,-29.7915176 56.4706132,-29.8303593 56.4177568,-29.8690969 56.3642267,-29.9077311 56.3100172,-29.9462628 56.2551226,-29.9846925 56.199537,-30.023021 56.1432548,-30.0612492 56.0862702,-30.0993777 56.0285773,-30.1374072 55.9701705,-30.1753386 55.911044,-30.2131726 55.8511921,-30.2509098 55.7294851,-30.3259739 55.6057454,-30.4000987 55.4800825,-30.4732515 55.3525457,-30.5454382 55.2231847,-30.6166648 55.092049,-30.6869375 54.9591881,-30.7562621 54.8246514,-30.8246449 54.6884887,-30.8920917 54.5507493,-30.9586085 54.4114829,-31.0242015 54.2707389,-31.0888767 54.1285669,-31.15264 53.9850164,-31.2154975 53.8401369,-31.2774552 53.6939781,-31.3385192 53.5465893,-31.3986954 53.3980201,-31.4579899 53.2483201,-31.5164087 53.0975388,-31.5739579 52.9457257,-31.6306434 52.7929304,-31.6864714 52.6392024,-31.7414477 52.4845911,-31.7955785 52.3291463,-31.8488697 52.1729172,-31.9013274 52.0159536,-31.9529576 51.8583049,-32.0037664 51.7000207,-32.0537597 51.5411505,-32.1029436 51.3817438,-32.1513241 51.2218502,-32.1989073 51.0615191,-32.2456991 50.9008001,-32.2917056 50.7397428,-32.3369328 50.5783967,-32.3813867 50.4168113,-32.4250734 50.2550361,-32.4679988 50.0931207,-32.5101691 49.9311146,-32.5515902 49.7690673,-32.5922681 49.6070283,-32.632209 49.4450473,-32.6714187 49.2831736,-32.7099033 49.1214569,-32.7476689 48.9599467,-32.7847215 48.7986925,-32.8210671 48.6377438,-32.8567117 48.4771502,-32.8916614 48.3169612,-32.9259221 48.1572263,-32.9594999 47.9979951,-32.9924009 47.8393171,-33.024631 47.6812418,-33.0561963 47.5238187,-33.0871027 47.366552,-33.1174638 47.2083284,-33.1475055 47.0491038,-33.1772363 46.8888687,-33.2066576 46.7276136,-33.2357708 46.5653287,-33.2645773 46.4020046,-33.2930787 46.2376317,-33.3212762 46.0722003,-33.3491715 45.9057009,-33.3767658 45.7381239,-33.4040607 45.5694597,-33.4310575 45.3996987,-33.4577578 45.2288314,-33.4841629 45.0568482,-33.5102743 44.8837394,-33.5360935 44.7094955,-33.5616218 44.5341069,-33.5868607 44.357564,-33.6118117 44.1798572,-33.6364762 44.000977,-33.6608556 43.8209137,-33.6849513 43.6396578,-33.7087649 43.4571997,-33.7322976 43.2735298,-33.7555511 43.0886385,-33.7785266 42.9025163,-33.8012258 42.7151535,-33.8236499 42.5265405,-33.8458004 42.3366678,-33.8676788 42.1455258,-33.8892865 41.9531049,-33.9106249 41.7593956,-33.9316955 41.5643881,-33.9524998 41.3680731,-33.9730391 41.1704407,-33.9933148 40.9714816,-34.0133285 40.771186,-34.0330816 40.5695445,-34.0525755 40.3665473,-34.0718116 40.162185,-34.0907914 39.956448,-34.1095164 39.7493266,-34.1279879 39.5408113,-34.1462073 39.3308924,-34.1641763 39.1195605,-34.1818961 38.9068059,-34.1993682 38.6926191,-34.216594 38.4769904,-34.2335751 38.2599102,-34.2503127 38.0413691,-34.2668084 37.8213573,-34.2830637 37.5998653,-34.2990798 37.3768836,-34.3148584 37.1524025,-34.3304007 36.9264125,-34.3457083 36.6989039,-34.3607826 36.4698672,-34.3756251 36.2392928,-34.390237 36.0071711,-34.40462 35.7734925,-34.4187755 35.5382475,-34.4327048 35.3014264,-34.4464094 35.0630197,-34.4598908 34.8230178,-34.4731504 34.5814111,-34.4861897 34.33819,-34.49901 34.0933449,-34.5116128 33.8468663,-34.5239995 33.5987445,-34.5361716 33.34897,-34.5481306 33.0975331,-34.5598778 32.8444244,-34.5714147 32.5896342,-34.5827428 32.3331529,-34.5938634 32.074971,-34.6047781 31.8150788,-34.6154881 31.5534668,-34.6259951 31.2901253,-34.6363004 31.0250449,-34.6464055 30.7582159,-34.6563118 30.4896287,-34.6660207 30.2192738,-34.6755337 29.9471415,-34.6848522 29.6732223,-34.6939777 29.3975066,-34.7029115 29.1199848,-34.7116552 28.8406473,-34.7202102 28.5594846,-34.7285779 28.276487,-34.7367597 27.9916449,-34.7447571 27.7049488,-34.7525715 27.4163892,-34.7602044 27.1259563,-34.7676571 26.8336406,-34.7749312 26.5394326,-34.7820281 26.2433226,-34.7889492 25.9453011,-34.7956959 25.6453585,-34.8022698 25.3434852,-34.8086721 25.0396715,-34.8149044 24.733908,-34.8209682 24.4261851,-34.8268647 24.116493,-34.8325955 23.8048224,-34.8381621 23.4911635,-34.8435658 23.1755068,-34.8488081 22.8578428,-34.8538904 22.8578428,-34.8538904 22.8189103,-34.8279932 22.7812077,-34.8003095 22.7446947,-34.7708592 22.7093319,-34.7396631 22.6752022,-34.7068662 22.6423386,-34.6726006 22.6106871,-34.6369226 22.5801935,-34.5998886 22.5508037,-34.5615552 22.5224634,-34.5219789 22.4951186,-34.4812159 22.4687151,-34.4393229 22.4431987,-34.3963563 22.4185153,-34.3523725 22.3946107,-34.307428 22.3714305,-34.2615784 22.3489148,-34.2148618 22.3270097,-34.1673259 22.3056637,-34.1190254 22.2848257,-34.0700146 22.2644441,-34.0203482 22.2444678,-33.9700806 22.2055255,-33.8679603 22.1675882,-33.76409 22.1302453,-33.658906 22.0557006,-33.4463423 22.0176776,-33.3398351 21.9786067,-33.2337595 21.9380774,-33.1285517 21.9171375,-33.0764097 21.8956825,-33.024656 21.8736769,-32.9733786 21.8510693,-32.9226256 21.8278061,-32.8724398 21.8038337,-32.8228639 21.7790985,-32.7739405 21.7535467,-32.7257125 21.7271249,-32.6782225 21.6997793,-32.6315133 21.6714564,-32.5856276 21.6421025,-32.5406082 21.611664,-32.4964977 21.5800872,-32.4533389 21.5473319,-32.4111912 21.5135474,-32.3703324 21.4787602,-32.3308447 21.4429314,-32.2927234 21.4060222,-32.2559636 21.3679936,-32.2205604 21.3288067,-32.186509 21.2884227,-32.1538046 21.2468027,-32.1224423 21.2039078,-32.0924172 21.159699,-32.0637245 21.1141375,-32.0363594 A1.25,1.25 60 0,1 19.8641375,-32.0363594 L19.8641375,-32.0363594 19.8162614,-32.0650259 19.7695441,-32.0950986 19.7239781,-32.1266189 19.6795564,-32.1596282 19.6362717,-32.1941679 19.5941168,-32.2302793 19.5530844,-32.2680039 19.5132984,-32.3072484 19.4750554,-32.3476887 19.4383136,-32.3892971 19.4030149,-32.4320615 19.369101,-32.47597 19.3365136,-32.5210104 19.3051946,-32.5671709 19.2751284,-32.61437 19.246371,-32.6623854 19.2188613,-32.7111589 19.1925308,-32.7606435 19.1673113,-32.8107922 19.1431343,-32.8615576 19.1199314,-32.9128928 19.0976343,-32.9647506 19.0761747,-33.0170839 19.0554841,-33.0698456 19.0354942,-33.1229885 19.0161366,-33.1764656 18.9790449,-33.2842336 18.9436769,-33.3927258 18.9095333,-33.5014002 18.8760846,-33.6097952 18.8427993,-33.7174553 18.809146,-33.8239249 18.7745933,-33.9287486 18.7568136,-33.9804008 18.7386097,-34.0314708 18.7199152,-34.0819014 18.7006636,-34.1316359 18.6807887,-34.1806173 18.6602238,-34.2287885 18.6388902,-34.2761194 18.6165172,-34.3229603 18.5929544,-34.3693301 18.5681201,-34.4150906 18.5419328,-34.4601038 18.5143108,-34.5042314 18.4851724,-34.5473354 18.454436,-34.5892776 18.4220198,-34.6299199 18.3878735,-34.6690915 18.3702361,-34.6879772 18.3522401,-34.7063623 18.3338786,-34.7242448 18.3151444,-34.7416229 18.2960307,-34.7584945 18.2765302,-34.7748578 18.2566361,-34.790711 18.2363412,-34.806052 18.2156385,-34.8208789 18.194521,-34.8351899 18.1729817,-34.8489831 18.1510135,-34.8622565 18.1286094,-34.8750082 18.1057623,-34.8872364 18.0825719,-34.8988868 18.0591596,-34.9099086 18.0591596,-34.9099086 17.0906703,-34.9171343 16.6068616,-34.9203018 16.1235917,-34.9231842 15.1586106,-34.9281324 14.191852,-34.9320655 13.2236119,-34.9350382 12.255137,-34.9371001 11.2876744,-34.9383009 10.8047123,-34.9385939 10.3224708,-34.9386902 10.3224708,-34.9386902 9.8491658,-34.9385671 9.3753043,-34.9381884 8.4262723,-34.9366089 7.476095,-34.9338406 6.525493,-34.9297725 5.5751864,-34.9242934 4.6258956,-34.9172924 4.1518562,-34.9131863 3.678341,-34.9086582 3.2054398,-34.9036939 2.7332428,-34.8982798 2.2618401,-34.8924018 1.7913215,-34.8860461 1.3217773,-34.8791989 0.8532974,-34.8718461 0.3859719,-34.863974 -0.0801093,-34.8555686 -0.5448559,-34.8466162 -1.0081781,-34.8371026 -1.4699857,-34.8270142 -1.9301887,-34.816337 -2.3886971,-34.8050572 -2.8454209,-34.7931607 -3.3002699,-34.7806338 -3.7531541,-34.7674626 -4.2039836,-34.7536332 -4.6526683,-34.7391316 -5.099118,-34.7239441 -5.3214767,-34.7160888 -5.5432429,-34.7080567 -5.7644053,-34.6998462 -5.9849527,-34.6914555 -6.2048739,-34.682883 -6.4241576,-34.6741267 -6.6427925,-34.6651851 -6.8607674,-34.6560564 -7.0780711,-34.6467388 -7.2946922,-34.6372306 -7.5106195,-34.6275301 -7.7258418,-34.6176356 -7.9403478,-34.6075452 -8.1541262,-34.5972573 -8.3671659,-34.5867702 -8.5794554,-34.576082 -8.7909837,-34.5651911 -9.0017394,-34.5540957 -9.2117113,-34.5427941 -9.4208881,-34.5312846 -9.6292585,-34.5195654 -9.8368114,-34.5076348 -10.0435354,-34.495491 -10.2494193,-34.4831323 -10.4544519,-34.470557 -10.6586219,-34.4577633 -11.0660514,-34.4314105 -11.2705184,-34.4177681 -11.4755076,-34.4038034 -11.8869594,-34.3748813 -12.3002205,-34.3445923 -12.7151047,-34.3128844 -13.1314256,-34.2797058 -13.548997,-34.2450045 -13.9676326,-34.2087288 -14.3871461,-34.1708266 -14.8073512,-34.1312461 -15.2280618,-34.0899354 -15.6490914,-34.0468427 -16.0702538,-34.001916 -16.4913628,-33.9551034 -16.9122321,-33.906353 -17.3326753,-33.855613 -17.7525062,-33.8028314 -18.1715385,-33.7479564 -18.1715385,-33.7479564 -18.2154265,-33.6237962 -18.2592475,-33.4986154 -18.3036737,-33.3731262 -18.3493774,-33.2480408 -18.3729185,-33.1858721 -18.397031,-33.1240714 -18.4217991,-33.0627279 -18.4472953,-33.0019555 -18.4735856,-32.9418768 -18.5007572,-32.8825624 -18.5288977,-32.8240823 -18.5580949,-32.7665061 -18.5884364,-32.7099038 -18.6200097,-32.6543452 -18.6529027,-32.5999001 -18.6872028,-32.5466384 -18.7229978,-32.4946298 -18.7603752,-32.4439443 -18.7993527,-32.3947373 -18.8397193,-32.3473969 -18.8815082,-32.3019551 -18.9029559,-32.2799437 -18.9247831,-32.258404 -18.9469976,-32.2373351 -18.9696074,-32.2167358 -18.9926204,-32.1966052 -19.0160447,-32.1769424 -19.0398881,-32.1577464 -19.0641587,-32.139016 -19.0888642,-32.1207505 -19.1140128,-32.1029487 -19.1396123,-32.0856097 -19.1656707,-32.0687325 -19.1921959,-32.052316 -19.2191958,-32.0363594 A1.25,1.25 60 0,1 -20.4691958,-32.0363594 L-20.4691958,-32.0363594 -20.510343,-32.0608698 -20.5505901,-32.0863807 -20.5899455,-32.1129152 -20.6284178,-32.1404965 -20.6660153,-32.1691477 -20.7027466,-32.198892 -20.7386201,-32.2297523 -20.7736444,-32.2617519 -20.8078277,-32.2949139 -20.8411787,-32.3292614 -20.8735734,-32.3646676 -20.9048069,-32.4008702 -20.9349154,-32.4378466 -20.9639394,-32.4755791 -20.9919195,-32.5140499 -21.0188962,-32.5532413 -21.0449102,-32.5931355 -21.070002,-32.6337148 -21.0942122,-32.6749614 -21.1175813,-32.7168575 -21.1401202,-32.7593282 -21.1618386,-32.8022847 -21.1827791,-32.845695 -21.2029846,-32.8895275 -21.2224975,-32.9337503 -21.2413608,-32.9783317 -21.2596169,-33.0232399 -21.2773087,-33.0684432 -21.3111699,-33.1596079 -21.3432858,-33.2515718 -21.3432858,-33.2515718 -21.5685084,-33.2101642 -21.7947298,-33.1676464 -22.0218724,-33.1239997 -22.2498583,-33.0792054 -22.4786098,-33.0332449 -22.708049,-32.9860994 -22.9380982,-32.9377504 -23.1686796,-32.888179 -23.3997153,-32.8373666 -23.6311277,-32.7852946 -23.8628388,-32.7319442 -24.094771,-32.6772967 -24.3268464,-32.6213336 -24.5589873,-32.564036 -24.7911159,-32.5053854 -25.0231543,-32.445363 -25.2550248,-32.3839501 -25.4866496,-32.3211281 -25.717951,-32.2568783 -25.948851,-32.191182 -26.179272,-32.1240204 -26.4091362,-32.0553751 -26.6383657,-31.9852271 -26.8668828,-31.9135579 -27.0946096,-31.8403488 -27.3214685,-31.7655811 -27.5473816,-31.6892361 -27.7722711,-31.6112952 -27.9960592,-31.5317395 -28.2186682,-31.4505506 -28.4400203,-31.3677096 -28.6600376,-31.2831979 -28.8786424,-31.1969968 -29.0957569,-31.1090877 -29.3113033,-31.0194518 -29.4184642,-30.9739805 -29.5252038,-30.9280705 -29.6315126,-30.8817194 -29.7373807,-30.834925 -29.8427985,-30.7876849 -29.9477561,-30.7399967 -30.052244,-30.6918582 -30.1562523,-30.643267 -30.2597714,-30.5942207 -30.3627915,-30.544717 -30.4653028,-30.4947537 -30.5672958,-30.4443283 -30.6687606,-30.3934385 -30.7696875,-30.3420819 -30.8700668,-30.2902564 -30.9698889,-30.2379594 -31.0691438,-30.1851887 -31.167822,-30.131942 -31.2659137,-30.0782168 -31.3634092,-30.0240109 -31.4600766,-29.9694495 -31.5555078,-29.9147682 -31.6497044,-29.8599744 -31.7426766,-29.8050706 -31.834435,-29.7500593 -31.9249899,-29.694943 -32.0143519,-29.6397241 -32.1025312,-29.584405 -32.1895384,-29.5289883 -32.2753839,-29.4734763 -32.360078,-29.4178716 -32.4436313,-29.3621765 -32.5260541,-29.3063936 -32.607357,-29.2505253 -32.6875502,-29.194574 -32.7666443,-29.1385423 -32.8446496,-29.0824325 -32.9215766,-29.0262471 -32.9974358,-28.9699886 -33.0722375,-28.9136595 -33.1459922,-28.8572621 -33.2187103,-28.800799 -33.2904022,-28.7442726 -33.3610783,-28.6876854 -33.4307492,-28.6310397 -33.4994252,-28.5743382 -33.5671167,-28.5175832 -33.6338342,-28.4607771 -33.6995881,-28.4039225 -33.7643888,-28.3470218 -33.8282468,-28.2900775 -33.8911724,-28.2330919 -33.9531762,-28.1760677 -34.0142685,-28.1190071 -34.0744597,-28.0619127 -34.1337604,-28.004787 -34.1921808,-27.9476324 -34.2497316,-27.8904513 -34.306423,-27.8332462 -34.3622655,-27.7760196 -34.4172695,-27.7187738 -34.4714455,-27.6615115 -34.5248039,-27.604235 -34.5774496,-27.5468405 -34.6295214,-27.4891782 -34.6810227,-27.4312451 -34.7319558,-27.3730392 -34.7823233,-27.3145584 -34.8321277,-27.2558006 -34.8813715,-27.1967638 -34.9300572,-27.137446 -34.9781872,-27.0778451 -35.0257641,-27.0179591 -35.0727902,-26.9577859 -35.1192682,-26.8973234 -35.1652005,-26.8365697 -35.2105896,-26.7755227 -35.2554379,-26.7141803 -35.299748,-26.6525405 -35.3435224,-26.5906013 -35.3867634,-26.5283606 -35.4294737,-26.4658163 -35.4716558,-26.4029664 -35.513312,-26.3398089 -35.5544448,-26.2763417 -35.5950569,-26.2125628 -35.6351506,-26.1484702 -35.6747285,-26.0840617 -35.7137929,-26.0193353 -35.7523465,-25.954289 -35.7903917,-25.8889208 -35.827931,-25.8232286 -35.9015019,-25.690864 -35.9730789,-25.5571788 -36.042682,-25.4221568 -36.1103311,-25.2857814 -36.1760462,-25.1480365 -36.239847,-25.0089055 -36.3017535,-24.8683721 -36.3617856,-24.7264201 -36.4199632,-24.5830329 -36.4763062,-24.4381942 -36.5037963,-24.3652245 -36.5308515,-24.2918409 -36.5574822,-24.2180165 -36.5836898,-24.1437477 -36.6094756,-24.0690307 -36.6348412,-23.9938619 -36.6597879,-23.9182374 -36.6843173,-23.8421537 -36.7084307,-23.7656069 -36.7321296,-23.6885933 -36.7554154,-23.6111093 -36.7782896,-23.5331512 -36.8007535,-23.4547151 -36.8228088,-23.3757975 -36.8444566,-23.2963945 -36.8656986,-23.2165025 -36.8865362,-23.1361177 -36.9069707,-23.0552365 -36.9270037,-22.9738551 -36.9466365,-22.8919698 -36.9658707,-22.8095769 -36.9847075,-22.7266727 -37.0031486,-22.6432534 -37.0211953,-22.5593154 -37.038849,-22.4748549 -37.0561112,-22.3898682 -37.0729834,-22.3043516 -37.0894669,-22.2183014 -37.1055632,-22.1317139 -37.1212738,-22.0445853 -37.1366,-21.9569119 -37.1515434,-21.8686901 -37.1661053,-21.7799161 -37.1802872,-21.6905861 -37.1940905,-21.6006966 -37.2075168,-21.5102437 -37.2205673,-21.4192237 -37.2332436,-21.327633 -37.245547,-21.2354678 -37.2574791,-21.1427244 -37.2690412,-21.0493991 -37.2802349,-20.9554881 -37.2910614,-20.8609878 -37.3015224,-20.7658944 -37.3116191,-20.6702043 -37.3213532,-20.5739136 -37.3307258,-20.4770188 -37.3397387,-20.379516 -37.3483931,-20.2814016 -37.3566904,-20.1826718 -37.3646323,-20.083323 -37.37222,-19.9833514 -37.379455,-19.8827532 -37.3863387,-19.7815249 -37.3928727,-19.6796626 -37.3990583,-19.5771627 -37.4048969,-19.4740214 -37.4103901,-19.3702351 -37.4155392,-19.2657999 -37.4203456,-19.1607123 -37.4248109,-19.0549684 -37.4289365,-18.9485646 -37.4327237,-18.8414971 -37.4361741,-18.7337623 -37.439289,-18.6253563 -37.44207,-18.5162756 -37.4445184,-18.4065164 -37.4466357,-18.2960749 -37.4484233,-18.1849475 -37.4498826,-18.0731304 -37.4510152,-17.96062 -37.4518223,-17.8474124 -37.4523056,-17.7335041 -37.4524664,-17.6188912 -37.4524664,-17.6188912 -37.4523143,-17.5072427 -37.4518573,-17.3962858 -37.4510941,-17.2860165 -37.4500237,-17.1764309 -37.4486448,-17.0675253 -37.4469562,-16.9592956 -37.4449567,-16.851738 -37.4426452,-16.7448487 -37.4400204,-16.6386237 -37.4370813,-16.5330592 -37.4338265,-16.4281512 -37.430255,-16.323896 -37.4263655,-16.2202895 -37.4221568,-16.117328 -37.4176278,-16.0150075 -37.4127772,-15.9133242 -37.407604,-15.8122742 -37.4021069,-15.7118536 -37.3962846,-15.6120585 -37.3901361,-15.512885 -37.3836602,-15.4143293 -37.3768556,-15.3163874 -37.3697213,-15.2190555 -37.3622559,-15.1223297 -37.3544583,-15.0262062 -37.3463273,-14.9306809 -37.3378618,-14.8357502 -37.3290606,-14.7414099 -37.3199224,-14.6476564 -37.3104461,-14.5544857 -37.3006305,-14.4618939 -37.2904744,-14.3698771 -37.2799767,-14.2784315 -37.2691361,-14.1875531 -37.2579514,-14.0972382 -37.2464216,-14.0074827 -37.2345453,-13.9182829 -37.2223215,-13.8296348 -37.2097488,-13.7415345 -37.1968263,-13.6539782 -37.1835525,-13.5669621 -37.1699264,-13.4804821 -37.1559469,-13.3945344 -37.1416126,-13.3091152 -37.1269224,-13.2242205 -37.1118752,-13.1398466 -37.0964697,-13.0559894 -37.0807047,-12.9726451 -37.0645792,-12.8898098 -37.0480918,-12.8074797 -37.0312414,-12.7256508 -37.0140269,-12.6443194 -36.996447,-12.5634814 -36.9785005,-12.483133 -36.9601863,-12.4032703 -36.9415032,-12.3238895 -36.92245,-12.2449867 -36.9030255,-12.1665579 -36.8630578,-12.0111071 -36.8215908,-11.8575059 -36.778615,-11.7057235 -36.7341157,-11.5557123 -36.6879509,-11.4070434 -36.640038,-11.2595335 -36.5903477,-11.1131762 -36.5388507,-10.9679654 -36.4855174,-10.8238946 -36.4303186,-10.6809577 -36.3732248,-10.5391484 -36.3142068,-10.3984603 -36.253235,-10.2588873 -36.1902801,-10.1204231 -36.1253127,-9.9830613 -36.0583035,-9.8467957 -35.989223,-9.71162 -35.9180419,-9.577528 -35.8447308,-9.4445134 -35.8072674,-9.3784081 -35.7692604,-9.3125699 -35.7307062,-9.2469978 -35.6916011,-9.1816912 -35.6519415,-9.1166492 -35.6117237,-9.051871 -35.570944,-8.9873559 -35.5295987,-8.9231031 -35.4876843,-8.8591119 -35.4451969,-8.7953813 -35.4021329,-8.7319106 -35.3584887,-8.6686992 -35.3142606,-8.605746 -35.2694448,-8.5430505 -35.2240379,-8.4806117 -35.1780359,-8.418429 -35.1314354,-8.3565015 -35.0842325,-8.2948284 -35.0364238,-8.233409 -34.9880053,-8.1722425 -34.9389449,-8.1112915 -34.8891282,-8.0504188 -34.8385357,-7.989613 -34.7871582,-7.9288763 -34.7349864,-7.8682103 -34.6820111,-7.8076171 -34.628223,-7.7470986 -34.5736127,-7.6866567 -34.5181711,-7.6262933 -34.4618888,-7.5660104 -34.4047567,-7.5058098 -34.3467653,-7.4456935 -34.2879055,-7.3856634 -34.228168,-7.3257215 -34.1675435,-7.2658696 -34.1060227,-7.2061096 -34.0435964,-7.1464435 -33.9802553,-7.0868733 -33.9159901,-7.0274007 -33.8507916,-6.9680278 -33.7846505,-6.9087565 -33.7175574,-6.8495887 -33.6495033,-6.7905262 -33.5804787,-6.7315711 -33.5104744,-6.6727253 -33.4394811,-6.6139906 -33.3674896,-6.555369 -33.2944906,-6.4968624 -33.2204748,-6.4384727 -33.1454329,-6.3802019 -33.0693558,-6.3220518 -32.992234,-6.2640245 -32.9140584,-6.2061217 -32.8348197,-6.1483455 -32.7545085,-6.0906977 -32.6731157,-6.0331803 -32.590632,-5.9757952 -32.507048,-5.9185443 -32.4223545,-5.8614296 -32.3365423,-5.8044529 -32.2496021,-5.7476161 -32.1615246,-5.6909213 -32.0723005,-5.6343702 -31.9819205,-5.5779649 -31.8903755,-5.5217073 -31.7976561,-5.4655992 -31.703753,-5.4096426 -31.608657,-5.3538395 -31.5123957,-5.2982129 -31.4153881,-5.2430072 -31.3177625,-5.1882895 -31.2195285,-5.1340574 -31.1206959,-5.0803085 -31.0212746,-5.0270404 -30.9212743,-4.9742508 -30.8207048,-4.9219373 -30.7195758,-4.8700976 -30.6178971,-4.8187294 -30.5156785,-4.7678301 -30.4129297,-4.7173975 -30.3096606,-4.6674293 -30.2058808,-4.617923 -30.1016002,-4.5688763 -29.9968285,-4.5202869 -29.8915755,-4.4721523 -29.7858509,-4.4244702 -29.6796646,-4.3772383 -29.5730263,-4.3304542 -29.4659458,-4.2841155 -29.3584328,-4.2382198 -29.2504971,-4.1927649 -29.1421485,-4.1477483 -28.9242517,-4.0590208 -28.7048203,-3.9720182 -28.4839327,-3.8867218 -28.261667,-3.8031127 -28.0381013,-3.7211719 -27.8133137,-3.6408806 -27.5873825,-3.5622198 -27.3603858,-3.4851708 -27.1324018,-3.4097145 -26.9035085,-3.3358322 -26.6737843,-3.2635049 -26.4433071,-3.1927136 -26.2121552,-3.1234396 -25.9804068,-3.055664 -25.7481399,-2.9893678 -25.5154328,-2.9245321 -25.2823636,-2.8611381 -25.0490105,-2.7991669 -24.8154516,-2.7385995 -24.581765,-2.6794171 -24.348029,-2.6216008 -24.1143216,-2.5651318 -23.8807211,-2.509991 -23.6473056,-2.4561596 -23.4141533,-2.4036188 -23.1813423,-2.3523496 -22.9489507,-2.3023331 -22.7170568,-2.2535505 -22.4857386,-2.2059829 -22.2550744,-2.1596113 -22.0251423,-2.1144169 -21.7960204,-2.0703807 -21.567787,-2.027484 -21.3405201,-1.9857077 -21.3405201,-1.9857077 -21.3049523,-2.0791195 -21.2680098,-2.1716051 -21.2294328,-2.2628068 -21.209456,-2.3078077 -21.1889709,-2.3523684 -21.1679403,-2.3964593 -21.1463268,-2.4400506 -21.1240931,-2.4831127 -21.1012021,-2.5256158 -21.0776163,-2.5675303 -21.0532986,-2.6088265 -21.0282117,-2.6494746 -21.0023183,-2.689445 -20.9755811,-2.7287079 -20.9479628,-2.7672337 -20.9194262,-2.8049927 -20.8899986,-2.8418761 -20.8597976,-2.8776889 -20.8288019,-2.9124267 -20.7969847,-2.9460929 -20.7643188,-2.9786908 -20.7307772,-3.010224 -20.6963329,-3.0406956 -20.6609588,-3.0701092 -20.6246279,-3.0984679 -20.5873132,-3.1257753 -20.5489877,-3.1520347 -20.5096242,-3.1772495 -20.4691958,-3.201423 A1.25,1.25 240 0,1 -19.2191958,-3.201423 L-19.2191958,-3.201423 -19.1915579,-3.1851289 -19.1643445,-3.1684028 -19.1375521,-3.1512385 -19.111177,-3.1336301 -19.0852157,-3.1155715 -19.0596646,-3.0970567 -19.0345201,-3.0780797 -19.0097787,-3.0586344 -18.9854367,-3.0387148 -18.9614905,-3.0183149 -18.9379367,-2.9974286 -18.9147715,-2.97605 -18.8919914,-2.9541729 -18.8695928,-2.9317914 -18.8475722,-2.9088994 -18.8259259,-2.8854909 -18.8046504,-2.8615599 -18.783755,-2.8371158 -18.7633554,-2.8123035 -18.7434696,-2.787166 -18.705189,-2.7359459 -18.6688115,-2.6835167 -18.6342358,-2.6299399 -18.6013605,-2.5752765 -18.5700841,-2.5195879 -18.5403052,-2.4629354 -18.5119223,-2.4053803 -18.48484,-2.3469971 -18.4589818,-2.2879083 -18.4342503,-2.2281985 -18.410546,-2.1679472 -18.3877689,-2.1072337 -18.3658194,-2.0461377 -18.3445978,-1.9847386 -18.3039391,-1.8613488 -18.264995,-1.7377002 -18.2269675,-1.6144285 -18.1890587,-1.4921694 -18.1890587,-1.4921694 -17.7698105,-1.4371732 -17.3497501,-1.3842745 -16.9290641,-1.3334213 -16.507939,-1.2845618 -16.0865617,-1.2376441 -15.6651185,-1.1926161 -15.2437962,-1.149426 -14.8227814,-1.1080218 -14.4022606,-1.0683515 -13.9824206,-1.0303632 -13.5634479,-0.9940051 -13.1455291,-0.9592251 -12.7288509,-0.9259713 -12.3135999,-0.8941918 -11.8999626,-0.8638346 -11.4881258,-0.8348477 -11.2829408,-0.820852 -11.078276,-0.8071794 -10.6705132,-0.7807726 -10.4663097,-0.7679606 -10.2612414,-0.7553672 -10.0553196,-0.7429907 -9.8485554,-0.7308294 -9.6409603,-0.7188815 -9.4325454,-0.7071453 -9.2233219,-0.695619 -9.0133012,-0.6843009 -8.8024946,-0.6731893 -8.5909131,-0.6622824 -8.3785682,-0.6515786 -8.1654711,-0.6410759 -7.951633,-0.6307728 -7.7370652,-0.6206675 -7.521779,-0.6107582 -7.3057856,-0.6010432 -7.0890962,-0.5915208 -6.8717222,-0.5821893 -6.6536747,-0.5730468 -6.4349651,-0.5640917 -6.2156046,-0.5553222 -5.9956045,-0.5467366 -5.774976,-0.5383331 -5.5537303,-0.5301101 -5.3318788,-0.5220657 -5.1094327,-0.5141982 -4.6628017,-0.4989872 -4.2139273,-0.4844631 -3.7628997,-0.470612 -3.3098089,-0.4574199 -2.8547449,-0.4448731 -2.3977979,-0.4329576 -1.9390579,-0.4216595 -1.478615,-0.4109649 -1.0165592,-0.4008599 -0.5529805,-0.3913307 -0.0879692,-0.3823633 0.3783849,-0.3739438 0.8459915,-0.3660583 1.3147607,-0.3586929 1.7846023,-0.3518338 2.2554264,-0.345467 2.7271428,-0.3395787 3.1996615,-0.3341549 3.6728924,-0.3291817 4.1467455,-0.3246453 4.6211306,-0.3205317 5.5711369,-0.3135175 6.5221907,-0.3080279 7.4735715,-0.3039518 8.4245588,-0.3011779 9.3744321,-0.2995951 9.8487258,-0.2992156 10.3224708,-0.2990922 10.3224708,-0.2990922 10.8021886,-0.2991875 11.2826144,-0.2994773 12.2449771,-0.3006653 13.2083328,-0.3027048 14.171455,-0.3056445 15.1331176,-0.3095334 16.0930403,-0.3144252 17.0550299,-0.3204049 18.018401,-0.3275452 18.018401,-0.3275452 18.0615858,-0.3494856 18.1035259,-0.3734448 18.1442539,-0.3994249 18.1838024,-0.427428 18.222204,-0.4574564 18.259367,-0.4893992 18.2951035,-0.5230083 18.3294683,-0.5582167 18.3625217,-0.5949624 18.3943242,-0.6331831 18.4249364,-0.6728168 18.4544187,-0.7138013 18.4828316,-0.7560744 18.5102355,-0.7995741 18.536691,-0.8442381 18.5622585,-0.8900045 18.5869993,-0.9368134 18.610977,-0.984616 18.6342498,-1.0333528 18.6568753,-1.0829624 18.6789113,-1.1333835 18.7004153,-1.1845549 18.721445,-1.2364151 18.742058,-1.288903 18.7822644,-1.3955164 18.8214957,-1.5039045 18.8602128,-1.6135769 18.898877,-1.7240431 18.9379492,-1.8348126 18.9778905,-1.9453951 19.019162,-2.0552999 19.0404406,-2.109845 19.0622248,-2.1640367 19.0845673,-2.2178034 19.1075095,-2.2710495 19.1311097,-2.3237229 19.1554282,-2.3757757 19.1805252,-2.4271597 19.206461,-2.477827 19.2332958,-2.5277296 19.2610899,-2.5768194 19.2899035,-2.6250486 19.3197968,-2.6723691 19.3508301,-2.7187329 19.3830637,-2.764092 19.4165577,-2.8083984 19.4512549,-2.8514627 19.4870212,-2.893046 19.5238981,-2.9331509 19.5619293,-2.9717829 19.6011585,-3.0089475 19.6416293,-3.04465 19.6833855,-3.078896 19.7264707,-3.1116908 19.7709286,-3.14304 19.816803,-3.1729489 19.8641375,-3.201423 A1.25,1.25 240 0,1 21.1141375,-3.201423z" transform="matrix(1,0,0,-1,60.1775292,0.3811088)" fill="rgb(255,255,255)" stroke="rgb(0,0,0)" stroke-width="0.0010cm" stroke-linecap="round" stroke-linejoin="round" /><path d="M-42.1525292,-8.3188912 a0.475,0.475 0 1,1 0.95,0 a0.475,0.475 0 1,1 -0.95,0z" transform="matrix(1,0,0,-1,60.1775292,0.3811088)" fill="rgb(255,255,255)" stroke="rgb(0,0,0)" stroke-width="0.0010cm" stroke-linecap="round" stroke-linejoin="round" /><path d="M-50.1525292,-7.6975709 a0.475,0.475 0 1,1 0.95,0 a0.475,0.475 0 1,1 -0.95,0z" transform="matrix(1,0,0,-1,60.1775292,0.3811088)" fill="rgb(255,255,255)" stroke="rgb(0,0,0)" stroke-width="0.0010cm" stroke-linecap="round" stroke-linejoin="round" /><path d="M-41.5312088,-13.6188912 a0.475,0.475 0 1,1 0.95,0 a0.475,0.475 0 1,1 -0.95,0z" transform="matrix(1,0,0,-1,60.1775292,0.3811088)" fill="rgb(255,255,255)" stroke="rgb(0,0,0)" stroke-width="0.0010cm" stroke-linecap="round" stroke-linejoin="round" /><path d="M-41.5312088,-21.6188912 a0.475,0.475 0 1,1 0.95,0 a0.475,0.475 0 1,1 -0.95,0z" transform="matrix(1,0,0,-1,60.1775292,0.3811088)" fill="rgb(255,255,255)" stroke="rgb(0,0,0)" stroke-width="0.0010cm" stroke-linecap="round" stroke-linejoin="round" /><path d="M-58.1525292,-7.6975709 a0.475,0.475 0 1,1 0.95,0 a0.475,0.475 0 1,1 -0.95,0z" transform="matrix(1,0,0,-1,60.1775292,0.3811088)" fill="rgb(255,255,255)" stroke="rgb(0,0,0)" stroke-width="0.0010cm" stroke-linecap="round" stroke-linejoin="round" /><path d="M-42.1525292,-26.9188912 a0.475,0.475 0 1,1 0.95,0 a0.475,0.475 0 1,1 -0.95,0z" transform="matrix(1,0,0,-1,60.1775292,0.3811088)" fill="rgb(255,255,255)" stroke="rgb(0,0,0)" stroke-width="0.0010cm" stroke-linecap="round" stroke-linejoin="round" /><path d="M-58.1525292,-27.5402115 a0.475,0.475 0 1,1 0.95,0 a0.475,0.475 0 1,1 -0.95,0z" transform="matrix(1,0,0,-1,60.1775292,0.3811088)" fill="rgb(255,255,255)" stroke="rgb(0,0,0)" stroke-width="0.0010cm" stroke-linecap="round" stroke-linejoin="round" /><path d="M-50.1525292,-27.5402115 a0.475,0.475 0 1,1 0.95,0 a0.475,0.475 0 1,1 -0.95,0z" transform="matrix(1,0,0,-1,60.1775292,0.3811088)" fill="rgb(255,255,255)" stroke="rgb(0,0,0)" stroke-width="0.0010cm" stroke-linecap="round" stroke-linejoin="round" /></svg>