<?xml version="1.0" encoding="UTF-8" standalone="no"?>
<!-- Generator: Fusion 360, Shaper Origin Export Add-In, Version 1.8.0  -->

<svg
   shaper:fusionaddin="version:1.8.0"
   width="21.6cm"
   height="20cm"
   version="1.1"
   x="0cm"
   y="0cm"
   viewBox="0 0 21.6 20"
   enable-background="new 0 0 21.6 20"
   xml:space="preserve"
   id="svg1312"
   sodipodi:docname="PCB_mouting_plate_Faces.svg"
   inkscape:version="1.2.2 (732a01da63, 2022-12-09)"
   xmlns:inkscape="http://www.inkscape.org/namespaces/inkscape"
   xmlns:sodipodi="http://sodipodi.sourceforge.net/DTD/sodipodi-0.dtd"
   xmlns="http://www.w3.org/2000/svg"
   xmlns:svg="http://www.w3.org/2000/svg"
   xmlns:shaper="http://www.shapertools.com/namespaces/shaper"><defs
     id="defs1316" /><sodipodi:namedview
     id="namedview1314"
     pagecolor="#505050"
     bordercolor="#eeeeee"
     borderopacity="1"
     inkscape:showpageshadow="0"
     inkscape:pageopacity="0"
     inkscape:pagecheckerboard="0"
     inkscape:deskcolor="#505050"
     inkscape:document-units="cm"
     showgrid="false"
     inkscape:zoom="1.5041929"
     inkscape:cx="484.31288"
     inkscape:cy="421.8209"
     inkscape:window-width="1920"
     inkscape:window-height="991"
     inkscape:window-x="-9"
     inkscape:window-y="-9"
     inkscape:window-maximized="1"
     inkscape:current-layer="svg1312" /><g
     id="g1454"
     style="fill:none;stroke:#000000;stroke-opacity:1;stroke-width:0.1;stroke-dasharray:none"><path
       d="M-7.8,10 A3,3 90 0,1 -10.8,7 L-10.8,-10 10.8,-10 10.8,7 A3,3 0 0,1 7.8,10 L-7.8,10z"
       transform="matrix(1,0,0,-1,10.8,10)"
       fill="rgb(0,0,0)"
       stroke-linecap="round"
       stroke-linejoin="round"
       id="path1274"
       style="fill:none;stroke:#000000;stroke-opacity:1;stroke-width:0.1;stroke-dasharray:none" /><path
       d="M4.72464,-6.09989 a0.125,0.125 0 1,1 0.25,0 a0.125,0.125 0 1,1 -0.25,0z"
       transform="matrix(1,0,0,-1,10.8,10)"
       fill="rgb(255,255,255)"
       stroke="rgb(0,0,0)"
       stroke-width="0.0010cm"
       stroke-linecap="round"
       stroke-linejoin="round"
       id="path1276"
       style="fill:none;stroke:#000000;stroke-opacity:1;stroke-width:0.1;stroke-dasharray:none" /><path
       d="M-6.57,-1.65 a0.17,0.17 0 1,1 0.34,0 a0.17,0.17 0 1,1 -0.34,0z"
       transform="matrix(1,0,0,-1,10.8,10)"
       fill="rgb(255,255,255)"
       stroke="rgb(0,0,0)"
       stroke-width="0.0010cm"
       stroke-linecap="round"
       stroke-linejoin="round"
       id="path1278"
       style="fill:none;stroke:#000000;stroke-opacity:1;stroke-width:0.1;stroke-dasharray:none" /><path
       d="M2.03,-8.45 a0.17,0.17 0 1,1 0.34,0 a0.17,0.17 0 1,1 -0.34,0z"
       transform="matrix(1,0,0,-1,10.8,10)"
       fill="rgb(255,255,255)"
       stroke="rgb(0,0,0)"
       stroke-width="0.0010cm"
       stroke-linecap="round"
       stroke-linejoin="round"
       id="path1280"
       style="fill:none;stroke:#000000;stroke-opacity:1;stroke-width:0.1;stroke-dasharray:none" /><path
       d="M2.03,5.15 a0.17,0.17 0 1,1 0.34,0 a0.17,0.17 0 1,1 -0.34,0z"
       transform="matrix(1,0,0,-1,10.8,10)"
       fill="rgb(255,255,255)"
       stroke="rgb(0,0,0)"
       stroke-width="0.0010cm"
       stroke-linecap="round"
       stroke-linejoin="round"
       id="path1282"
       style="fill:none;stroke:#000000;stroke-opacity:1;stroke-width:0.1;stroke-dasharray:none" /><path
       d="M4.72464,-1.99989 a0.125,0.125 0 1,1 0.25,0 a0.125,0.125 0 1,1 -0.25,0z"
       transform="matrix(1,0,0,-1,10.8,10)"
       fill="rgb(255,255,255)"
       stroke="rgb(0,0,0)"
       stroke-width="0.0010cm"
       stroke-linecap="round"
       stroke-linejoin="round"
       id="path1284"
       style="fill:none;stroke:#000000;stroke-opacity:1;stroke-width:0.1;stroke-dasharray:none" /><path
       d="M8.02464,-6.09989 a0.125,0.125 0 1,1 0.25,0 a0.125,0.125 0 1,1 -0.25,0z"
       transform="matrix(1,0,0,-1,10.8,10)"
       fill="rgb(255,255,255)"
       stroke="rgb(0,0,0)"
       stroke-width="0.0010cm"
       stroke-linecap="round"
       stroke-linejoin="round"
       id="path1286"
       style="fill:none;stroke:#000000;stroke-opacity:1;stroke-width:0.1;stroke-dasharray:none" /><path
       d="M2.03,-1.65 a0.17,0.17 0 1,1 0.34,0 a0.17,0.17 0 1,1 -0.34,0z"
       transform="matrix(1,0,0,-1,10.8,10)"
       fill="rgb(255,255,255)"
       stroke="rgb(0,0,0)"
       stroke-width="0.0010cm"
       stroke-linecap="round"
       stroke-linejoin="round"
       id="path1288"
       style="fill:none;stroke:#000000;stroke-opacity:1;stroke-width:0.1;stroke-dasharray:none" /><path
       d="M-6.57,-8.45 a0.17,0.17 0 1,1 0.34,0 a0.17,0.17 0 1,1 -0.34,0z"
       transform="matrix(1,0,0,-1,10.8,10)"
       fill="rgb(255,255,255)"
       stroke="rgb(0,0,0)"
       stroke-width="0.0010cm"
       stroke-linecap="round"
       stroke-linejoin="round"
       id="path1290"
       style="fill:none;stroke:#000000;stroke-opacity:1;stroke-width:0.1;stroke-dasharray:none" /><path
       d="M-6.57,5.15 a0.17,0.17 0 1,1 0.34,0 a0.17,0.17 0 1,1 -0.34,0z"
       transform="matrix(1,0,0,-1,10.8,10)"
       fill="rgb(255,255,255)"
       stroke="rgb(0,0,0)"
       stroke-width="0.0010cm"
       stroke-linecap="round"
       stroke-linejoin="round"
       id="path1292"
       style="fill:none;stroke:#000000;stroke-opacity:1;stroke-width:0.1;stroke-dasharray:none" /><path
       d="M8.02464,-1.99989 a0.125,0.125 0 1,1 0.25,0 a0.125,0.125 0 1,1 -0.25,0z"
       transform="matrix(1,0,0,-1,10.8,10)"
       fill="rgb(255,255,255)"
       stroke="rgb(0,0,0)"
       stroke-width="0.0010cm"
       stroke-linecap="round"
       stroke-linejoin="round"
       id="path1294"
       style="fill:none;stroke:#000000;stroke-opacity:1;stroke-width:0.1;stroke-dasharray:none" /><path
       d="M-10.3963203,0.5 a0.475,0.475 0 1,1 0.95,0 a0.475,0.475 0 1,1 -0.95,0z"
       transform="matrix(1,0,0,-1,10.8,10)"
       fill="rgb(255,255,255)"
       stroke="rgb(0,0,0)"
       stroke-width="0.0010cm"
       stroke-linecap="round"
       stroke-linejoin="round"
       id="path1296"
       style="fill:none;stroke:#000000;stroke-opacity:1;stroke-width:0.1;stroke-dasharray:none" /><path
       d="M9.4463203,0.5 a0.475,0.475 0 1,1 0.95,0 a0.475,0.475 0 1,1 -0.95,0z"
       transform="matrix(1,0,0,-1,10.8,10)"
       fill="rgb(255,255,255)"
       stroke="rgb(0,0,0)"
       stroke-width="0.0010cm"
       stroke-linecap="round"
       stroke-linejoin="round"
       id="path1298"
       style="fill:none;stroke:#000000;stroke-opacity:1;stroke-width:0.1;stroke-dasharray:none" /><path
       d="M-9.775,8.5 a0.475,0.475 0 1,1 0.95,0 a0.475,0.475 0 1,1 -0.95,0z"
       transform="matrix(1,0,0,-1,10.8,10)"
       fill="rgb(255,255,255)"
       stroke="rgb(0,0,0)"
       stroke-width="0.0010cm"
       stroke-linecap="round"
       stroke-linejoin="round"
       id="path1300"
       style="fill:none;stroke:#000000;stroke-opacity:1;stroke-width:0.1;stroke-dasharray:none" /><path
       d="M8.825,8.5 a0.475,0.475 0 1,1 0.95,0 a0.475,0.475 0 1,1 -0.95,0z"
       transform="matrix(1,0,0,-1,10.8,10)"
       fill="rgb(255,255,255)"
       stroke="rgb(0,0,0)"
       stroke-width="0.0010cm"
       stroke-linecap="round"
       stroke-linejoin="round"
       id="path1302"
       style="fill:none;stroke:#000000;stroke-opacity:1;stroke-width:0.1;stroke-dasharray:none" /><path
       d="M3.525,9.1213203 a0.475,0.475 0 1,1 0.95,0 a0.475,0.475 0 1,1 -0.95,0z"
       transform="matrix(1,0,0,-1,10.8,10)"
       fill="rgb(255,255,255)"
       stroke="rgb(0,0,0)"
       stroke-width="0.0010cm"
       stroke-linecap="round"
       stroke-linejoin="round"
       id="path1304"
       style="fill:none;stroke:#000000;stroke-opacity:1;stroke-width:0.1;stroke-dasharray:none" /><path
       d="M9.4463203,-7.5 a0.475,0.475 0 1,1 0.95,0 a0.475,0.475 0 1,1 -0.95,0z"
       transform="matrix(1,0,0,-1,10.8,10)"
       fill="rgb(255,255,255)"
       stroke="rgb(0,0,0)"
       stroke-width="0.0010cm"
       stroke-linecap="round"
       stroke-linejoin="round"
       id="path1306"
       style="fill:none;stroke:#000000;stroke-opacity:1;stroke-width:0.1;stroke-dasharray:none" /><path
       d="M-4.475,9.1213203 a0.475,0.475 0 1,1 0.95,0 a0.475,0.475 0 1,1 -0.95,0z"
       transform="matrix(1,0,0,-1,10.8,10)"
       fill="rgb(255,255,255)"
       stroke="rgb(0,0,0)"
       stroke-width="0.0010cm"
       stroke-linecap="round"
       stroke-linejoin="round"
       id="path1308"
       style="fill:none;stroke:#000000;stroke-opacity:1;stroke-width:0.1;stroke-dasharray:none" /><path
       d="M-10.3963203,-7.5 a0.475,0.475 0 1,1 0.95,0 a0.475,0.475 0 1,1 -0.95,0z"
       transform="matrix(1,0,0,-1,10.8,10)"
       fill="rgb(255,255,255)"
       stroke="rgb(0,0,0)"
       stroke-width="0.0010cm"
       stroke-linecap="round"
       stroke-linejoin="round"
       id="path1310"
       style="fill:none;stroke:#000000;stroke-opacity:1;stroke-width:0.1;stroke-dasharray:none" /></g></svg>
