<?xml version="1.0" encoding="UTF-8" standalone="no"?>
<!-- Generator: Fusion 360, Shaper Origin Export Add-In, Version 1.8.0  -->

<svg
   shaper:fusionaddin="version:1.8.0"
   width="36cm"
   height="21.1933333cm"
   version="1.1"
   x="0cm"
   y="0cm"
   viewBox="0 0 36 21.1933333"
   enable-background="new 0 0 36 21.1933333"
   xml:space="preserve"
   id="svg4384"
   sodipodi:docname="Topplate_2_Faces.svg"
   inkscape:version="1.2.2 (732a01da63, 2022-12-09)"
   xmlns:inkscape="http://www.inkscape.org/namespaces/inkscape"
   xmlns:sodipodi="http://sodipodi.sourceforge.net/DTD/sodipodi-0.dtd"
   xmlns="http://www.w3.org/2000/svg"
   xmlns:svg="http://www.w3.org/2000/svg"
   xmlns:shaper="http://www.shapertools.com/namespaces/shaper"><defs
     id="defs4388" /><sodipodi:namedview
     id="namedview4386"
     pagecolor="#505050"
     bordercolor="#eeeeee"
     borderopacity="1"
     inkscape:showpageshadow="0"
     inkscape:pageopacity="0"
     inkscape:pagecheckerboard="0"
     inkscape:deskcolor="#505050"
     inkscape:document-units="cm"
     showgrid="false"
     inkscape:zoom="0.48139468"
     inkscape:cx="593.06846"
     inkscape:cy="354.17924"
     inkscape:window-width="1920"
     inkscape:window-height="991"
     inkscape:window-x="-9"
     inkscape:window-y="-9"
     inkscape:window-maximized="1"
     inkscape:current-layer="svg4384" /><g
     id="g10548"><path
       d="m 1.322217,5.08449 v 0 l -0.02554,-0.0105 -0.02572,-0.0099 -0.02589,-0.0093 -0.02606,-0.0087 -0.02623,-0.0081 -0.02639,-0.0075 -0.02654,-0.0069 -0.02668,-0.0063 -0.05376,-0.01076 -0.05421,-0.0084 -0.05455,-0.0061 -0.05477,-0.0039 -0.05485,-0.0016 -0.05479,5.79e-4 -0.05457,0.0028 -0.05418,0.005 -0.0536,0.0072 -0.05284,0.0094 -0.02607,0.0055 -0.0258,0.0061 -0.02551,0.0067 -0.02519,0.0072 -0.02484,0.0078 -0.02446,0.0084 -0.02406,0.009 -0.02363,0.0096 -0.02317,0.0102 -0.02268,0.01082 -0.02216,0.01144 -0.02161,0.01208 -0.02103,0.01273 -0.02042,0.01339 -0.01979,0.01406 -0.01912,0.01475 -0.01842,0.01545 -0.0177,0.01616 -0.01695,0.01688 -0.01616,0.01762 -0.01535,0.01837 -0.01452,0.01914 -0.01365,0.01991 -0.01276,0.0207 -0.01185,0.02151 -0.01091,0.02233 -0.0099,0.02316 -0.009,0.024 -0.008,0.02485 -0.0069,0.02572 -0.0059,0.02659 -0.0049,0.02747 -0.0038,0.02836 -0.0027,0.02925 -0.0016,0.03016 -5.44e-4,0.03106 v 10.433334 0 l 5.44e-4,0.03106 0.0016,0.03015 0.0027,0.02926 0.0038,0.02836 0.0049,0.02747 0.0059,0.02659 0.0069,0.02572 0.008,0.02485 0.009,0.024 0.0099,0.02316 0.01091,0.02233 0.01185,0.02151 0.01276,0.02071 0.01365,0.01991 0.01452,0.01914 0.01535,0.01837 0.01616,0.01762 0.01695,0.01688 0.0177,0.01616 0.01842,0.01545 0.01912,0.01475 0.01979,0.01407 0.02042,0.01339 0.02103,0.01273 0.02161,0.01208 0.02216,0.01144 0.02268,0.01081 0.02317,0.0102 0.02363,0.0096 0.02406,0.009 0.02446,0.0084 0.02484,0.0078 0.02519,0.0072 0.02551,0.0067 0.0258,0.0061 0.02607,0.0055 0.05284,0.0094 0.0536,0.0072 0.05418,0.005 0.05457,0.0028 0.05479,5.79e-4 0.05485,-0.0016 0.05477,-0.0039 0.05455,-0.0061 0.05421,-0.0084 0.05376,-0.01076 0.02668,-0.0063 0.02654,-0.0069 0.02639,-0.0075 0.02623,-0.0081 0.02606,-0.0087 0.02589,-0.0093 0.02572,-0.0099 0.02554,-0.0105 a 0.711,0.711 0 1 1 0,1.308981 v 0 l -0.02554,-0.0105 -0.02572,-0.0099 -0.02589,-0.0093 -0.02606,-0.0087 -0.02623,-0.0081 -0.02639,-0.0075 -0.02654,-0.0069 -0.02668,-0.0063 -0.05376,-0.01076 -0.05421,-0.0084 -0.05455,-0.0061 -0.05477,-0.0039 -0.05485,-0.0016 -0.05479,5.78e-4 -0.05457,0.0028 -0.05418,0.005 -0.0536,0.0072 -0.05284,0.0094 -0.02607,0.0055 -0.0258,0.0061 -0.02551,0.0067 -0.02519,0.0072 -0.02484,0.0078 -0.02446,0.0084 -0.02406,0.009 -0.02363,0.0096 -0.02317,0.0102 -0.02268,0.01082 -0.02216,0.01144 -0.02161,0.01208 -0.02103,0.01273 -0.02042,0.01339 -0.01979,0.01406 -0.01912,0.01475 -0.01842,0.01545 -0.0177,0.01616 -0.01695,0.01688 -0.01616,0.01762 -0.01535,0.01837 -0.01452,0.01914 -0.01365,0.01991 -0.01276,0.02071 -0.01185,0.02151 -0.01091,0.02233 -0.0099,0.02316 -0.009,0.024 -0.008,0.02485 -0.0069,0.02572 -0.0059,0.02659 -0.0049,0.02747 -0.0038,0.02836 -0.0027,0.02926 -0.0016,0.03015 -5.44e-4,0.03106 v 2.73 h 1.8 v 0 l 0.07653,-9.46e-4 0.07627,-0.0028 0.07601,-0.0047 0.07576,-0.0065 0.07552,-0.0081 0.0753,-0.0098 0.07509,-0.01125 0.0749,-0.01262 0.07472,-0.01387 0.07457,-0.01497 0.07443,-0.01593 0.07432,-0.01674 0.148388,-0.03527 0.148204,-0.03658 0.148205,-0.03658 0.148387,-0.03527 0.07432,-0.01674 0.07443,-0.01593 0.07457,-0.01497 0.07472,-0.01387 0.0749,-0.01262 0.07509,-0.01125 0.0753,-0.0098 0.07552,-0.0082 0.07576,-0.0064 0.07601,-0.0047 0.07627,-0.0028 0.07653,-9.46e-4 H 28.8 v 0 l 0.10115,9.46e-4 0.100952,0.0028 0.100758,0.0047 0.100572,0.0064 0.100392,0.0082 0.100223,0.0098 0.100066,0.01125 0.09992,0.01262 0.09979,0.01387 0.09967,0.01497 0.09957,0.01593 0.09949,0.01674 0.198789,0.03527 0.19865,0.03658 0.198651,0.03658 0.198788,0.03527 0.09949,0.01674 0.09957,0.01593 0.09967,0.01497 0.09979,0.01387 0.09992,0.01262 0.100066,0.01125 0.100224,0.0098 0.100392,0.0081 0.100571,0.0065 0.100759,0.0047 0.100952,0.0028 0.101149,9.46e-4 h 4.000001 v -2.73 0 l -5.45e-4,-0.03106 -0.0016,-0.03015 -0.0027,-0.02926 -0.0038,-0.02836 -0.0048,-0.02747 -0.0059,-0.02659 -0.0069,-0.02572 -0.008,-0.02485 -0.009,-0.024 -0.01,-0.02316 -0.01091,-0.02233 -0.01185,-0.02151 -0.01276,-0.02071 -0.01365,-0.01991 -0.01452,-0.01914 -0.01535,-0.01837 -0.01616,-0.01762 -0.01695,-0.01688 -0.0177,-0.01616 -0.01842,-0.01545 -0.01912,-0.01475 -0.01979,-0.01406 -0.02042,-0.01339 -0.02103,-0.01273 -0.02161,-0.01208 -0.02216,-0.01144 -0.02268,-0.01082 -0.02317,-0.0102 -0.02363,-0.0096 -0.02406,-0.009 -0.02446,-0.0084 -0.02484,-0.0078 -0.02519,-0.0072 -0.02551,-0.0067 -0.0258,-0.0061 -0.02607,-0.0055 -0.05284,-0.0094 -0.0536,-0.0072 -0.05418,-0.005 -0.05457,-0.0028 -0.05479,-5.78e-4 -0.05485,0.0016 -0.05477,0.0039 -0.05455,0.0061 -0.05421,0.0084 -0.05376,0.01076 -0.02668,0.0063 -0.02654,0.0069 -0.02639,0.0075 -0.02623,0.0081 -0.02606,0.0087 -0.02589,0.0093 -0.02572,0.0099 -0.02554,0.0105 a 0.711,0.711 0 1 1 0,-1.308981 v 0 l 0.02554,0.0105 0.02572,0.0099 0.02589,0.0093 0.02606,0.0087 0.02623,0.0081 0.02639,0.0075 0.02654,0.0069 0.02668,0.0063 0.05376,0.01076 0.05421,0.0084 0.05455,0.0061 0.05477,0.0039 0.05485,0.0016 0.05479,-5.79e-4 0.05457,-0.0028 0.05418,-0.005 0.0536,-0.0072 0.05284,-0.0094 0.02607,-0.0055 0.0258,-0.0061 0.02551,-0.0067 0.02519,-0.0072 0.02484,-0.0078 0.02446,-0.0084 0.02406,-0.009 0.02363,-0.0096 0.02317,-0.0102 0.02268,-0.01081 0.02216,-0.01144 0.02161,-0.01208 0.02103,-0.01273 0.02042,-0.01339 0.01979,-0.01407 0.01912,-0.01475 0.01842,-0.01545 0.0177,-0.01616 0.01695,-0.01688 0.01616,-0.01762 0.01535,-0.01837 0.01452,-0.01914 0.01365,-0.01991 0.01276,-0.02071 0.01185,-0.02151 0.01091,-0.02233 0.01,-0.02316 0.009,-0.024 0.008,-0.02485 0.0069,-0.02572 0.0059,-0.02659 0.0048,-0.02747 0.0038,-0.02836 0.0027,-0.02926 0.0016,-0.03015 5.45e-4,-0.03106 v -10.433334 0 l -5.45e-4,-0.03106 -0.0016,-0.03016 -0.0027,-0.02925 -0.0038,-0.02836 -0.0048,-0.02747 -0.0059,-0.02659 -0.0069,-0.02572 -0.008,-0.02485 -0.009,-0.024 -0.01,-0.02316 -0.01091,-0.02233 -0.01185,-0.02151 -0.01276,-0.0207 -0.01365,-0.01991 -0.01452,-0.01914 -0.01535,-0.01837 -0.01616,-0.01762 -0.01695,-0.01688 -0.0177,-0.01616 -0.01842,-0.01545 -0.01912,-0.01475 -0.01979,-0.01406 -0.02042,-0.01339 -0.02103,-0.01273 -0.02161,-0.01208 -0.02216,-0.01144 -0.02268,-0.01082 -0.02317,-0.0102 -0.02363,-0.0096 -0.02406,-0.009 -0.02446,-0.0084 -0.02484,-0.0078 -0.02519,-0.0072 -0.02551,-0.0067 -0.0258,-0.0061 -0.02607,-0.0055 -0.05284,-0.0094 -0.0536,-0.0072 -0.05418,-0.005 -0.05457,-0.0028 -0.05479,-5.79e-4 -0.05485,0.0016 -0.05477,0.0039 -0.05455,0.0061 -0.05421,0.0084 -0.05376,0.01076 -0.02668,0.0063 -0.02654,0.0069 -0.02639,0.0075 -0.02623,0.0081 -0.02606,0.0087 -0.02589,0.0093 -0.02572,0.0099 -0.02554,0.0105 a 0.711,0.711 0 1 1 0,-1.30898 v 0 l 0.02554,0.0105 0.02572,0.0099 0.02589,0.0093 0.02606,0.0087 0.02623,0.0081 0.02639,0.0075 0.02654,0.0069 0.02668,0.0063 0.05376,0.01076 0.05421,0.0084 0.05455,0.0061 0.05477,0.0039 0.05485,0.0016 0.05479,-5.78e-4 0.05457,-0.0028 0.05418,-0.005 0.0536,-0.0072 0.05284,-0.0094 0.02607,-0.0055 0.0258,-0.0061 0.02551,-0.0067 0.02519,-0.0072 0.02484,-0.0078 0.02446,-0.0084 0.02406,-0.009 0.02363,-0.0096 0.02317,-0.0102 0.02268,-0.01081 0.02216,-0.01144 0.02161,-0.01208 0.02103,-0.01273 0.02042,-0.01339 0.01979,-0.01407 0.01912,-0.01475 0.01842,-0.01545 0.0177,-0.01616 0.01695,-0.01688 0.01616,-0.01762 0.01535,-0.01837 0.01452,-0.01914 0.01365,-0.01991 0.01276,-0.02071 0.01185,-0.02151 0.01091,-0.02233 0.01,-0.02316 0.009,-0.024 0.008,-0.02485 0.0069,-0.02572 0.0059,-0.02659 0.0048,-0.02747 0.0038,-0.02836 0.0027,-0.02926 0.0016,-0.03015 5.45e-4,-0.03106 v -3.23 h -4 v 0 l -0.06433,9.46e-4 -0.06402,0.0028 -0.06371,0.0047 -0.06341,0.0064 -0.06312,0.0081 -0.06286,0.0098 -0.06261,0.01125 -0.06238,0.01262 -0.06217,0.01387 -0.06198,0.01497 -0.06182,0.01593 -0.06168,0.01674 -0.123069,0.03527 -0.12285,0.03658 -0.122849,0.03658 -0.123069,0.03527 -0.06169,0.01674 -0.06182,0.01593 -0.06198,0.01497 -0.06217,0.01387 -0.06237,0.01262 -0.0626,0.01125 -0.06286,0.0098 -0.06313,0.0081 -0.06341,0.0064 -0.06371,0.0047 -0.06402,0.0028 -0.06433,9.46e-4 H 4.9 v 0 L 4.80194,0.379028 4.70408,0.376228 4.60642,0.371528 4.50896,0.365128 4.41168,0.357028 4.31457,0.347228 4.21763,0.335978 4.12084,0.323358 4.02418,0.309488 3.92764,0.294518 3.83121,0.278588 3.73486,0.261848 3.542361,0.226578 3.350003,0.189998 3.157646,0.153418 l -0.1925,-0.03527 -0.09635,-0.01674 -0.09643,-0.01593 -0.09654,-0.01497 -0.09666,-0.01387 -0.09679,-0.01262 -0.09694,-0.01125 -0.0971,-0.0098 -0.09728,-0.0081 -0.09746,-0.0064 -0.09766,-0.0047 -0.09786,-0.0028 -0.09806,-9.46e-4 h -1.8 v 3.23 0 l 5.44e-4,0.03106 0.0016,0.03015 0.0027,0.02926 0.0038,0.02836 0.0049,0.02747 0.0059,0.02659 0.0069,0.02572 0.008,0.02485 0.009,0.024 0.0099,0.02316 0.01091,0.02233 0.01185,0.02151 0.01276,0.02071 0.01365,0.01991 0.01452,0.01914 0.01535,0.01837 0.01616,0.01762 0.01695,0.01688 0.0177,0.01616 0.01842,0.01545 0.01912,0.01475 0.01979,0.01407 0.02042,0.01339 0.02103,0.01273 0.02161,0.01208 0.02216,0.01144 0.02268,0.01081 0.02317,0.0102 0.02363,0.0096 0.02406,0.009 0.02446,0.0084 0.02484,0.0078 0.02519,0.0072 0.02551,0.0067 0.0258,0.0061 0.02607,0.0055 0.05284,0.0094 0.0536,0.0072 0.05418,0.005 0.05457,0.0028 L 0.84105,3.87347 0.8959,3.87187 0.95067,3.86797 1.00522,3.86187 1.05943,3.85347 1.11319,3.84271 1.13987,3.83641 1.16641,3.82951 1.1928,3.82201 1.21903,3.81391 1.24509,3.80521 1.27098,3.79591 1.2967,3.78601 1.32224,3.77551 a 0.711,0.711 0 1 1 0,1.30898 z"
       fill="rgb(0,0,0)"
       stroke-linecap="round"
       stroke-linejoin="round"
       id="path4380"
       style="fill:none;stroke:#000000;stroke-width:0.1;stroke-dasharray:none;stroke-opacity:1" /><path
       d="m 9.85,8.4633336 a 4.5500001,4.5500001 0 1 0 9.1,0 4.5500002,4.5500002 0 1 0 -9.1,0 z"
       fill="rgb(255,255,255)"
       stroke="rgb(0,0,0)"
       stroke-width="0.0010cm"
       stroke-linecap="round"
       stroke-linejoin="round"
       id="path4382"
       style="fill:none;stroke:#0000ff;stroke-width:0.1;stroke-dasharray:none;stroke-opacity:1" /></g></svg>
