<?xml version="1.0" encoding="utf-8"?>
<!-- Generator: Fusion 360, Shaper Origin Export Add-In, Version 1.8.0  -->
<svg xmlns="http://www.w3.org/2000/svg" xmlns:xlink="http://www.w3.org/1999/xlink" xmlns:shaper="http://www.shapertools.com/namespaces/shaper" shaper:fusionaddin="version:1.8.0" width="36cm" height="20.0266667cm" version="1.1" x="0cm" y="0cm" viewBox="0 0 36 20.0266667" enable-background="new 0 0 36 20.0266667" xml:space="preserve"><path d="M14,-10.0133333 L18,-10.0133333 18,10.0133333 14,10.0133333 14,10.0133333 13.9356674,10.0123874 13.8716499,10.0095629 13.8079409,10.0048982 13.7445304,9.9984531 13.6814052,9.9903068 13.6185492,9.9805549 13.555944,9.969307 13.4935694,9.9566842 13.4314034,9.9428174 13.3694227,9.9278455 13.3076027,9.9119148 13.2459181,9.8951771 13.1228491,9.8599108 13,9.8233333 12.8771509,9.7867559 12.7540819,9.7514896 12.6923973,9.7347519 12.6305773,9.7188211 12.5685966,9.7038493 12.5064306,9.6899824 12.444056,9.6773597 12.3814508,9.6661118 12.3185948,9.6563599 12.2554696,9.6482135 12.1920591,9.6417684 12.1283501,9.6371037 12.0643326,9.6342793 12,9.6333333 -13.1,9.6333333 -13.1,9.6333333 -13.1980616,9.6342793 -13.2959192,9.6371037 -13.393577,9.6417684 -13.4910416,9.6482135 -13.5883214,9.6563599 -13.6854269,9.6661118 -13.78237,9.6773597 -13.8791638,9.6899824 -13.9758225,9.7038493 -14.0723613,9.7188211 -14.168796,9.7347519 -14.265143,9.7514896 -14.4576427,9.7867559 -14.65,9.8233333 -14.8423573,9.8599108 -15.034857,9.8951771 -15.131204,9.9119148 -15.2276387,9.9278455 -15.3241775,9.9428174 -15.4208362,9.9566842 -15.51763,9.969307 -15.6145731,9.9805549 -15.7116786,9.9903068 -15.8089584,9.9984531 -15.906423,10.0048982 -16.0040808,10.0095629 -16.1019384,10.0123874 -16.2,10.0133333 -18,10.0133333 -18,-10.0133333 -16.2,-10.0133333 -16.2,-10.0133333 -16.1235221,-10.0123874 -16.0472982,-10.0095629 -15.9713232,-10.0048982 -15.8955889,-9.9984531 -15.8200847,-9.9903068 -15.7447976,-9.9805549 -15.6697128,-9.969307 -15.5948139,-9.9566842 -15.5200832,-9.9428174 -15.445502,-9.9278455 -15.3710505,-9.9119148 -15.296708,-9.8951771 -15.1482654,-9.8599108 -15,-9.8233333 -14.8517346,-9.7867559 -14.703292,-9.7514896 -14.6289495,-9.7347519 -14.554498,-9.7188211 -14.4799168,-9.7038493 -14.4051861,-9.6899824 -14.3302872,-9.6773597 -14.2552024,-9.6661118 -14.1799153,-9.6563599 -14.1044111,-9.6482135 -14.0286768,-9.6417684 -13.9527018,-9.6371037 -13.8764779,-9.6342793 -13.8,-9.6333333 10.8,-9.6333333 10.8,-9.6333333 10.9011105,-9.6342793 11.0020302,-9.6371037 11.1027628,-9.6417684 11.2033146,-9.6482135 11.3036935,-9.6563599 11.4039092,-9.6661118 11.5039729,-9.6773597 11.6038969,-9.6899824 11.7036945,-9.7038493 11.8033799,-9.7188211 11.9029677,-9.7347519 12.0024736,-9.7514896 12.2013034,-9.7867559 12.4,-9.8233333 12.5986966,-9.8599108 12.7975264,-9.8951771 12.8970323,-9.9119148 12.9966201,-9.9278455 13.0963055,-9.9428174 13.1961031,-9.9566842 13.2960271,-9.969307 13.3960908,-9.9805549 13.4963065,-9.9903068 13.5966854,-9.9984531 13.6972372,-10.0048982 13.7979698,-10.0095629 13.8988895,-10.0123874 14,-10.0133333z" transform="matrix(1,0,0,-1,18,10.0133333)" fill="rgb(0,0,0)" stroke-linecap="round" stroke-linejoin="round" /></svg>