<?xml version="1.0" encoding="UTF-8" standalone="no"?>
<!-- Generator: Fusion 360, Shaper Origin Export Add-In, Version 1.8.0  -->

<svg
   shaper:fusionaddin="version:1.8.0"
   width="36cm"
   height="21.1933333cm"
   version="1.1"
   x="0cm"
   y="0cm"
   viewBox="0 0 36 21.1933333"
   enable-background="new 0 0 36 21.1933333"
   xml:space="preserve"
   id="svg6974"
   sodipodi:docname="Topplate_5_Faces.svg"
   inkscape:version="1.2.2 (732a01da63, 2022-12-09)"
   xmlns:inkscape="http://www.inkscape.org/namespaces/inkscape"
   xmlns:sodipodi="http://sodipodi.sourceforge.net/DTD/sodipodi-0.dtd"
   xmlns="http://www.w3.org/2000/svg"
   xmlns:svg="http://www.w3.org/2000/svg"
   xmlns:shaper="http://www.shapertools.com/namespaces/shaper"><defs
     id="defs6978" /><sodipodi:namedview
     id="namedview6976"
     pagecolor="#505050"
     bordercolor="#eeeeee"
     borderopacity="1"
     inkscape:showpageshadow="0"
     inkscape:pageopacity="0"
     inkscape:pagecheckerboard="0"
     inkscape:deskcolor="#505050"
     inkscape:document-units="cm"
     showgrid="false"
     inkscape:zoom="0.68079488"
     inkscape:cx="736.63891"
     inkscape:cy="506.02613"
     inkscape:window-width="1920"
     inkscape:window-height="991"
     inkscape:window-x="-9"
     inkscape:window-y="-9"
     inkscape:window-maximized="1"
     inkscape:current-layer="svg6974" /><g
     id="g7462"
     style="stroke-width:0.1;stroke-dasharray:none"><path
       d="M-25.7758841,10.9036436 L-25.7758841,10.9036436 -25.8014265,10.9141411 -25.827145,10.9240274 -25.8530374,10.9333038 -25.8791002,10.9419723 -25.9053285,10.9500352 -25.9317164,10.9574959 -25.9582565,10.9643576 -25.9849404,10.9706243 -26.0387001,10.9813889 -26.0929058,10.9898238 -26.1474518,10.9959631 -26.2022178,10.999838 -26.2570694,11.0014756 -26.3118594,11.0008972 -26.3664283,10.998117 -26.4206051,10.9931415 -26.4742079,10.9859681 -26.5270451,10.9765838 -26.553114,10.9710555 -26.5789154,10.9649648 -26.6044229,10.9583068 -26.6296097,10.9510762 -26.6544484,10.9432671 -26.6789114,10.9348727 -26.7029706,10.9258858 -26.7265976,10.9162984 -26.7497638,10.906102 -26.7724403,10.8952872 -26.7945977,10.8838444 -26.8162068,10.871763 -26.8372381,10.8590321 -26.8576618,10.8456401 -26.8774485,10.8315751 -26.8965686,10.8168248 -26.9149928,10.8013764 -26.9326921,10.785217 -26.9496377,10.7683334 -26.9658013,10.7507122 -26.9811551,10.7323401 -26.9956719,10.7132036 -27.009325,10.6932892 -27.0220887,10.6725836 -27.0339379,10.6510736 -27.0448486,10.6287463 -27.054798,10.6055891 -27.0637644,10.58159 -27.0717279,10.5567377 -27.07867,10.5310216 -27.0845742,10.5044323 -27.0894261,10.4769612 -27.0932133,10.448601 -27.0959259,10.4193457 -27.0975566,10.3891909 -27.0981007,10.3581338 -27.0981007,-0.0751996 -27.0981007,-0.0751996 -27.0975566,-0.1062567 -27.0959259,-0.1364115 -27.0932133,-0.1656667 -27.0894261,-0.194027 -27.0845742,-0.2214981 -27.07867,-0.2480874 -27.0717279,-0.2738035 -27.0637644,-0.2986557 -27.054798,-0.3226548 -27.0448486,-0.3458121 -27.0339379,-0.3681394 -27.0220887,-0.3896494 -27.009325,-0.410355 -26.9956719,-0.4302694 -26.9811551,-0.4494059 -26.9658013,-0.467778 -26.9496377,-0.4853992 -26.9326921,-0.5022828 -26.9149928,-0.5184422 -26.8965686,-0.5338906 -26.8774485,-0.5486409 -26.8576618,-0.5627059 -26.8372381,-0.5760979 -26.8162068,-0.5888288 -26.7945977,-0.6009102 -26.7724403,-0.612353 -26.7497638,-0.6231678 -26.7265976,-0.6333642 -26.7029706,-0.6429516 -26.6789114,-0.6519385 -26.6544484,-0.6603329 -26.6296097,-0.668142 -26.6044229,-0.6753726 -26.5789154,-0.6820305 -26.553114,-0.6881213 -26.5270451,-0.6936496 -26.4742079,-0.7030339 -26.4206051,-0.7102073 -26.3664283,-0.7151828 -26.3118594,-0.717963 -26.2570694,-0.7185414 -26.2022178,-0.7169038 -26.1474518,-0.7130289 -26.0929058,-0.7068896 -26.0387001,-0.6984547 -25.9849404,-0.6876901 -25.9582565,-0.6814234 -25.9317164,-0.6745617 -25.9053285,-0.667101 -25.8791002,-0.659038 -25.8530374,-0.6503696 -25.827145,-0.6410932 -25.8014265,-0.6312069 -25.7758841,-0.6207094 A0.711,0.711 112.9976802 1,0 -25.7758841,-1.9296898 L-25.7758841,-1.9296898 -25.8014265,-1.9191922 -25.827145,-1.9093059 -25.8530374,-1.9000295 -25.8791002,-1.8913611 -25.9053285,-1.8832981 -25.9317164,-1.8758375 -25.9582565,-1.8689757 -25.9849404,-1.862709 -26.0387001,-1.8519444 -26.0929058,-1.8435095 -26.1474518,-1.8373703 -26.2022178,-1.8334953 -26.2570694,-1.8318577 -26.3118594,-1.8324362 -26.3664283,-1.8352164 -26.4206051,-1.8401918 -26.4742079,-1.8473652 -26.5270451,-1.8567495 -26.553114,-1.8622778 -26.5789154,-1.8683686 -26.6044229,-1.8750266 -26.6296097,-1.8822571 -26.6544484,-1.8900662 -26.6789114,-1.8984606 -26.7029706,-1.9074475 -26.7265976,-1.9170349 -26.7497638,-1.9272314 -26.7724403,-1.9380461 -26.7945977,-1.949489 -26.8162068,-1.9615703 -26.8372381,-1.9743013 -26.8576618,-1.9876932 -26.8774485,-2.0017582 -26.8965686,-2.0165085 -26.9149928,-2.0319569 -26.9326921,-2.0481163 -26.9496377,-2.065 -26.9658013,-2.0826211 -26.9811551,-2.1009932 -26.9956719,-2.1201297 -27.009325,-2.1400441 -27.0220887,-2.1607497 -27.0339379,-2.1822597 -27.0448486,-2.2045871 -27.054798,-2.2277443 -27.0637644,-2.2517434 -27.0717279,-2.2765957 -27.07867,-2.3023117 -27.0845742,-2.328901 -27.0894261,-2.3563721 -27.0932133,-2.3847324 -27.0959259,-2.4139876 -27.0975566,-2.4441424 -27.0981007,-2.4751996 -27.0981007,-5.2051996 -25.2981007,-5.2051996 -25.2981007,-5.2051996 -25.2215707,-5.2042536 -25.1453037,-5.2014292 -25.0692943,-5.1967644 -24.9935341,-5.1903194 -24.9180121,-5.182173 -24.8427149,-5.1724211 -24.7676271,-5.1611732 -24.6927318,-5.1485505 -24.6180106,-5.1346836 -24.5434442,-5.1197118 -24.469012,-5.103781 -24.3946927,-5.0870433 -24.246305,-5.051777 -24.0981007,-5.0151996 -23.9498965,-4.9786221 -23.8015088,-4.9433558 -23.7271895,-4.9266181 -23.6527573,-4.9106874 -23.5781909,-4.8957155 -23.5034697,-4.8818487 -23.4285744,-4.8692259 -23.3534866,-4.857978 -23.2781894,-4.8482261 -23.2026674,-4.8400798 -23.1269072,-4.8336347 -23.0508978,-4.82897 -22.9746308,-4.8261455 -22.8981007,-4.8251996 1.7018993,-4.8251996 1.7018993,-4.8251996 1.8030489,-4.8261455 1.904001,-4.82897 2.0047595,-4.8336347 2.1053307,-4.8400798 2.2057229,-4.8482261 2.3059463,-4.857978 2.4060122,-4.8692259 2.5059336,-4.8818487 2.605724,-4.8957155 2.7053983,-4.9106874 2.8049716,-4.9266181 2.9044601,-4.9433558 3.1032486,-4.9786221 3.3018993,-5.0151996 3.5005499,-5.051777 3.6993384,-5.0870433 3.7988269,-5.103781 3.8984003,-5.1197118 3.9980745,-5.1346836 4.097865,-5.1485505 4.1977863,-5.1611732 4.2978523,-5.1724211 4.3980756,-5.182173 4.4984678,-5.1903194 4.599039,-5.1967644 4.6997975,-5.2014292 4.8007496,-5.2042536 4.9018993,-5.2051996 8.9018993,-5.2051996 8.9018993,-2.4751996 8.9018993,-2.4751996 8.9013551,-2.4441424 8.8997244,-2.4139876 8.8970118,-2.3847324 8.8932246,-2.3563721 8.8883727,-2.328901 8.8824685,-2.3023117 8.8755264,-2.2765957 8.8675629,-2.2517434 8.8585965,-2.2277443 8.8486471,-2.2045871 8.8377364,-2.1822597 8.8258872,-2.1607497 8.8131235,-2.1400441 8.7994704,-2.1201297 8.7849536,-2.1009932 8.7695998,-2.0826211 8.7534362,-2.065 8.7364906,-2.0481163 8.7187914,-2.0319569 8.7003671,-2.0165085 8.681247,-2.0017582 8.6614604,-1.9876932 8.6410366,-1.9743013 8.6200054,-1.9615703 8.5983962,-1.949489 8.5762388,-1.9380461 8.5535623,-1.9272314 8.5303961,-1.9170349 8.5067691,-1.9074475 8.4827099,-1.8984606 8.4582469,-1.8900662 8.4334082,-1.8822571 8.4082215,-1.8750266 8.3827139,-1.8683686 8.3569125,-1.8622778 8.3308436,-1.8567495 8.2780065,-1.8473652 8.2244036,-1.8401918 8.1702268,-1.8352164 8.1156579,-1.8324362 8.0608679,-1.8318577 8.0060163,-1.8334953 7.9512504,-1.8373703 7.8967043,-1.8435095 7.8424986,-1.8519444 7.788739,-1.862709 7.7620551,-1.8689757 7.7355149,-1.8758375 7.709127,-1.8832981 7.6828987,-1.8913611 7.6568359,-1.9000295 7.6309435,-1.9093059 7.605225,-1.9191922 7.5796826,-1.9296898 A0.711,0.711 292.9976802 1,0 7.5796826,-0.6207094 L7.5796826,-0.6207094 7.605225,-0.6312069 7.6309435,-0.6410932 7.6568359,-0.6503696 7.6828987,-0.659038 7.709127,-0.667101 7.7355149,-0.6745617 7.7620551,-0.6814234 7.788739,-0.6876901 7.8424986,-0.6984547 7.8967043,-0.7068896 7.9512504,-0.7130289 8.0060163,-0.7169038 8.0608679,-0.7185414 8.1156579,-0.717963 8.1702268,-0.7151828 8.2244036,-0.7102073 8.2780065,-0.7030339 8.3308436,-0.6936496 8.3569125,-0.6881213 8.3827139,-0.6820305 8.4082215,-0.6753726 8.4334082,-0.668142 8.4582469,-0.6603329 8.4827099,-0.6519385 8.5067691,-0.6429516 8.5303961,-0.6333642 8.5535623,-0.6231678 8.5762388,-0.612353 8.5983962,-0.6009102 8.6200054,-0.5888288 8.6410366,-0.5760979 8.6614604,-0.5627059 8.681247,-0.5486409 8.7003671,-0.5338906 8.7187914,-0.5184422 8.7364906,-0.5022828 8.7534362,-0.4853992 8.7695998,-0.467778 8.7849536,-0.4494059 8.7994704,-0.4302694 8.8131235,-0.410355 8.8258872,-0.3896494 8.8377364,-0.3681394 8.8486471,-0.3458121 8.8585965,-0.3226548 8.8675629,-0.2986557 8.8755264,-0.2738035 8.8824685,-0.2480874 8.8883727,-0.2214981 8.8932246,-0.194027 8.8970118,-0.1656667 8.8997244,-0.1364115 8.9013551,-0.1062567 8.9018993,-0.0751996 8.9018993,10.3581338 8.9018993,10.3581338 8.9013551,10.3891909 8.8997244,10.4193457 8.8970118,10.448601 8.8932246,10.4769612 8.8883727,10.5044323 8.8824685,10.5310216 8.8755264,10.5567377 8.8675629,10.58159 8.8585965,10.6055891 8.8486471,10.6287463 8.8377364,10.6510736 8.8258872,10.6725836 8.8131235,10.6932892 8.7994704,10.7132036 8.7849536,10.7323401 8.7695998,10.7507122 8.7534362,10.7683334 8.7364906,10.785217 8.7187914,10.8013764 8.7003671,10.8168248 8.681247,10.8315751 8.6614604,10.8456401 8.6410366,10.8590321 8.6200054,10.871763 8.5983962,10.8838444 8.5762388,10.8952872 8.5535623,10.906102 8.5303961,10.9162984 8.5067691,10.9258858 8.4827099,10.9348727 8.4582469,10.9432671 8.4334082,10.9510762 8.4082215,10.9583068 8.3827139,10.9649648 8.3569125,10.9710555 8.3308436,10.9765838 8.2780065,10.9859681 8.2244036,10.9931415 8.1702268,10.998117 8.1156579,11.0008972 8.0608679,11.0014756 8.0060163,10.999838 7.9512504,10.9959631 7.8967043,10.9898238 7.8424986,10.9813889 7.788739,10.9706243 7.7620551,10.9643576 7.7355149,10.9574959 7.709127,10.9500352 7.6828987,10.9419723 7.6568359,10.9333038 7.6309435,10.9240274 7.605225,10.9141411 7.5796826,10.9036436 A0.711,0.711 292.9976802 1,0 7.5796826,12.212624 L7.5796826,12.212624 7.605225,12.2021264 7.6309435,12.1922401 7.6568359,12.1829637 7.6828987,12.1742953 7.709127,12.1662323 7.7355149,12.1587717 7.7620551,12.1519099 7.788739,12.1456432 7.8424986,12.1348786 7.8967043,12.1264437 7.9512504,12.1203045 8.0060163,12.1164295 8.0608679,12.1147919 8.1156579,12.1153704 8.1702268,12.1181506 8.2244036,12.123126 8.2780065,12.1302994 8.3308436,12.1396837 8.3569125,12.145212 8.3827139,12.1513028 8.4082215,12.1579608 8.4334082,12.1651913 8.4582469,12.1730005 8.4827099,12.1813948 8.5067691,12.1903817 8.5303961,12.1999691 8.5535623,12.2101656 8.5762388,12.2209803 8.5983962,12.2324232 8.6200054,12.2445046 8.6410366,12.2572355 8.6614604,12.2706274 8.681247,12.2846924 8.7003671,12.2994427 8.7187914,12.3148911 8.7364906,12.3310506 8.7534362,12.3479342 8.7695998,12.3655553 8.7849536,12.3839274 8.7994704,12.4030639 8.8131235,12.4229783 8.8258872,12.4436839 8.8377364,12.4651939 8.8486471,12.4875213 8.8585965,12.5106785 8.8675629,12.5346776 8.8755264,12.5595299 8.8824685,12.5852459 8.8883727,12.6118352 8.8932246,12.6393064 8.8970118,12.6676666 8.8997244,12.6969219 8.9013551,12.7270766 8.9018993,12.7581338 8.9018993,15.9881338 4.9018993,15.9881338 4.9018993,15.9881338 4.8375667,15.9871878 4.7735491,15.9843634 4.7098401,15.9796987 4.6464296,15.9732536 4.5833044,15.9651072 4.5204484,15.9553553 4.4578433,15.9441074 4.3954687,15.9314847 4.3333026,15.9176178 4.2713219,15.902646 4.209502,15.8867152 4.1478173,15.8699776 4.0247484,15.8347112 3.9018993,15.7981338 3.7790501,15.7615563 3.6559812,15.72629 3.5942965,15.7095523 3.5324766,15.6936216 3.4704959,15.6786497 3.4083299,15.6647829 3.3459552,15.6521601 3.2833501,15.6409123 3.2204941,15.6311603 3.1573689,15.623014 3.0939584,15.6165689 3.0302494,15.6119042 2.9662318,15.6090797 2.9018993,15.6081338 -22.1981007,15.6081338 -22.1981007,15.6081338 -22.2961623,15.6090797 -22.3940199,15.6119042 -22.4916778,15.6165689 -22.5891423,15.623014 -22.6864221,15.6311603 -22.7835276,15.6409123 -22.8804707,15.6521601 -22.9772645,15.6647829 -23.0739233,15.6786497 -23.170462,15.6936216 -23.2668967,15.7095523 -23.3632438,15.72629 -23.5557434,15.7615563 -23.7481007,15.7981338 -23.9404581,15.8347112 -24.1329577,15.8699776 -24.2293048,15.8867152 -24.3257394,15.902646 -24.4222782,15.9176178 -24.518937,15.9314847 -24.6157308,15.9441074 -24.7126739,15.9553553 -24.8097794,15.9651072 -24.9070592,15.9732536 -25.0045237,15.9796987 -25.1021815,15.9843634 -25.2000392,15.9871878 -25.2981007,15.9881338 -27.0981007,15.9881338 -27.0981007,12.7581338 -27.0981007,12.7581338 -27.0975566,12.7270766 -27.0959259,12.6969219 -27.0932133,12.6676666 -27.0894261,12.6393064 -27.0845742,12.6118352 -27.07867,12.5852459 -27.0717279,12.5595299 -27.0637644,12.5346776 -27.054798,12.5106785 -27.0448486,12.4875213 -27.0339379,12.4651939 -27.0220887,12.4436839 -27.009325,12.4229783 -26.9956719,12.4030639 -26.9811551,12.3839274 -26.9658013,12.3655553 -26.9496377,12.3479342 -26.9326921,12.3310506 -26.9149928,12.3148911 -26.8965686,12.2994427 -26.8774485,12.2846924 -26.8576618,12.2706274 -26.8372381,12.2572355 -26.8162068,12.2445046 -26.7945977,12.2324232 -26.7724403,12.2209803 -26.7497638,12.2101656 -26.7265976,12.1999691 -26.7029706,12.1903817 -26.6789114,12.1813948 -26.6544484,12.1730005 -26.6296097,12.1651913 -26.6044229,12.1579608 -26.5789154,12.1513028 -26.553114,12.145212 -26.5270451,12.1396837 -26.4742079,12.1302994 -26.4206051,12.123126 -26.3664283,12.1181506 -26.3118594,12.1153704 -26.2570694,12.1147919 -26.2022178,12.1164295 -26.1474518,12.1203045 -26.0929058,12.1264437 -26.0387001,12.1348786 -25.9849404,12.1456432 -25.9582565,12.1519099 -25.9317164,12.1587717 -25.9053285,12.1662323 -25.8791002,12.1742953 -25.8530374,12.1829637 -25.827145,12.1922401 -25.8014265,12.2021264 -25.7758841,12.212624 A0.711,0.711 112.9976802 1,0 -25.7758841,10.9036436z"
       transform="matrix(1,0,0,-1,27.0981007,15.9881338)"
       fill="rgb(0,0,0)"
       stroke-linecap="round"
       stroke-linejoin="round"
       id="path6970"
       style="fill:none;stroke:#000000;stroke-opacity:1;stroke-width:0.1;stroke-dasharray:none" /><path
       d="M-17.2481007,7.5248004 a4.55,4.55 0 1,1 9.1,0 a4.55,4.55 0 1,1 -9.1,0z"
       transform="matrix(1,0,0,-1,27.0981007,15.9881338)"
       fill="rgb(255,255,255)"
       stroke="rgb(0,0,0)"
       stroke-width="0.0010cm"
       stroke-linecap="round"
       stroke-linejoin="round"
       id="path6972"
       style="fill:none;stroke:#0000ff;stroke-opacity:1;stroke-width:0.1;stroke-dasharray:none" /></g></svg>
