<?xml version="1.0" encoding="utf-8"?>
<!-- Generator: Fusion 360, Shaper Origin Export Add-In, Version 1.8.0  -->
<svg xmlns="http://www.w3.org/2000/svg" xmlns:xlink="http://www.w3.org/1999/xlink" xmlns:shaper="http://www.shapertools.com/namespaces/shaper" shaper:fusionaddin="version:1.8.0" width="36cm" height="20.0966667cm" version="1.1" x="0cm" y="0cm" viewBox="0 0 36 20.0966667" enable-background="new 0 0 36 20.0966667" xml:space="preserve"><path d="M7.7729653,-5.0176043 A1.4,1.4 270 0,1 9.1729653,-3.6176043 L9.1729653,-2.2176043 9.1729653,-2.2176043 9.1724212,-2.1865471 9.1707905,-2.1563924 9.1680778,-2.1271371 9.1642906,-2.0987768 9.1594387,-2.0713057 9.1535345,-2.0447164 9.1465924,-2.0190004 9.1386289,-1.9941481 9.1296625,-1.970149 9.1197132,-1.9469918 9.1088025,-1.9246644 9.0969532,-1.9031544 9.0841896,-1.8824488 9.0705364,-1.8625344 9.0560197,-1.8433979 9.0406659,-1.8250258 9.0245023,-1.8074047 9.0075567,-1.790521 8.9898574,-1.7743616 8.9714332,-1.7589132 8.9523131,-1.7441629 8.9325264,-1.7300979 8.9121026,-1.716706 8.8910714,-1.7039751 8.8694623,-1.6918937 8.8473048,-1.6804508 8.8246284,-1.6696361 8.8014622,-1.6594396 8.7778351,-1.6498522 8.7537759,-1.6408653 8.729313,-1.6324709 8.7044742,-1.6246618 8.6792875,-1.6174313 8.65378,-1.6107733 8.6279785,-1.6046825 8.6019096,-1.5991542 8.5490725,-1.5897699 8.4954696,-1.5825965 8.4412928,-1.5776211 8.3867239,-1.5748409 8.3319339,-1.5742624 8.2770823,-1.5759 8.2223164,-1.579775 8.1677703,-1.5859142 8.1135646,-1.5943491 8.059805,-1.6051137 8.0331211,-1.6113804 8.006581,-1.6182422 7.9801931,-1.6257028 7.9539647,-1.6337658 7.9279019,-1.6424342 7.9020095,-1.6517106 7.876291,-1.6615969 7.8507486,-1.6720945 A0.711,0.711 292.9976802 1,0 7.8507486,-0.3631141 L7.8507486,-0.3631141 7.876291,-0.3736116 7.9020095,-0.3834979 7.9279019,-0.3927743 7.9539647,-0.4014427 7.9801931,-0.4095057 8.006581,-0.4169664 8.0331211,-0.4238281 8.059805,-0.4300948 8.1135646,-0.4408594 8.1677703,-0.4492943 8.2223164,-0.4554336 8.2770823,-0.4593085 8.3319339,-0.4609461 8.3867239,-0.4603677 8.4412928,-0.4575875 8.4954696,-0.452612 8.5490725,-0.4454386 8.6019096,-0.4360543 8.6279785,-0.430526 8.65378,-0.4244352 8.6792875,-0.4177773 8.7044742,-0.4105467 8.729313,-0.4027376 8.7537759,-0.3943432 8.7778351,-0.3853563 8.8014622,-0.3757689 8.8246284,-0.3655725 8.8473048,-0.3547577 8.8694623,-0.3433149 8.8910714,-0.3312335 8.9121026,-0.3185026 8.9325264,-0.3051106 8.9523131,-0.2910456 8.9714332,-0.2762953 8.9898574,-0.2608469 9.0075567,-0.2446875 9.0245023,-0.2278039 9.0406659,-0.2101827 9.0560197,-0.1918106 9.0705364,-0.1726741 9.0841896,-0.1527597 9.0969532,-0.1320541 9.1088025,-0.1105441 9.1197132,-0.0882168 9.1296625,-0.0650595 9.1386289,-0.0410605 9.1465924,-0.0162082 9.1535345,0.0095079 9.1594387,0.0360972 9.1642906,0.0635683 9.1680778,0.0919285 9.1707905,0.1211838 9.1724212,0.1513386 9.1729653,0.1823957 9.1729653,9.4490624 9.1729653,9.4490624 9.1724212,9.4801195 9.1707905,9.5102743 9.1680778,9.5395296 9.1642906,9.5678898 9.1594387,9.5953609 9.1535345,9.6219503 9.1465924,9.6476663 9.1386289,9.6725186 9.1296625,9.6965177 9.1197132,9.7196749 9.1088025,9.7420023 9.0969532,9.7635123 9.0841896,9.7842179 9.0705364,9.8041322 9.0560197,9.8232688 9.0406659,9.8416409 9.0245023,9.859262 9.0075567,9.8761456 8.9898574,9.892305 8.9714332,9.9077534 8.9523131,9.9225038 8.9325264,9.9365687 8.9121026,9.9499607 8.8910714,9.9626916 8.8694623,9.974773 8.8473048,9.9862159 8.8246284,9.9970306 8.8014622,10.0072271 8.7778351,10.0168145 8.7537759,10.0258014 8.729313,10.0341957 8.7044742,10.0420048 8.6792875,10.0492354 8.65378,10.0558934 8.6279785,10.0619842 8.6019096,10.0675124 8.5490725,10.0768967 8.4954696,10.0840702 8.4412928,10.0890456 8.3867239,10.0918258 8.3319339,10.0924043 8.2770823,10.0907667 8.2223164,10.0868917 8.1677703,10.0807525 8.1135646,10.0723176 8.059805,10.0615529 8.0331211,10.0552863 8.006581,10.0484245 7.9801931,10.0409639 7.9539647,10.0329009 7.9279019,10.0242325 7.9020095,10.0149561 7.876291,10.0050697 7.8507486,9.9945722 A0.711,0.711 292.9976802 1,0 7.8507486,11.3035526 L7.8507486,11.3035526 7.876291,11.2930551 7.9020095,11.2831687 7.9279019,11.2738923 7.9539647,11.2652239 7.9801931,11.2571609 8.006581,11.2497003 8.0331211,11.2428386 8.059805,11.2365719 8.1135646,11.2258072 8.1677703,11.2173723 8.2223164,11.2112331 8.2770823,11.2073581 8.3319339,11.2057205 8.3867239,11.206299 8.4412928,11.2090792 8.4954696,11.2140546 8.5490725,11.2212281 8.6019096,11.2306124 8.6279785,11.2361406 8.65378,11.2422314 8.6792875,11.2488894 8.7044742,11.25612 8.729313,11.2639291 8.7537759,11.2723234 8.7778351,11.2813103 8.8014622,11.2908977 8.8246284,11.3010942 8.8473048,11.3119089 8.8694623,11.3233518 8.8910714,11.3354332 8.9121026,11.3481641 8.9325264,11.3615561 8.9523131,11.375621 8.9714332,11.3903714 8.9898574,11.4058198 9.0075567,11.4219792 9.0245023,11.4388628 9.0406659,11.4564839 9.0560197,11.474856 9.0705364,11.4939926 9.0841896,11.513907 9.0969532,11.5346125 9.1088025,11.5561226 9.1197132,11.5784499 9.1296625,11.6016071 9.1386289,11.6256062 9.1465924,11.6504585 9.1535345,11.6761745 9.1594387,11.7027639 9.1642906,11.730235 9.1680778,11.7585952 9.1707905,11.7878505 9.1724212,11.8180053 9.1729653,11.8490624 9.1729653,15.0790624 5.1729653,15.0790624 5.1729653,15.0790624 5.1086951,15.0781164 5.0447292,15.075292 4.9810614,15.0706273 4.9176819,15.0641822 4.854578,15.0560359 4.7917341,15.0462839 4.7291325,15.035036 4.6667537,15.0224133 4.6045763,15.0085465 4.5425779,14.9935746 4.4807348,14.9776438 4.4190224,14.9609062 4.2958876,14.9256398 4.1729653,14.8890624 4.0500429,14.852485 3.9269082,14.8172186 3.8651958,14.800481 3.8033527,14.7845502 3.7413543,14.7695783 3.6791769,14.7557115 3.616798,14.7430888 3.5541965,14.7318409 3.4913526,14.7220889 3.4282487,14.7139426 3.3648692,14.7074975 3.3012014,14.7028328 3.2372354,14.7000084 3.1729653,14.6990624 -21.9270347,14.6990624 -21.9270347,14.6990624 -22.0250559,14.7000084 -22.12288,14.7028328 -22.2205112,14.7074975 -22.3179557,14.7139426 -22.4152217,14.7220889 -22.5123194,14.7318409 -22.6092601,14.7430888 -22.7060567,14.7557115 -22.8027228,14.7695783 -22.899273,14.7845502 -22.9957227,14.800481 -23.0920877,14.8172186 -23.28463,14.852485 -23.4770347,14.8890624 -23.6694394,14.9256398 -23.8619817,14.9609062 -23.9583467,14.9776438 -24.0547964,14.9935746 -24.1513466,15.0085465 -24.2480127,15.0224133 -24.3448093,15.035036 -24.4417501,15.0462839 -24.5388477,15.0560359 -24.6361138,15.0641822 -24.7335582,15.0706273 -24.8311894,15.075292 -24.9290135,15.0781164 -25.0270347,15.0790624 -26.8270347,15.0790624 -26.8270347,11.8490624 -26.8270347,11.8490624 -26.8264906,11.8180053 -26.8248599,11.7878505 -26.8221473,11.7585952 -26.81836,11.730235 -26.8135082,11.7027639 -26.8076039,11.6761745 -26.8006618,11.6504585 -26.7926984,11.6256062 -26.7837319,11.6016071 -26.7737826,11.5784499 -26.7628719,11.5561226 -26.7510227,11.5346125 -26.738259,11.513907 -26.7246058,11.4939926 -26.7100891,11.474856 -26.6947353,11.4564839 -26.6785717,11.4388628 -26.6616261,11.4219792 -26.6439268,11.4058198 -26.6255026,11.3903714 -26.6063825,11.375621 -26.5865958,11.3615561 -26.5661721,11.3481641 -26.5451408,11.3354332 -26.5235317,11.3233518 -26.5013742,11.3119089 -26.4786978,11.3010942 -26.4555316,11.2908977 -26.4319045,11.2813103 -26.4078454,11.2723234 -26.3833824,11.2639291 -26.3585437,11.25612 -26.3333569,11.2488894 -26.3078494,11.2422314 -26.282048,11.2361406 -26.255979,11.2306124 -26.2031419,11.2212281 -26.1495391,11.2140546 -26.0953623,11.2090792 -26.0407934,11.206299 -25.9860034,11.2057205 -25.9311518,11.2073581 -25.8763858,11.2112331 -25.8218397,11.2173723 -25.7676341,11.2258072 -25.7138744,11.2365719 -25.6871905,11.2428386 -25.6606504,11.2497003 -25.6342625,11.2571609 -25.6080341,11.2652239 -25.5819713,11.2738923 -25.556079,11.2831687 -25.5303605,11.2930551 -25.504818,11.3035526 A0.711,0.711 112.9976802 1,0 -25.504818,9.9945722 L-25.504818,9.9945722 -25.5303605,10.0050697 -25.556079,10.0149561 -25.5819713,10.0242325 -25.6080341,10.0329009 -25.6342625,10.0409639 -25.6606504,10.0484245 -25.6871905,10.0552863 -25.7138744,10.0615529 -25.7676341,10.0723176 -25.8218397,10.0807525 -25.8763858,10.0868917 -25.9311518,10.0907667 -25.9860034,10.0924043 -26.0407934,10.0918258 -26.0953623,10.0890456 -26.1495391,10.0840702 -26.2031419,10.0768967 -26.255979,10.0675124 -26.282048,10.0619842 -26.3078494,10.0558934 -26.3333569,10.0492354 -26.3585437,10.0420048 -26.3833824,10.0341957 -26.4078454,10.0258014 -26.4319045,10.0168145 -26.4555316,10.0072271 -26.4786978,9.9970306 -26.5013742,9.9862159 -26.5235317,9.974773 -26.5451408,9.9626916 -26.5661721,9.9499607 -26.5865958,9.9365687 -26.6063825,9.9225038 -26.6255026,9.9077534 -26.6439268,9.892305 -26.6616261,9.8761456 -26.6785717,9.859262 -26.6947353,9.8416409 -26.7100891,9.8232688 -26.7246058,9.8041322 -26.738259,9.7842179 -26.7510227,9.7635123 -26.7628719,9.7420023 -26.7737826,9.7196749 -26.7837319,9.6965177 -26.7926984,9.6725186 -26.8006618,9.6476663 -26.8076039,9.6219503 -26.8135082,9.5953609 -26.81836,9.5678898 -26.8221473,9.5395296 -26.8248599,9.5102743 -26.8264906,9.4801195 -26.8270347,9.4490624 -26.8270347,0.1823957 -26.8270347,0.1823957 -26.8264906,0.1513386 -26.8248599,0.1211838 -26.8221473,0.0919285 -26.81836,0.0635683 -26.8135082,0.0360972 -26.8076039,0.0095079 -26.8006618,-0.0162082 -26.7926984,-0.0410605 -26.7837319,-0.0650595 -26.7737826,-0.0882168 -26.7628719,-0.1105441 -26.7510227,-0.1320541 -26.738259,-0.1527597 -26.7246058,-0.1726741 -26.7100891,-0.1918106 -26.6947353,-0.2101827 -26.6785717,-0.2278039 -26.6616261,-0.2446875 -26.6439268,-0.2608469 -26.6255026,-0.2762953 -26.6063825,-0.2910456 -26.5865958,-0.3051106 -26.5661721,-0.3185026 -26.5451408,-0.3312335 -26.5235317,-0.3433149 -26.5013742,-0.3547577 -26.4786978,-0.3655725 -26.4555316,-0.3757689 -26.4319045,-0.3853563 -26.4078454,-0.3943432 -26.3833824,-0.4027376 -26.3585437,-0.4105467 -26.3333569,-0.4177773 -26.3078494,-0.4244352 -26.282048,-0.430526 -26.255979,-0.4360543 -26.2031419,-0.4454386 -26.1495391,-0.452612 -26.0953623,-0.4575875 -26.0407934,-0.4603677 -25.9860034,-0.4609461 -25.9311518,-0.4593085 -25.8763858,-0.4554336 -25.8218397,-0.4492943 -25.7676341,-0.4408594 -25.7138744,-0.4300948 -25.6871905,-0.4238281 -25.6606504,-0.4169664 -25.6342625,-0.4095057 -25.6080341,-0.4014427 -25.5819713,-0.3927743 -25.556079,-0.3834979 -25.5303605,-0.3736116 -25.504818,-0.3631141 A0.711,0.711 112.9976802 1,0 -25.504818,-1.6720945 L-25.504818,-1.6720945 -25.5303605,-1.6615969 -25.556079,-1.6517106 -25.5819713,-1.6424342 -25.6080341,-1.6337658 -25.6342625,-1.6257028 -25.6606504,-1.6182422 -25.6871905,-1.6113804 -25.7138744,-1.6051137 -25.7676341,-1.5943491 -25.8218397,-1.5859142 -25.8763858,-1.579775 -25.9311518,-1.5759 -25.9860034,-1.5742624 -26.0407934,-1.5748409 -26.0953623,-1.5776211 -26.1495391,-1.5825965 -26.2031419,-1.5897699 -26.255979,-1.5991542 -26.282048,-1.6046825 -26.3078494,-1.6107733 -26.3333569,-1.6174313 -26.3585437,-1.6246618 -26.3833824,-1.6324709 -26.4078454,-1.6408653 -26.4319045,-1.6498522 -26.4555316,-1.6594396 -26.4786978,-1.6696361 -26.5013742,-1.6804508 -26.5235317,-1.6918937 -26.5451408,-1.7039751 -26.5661721,-1.716706 -26.5865958,-1.7300979 -26.6063825,-1.7441629 -26.6255026,-1.7589132 -26.6439268,-1.7743616 -26.6616261,-1.790521 -26.6785717,-1.8074047 -26.6947353,-1.8250258 -26.7100891,-1.8433979 -26.7246058,-1.8625344 -26.738259,-1.8824488 -26.7510227,-1.9031544 -26.7628719,-1.9246644 -26.7737826,-1.9469918 -26.7837319,-1.970149 -26.7926984,-1.9941481 -26.8006618,-2.0190004 -26.8076039,-2.0447164 -26.8135082,-2.0713057 -26.81836,-2.0987768 -26.8221473,-2.1271371 -26.8248599,-2.1563924 -26.8264906,-2.1865471 -26.8270347,-2.2176043 -26.8270347,-3.6100536 -26.8270347,-3.6100536 -26.8265158,-3.6480054 -26.8249623,-3.6859289 -26.8223789,-3.7237965 -26.8187707,-3.7615806 -26.8141424,-3.7992538 -26.8084988,-3.8367884 -26.8018448,-3.874157 -26.7941852,-3.9113319 -26.7855249,-3.9482858 -26.7758687,-3.9849909 -26.7652215,-4.0214199 -26.753588,-4.0575451 -26.7409732,-4.0933391 -26.7273845,-4.1287751 -26.712835,-4.1638287 -26.6973387,-4.1984753 -26.6809095,-4.2326907 -26.6635614,-4.2664506 -26.6453084,-4.2997305 -26.6261643,-4.3325062 -26.6061432,-4.3647533 -26.5852589,-4.3964474 -26.5635255,-4.4275642 -26.5409568,-4.4580793 -26.5175669,-4.4879684 -26.4933697,-4.5172072 -26.4683823,-4.545774 -26.442626,-4.5736505 -26.416122,-4.6008185 -26.3888917,-4.6272599 -26.3609565,-4.6529566 -26.3323379,-4.6778904 -26.3030571,-4.7020432 -26.2731356,-4.7253969 -26.2425948,-4.7479334 -26.211456,-4.7696345 -26.1797406,-4.7904821 -26.14747,-4.8104581 -26.1146658,-4.8295446 -26.0813521,-4.8477283 -26.0475553,-4.8649994 -26.0133015,-4.8813481 -25.9786172,-4.8967645 -25.9435287,-4.911239 -25.9080621,-4.9247618 -25.8722439,-4.937323 -25.8361003,-4.9489129 -25.7996577,-4.9595218 -25.7629423,-4.9691397 -25.7259805,-4.9777571 -25.6887984,-4.9853641 -25.6514227,-4.9919517 -25.6138808,-4.9975169 -25.5762006,-5.0020596 -25.5384101,-5.0055793 -25.5005372,-5.0080759 -25.46261,-5.0095491 -25.4246563,-5.0099986 -25.3867041,-5.0094241 -25.3487814,-5.0078253 -25.3109161,-5.0052021 -25.2731362,-5.0015541 -25.2354697,-4.996881 -25.1979445,-4.9911827 -25.1979445,-4.9911827 -25.1637634,-4.9851885 -25.1298626,-4.978595 -25.0962399,-4.9714067 -25.0628929,-4.9636287 -25.0298191,-4.9552662 -24.9970159,-4.946325 -24.9644805,-4.936811 -24.9322099,-4.9267307 -24.9002011,-4.9160905 -24.8684507,-4.9048975 -24.8057118,-4.8808819 -24.7439647,-4.8547449 -24.6831792,-4.8265514 -24.623323,-4.79637 -24.5643627,-4.7642726 -24.5062631,-4.7303342 -24.4489878,-4.6946327 -24.3924993,-4.6572484 -24.3367588,-4.6182642 -24.2817264,-4.5777654 -24.2273614,-4.5358393 -24.1736219,-4.4925752 -24.1204653,-4.4480643 -24.0678484,-4.4023993 -24.0157269,-4.3556744 -23.9640563,-4.3079853 -23.9127912,-4.2594287 -23.8618862,-4.2101021 -23.811295,-4.1601042 -23.7108685,-4.0584916 -23.6111382,-3.9553902 -23.4122583,-3.7479449 -23.3123535,-3.6452165 -23.2116372,-3.544224 -23.160858,-3.494628 -23.1097366,-3.4457643 -23.058227,-3.3977307 -23.0062839,-3.3506243 -22.9538624,-3.3045413 -22.9009181,-3.2595763 -22.8474075,-3.2158227 -22.7932876,-3.1733724 -22.7385162,-3.1323153 -22.6830523,-3.0927395 -22.6268555,-3.0547312 -22.5698868,-3.0183741 -22.5121079,-2.9837496 -22.4534822,-2.9509365 -22.393974,-2.920011 -22.3335491,-2.8910461 -22.2721748,-2.8641118 -22.2098201,-2.8392745 -22.1782658,-2.8276619 -22.1464557,-2.8165967 -22.1143863,-2.806086 -22.0820545,-2.7961366 -22.0494571,-2.7867552 -22.0165913,-2.7779479 -21.9834543,-2.7697207 -21.9500435,-2.7620792 -21.9163563,-2.7550286 -21.8823906,-2.7485739 -21.8481442,-2.7427196 -21.8136151,-2.7374699 -21.7788016,-2.7328285 -21.743702,-2.7287988 -21.7083151,-2.7253839 -21.6726396,-2.7225862 -21.6366745,-2.720408 -21.600419,-2.7188508 -21.5638725,-2.717916 -21.5270347,-2.7176043 0.5729653,-2.7176043 0.5729653,-2.7176043 0.6101337,-2.7179626 0.6469343,-2.719037 0.6833677,-2.7208267 0.7194346,-2.7233299 0.7551363,-2.7265444 0.7904741,-2.7304675 0.8254498,-2.7350956 0.8600654,-2.7404251 0.8943232,-2.7464513 0.9282257,-2.7531694 0.9617757,-2.7605739 0.9949762,-2.7686589 1.0278306,-2.7774179 1.0603424,-2.7868442 1.0925153,-2.7969303 1.1243533,-2.8076686 1.1558606,-2.819051 1.1870415,-2.8310689 1.2179006,-2.8437135 1.2484426,-2.8569755 1.2786726,-2.8708452 1.3085955,-2.8853128 1.3382167,-2.9003681 1.3675415,-2.9160003 1.3965756,-2.9321989 1.4253245,-2.9489525 1.4819907,-2.9840797 1.5375881,-3.021288 1.5921666,-3.0604804 1.645778,-3.1015561 1.6984756,-3.1444112 1.7503142,-3.1889391 1.80135,-3.2350304 1.8516404,-3.2825732 1.901244,-3.3314534 1.9502204,-3.3815551 1.99863,-3.4327603 2.0465342,-3.4849499 2.0939947,-3.5380034 2.1410741,-3.591799 2.1878352,-3.6462145 2.2806558,-3.7564117 2.3729653,-3.8676043 2.4652748,-3.9787968 2.5580953,-4.0889941 2.6048565,-4.1434095 2.6519359,-4.1972052 2.6993964,-4.2502586 2.7473005,-4.3024482 2.7957102,-4.3536535 2.8446865,-4.4037551 2.8942901,-4.4526353 2.9445805,-4.5001781 2.9956163,-4.5462694 3.0474549,-4.5907973 3.1001525,-4.6336525 3.153764,-4.6747281 3.2083425,-4.7139205 3.2639399,-4.7511289 3.320606,-4.786256 3.349355,-4.8030097 3.3783891,-4.8192082 3.4077139,-4.8348405 3.4373351,-4.8498957 3.467258,-4.8643633 3.4974879,-4.8782331 3.52803,-4.891495 3.5588891,-4.9041396 3.59007,-4.9161575 3.6215772,-4.9275399 3.6534152,-4.9382782 3.6855881,-4.9483644 3.7180999,-4.9577906 3.7509544,-4.9665496 3.7841549,-4.9746346 3.8177049,-4.9820391 3.8516074,-4.9887572 3.8858652,-4.9947835 3.9204808,-5.0001129 3.9554565,-5.0047411 3.9907943,-5.0086641 4.026496,-5.0118786 4.0625629,-5.0143818 4.0989963,-5.0161715 4.1357969,-5.017246 4.1729653,-5.0176043 7.7729653,-5.0176043z" transform="matrix(1,0,0,-1,26.8270347,15.0790624)" fill="rgb(0,0,0)" stroke-linecap="round" stroke-linejoin="round" /><path d="M-16.9770347,7.0823957 a4.55,4.55 0 1,1 9.1,0 a4.55,4.55 0 1,1 -9.1,0z" transform="matrix(1,0,0,-1,26.8270347,15.0790624)" fill="rgb(255,255,255)" stroke="rgb(0,0,0)" stroke-width="0.0010cm" stroke-linecap="round" stroke-linejoin="round" /></svg>