<?xml version="1.0" encoding="utf-8"?>
<!-- Generator: Fusion 360, Shaper Origin Export Add-In, Version 1.8.0  -->
<svg xmlns="http://www.w3.org/2000/svg" xmlns:xlink="http://www.w3.org/1999/xlink" xmlns:shaper="http://www.shapertools.com/namespaces/shaper" shaper:fusionaddin="version:1.8.0" width="36cm" height="20.0266667cm" version="1.1" x="0cm" y="0cm" viewBox="0 0 36 20.0266667" enable-background="new 0 0 36 20.0266667" xml:space="preserve"><path d="M-25.8000985,-1.6276377 L-25.8000985,-1.6276377 -25.8256409,-1.6171402 -25.8513594,-1.6072539 -25.8772518,-1.5979775 -25.9033145,-1.5893091 -25.9295429,-1.5812461 -25.9559308,-1.5737854 -25.9824709,-1.5669237 -26.0091548,-1.560657 -26.0629145,-1.5498924 -26.1171202,-1.5414575 -26.1716662,-1.5353182 -26.2264322,-1.5314433 -26.2812838,-1.5298057 -26.3360738,-1.5303841 -26.3906427,-1.5331643 -26.4448195,-1.5381398 -26.4984223,-1.5453132 -26.5512595,-1.5546975 -26.5773284,-1.5602258 -26.6031298,-1.5663166 -26.6286373,-1.5729745 -26.6538241,-1.5802051 -26.6786628,-1.5880142 -26.7031258,-1.5964086 -26.727185,-1.6053955 -26.750812,-1.6149829 -26.7739782,-1.6251793 -26.7966547,-1.6359941 -26.8188121,-1.6474369 -26.8404212,-1.6595183 -26.8614525,-1.6722492 -26.8818762,-1.6856412 -26.9016629,-1.6997062 -26.920783,-1.7144565 -26.9392072,-1.7299049 -26.9569065,-1.7460643 -26.9738521,-1.7629479 -26.9900157,-1.7805691 -27.0053695,-1.7989412 -27.0198863,-1.8180777 -27.0335394,-1.8379921 -27.0463031,-1.8586977 -27.0581523,-1.8802077 -27.069063,-1.902535 -27.0790124,-1.9256923 -27.0879788,-1.9496914 -27.0959422,-1.9745436 -27.1028844,-2.0002597 -27.1087886,-2.026849 -27.1136405,-2.0543201 -27.1174277,-2.0826804 -27.1201403,-2.1119356 -27.121771,-2.1420904 -27.1223151,-2.1731475 -27.1223151,-4.9031475 -25.3223151,-4.9031475 -25.3223151,-4.9031475 -25.2458372,-4.9022016 -25.1696133,-4.8993771 -25.0936383,-4.8947124 -25.017904,-4.8882673 -24.9423998,-4.880121 -24.8671127,-4.8703691 -24.7920279,-4.8591212 -24.717129,-4.8464984 -24.6423984,-4.8326316 -24.5678171,-4.8176597 -24.4933656,-4.801729 -24.4190232,-4.7849913 -24.2705805,-4.749725 -24.1223151,-4.7131475 -23.9740498,-4.6765701 -23.8256071,-4.6413038 -23.7512647,-4.6245661 -23.6768131,-4.6086353 -23.6022319,-4.5936635 -23.5275013,-4.5797966 -23.4526024,-4.5671739 -23.3775176,-4.555926 -23.3022305,-4.5461741 -23.2267263,-4.5380277 -23.150992,-4.5315827 -23.0750169,-4.5269179 -22.9987931,-4.5240935 -22.9223151,-4.5231475 1.6776849,-4.5231475 1.6776849,-4.5231475 1.7787954,-4.5240935 1.879715,-4.5269179 1.9804477,-4.5315827 2.0809994,-4.5380277 2.1813783,-4.5461741 2.2815941,-4.555926 2.3816578,-4.5671739 2.4815818,-4.5797966 2.5813794,-4.5936635 2.6810647,-4.6086353 2.7806526,-4.6245661 2.8801585,-4.6413038 3.0789883,-4.6765701 3.2776849,-4.7131475 3.4763814,-4.749725 3.6752112,-4.7849913 3.7747171,-4.801729 3.874305,-4.8176597 3.9739903,-4.8326316 4.0737879,-4.8464984 4.173712,-4.8591212 4.2737757,-4.8703691 4.3739914,-4.880121 4.4743703,-4.8882673 4.574922,-4.8947124 4.6756547,-4.8993771 4.7765743,-4.9022016 4.8776849,-4.9031475 8.8776849,-4.9031475 8.8776849,-2.1731475 8.8776849,-2.1731475 8.8771407,-2.1420904 8.87551,-2.1119356 8.8727974,-2.0826804 8.8690102,-2.0543201 8.8641583,-2.026849 8.8582541,-2.0002597 8.851312,-1.9745436 8.8433485,-1.9496914 8.8343821,-1.9256923 8.8244327,-1.902535 8.813522,-1.8802077 8.8016728,-1.8586977 8.7889091,-1.8379921 8.775256,-1.8180777 8.7607392,-1.7989412 8.7453854,-1.7805691 8.7292218,-1.7629479 8.7122762,-1.7460643 8.694577,-1.7299049 8.6761527,-1.7144565 8.6570326,-1.6997062 8.637246,-1.6856412 8.6168222,-1.6722492 8.595791,-1.6595183 8.5741819,-1.6474369 8.5520244,-1.6359941 8.5293479,-1.6251793 8.5061817,-1.6149829 8.4825547,-1.6053955 8.4584955,-1.5964086 8.4340325,-1.5880142 8.4091938,-1.5802051 8.3840071,-1.5729745 8.3584995,-1.5663166 8.3326981,-1.5602258 8.3066292,-1.5546975 8.2537921,-1.5453132 8.2001892,-1.5381398 8.1460124,-1.5331643 8.0914435,-1.5303841 8.0366535,-1.5298057 7.9818019,-1.5314433 7.927036,-1.5353182 7.8724899,-1.5414575 7.8182842,-1.5498924 7.7645246,-1.560657 7.7378407,-1.5669237 7.7113005,-1.5737854 7.6849126,-1.5812461 7.6586843,-1.5893091 7.6326215,-1.5979775 7.6067291,-1.6072539 7.5810106,-1.6171402 7.5554682,-1.6276377 A0.711,0.711 292.9976802 1,0 7.5554682,-0.3186573 L7.5554682,-0.3186573 7.5810106,-0.3291549 7.6067291,-0.3390412 7.6326215,-0.3483176 7.6586843,-0.356986 7.6849126,-0.365049 7.7113005,-0.3725096 7.7378407,-0.3793714 7.7645246,-0.3856381 7.8182842,-0.3964027 7.8724899,-0.4048376 7.927036,-0.4109768 7.9818019,-0.4148518 8.0366535,-0.4164894 8.0914435,-0.4159109 8.1460124,-0.4131307 8.2001892,-0.4081553 8.2537921,-0.4009819 8.3066292,-0.3915976 8.3326981,-0.3860693 8.3584995,-0.3799785 8.3840071,-0.3733205 8.4091938,-0.36609 8.4340325,-0.3582809 8.4584955,-0.3498865 8.4825547,-0.3408996 8.5061817,-0.3313122 8.5293479,-0.3211157 8.5520244,-0.310301 8.5741819,-0.2988581 8.595791,-0.2867768 8.6168222,-0.2740458 8.637246,-0.2606539 8.6570326,-0.2465889 8.6761527,-0.2318386 8.694577,-0.2163902 8.7122762,-0.2002308 8.7292218,-0.1833471 8.7453854,-0.165726 8.7607392,-0.1473539 8.775256,-0.1282174 8.7889091,-0.108303 8.8016728,-0.0875974 8.813522,-0.0660874 8.8244327,-0.04376 8.8343821,-0.0206028 8.8433485,0.0033963 8.851312,0.0282486 8.8582541,0.0539646 8.8641583,0.0805539 8.8690102,0.108025 8.8727974,0.1363853 8.87551,0.1656405 8.8771407,0.1957953 8.8776849,0.2268525 8.8776849,9.4935191 8.8776849,9.4935191 8.8771407,9.5245763 8.87551,9.554731 8.8727974,9.5839863 8.8690102,9.6123465 8.8641583,9.6398177 8.8582541,9.666407 8.851312,9.692123 8.8433485,9.7169753 8.8343821,9.7409744 8.8244327,9.7641316 8.813522,9.786459 8.8016728,9.807969 8.7889091,9.8286746 8.775256,9.848589 8.7607392,9.8677255 8.7453854,9.8860976 8.7292218,9.9037187 8.7122762,9.9206023 8.694577,9.9367618 8.6761527,9.9522101 8.6570326,9.9669605 8.637246,9.9810255 8.6168222,9.9944174 8.595791,10.0071483 8.5741819,10.0192297 8.5520244,10.0306726 8.5293479,10.0414873 8.5061817,10.0516838 8.4825547,10.0612712 8.4584955,10.0702581 8.4340325,10.0786524 8.4091938,10.0864616 8.3840071,10.0936921 8.3584995,10.1003501 8.3326981,10.1064409 8.3066292,10.1119692 8.2537921,10.1213535 8.2001892,10.1285269 8.1460124,10.1335023 8.0914435,10.1362825 8.0366535,10.136861 7.9818019,10.1352234 7.927036,10.1313484 7.8724899,10.1252092 7.8182842,10.1167743 7.7645246,10.1060097 7.7378407,10.099743 7.7113005,10.0928812 7.6849126,10.0854206 7.6586843,10.0773576 7.6326215,10.0686892 7.6067291,10.0594128 7.5810106,10.0495265 7.5554682,10.0390289 A0.711,0.711 292.9976802 1,0 7.5554682,11.3480093 L7.5554682,11.3480093 7.5810106,11.3375118 7.6067291,11.3276255 7.6326215,11.3183491 7.6586843,11.3096806 7.6849126,11.3016177 7.7113005,11.294157 7.7378407,11.2872953 7.7645246,11.2810286 7.8182842,11.270264 7.8724899,11.2618291 7.927036,11.2556898 7.9818019,11.2518149 8.0366535,11.2501773 8.0914435,11.2507557 8.1460124,11.2535359 8.2001892,11.2585114 8.2537921,11.2656848 8.3066292,11.2750691 8.3326981,11.2805974 8.3584995,11.2866881 8.3840071,11.2933461 8.4091938,11.3005767 8.4340325,11.3083858 8.4584955,11.3167802 8.4825547,11.3257671 8.5061817,11.3353545 8.5293479,11.3455509 8.5520244,11.3563657 8.5741819,11.3678085 8.595791,11.3798899 8.6168222,11.3926208 8.637246,11.4060128 8.6570326,11.4200778 8.6761527,11.4348281 8.694577,11.4502765 8.7122762,11.4664359 8.7292218,11.4833195 8.7453854,11.5009407 8.7607392,11.5193128 8.775256,11.5384493 8.7889091,11.5583637 8.8016728,11.5790693 8.813522,11.6005793 8.8244327,11.6229066 8.8343821,11.6460638 8.8433485,11.6700629 8.851312,11.6949152 8.8582541,11.7206313 8.8641583,11.7472206 8.8690102,11.7746917 8.8727974,11.8030519 8.87551,11.8323072 8.8771407,11.862462 8.8776849,11.8935191 8.8776849,15.1235191 4.8776849,15.1235191 4.8776849,15.1235191 4.8134147,15.1225732 4.7494488,15.1197487 4.685781,15.115084 4.6224015,15.1086389 4.5592976,15.1004926 4.4964537,15.0907406 4.4338521,15.0794928 4.3714732,15.06687 4.3092958,15.0530032 4.2472974,15.0380313 4.1854543,15.0221006 4.1237419,15.0053629 4.0006072,14.9700966 3.8776849,14.9335191 3.7547625,14.8969417 3.6316278,14.8616753 3.5699154,14.8449377 3.5080723,14.8290069 3.4460739,14.8140351 3.3838965,14.8001682 3.3215176,14.7875455 3.258916,14.7762976 3.1960722,14.7665457 3.1329682,14.7583993 3.0695888,14.7519542 3.0059209,14.7472895 2.941955,14.7444651 2.8776849,14.7435191 -22.2223151,14.7435191 -22.2223151,14.7435191 -22.3203363,14.7444651 -22.4181605,14.7472895 -22.5157916,14.7519542 -22.6132361,14.7583993 -22.7105021,14.7665457 -22.8075998,14.7762976 -22.9045406,14.7875455 -23.0013371,14.8001682 -23.0980032,14.8140351 -23.1945535,14.8290069 -23.2910031,14.8449377 -23.3873682,14.8616753 -23.5799104,14.8969417 -23.7723151,14.9335191 -23.9647199,14.9700966 -24.1572621,15.0053629 -24.2536271,15.0221006 -24.3500768,15.0380313 -24.446627,15.0530032 -24.5432931,15.06687 -24.6400897,15.0794928 -24.7370305,15.0907406 -24.8341281,15.1004926 -24.9313942,15.1086389 -25.0288386,15.115084 -25.1264698,15.1197487 -25.224294,15.1225732 -25.3223151,15.1235191 -27.1223151,15.1235191 -27.1223151,11.8935191 -27.1223151,11.8935191 -27.121771,11.862462 -27.1201403,11.8323072 -27.1174277,11.8030519 -27.1136405,11.7746917 -27.1087886,11.7472206 -27.1028844,11.7206313 -27.0959422,11.6949152 -27.0879788,11.6700629 -27.0790124,11.6460638 -27.069063,11.6229066 -27.0581523,11.6005793 -27.0463031,11.5790693 -27.0335394,11.5583637 -27.0198863,11.5384493 -27.0053695,11.5193128 -26.9900157,11.5009407 -26.9738521,11.4833195 -26.9569065,11.4664359 -26.9392072,11.4502765 -26.920783,11.4348281 -26.9016629,11.4200778 -26.8818762,11.4060128 -26.8614525,11.3926208 -26.8404212,11.3798899 -26.8188121,11.3678085 -26.7966547,11.3563657 -26.7739782,11.3455509 -26.750812,11.3353545 -26.727185,11.3257671 -26.7031258,11.3167802 -26.6786628,11.3083858 -26.6538241,11.3005767 -26.6286373,11.2933461 -26.6031298,11.2866881 -26.5773284,11.2805974 -26.5512595,11.2750691 -26.4984223,11.2656848 -26.4448195,11.2585114 -26.3906427,11.2535359 -26.3360738,11.2507557 -26.2812838,11.2501773 -26.2264322,11.2518149 -26.1716662,11.2556898 -26.1171202,11.2618291 -26.0629145,11.270264 -26.0091548,11.2810286 -25.9824709,11.2872953 -25.9559308,11.294157 -25.9295429,11.3016177 -25.9033145,11.3096806 -25.8772518,11.3183491 -25.8513594,11.3276255 -25.8256409,11.3375118 -25.8000985,11.3480093 A0.711,0.711 112.9976802 1,0 -25.8000985,10.0390289 L-25.8000985,10.0390289 -25.8256409,10.0495265 -25.8513594,10.0594128 -25.8772518,10.0686892 -25.9033145,10.0773576 -25.9295429,10.0854206 -25.9559308,10.0928812 -25.9824709,10.099743 -26.0091548,10.1060097 -26.0629145,10.1167743 -26.1171202,10.1252092 -26.1716662,10.1313484 -26.2264322,10.1352234 -26.2812838,10.136861 -26.3360738,10.1362825 -26.3906427,10.1335023 -26.4448195,10.1285269 -26.4984223,10.1213535 -26.5512595,10.1119692 -26.5773284,10.1064409 -26.6031298,10.1003501 -26.6286373,10.0936921 -26.6538241,10.0864616 -26.6786628,10.0786524 -26.7031258,10.0702581 -26.727185,10.0612712 -26.750812,10.0516838 -26.7739782,10.0414873 -26.7966547,10.0306726 -26.8188121,10.0192297 -26.8404212,10.0071483 -26.8614525,9.9944174 -26.8818762,9.9810255 -26.9016629,9.9669605 -26.920783,9.9522101 -26.9392072,9.9367618 -26.9569065,9.9206023 -26.9738521,9.9037187 -26.9900157,9.8860976 -27.0053695,9.8677255 -27.0198863,9.848589 -27.0335394,9.8286746 -27.0463031,9.807969 -27.0581523,9.786459 -27.069063,9.7641316 -27.0790124,9.7409744 -27.0879788,9.7169753 -27.0959422,9.692123 -27.1028844,9.666407 -27.1087886,9.6398177 -27.1136405,9.6123465 -27.1174277,9.5839863 -27.1201403,9.554731 -27.121771,9.5245763 -27.1223151,9.4935191 -27.1223151,0.2268525 -27.1223151,0.2268525 -27.121771,0.1957953 -27.1201403,0.1656405 -27.1174277,0.1363853 -27.1136405,0.108025 -27.1087886,0.0805539 -27.1028844,0.0539646 -27.0959422,0.0282486 -27.0879788,0.0033963 -27.0790124,-0.0206028 -27.069063,-0.04376 -27.0581523,-0.0660874 -27.0463031,-0.0875974 -27.0335394,-0.108303 -27.0198863,-0.1282174 -27.0053695,-0.1473539 -26.9900157,-0.165726 -26.9738521,-0.1833471 -26.9569065,-0.2002308 -26.9392072,-0.2163902 -26.920783,-0.2318386 -26.9016629,-0.2465889 -26.8818762,-0.2606539 -26.8614525,-0.2740458 -26.8404212,-0.2867768 -26.8188121,-0.2988581 -26.7966547,-0.310301 -26.7739782,-0.3211157 -26.750812,-0.3313122 -26.727185,-0.3408996 -26.7031258,-0.3498865 -26.6786628,-0.3582809 -26.6538241,-0.36609 -26.6286373,-0.3733205 -26.6031298,-0.3799785 -26.5773284,-0.3860693 -26.5512595,-0.3915976 -26.4984223,-0.4009819 -26.4448195,-0.4081553 -26.3906427,-0.4131307 -26.3360738,-0.4159109 -26.2812838,-0.4164894 -26.2264322,-0.4148518 -26.1716662,-0.4109768 -26.1171202,-0.4048376 -26.0629145,-0.3964027 -26.0091548,-0.3856381 -25.9824709,-0.3793714 -25.9559308,-0.3725096 -25.9295429,-0.365049 -25.9033145,-0.356986 -25.8772518,-0.3483176 -25.8513594,-0.3390412 -25.8256409,-0.3291549 -25.8000985,-0.3186573 A0.711,0.711 112.9976802 1,0 -25.8000985,-1.6276377z" transform="matrix(1,0,0,-1,27.1223151,15.1235191)" fill="rgb(0,0,0)" stroke-linecap="round" stroke-linejoin="round" /><path d="M-17.2723151,7.1268525 a4.55,4.55 0 1,1 9.1,0 a4.55,4.55 0 1,1 -9.1,0z" transform="matrix(1,0,0,-1,27.1223151,15.1235191)" fill="rgb(255,255,255)" stroke="rgb(0,0,0)" stroke-width="0.0010cm" stroke-linecap="round" stroke-linejoin="round" /></svg>