<?xml version="1.0" encoding="UTF-8" standalone="no"?>
<!-- Generator: Fusion 360, Shaper Origin Export Add-In, Version 1.8.0  -->

<svg
   shaper:fusionaddin="version:1.8.0"
   width="36cm"
   height="21.1933333cm"
   version="1.1"
   x="0cm"
   y="0cm"
   viewBox="0 0 36 21.1933333"
   enable-background="new 0 0 36 21.1933333"
   xml:space="preserve"
   id="svg6111"
   sodipodi:docname="Topplate_4_Faces.svg"
   inkscape:version="1.2.2 (732a01da63, 2022-12-09)"
   xmlns:inkscape="http://www.inkscape.org/namespaces/inkscape"
   xmlns:sodipodi="http://sodipodi.sourceforge.net/DTD/sodipodi-0.dtd"
   xmlns="http://www.w3.org/2000/svg"
   xmlns:svg="http://www.w3.org/2000/svg"
   xmlns:shaper="http://www.shapertools.com/namespaces/shaper"><defs
     id="defs6115" /><sodipodi:namedview
     id="namedview6113"
     pagecolor="#505050"
     bordercolor="#eeeeee"
     borderopacity="1"
     inkscape:showpageshadow="0"
     inkscape:pageopacity="0"
     inkscape:pagecheckerboard="0"
     inkscape:deskcolor="#505050"
     inkscape:document-units="cm"
     showgrid="false"
     inkscape:zoom="0.68079488"
     inkscape:cx="476.64871"
     inkscape:cy="470.77322"
     inkscape:window-width="1920"
     inkscape:window-height="991"
     inkscape:window-x="-9"
     inkscape:window-y="-9"
     inkscape:window-maximized="1"
     inkscape:current-layer="svg6111" /><g
     id="g12024"><path
       d="m 1.322217,5.08449 v 0 l -0.02554,-0.0105 -0.02572,-0.0099 -0.02589,-0.0093 -0.02606,-0.0087 -0.02623,-0.0081 -0.02639,-0.0075 -0.02654,-0.0069 -0.02668,-0.0063 -0.05376,-0.01076 -0.05421,-0.0084 -0.05455,-0.0061 -0.05477,-0.0039 -0.05485,-0.0016 -0.05479,5.79e-4 -0.05457,0.0028 -0.05418,0.005 -0.0536,0.0072 -0.05284,0.0094 -0.02607,0.0055 -0.0258,0.0061 -0.02551,0.0067 -0.02519,0.0072 -0.02484,0.0078 -0.02446,0.0084 -0.02406,0.009 -0.02363,0.0096 -0.02317,0.0102 -0.02268,0.01082 -0.02216,0.01144 -0.02161,0.01208 -0.02103,0.01273 -0.02042,0.01339 -0.01979,0.01406 -0.01912,0.01475 -0.01842,0.01545 -0.0177,0.01616 -0.01695,0.01688 -0.01616,0.01762 -0.01535,0.01837 -0.01452,0.01914 -0.01365,0.01991 -0.01276,0.0207 -0.01185,0.02151 -0.01091,0.02233 -0.0099,0.02316 -0.009,0.024 -0.008,0.02485 -0.0069,0.02572 -0.0059,0.02659 -0.0049,0.02747 -0.0038,0.02836 -0.0027,0.02925 -0.0016,0.03016 -5.44e-4,0.03106 v 10.433334 0 l 5.44e-4,0.03106 0.0016,0.03015 0.0027,0.02926 0.0038,0.02836 0.0049,0.02747 0.0059,0.02659 0.0069,0.02572 0.008,0.02485 0.009,0.024 0.0099,0.02316 0.01091,0.02233 0.01185,0.02151 0.01276,0.02071 0.01365,0.01991 0.01452,0.01914 0.01535,0.01837 0.01616,0.01762 0.01695,0.01688 0.0177,0.01616 0.01842,0.01545 0.01912,0.01475 0.01979,0.01407 0.02042,0.01339 0.02103,0.01273 0.02161,0.01208 0.02216,0.01144 0.02268,0.01081 0.02317,0.0102 0.02363,0.0096 0.02406,0.009 0.02446,0.0084 0.02484,0.0078 0.02519,0.0072 0.02551,0.0067 0.0258,0.0061 0.02607,0.0055 0.05284,0.0094 0.0536,0.0072 0.05418,0.005 0.05457,0.0028 0.05479,5.79e-4 0.05485,-0.0016 0.05477,-0.0039 0.05455,-0.0061 0.05421,-0.0084 0.05376,-0.01076 0.02668,-0.0063 0.02654,-0.0069 0.02639,-0.0075 0.02623,-0.0081 0.02606,-0.0087 0.02589,-0.0093 0.02572,-0.0099 0.02554,-0.0105 a 0.711,0.711 0 1 1 0,1.308981 v 0 l -0.02554,-0.0105 -0.02572,-0.0099 -0.02589,-0.0093 -0.02606,-0.0087 -0.02623,-0.0081 -0.02639,-0.0075 -0.02654,-0.0069 -0.02668,-0.0063 -0.05376,-0.01076 -0.05421,-0.0084 -0.05455,-0.0061 -0.05477,-0.0039 -0.05485,-0.0016 -0.05479,5.78e-4 -0.05457,0.0028 -0.05418,0.005 -0.0536,0.0072 -0.05284,0.0094 -0.02607,0.0055 -0.0258,0.0061 -0.02551,0.0067 -0.02519,0.0072 -0.02484,0.0078 -0.02446,0.0084 -0.02406,0.009 -0.02363,0.0096 -0.02317,0.0102 -0.02268,0.01082 -0.02216,0.01144 -0.02161,0.01208 -0.02103,0.01273 -0.02042,0.01339 -0.01979,0.01406 -0.01912,0.01475 -0.01842,0.01545 -0.0177,0.01616 -0.01695,0.01688 -0.01616,0.01762 -0.01535,0.01837 -0.01452,0.01914 -0.01365,0.01991 -0.01276,0.02071 -0.01185,0.02151 -0.01091,0.02233 -0.0099,0.02316 -0.009,0.024 -0.008,0.02485 -0.0069,0.02572 -0.0059,0.02659 -0.0049,0.02747 -0.0038,0.02836 -0.0027,0.02926 -0.0016,0.03015 -5.44e-4,0.03106 v 2.73 h 1.8 v 0 l 0.07653,-9.46e-4 0.07627,-0.0028 0.07601,-0.0047 0.07576,-0.0065 0.07552,-0.0081 0.0753,-0.0098 0.07509,-0.01125 0.0749,-0.01262 0.07472,-0.01387 0.07457,-0.01497 0.07443,-0.01593 0.07432,-0.01674 0.148388,-0.03527 0.148204,-0.03658 0.148205,-0.03658 0.148387,-0.03527 0.07432,-0.01674 0.07443,-0.01593 0.07457,-0.01497 0.07472,-0.01387 0.0749,-0.01262 0.07509,-0.01125 0.0753,-0.0098 0.07552,-0.0082 0.07576,-0.0064 0.07601,-0.0047 0.07627,-0.0028 0.07653,-9.46e-4 H 28.8 v 0 l 0.10115,9.46e-4 0.100952,0.0028 0.100758,0.0047 0.100572,0.0064 0.100392,0.0082 0.100223,0.0098 0.100066,0.01125 0.09992,0.01262 0.09979,0.01387 0.09967,0.01497 0.09957,0.01593 0.09949,0.01674 0.198789,0.03527 0.19865,0.03658 0.198651,0.03658 0.198788,0.03527 0.09949,0.01674 0.09957,0.01593 0.09967,0.01497 0.09979,0.01387 0.09992,0.01262 0.100066,0.01125 0.100224,0.0098 0.100392,0.0081 0.100571,0.0065 0.100759,0.0047 0.100952,0.0028 0.101149,9.46e-4 h 4.000001 v -2.73 0 l -5.17e-4,-0.03407 -0.0016,-0.03301 -0.0026,-0.03196 -0.0036,-0.03091 -0.0046,-0.02987 -0.0056,-0.02884 -0.0066,-0.02782 -0.0076,-0.02681 -0.0085,-0.02581 -0.0095,-0.02483 -0.01038,-0.02386 -0.01128,-0.02291 -0.01216,-0.02197 -0.01301,-0.02105 -0.01384,-0.02015 -0.01465,-0.01926 -0.01543,-0.01839 -0.01619,-0.01754 -0.01692,-0.01671 -0.01763,-0.01589 -0.01831,-0.01509 -0.01897,-0.01431 -0.0196,-0.01354 -0.02021,-0.01279 -0.02079,-0.01205 -0.02134,-0.01133 -0.02187,-0.01062 -0.02237,-0.0099 -0.02285,-0.0093 -0.0233,-0.0086 -0.02373,-0.0079 -0.02414,-0.0073 -0.02452,-0.0066 -0.02488,-0.006 -0.02521,-0.0054 -0.02553,-0.0048 -0.02582,-0.0042 -0.0261,-0.0036 -0.02635,-0.003 -0.02658,-0.0024 -0.02679,-0.0018 -0.02699,-0.0013 -0.05448,-8.08e-4 -0.05506,0.0015 -0.0555,0.0038 -0.05583,0.006 -0.05606,0.0083 -0.0562,0.01064 -0.05625,0.01297 -0.05625,0.01532 -0.05619,0.0177 -0.02806,0.0098 -0.02803,0.01035 -0.028,0.01096 -0.02797,0.01156 a 0.711,0.711 0 1 1 0,-1.308981 v 0 l 0.02554,0.0105 0.02572,0.0099 0.02589,0.0093 0.02606,0.0087 0.02623,0.0081 0.02639,0.0075 0.02654,0.0069 0.02668,0.0063 0.05376,0.01076 0.05421,0.0084 0.05455,0.0061 0.05477,0.0039 0.05485,0.0016 0.05479,-5.78e-4 0.05457,-0.0028 0.05418,-0.005 0.0536,-0.0072 0.05284,-0.0094 0.02607,-0.0055 0.0258,-0.0061 0.02551,-0.0067 0.02519,-0.0072 0.02484,-0.0078 0.02446,-0.0084 0.02406,-0.009 0.02363,-0.0096 0.02317,-0.0102 0.02268,-0.01082 0.02216,-0.01144 0.02161,-0.01208 0.02103,-0.01273 0.02042,-0.01339 0.01979,-0.01406 0.01912,-0.01475 0.01842,-0.01545 0.0177,-0.01616 0.01695,-0.01688 0.01616,-0.01762 0.01535,-0.01837 0.01452,-0.01914 0.01365,-0.01991 0.01276,-0.02071 0.01185,-0.02151 0.01091,-0.02233 0.0099,-0.02316 0.009,-0.024 0.008,-0.02485 0.0069,-0.02572 0.0059,-0.02659 0.0048,-0.02747 0.0038,-0.02836 0.0027,-0.02925 0.0016,-0.03016 5.44e-4,-0.03106 v -10.4333332 0 l -5.44e-4,-0.03106 -0.0016,-0.03016 -0.0027,-0.02925 -0.0038,-0.02836 -0.0048,-0.02747 -0.0059,-0.02659 -0.0069,-0.02572 -0.008,-0.02485 -0.009,-0.024 -0.0099,-0.02316 -0.01091,-0.02233 -0.01185,-0.02151 -0.01276,-0.0207 -0.01365,-0.01991 -0.01452,-0.01914 -0.01535,-0.01837 -0.01616,-0.01762 -0.01695,-0.01688 -0.0177,-0.01616 -0.01842,-0.01545 -0.01912,-0.01475 -0.01979,-0.01406 -0.02042,-0.01339 -0.02103,-0.01273 -0.02161,-0.01208 -0.02216,-0.01144 -0.02268,-0.01082 -0.02317,-0.0102 -0.02363,-0.0096 -0.02406,-0.009 -0.02446,-0.0084 -0.02484,-0.0078 -0.02519,-0.0072 -0.02551,-0.0067 -0.0258,-0.0061 -0.02607,-0.0055 -0.05284,-0.0094 -0.0536,-0.0072 -0.05418,-0.005 -0.05457,-0.0028 -0.05479,-5.79e-4 -0.05485,0.0016 -0.05477,0.0039 -0.05455,0.0061 -0.05421,0.0084 -0.05376,0.01076 -0.02668,0.0063 -0.02654,0.0069 -0.02639,0.0075 -0.02623,0.0081 -0.02606,0.0087 -0.02589,0.0093 -0.02572,0.0099 -0.02554,0.0105 a 0.711,0.711 0 1 1 0,-1.30898 v 0 l 0.02554,0.0105 0.02572,0.0099 0.02589,0.0093 0.02606,0.0087 0.02623,0.0081 0.02639,0.0075 0.02654,0.0069 0.02668,0.0063 0.05376,0.01076 0.05421,0.0084 0.05455,0.0061 0.05477,0.0039 0.05485,0.0016 0.05479,-5.78e-4 0.05457,-0.0028 0.05418,-0.005 0.0536,-0.0072 0.05284,-0.0094 0.02607,-0.0055 0.0258,-0.0061 0.02551,-0.0067 0.02519,-0.0072 0.02484,-0.0078 0.02446,-0.0084 0.02406,-0.009 0.02363,-0.0096 0.02317,-0.0102 0.02268,-0.01081 0.02216,-0.01144 0.02161,-0.01208 0.02103,-0.01273 0.02042,-0.01339 0.01979,-0.01407 0.01912,-0.01475 0.01842,-0.01545 0.0177,-0.01616 0.01695,-0.01688 0.01616,-0.01762 0.01535,-0.01837 0.01452,-0.01914 0.01365,-0.01991 0.01276,-0.02071 0.01185,-0.02151 0.01091,-0.02233 0.0099,-0.02316 0.009,-0.024 0.008,-0.02485 0.0069,-0.02572 0.0059,-0.02659 0.0048,-0.02747 0.0038,-0.02836 0.0027,-0.02926 0.0016,-0.03015 5.44e-4,-0.03106 v -3.23 h -4 v 0 l -0.06433,9.46e-4 -0.06402,0.0028 -0.06371,0.0047 -0.06341,0.0064 -0.06313,0.0081 -0.06286,0.0098 -0.0626,0.01125 -0.06237,0.01262 -0.06217,0.01387 -0.06198,0.01497 -0.06182,0.01593 -0.06169,0.01674 -0.123069,0.03527 -0.122849,0.03658 -0.122849,0.03658 -0.123069,0.03527 -0.06169,0.01674 -0.06182,0.01593 -0.06198,0.01497 -0.06217,0.01387 -0.06237,0.01262 -0.06261,0.01125 -0.06286,0.0098 -0.06312,0.0081 -0.06341,0.0064 -0.06371,0.0047 -0.06402,0.0028 -0.06433,9.46e-4 H 4.9 v 0 l -0.09806,-9.46e-4 -0.09786,-0.0028 -0.09766,-0.0047 -0.09746,-0.0064 -0.09728,-0.0081 -0.09711,-0.0098 -0.09694,-0.01125 -0.09679,-0.01262 -0.09666,-0.01387 -0.09654,-0.01497 -0.09643,-0.01593 -0.09635,-0.01674 -0.192499,-0.03527 -0.192358,-0.03658 -0.192357,-0.03658 -0.1925,-0.03527 -0.09635,-0.01674 -0.09643,-0.01593 -0.09654,-0.01497 -0.09666,-0.01387 -0.09679,-0.01262 -0.09694,-0.01125 -0.0971,-0.0098 -0.09728,-0.0081 -0.09746,-0.0064 -0.09766,-0.0047 -0.09786,-0.0028 -0.09806,-9.46e-4 h -1.8 v 3.23 0 l 5.44e-4,0.03106 0.0016,0.03015 0.0027,0.02926 0.0038,0.02836 0.0049,0.02747 0.0059,0.02659 0.0069,0.02572 0.008,0.02485 0.009,0.024 0.0099,0.02316 0.01091,0.02233 0.01185,0.02151 0.01276,0.02071 0.01365,0.01991 0.01452,0.01914 0.01535,0.01837 0.01616,0.01762 0.01695,0.01688 0.0177,0.01616 0.01842,0.01545 0.01912,0.01475 0.01979,0.01407 0.02042,0.01339 0.02103,0.01273 0.02161,0.01208 0.02216,0.01144 0.02268,0.01081 0.02317,0.0102 0.02363,0.0096 0.02406,0.009 0.02446,0.0084 0.02484,0.0078 0.02519,0.0072 0.02551,0.0067 0.0258,0.0061 0.02607,0.0055 0.05284,0.0094 0.0536,0.0072 0.05418,0.005 0.05457,0.0028 0.05479,5.78e-4 0.05485,-0.0016 0.05477,-0.0039 0.05455,-0.0061 0.05421,-0.0084 0.05376,-0.01076 0.02668,-0.0063 0.02654,-0.0069 0.02639,-0.0075 0.02623,-0.0081 0.02606,-0.0087 0.02589,-0.0093 0.02572,-0.0099 0.02554,-0.0105 a 0.711,0.711 0 1 1 0,1.30898 z"
       fill="rgb(0,0,0)"
       stroke-linecap="round"
       stroke-linejoin="round"
       id="path6107"
       style="fill:none;stroke:#000000;stroke-width:0.1;stroke-dasharray:none;stroke-opacity:1" /><path
       d="m 9.85,8.4633336 a 4.5500001,4.5500001 0 1 0 9.1,0 4.5500002,4.5500002 0 1 0 -9.1,0 z"
       fill="rgb(255,255,255)"
       stroke="rgb(0,0,0)"
       stroke-width="0.0010cm"
       stroke-linecap="round"
       stroke-linejoin="round"
       id="path6109"
       style="fill:none;stroke:#0000ff;stroke-width:0.1;stroke-dasharray:none;stroke-opacity:1" /></g></svg>
