<?xml version="1.0" encoding="utf-8"?>
<!-- Generator: Fusion 360, Shaper Origin Export Add-In, Version 1.8.0  -->
<svg xmlns="http://www.w3.org/2000/svg" xmlns:xlink="http://www.w3.org/1999/xlink" xmlns:shaper="http://www.shapertools.com/namespaces/shaper" shaper:fusionaddin="version:1.8.0" width="36cm" height="20.0966667cm" version="1.1" x="0cm" y="0cm" viewBox="0 0 36 20.0966667" enable-background="new 0 0 36 20.0966667" xml:space="preserve"><path d="M7.8227175,-5.3040247 L7.8227175,-5.3040247 7.8597837,-5.3086151 7.8969595,-5.3122094 7.9342184,-5.3148086 7.9715338,-5.3164137 8.008879,-5.3170255 8.0462274,-5.316645 8.0835524,-5.3152731 8.1208274,-5.3129107 8.1580257,-5.3095588 8.1951206,-5.3052182 8.2320857,-5.2998899 8.2688943,-5.2935748 8.3055197,-5.2862738 8.3419358,-5.2779904 8.3781176,-5.2687336 8.4140402,-5.2585132 8.4496788,-5.247339 8.4850085,-5.2352209 8.5200044,-5.2221685 8.5546416,-5.2081917 8.5888953,-5.1933003 8.6227405,-5.1775042 8.6561525,-5.160813 8.6891063,-5.1432366 8.7215771,-5.1247848 8.7535401,-5.1054674 8.7849723,-5.0852977 8.8158536,-5.0642927 8.8461637,-5.0424702 8.8758825,-5.0198476 8.9049899,-4.9964424 8.9334658,-4.9722724 8.9612901,-4.9473549 8.9884426,-4.9217075 9.0149031,-4.8953479 9.0406516,-4.8682935 9.0656679,-4.8405619 9.0899319,-4.8121706 9.1134238,-4.7831375 9.1361273,-4.7534833 9.1580295,-4.7232313 9.179117,-4.6924049 9.199377,-4.6610273 9.2187962,-4.6291218 9.2373616,-4.5967117 9.2550601,-4.5638204 9.2718786,-4.5304711 9.287804,-4.4966871 9.3028231,-4.4624919 9.316923,-4.4279086 9.3300905,-4.3929605 9.3423132,-4.3576713 9.3535842,-4.3220663 9.3638989,-4.2861718 9.3732528,-4.2500141 9.3816414,-4.2136193 9.38906,-4.1770138 9.3955043,-4.1402237 9.4009696,-4.1032754 9.4054513,-4.066195 9.408945,-4.0290089 9.4114462,-3.9917432 9.4129502,-3.9544243 9.4134525,-3.9170784 9.4134525,-2.0233852 9.4134525,-2.0233852 9.4129084,-1.9923281 9.4112777,-1.9621733 9.4085651,-1.932918 9.4047778,-1.9045578 9.399926,-1.8770867 9.3940217,-1.8504973 9.3870796,-1.8247813 9.3791162,-1.799929 9.3701497,-1.7759299 9.3602004,-1.7527727 9.3492897,-1.7304454 9.3374405,-1.7089354 9.3246768,-1.6882298 9.3110236,-1.6683154 9.2965069,-1.6491789 9.2811531,-1.6308068 9.2649895,-1.6131856 9.2480439,-1.596302 9.2303446,-1.5801426 9.2119204,-1.5646942 9.1928003,-1.5499439 9.1730136,-1.5358789 9.1525899,-1.5224869 9.1315586,-1.509756 9.1099495,-1.4976746 9.087792,-1.4862318 9.0651156,-1.475417 9.0419494,-1.4652205 9.0183223,-1.4556332 8.9942632,-1.4466463 8.9698002,-1.4382519 8.9449615,-1.4304428 8.9197747,-1.4232122 8.8942672,-1.4165542 8.8684657,-1.4104634 8.8423968,-1.4049352 8.7895597,-1.3955509 8.7359569,-1.3883775 8.6817801,-1.383402 8.6272112,-1.3806218 8.5724212,-1.3800433 8.5175696,-1.381681 8.4628036,-1.3855559 8.4082575,-1.3916952 8.3540519,-1.4001301 8.3002922,-1.4108947 8.2736083,-1.4171614 8.2470682,-1.4240231 8.2206803,-1.4314837 8.1944519,-1.4395467 8.1683891,-1.4482152 8.1424968,-1.4574916 8.1167783,-1.4673779 8.0912358,-1.4778754 A0.711,0.711 292.9976802 1,0 8.0912358,-0.168895 L8.0912358,-0.168895 8.119204,-0.1804561 8.1472042,-0.1914125 8.1752349,-0.2017654 8.2032936,-0.2115162 8.2594805,-0.2292204 8.3157269,-0.2445452 8.3719806,-0.2575138 8.4281758,-0.2681503 8.484234,-0.2764766 8.5400643,-0.2825101 8.5955637,-0.286262 8.6506182,-0.2877359 8.7051025,-0.2869272 8.7320887,-0.2856627 8.7588806,-0.2838214 8.7854596,-0.2813998 8.8118065,-0.2783936 8.8379014,-0.274798 8.863724,-0.2706071 8.8892533,-0.2658144 8.9144678,-0.2604127 8.9393455,-0.2543939 8.963864,-0.2477492 8.9880002,-0.2404693 9.0117309,-0.2325437 9.0350322,-0.2239617 9.05788,-0.2147115 9.0802497,-0.204781 9.1021166,-0.194157 9.1234554,-0.1828261 9.1442409,-0.1707738 9.1644472,-0.1579854 9.1840488,-0.1444453 9.2030196,-0.1301378 9.2213339,-0.1150465 9.2389659,-0.0991549 9.2558901,-0.0824461 9.2720809,-0.0649031 9.2875134,-0.0465087 9.3021629,-0.0272459 9.3160051,-0.0070975 9.3290164,0.0139536 9.3411736,0.0359242 9.3524544,0.0588308 9.3628372,0.0826897 9.3723014,0.1075164 9.3808276,0.133326 9.3883977,0.1601325 9.3949952,0.1879489 9.400605,0.216787 9.405214,0.2466574 9.4088111,0.277569 9.4113873,0.3095291 9.4129358,0.3425432 9.4134525,0.3766148 9.4134525,9.6432814 9.4134525,9.6432814 9.4129084,9.6743386 9.4112777,9.7044934 9.4085651,9.7337486 9.4047778,9.7621089 9.399926,9.78958 9.3940217,9.8161693 9.3870796,9.8418853 9.3791162,9.8667376 9.3701497,9.8907367 9.3602004,9.913894 9.3492897,9.9362213 9.3374405,9.9577313 9.3246768,9.9784369 9.3110236,9.9983513 9.2965069,10.0174878 9.2811531,10.0358599 9.2649895,10.0534811 9.2480439,10.0703647 9.2303446,10.0865241 9.2119204,10.1019725 9.1928003,10.1167228 9.1730136,10.1307878 9.1525899,10.1441797 9.1315586,10.1569107 9.1099495,10.168992 9.087792,10.1804349 9.0651156,10.1912497 9.0419494,10.2014461 9.0183223,10.2110335 8.9942632,10.2200204 8.9698002,10.2284148 8.9449615,10.2362239 8.9197747,10.2434544 8.8942672,10.2501124 8.8684657,10.2562032 8.8423968,10.2617315 8.7895597,10.2711158 8.7359569,10.2782892 8.6817801,10.2832647 8.6272112,10.2860448 8.5724212,10.2866233 8.5175696,10.2849857 8.4628036,10.2811107 8.4082575,10.2749715 8.3540519,10.2665366 8.3002922,10.255772 8.2736083,10.2495053 8.2470682,10.2426436 8.2206803,10.2351829 8.1944519,10.2271199 8.1683891,10.2184515 8.1424968,10.2091751 8.1167783,10.1992888 8.0912358,10.1887913 A0.711,0.711 292.9976802 1,0 8.0912358,11.4977716 L8.0912358,11.4977716 8.1167783,11.4872741 8.1424968,11.4773878 8.1683891,11.4681114 8.1944519,11.459443 8.2206803,11.45138 8.2470682,11.4439193 8.2736083,11.4370576 8.3002922,11.4307909 8.3540519,11.4200263 8.4082575,11.4115914 8.4628036,11.4054522 8.5175696,11.4015772 8.5724212,11.3999396 8.6272112,11.4005181 8.6817801,11.4032982 8.7359569,11.4082737 8.7895597,11.4154471 8.8423968,11.4248314 8.8684657,11.4303597 8.8942672,11.4364505 8.9197747,11.4431085 8.9449615,11.450339 8.9698002,11.4581481 8.9942632,11.4665425 9.0183223,11.4755294 9.0419494,11.4851168 9.0651156,11.4953132 9.087792,11.506128 9.1099495,11.5175709 9.1315586,11.5296522 9.1525899,11.5423832 9.1730136,11.5557751 9.1928003,11.5698401 9.2119204,11.5845904 9.2303446,11.6000388 9.2480439,11.6161982 9.2649895,11.6330818 9.2811531,11.650703 9.2965069,11.6690751 9.3110236,11.6882116 9.3246768,11.708126 9.3374405,11.7288316 9.3492897,11.7503416 9.3602004,11.7726689 9.3701497,11.7958262 9.3791162,11.8198253 9.3870796,11.8446776 9.3940217,11.8703936 9.399926,11.8969829 9.4047778,11.924454 9.4085651,11.9528143 9.4112777,11.9820695 9.4129084,12.0122243 9.4134525,12.0432814 9.4134525,14.7732814 7.6134525,14.7732814 7.6134525,14.7732814 7.5369225,14.7723355 7.4606554,14.7695111 7.384646,14.7648463 7.3088859,14.7584013 7.2333639,14.7502549 7.1580667,14.740503 7.0829789,14.7292551 7.0080835,14.7166324 6.9333624,14.7027655 6.8587959,14.6877937 6.7843637,14.6718629 6.7100445,14.6551252 6.5616567,14.6198589 6.4134525,14.5832814 6.2652483,14.546704 6.1168605,14.5114377 6.0425413,14.4947 5.9681091,14.4787692 5.8935426,14.4637974 5.8188215,14.4499305 5.7439262,14.4373078 5.6688384,14.4260599 5.5935411,14.416308 5.5180191,14.4081616 5.442259,14.4017166 5.3662496,14.3970518 5.2899825,14.3942274 5.2134525,14.3932814 -19.3865475,14.3932814 -19.3865475,14.3932814 -19.4876972,14.3942274 -19.5886492,14.3970518 -19.6894077,14.4017166 -19.7899789,14.4081616 -19.8903711,14.416308 -19.9905945,14.4260599 -20.0906605,14.4373078 -20.1905818,14.4499305 -20.2903723,14.4637974 -20.3900465,14.4787692 -20.4896198,14.4947 -20.5891083,14.5114377 -20.7878969,14.546704 -20.9865475,14.5832814 -21.1851981,14.6198589 -21.3839867,14.6551252 -21.4834751,14.6718629 -21.5830485,14.6877937 -21.6827227,14.7027655 -21.7825132,14.7166324 -21.8824345,14.7292551 -21.9825005,14.740503 -22.0827238,14.7502549 -22.1831161,14.7584013 -22.2836873,14.7648463 -22.3844457,14.7695111 -22.4853978,14.7723355 -22.5865475,14.7732814 -26.5865475,14.7732814 -26.5865475,12.0432814 -26.5865475,12.0432814 -26.5860308,12.0092099 -26.5844823,11.9761958 -26.5819061,11.9442357 -26.578309,11.9133241 -26.5736999,11.8834537 -26.5680901,11.8546156 -26.5614927,11.8267992 -26.5539226,11.7999927 -26.5453964,11.7741831 -26.5359322,11.7493563 -26.5255494,11.7254975 -26.5142686,11.7025908 -26.5021114,11.6806203 -26.4891001,11.6595692 -26.4752579,11.6394208 -26.4606084,11.6201579 -26.4451759,11.6017636 -26.428985,11.5842206 -26.4120609,11.5675118 -26.3944289,11.5516201 -26.3761146,11.5365289 -26.3571437,11.5222213 -26.3375422,11.5086813 -26.3173358,11.4958928 -26.2965504,11.4838406 -26.2752116,11.4725096 -26.2533447,11.4618857 -26.2309749,11.4519552 -26.2081272,11.442705 -26.1848259,11.434123 -26.1610952,11.4261974 -26.1369589,11.4189174 -26.1124405,11.4122728 -26.0875628,11.406254 -26.0623482,11.4008523 -26.0368189,11.3960596 -26.0109964,11.3918687 -25.9849014,11.388273 -25.9585546,11.3852669 -25.9319756,11.3828452 -25.9051837,11.3810039 -25.8781975,11.3797395 -25.8237132,11.3789307 -25.7686587,11.3804047 -25.7131592,11.3841566 -25.657329,11.39019 -25.6012708,11.3985163 -25.5450756,11.4091528 -25.4888219,11.4221215 -25.4325755,11.4374462 -25.3763886,11.4551504 -25.3483299,11.4649013 -25.3202992,11.4752542 -25.292299,11.4862106 -25.2643308,11.4977716 A0.711,0.711 112.9976802 1,0 -25.2643308,10.1887913 L-25.2643308,10.1887913 -25.2898733,10.1992888 -25.3155917,10.2091751 -25.3414841,10.2184515 -25.3675469,10.2271199 -25.3937753,10.2351829 -25.4201632,10.2426436 -25.4467033,10.2495053 -25.4733872,10.255772 -25.5271468,10.2665366 -25.5813525,10.2749715 -25.6358986,10.2811107 -25.6906645,10.2849857 -25.7455161,10.2866233 -25.8003061,10.2860448 -25.854875,10.2832647 -25.9090518,10.2782892 -25.9626547,10.2711158 -26.0154918,10.2617315 -26.0415607,10.2562032 -26.0673622,10.2501124 -26.0928697,10.2434544 -26.1180564,10.2362239 -26.1428952,10.2284148 -26.1673581,10.2200204 -26.1914173,10.2110335 -26.2150444,10.2014461 -26.2382106,10.1912497 -26.260887,10.1804349 -26.2830445,10.168992 -26.3046536,10.1569107 -26.3256848,10.1441797 -26.3461086,10.1307878 -26.3658953,10.1167228 -26.3850154,10.1019725 -26.4034396,10.0865241 -26.4211389,10.0703647 -26.4380845,10.0534811 -26.4542481,10.0358599 -26.4696019,10.0174878 -26.4841186,9.9983513 -26.4977718,9.9784369 -26.5105354,9.9577313 -26.5223847,9.9362213 -26.5332954,9.913894 -26.5432447,9.8907367 -26.5522111,9.8667376 -26.5601746,9.8418853 -26.5671167,9.8161693 -26.5730209,9.78958 -26.5778728,9.7621089 -26.58166,9.7337486 -26.5843727,9.7044934 -26.5860034,9.6743386 -26.5865475,9.6432814 -26.5865475,0.3766148 -26.5865475,0.3766148 -26.5860308,0.3425432 -26.5844823,0.3095291 -26.5819061,0.277569 -26.578309,0.2466574 -26.5736999,0.216787 -26.5680901,0.1879489 -26.5614927,0.1601325 -26.5539226,0.133326 -26.5453964,0.1075164 -26.5359322,0.0826897 -26.5255494,0.0588308 -26.5142686,0.0359242 -26.5021114,0.0139536 -26.4891001,-0.0070975 -26.4752579,-0.0272459 -26.4606084,-0.0465087 -26.4451759,-0.0649031 -26.428985,-0.0824461 -26.4120609,-0.0991549 -26.3944289,-0.1150465 -26.3761146,-0.1301378 -26.3571437,-0.1444453 -26.3375422,-0.1579854 -26.3173358,-0.1707738 -26.2965504,-0.1828261 -26.2752116,-0.194157 -26.2533447,-0.204781 -26.2309749,-0.2147115 -26.2081272,-0.2239617 -26.1848259,-0.2325437 -26.1610952,-0.2404693 -26.1369589,-0.2477492 -26.1124405,-0.2543939 -26.0875628,-0.2604127 -26.0623482,-0.2658144 -26.0368189,-0.2706071 -26.0109964,-0.274798 -25.9849014,-0.2783936 -25.9585546,-0.2813998 -25.9319756,-0.2838214 -25.9051837,-0.2856627 -25.8781975,-0.2869272 -25.8237132,-0.2877359 -25.7686587,-0.286262 -25.7131592,-0.2825101 -25.657329,-0.2764766 -25.6012708,-0.2681503 -25.5450756,-0.2575138 -25.4888219,-0.2445452 -25.4325755,-0.2292204 -25.3763886,-0.2115162 -25.3483299,-0.2017654 -25.3202992,-0.1914125 -25.292299,-0.1804561 -25.2643308,-0.168895 A0.711,0.711 112.9976802 1,0 -25.2643308,-1.4778754 L-25.2643308,-1.4778754 -25.2933971,-1.4658329 -25.3224302,-1.4543921 -25.3514288,-1.4435519 -25.380391,-1.433311 -25.4381944,-1.4146197 -25.4958089,-1.3983007 -25.5531916,-1.3843343 -25.6102875,-1.3727012 -25.6670303,-1.3633849 -25.7233423,-1.3563743 -25.779135,-1.3516653 -25.806806,-1.3501749 -25.8343092,-1.3492623 -25.8616305,-1.3489293 -25.8887552,-1.3491785 -25.9156679,-1.3500134 -25.9423528,-1.3514379 -25.9687933,-1.3534568 -25.9949722,-1.3560755 -26.0208717,-1.3593005 -26.0464734,-1.3631388 -26.0717584,-1.3675985 -26.0967072,-1.3726883 -26.1212999,-1.3784177 -26.1455158,-1.3847971 -26.1693341,-1.3918376 -26.1927332,-1.3995509 -26.2156914,-1.4079497 -26.2381865,-1.4170472 -26.2601957,-1.4268573 -26.2816961,-1.4373949 -26.3026644,-1.4486752 -26.3230769,-1.4607143 -26.3429099,-1.4735287 -26.3621392,-1.4871358 -26.3807407,-1.5015531 -26.3986902,-1.5167988 -26.4159636,-1.532891 -26.4325369,-1.5498485 -26.4483861,-1.5676901 -26.4634876,-1.5864344 -26.4778183,-1.6061005 -26.4913552,-1.626707 -26.5040759,-1.6482726 -26.5159586,-1.6708158 -26.526982,-1.6943547 -26.5371258,-1.7189068 -26.5463704,-1.7444894 -26.5546973,-1.7711186 -26.5620894,-1.7988097 -26.5685308,-1.8275769 -26.5740073,-1.857433 -26.5785064,-1.8883895 -26.5820175,-1.920456 -26.5845319,-1.9536406 -26.5860432,-1.9879491 -26.5865475,-2.0233852 -26.5865475,-3.9233852 A1.4,1.4 180 0,1 -25.1865475,-5.3233852 L-21.5865475,-5.3233852 -21.5865475,-5.3233852 -21.5473568,-5.3230269 -21.5086162,-5.3219524 -21.470325,-5.3201628 -21.4324821,-5.3176596 -21.3950862,-5.3144451 -21.3581355,-5.310522 -21.3216278,-5.3058938 -21.2855608,-5.3005644 -21.2499317,-5.2945382 -21.2147373,-5.2878201 -21.1799742,-5.2804156 -21.1456386,-5.2723306 -21.1117266,-5.2635716 -21.0782339,-5.2541453 -21.0451558,-5.2440592 -21.0124875,-5.2333209 -20.9802239,-5.2219385 -20.9483597,-5.2099205 -20.9168892,-5.197276 -20.8858067,-5.184014 -20.855106,-5.1701443 -20.8247811,-5.1556767 -20.7948253,-5.1406214 -20.7652322,-5.1249891 -20.7359949,-5.1087906 -20.7071064,-5.0920369 -20.6785596,-5.0747395 -20.6503472,-5.0569098 -20.6224617,-5.0385598 -20.5948957,-5.0197014 -20.5406909,-4.9805091 -20.4876695,-4.9394334 -20.4357663,-4.8965783 -20.3849141,-4.8520503 -20.3350443,-4.8059591 -20.2860866,-4.7584163 -20.2379692,-4.7095361 -20.1906194,-4.6594344 -20.143963,-4.6082292 -20.0979251,-4.5560396 -20.05243,-4.5029861 -20.0074013,-4.4491905 -19.962762,-4.394775 -19.874342,-4.2845778 -19.7865475,-4.1733852 -19.6987529,-4.0621927 -19.610333,-3.9519954 -19.5656937,-3.89758 -19.520665,-3.8437843 -19.4751699,-3.7907309 -19.429132,-3.7385413 -19.3824756,-3.687336 -19.3351258,-3.6372344 -19.2870084,-3.5883542 -19.2380507,-3.5408114 -19.1881808,-3.4947201 -19.1373287,-3.4501922 -19.0854255,-3.407337 -19.032404,-3.3662613 -18.9781993,-3.327069 -18.9506332,-3.3082106 -18.9227478,-3.2898606 -18.8945354,-3.272031 -18.8659886,-3.2547335 -18.8371001,-3.2379798 -18.8078628,-3.2217813 -18.7782697,-3.206149 -18.7483139,-3.1910938 -18.717989,-3.1766262 -18.6872883,-3.1627564 -18.6562058,-3.1494945 -18.6247353,-3.1368499 -18.5928711,-3.124832 -18.5606075,-3.1134496 -18.5279392,-3.1027113 -18.4948611,-3.0926251 -18.4613683,-3.0831989 -18.4274564,-3.0744399 -18.3931208,-3.0663549 -18.3583577,-3.0589504 -18.3231633,-3.0522323 -18.2875341,-3.046206 -18.2514671,-3.0408766 -18.2149595,-3.0362484 -18.1780088,-3.0323254 -18.1406129,-3.0291108 -18.10277,-3.0266076 -18.0644788,-3.024818 -18.0257381,-3.0237435 -17.9865475,-3.0233852 4.1134525,-3.0233852 4.1134525,-3.0233852 4.1518082,-3.0237035 4.189823,-3.0246579 4.2274973,-3.0262477 4.2648318,-3.0284715 4.3018275,-3.0313277 4.3384856,-3.034814 4.3748075,-3.0389277 4.4107948,-3.0436657 4.4464495,-3.0490245 4.4817736,-3.0550001 4.5167695,-3.0615883 4.5514397,-3.0687843 4.585787,-3.076583 4.6198142,-3.0849789 4.6535246,-3.0939661 4.6869213,-3.1035387 4.7200079,-3.1136899 4.7527881,-3.124413 4.7852656,-3.135701 4.8174445,-3.1475462 4.8493288,-3.1599412 4.8809229,-3.1728777 4.9432582,-3.2003426 5.0044872,-3.2298719 5.0646489,-3.2613931 5.1237839,-3.2948301 5.1819346,-3.3301042 5.2391447,-3.3671335 5.2954595,-3.4058337 5.3509255,-3.4461178 5.4055905,-3.4878967 5.4595035,-3.531079 5.5127145,-3.5755715 5.5652743,-3.621279 5.6172349,-3.668105 5.6686486,-3.7159513 5.7195689,-3.7647186 5.7700496,-3.8143063 5.8201448,-3.8646133 5.9193983,-3.9669757 6.0177708,-4.0709823 6.2136536,-4.2806045 6.312057,-4.3845535 6.4113618,-4.4868202 6.4614902,-4.5370652 6.5120091,-4.5865815 6.5629726,-4.6352681 6.6144346,-4.6830245 6.6664481,-4.7297515 6.7190658,-4.7753511 6.7723394,-4.8197268 6.8263196,-4.8627837 6.8810564,-4.9044286 6.9365986,-4.9445705 6.992994,-4.9831203 7.0502889,-5.0199914 7.1085285,-5.0550995 7.1677564,-5.0883633 7.2280147,-5.119704 7.2893441,-5.1490461 7.3517832,-5.1763172 7.3834304,-5.1891546 7.4153687,-5.2014488 7.4476023,-5.2131919 7.4801353,-5.2243763 7.5129717,-5.2349946 7.5461152,-5.2450397 7.5795695,-5.2545048 7.613338,-5.2633835 7.647424,-5.2716698 7.6818305,-5.2793578 7.7165606,-5.2864421 7.7516168,-5.2929178 7.7870017,-5.2987801 7.8227175,-5.3040247z" transform="matrix(1,0,0,-1,26.5865475,14.7732814)" fill="rgb(0,0,0)" stroke-linecap="round" stroke-linejoin="round" /><path d="M-9.5365475,2.7432814 a4.55,4.55 0 1,1 9.1,0 a4.55,4.55 0 1,1 -9.1,0z" transform="matrix(1,0,0,-1,26.5865475,14.7732814)" fill="rgb(255,255,255)" stroke="rgb(0,0,0)" stroke-width="0.0010cm" stroke-linecap="round" stroke-linejoin="round" /></svg>